<?xml version="1.0" encoding="UTF-8"?>
<svg width="100px" height="34px" viewBox="0 0 100 34" version="1.1" xmlns="http://www.w3.org/2000/svg" xmlns:xlink="http://www.w3.org/1999/xlink">
    <title>camillen</title>
    <g id="Page-1" stroke="none" stroke-width="1" fill="none" fill-rule="evenodd">
        <g id="camillen" fill="#3F6769" fill-rule="nonzero">
            <path d="M96.295,0 C96.309,0.682 96.279,1.369 96.116,2.034 C95.7822691,3.44885898 96.3730465,4.86172119 97.0343998,6.08703589 C97.0340118,6.0883361 97.035006,6.08916807 97.036,6.09 C97.189,6.245 97.341,6.402 97.495,6.559 L97.496,6.56 L97.7355696,6.72082471 C98.7452347,7.45463776 99.3407143,8.59857143 100,9.633 L99.9993445,10.0239816 C99.999563,10.024321 99.9997815,10.0246605 100,10.025 L100,12.072 L100,12.072 L100,12.775 C99.562,13.399 99.12,14.04 98.518,14.52 C97.596,15.272 96.524,15.802 95.512,16.418 C95.129,16.652 94.714,16.822 94.301,16.993 L94.301,16.993 L94.238,17.031 L94.0498663,17.1270696 C94.1122296,17.0937347 94.175,17.0617143 94.238,17.031 C93.96,17.291 93.675,17.545 93.379,17.784 C92.9199787,18.1572043 92.5714856,18.6419324 92.2162722,19.1090125 C92.2144317,19.1106352 92.2142157,19.1113175 92.214,19.112 L92.183,19.184 C92.083,19.696 91.852,20.162 91.63,20.628 C91.563,20.822 91.423,21.103 91.626,21.26 C91.907,21.541 92.285,21.76 92.412,22.162 C92.54,22.393 92.557,22.767 92.865,22.833 C93.344,22.969 93.844,23.009 94.331,23.117 C94.988,23.24 95.631,23.452 96.231,23.75 L96.232,23.75 L96.3649204,23.8063141 C96.7241852,23.9624074 97.091,24.171 97.235,24.555 C97.312,24.835 97.327,25.151 97.215,25.423 C96.818,26.12 96.05,26.512 95.278,26.631 C96.016,27.024 96.857,27.331 97.359,28.041 L97.359,28.041 C97.7014615,28.4425385 97.694574,29.0085266 97.4201361,29.4369381 L97.346,29.541 L97.346,29.541 L97.345,29.541 L97.273192,29.668679 C97.059208,29.989791 96.692392,30.157239 96.312008,30.201231 L96.169,30.212 L96.169,30.212 C95.43,30.277 94.682,30.266 93.943,30.206 L93.7495102,30.1110904 C93.814898,30.1403673 93.8794286,30.172 93.943,30.206 C93.573,30.177 93.207,30.116 92.848,30.028 C92.895,30.611 93.028,31.235 92.788,31.792 C92.369,32.52 91.554,33.02 90.707,33.012 C89.521,33.112 88.322,32.74 87.38,32.021 L87.200856,31.869272 L87.200856,31.869272 L86.860232,31.545224 C86.7454,31.43916 86.6258,31.3394 86.491,31.259 C86.38,31.25 86.294,31.328 86.26,31.427 C86.053,31.841 85.939,32.298 85.692,32.692 C85.337,33.285 84.756,33.701 84.145,34 L82.242,34 C81.687,33.706 81.177,33.3 80.836,32.767 C80.591,32.383 80.408,31.964 80.2,31.561 C79.623,31.995 79.072,32.47 78.447,32.836 C78.034,33.081 77.566,33.204 77.106,33.325 L77.298463,33.1852407 L77.298463,33.1852407 L77.106,33.325 L77.106,33.325 C76.747,33.461 76.391,33.645 75.999,33.643 C75.632,33.646 75.291,33.491 74.969,33.333 C74.429,33.104 73.975,32.651 73.814,32.079 C73.672,31.577 73.826,31.058 73.956,30.571 C73.712,30.577 73.469,30.585 73.227,30.6 L72.4873437,30.610125 C72.7339375,30.6054375 72.9805,30.6015 73.227,30.6 C72.28,30.925 71.2,31.098 70.268,30.627 L71.0076562,30.63375 L71.0076562,30.63375 L70.268,30.627 L70.268,30.627 C70.043,30.529 69.846,30.38 69.648,30.239 C69.55,30.172 69.455,30.105 69.363,30.033 C69.085,29.807 68.925,29.46 68.968,29.1 C68.9588333,28.5616667 69.3177222,28.1594444 69.6783472,27.7972685 L69.892,27.584 L69.892,27.584 C69.352,27.089 68.587,27.073 67.918,26.878 C66.8626667,26.5893333 65.79,26.3806667 64.7142222,26.1871111 L63.1,25.9 L63.1,25.9 C62.3520525,25.831097 61.5951302,25.7691743 60.8889806,25.490179 C60.888,25.4890563 60.887,25.4890282 60.886,25.489 L60.8318519,25.4827037 L60.8318519,25.4827037 L60.714,25.469 L60.714,25.469 L60.4582012,25.386379 C60.544,25.4118571 60.6292857,25.4394286 60.714,25.469 L59.921037,25.4914444 C59.789,25.494 59.657,25.495 59.525,25.493 L59.522,25.492 L59.2257143,25.505758 C58.6289671,25.5131095 58.0380769,25.4122121 57.4749687,25.2080772 L57.472,25.207 C55.593,25.142 53.709,25.128 51.831,25.215 L51.829,25.215 L51.5955117,25.304293 C51.0416962,25.4926127 50.454843,25.5440076 49.871004,25.4891886 L49.869,25.489 C49.47,25.496 49.072,25.493 48.674,25.503 C48.525,25.513 48.376,25.521 48.228,25.53 C47.417,25.859 46.529,25.848 45.69,26.066 C43.621,26.392 41.577,26.852 39.522,27.255 C36.369,28.009 33.204,28.713 30.063,29.519 C28.042,30.031 25.991,30.41 23.945,30.803 C23.654,30.853 23.359,30.861 23.065,30.875 L23.3007318,30.7755773 C23.2212041,30.805449 23.1425714,30.8384286 23.065,30.875 C22.512,30.921 21.95,30.936 21.416,31.105 C20.902,31.264 20.36,31.257 19.827,31.273 L19.2917778,31.2767778 L19.2917778,31.2767778 L19.827,31.273 L19.827,31.273 C19.419,31.383 19.018,31.526 18.597,31.577 C17.993,31.66 17.383,31.599 16.776,31.582 C15.725,31.607 14.674,31.628 13.623,31.586 L13.619,31.585 L13.2627376,31.610691 C12.5426327,31.6396939 11.8255714,31.5495714 11.121,31.397 C9.727,31.251 8.376,30.845 7.077,30.331 C5.735,29.814 4.559,28.958 3.467,28.036 C2.605,27.319 1.942,26.405 1.297,25.497 C0.789,24.798 0.442,24.001 0,23.262 L0,22.295 L0.31072,22.622424 C0.46384,22.78836 0.6076,22.962 0.715,23.163 L0.289,23.171 L0.289,23.171 L0.289,23.171 L0.715,23.163 L0.715,23.163 L0.8605,23.45475 L0.8605,23.45475 L1.009,23.745 L1.009,23.745 C1.42,24.219 1.825,24.698 2.205,25.196 C2.814,25.987 3.599,26.615 4.406,27.192 C4.6832,27.3912 4.97496,27.56608 5.271936,27.732256 L6.169168,28.220288 L6.169168,28.220288 L6.612,28.474 L6.612,28.474 L6.685,28.508 L6.686,28.508 L7.239125,28.6408594 C7.7894375,28.788 8.33075,28.96875 8.885,29.1 C9.64957143,29.2448571 10.4075306,29.4536327 11.1846968,29.511586 L11.575,29.527 L11.575,29.527 C12.853,29.438 14.122,29.66 15.4,29.63 C16.645,29.661 17.883,29.441 19.128,29.526 C20.025,29.549 20.881,29.253 21.763,29.148 C22.0867143,29.1037143 22.407,29.0394286 22.7261195,28.9687172 L23.682242,28.7508805 C24.1608163,28.645898 24.6418571,28.557 25.133,28.53 L24.8761543,28.6489316 L24.8761543,28.6489316 L25.133,28.53 L25.133,28.53 C25.19,28.515 25.304,28.485 25.36,28.471 C25.659,28.352 25.955,28.224 26.267,28.143 C27.614,27.811 28.952,27.444 30.294,27.09 C32.283,26.612 34.234,25.99 36.229,25.534 C38.5001111,24.9864444 40.7459383,24.3100988 43.0486543,23.9031852 L43.915,23.764 L43.915,23.764 L43.915,23.764 L44.2458889,23.7957037 L44.2458889,23.7957037 L43.915,23.764 L43.915,23.764 C44.46,23.582 45.027,23.47 45.598,23.407 C46.412,23.32 47.201,23.072 48.021,23.039 C48.822,23.002 49.593,22.746 50.395,22.716 C51.282,22.673 52.176,22.693 53.055,22.544 C54.061,22.374 55.084,22.419 56.1,22.412 C57.177,22.419 58.263,22.367 59.329,22.556 C60.432,22.746 61.564,22.613 62.662,22.841 C63.207,22.953 63.76,23.02 64.311,23.093 C65.895,23.373 67.469,23.701 69.03,24.085 L68.680037,24.0993704 C68.7966667,24.0956667 68.9133333,24.0906667 69.03,24.085 C69.89,24.038 70.62,23.486 71.473,23.384 L71.921984,23.388128 L71.921984,23.388128 L71.473,23.384 L71.473,23.384 C72.084,23.232 72.703,23.115 73.329,23.053 C73.3946,22.7786 73.46212,22.50292 73.568936,22.241832 L73.657,22.049 L73.657,22.049 C73.988,21.547 74.467,21.063 75.1,21.011 C76.095,20.908 77.124,20.958 78.066,21.319 C78.343,20.868 78.63,20.38 79.118,20.129 C79.737,19.809 80.459,19.589 81.155,19.763 C81.937,19.962 82.677,20.383 83.195,21.009 C83.508,21.384 83.675,21.849 83.843,22.301 C84.011,21.637 84.224,20.983 84.314,20.302 C84.404,19.643 84.584,18.999 84.637,18.335 C84.671,17.907 84.703,17.477 84.789,17.055 C85.0538596,15.7576875 85.2228209,14.4324047 85.6712868,13.1809895 C85.6722728,13.1809909 85.6721364,13.1799955 85.672,13.179 C85.683,13.115 85.705,12.986 85.716,12.922 C85.799,11.997 86.062,11.104 86.286,10.207 C86.624,8.979 86.864,7.727 87.07,6.472 C87.134,5.739 87.33,5.026 87.527,4.32 C87.67,3.898 87.793,3.439 88.109,3.109 C88.308,2.985 88.559,2.995 88.784,2.949 C88.794,3.328 88.796,3.707 88.794,4.086 C88.6944785,4.22533014 88.5959474,4.36366983 88.4984068,4.5029905 C88.4971765,4.50265668 88.4971259,4.50332618 88.4970755,4.5039957 C88.595,4.365 88.694,4.226 88.794,4.086 C88.792,5.024 88.745,5.961 88.774,6.899 C88.787,7.67 88.847,8.44 88.82,9.21 C88.8170064,9.56723992 88.6825727,9.90356891 88.511095,10.2110378 C88.5100224,10.2116669 88.5100112,10.2123335 88.51,10.213 L88.509,10.217 L88.4912344,10.4865156 C88.47075,10.7603125 88.44225,11.03425 88.38,11.302 C87.906,13.156 87.146,14.921 86.641,16.766 C86.316,17.917 86.125,19.103 85.741,20.237 L85.715,20.327 L85.379,20.377 L85.379,20.377 L85.358,20.47 L85.2567874,20.763432 L85.2567874,20.763432 L85.358,20.47 L85.358,20.47 L85.379,20.377 C85.49,20.36 85.602,20.344 85.715,20.327 L85.6275185,20.5912222 L85.6275185,20.5912222 L85.435,21.113 L85.435,21.113 L85.412,21.192 L85.411,21.194 L85.369691,21.390344 C85.2710605,21.7816014 85.0881831,22.1442191 84.8335758,22.460047 C84.8323453,22.4606579 84.8321726,22.4613289 84.832,22.462 C84.79,22.539 84.749,22.617 84.709,22.695 C84.542141,23.1656022 84.2165506,23.5463564 83.8110285,23.8282853 C83.810784,23.8276453 83.8103919,23.8283226 83.81,23.829 C83.689,23.934 83.568,24.037 83.442,24.133 L83.44,24.134 L83.2860741,24.2548843 C83.022,24.45375 82.7361667,24.6275 82.417,24.72 C81.501,24.994 80.549,24.779 79.629,24.655 C80.134,25.165 80.842,25.347 81.526,25.466 L81.7713711,25.5140645 L81.7713711,25.5140645 L82.263332,25.6162402 C82.67425,25.6978906 83.088,25.759375 83.508,25.715 C83.91,25.665 84.195,25.342 84.555,25.188 C84.829,25.099 85.123,25.119 85.408,25.091 C86.025,25.068 86.583,24.774 87.13,24.515 L87.0123796,24.6224583 L87.0123796,24.6224583 L87.13,24.515 L87.13,24.515 C87.368,24.299 87.597,24.072 87.814,23.834 C88.164,23.474 88.47,23.075 88.78,22.681 L88.78,22.681 L88.808,22.605 L88.808,22.603 L88.934625,22.07675 L88.934625,22.07675 L88.808,22.605 L88.808,22.605 L88.78,22.681 C88.47,23.075 88.164,23.474 87.814,23.834 C88.235,23.076 88.631,22.304 89.056,21.547 C89.233,21.06 89.487,20.607 89.727,20.149 C89.995,19.645 90.08,19.039 90.499,18.623 L90.4751111,18.8520093 L90.4751111,18.8520093 L90.499,18.623 L90.499,18.623 C90.719,17.752 91.176,16.945 91.755,16.261 C92.106,15.837 92.605,15.59 93.089,15.35 L93.09,15.349 L93.3784512,15.1736133 C93.6741328,15.0106875 93.9870937,14.8850625 94.304625,14.769 L94.9420156,14.5414063 C95.154,14.4643125 95.36425,14.38325 95.569,14.29 C96.707,13.812 97.776,13.118 98.578,12.17 C98.915,11.791 99.103,11.23 98.863,10.75 C98.424,9.828 97.521,9.271 96.91,8.48 L96.983,8.528 L97.206576,8.676608 L97.206576,8.676608 L96.983,8.528 L96.983,8.528 L96.91,8.48 C96.518,8.216 96.14,7.928 95.818,7.581 C95.112,6.822 94.475,5.879 94.472,4.803 C94.451,3.941 94.416,3.049 94.718,2.226 C94.932,1.616 95.196,1.015 95.577,0.488 L95.6057037,0.530259259 L95.6057037,0.530259259 L95.577,0.488 L95.577,0.488 L95.62,0.432 C95.615,0.288 95.612,0.144 95.61,8.21565038e-15 L96.295,0 Z M13.101,4.712 C13.8,4.691 14.47,4.909 15.143,5.063 C15.822,5.219 16.443,5.546 17.069,5.84 C17.537,6.079 18.035,6.306 18.395,6.701 C18.688,7.026 18.663,7.49 18.669,7.898 C18.662,8.358 18.69,8.821 18.646,9.28 C18.633,9.529 18.467,9.735 18.274,9.877 C17.87,9.689 17.594,9.319 17.233,9.067 C16.579,8.598 15.904,8.131 15.133,7.876 C14.838,7.776 14.554,7.646 14.295,7.473 L14.295,7.473 C14.253,7.469 14.1838889,7.46188889 14.1241111,7.45581481 L14.046,7.448 L14.046,7.448 C13.347,7.585 12.645,7.379 11.944,7.447 C11.483,7.488 11.017,7.528 10.557,7.455 C10.436,7.481 10.313,7.491 10.189,7.485 L10.080952,7.48159098 L10.080952,7.48159098 L10.189,7.485 C9.718,7.819 9.151,7.97 8.652,8.252 C7.974,8.609 7.372,9.092 6.82,9.619 C6.47226852,9.94874537 6.21639512,10.3913164 5.76205289,10.5915366 C5.76110124,10.5914633 5.76105051,10.5917323 5.761,10.592 C5.739,10.813 5.594,10.99 5.474,11.168 L5.3081262,11.3934952 L5.3081262,11.3934952 L5.474,11.168 L5.474,11.168 C5.384,11.829 4.923,12.355 4.789,13.003 C4.664,13.531 4.466,14.049 4.45,14.597 C4.437,14.966 4.436,15.336 4.454,15.705 C4.478,16.218 4.661,16.703 4.78,17.197 C4.907,17.725 5.12,18.23 5.386,18.702 C5.569,19.039 5.822,19.371 5.778,19.778 C5.915,19.951 6.036,20.136 6.139,20.331 C6.701,20.527 6.997,21.105 7.502,21.397 C7.749,21.607 8.193,21.725 8.188,22.112 L8.246,22.144 C8.378,22.104 8.508,22.103 8.634,22.141 C8.815,22.229 8.991,22.326 9.173,22.413 L9.239,22.445 L9.239,22.445 C9.4765,22.408 9.7015,22.455 9.9245,22.519 L10.2588125,22.619375 C10.370625,22.6515 10.48325,22.6795 10.598,22.695 C11.003,22.755 11.409,22.807 11.813,22.875 C12.515,23.003 13.213,22.781 13.91,22.717 C14.672,22.661 15.317,22.158 16.083,22.136 C16.153,22.128 16.293,22.112 16.363,22.104 L16.2071836,22.2527188 L16.2071836,22.2527188 L16.363,22.104 L16.363,22.104 C16.531,21.953 16.695,21.773 16.932,21.743 L17.1013965,21.7076064 L17.1013965,21.7076064 L16.932,21.743 L16.932,21.743 C17.144625,21.350125 17.5632031,21.1494219 17.899668,20.8695723 L18.038,20.744 L18.038,20.744 L17.941,20.745 L18.031,20.357 L18.031,20.357 C18.237,20.429 18.574,20.386 18.621,20.665 C18.725,21.203 18.651,21.755 18.675,22.299 C18.665,22.742 18.734,23.254 18.421,23.617 C18.3221992,23.7736841 18.1188205,23.74412 17.9609543,23.7678558 C17.9600225,23.7674747 17.9600112,23.7677378 17.96,23.768 C17.926,23.77 17.856,23.775 17.821,23.777 L17.82,23.777 L17.684103,23.928814 C17.25087,24.35338 16.6251,24.5134 16.086,24.769 C15.6706667,24.965 15.2308889,25.0805556 14.7862222,25.1790741 L14.118,25.322 L14.118,25.322 C13.367,25.554 12.573,25.518 11.798,25.507 C11.084,25.507 10.412,25.24 9.711,25.145 C8.587,24.866 7.504,24.405 6.534,23.77 C6.10967247,23.497432 5.65244928,23.236826 5.37830201,22.7960967 L5.377,22.794 C5.013,22.592 4.752,22.253 4.436,21.988 C4.437,21.936 4.44,21.833 4.442,21.781 C4.019,21.71 3.841,21.289 3.617,20.979 C3.14436525,20.2515622 2.59285246,19.5221274 2.44833432,18.6450337 C2.44893904,18.6443038 2.44846963,18.6436519 2.448,18.643 C2.213,18.376 2.052,18.052 2.017,17.695 C1.935,17.055 1.653,16.451 1.665,15.799 L1.66673633,15.5041914 L1.66673633,15.5041914 L1.66209961,14.912043 C1.6621875,14.4184688 1.68625,13.92675 1.84,13.453 C1.994,12.7 2.203,11.963 2.441,11.232 C2.532,11.189 2.623,11.146 2.714,11.103 L2.5887963,11.4589907 L2.5887963,11.4589907 L2.714,11.103 L2.714,11.103 C2.889,10.638 3.161,10.217 3.394,9.78 C3.562,9.483 3.736,9.128 4.105,9.053 L3.93716,9.404424 L3.93716,9.404424 L4.105,9.053 L4.105,9.053 C4.505,8.335 5.18,7.83 5.785,7.295 C6.377,6.706 7.115,6.286 7.864,5.932 L8.26749271,5.82440525 C8.13406122,5.86402041 7.99971429,5.90042857 7.864,5.932 C7.955,5.805 8.024,5.646 8.174,5.578 C8.933,5.218 9.762,5.06 10.573,4.868 C11.395,4.627 12.258,4.735 13.101,4.712 Z M49.999,11.216 C50.537,11.342 51.04,11.597 51.504,11.894 C51.84,12.1224444 52.2076049,12.3856543 52.353273,12.7763374 L52.397,12.929 L52.397,12.929 L52.383,13.014 L52.383,13.015 L52.5218757,13.1606501 C53.1665937,13.9176484 53.0855,15.0195625 53.138,15.958 L52.1626944,16.0020463 L52.1626944,16.0020463 L53.138,15.958 L53.138,15.958 C52.916,16.112 52.683,16.284 52.401,16.291 C50.706,16.353 49.004,16.213 47.313,16.358 C47.301,16.246 47.291,16.134 47.282,16.022 L48.2581389,16.0054537 C47.9327222,16.0073056 47.6073333,16.0121667 47.282,16.022 C47.291,16.134 47.301,16.246 47.313,16.358 C47.336,16.85 47.635,17.285 47.987,17.609 L48.1155339,17.7025794 L48.1155339,17.7025794 L47.987,17.609 L47.987,17.609 C48.527,17.633 49.076,17.728 49.613,17.62 C50.157,17.499 50.417,16.911 50.917,16.722 C51.29875,16.755 51.6715,16.85325 52.04875,16.9247812 L52.428,16.984 L52.428,16.984 C52.754,16.917 53.171,17.178 53.027,17.544 C52.6,18.529 51.745,19.376 50.7,19.667 L50.5959219,19.6758125 C50.6305625,19.6729375 50.66525,19.67 50.7,19.667 C49.6616559,20.2396383 48.3466615,20.2190263 47.30697,19.66006 C47.3063302,19.6591148 47.3056651,19.6590574 47.305,19.659 C46.433,19.402 45.643,18.794 45.196,17.994 C44.865,17.414 44.519,16.794 44.531,16.106 L44.523816,15.44272 C44.52264,15.11068 44.5332,14.779 44.592,14.452 C44.745,13.822 45.022,13.221 45.389,12.687 C45.671,12.27 46.096,11.984 46.523,11.733 C47.066,11.422 47.664,11.165 48.3,11.16 C48.866,11.156 49.438,11.119 49.999,11.216 Z M69.086,10.504 C69.464,10.663 69.774,10.954 70.053,11.249 C70.272,11.485 70.148,11.849 69.974,12.073 C69.608,12.548 69.215,13.002 68.879,13.499 C69.244,13.59 69.603,13.712 69.926,13.909 L69.4430741,13.8981481 C69.604,13.9021111 69.765,13.9053333 69.926,13.909 C70.077,13.914 70.229,13.924 70.381,13.932 C70.366,14.052 70.351,14.173 70.337,14.294 C70.664,14.269 70.892,14.527 71.138,14.698 L71.138,14.983 L71.138,14.983 C71.191,15.009 71.298,15.061 71.351,15.087 C71.373,15.246 71.399,15.406 71.414,15.567 L71.414,15.567 C71.491,15.578 71.646,15.601 71.723,15.612 C71.768,16.39 71.817,17.179 71.675,17.951 C71.603,17.965 71.459,17.995 71.387,18.01 C71.458,18.635 70.854,18.993 70.367,19.218 L69.9776406,19.3241875 L69.9776406,19.3241875 L70.367,19.218 L70.367,19.218 C70.194,19.38 70.054,19.636 69.799,19.667 L69.797,19.667 L69.6374531,19.7475195 C69.2563906,19.93075 68.847,20.075125 68.42,20.048 C68.1722,20.03 67.93052,19.97492 67.69064,19.911488 L67.212,19.782 L67.212,19.782 C66.244,19.555 65.469,18.768 65.144,17.843 C64.839,17.187 64.86,16.414 65.138,15.753 C65.502,14.572 66.346,13.642 67.058,12.662 C67.541,12.097 67.925,11.46 68.382,10.877 C68.559,10.68 68.781,10.376 69.086,10.504 Z M12.801,11.192 C13.307,11.276 13.724,11.594 14.154,11.85 C14.295,11.945 14.466,11.962 14.631,11.967 C14.571,12.065 14.512,12.163 14.454,12.262 L14.2748414,12.1474479 L14.2748414,12.1474479 L14.454,12.262 L14.454,12.262 C14.512,12.163 14.571,12.065 14.631,11.967 L14.6829213,11.898537 C14.6656389,11.9221667 14.6485,11.9453333 14.631,11.967 C14.625,11.823 14.62,11.679 14.614,11.535 C15.405,11.451 16.207,11.435 16.993,11.576 C17.057,12.315 17.027,13.058 17.031,13.8 C17.035,15.434 17.025,17.068 17.038,18.702 C17.032,18.976 17.04,19.263 16.927,19.52 C16.838,19.67 16.648,19.669 16.496,19.698 C15.868,19.77 15.232,19.731 14.61,19.626 C14.607,19.576 14.602,19.474 14.6,19.424 L14.599,19.421 L14.530125,19.283625 C14.507,19.237 14.484,19.1905 14.461,19.144 C13.541,19.737 12.395,20.303 11.287,19.915 C10.652,19.716 9.9,19.569 9.543,18.94 C9.437,18.858 9.343,18.762 9.26,18.658 L9.12611061,18.4527797 C9.17029586,18.5218225 9.215,18.5902308 9.26,18.658 C8.604,18.234 8.271,17.453 8.096,16.721 C7.631,16.001 7.689,15.011 8.108,14.283 C8.43,13.231 9.069,12.201 10.066,11.672 C10.514,11.437 10.983,11.198 11.498,11.166 C11.931,11.139 12.37,11.129 12.801,11.192 Z M76.004,10.498 C77.073,10.703 77.97,11.461 78.505,12.389 C78.8223333,12.9435556 78.9454815,13.5688889 79.0494733,14.1934829 L79.138,14.727 L79.138,14.727 C79.245,15.387 79.103,16.048 78.986,16.696 C78.789,17.883 78.098,19.03 77.032,19.622 C76.433,19.859 75.776,20.175 75.122,19.983 C74.431,19.793 73.721,19.52 73.243,18.961 C72.686,18.383 72.417,17.614 72.133,16.882 C72.011,16.57 72.024,16.229 72.026,15.901 C72.035,15.364 71.982,14.817 72.122,14.291 L72.131,14.208 L72.131,14.208 L72.098,14.287 C72.076,13.921 72.168,13.564 72.299,13.226 C72.565,12.387 73.06,11.593 73.778,11.072 C74.441,10.682 75.217,10.343 76.004,10.498 Z M41.272,5.745 L41.8283438,5.76760938 L41.8283438,5.76760938 L42.9440313,5.76370313 L42.9440313,5.76370313 L43.497,5.788 L43.497,5.788 L43.5540412,5.80499922 C43.5540275,5.80466614 43.5540137,5.80433307 43.554,5.804 L43.604,5.749 C43.673,5.778 43.811,5.835 43.88,5.864 C43.923,10.177 43.874,14.491 43.905,18.805 C43.893,19.14 43.88,19.563 43.555,19.755 C43.096,19.9044 42.62404,19.71765 42.21931,19.490724 L42.087,19.414 C41.797,19.258 41.53,19.011 41.52,18.658 C41.229,18.272 41.102,17.784 41.117,17.304 C41.118,13.869 41.122,10.435 41.115,7.001 C41.127,6.582 41.04,6.121 41.272,5.745 Z M60.54,11.57 C61.209,11.872 61.536,12.569 61.796,13.212 C61.921,13.525 61.943,13.866 61.943,14.2 C61.93,15.735 61.936,17.27 61.942,18.804 C61.918,19.083 61.959,19.432 61.728,19.635 C61.403,19.768 61.042,19.735 60.7,19.747 C60.312,19.739 59.912,19.776 59.536,19.661 C59.422,19.391 59.426,19.092 59.423,18.804 C59.431,17.669 59.431,16.533 59.433,15.397 C59.435,14.742 59.165,14.136 58.945,13.533 C58.264,13.066 57.306,13.234 56.757,13.825 L56.755,13.827 L56.7043519,14.0696111 C56.6077778,14.4761389 56.4783333,14.8785 56.485,15.301 C56.48,16.759 56.511,18.218 56.465,19.676 C55.689,19.729 54.902,19.787 54.129,19.685 C54.053,19.675 53.901,19.653 53.825,19.643 C53.657,18.804 53.74,17.948 53.727,17.1 C53.728,15.5 53.722,13.901 53.725,12.302 C53.711,11.983 53.798,11.662 54.048,11.448 L54.0295363,12.3984485 C54.0335727,12.0816075 54.039492,11.7647873 54.048,11.448 C54.82,11.484 55.595,11.432 56.366,11.5 C56.446,11.639 56.525,11.778 56.606,11.918 C57.051,11.643 57.487,11.315 58.008,11.204 C58.862,11.083 59.784,11.106 60.54,11.57 Z M30.251,11.948 C30.754,12.579 31.008,13.393 31.015,14.196 C31.03,15.597 31.006,16.998 31.025,18.399 C31.035,18.831 30.987,19.26 30.914,19.685 C30.139,19.747 29.36,19.743 28.584,19.698 C28.461,18.167 28.574,16.628 28.526,15.095 C28.496,14.571 28.274,14.088 28.121,13.594 C28.091,13.574 28.033,13.534 28.004,13.514 L27.8995235,13.4356245 C27.9352422,13.4592561 27.9701176,13.4853529 28.004,13.514 C27.564,13.585 27.109,13.573 26.677,13.687 C26.366,13.828 26.267,14.192 26.168,14.488 C25.898,15.367 26.047,16.297 26.013,17.2 C25.979,17.94 26.122,18.701 25.895,19.422 L25.890963,18.1812593 C25.891,18.5947778 25.8916667,19.0083333 25.895,19.422 C25.894,19.487 25.892,19.617 25.891,19.682 C25.069,19.76 24.239,19.763 23.418,19.679 C23.415,19.559 23.413,19.439 23.413,19.32 C23.258,18.388 23.377,17.44 23.341,16.5 C23.319,15.588 23.484,14.556 22.933,13.762 C22.5118,13.4632 21.95938,13.59208 21.463093,13.575646 L21.3,13.564 L21.3,13.564 C21.263,13.573 21.188,13.591 21.151,13.601 L21.0558519,13.622963 L21.0558519,13.622963 L21.151,13.601 L21.151,13.601 C20.989,14.056 20.757,14.502 20.762,14.998 C20.751,16.465 20.758,17.932 20.76,19.399 C20.174,19.659 19.52,19.57 18.898,19.566 C18.646,19.571 18.31,19.403 18.351,19.109 C18.359,16.596 18.325,14.081 18.37,11.568 C19.155,11.528 19.943,11.511 20.727,11.579 C20.773,11.791 20.825,12.001 20.874,12.212 C21.402,11.603 22.178,11.175 23.001,11.224 C23.612,11.174 24.196,11.397 24.722,11.684 C24.938,11.804 25.059,12.027 25.199,12.221 L25.2320117,12.2612515 C25.2211597,12.2468569 25.2102109,12.2332786 25.199,12.221 C25.43,12.221 25.695,12.264 25.879,12.087 C26.315,11.738 26.765,11.372 27.32,11.235 C28.329,11.027 29.522,11.143 30.251,11.948 Z M39.092,5.755 L39.095,5.826 L39.095,5.826 L39.1834074,5.82948148 C39.2511111,5.832 39.3293333,5.83466667 39.376,5.836 C39.476,6.587 39.434,7.345 39.438,8.1 C39.44,11.669 39.435,15.238 39.441,18.807 C39.469,19.165 39.223,19.44 39.013,19.697 C38.517,19.514 37.968,19.41 37.559,19.055 C37.16,18.719 36.932,18.226 36.804,17.73 C36.694,17.227 36.747,16.709 36.741,16.2 C36.742,12.74 36.744,9.279 36.739,5.819 C36.857,5.821 36.975,5.824 37.094,5.826 L37.0914444,5.90433333 L37.0914444,5.90433333 L37.094,5.826 L37.094,5.826 L37.096,5.755 C37.761,5.765 38.426,5.766 39.092,5.755 Z M35.03,11.567 C35.076,13.544 35.038,15.522 35.05,17.5 C35.036,18.101 35.083,18.704 35.031,19.304 C34.714,19.712 34.141,19.534 33.698,19.577 C33.345,19.559 32.755,19.663 32.652,19.21 C32.633,16.839 32.653,14.467 32.642,12.096 C32.65,11.899 32.616,11.56 32.9,11.557 C33.609,11.512 34.321,11.537 35.03,11.567 Z M67.809,15.72 C67.449,15.932 67.221,16.334 67.141,16.736 C67.059,17.517 67.851,18.239 68.622,18.102 C69.03,18.013 69.384,17.773 69.71,17.522 L69.6319246,17.6344499 L69.6319246,17.6344499 L69.71,17.522 L69.71,17.522 L69.751,17.464 L69.751,17.462 L69.7287407,17.0227037 C69.7195764,16.7290008 69.7213253,16.435003 69.7319276,16.1410045 C69.7328586,16.1403269 69.7324293,16.1396634 69.732,16.139 C69.56,15.925 69.357,15.736 69.126,15.587 L69.126,15.587 C68.687,15.585 68.224,15.551 67.809,15.72 Z M75.222,12.608 C74.908,12.705 74.734,13.014 74.592,13.288 C74.142,14.173 74.102,15.208 74.251,16.173 C74.347,16.7925556 74.6666049,17.3386296 75.0356365,17.8358038 L75.176,18.02 L75.49625,18.029 L75.49625,18.029 L75.818,18.029 L75.818,18.029 C76.185,17.727 76.564,17.388 76.703,16.916 C76.888,16.278 76.865,15.605 76.866,14.948 C76.855,14.215 76.777,13.408 76.261,12.84 C76.01,12.545 75.574,12.507 75.222,12.608 Z M11.837,13.566 L11.658625,13.60775 L11.658625,13.60775 L11.481,13.651 L11.481,13.651 C11.279,13.72 11.128,13.889 10.999,14.051 C10.69,14.782 10.438,15.628 10.772,16.397 C11.014,17.122 11.723,17.659 12.495,17.651 C13.111,17.707 13.687,17.449 14.219,17.172 L14.1780579,17.2892329 L14.1780579,17.2892329 L14.219,17.172 L14.219,17.172 C14.344,17.061 14.479,16.949 14.557,16.798 C14.589,16.656 14.615,16.513 14.637,16.37 C14.648,15.598 14.736,14.675 14.084,14.116 C13.5604,13.5102667 12.7240711,13.5822578 11.9921013,13.5701576 L11.837,13.566 L11.837,13.566 Z M48.276,13.273 C47.817,13.416 47.568,13.853 47.343,14.242 C48.403,14.27 49.465,14.271 50.526,14.241 C50.558,14.135 50.591,14.029 50.625,13.923 L50.6611852,14.1331481 L50.6611852,14.1331481 L50.625,13.923 L50.625,13.923 C50.532,13.805 50.434,13.691 50.33,13.583 L50.2213184,13.4696797 C50.2584219,13.5070781 50.294625,13.545 50.33,13.583 C49.714,13.247 48.962,12.989 48.276,13.273 Z M34.791,7.011 C35.304,7.405 35.605,8.128 35.341,8.75 C35.082,9.28 34.579,9.705 33.994,9.818 C33.584,9.879 33.191,9.665 32.88,9.418 C32.579,9.157 32.279,8.825 32.256,8.407 C32.163,7.608 32.831,6.79 33.638,6.743 C34.034,6.715 34.471,6.751 34.791,7.011 Z" id="Combined-Shape"></path>
        </g>
    </g>
</svg>