<?xml version="1.0" encoding="UTF-8"?>
<svg width="171px" height="50px" viewBox="0 0 171 50" version="1.1" xmlns="http://www.w3.org/2000/svg" xmlns:xlink="http://www.w3.org/1999/xlink">
    <title>croma</title>
    <g id="partners" stroke="none" stroke-width="1" fill="none" fill-rule="evenodd">
        <g id="croma" transform="translate(0.000000, 0.714580)" fill="#54301A" fill-rule="nonzero">
            <path d="M158.27418,41.4504 C158.42808,41.85738 158.59566,42.26094 158.76666,42.6645 C158.77008,43.49556 158.76324,44.33004 158.7393,45.1611 C158.40414,45.80406 158.11686,46.47096 157.88088,47.15496 C156.97116,47.9655 155.78442,48.40668 154.59426,48.57084 L154.05732,48.25962 C155.12778,47.73294 156.18456,47.17548 157.22766,46.59408 C157.23108,46.42308 157.24476,46.08108 157.2516,45.90666 C156.13326,45.90666 155.01492,45.80406 153.94788,45.46206 C153.39384,44.1693 153.44856,42.74316 153.94788,41.44356 C155.3364,40.93398 156.90618,40.78692 158.27418,41.4504 Z M145.008,46.04004 C145.30554,46.42992 145.6065,46.82664 145.90746,47.21652 C145.6065,47.49354 145.30554,47.77398 145.01142,48.05442 C144.70704,47.7774 144.40608,47.50038 144.10512,47.22336 C144.40608,46.83006 144.70362,46.43334 145.008,46.04004 Z M165.00132,41.02632 C164.88846,42.58584 163.73592,43.65288 162.86724,44.83278 C162.12852,45.74592 162.11826,46.9737 161.67708,48.02364 C161.36586,47.78766 161.06148,47.55168 160.7571,47.31228 C160.95888,46.77876 161.17434,46.25208 161.36244,45.71172 C162.03276,44.58996 162.58338,43.33824 163.6812,42.55506 C163.70172,42.37038 163.7496,42.00444 163.77354,41.81976 C162.40554,41.80608 161.03754,41.80608 159.67296,41.80608 L159.67296,41.01948 L159.67296,41.01948 C161.44794,41.01948 163.22292,41.01264 165.00132,41.02632 Z M140.91084,40.8861 C140.91426,41.47776 140.92452,42.07284 140.93136,42.66792 C141.47514,42.6645 142.02576,42.6645 142.57296,42.6645 L142.57296,43.45452 L142.57296,43.45452 L140.92452,43.45452 L140.92452,43.45452 L140.92452,47.15154 L140.92452,47.15154 C141.18786,47.15496 141.71796,47.15838 141.9813,47.15838 C142.19676,47.00448 142.62426,46.69668 142.83972,46.54278 C143.0073,47.07972 142.77474,47.55168 142.48404,47.98944 C142.03602,47.9484 141.59142,47.91078 141.15024,47.87658 C140.9382,47.75688 140.52096,47.5209 140.30892,47.40462 C140.16528,46.87794 140.00112,46.3581 139.75488,45.87246 C139.71384,45.07218 139.70358,44.27532 139.70358,43.47846 C139.2966,43.45452 138.88962,43.43058 138.48606,43.40664 C138.48948,43.22196 138.4929,42.85602 138.4929,42.67476 C138.9033,42.66792 139.31712,42.66108 139.73094,42.65424 C139.71384,42.37038 139.67964,41.80608 139.66254,41.52564 C140.07636,41.30676 140.49018,41.09472 140.91084,40.8861 Z M170.56908,40.63986 C169.26948,41.04684 168.0075,41.6043 167.03964,42.58242 C167.8707,42.6303 168.70518,42.66108 169.54308,42.6816 C170.02872,43.09884 170.51436,43.5195 171,43.94358 L171,45.9477 C170.75034,46.42308 170.62038,47.00106 170.20656,47.36358 C169.27974,47.90736 168.17166,47.90052 167.1354,47.98944 C166.69764,47.52774 166.27014,47.06262 165.83238,46.60092 C165.65112,46.09476 165.43224,45.60228 165.24072,45.09954 C165.40488,44.49762 165.58956,43.90254 165.75372,43.30062 C166.60872,41.60088 168.49998,39.52152 170.56908,40.63986 Z M128.15766,42.6645 C128.79378,42.6645 129.4299,42.66792 130.06602,42.66792 C130.5756,43.10226 131.09544,43.5195 131.62212,43.9299 C131.62212,44.4429 131.62554,44.9559 131.62896,45.4689 C130.22334,45.49968 128.73906,45.2466 127.41552,45.85878 C127.72332,46.25892 128.0106,46.68642 128.37654,47.0421 C128.9682,47.1789 129.5838,47.15838 130.19256,47.19942 C130.48668,46.80612 130.7808,46.41624 131.08176,46.02636 C131.13648,46.25208 131.24934,46.70352 131.30406,46.92582 C130.8834,47.2644 130.46958,47.60982 130.0626,47.9655 C128.82456,48.0339 127.64466,47.57904 126.79992,46.67274 C126.69732,46.14948 126.53316,45.64674 126.32112,45.16452 L126.417788,45.1216631 L126.417788,45.1216631 L126.653448,45.0192769 C126.690694,45.0031387 126.72468,44.98839 126.75204,44.97642 C126.73494,44.74044 126.70416,44.26848 126.69048,44.0325 C127.1898,43.5879 127.67544,43.12962 128.15766,42.6645 Z M151.47522,40.87584 C151.58124,43.22538 151.44444,45.57492 151.48548,47.92446 C151.29738,47.92446 150.9246,47.92104 150.7365,47.91762 L150.7365,42.25068 L150.7365,42.25068 C150.5484,42.24042 150.16536,42.21648 149.97384,42.20622 C149.76522,42.49692 149.56002,42.78762 149.35482,43.07832 C149.04702,43.08174 148.43484,43.092 148.13046,43.09542 C148.48614,42.69528 148.84182,42.29856 149.19066,41.89158 C149.90886,41.46408 150.65442,41.06736 151.47522,40.87584 Z M136.62558,42.6474 C136.90944,42.96888 137.1933,43.29378 137.47716,43.61868 C136.90602,43.79652 136.3383,43.73496 135.7911,43.52976 C135.26442,43.48188 134.74116,43.4511 134.2179,43.42032 C134.08452,43.56396 133.81092,43.85124 133.67412,43.9983 C133.79724,44.17956 134.04348,44.54208 134.1666,44.72334 C134.84034,44.72334 135.51066,44.72334 136.18782,44.72676 C136.70424,45.03456 137.23092,45.32526 137.7576,45.6228 C137.74734,46.07766 137.7405,46.53594 137.73708,46.99422 C137.3472,47.2986 136.96416,47.6064 136.58454,47.92104 C135.82188,47.91762 135.05922,47.9142 134.29998,47.8971 C133.80066,47.6235 133.2945,47.367 132.79176,47.10708 C132.78492,46.90188 132.76782,46.4949 132.76098,46.2897 C132.9525,46.2726 133.33896,46.23498 133.53048,46.21446 C133.72884,46.5291 133.93062,46.84374 134.13582,47.15838 C134.9019,47.15838 135.66798,47.1618 136.43748,47.16522 C136.61874,46.76508 136.79316,46.36152 136.96758,45.95454 C135.98946,45.56466 134.94294,45.43812 133.893,45.44838 C133.52706,45.1782 133.1577,44.90802 132.79518,44.64126 C132.7815,44.29242 132.77466,43.94358 132.7644,43.59816 C133.16454,43.29036 133.56126,42.98256 133.95798,42.66792 C134.84376,42.66792 135.73296,42.6645 136.62558,42.6474 Z M169.15662,43.37586 C168.56154,43.42716 167.96304,43.434 167.37822,43.5537 C166.64976,44.11458 166.67028,45.16794 166.42746,45.99216 C166.97808,47.03526 168.01776,47.2986 169.12584,47.20968 C169.50546,46.8198 169.88508,46.43334 170.27496,46.0503 C170.3844,44.97984 170.10054,43.9812 169.15662,43.37586 Z M157.56282,41.78898 C156.83094,41.80266 156.10248,41.81292 155.37744,41.8266 C155.01492,42.18228 154.64898,42.53112 154.28304,42.87654 C154.14966,43.83072 154.63188,44.58312 155.33298,45.16794 C155.96226,45.12006 156.59838,45.11322 157.22424,45.0072 C158.05872,44.10774 158.09292,42.84918 157.56282,41.78898 Z M127.39158,44.69256 C128.53386,44.72334 129.67614,44.71992 130.81842,44.71992 C130.48668,44.26848 130.15494,43.81704 129.8232,43.36902 C128.75274,43.26984 127.92168,43.7931 127.39158,44.69256 Z M155.89044,-3.55271368e-15 C156.63942,0.171 157.3884,0.32832 158.14422,0.47538 C158.27418,0.513 158.52726,0.58824 158.6538,0.62586 C160.2099,1.13202 161.72838,1.78524 163.09296,2.7018 C163.24002,2.7531 163.53756,2.8557 163.68804,2.907 C163.96506,3.23532 164.24208,3.56364 164.52252,3.89196 C164.50542,2.99592 164.48832,2.09988 164.47464,1.20384 C166.64976,1.19358 168.82488,1.197 171,1.197 L171,32.5071 C168.82146,32.47632 166.61898,32.67126 164.46438,32.24718 C164.49174,31.50504 164.5191,30.7629 164.54646,30.01734 L163.340267,30.7651982 C162.738374,31.1416992 162.142884,31.528296 161.57448,31.95306 C159.75504,32.72256 157.80564,33.07482 155.94516,33.71436 C154.76868,33.77592 153.59562,33.78276 152.41914,33.7896 C152.33706,33.68016 152.1729,33.45444 152.09082,33.34158 C147.13866,32.90382 142.74054,29.81556 140.14818,25.65684 C138.9546,24.1623 138.26718,22.3497 138.03804,20.46186 C137.9628,20.32506 137.81232,20.05146 137.73708,19.91466 C137.78154,17.9379 137.64816,15.95772 137.78838,13.98438 C138.07908,12.00762 138.79728,10.09926 139.78566,8.36874 C140.38758,7.56846 140.93478,6.73056 141.52986,5.92344 C143.63316,3.14982 146.96082,1.79208 150.05592,0.45144 C150.82884,0.3249 151.59834,0.171 152.36442,-3.55271368e-15 L155.89044,-3.55271368e-15 Z M70.27074,-3.55271368e-15 C71.01972,0.171 71.77554,0.32832 72.53136,0.46512 C73.0854,0.68058 73.63602,0.89262 74.18664,1.12176 C74.36106,1.15596 74.70648,1.2312 74.8809,1.2654 C77.04576,2.37006 79.21062,3.73464 80.68122,5.70114 C82.0629,7.0623 83.07522,8.75178 83.86866,10.50966 C85.02462,13.24566 84.9528,16.27236 84.81942,19.17936 C84.72024,20.84148 84.1833,22.44888 83.34882,23.88186 C83.31462,24.03918 83.24622,24.34698 83.21202,24.5043 C82.251,25.89282 81.38916,27.37026 80.15454,28.54674 C79.06698,29.754 77.634,30.55086 76.31046,31.464 C74.97666,32.37714 73.3761,32.72598 71.84394,33.1569 C71.00946,33.23898 70.15446,33.31422 69.40548,33.73146 C67.7673,33.92982 66.16332,33.57756 64.59354,33.15006 C62.80488,32.70204 61.04358,32.10696 59.4396,31.18356 C56.74122,29.21706 54.19674,26.82648 52.89714,23.6835 C51.40602,20.80044 51.471,17.4762 51.65568,14.32638 C51.8814,11.56302 53.21862,9.05616 54.68238,6.76134 C56.34792,4.24764 58.95738,2.6334 61.57368,1.2654 C61.74468,1.22094 62.0901,1.13544 62.26452,1.09098 C63.5265,0.58824 64.85346,0.29754 66.17358,-3.55271368e-15 L70.27074,-3.55271368e-15 Z M18.68346,-7.10542736e-15 C19.43244,0.171 20.18484,0.32832 20.94066,0.46854 C21.49128,0.684 22.0419,0.89604 22.5891,1.12176 C22.76352,1.15596 23.11236,1.22436 23.28678,1.26198 C24.55902,1.9152 25.84152,2.58552 26.90172,3.56364 C27.06246,3.59784 27.38736,3.66966 27.5481,3.70386 C28.21842,4.44258 28.86822,5.20182 29.44278,6.01578 C29.67192,6.24492 29.90106,6.47064 30.1302,6.69636 C29.241,7.37694 28.35522,8.06436 27.52416,8.81334 C27.33948,8.86464 26.97012,8.9604 26.78544,9.00828 C26.2827,9.61362 25.77654,10.21554 25.26696,10.81062 C23.48514,9.1143 21.78882,6.94944 19.20672,6.54588 C16.4502,6.40566 13.33116,6.10812 11.02608,7.95492 C9.18954,9.46314 7.41456,11.29968 6.80238,13.66632 C6.31674,15.3387 6.49116,17.1 6.48774,18.81684 C6.55272,18.95706 6.6861,19.24092 6.75108,19.38114 C7.21962,21.91536 8.91594,24.10074 11.06028,25.46874 C11.53908,25.73208 12.01446,26.00568 12.483,26.28612 C14.2443,26.8128 16.04322,27.28476 17.89686,27.25056 C18.0405,27.14454 18.32094,26.93592 18.46116,26.8299 C19.29906,26.66232 20.13354,26.47764 20.97144,26.31348 C22.35654,25.479 23.39622,24.23412 24.62058,23.20812 C25.2909,23.05764 25.88256,23.52618 26.41608,23.86134 C27.63018,24.78474 28.79298,25.78338 30.14046,26.51184 C27.60282,30.41406 23.24232,32.95512 18.62532,33.41682 C17.48646,33.86826 16.24842,33.81354 15.05142,33.7212 C12.98574,32.9175 10.68408,32.78754 8.74152,31.64526 C5.89266,29.925 3.39948,27.53442 1.79892,24.59664 C0.89262,22.99608 0.4446,21.19716 0,19.42902 L0,13.66974 C0.67374,11.39886 1.56294,9.16902 2.87622,7.18884 C3.74148,5.92686 4.62384,4.59306 6.01236,3.85776 C8.38242,1.64502 11.5596,0.57456 14.69232,-7.10542736e-15 L18.68346,-7.10542736e-15 Z M50.787,1.197 L50.787,7.26408 L50.787,7.26408 C47.40804,7.2675 44.0325,7.26408 40.65696,7.2675 L40.65696,32.46948 L40.65696,32.46948 C38.67336,32.45922 36.68634,32.47632 34.70274,32.52078 C34.56594,32.36688 34.29234,32.05908 34.15212,31.90518 C34.1658,21.66912 34.15212,11.43306 34.15896,1.197 L50.787,1.197 L50.787,1.197 Z M104.31342,3.55271368e-15 C105.36336,0.28044 106.40988,0.56088 107.45982,0.84816 C108.71838,1.56978 110.07612,2.16486 111.12606,3.1977 C111.3381,3.21822 111.75876,3.2661 111.9708,3.29004 C112.16916,3.03696 112.3641,2.78388 112.56588,2.53422 C112.994748,2.350908 113.418965,2.1544632 113.841978,1.95448896 L114.68742,1.55268 C116.09722,0.88464 117.51918,0.24852 119.08098,3.55271368e-15 L122.73696,3.55271368e-15 C123.32178,0.17442 123.91686,0.3249 124.51194,0.45828 C127.10088,1.32354 129.33414,2.9412 131.1228,4.9761 C132.37452,7.07598 133.35264,9.47682 133.2261,11.96316 C133.18506,18.81342 133.2261,25.66368 133.20216,32.51394 C131.0373,32.51736 128.87586,32.46264 126.711,32.46264 C126.6939,25.40034 126.75204,18.33462 126.68022,11.27232 C126.5058,10.86534 126.34506,10.45152 126.18774,10.0377 C125.56872,8.98776 124.95312,7.82154 123.83136,7.22646 C122.48046,6.52878 120.87306,6.2586 119.38878,6.65532 C117.60696,7.0281 116.1945,8.3961 115.25058,9.8838 C114.45714,12.0726 114.53238,14.45976 114.54606,16.758 C114.54948,22.01112 114.55974,27.26424 114.53922,32.51736 C112.37778,32.4558 110.21292,32.47974 108.05148,32.51394 C108.0549,25.89624 108.04122,19.27854 108.06174,12.66426 C108.11646,11.115 107.6445,9.51102 106.5159,8.40978 C104.72724,6.2244 101.28672,5.92686 98.9406,7.35984 C97.63758,8.16354 96.96384,9.58284 96.27984,10.88928 C96.26616,18.00972 96.26958,25.13358 96.27642,32.25402 C93.99186,32.68836 91.66284,32.41818 89.35434,32.51394 C89.33382,22.0761 89.35092,11.63484 89.3475,1.197 C91.41318,1.197 93.47886,1.20384 95.54796,1.18674 C95.7942,1.41246 96.04044,1.63476 96.28668,1.85706 C96.1191,2.04858 95.78394,2.4282 95.61978,2.61972 C97.62732,1.75104 99.39204,0.29754 101.6253,3.55271368e-15 L104.31342,3.55271368e-15 Z M151.7967,6.47748 C151.67016,6.55272 151.4205,6.69636 151.29396,6.76818 C150.52788,6.98706 149.74128,7.20252 149.0949,7.68474 C147.19338,9.1314 145.4184,10.91322 144.72756,13.26618 C144.62154,13.86126 144.5121,14.45292 144.31374,15.02406 C143.93754,17.77032 144.54288,20.6226 146.00322,22.97556 C147.06342,24.40512 148.428,25.5645 150.05934,26.28954 C150.93144,26.44002 151.75908,26.75124 152.55252,27.1377 C153.60246,27.19242 154.66266,27.26424 155.71602,27.1377 C157.01904,26.7957 158.28102,26.31348 159.56352,25.89624 C161.5779,24.5727 163.15794,22.63356 164.03346,20.39346 C164.84058,17.36334 164.89872,13.7826 163.01088,11.13894 C162.14904,9.89406 161.10936,8.7552 159.77214,8.00964 C159.66954,7.8831 159.46776,7.6266 159.36858,7.49664 C158.97186,7.30854 158.57172,7.12386 158.18184,6.93234 C156.123,6.18678 153.92394,6.61428 151.7967,6.47748 Z M65.96496,6.5493 C64.8261,6.71688 63.76248,7.20594 62.7741,7.7805 C62.073,8.5671 60.93072,8.88858 60.45192,9.8667 C60.17148,10.3626 59.7645,10.75932 59.34726,11.13894 C59.07366,11.70666 58.81374,12.2778 58.54356,12.84552 C58.18104,14.2443 57.93138,15.67044 57.72276,17.09658 C58.16052,17.90712 58.05792,18.8442 58.26654,19.70946 C58.54698,20.56446 58.96422,21.36816 59.34726,22.1787 C60.15096,23.41674 61.10172,24.57612 62.3295,25.41402 C63.70776,26.40924 65.44854,26.51184 66.98412,27.14454 C67.80834,27.18558 68.63598,27.19242 69.46362,27.14454 C70.0074,26.85042 70.61274,26.75124 71.21808,26.65548 C73.36584,25.81758 75.56148,24.6924 76.6593,22.54806 C77.64084,20.89962 78.4719,19.06308 78.3864,17.10342 C78.44112,15.78672 78.14016,14.5008 77.90076,13.2183 C77.61006,12.60612 77.33988,11.9871 77.07996,11.36466 C76.8816,11.20392 76.68666,11.04318 76.49514,10.87902 C75.84876,9.64782 74.8638,8.61498 73.59498,8.0199 C73.43424,7.80102 73.2735,7.57872 73.11276,7.35642 C70.8795,6.2928 68.37606,6.36804 65.96496,6.5493 Z" id="Combined-Shape"></path>
        </g>
    </g>
</svg>