<?xml version="1.0" encoding="UTF-8"?>
<svg width="172px" height="30px" viewBox="0 0 172 30" version="1.1" xmlns="http://www.w3.org/2000/svg" xmlns:xlink="http://www.w3.org/1999/xlink">
    <title>drschrammek</title>
    <g id="partners" stroke="none" stroke-width="1" fill="none" fill-rule="evenodd">
        <g id="drschrammek" transform="translate(0.149453, 0.277795)" fill="#54301A" fill-rule="nonzero">
            <path d="M149.836277,13.0006215 C149.867133,14.3445676 149.867133,15.6919422 149.846563,17.0393167 C149.298013,16.6999018 148.759749,16.2336347 148.070634,16.298775 C144.450208,16.2713475 140.83321,16.298775 137.212783,16.2953466 C137.223069,17.4301582 137.223069,18.5615414 137.209355,19.696353 C139.448122,19.6929246 141.68689,19.7409227 143.925657,19.6929246 C144.344549,19.7328191 144.683653,19.5133993 145.002314,19.2707352 L145.238405,19.0880674 C145.277423,19.058126 145.316355,19.0287434 145.355314,19.0003809 L145.835295,18.9523829 C145.783868,20.4094673 145.818153,21.8631233 145.766726,23.3202077 C145.355314,22.8985103 144.909618,22.5213826 144.515348,22.0859715 C142.084588,22.0071175 139.653828,22.0619725 137.226497,22.0482587 C137.223069,23.2550675 137.223069,24.4584478 137.212783,25.6652565 C140.819496,25.6858271 144.426208,25.6789703 148.036349,25.6755418 C148.766606,25.7406821 149.407723,25.3669828 149.993985,24.9761413 L150.007318,26.3645301 C150.013413,27.2899533 150.004271,28.2148686 149.921988,29.1382601 C149.709425,28.9565531 149.284299,28.5897107 149.071736,28.4080037 C143.63424,28.3600056 138.193316,28.3874331 132.755819,28.39429 C132.988953,28.0720172 133.225515,27.7497444 133.462077,27.4309 C133.465505,23.2619243 133.441506,19.0963771 133.47579,14.9308298 C133.215229,14.6188424 132.958097,14.3068549 132.704393,13.9948674 C137.816188,13.9434409 142.931411,14.0051527 148.046635,13.9674399 C148.835175,14.1011488 149.339154,13.4977445 149.836277,13.0006215 Z M36.3071155,14.742266 C37.0305151,14.9514004 37.7847705,14.9308298 38.5287407,14.9068308 C38.4978848,15.0473966 38.4430299,15.3285282 38.4121739,15.469094 C37.4590693,16.3433446 36.7939531,17.4644425 35.9642721,18.4449746 C35.3985805,17.7455741 34.6786094,17.2107384 33.8832127,16.7993263 C31.3187441,16.0450709 28.4937145,15.8736492 25.9429597,16.7684704 C24.9555707,17.4644425 23.7350482,18.0027067 23.1796419,19.1443752 C22.2916775,20.8688774 22.7236602,23.1624997 24.2835977,24.3590232 C26.4949375,26.056098 29.4605329,26.1178098 32.1209977,25.8195361 C33.7426469,25.2092748 36.049983,25.2161317 36.6499589,23.2139263 C37.3630732,24.2835977 38.2441807,25.2367023 38.9161537,26.3338012 C37.6647753,26.5875053 36.437396,26.964633 35.2854422,27.509754 C31.6615875,28.908555 27.4926118,28.9291256 23.8721856,27.5234677 C23.0767889,27.0811998 22.2745354,26.6457886 21.4825671,26.2000922 C20.762596,25.2744151 19.751208,24.5167312 19.4152214,23.3510636 C18.7706759,21.307717 18.9798103,18.8358161 20.4951781,17.2175953 C21.9488341,15.547948 24.0676063,14.5022756 26.2446619,14.1628606 C29.5839565,13.5765984 33.039818,13.8783006 36.3071155,14.742266 Z M10.1687351,13.9297271 C11.1328107,13.9461836 12.0694589,14.14421 13.0010604,14.3658239 L13.9318086,14.5894492 C15.017653,14.8458656 16.1067827,15.0627103 17.2347375,14.9891132 C17.2210237,15.1502496 17.1901678,15.469094 17.1730256,15.6302304 C16.2747759,16.504481 15.6645147,17.6015799 15.0748241,18.6952503 C14.9514004,18.6643944 14.7011248,18.6095395 14.5777011,18.5786836 C14.5297031,18.3969766 14.4337069,18.0335626 14.3857088,17.8518556 C11.937807,16.1067827 8.78707621,15.935361 5.90719169,16.3502015 C4.94380175,16.4359123 4.32668364,17.2278806 3.66499589,17.8347134 C4.24782966,18.3832628 4.74838102,19.1443752 5.59863264,19.2780841 C8.37909257,19.7340658 11.2418349,19.4563627 13.9982958,20.0769092 C15.1228221,20.3134711 16.0896405,20.9991579 16.9090362,21.773984 C17.9135674,23.3030655 17.6118652,25.7509674 15.9285041,26.6903583 C12.9937647,28.7542755 9.18477455,28.6685647 5.75976903,28.4251459 C3.88441566,28.3874331 2.22848207,27.4411853 0.431982677,27.0469154 C0.39084147,27.2423361 0.311987489,27.6297492 0.270846282,27.8217415 C0.202277603,27.588608 0.065140245,27.1154841 -1.77635684e-15,26.8789221 C0.661687752,26.0183852 1.18280971,25.0618522 1.61479239,24.0676063 C1.71078854,24.0881769 1.90963771,24.1224613 2.00563386,24.1396034 C2.78005659,24.9842082 3.83634641,25.3487848 4.90921665,25.6481451 L5.44580529,25.7943109 C5.71356228,25.8665969 5.97959215,25.9391279 6.23974978,26.0183852 C8.62936825,26.6389318 11.1492672,26.1383804 13.3366081,25.0824228 C13.4463179,24.9007158 13.6588808,24.5373018 13.7685907,24.3555948 L13.3366081,23.2619243 L13.3366081,23.2619243 C10.3675843,22.524811 7.2717084,22.761373 4.24782966,22.4185296 L4.2615434,22.1716823 C2.01249073,22.0105459 -0.229705074,20.2757584 0.0514265092,17.831285 C0.222848207,17.467871 0.39084147,17.104457 0.555406299,16.7376145 C2.73589029,13.7240211 6.82601199,13.7445917 10.1687351,13.9297271 Z M98.2349179,13.960583 C98.0086413,14.4542775 97.5835154,15.0473966 98.0874952,15.5239489 C99.8154259,17.8415703 101.159372,20.4334663 103.021012,22.6482347 C103.915833,21.2425767 104.879223,19.87806 105.791186,18.4826874 C106.675722,17.2758787 107.484833,16.014215 108.321371,14.7731219 L108.22047,14.6626342 L108.22047,14.6626342 L107.967813,14.3869945 C107.834533,14.2417146 107.700824,14.0960062 107.611685,13.9982958 C110.169296,13.9640115 112.726908,13.9571546 115.28452,14.0051527 C115.082242,14.1662891 114.677687,14.4919903 114.47541,14.6565551 L114.503908,14.7684078 L114.503908,14.7684078 L114.573763,15.038397 C114.584691,15.0808238 114.594548,15.1193937 114.602262,15.1502496 C116.302765,17.5741524 118.02041,19.9946268 119.570062,22.5179542 C119.669487,22.5282395 119.864908,22.5453816 119.964332,22.5556669 C121.565411,19.8986306 123.485334,17.4438719 125.007559,14.7456944 C124.808709,14.5571305 124.407583,14.1834312 124.205305,13.9982958 C126.464643,13.9674399 128.727409,13.9537262 130.986747,14.0085811 C130.7399,14.1868597 130.246206,14.5434168 129.999358,14.7216954 C130.002787,18.8495298 129.971931,22.9773643 130.006215,27.1017704 C129.93079,27.71546 130.60962,27.9451651 130.945606,28.3257213 L130.374206,28.3453319 L130.374206,28.3453319 L129.228938,28.3874331 C127.891592,28.4311113 126.551725,28.4378311 125.226978,28.2194398 C125.538966,28.1028731 125.847525,27.9863063 126.162941,27.8765964 C126.300078,27.7394591 126.440644,27.6023217 126.58121,27.4651844 C126.574353,24.4515909 126.564068,21.4379975 126.594924,18.4209756 C125.305832,20.0014836 124.373298,21.8219821 123.193917,23.4744872 C122.237384,25.0618522 121.08543,26.5257935 120.255749,28.1885839 L120.132593,28.2196005 L120.132593,28.2196005 L119.838712,28.2932047 C119.792696,28.3045078 119.750912,28.3145789 119.717485,28.3222928 C117.770135,24.8904305 115.342803,21.7534134 113.299457,18.376406 C113.251459,21.4448543 113.296028,24.5133027 113.272029,27.5783227 L113.834292,27.7188885 L113.834292,27.7188885 C113.885719,27.897167 113.988572,28.2502957 114.03657,28.4285743 C112.181787,28.3497203 110.323576,28.4114321 108.465365,28.3805762 C108.791066,28.0583034 109.116767,27.7394591 109.452754,27.4206147 C109.445897,24.4515909 109.514466,21.4791387 109.408184,18.5066864 C108.228803,20.344327 107.039136,22.1716823 105.770616,23.9476111 C104.824368,25.4835495 103.74784,26.9372055 102.80502,28.4800008 C100.514826,25.1201355 98.4680514,21.5991339 96.1092889,18.2838382 C96.1538585,21.3591435 96.1161457,24.4378772 96.0818614,27.5131824 C96.5344147,27.770315 96.9869679,28.030876 97.4395212,28.2914369 C93.8053812,28.5314273 90.160956,28.3085791 86.5233875,28.4080037 C86.732522,28.0103054 86.9416565,27.612607 87.1507909,27.2149087 C86.6193837,26.4057983 86.0811196,25.6001163 85.5051427,24.8218618 C82.8412495,24.8595746 80.1807847,24.8492893 77.5168916,24.8287186 C76.9614853,25.5829741 76.4129358,26.3612286 76.0975199,27.2526214 C76.0598071,27.71546 76.5192173,28.0068769 76.7112096,28.3908615 C73.5741925,28.363434 70.4371755,28.4148606 67.3001584,28.3737193 C67.6532871,28.0514466 68.0029873,27.7257453 68.3458307,27.3931872 C66.696754,25.9223891 65.5790845,23.9613249 63.8957235,22.5282395 C62.390641,22.5625238 60.8855585,22.5522385 59.380476,22.5453816 C59.3633338,24.1773162 59.3599054,25.8092508 59.380476,27.4411853 C59.7713174,27.7497444 60.155302,28.0617319 60.5358582,28.3805762 C58.4273713,28.3531487 56.3051707,28.5142851 54.2069691,28.2571526 C54.4435311,28.1440143 54.916655,27.9143092 55.1497885,27.8011709 C55.2492131,27.6640335 55.4412054,27.3863304 55.5372015,27.2457646 C55.5200593,25.5486898 55.5337731,23.851615 55.5200593,22.1545402 C51.9270606,22.1305411 48.3306334,22.113399 44.7376346,22.1648255 C44.717064,23.8550434 44.7307777,25.5486898 44.717064,27.2389077 C45.0359083,27.6160354 45.3581811,27.9897347 45.673597,28.3702909 C43.8599555,28.3977184 42.0463139,28.39429 40.2361008,28.3737193 C40.4760912,28.0720172 40.71951,27.770315 40.9663572,27.4720412 C40.9457866,23.22764 40.9663572,18.9798103 40.9526435,14.7354091 C40.8886461,14.6736973 40.8029352,14.5917958 40.7099866,14.5032914 L40.4239028,14.2315563 C40.3309541,14.1434328 40.2452433,14.0622932 40.1812459,14.0017242 C42.0257433,13.9640115 43.8702408,13.9640115 45.7181667,14.0017242 C45.5261744,14.1731459 45.1456182,14.5159893 44.9536259,14.687411 C44.9399122,16.3296309 44.9399122,17.9752792 44.9467691,19.6209275 C48.4300579,19.6243559 51.9167753,19.6243559 55.4000642,19.6209275 C55.3486376,18.0164204 55.5200593,16.3981996 55.3074964,14.8039778 C55.0880767,14.5982717 54.6526656,14.1800028 54.4366742,13.9708683 C58.3176614,13.9880105 62.1986487,13.9674399 66.0796359,13.9777252 C67.605289,14.0462939 69.1755118,14.118291 70.6120256,14.6702689 C71.5994146,15.2256752 72.693085,16.0210718 72.8473645,17.231309 C73.0530706,18.4312609 72.9433607,19.7923492 72.0588247,20.7111695 C71.0474367,21.6574172 69.6452072,21.9454057 68.3286886,22.1922529 C68.3424023,22.3019628 68.3732582,22.5145257 68.386972,22.6242356 C69.9126251,24.1293181 71.0885779,25.9463881 72.63823,27.4309 C75.0724181,23.4710588 77.2494737,19.3603665 79.6836618,15.4039537 C79.8765112,14.9861133 79.6233964,14.6995177 79.3294349,14.4395393 L79.1513974,14.2859093 C79.0337593,14.1845026 78.9225495,14.0840067 78.8436955,13.9777252 C80.9144696,13.9880105 82.9852437,13.9434409 85.0525894,14.015438 C84.7063175,14.2519999 84.3600457,14.4885619 84.0137739,14.7182669 C84.0274876,14.9205445 84.0549151,15.3182429 84.0686288,15.517092 C86.5199591,19.2163723 88.7827255,23.045933 91.1243459,26.8137819 C91.3529082,27.1931953 91.6972753,27.4583275 92.0558641,27.7046668 L92.4154311,27.9482784 C92.4748949,27.9890152 92.5338132,28.0301141 92.5917156,28.0720172 C92.7699942,23.6390521 92.6362853,19.1992301 92.6671412,14.766265 C92.4717204,14.5742727 92.0774505,14.1937165 91.8820298,14.0017242 C93.9973735,13.9468693 96.1161457,14.0017242 98.2349179,13.960583 Z M170.931431,14.1217194 C167.691561,15.729655 164.873389,18.0301341 161.770656,19.8712032 C163.759148,21.876837 165.915632,23.7076207 167.893839,25.7235399 C168.499529,26.3566574 169.202739,26.8693987 169.921186,27.3623313 L170.641665,27.8523858 C170.761576,27.9342026 170.881148,28.0164003 171,28.0994446 L171,28.4011468 C168.973796,28.3874331 166.944163,28.363434 164.917958,28.4148606 C164.969385,28.0445897 165.020811,27.6743188 165.079095,27.304048 C163.080318,25.5864026 161.139824,23.8001885 159.339896,21.876837 C159.223329,21.8459811 158.986767,21.7842693 158.866772,21.7534134 C158.050805,22.343104 157.20741,22.8985103 156.360587,23.4367745 C156.346873,24.7772921 156.346873,26.1178098 156.336588,27.4617559 C156.590292,27.7668865 156.840568,28.0754456 157.094272,28.3840047 L151.502496,28.3908615 L151.502496,28.3908615 C151.790485,28.0994446 152.078473,27.8080277 152.36989,27.5200393 C152.363033,23.2447822 152.380175,18.9729535 152.359605,14.7011248 C152.116186,14.5262746 151.629348,14.1800028 151.385929,14.0051527 C153.305852,13.960583 155.229204,13.9674399 157.152555,13.9948674 C156.953706,14.1800028 156.552579,14.5537021 156.350302,14.7388375 C156.346873,16.5250516 156.35373,18.3112657 156.329731,20.1009082 C158.949055,18.4689737 161.472382,16.6964733 164.108848,15.0988231 C163.933998,14.7251238 163.752291,14.3514245 163.574012,13.9811536 C166.025342,14.0085811 168.486958,13.8645869 170.931431,14.1217194 Z M81.6275839,17.7627163 C81.3807366,18.1295587 81.1373178,18.4998296 80.893899,18.8701004 C80.0265052,20.1591916 79.3476753,21.5648495 78.4185697,22.8162279 C80.372777,22.840227 82.3269844,22.8367985 84.2811917,22.8299417 C83.6023618,21.0368707 82.4915492,19.4632195 81.6275839,17.7627163 Z M59.3736191,16.2850613 C59.3667622,17.6358642 59.3667622,18.9832388 59.3736191,20.3306133 C61.6192433,20.2894721 63.8717244,20.4060389 66.1173487,20.2791868 C67.1013092,20.1351926 68.2224071,20.0323396 68.9732342,19.3055116 C69.2303667,18.6438238 69.3126491,17.7592878 68.71953,17.2484512 C67.968703,16.4359123 66.799607,16.3433446 65.76422,16.3022034 C63.6351625,16.2644906 61.5026766,16.3090603 59.3736191,16.2850613 Z M139.019568,0.466267017 C139.026425,1.16223911 139.026425,1.8582112 139.029853,2.55418329 C140.024099,2.56446859 141.014917,2.57132546 142.009163,2.58161076 C142.022876,2.7770315 142.053732,3.1713014 142.067446,3.37015057 C141.052629,3.41814865 140.037813,3.45928985 139.026425,3.49014576 C139.033282,4.9986567 138.882431,6.54145197 139.331556,8.0088217 C140.360086,8.01225014 141.388616,7.9985364 142.417146,8.04653447 C141.563466,9.44190709 139.574974,8.7562203 138.261884,8.48194559 C137.8619,7.42598793 137.862662,6.30908034 137.897454,5.19217274 L137.91948,4.52251579 C137.9296,4.18817491 137.936183,3.85493113 137.929326,3.5244301 C137.346492,3.44557612 136.767087,3.3632937 136.187682,3.28101129 C136.211681,3.11644646 136.263107,2.78388837 136.290535,2.61932354 C136.828799,2.59189606 137.367063,2.56446859 137.912184,2.54046956 C137.912184,1.85135433 137.915612,1.16566754 137.919041,0.476552319 L139.019568,0.466267017 L139.019568,0.466267017 Z M166.954448,2.56446859 C168.202398,3.22958478 169.344066,4.16554725 169.416064,5.69462879 C166.992161,5.7563406 164.568258,5.72548469 162.140927,5.72205626 C162.223209,6.11289773 162.305492,6.50716763 162.391202,6.8980091 C163.063175,7.2819937 163.738577,7.655693 164.420835,8.02596387 C165.007097,8.02253544 165.596788,8.02253544 166.189907,8.01567857 C167.14644,7.58712433 168.161257,6.56545101 169.213786,7.34370552 C167.636706,8.96192634 165.192233,9.16763238 163.11803,8.55051427 C162.305492,8.28652485 161.822082,7.51855565 161.228963,6.95629248 C161.088397,6.3323175 160.947832,5.71177096 160.82098,5.08779598 C161.393528,4.02155302 162.171783,2.94502476 163.406019,2.61246667 C164.575115,2.4033322 165.771638,2.52675582 166.954448,2.56446859 Z M131.984422,2.55418329 C132.635824,2.93816789 133.276941,3.3324378 133.894059,3.76784891 C132.625539,4.42953666 131.490727,3.15415923 130.201636,3.26386912 L130.107942,3.26288426 L130.107942,3.26288426 L129.903434,3.2623737 C128.974713,3.2672201 127.553466,3.38847496 127.986868,4.58724462 C129.653087,5.4032119 131.682719,4.87866151 133.348938,5.73919843 C134.332899,6.50716763 133.842633,8.33795136 132.635824,8.5745133 C130.462197,9.15049021 127.95944,8.95506947 126.228081,7.39170359 C126.892923,6.72905588 127.583042,7.02413159 128.280463,7.38357979 L128.542304,7.5196455 C128.848101,7.67783795 129.154867,7.82697756 129.461094,7.89225495 C130.760471,8.3619504 132.1627,7.85454217 133.088377,6.8877238 C131.298735,5.53692083 128.912545,6.10946929 126.93091,5.22493334 C126.852056,4.74838102 126.564068,4.24440123 126.735489,3.76442047 C127.098903,3.27758285 127.616597,2.94502476 128.072579,2.55418329 C129.375383,2.49589991 130.681617,2.49589991 131.984422,2.55418329 Z M95.557311,8.8817842e-16 C97.2303868,0.0479980753 98.6531868,0.966818373 99.8462819,2.0604888 C99.7262867,2.26619484 99.4828679,2.67760691 99.3594442,2.88331295 C99.1571666,2.84902861 98.9583175,2.81474427 98.7594683,2.78045993 C97.4463781,0.942819336 94.9127654,0.50397979 92.8454197,1.09709886 C91.9128857,1.39537262 90.832929,1.81021312 90.4832287,2.8181727 C89.9621068,4.12783447 89.9963911,5.86605048 91.0866331,6.88086693 C92.5677166,7.94710989 94.5322092,7.91282555 96.2635684,7.68654891 C97.3778094,7.53912625 98.1286364,6.63059125 99.0405999,6.07518495 C99.4177276,6.17118111 99.7914269,6.27746256 100.161698,6.40088618 C99.2291637,7.35056238 98.228061,8.40652004 96.8601159,8.66022415 C95.4441727,8.92078513 93.9802314,8.93107043 92.5608597,8.71165066 C91.2717686,8.52651523 90.3152355,7.58369589 89.3072759,6.85001103 C88.8272951,5.39635503 88.4913086,3.7164224 89.2695631,2.30390761 C90.1883834,0.905106562 91.8100327,0.119995188 93.4522525,8.8817842e-16 L95.557311,8.8817842e-16 Z M70.7525914,0.161136396 C70.7457345,3.01359344 70.6908796,5.86947892 70.7937326,8.72193596 C70.5434569,8.71165066 70.046334,8.69450849 69.7994867,8.68422319 C69.7103475,8.51280149 69.5389258,8.17338653 69.4532149,8.00196483 C67.8007097,8.83164585 65.8259318,9.19163141 64.0602883,8.50251619 C63.1928945,7.98482266 62.2672174,7.24428093 62.1403653,6.16775267 C62.0231752,5.56185489 62.1834332,4.97409097 62.3705624,4.39786679 L62.5120323,3.96775932 C62.5351452,3.89640101 62.5576992,3.82519726 62.5792048,3.75413517 C63.1826092,3.38729274 63.7791567,3.00330814 64.3654189,2.60218137 C66.0967781,2.4444734 67.9892736,2.26619484 69.4703571,3.36672214 C69.4566433,2.30047918 69.4497865,1.23080779 69.446358,0.164564829 C69.7720593,0.164564829 70.4268901,0.161136396 70.7525914,0.161136396 Z M57.9096778,3.05473465 C58.6125068,3.39072117 58.9690639,4.1209776 59.3976181,4.72781041 C59.4079034,5.06036851 59.4216172,5.3929266 59.4387593,5.72205626 C57.1177096,5.72891313 54.8000882,5.73919843 52.4824669,5.71862782 C52.499609,6.05461435 52.5167512,6.39060088 52.5338934,6.72658741 C54.032119,8.34480823 56.6891553,8.11167472 58.3965154,6.94943561 C58.6639333,7.03514646 58.9313511,7.12085731 59.2021974,7.20656816 C58.1805241,8.83164585 56.1303206,8.99621068 54.3989614,8.79736151 C52.5373218,8.69450849 50.7168234,6.88429537 51.2208032,4.93694488 C51.2996572,3.70956553 52.4893237,3.18844357 53.3670028,2.57475389 C54.8789422,2.54046956 56.5451611,2.21819676 57.9096778,3.05473465 Z M103.511278,0.143994226 C103.819837,0.150851094 104.433526,0.164564829 104.738657,0.171421697 C104.724943,1.25480682 104.714658,2.33476352 104.697516,3.41814865 C106.075746,2.38619003 107.896245,2.27648014 109.521322,2.68446378 C110.042444,2.99645127 110.549853,3.46957515 110.632135,4.10383544 C110.81727,5.65005915 110.707561,7.21342503 110.62185,8.75964874 L109.487038,8.66365259 L109.487038,8.66365259 C109.500752,7.06257393 109.500752,5.46149528 109.490467,3.86041662 C107.999098,2.83188644 106.092889,3.29815346 104.704373,4.2615434 C104.721515,5.74262686 104.718086,7.22371033 104.735229,8.70136536 C104.327245,8.71165066 103.92269,8.71850753 103.518135,8.7253644 C103.497564,5.86262205 103.507849,3.00330814 103.511278,0.143994226 Z M146.263849,2.54046956 C146.411272,4.60781523 146.404415,6.6854462 146.277563,8.7562203 C145.897007,8.7253644 145.519879,8.69450849 145.14618,8.66365259 C145.163322,6.65459029 145.156465,4.645528 145.153036,2.63646571 L146.263849,2.54046956 L146.263849,2.54046956 Z M156.316017,2.57475389 C156.68286,2.94845319 157.053131,3.32558093 157.423402,3.69928023 C157.4714,5.372356 157.461114,7.0488602 157.457686,8.72193596 C157.107986,8.71850753 156.761714,8.71850753 156.41887,8.71507909 C156.364015,7.00429055 156.658861,5.23864707 156.137739,3.57242817 C154.615514,3.08559055 152.897869,3.21929948 151.605349,4.21011689 C151.385929,5.71177096 151.567636,7.23742406 151.447641,8.745935 C151.043086,8.72193596 150.641959,8.69450849 150.240832,8.67050945 C150.264831,6.65459029 150.254546,4.64209956 150.251118,2.62960884 C150.624817,2.60218137 151.001945,2.57818233 151.382501,2.55418329 C151.433927,2.75646089 151.540209,3.1610161 151.591635,3.36672214 C152.969866,2.33819195 154.697797,2.4341881 156.316017,2.57475389 Z M119.292359,2.18391242 C119.323215,2.55418329 119.357499,2.92445416 119.391784,3.29129659 C117.9107,3.22615634 116.402189,3.73013613 115.599936,5.0500832 C115.654791,6.26717726 115.654791,7.48769974 115.661648,8.70822223 C115.281091,8.71507909 114.897107,8.72193596 114.516551,8.72879283 C114.489123,6.67858933 114.49598,4.62838583 114.513122,2.57818233 C114.794254,2.57818233 115.359945,2.5850392 115.644505,2.58846763 L115.633458,2.95111975 C115.62584,3.22844197 115.618221,3.54842914 115.61365,3.74042144 C116.693606,2.92788259 117.924414,2.30047918 119.292359,2.18391242 Z M46.7878381,2.65017944 C47.2369629,2.89016982 47.7752271,3.23301321 47.8197967,3.79527638 C47.932935,5.43063937 47.8232251,7.07285923 47.8780801,8.71165066 C47.7763699,8.71050785 47.6407563,8.70936504 47.4938415,8.70822223 L47.0417962,8.70479379 C46.8948814,8.70365098 46.7592678,8.70250817 46.6575576,8.70136536 C46.6507007,7.18942599 46.7432684,5.67405818 46.6404154,4.16554725 C46.6541292,3.73013613 46.2221465,3.46271829 45.8655893,3.32900936 C44.7067787,3.05816308 43.5959661,3.60671251 42.5468653,4.02155302 C42.5160094,5.5849189 42.5297231,7.15171321 42.5331516,8.71850753 C42.1045973,8.70822223 41.6726146,8.70136536 41.2440604,8.69108006 C41.2577741,6.99743369 41.2714879,5.30378732 41.2303467,3.61014095 C39.8589731,2.9587385 38.4053171,3.44557612 37.1265112,4.05240893 C37.0990837,5.6054895 37.1059406,7.15857008 37.1196543,8.71165066 C36.8522365,8.71507909 36.3208292,8.72193596 36.0568398,8.7253644 C36.0431261,6.68201776 36.0431261,4.63867113 36.0568398,2.5953245 C36.2385468,2.58161076 36.5985324,2.55418329 36.7802394,2.54046956 C36.8865208,2.68789221 37.0956553,2.98273753 37.2019368,3.13358863 C38.8407282,2.4341881 40.9526435,2.00906229 42.3960142,3.34957997 C43.6542495,2.40676063 45.3033262,2.29705074 46.7878381,2.65017944 Z M8.1596728,0.185135433 C9.61675722,0.212562905 11.0224151,0.89482126 12.0029473,1.95763578 C12.9697656,3.41472021 12.9560519,5.46492371 11.9446639,6.8980091 C10.9435612,7.90254025 9.57561602,8.57108487 8.14938749,8.65336728 C6.25003509,8.78707621 4.34039738,8.68079476 2.43761654,8.71850753 C2.43761654,5.86262205 2.44104497,3.00673657 2.43075967,0.150851094 C4.34039738,0.171421697 6.25346352,0.0994245845 8.1596728,0.185135433 Z M76.6220703,7.25799467 C76.6254987,7.74483229 76.6289272,8.23166991 76.6323556,8.71850753 C76.1283758,8.71507909 75.6278244,8.70822223 75.1272731,8.70136536 C75.1238447,8.23166991 75.1238447,7.76540289 75.1238447,7.29570744 C75.6209676,7.2819937 76.1215189,7.26827997 76.6220703,7.25799467 Z M123.454478,2.5850392 C123.461335,4.62838583 123.461335,6.67173246 123.457906,8.71507909 L122.926928,8.71550765 C122.728507,8.7159362 122.530515,8.71679331 122.39852,8.71850753 C122.415663,6.67173246 122.405377,4.6249574 122.412234,2.57818233 C122.672795,2.57818233 123.193917,2.58161076 123.454478,2.5850392 Z M23.4230607,7.25799467 C23.4230607,7.74483229 23.4264892,8.23166991 23.4264892,8.71850753 C23.0905026,8.71850753 22.4185296,8.71165066 22.0825431,8.71165066 C22.0791146,8.23166991 22.0756862,7.75168916 22.0756862,7.27513684 C22.524811,7.26827997 22.9739359,7.2614231 23.4230607,7.25799467 Z M20.762596,2.46504401 C20.7797382,2.67075005 20.8105941,3.08559055 20.8277362,3.29472502 C19.7409227,3.30843876 18.6883934,3.57242817 17.7215751,4.06612266 C17.5432965,4.41925136 17.3615895,4.77238005 17.1798825,5.12550875 C17.1867394,6.31860377 17.1901678,7.51512721 17.1970247,8.71165066 L15.9045051,8.71165066 L15.9045051,8.71165066 C15.9182188,6.67173246 15.911362,4.63181426 15.9079335,2.59189606 C16.2267779,2.59189606 16.8576097,2.58846763 17.1764541,2.5850392 C17.1695972,2.86959921 17.1627403,3.43871925 17.1593119,3.72327927 C17.697576,3.34615153 18.2358402,2.9690238 18.7706759,2.58846763 C19.435792,2.54046956 20.0974798,2.49932835 20.762596,2.46504401 Z M64.6156946,3.56557131 C63.741444,3.81584698 63.5494517,4.79637909 63.1586102,5.48892275 C63.3677447,6.00661628 63.5014536,6.56202258 63.8202979,7.02828959 C64.3277062,7.54255468 65.0545342,7.73454699 65.6922229,8.04310604 C66.1687752,8.02939231 66.6487559,8.01567857 67.1287367,8.00196483 C67.9035628,7.63169397 68.6886741,7.27856527 69.4600718,6.89458067 C69.4600718,5.97576037 69.4532149,5.05351164 69.4360727,4.13469134 C67.9858452,3.31529563 66.2099164,2.9587385 64.6156946,3.56557131 Z M3.51757323,1.20338032 C3.54842914,3.35643683 3.53814383,5.50949335 3.52785853,7.66254987 C5.56091986,7.58712433 7.68312048,7.96768049 9.63732783,7.2511378 C10.1904485,7.04314614 10.5652906,6.60202097 10.9152448,6.14210291 L11.1754408,5.79698976 C11.262215,5.68301021 11.3498306,5.57120516 11.4406841,5.46492371 C11.4509694,4.77238005 11.4543978,4.0798364 11.4441125,3.38386431 C11.1355535,2.93131103 10.8372797,2.47532931 10.5492913,2.00563386 C8.41680534,0.740541733 5.86605048,1.29937647 3.51757323,1.20338032 Z M163.831145,3.41472021 C163.004892,3.59299878 162.411773,4.23754436 162.062073,4.97808609 C164.050564,5.04322634 166.042485,5.02265573 168.034405,4.99179983 C167.516711,3.19872887 165.346512,3.05473465 163.831145,3.41472021 Z M52.3453295,4.99179983 C54.3406781,5.02608417 56.3428835,5.03636947 58.3382321,4.97465766 C57.3302725,2.72903342 53.1852958,2.49932835 52.3453295,4.99179983 Z M146.411272,0.150851094 C146.411272,0.438839545 146.407843,1.01824488 146.404415,1.30966177 C145.969004,1.29937647 145.533593,1.28909116 145.098182,1.27880586 C145.105038,0.997674279 145.115324,0.435411111 145.122181,0.157707962 C145.444453,0.154279528 146.088999,0.150851094 146.411272,0.150851094 Z M123.488762,0.140565792 C123.488762,0.428554243 123.492191,1.00795958 123.495619,1.29937647 C123.070493,1.2925196 122.648796,1.28909116 122.227099,1.2822343 L122.227099,0.171421697 L122.227099,0.171421697 C122.542515,0.164564829 123.173346,0.14742266 123.488762,0.140565792 Z" id="Combined-Shape"></path>
        </g>
    </g>
</svg>