<?xml version="1.0" encoding="UTF-8"?>
<svg width="220px" height="34px" viewBox="0 0 220 34" version="1.1" xmlns="http://www.w3.org/2000/svg" xmlns:xlink="http://www.w3.org/1999/xlink">
    <title>elastiderm</title>
    <g id="Page-1" stroke="none" stroke-width="1" fill="none" fill-rule="evenodd">
        <g id="elastiderm" fill="#3F6769" fill-rule="nonzero">
            <path d="M129.33448,2.84217094e-14 C129.396548,11.096725 129.376948,22.1967108 129.34428,33.2934358 C128.429593,33.2836532 127.514906,33.2836532 126.603485,33.286914 C126.564284,31.7901768 126.600218,30.2901787 126.580618,28.7901806 C124.235098,33.8575655 117.23774,35.3999548 112.585901,32.657567 C109.583767,30.9814822 107.911195,27.6456169 107.372183,24.3586646 C106.810304,20.6543215 107.136978,16.6565005 109.074155,13.372809 C111.893352,8.2662938 119.46239,6.9554259 123.980292,10.5293344 C125.068117,11.3184638 125.773733,12.4858536 126.338879,13.6793304 C126.342146,9.13042313 126.345413,4.58151589 126.335612,0.032608654 C127.335235,0.0260869232 128.334858,0.016304327 129.33448,2.84217094e-14 Z M145.487734,8.80806565 C148.204879,9.40541737 150.490939,11.3867971 151.728677,13.8414884 C153.04806,16.3679924 153.446487,19.2731455 153.364842,22.0934291 C147.195747,22.1358639 141.02012,22.0150879 134.85429,22.1489208 C135.004517,24.7276522 135.713196,27.430424 137.581233,29.3171414 C139.75299,31.6608493 143.489064,31.9774783 146.297652,30.6750557 C148.440017,29.685998 149.694084,27.4891799 150.265599,25.2858334 C151.281262,25.2564554 152.300192,25.2531912 153.319121,25.2662481 C152.701885,27.7405246 151.669892,30.2768212 149.612439,31.8991371 C147.564782,33.5802089 144.811713,34.0567846 142.234997,33.9947645 C139.403549,33.9066306 136.496987,32.7935326 134.704063,30.5314302 C132.378814,27.7242035 131.758312,23.9083338 131.89221,20.3601298 C132.035905,16.8510965 133.234454,13.1723239 135.964662,10.8220876 C138.538112,8.58283467 142.238263,8.08667368 145.487734,8.80806565 Z M168.098785,8.75117126 C168.108616,9.77220669 168.115169,10.7932421 168.125,11.8142775 C165.015224,11.5884716 161.764541,13.1494777 160.306322,15.9573251 C159.185623,17.8652215 159.110254,20.1363708 159.1889,22.2897083 C159.195453,25.9386009 159.172515,29.5907661 159.19873,33.2429313 C158.176338,33.2527489 157.157223,33.2494764 156.138108,33.2494764 C156.134831,25.2022773 156.157769,17.1550782 156.125,9.1046066 C157.068747,9.10787915 158.009216,9.1111517 158.952963,9.1242419 C158.920194,10.98305 158.949686,12.8451306 158.923471,14.7039387 C159.772187,12.740409 161.118992,10.917599 163.029424,9.88020082 C164.57612,9.03915562 166.348921,8.72826342 168.098785,8.75117126 Z M184.969948,9.25594862 C186.569758,9.96318974 187.735334,11.4200413 188.25772,13.0691842 C189.455946,10.4390294 192.205007,8.70514793 195.065075,8.54544832 C197.46479,8.38574871 200.158348,8.76707227 201.88549,10.6019882 C203.498359,12.3358696 203.899944,14.8226207 203.873825,17.1040437 C203.860765,22.4849427 203.87056,27.8625826 203.87056,33.2434816 L200.817862,33.2434816 L200.817862,33.2434816 C200.86357,27.8691009 200.821126,22.4947202 200.843981,17.1235987 C200.840716,15.4940109 200.638291,13.6525766 199.410682,12.4564591 C198.313669,11.2636008 196.576733,11.0550136 195.045486,11.0680503 C193.305284,11.0550136 191.512844,11.7589955 190.464805,13.1832553 C189.155573,14.9595061 188.780107,17.2278923 188.760518,19.3854666 C188.750723,24.0069778 188.780107,28.6284889 188.747458,33.25 C187.738598,33.2434816 186.733004,33.2434816 185.730674,33.2467408 C185.740468,27.7517706 185.727409,22.2568004 185.737203,16.7650894 C185.714349,15.3277929 185.459685,13.7992395 184.522654,12.6552689 C183.556238,11.4037454 181.87154,10.9833117 180.356618,11.0713095 C178.524999,11.0973829 176.66726,11.8763259 175.527804,13.3364366 C174.150008,15.0214304 173.725569,17.2670024 173.657005,19.3887258 C173.66027,24.0069778 173.657005,28.6252297 173.657005,33.2434816 C172.654675,33.2402225 171.649081,33.2434816 170.646751,33.25 C170.617366,25.2259095 170.614101,17.2018189 170.65981,9.18098758 C171.573987,9.21032016 172.49143,9.21032016 173.408872,9.19076511 C173.431726,10.5400638 173.395812,11.8861034 173.428461,13.2354021 C174.407937,11.5145574 175.798792,9.91756128 177.695709,9.19402428 C179.984417,8.25538168 182.697564,8.26190004 184.969948,9.25594862 Z M74.0471074,9.82174083 C73.8557506,11.1268105 73.7098004,12.4351428 73.6222303,13.7500004 C71.7281216,12.9930601 69.6199527,12.4220921 67.5863805,12.8821291 C66.0068754,13.2214472 64.8846809,15.00613 65.4198315,16.5722135 C65.9420087,17.6652094 67.1160966,18.1937626 68.1766678,18.6179102 C68.3948249,18.7054872 68.6152819,18.7915098 68.8369003,18.8773744 L69.5041009,19.135891 C71.1751192,19.7879811 72.8474142,20.509746 74.0406208,21.8903723 C75.6006658,23.8251381 75.7012092,26.6473511 74.8157783,28.8953336 C73.8849406,31.2053069 71.4394646,32.4516484 69.1010188,32.7844411 C66.3182358,33.3032063 63.4835594,32.8105425 60.7818598,32.1025422 C60.8888899,30.6767537 61.0413267,29.2574904 61.2002502,27.8349645 C63.1657124,28.7289372 65.3257747,29.5739698 67.5182704,29.1302461 C68.8577685,28.8888083 70.3464601,27.9980982 70.4632202,26.4940055 C70.5994404,25.247664 69.5648159,24.2949631 68.5561382,23.7794606 C67.9748981,23.4832442 67.3662558,23.2304095 66.7523176,22.985043 L66.0144643,22.6918894 C64.5393329,22.1035578 63.0846289,21.4754975 61.9559477,20.311238 C60.0488657,18.3503709 60.013189,15.1790517 61.0737601,12.7875116 C62.1051412,10.5330038 64.5635905,9.34539041 66.9117664,9.07785113 C69.305349,8.87230267 71.7573116,9.05827509 74.0471074,9.82174083 Z M48.7099346,9.5 C51.857665,17.2074895 54.841792,24.9901899 57.875,32.75 L56.1254126,32.7404321 L56.1254126,32.7404321 L52.6298733,32.74673 L52.6298733,32.74673 C51.952555,30.9841772 51.288325,29.2183544 50.6502715,27.4427215 C47.5352618,27.4165612 44.420252,27.4394515 41.3052423,27.4296414 C40.6639167,29.2118143 39.9506057,30.964557 39.3158243,32.74673 C37.6699735,32.7303797 36.0208507,32.75 34.375,32.74673 C37.3722153,24.9901899 40.392335,17.2434599 43.4419034,9.50981013 C45.1990045,9.52616034 46.9528335,9.53924051 48.7099346,9.5 Z M77.4093841,9.5 C83.3946557,9.5294428 89.3799272,9.50981427 95.3619317,9.51308569 C95.3586647,10.7300549 95.325994,11.9502955 95.375,13.1672647 C93.169728,13.2555931 90.9579219,13.1803504 88.7526499,13.216336 C88.7395816,19.7264669 88.7428486,26.2365977 88.7493828,32.75 C87.164854,32.7467286 85.5803252,32.7565428 83.9990635,32.7369143 C83.9957965,26.2202406 83.9957965,19.7035669 83.9957965,13.1868932 C81.7905245,13.216336 79.5852525,13.2228789 77.3799805,13.1868932 C77.3799805,11.9601098 77.357111,10.7300549 77.4093841,9.5 Z M103.865409,9.5 C103.875381,17.2473721 103.882029,24.9980173 103.862085,32.7453894 C102.286504,32.7355701 100.707598,32.7650278 99.1320164,32.7388432 C99.1353404,24.9947442 99.1054243,17.2473721 99.1486365,9.50327308 C100.720894,9.5 102.293152,9.5 103.865409,9.5 Z M0.131491974,9.5 C4.68236544,9.50654578 9.2332389,9.49672711 13.7841124,9.50327289 C13.7873584,10.7306075 13.7873584,11.961215 13.7873584,13.1885497 C10.8010505,13.2147328 7.81149669,13.1754581 4.82518886,13.2114599 C4.87712465,15.0835543 4.84466478,16.9556488 4.84791076,18.8310161 C7.58103163,18.8146516 10.3109065,18.8539263 13.0440274,18.8146516 C13.0570113,20.0779881 13.0472734,21.3380516 13.0472734,22.6013881 C10.3109065,22.6013881 7.57453966,22.5817507 4.8381728,22.6079339 C4.86738669,24.7254952 4.85115675,26.8430566 4.84141879,28.9638908 C7.85044854,28.9933468 10.8594783,28.957345 13.868508,28.9802553 C13.865262,30.2305001 13.865262,31.480745 13.875,32.7309899 C9.29166667,32.7375357 4.70508735,32.7800833 0.125,32.7113525 C0.167197828,24.974235 0.147721907,17.2371175 0.131491974,9.5 Z M23.1101376,9.5 C23.1493611,15.9891616 23.1297493,22.4783233 23.1232121,28.9674849 C26.1172708,28.9903917 29.1145982,28.9674849 32.1086569,28.9805745 C32.1315372,30.2339022 32.1217314,31.4839576 32.125,32.7372853 C27.5423905,32.7536473 22.9597809,32.7536473 18.3771714,32.7405577 C18.3967831,24.9980683 18.3477538,17.2523066 18.4000518,9.50981719 C19.9722595,9.51308958 21.5411985,9.50654479 23.1101376,9.5 Z M115.836308,11.3804203 C114.232339,11.8662892 112.801506,12.9456356 111.952154,14.3934599 C110.256715,17.0380217 109.939841,20.3217132 110.286116,23.3804049 C110.593189,25.6434455 111.436009,27.9227904 113.092246,29.5532231 C116.319786,32.6738713 122.376323,31.8195246 124.636907,27.9456165 C126.39768,25.0434463 126.685154,21.4336683 126.031805,18.1597594 C125.587529,15.8021537 124.326567,13.5162871 122.271787,12.1956366 C120.357477,11.0641163 117.96949,10.8097688 115.836308,11.3804203 Z M46.0039334,14.2644515 C44.8619813,17.3742616 43.8410958,20.5265823 42.6729671,23.6265823 C44.8816138,23.6756329 47.0902604,23.6723629 49.298907,23.6265823 C48.1896756,20.5102321 47.1033486,17.3873418 46.0039334,14.2644515 Z M138.172343,12.7153335 C136.167142,14.4127263 135.216794,17.0208358 134.864088,19.5603966 C140.030583,19.5734535 145.197078,19.5440756 150.363573,19.5734535 C150.219877,16.8902671 149.181353,14.0601909 146.954078,12.4280824 C144.432881,10.4793448 140.56944,10.6360272 138.172343,12.7153335 Z M205.935601,10 C207.657959,10.0066319 209.380316,10.0066319 211.105863,10.0099479 C211.109052,10.2155377 211.118621,10.6234012 211.125,10.828991 C210.400972,10.8356229 209.676944,10.8389389 208.959295,10.8422549 C208.943348,12.8882046 208.991191,14.9374704 208.92421,16.9834202 C208.697752,16.9867361 208.248026,16.996684 208.021567,17 C207.938639,14.9507342 207.999241,12.8981525 207.983293,10.8488868 C207.278402,10.8488868 206.576701,10.8389389 205.875,10.8024633 C205.890948,10.6001895 205.919654,10.1989578 205.935601,10 Z M217.896753,10 C218.378825,10.0032741 218.860898,10.0065482 219.349529,10.0098223 C219.379044,12.3049579 219.388882,14.6033676 219.34625,16.8985033 L218.391943,16.8985033 L218.391943,16.8985033 C218.342752,14.9471469 218.388663,12.9957905 218.332914,11.0444341 C217.80165,12.6749298 217.073622,14.2301216 216.483329,15.8376988 C216.263609,16.2895229 216.161947,16.9869036 215.532302,17 C214.722289,15.0322732 213.892599,13.0710945 213.200645,11.0575304 C213.092424,12.9925164 213.141616,14.9307764 213.151454,16.8657624 C212.807116,16.8755847 212.462779,16.8788587 212.125,16.8854069 C212.131559,14.5935454 212.144676,12.3016838 212.125,10.0098223 C212.626749,10.0098223 213.135057,10.0130964 213.643364,10.0098223 L215.079501,13.5996778 C215.319505,14.1977445 215.560723,14.7954474 215.804492,15.3924228 C216.48005,13.5851263 217.191681,11.7942002 217.896753,10 Z" id="Combined-Shape"></path>
        </g>
    </g>
</svg>