<?xml version="1.0" encoding="UTF-8"?>
<svg width="171px" height="34px" viewBox="0 0 171 34" version="1.1" xmlns="http://www.w3.org/2000/svg" xmlns:xlink="http://www.w3.org/1999/xlink">
    <title>gehwol</title>
    <g id="Page-1" stroke="none" stroke-width="1" fill="none" fill-rule="evenodd">
        <g id="gehwol" fill="#3F6769" fill-rule="nonzero">
            <path d="M48.9931282,4.56123077 C50.7541538,4.54205128 52.5082051,4.8454359 54.1942564,5.34061538 C54.1803077,6.80871795 54.2291282,8.28030769 54.1646154,9.74841026 C52.0077949,8.64646154 49.4516923,8.32564103 47.0961026,8.88184615 C45.2827692,9.30728205 43.7135385,10.4266667 42.4790769,11.793641 C40.8662564,13.8911795 39.9212308,16.524 39.9700513,19.1812308 C39.8950769,21.9587692 40.7372308,24.7676923 42.3674872,27.0221538 C43.3909744,28.3769231 45.0909744,29.1911795 46.7962051,28.9924103 C46.8432821,26.4537436 46.8188718,23.9150769 46.8101538,21.3781538 L43.3055385,21.3781538 L43.3055385,21.3781538 C43.2950769,19.8036923 43.3020513,18.2309744 43.3020513,16.6582564 C46.9339487,16.6495385 50.5658462,16.6687179 54.196,16.6495385 C54.3285128,19.1114872 54.1994872,21.5838974 54.2535385,24.0493333 C54.2361026,25.7929231 54.2709744,27.5365128 54.2448205,29.2801026 C54.2291282,30.2338462 54.3302564,31.1945641 54.1750769,32.1413333 C52.3948718,33.0113846 50.4437949,33.4368205 48.4892308,33.6791795 C48.1653105,33.6873162 47.8413042,33.7050104 47.5173074,33.7256226 L46.5454415,33.7895734 C45.7357366,33.8390947 44.9266895,33.8653561 44.1197949,33.7646154 C41.1992821,33.6826667 38.2944615,32.6121026 36.078359,30.6958974 C35.0409231,29.7944615 34.2615385,28.6471795 33.6007179,27.4510769 C31.8065641,23.9970256 31.6775385,19.8821538 32.572,16.1508718 C33.5501538,12.8153846 35.5465641,9.7414359 38.3676923,7.67876923 C41.4050256,5.43651282 45.2566154,4.50369231 48.9931282,4.56123077 Z M141.985744,4.59784615 C143.84441,4.81579487 145.633333,5.53415385 147.160718,6.60820513 C149.842359,8.59764103 151.68359,11.6245128 152.372308,14.8780513 C153.097641,18.1734359 153,21.6641026 151.997436,24.8932308 C150.98441,28.0735385 148.843282,30.9713846 145.853026,32.5353846 C142.704103,34.2789744 138.632821,34.2353846 135.546667,32.3697436 C134.387179,31.6478974 133.218974,30.8615385 132.42041,29.7299487 C130.303692,27.229641 129.250564,23.9778462 129.02041,20.7452308 C128.805949,17.8665641 129.170359,14.9181538 130.246154,12.2295385 C131.278359,9.89138462 132.837128,7.71015385 135.020103,6.324 C137.060103,4.97969231 139.553436,4.34328205 141.985744,4.59784615 Z M96.4797949,5.69107692 C96.4832821,14.8675897 96.4763077,24.042359 96.4832821,33.2171282 C93.7789744,33.3932308 91.0676923,33.3077949 88.3598974,33.3234872 C88.3058462,29.4422564 88.3529231,25.5575385 88.3354872,21.6763077 C86.7523077,21.6728205 85.1691282,21.6675897 83.5876923,21.6797949 C83.5876923,25.5261538 83.5842051,29.3742564 83.5894359,33.222359 C83.0890256,33.222359 82.5868718,33.2153846 82.0916923,33.2921026 C81.2275692,33.3241846 80.3626092,33.3317169 79.4973703,33.331137 L76.9013744,33.3212275 C76.4687549,33.3209764 76.0362051,33.3227897 75.6037949,33.3287179 C75.4922051,30.1257436 75.586359,26.9157949 75.5549744,23.7110769 C75.5584615,17.7009231 75.548,11.6907692 75.5602051,5.68235897 C78.2348718,5.68758974 80.9095385,5.67189744 83.5842051,5.69107692 C83.5894359,9.12071795 83.5842051,12.5521026 83.5876923,15.9817436 C85.1691282,15.9904615 86.7523077,15.9869744 88.3354872,15.9834872 C88.3389744,12.5538462 88.3337436,9.12246154 88.3372308,5.69282051 C91.052,5.67538462 93.7650256,5.67538462 96.4797949,5.69107692 Z M131.051692,0.742769231 C130.767487,1.83425641 130.478051,2.92923077 130.282769,4.03989744 L130.209538,4.16194872 C129.580103,7.14871795 128.842564,10.1145641 128.181744,13.094359 C126.956,18.4384615 125.644821,23.7651282 124.527179,29.1301538 L124.453949,29.2504615 C124.197641,30.5912821 123.843692,31.9111795 123.524615,33.2380513 C121.045231,33.2153846 118.565846,33.2624615 116.086462,33.213641 C115.416923,29.7735385 114.571282,26.3683077 113.849436,22.9386667 C113.78841,23.2002051 113.727385,23.46 113.666359,23.7215385 C112.876513,26.8878974 112.03959,30.0437949 111.288103,33.2206154 C109.04759,33.2415385 106.807077,33.2467692 104.566564,33.2171282 C103.938872,30.5424615 103.302462,27.8677949 102.65559,25.1966154 C102.280718,22.984 101.571077,20.8446154 101.180513,18.6354872 C100.510974,15.8248205 99.8414359,13.0158974 99.1666667,10.2069744 C98.8650256,8.69353846 98.3768205,7.21497436 98.1832821,5.68410256 C100.762051,5.66841026 103.339077,5.70502564 105.916103,5.66492308 C106.482769,7.57764103 106.829744,9.55138462 107.309231,11.4902564 C107.802667,13.4151795 108.175795,15.3697436 108.677949,17.2946667 C108.84359,17.9990769 109.044103,18.7 109.112103,19.4235897 C109.173128,19.4270769 109.293436,19.4357949 109.352718,19.4392821 C109.900205,17.4934359 110.486051,15.5545641 111.106769,13.629641 C111.371795,12.7752821 110.911487,11.9453333 110.756308,11.1188718 C110.515692,10.2435897 110.418051,9.32820513 110.090256,8.48082051 C110.602872,8.20358974 111.192205,8.14779487 111.74841,7.99784615 C112.63241,7.79384615 113.497231,7.50266667 114.396923,7.3614359 L114.515487,7.28471795 C115.254769,7.16441026 115.96441,6.91158974 116.708923,6.81220513 C117.690564,11.1380513 118.876205,15.4150769 119.960718,19.7147692 C121.397436,14.0114872 122.659795,8.26461538 124.045949,2.55087179 C124.065128,2.31897436 124.256923,2.17076923 124.481846,2.176 C126.697949,1.82205128 128.833846,1.06358974 131.051692,0.742769231 Z M162.377026,5.6945641 C162.377026,6.12348718 162.378769,6.55241026 162.385744,6.98133333 C163.245333,6.72153846 164.17641,6.59425641 165.039487,6.92030769 C166.411692,7.34923077 167.421231,8.67261538 167.522359,10.1006154 C167.694974,11.8197949 166.43959,13.5354872 164.769231,13.9347692 C163.981128,14.1509744 163.149436,14.0236923 162.382256,13.7865641 C162.377026,18.5238974 162.375282,23.2647179 162.384,28.0037949 L170.748,28.0003077 L170.748,28.0003077 L170.756395,29.745641 L170.756395,29.745641 L170.754974,33.2363077 L170.754974,33.2363077 C165.297538,33.2310769 159.840103,33.2345641 154.382667,33.2345641 C154.380923,24.0493333 154.373949,14.8658462 154.386154,5.68061538 C157.048615,5.69107692 159.712821,5.66492308 162.377026,5.6945641 Z M29.1074872,0.0924102564 C29.1095857,11.1397949 29.1109744,22.1871795 29.1074872,33.2345641 L9.9475983e-14,33.2345641 L9.9475983e-14,33.2345641 L9.9475983e-14,0.0924102564 L29.1074872,0.0924102564 L29.1074872,0.0924102564 Z M56.7294359,5.67887179 C62.2548718,5.68933333 67.7820513,5.67189744 73.3074872,5.68933333 C73.3109744,7.13302564 73.3127179,8.57671795 73.3057436,10.0204103 C70.3451282,10.0395897 67.3845128,10.0169231 64.425641,10.0326154 C64.4273846,12.2504615 64.4273846,14.4700513 64.425641,16.6878974 C66.9817436,16.7001026 69.5378462,16.689641 72.0939487,16.6931282 C72.1270769,18.3042051 72.1078974,19.9152821 72.1044103,21.5246154 C69.5622564,21.5472821 67.0201026,21.4862564 64.4796923,21.5577436 C64.4923333,22.1662564 64.4915705,22.7752051 64.4868846,23.3842628 L64.4705385,25.2114359 C64.4644359,26.4293333 64.4805641,27.646359 64.5947692,28.8598974 C67.6687179,28.8529231 70.7444103,28.8808205 73.818359,28.8825641 C73.8323077,30.3297436 73.8218462,31.7786667 73.8270769,33.2258462 C68.1255385,33.2432821 62.4257436,33.2275897 56.7259487,33.2345641 C56.7259487,24.0493333 56.7189744,14.8641026 56.7294359,5.67887179 Z M11.2391795,6.21066667 C9.82861538,6.36933333 8.3814359,6.59425641 7.12779487,7.30215385 C6.53671795,7.60030769 5.92297436,8.03794872 5.80092308,8.73538462 C5.70851282,9.60369231 5.70851282,10.5225641 6.12174359,11.3158974 C6.64830769,12.7473846 8.092,13.7115897 9.58102564,13.8632821 C10.5173333,13.9295385 11.462359,13.8074872 12.3951795,13.9469744 C13.1309744,14.0725128 13.7586667,14.5101538 14.3567179,14.9321026 C15.3435897,15.678359 16.2938462,16.524 16.9250256,17.6032821 C17.7915897,19.0347692 18.3321026,20.6545641 18.5884103,22.304 C18.7191795,23.6395897 18.6860513,24.9926154 18.4907692,26.3212308 C18.4314872,27.2784615 18.3146667,28.3036923 18.7575385,29.1929231 C19.2753846,30.2844103 20.0739487,31.2625641 21.0852308,31.9286154 C22.6928205,32.9050256 25.0083077,32.2110769 25.8312821,30.5250256 C26.3299487,29.5276923 26.2462564,28.3525128 26.0509744,27.2871795 C25.8885523,26.4929073 25.4976271,25.8017648 25.0820861,25.1206553 L24.7246351,24.5371329 C24.488656,24.1468609 24.2636607,23.7511795 24.0876923,23.3327179 C23.081641,21.118359 22.8514872,18.6755897 22.4365128,16.3077949 C22.1819487,14.7298462 21.7181538,13.1989744 21.3380513,11.6506667 C20.8202051,10.0744615 20.1977436,8.34482051 18.7261538,7.41723077 C17.8752821,6.99179487 16.8692308,7.18010256 15.9852308,6.84010256 C14.4822564,6.26994872 12.8397949,6.02235897 11.2391795,6.21066667 Z M139.931795,9.53569231 C138.887385,10.0308718 138.362564,11.1467692 137.998154,12.1772308 C137.340821,14.5031795 137.232718,16.9442051 137.260615,19.3486154 C137.236205,21.6745641 137.300718,24.0406154 137.956308,26.2898462 C138.230051,27.1755897 138.658974,28.0874872 139.462769,28.6105641 C140.121846,29.0778462 141.002359,29.133641 141.766051,28.9313846 C142.922051,28.5443077 143.556718,27.3813333 143.884513,26.2811282 C144.683077,23.6448205 144.642974,20.8585641 144.634256,18.1315897 C144.662154,16.7297436 144.52441,15.3313846 144.337846,13.9452308 C144.109436,12.5834872 143.760718,11.1572308 142.819179,10.1006154 C142.12,9.29333333 140.882051,9.09979487 139.931795,9.53569231 Z M162.577538,7.61425641 C161.451179,8.15302564 160.684,9.38923077 160.826974,10.6515897 C160.888,11.8843077 161.874872,12.9513846 163.02041,13.3175385 C163.764923,13.4535385 164.594872,13.4727179 165.273128,13.0891282 C166.280923,12.5521026 167.011487,11.4379487 166.94,10.2749744 C166.901641,8.94635897 165.897333,7.72410256 164.608821,7.412 C163.934051,7.33528205 163.198256,7.28297436 162.577538,7.61425641 Z M165.144103,8.48605128 C165.325436,8.77374359 165.599179,9.05097436 165.538154,9.42410256 C165.552103,9.79374359 165.243487,10.0605128 165.166769,10.4022564 C165.494564,10.9724103 165.489333,11.6436923 165.595692,12.2748718 C165.412615,12.2731282 165.042974,12.2661538 164.859897,12.2644103 C164.835487,11.7238974 164.816308,11.1537436 164.469333,10.705641 C163.998564,10.705641 163.529538,10.7021538 163.060513,10.6986667 C163.055282,11.2217436 163.055282,11.7448205 163.053538,12.2678974 C162.788513,12.2330256 162.424103,12.3934359 162.288103,12.0813333 C162.265436,10.8747692 162.268923,9.66471795 162.286359,8.45989744 C162.321231,8.42153846 162.390974,8.34482051 162.425846,8.30646154 C163.330769,8.32564103 164.274051,8.16697436 165.144103,8.48605128 Z M163.055282,8.92717949 C163.055282,9.30553846 163.055282,9.68564103 163.058769,10.0657436 C163.581846,10.0779487 164.10841,10.0744615 164.631487,10.0204103 C164.697744,9.81466667 164.769231,9.60717949 164.840718,9.4014359 C164.784923,9.2985641 164.67159,9.09107692 164.615795,8.98820513 C164.097949,8.91846154 163.574872,8.91323077 163.055282,8.92717949 Z M6.41641026,1.52912821 C5.86369231,2.02779487 6.01538462,2.87692308 6.22810256,3.50635897 C5.67189744,2.83333333 4.97794872,1.9894359 4.00328205,2.11148718 C3.42441026,2.01907692 2.99025641,2.52646154 2.78974359,3.0094359 C2.42358974,3.86205128 2.70082051,4.82625641 3.09835897,5.61610256 C3.468,6.35538462 4.17764103,7.02841026 5.05466667,6.99876923 C5.75907692,7.03364103 6.57333333,6.71107692 6.85230769,6.01887179 C7.00923077,5.32317949 6.95169231,4.556 6.53323077,3.95620513 C6.90635897,4.2665641 7.32133333,4.66061538 7.85312821,4.56820513 C8.40584615,4.60133333 8.636,4.01897436 8.89230769,3.64235897 C9.15384615,4.00676923 9.38051282,4.44789744 9.81292308,4.63969231 C10.3011282,4.83671795 10.9166154,4.63620513 11.1450256,4.14625641 C11.4832821,3.24307692 10.8677949,1.84994872 9.76933333,1.95630769 C9.32820513,1.95107692 9.02482051,2.30676923 8.72666667,2.57876923 C8.44420513,2.0905641 8.16871795,1.52912821 7.62297436,1.29025641 C7.22194872,1.20482051 6.70410256,1.17866667 6.41641026,1.52912821 Z M15.5772308,4.21948718 C14.9722051,4.64666667 15.3331282,5.61261538 15.9154872,5.88635897 C16.388,6.23158974 17.2789744,6.32051282 17.5579487,5.70153846 C17.6974359,4.67805128 16.5257436,3.78358974 15.5772308,4.21948718 Z M12.2609231,3.0425641 C12.1022564,3.09138462 11.9645128,3.17158974 11.8459487,3.28492308 C11.1711795,3.89517949 11.8442051,5.00061538 12.5782564,5.21158974 C13.1013333,5.33712821 13.9870769,5.39641026 14.1091282,4.70420513 C14.3724103,3.67025641 13.2059487,2.78276923 12.2609231,3.0425641 Z" id="Combined-Shape"></path>
        </g>
    </g>
</svg>