<?xml version="1.0" encoding="UTF-8"?>
<svg width="172px" height="16px" viewBox="0 0 172 16" version="1.1" xmlns="http://www.w3.org/2000/svg" xmlns:xlink="http://www.w3.org/1999/xlink">
    <title>innoaesthetics</title>
    <g id="partners" stroke="none" stroke-width="1" fill="none" fill-rule="evenodd">
        <g id="innoaesthetics" transform="translate(0.149453, 0.000000)" fill="#54301A" fill-rule="nonzero">
            <path d="M2.56295949,3.45795202 C3.0479817,3.89191926 3.35175877,4.49309153 3.50620006,5.11851491 C3.83295187,6.51103922 3.92357444,7.94057838 4.04865911,9.35990654 C4.59622367,7.50405838 5.42586693,5.66097397 6.83115497,4.2914244 C7.3404283,3.77194008 7.88033461,3.21927003 8.60659155,3.02526115 C9.5906761,2.74701156 10.627092,2.99845729 11.5448051,3.38264594 C11.2691082,5.06745994 11.2754901,6.79694705 11.6124529,8.47282644 C12.144701,6.96032295 12.8671288,5.46696508 14.037564,4.33992662 C14.6553291,3.71960874 15.2909635,3.01887928 16.1933601,2.84656875 C17.1621281,2.61554501 18.1666347,2.86826712 19.0664785,3.23841565 C19.0064889,5.24487596 19.0664785,7.30111488 19.7391277,9.2131235 C20.848297,6.61825466 22.990053,4.48288054 25.5913037,3.38775143 C27.7011503,2.53002794 30.2398587,2.48407847 32.2488717,3.63536804 C33.4933366,4.64498007 34.494014,6.06558461 34.7556708,7.67126341 C34.9675489,9.2233345 34.398286,10.7971039 33.4767438,12.0326342 C32.3331124,13.5515196 30.6355347,14.7181256 28.7286316,14.9848879 C27.3246199,15.1112489 25.8644478,15.0282846 24.5599933,14.450087 C24.7846351,13.3868673 25.0628847,12.3376877 25.2760392,11.2731915 C26.1018534,11.6918423 27.0323302,11.9203133 27.9602543,11.7901231 C29.3310802,11.6484456 30.6431929,10.7817875 31.1933102,9.49903133 C31.5634588,8.64768971 31.4881527,7.61637932 30.9686684,6.84289652 C30.3496269,5.89710321 29.1957845,5.37761889 28.0802335,5.41846286 C27.5786184,5.43888485 27.0297774,5.48993982 26.6328251,5.83073174 C24.4693707,7.62914306 23.0334497,10.2303938 22.5037544,12.9797039 C22.4156845,13.3970783 22.4067499,13.8310455 22.2689015,14.2369325 C22.0582998,14.6211212 21.6051869,14.7768388 21.1980235,14.8508686 C20.2764813,14.9950988 19.3255825,14.7627987 18.5112557,14.3275551 C17.7339438,13.9203917 17.3803881,13.0575627 17.0638473,12.2891854 C16.3618415,10.405257 16.0210496,8.40134948 15.8678846,6.40127103 C14.8212578,8.56855451 14.4319636,10.9770727 14.1511613,13.3472997 C14.0924481,13.7825433 14.1460558,14.3479771 13.6980484,14.5968701 C12.9679624,15.0040335 12.0770531,14.9057526 11.2895302,14.7449295 C10.2505616,14.5866591 9.56259586,13.6166147 9.25881879,12.6784796 C8.60786793,10.705205 8.42789916,8.6132276 8.3615277,6.54933045 C7.29830795,8.90551731 6.93454129,11.4927279 6.64863346,14.0390945 C6.60013124,14.5560261 6.07681779,14.8317229 5.62370494,14.937662 C4.29755209,15.2031478 2.82461621,14.9517021 1.75884371,14.0901495 C0.980255422,13.3192195 0.643292621,12.1909046 0.608830516,11.1187503 C0.717322327,9.33437905 0.818155893,7.54490236 0.80539215,5.75542566 C0.747955309,4.92195328 0.783693788,4.02210944 0.342068298,3.27798325 C0.227194616,3.07121062 0.108491811,2.86699074 2.55795385e-13,2.65638899 C0.911331213,2.59384665 1.87882289,2.82742314 2.56295949,3.45795202 Z M61.8684125,3.30733986 C62.3240781,3.35073658 62.5372326,3.78853295 62.8256932,4.07954628 C65.2712263,6.73440471 67.6797445,9.42500163 70.191649,12.0173177 C70.1852671,9.21184713 70.2248347,6.40637653 70.1380413,3.60218231 C70.4864915,3.61366968 70.836218,3.61494605 71.1859446,3.60601143 C71.054478,5.12489679 71.0532016,6.65016401 70.9383279,8.17032574 C70.907695,9.79259741 70.9396043,11.4148691 70.9459862,13.0371407 C70.9421571,13.6829861 71.1170203,14.3492535 70.8923785,14.978506 C69.7500235,13.7991362 68.7289241,12.5061691 67.5993329,11.3127591 C65.9604684,9.52711157 64.3203275,7.74146399 62.6482772,5.98772578 C62.5819057,8.87488433 62.6023277,11.7645956 62.7529399,14.647925 C62.3649221,14.6440959 61.9769044,14.6440959 61.590163,14.6492014 C61.6820619,14.1552446 61.7305641,13.6536295 61.7331169,13.1494617 C61.7356696,12.2572761 61.8798999,11.3727487 61.8645834,10.4805631 C61.8518197,9.58582478 61.9717989,8.69491556 61.9564824,7.80017721 C61.9411659,6.30171384 61.9896681,4.8019741 61.8684125,3.30733986 Z M50.6210027,3.28181237 C50.8481973,3.36860582 51.048588,3.50773061 51.2043057,3.696634 C53.1916204,5.87923397 55.1878697,8.05289931 57.19433,10.2189064 C57.7980551,10.8290133 58.3417905,11.5003862 59.0055051,12.0517798 C59.0042287,10.5048142 59.0514546,8.95657228 58.9467919,7.41215944 C58.9365809,6.14344344 58.9289226,4.87345106 58.8765913,3.60601143 C59.2275942,3.6226043 59.5811499,3.6123933 59.9308764,3.56006196 C59.7675005,4.60158334 59.8479121,5.6596976 59.7266566,6.7050481 C59.6642966,7.88496493 59.6584357,9.06605393 59.6665739,10.2473104 L59.6889235,12.6097489 C59.6942002,13.3971043 59.6931061,14.1842365 59.6730488,14.9708477 C59.3450207,14.7308894 59.0693238,14.4309414 58.8166017,14.1144006 C56.4182945,11.3357339 53.8808625,8.68342819 51.3957618,5.98389665 C51.2987574,8.8710552 51.3753399,11.7607665 51.4315003,14.647925 C51.0651809,14.6440959 50.6988615,14.6453723 50.3338185,14.6517542 C50.6988615,10.8749628 50.6669521,7.07392026 50.6210027,3.28181237 Z M110.258313,4.05529517 C110.079621,4.51223715 109.934114,4.9806665 109.811582,5.45547772 C109.768185,5.45037222 109.681392,5.44016122 109.637995,5.43505573 C109.463132,5.02916872 109.265294,4.61307071 108.90408,4.33992662 C108.22122,3.76300546 107.161829,3.82299505 106.455994,4.32333376 C105.697828,4.85558182 105.443829,5.94049993 105.817807,6.77524869 C106.153493,7.45683254 106.858052,7.84867943 107.530701,8.13714001 C108.592645,8.58259462 109.853702,8.94380854 110.447216,10.0261739 C111.192619,11.6305763 110.387227,13.7442521 108.781548,14.4781673 C107.311165,15.1278418 105.475739,15.0410483 104.170008,14.054411 C104.29254,13.5259921 104.386991,12.9924676 104.512076,12.4640487 C104.851592,12.9133324 105.114525,13.4519624 105.608482,13.7582922 C106.441954,14.3530826 107.664721,14.4373233 108.516062,13.8374274 C109.588217,13.1098941 109.849873,11.2923372 108.809628,10.4282318 C107.834478,9.59858852 106.471311,9.46839835 105.479568,8.66555895 C104.814577,8.16777299 104.370399,7.36620996 104.43677,6.52252659 C104.342318,5.5205728 104.808195,4.49053878 105.664642,3.9493561 C107.02781,3.07759249 108.939818,3.09801448 110.258313,4.05529517 Z M170.536363,4.07188803 C170.334696,4.55563387 170.224928,5.07128907 170.024537,5.55503491 C169.74884,5.10319842 169.558661,4.55563387 169.088955,4.26334417 C168.388225,3.75789997 167.368402,3.84596979 166.695753,4.35524311 C165.728261,5.06745994 165.67593,6.74461571 166.654909,7.4683199 C167.600702,8.25329007 168.886011,8.4051786 169.881583,9.10846081 C170.387027,9.46712198 170.809507,9.98532992 170.934592,10.6069242 C171.187314,11.9075495 170.699739,13.3664453 169.609716,14.1539682 C168.634566,14.8521449 167.360744,14.9912697 166.199244,14.8215119 C165.548293,14.7270603 164.966266,14.4003084 164.430189,14.0378182 C164.578248,13.5540723 164.670147,13.0537336 164.736519,12.5521185 C164.782468,12.5597768 164.874367,12.5763696 164.920317,12.5840279 C165.198566,13.1073413 165.568715,13.6051273 166.102239,13.8910351 C167.060796,14.4615744 168.445662,14.3632936 169.192341,13.4851481 C169.881583,12.6580576 170.005392,11.2183074 169.133628,10.4716285 C168.109976,9.55774455 166.606407,9.4658456 165.599348,8.52260503 C164.164703,7.33302423 164.463375,4.74709001 166.085646,3.85873353 C167.438603,3.09418536 169.280411,3.10950185 170.536363,4.07188803 Z M82.1627631,4.02721493 C83.5578401,4.69731141 84.5278846,6.06558461 84.8610182,7.5576661 C84.9541936,7.97376411 84.9707864,8.40262585 85.040987,8.82255298 C85.0397106,9.03315473 85.0397106,9.24503286 85.0422634,9.45563461 C84.9452589,10.4588648 84.7486973,11.476135 84.2036855,12.3427932 C83.4761522,13.617891 82.1206427,14.4360469 80.7013146,14.7130201 C79.0777665,15.0423247 77.3214756,14.9223455 75.8191831,14.1935358 C74.3092323,13.4570679 73.3098313,11.892233 73.0928477,10.248263 C73.0405163,9.81684852 73.0073306,9.38288128 72.9856322,8.95019041 C73.0877422,8.35667638 73.0737021,7.74274037 73.2728164,7.16964833 C73.7004018,5.73628005 74.7406468,4.48798604 76.129342,3.90213026 C78.0311396,3.09673811 80.3005331,3.11843647 82.1627631,4.02721493 Z M163.258477,4.05912429 C163.135945,4.5045789 163.023624,4.95386264 162.922791,5.40569912 C162.130162,4.60413609 161.093747,3.96467259 159.939904,3.93021049 C158.811589,3.9097885 157.618179,4.22760569 156.800024,5.03937971 C155.993355,5.78988777 155.605337,6.87480588 155.436856,7.939302 C155.274756,9.52328244 155.356444,11.2451113 156.274157,12.6057263 C157.341206,14.2011941 159.587625,14.7219548 161.328599,14.0288835 C161.985932,13.7863724 162.553919,13.3677217 163.115523,12.9567292 C163.052981,13.3217722 163.123182,13.7480812 162.908751,14.0658984 C162.148032,14.5866591 161.202238,14.719402 160.311329,14.8534213 C158.869026,14.9746769 157.338654,14.729613 156.113334,13.9254972 C154.82292,13.0894721 154.03795,11.6178126 153.86181,10.1104146 C153.649932,8.53664515 153.916694,6.84034377 154.866317,5.53588929 C155.745738,4.31695189 157.19187,3.60473506 158.662254,3.41072617 C160.215601,3.16821506 161.82128,3.4388064 163.258477,4.05912429 Z M102.667715,3.54219272 C102.66261,3.86894453 102.661334,4.19697271 102.665163,4.52500089 C101.276467,4.40757446 99.8839431,4.28759528 98.4888661,4.31184639 C98.4531276,5.70819982 98.454404,7.10582962 98.4658914,8.50218305 C99.743542,8.51877591 101.017363,8.41666597 102.291185,8.34263626 C102.287356,8.66428257 102.286079,8.98592889 102.289909,9.3075752 C100.980349,9.17227953 99.6541958,9.2577966 98.3497413,9.08548608 C98.3242138,9.731842 98.3223758,10.3788106 98.3281348,11.0260651 L98.3521102,12.9683595 L98.3521102,12.9683595 L98.351,13.921 L98.3681305,12.9567764 C98.3714397,12.3016655 98.3654832,11.6467437 98.3918616,10.9923892 C98.4071781,10.4167444 98.225933,9.81046665 98.4480221,9.25652023 C98.4761023,9.25652023 98.5335392,9.25396748 98.5616194,9.2526911 C98.4403639,9.5156242 98.4582331,9.80919028 98.4531276,10.0899926 C98.4633386,11.380407 98.4480221,12.6708213 98.4761023,13.9612357 C99.8890486,13.9739994 101.309653,13.9497483 102.711112,13.7544631 C102.708559,14.0569638 102.708559,14.3594645 102.713665,14.6619652 C100.796551,14.6185684 98.8768839,14.6453723 96.9597697,14.6492014 C97.1422913,12.6248719 97.0874072,10.5916077 97.0976182,8.56217264 C97.1065528,7.06881477 97.073367,5.57673327 97.0478396,4.08465177 L96.9750862,3.9889237 L96.9741289,3.88848901 L96.9741289,3.88848901 L96.9722144,3.64645654 C96.9718953,3.60840463 96.9715762,3.57378298 96.9712571,3.54602184 C97.9196032,3.55112734 98.8653965,3.64557903 99.8150189,3.62770979 C100.767194,3.64430266 101.71554,3.55878558 102.667715,3.54219272 Z M139.308591,3.53963997 C139.300933,3.86894453 139.299656,4.19697271 139.304762,4.52627726 C137.910961,4.40502171 136.514608,4.28887165 135.114425,4.30929364 C135.082516,5.6992652 134.980406,7.11859336 135.12336,8.4894193 C136.394629,8.53792152 137.664621,8.41156047 138.933337,8.33753077 C138.928231,8.66172983 138.926955,8.98592889 138.930784,9.31012794 C137.651857,9.21439988 136.370377,9.16717403 135.087621,9.16972678 C134.943391,10.7639182 135.07741,12.3644915 135.083792,13.9612357 C136.512055,13.9752758 137.945423,13.9497483 139.362199,13.7557394 C139.357093,14.0582401 139.357093,14.3594645 139.360922,14.6619652 C137.43615,14.6223976 135.510101,14.6364377 133.586605,14.6555833 C133.771679,12.0339106 133.72573,9.40457964 133.718072,6.77780144 C133.719348,5.69798882 133.632555,4.62072896 133.589158,3.54219272 C135.494785,3.64174991 137.402964,3.6570664 139.308591,3.53963997 Z M148.7678,3.53963997 C148.752484,3.88043189 148.751208,4.22122382 148.763971,4.56201574 C147.63438,4.41906183 146.495854,4.3858761 145.358605,4.39098159 C145.312655,7.81294095 145.266706,11.2387294 145.456886,14.6568597 C144.936125,14.6377141 144.415364,14.6377141 143.894604,14.6543069 C143.954593,12.877594 144.059256,11.1021574 144.023517,9.32289169 C144.014583,7.67509253 144.055427,6.026017 143.945659,4.38204697 C142.822449,4.39608709 141.697964,4.41906183 140.582412,4.56073937 C140.5939,4.22122382 140.592623,3.88043189 140.572201,3.54091634 C142.048966,3.56261471 143.524455,3.65323728 145.002496,3.62770979 C146.258449,3.64174991 147.511848,3.55240371 148.7678,3.53963997 Z M122.990146,3.54219272 C122.953131,5.12234404 122.834428,6.69738986 122.857403,8.28009393 C125.078294,8.4051786 127.306844,8.34008352 129.530288,8.31710878 C129.554539,6.72547009 129.493273,5.13510778 129.447323,3.54474547 C129.964255,3.64430266 130.495227,3.63792079 131.013435,3.54346909 C130.813044,5.89327408 130.897285,8.25456644 130.878139,10.6107533 C130.881968,11.9586045 130.885797,13.3102848 131.014711,14.6530305 C130.490121,14.6402668 129.966808,14.6389904 129.443494,14.6530305 C129.5188,12.7869714 129.55071,10.9183595 129.531564,9.05102397 C127.30812,9.03826023 125.084676,9.00762725 122.862509,9.06761684 C122.839534,10.9323996 122.9008,12.7933533 122.991423,14.6543069 C122.469385,14.6389904 121.948625,14.6389904 121.427864,14.6530305 C121.462326,13.730212 121.469984,12.8073934 121.547843,11.8871276 C121.569542,10.4818395 121.551672,9.07782783 121.558054,7.67253978 C121.584858,6.29660835 121.431693,4.92450603 121.431693,3.54857459 C121.947348,3.64302628 122.474491,3.64430266 122.990146,3.54219272 Z M119.838778,3.54219272 C119.808145,3.88170827 119.815803,4.22377657 119.892386,4.55818662 C118.755136,4.42672007 117.612781,4.3858761 116.470426,4.38715247 C116.438517,7.80911183 116.405331,11.2336239 116.525311,14.6543069 C115.998168,14.6389904 115.472302,14.6402668 114.946436,14.647925 C115.15959,12.2419596 115.075349,9.82323039 115.094495,7.41088306 C115.093219,6.40254741 115.076626,5.39421175 115.05748,4.3858761 C113.917678,4.38715247 112.779152,4.43054919 111.645732,4.55691025 C111.659772,4.21867107 111.659772,3.88043189 111.643179,3.54219272 C113.021663,3.55368009 114.398871,3.65068453 115.778632,3.62770979 C117.132865,3.64940816 118.484545,3.55623283 119.838778,3.54219272 Z M150.316042,3.54602184 C150.831698,3.63792079 151.361393,3.64430266 151.878325,3.54985096 C151.72133,7.25005991 151.711119,10.954098 151.882154,14.6543069 C151.35884,14.6389904 150.835527,14.6402668 150.31349,14.6504778 C150.432192,13.1775419 150.442403,11.6982242 150.446233,10.2201828 C150.439851,7.99546247 150.480695,5.76691303 150.316042,3.54602184 Z M47.8104266,3.54346909 C47.7963865,4.45097118 47.6661963,5.3520914 47.689171,6.26086987 C47.6840655,9.05740584 47.6036539,11.8603237 47.8155321,14.6504778 C47.2922186,14.6402668 46.7701816,14.6389904 46.2468681,14.6543069 C46.3068577,12.1551661 46.420455,9.65602537 46.3515308,7.15560821 C46.283883,5.95581642 46.2915412,4.75219551 46.2494209,3.55112734 C46.7663524,3.64557903 47.293495,3.63664441 47.8104266,3.54346909 Z M90.6685211,3.35073658 C91.6155908,5.66097397 92.5664896,7.96865861 93.5429159,10.2674086 C94.160681,11.7365154 94.7771698,13.2081749 95.4740701,14.6415432 C94.9099127,14.6377141 94.3457553,14.6377141 93.7815979,14.6504778 C93.3259323,13.2043458 92.6762578,11.8322435 92.1682608,10.4065334 C90.801264,10.2967652 89.4278853,10.3133581 88.0608885,10.3988752 C87.8515631,10.9732436 87.5911828,11.5284664 87.4380178,12.1219804 C87.4392942,12.0479507 87.441847,11.9751974 87.4456761,11.902444 C87.1814666,12.8252626 86.7679214,13.699579 86.5547669,14.6377141 C86.1399452,14.6440959 85.7251236,14.6428196 85.3115784,14.6389904 C86.3658635,12.5355257 87.2567727,10.3529257 88.2255408,8.20989334 C88.9441395,6.59655629 89.6397634,4.97428462 90.3417693,3.3545657 C90.4489847,3.35328933 90.5587529,3.35201296 90.6685211,3.35073658 Z M76.9755781,4.36928323 C75.921293,4.86834556 75.170785,5.88051034 74.8619024,6.99223231 C74.5006885,8.29285767 74.5249396,9.68027648 74.7763853,10.9987711 C75.0865443,12.212603 75.8293941,13.3741035 77.0049347,13.8999697 C78.6642213,14.6530305 80.8519267,14.4437052 82.1512757,13.0933012 C83.1289784,12.0645436 83.4646648,10.5890549 83.437861,9.20674163 C83.4659412,8.22903896 83.3344746,7.23346704 82.9324168,6.33489957 C82.5163187,5.40187 81.7441123,4.61307071 80.7804498,4.24930405 C79.5640651,3.78853295 78.1587771,3.82171868 76.9755781,4.36928323 Z M90.1196801,5.5703514 C89.5440354,6.91564986 88.928823,8.24818457 88.4272079,9.62156326 C89.583603,9.65474899 90.7425508,9.68027648 91.9002222,9.62539238 C91.3016027,8.2762648 90.7655255,6.89778062 90.1196801,5.5703514 Z M2.71229528,0.254252656 C3.70276169,0.820962822 3.86486122,2.4725911 2.85907832,3.10439635 C2.50552265,2.79168466 2.15069061,2.45727461 1.70140687,2.29006958 C1.18192255,2.10116619 0.620317884,2.13179917 0.0778588291,2.12669368 C0.0753060806,1.6595407 0.0740297064,1.15282013 0.37270128,0.763525981 C0.853894372,0.00408330312 1.95668172,-0.233322307 2.71229528,0.254252656 Z" id="Combined-Shape"></path>
        </g>
    </g>
</svg>