<?xml version="1.0" encoding="UTF-8"?>
<svg width="171px" height="32px" viewBox="0 0 171 32" version="1.1" xmlns="http://www.w3.org/2000/svg" xmlns:xlink="http://www.w3.org/1999/xlink">
    <title>isclinical</title>
    <g id="partners" stroke="none" stroke-width="1" fill="none" fill-rule="evenodd">
        <g id="isclinical" transform="translate(-0.000000, 0.121789)" fill="#54301A" fill-rule="nonzero">
            <path d="M9.51444,13.5475344 C13.22172,17.9490744 19.87704,17.1932544 23.88186,21.1536144 C26.75466,23.7801744 25.67052,29.1051144 22.13424,30.5825544 C18.59112,32.0976144 13.91598,31.2460344 11.52882,28.0893744 C10.06506,26.2254744 9.53154,23.7972744 9.51102,21.4682544 C9.5076,18.8280144 9.5247,16.1877744 9.51444,13.5475344 Z M3.21822,6.1603344 C3.73464,7.0974144 4.16898,8.2670544 5.2839,8.6295744 C6.17652,9.0946944 7.14438,8.6295744 8.05068,8.4722544 C8.09172,9.2930544 8.1396,10.1172744 8.18748,10.9380744 C6.56298,11.0098944 4.94532,11.1843144 3.32766,11.3689944 C3.34476,16.1911944 3.4029,21.0133944 3.30714,25.8321744 C1.3338,23.0961744 0.1026,19.8334944 -8.8817842e-16,16.4442744 L-8.8817842e-16,15.5311344 C0.07524,12.1590144 1.25172,8.8860744 3.21822,6.1603344 Z M58.77612,7.1384544 C60.94782,7.9455744 62.16192,10.2027744 62.16876,12.4497144 C61.92936,12.3744744 61.45056,12.2239944 61.21116,12.1487544 C60.7392,10.9141344 60.51006,9.4401144 59.3199,8.6569344 C57.20634,7.2410544 54.207,7.1350344 52.01478,8.4414744 C50.13378,9.5905944 49.77126,12.7198944 51.73776,13.9613544 C54.56268,15.7807944 58.33836,15.1241544 61.07436,17.1556344 C63.2016,18.8143344 63.08532,22.3506144 61.10514,24.0777144 C59.36436,25.5654144 56.91564,25.9450344 54.70974,25.6201344 C52.84926,25.3499544 50.88276,24.6214944 49.8123,22.9833144 C49.01544,21.8923344 48.906,20.5072344 48.74868,19.2110544 C48.89061,19.2127644 49.103505,19.2136194 49.3164,19.2140469 L49.88412,19.2144744 L49.88412,19.2144744 C50.0175,20.4525144 50.07222,21.8376144 50.98194,22.7986344 C52.70562,24.6727944 55.49292,24.9327144 57.87666,24.5804544 C59.69952,24.2555544 61.53606,22.7815344 61.48134,20.7910944 C61.62498,19.6180344 61.0812,18.4244544 60.07572,17.7917544 C57.22002,15.9620544 53.4204,16.6015944 50.67414,14.5359144 C48.60504,12.7814544 49.0257,9.1357344 51.25896,7.6993344 C53.44776,6.2526744 56.36844,6.3073944 58.77612,7.1384544 Z M84.89466,8.3764944 C86.08824,9.4093344 86.64228,10.9209744 87.0732,12.3915744 C86.7141,12.4052544 86.355,12.4155144 85.99932,12.4291944 C85.57524,11.1569544 85.0554,9.8334144 83.97126,8.9715744 C81.4644,6.8887944 77.43906,7.1316144 75.09978,9.3614544 C73.05804,11.3142744 72.3159,14.2657344 72.56556,17.0188344 C72.5724,20.7329544 75.41442,24.6283344 79.344,24.7001544 C81.74826,24.9771744 84.03624,23.4928944 85.1922,21.4511544 C85.80438,20.4661944 85.99932,19.3033944 86.38578,18.2260944 C86.63886,18.1816344 87.14844,18.0927144 87.40152,18.0482544 C87.0561,20.6269344 85.87962,23.2363944 83.5848,24.6249144 C80.7633,26.4511944 76.8303,25.8868944 74.37132,23.6980944 C71.31384,20.8218744 70.65378,16.0099344 72.05256,12.1658544 C72.9144,9.5769144 75.07584,7.3778544 77.78106,6.7896144 C80.20926,6.2834544 83.05128,6.5536344 84.89466,8.3764944 Z M140.11398,8.2260144 C141.39306,9.2759544 141.9813,10.8696744 142.47378,12.3949944 C142.10442,12.4018344 141.73164,12.4086744 141.3657,12.4155144 C140.9553,11.1466944 140.4423,9.8265744 139.36158,8.9749944 C136.66662,6.7314744 132.24114,7.1931744 129.99762,9.8641944 C127.23426,13.2431544 127.12824,18.5236344 129.70008,22.0428144 C131.3964,24.3581544 134.64882,25.3362744 137.34036,24.3410544 C139.81986,23.3253144 141.38964,20.7739944 141.63588,18.1645344 C141.92658,18.1611144 142.50798,18.1542744 142.79526,18.1508544 C142.36776,20.6611344 141.25626,23.2363944 138.99906,24.6078144 C136.04418,26.5366944 131.85468,25.8458544 129.42648,23.3800344 C126.60156,20.3943744 126.0612,15.6952944 127.52154,11.9401344 C128.44494,9.3751344 130.6782,7.2342144 133.40052,6.7348944 C135.70218,6.3279144 138.32874,6.5775744 140.11398,8.2260144 Z M150.88014,6.9298344 C151.51626,6.6870144 151.53678,7.4667744 151.77276,7.8087744 C154.01628,13.6296144 156.24954,19.4538744 158.51016,25.2712944 L157.29264,25.2712944 L157.29264,25.2712944 C156.60522,23.3218944 155.7981,21.4203744 155.12094,19.4675544 C152.25156,19.5393744 149.3856,19.1631744 146.51964,19.4983344 C145.74672,21.3451344 145.20636,23.2911144 144.29322,25.0729344 C143.98542,25.1584344 143.36982,25.3260144 143.06202,25.4115144 C145.34658,19.5496344 147.65508,13.6980144 149.94648,7.8429744 C150.19614,7.4872944 150.2064,6.6391344 150.88014,6.9298344 Z M107.67186,6.9503544 C111.3552,12.6104544 115.24374,18.1371744 118.92366,23.8006944 C118.99206,18.1850544 118.9305,12.5659944 118.95786,6.9503544 L120.0933,6.9503544 L120.0933,6.9503544 C120.10356,13.0550544 120.09672,19.1563344 120.10014,25.2576144 C119.78208,25.2678744 119.14938,25.2918144 118.83474,25.3020744 C115.00434,19.7069544 111.23892,14.0639544 107.48034,8.4209544 C107.41878,14.0365944 107.47008,19.6522344 107.45298,25.2678744 C107.15886,25.2712944 106.57062,25.2747144 106.27992,25.2747144 C106.27992,19.1665944 106.27308,13.0618944 106.27992,6.9537744 C106.74162,6.9503544 107.20674,6.9503544 107.67186,6.9503544 Z M89.67582,6.9298344 C90.02466,6.9366744 90.3735,6.9469344 90.72234,6.9571944 C90.73944,12.7472544 90.71208,18.5373144 90.73602,24.3273744 C94.08762,24.3205344 97.43922,24.3273744 100.79082,24.3239544 L100.79082,25.2747144 L100.79082,25.2747144 C97.0767,25.2781344 93.366,25.2747144 89.6553,25.2781344 C89.66556,19.1597544 89.62452,13.0447944 89.67582,6.9298344 Z M159.79608,6.9332544 C160.06968,6.9366744 160.61688,6.9469344 160.89048,6.9537744 C160.911,12.7438344 160.88706,18.5373144 160.90074,24.3273744 C164.26944,24.3273744 167.63472,24.3102744 171,24.3410544 L171,25.2678744 C167.26194,25.2849744 163.52046,25.2712944 159.7824,25.2781344 C159.78924,19.1631744 159.76188,13.0482144 159.79608,6.9332544 Z M45.29448,12.1042944 C45.53388,12.1077144 46.01952,12.1179744 46.25892,12.1248144 C46.2726,16.5058344 46.26576,20.8868544 46.26234,25.2712944 C46.01952,25.2712944 45.52704,25.2747144 45.2808,25.2781344 C45.28764,20.8868544 45.2637,16.4955744 45.29448,12.1042944 Z M103.12668,6.9400944 C103.15062,13.0516344 103.13352,19.1631744 103.13352,25.2747144 L102.05964,25.2747144 L102.05964,25.2747144 C102.06648,19.1665944 102.04596,13.0550544 102.07332,6.9469344 C102.33666,6.9435144 102.86334,6.9400944 103.12668,6.9400944 Z M123.24654,6.9366744 C123.50646,6.9400944 124.02972,6.9469344 124.29306,6.9469344 C124.31016,13.0584744 124.2999,19.1665944 124.29648,25.2747144 L123.22944,25.2747144 L123.22944,25.2747144 C123.2397,19.1631744 123.20892,13.0516344 123.24654,6.9366744 Z M26.10144,4.9051944 C26.85384,5.8559544 27.38736,6.9503544 27.91746,8.0344944 C28.53648,8.0379144 29.15892,8.0413344 29.78136,8.0447544 C32.36346,12.6070344 32.34294,18.3115944 30.26016,23.0619744 C30.14046,20.6029944 29.8566,17.8772544 27.94824,16.0954344 C25.9769306,14.1459275 23.4129793,13.366261 20.8301762,12.6093676 L19.9187502,12.3413065 C17.9463465,11.7544625 16.0023937,11.1020206 14.34348,9.8710344 C13.24908,9.0570744 12.31542,7.8292944 12.37014,6.4031544 C12.30516,4.2075144 13.87494,2.1760344 15.95088,1.5399144 C19.6137,0.3258144 23.73822,1.9913544 26.10144,4.9051944 Z M150.87672,8.0242344 C149.625,11.5194744 148.21596,14.9565744 146.9232,18.4381344 C149.51898,18.4381344 152.11476,18.4381344 154.71054,18.4347144 C153.4554,14.9565744 152.1387,11.4989544 150.87672,8.0242344 Z M45.9648,7.1452944 C46.66248,7.7540544 46.75824,8.5132944 46.33758,9.3204144 C46.227,9.3112944 46.07918,9.2995144 45.91882,9.2869744 L45.42482,9.2489744 C45.26408,9.2368144 45.1155,9.2257944 45.00378,9.2178144 C44.96616,8.7150744 44.91828,8.2157544 44.86014,7.7164344 C45.13374,7.5727944 45.68778,7.2889344 45.9648,7.1452944 Z M16.31682,0.0590543997 C13.36536,0.3189744 10.60884,2.0050344 9.12456,4.5666144 C8.48502,3.8449944 7.69158,3.3046344 6.82974,2.8839744 C9.50418,0.8353944 12.93786,-0.2761056 16.31682,0.0590543997 Z" id="Combined-Shape"></path>
        </g>
    </g>
</svg>