<svg height="56" viewBox="0 0 172 56" width="172" xmlns="http://www.w3.org/2000/svg"><path d="m109.466462 42.7327636c.314715 3.7594707.109466 7.5463078.116308 11.3160409h-1.710405c-2.168794-1.9430203-3.54396-4.6078316-5.469876-6.7800462-.136833 2.2577348-.133412 4.5223113-.064996 6.7800462h-2.6032363c-.0615746-3.6329007-.0034208-7.2658013-.0376289-10.898702.5575922-.1163075 1.1151842-.2291943 1.6693552-.3523435.530226.2770857 1.063872.5849586 1.429899 1.0775553 1.399111 1.7754006 2.767436 3.5713261 4.077606 5.4151429.519963-2.0524862.177882-4.1802303.304452-6.2669247.646533-.0410497 1.296487-.088941 1.946441-.1402532.342081 3.4960682-.184723 7.0092405.133412 10.501888.348923-3.5439596-.33524-7.1187065.208669-10.6524037zm-27.2296505.2120903c.9030939.0307873 1.8061879.054733 2.7127026.0957827-1.2485958 1.6317266-2.7913813 2.9932091-4.2144384 4.4607368 1.4264779 2.2611556 3.1437248 4.3204835 4.6215149 6.5474311h-2.4014089c-1.0228224-.396814-1.5462064-1.3785866-1.949862-2.3295719.0273665.1881446.0513122.37971.0786787.5712753-.6294292-1.0809761-1.3683242-2.0901151-2.2166852-3.0034715-.5575921.6089042-.9886142 1.3204328-1.1493923 2.1380065-.0615746.848361-.1778821 1.6864595-.270244 2.5313997-.6944245-.0068416-1.388849-.0136832-2.0798527-.017104-.0171041-3.6500048-.0136833-7.3034303-.0034208-10.953435.8141528 0 1.6283057.0034208 2.4424586.0102624.0068416 1.4470029.0034208 2.8974265.054733 4.3444293 1.5667311-1.354641 2.8871639-2.9624218 4.3752165-4.3957414zm-13.2693236 1.0946593c-.3523435.6260083-.7115286 1.245175-1.0707137 1.8643417-1.207546-.4618094-2.4116713-.9954558-3.7252625-1.0365056-.2668232.2736649-.5336464.5473297-.8038905.8175737-.0102624.181303-.0307872.5439089-.0410497.7252118 1.696722.8038905 3.5473804 1.2109669 5.250944 1.9977533.5473297 1.1562339.8825691 2.5040332.396814 3.7457874-.4241805 1.1493923-1.659093 1.696722-2.7879605 1.895129h-2.0661695c-1.2109669-.198407-2.3056262-.7628407-3.3900231-1.3033288-.0205248-.2770856-.0410497-.5541713-.0615746-.8312569.4070765-.4173389.8073113-.8380986 1.2109669-1.2588582 1.2691207.9646685 2.8392727 1.2862247 4.4128454 1.1391298.1573573-.2018278.4686511-.6089042.6260084-.810732-.1197284-.2189319-.362606-.6533748-.4857551-.8723067-1.9088122-.7696823-4.2281217-.920198-5.4698759-2.7845397-.0478913-1.4504236.0136833-3.2224034 1.4812109-3.9920857 2.1037984-.7970488 4.6351981-.5541713 6.5234855.7046869zm21.7392501-1.0570304c.8038905 0 1.6077809.0034208 2.4116714.0068416.017104 3.6397423-.0136833 7.2760638.017104 10.9123852-.8073112.0307873-1.6112017.0478914-2.4185129.0718371-.0410497-3.663688-.0239457-7.3273759-.0102625-10.9910639zm67.304445-42.9824828c.448126.07183702.899673.15051566 1.347799.23603592 3.307924.78336558 6.550852 2.37062161 8.620442 5.15174048.992035 1.29306633 1.919075 2.73664832 1.98407 4.41626624.112887-.24629835.232616-.48917589.362606-.73205343.011729.11923968.020455.24022466.028713.3618978l.025901.36602672c.049267.60996137.150146 1.21069757.619286 1.67006357v4.9020213c-.615746 2.2987846-1.221229 4.6865103-2.705861 6.6055849-2.158531 3.0445213-5.586183 5.1209532-9.260134 5.719595-3.814203.8552026-7.840497-.1847237-11.203154-2.0422238.160778.0342081.321556.0649954.485755.0992035-1.488052-.8552026-2.753752-2.0422238-3.75947-3.4310728.034208.1299908.099203.3899724.133411.5199632-.348923-.6020627-.701266-1.1972837-1.050189-1.7959255-.150515-.0410497-.451547-.1231492-.602062-.1676197.174461-.0478914.519963-.1402532.694424-.1881446-.153936-.0820994-.46523-.2428775-.619166-.324977-.516543-1.6351474-1.299908-3.2258242-1.330696-4.9772791-.068416-1.8198712-.150515-3.6773712.263403-5.4664551.448126-2.07985269 1.614622-3.87235734 2.627182-5.70591172-.034208.17104052-.068416.34550185-.102624.51996318 2.031961-2.76743562 5.124374-4.73440161 8.517818-5.30909776l.030787-.4276013zm-58.5300663 0c.4720719.07183702.9475643.14367404 1.4196363.22235268 2.360359.4618094 4.597569 1.35122011 6.680843 2.54850375-.129991-.02052486-.393393-.05815377-.523384-.07867864.46523.33523942.93046.67047884 1.39227 1.00913907-1.13913 1.15281311-2.312468 2.27483893-3.396865 3.47554338-1.460686-.45496778-2.791381-1.2178085-4.159706-1.8746041-1.8746037-.25656078-4.0433975-.67732047-5.6819656.54048804-1.1254467.68074127-1.2793831 2.19616028-.8894108 3.33871096.8380986 1.44700276 2.6032368 1.76171736 4.0673436 2.23378916 2.7127028.831257 5.6306538 1.3101704 8.0115378 2.941897 1.364904.8791483 2.298785 2.3124678 2.805065 3.8347285.277085 1.4401611.119728 2.9213721.058154 4.3752165l-.186522.3842933-.365184.7737178c-.306704.6437404-.630612 1.2784611-1.056075 1.8557228-1.511999 1.823292-3.779996 2.8084854-6.092464 3.1060959-.786786.1915654-1.5975182.2976105-2.4048294.2805065-4.2349633-.2018279-8.5930758-1.5769936-11.6239138-4.6659854 1.1083426-1.1117634 2.2508932-2.1893187 3.3181861-3.3421318.2770856.017104.5575921.0307873.8380985.0478913 2.3090471 2.021699 5.4254054 3.195037 8.5109766 2.8597975 1.785663.0376289 3.913407-1.3375368 3.608955-3.3455525.092362-1.2246502-1.026243-1.8746042-1.932758-2.3979881-3.7868373-1.6043601-8.4596643-1.4777901-11.4460318-4.655723.0068416.0786786.0171041.2394567.0205249.3181354-1.912233-2.1003776-2.1311649-5.10726999-1.5872561-7.77550211.8962524-3.08215018 3.8723574-5.32962262 7.0366071-5.59644583.1334116-.10262431.4036556-.31129375.5370672-.41391806zm-45.3531044.54390886c-.0068416 9.31144593 0 18.61947104-.0034208 27.93091704-1.4675277.0068416-2.9350553-.0273665-4.402583.0547329-.4447053-.4618094-.8620442-.9475645-1.2759623-1.4367403-.7149493-1.0262432-1.3751658-2.1585314-2.4664043-2.8358519.7252118-.4207597.1060452-1.0707136-.4960175-1.1767588-.342081-.3933932-.6807413-.793628-1.0091391-1.2007044-1.3854282-1.6864595-2.6682321-3.4481769-4.0365562-5.1448989-1.6522515-2.3124678-3.5336972-4.4504743-5.2235775-6.73557567-.0513122-.01368324-.1539365-.04447054-.2052487-.05815378-.0957826 6.17456275-.0136832 12.35596725-.0410497 18.53395085-1.7822422.0034208-3.5644844.0034208-5.3467267 0-.0068416-9.311446.0034209-18.61947111-.0034208-27.93091704 1.6830388-.01368325 3.3626567-.01710406 5.0456954.00684162 2.1756354 2.74006913 4.2554881 5.5553961 6.4619109 8.27151957 1.5975184 2.24063085 3.4618601 4.28627545 4.9738583 6.58506005.8996731 1.0878177 1.9567035 2.0764319 2.5416621 3.3900231.0889411-.7970488.1676197-1.5940976.1641989-2.3945673-.017104-5.2817313 0-10.56346253-.0102624-15.8451938 1.7788214-.03762892 3.554222-.02394568 5.3330434-.01368324zm84.0527327.07525782c.08552.08552027.256561.24971916.342081.33181861-.393393.31813537-.783366.63627074-1.169917.95440611-.376289.85178179-.964669 1.5769936-1.775401 2.04222381.153937-.00684162.468651-.01710405.626009-.02394567-.66548.32918722-1.091583.91086668-1.487166 1.51348206l-.261491.40230412c-.087185.13344119-.175155.26537517-.266201.39326085-.50628.56101291-1.009139 1.118605-1.525681 1.66593467-.058154.18814457-.16762.56785453-.225774.75941991-.099203.01368324-.29761.04447053-.396814.05815378-.923619 1.35122007-1.915654 2.65796967-3.010313 3.87919897.010263.4070765.027367.8141529.047891 1.2212293.263403.3147146.530226.6362708.793628.9544062.718371.8723066 1.317012 1.8369751 2.042224 2.705861.940723 1.2964871 2.15169 2.435617 2.781119 3.9373528.058154-.1847238.119728-.3728684.184724-.5610129.006841.1744613.023946.5165423.030787.6875829.896252 1.009139 1.802767 2.0182781 2.456142 3.2087201.08381.0795339.19969.1479501.322198.2152973l.185552.1014751c.306937.1719759.575792.3686725.409027.7470997.687583.8552026 1.286225 1.7754006 1.966966 2.6408656-2.185898-.0136832-4.3889.1334116-6.567956-.054733-.742316-.5370672-1.176759-1.3854282-1.77198-2.0661695-.680741-.8894107-1.306749-1.8164503-2.031961-2.6682321-1.269121-1.8164503-2.722965-3.4960682-3.937353-5.3535683l-.294189.0068416c-.037629-.2223526-.116308-.6602164-.153937-.8791482-1.706984 1.5530479-2.852956 3.6021133-4.508628 5.1996318-.013683.0820994-.04105.2394567-.054733.3215562-.328398.2428775-.475493.5712753-.448126.9817726-.051312 1.5085774.006841 3.0205756-.013683 4.5291529-1.802767.0102625-3.605535.0068417-5.404881.0034209-.003421-9.311446-.003421-18.62631273 0-27.93775867 1.799346-.00342081 3.602114-.00684162 5.404881.00342082.051312 4.87465483-.095783 9.75273045.082099 14.62396445 1.1836-.6396915.12657-1.8506584.297611-2.8426934.041049-3.87235739-.037629-7.74813558.041049-11.62049297.04105 3.98182332.003421 7.96706745.013684 11.95231157.013683.5678545.143674 1.1151842.389972 1.6351474 1.019401-1.1870212 1.936179-2.4527211 2.931634-3.6568463 2.031962-2.57587028 4.053661-5.16200295 6.112989-7.71734833.078678-.03078729.236036-.08894107.318135-.11972836.424181-.8209945.988614-1.55304793 1.594098-2.24405163 1.973807.03762891 3.96814-.13683242 5.931685.0684162zm-132.57008673.07867864c-.04789134 4.68651027-.04447053 9.37644138 0 14.06637238 1.39911146-.865465 2.08669435-2.4493002 3.18135369-3.6294798.46523021-.5268048.90993557-1.0741345 1.33411604-1.63514739 2.0285406-2.43561701 3.8484117-5.04227455 5.9693142-7.40263373.4754926-.56785453.7046869-1.63514737 1.6214641-1.54962711 1.8746041-.04447054 3.7457874-.01368325 5.6203915.01368324-1.3751658 2.38430485-3.3831815 4.32390436-4.8814964 6.63295138-.2120903.24287754-.434443.47207184-.6670581.69442452-.6191666.76968234-1.2417541 1.53594387-1.8198711 2.33299269-.7149494.8209945-1.4059531 1.6659347-1.9601244 2.6066575-.0410497-.1368324-.0820994-.2736648-.12657-.4104972l.0718371.4823343c-.1402533.0068416-.4241805.0205248-.5644338.0273664 1.3238537 1.5496272 2.4800876 3.2360867 3.7423666 4.837026.434443.5712753.8996732 1.118605 1.3580618 1.6659346.2599816.4002348.5199632.7970489.7833656 1.1972837.6738996.7286326 1.2349125 1.5530479 1.8096087 2.3603592 1.0330847 1.1836004 1.8643416 2.5211372 2.8905848 3.7115793.523384.5541712.7799447 1.4709484 1.6214641 1.6009392-1.3614826.1938459-2.7336076.2022079-4.1062395.1892849l-1.3724253-.0139367c-.2286406-.0014781-.4572014-.0020271-.6856356-.0008868-.7559991.0684162-1.3101704-.5131216-1.8917081-.8928316.12657.0034209.3762891.0102625.4994383.0171041l-.0205249-.1231492c-.3762891-.3215562-.7423158-.6567956-1.0980801-1.0022974-.2428775-.4447054-.4994383-.8825691-.7662615-1.3135912-2.1380065-2.4527211-3.9920858-5.1346365-5.9487893-7.7310316-.69613496 1.0176911-1.45983089 1.9866357-2.23549965 2.9457454l-1.16553424 1.4361524c-.38687228.4795014-.76978925.9614081-1.14180238 1.450584-.11117634 1.0390712-.10743483 2.0848236-.08398357 3.130576l.03150887 1.2544753c.00479716.2089367.00885937.4177665.01142498.6264359-1.85065844.3660268-3.7457874.1539365-5.6169707.2052487-.00342081-9.3148668-.00684162-18.62973353 0-27.94460028 1.86776249.06157459 3.75262902-.15393646 5.60670826.1641989zm76.52352893-.14025322c-.0205249 1.68645953.1641989 3.40028554-.2805065 5.04569535-5.0320121-.04104972-10.0640242-.00342081-15.0926155-.02052486-.0136833 2.0695903-.0205249 4.1391806.0068416 6.20535011 4.4812616-.0205249 8.9659441.0239456 13.4472057-.0205249.0992035 1.6864595.1128868 3.3797607.0649954 5.069641-4.5975692.0513122-9.1951384-.0581537-13.7892868.0581538.0307873 2.1037984-.0068416 4.2075968.0273665 6.3113952.2120903.1607781.4241805.3181354.6362708.4789135 5.0354329.0444705 10.0742866-.0171041 15.1097196.0307873-.0068417 1.587256-.0034209 3.1710912-.0068417 4.7549264-7.0776567.0102625-14.1553134.0034209-21.2329702.0034209-.0034208-9.311446-.0034208-18.62631273 0-27.93775867 7.036607.01026244 14.073214-.03078729 21.1098211.02052487zm69.7503238 5.68880771c-1.132288.68074127-2.096956 1.58383522-2.938476 2.59297429-.331818.79362802-.622587 1.6077809-1.050189 2.3569384-.461809 1.6933011-.431022 3.4721225-.283927 5.2064734.383131 2.8666391 2.356939 5.3330434 4.908863 6.622689 1.888288.9030939 3.96814.9270396 6.017206.7662615l-.030788-.3283978c.663638-.0855203 1.337537-.2189319 1.881446-.6362707.584959-.2976105 1.156234-.6225875 1.696722-.9988767l.218932-.2185042c.082099-.0816719.164199-.1629161.218932-.2159387.236036-.2736648.472072-.5473297.711528-.8209945.697846-.9544061 1.299908-1.9909117 1.511999-3.1710912.12999-.109466.386551-.324977.516542-.434443-.198407-.0342081-.595221-.0992035-.793628-.1334116.164199-.0513121.492597-.1573572.656796-.2120902.017104-1.228071.030787-2.4595627-.003421-3.6876336-.198407-.0307873-.5918-.0923619-.790207-.1197284l.157357-.451547.116307-.2770856c.273665.2428775.441285.5918002.687583.865465-.396814-1.190442-.807311-2.3843048-1.382007-3.50290985-.362606-.55759209-.701266-1.12886743-1.029664-1.70356358-.017104.12314917-.030787.24629835-.04105.36602671-.478913-.87914827-1.388849-1.35122011-2.209843-1.85407924-.844941-.39681401-1.655673-.96466853-2.6135-1.01255988-2.086694-.12314918-4.330745-.24629835-6.133513 1.00229745z" fill="#54301a" transform="translate(.059226 .975598)"/></svg>