<?xml version="1.0" encoding="UTF-8"?>
<svg width="172px" height="22px" viewBox="0 0 172 22" version="1.1" xmlns="http://www.w3.org/2000/svg" xmlns:xlink="http://www.w3.org/1999/xlink">
    <title>nuface</title>
    <g id="partners" stroke="none" stroke-width="1" fill="none" fill-rule="evenodd">
        <g id="nuface" transform="translate(0.500000, 0.024755)" fill="#54301A" fill-rule="nonzero">
            <path d="M130.608375,8.34887715e-14 C133.361475,0.1083 136.026225,1.2939 137.949975,3.264675 C137.163375,4.17525 136.368225,5.0787 135.584475,5.992125 C134.89335,5.407875 134.196525,4.817925 133.4028,4.376175 C131.597325,3.33735 129.33015,3.0666 127.365075,3.8019 C125.700675,4.389 124.3398,5.701425 123.585975,7.2846 C122.497275,9.543225 122.540025,12.3063 123.68715,14.533575 C124.375425,15.864525 125.484075,16.99455 126.8478,17.6301 C128.941125,18.623325 131.5161,18.4338 133.494,17.2539 C134.321925,16.8036 134.988825,16.132425 135.729825,15.5667 C136.547775,16.331925 137.300175,17.166975 138.101025,17.953575 C136.65465,19.4826 134.87055,20.760825 132.8043,21.279525 C132.002025,21.496125 131.175525,21.612975 130.346175,21.66 L128.881275,21.66 C125.4855,21.48045 122.22225,19.5795 120.485175,16.64115 C117.9786,12.530025 118.490175,6.7773 121.84035,3.2775 C123.65295,1.318125 126.253575,0.1938 128.89695,8.34887715e-14 L130.608375,8.34887715e-14 Z M49.805175,5.906625 C49.8066,8.2137 49.810875,10.51935 49.802325,12.825 C49.731075,14.85705 49.235175,16.9575 47.969775,18.589125 C46.758525,20.196525 44.8419,21.174075 42.873975,21.464775 C41.7924,21.5859 40.70085,21.595875 39.613575,21.550275 C37.450425,21.456225 35.270175,20.538525 33.859425,18.86415 C32.491425,17.226825 31.935675,15.0651 31.863,12.97035 C31.86015,10.617675 31.861575,8.265 31.861575,5.91375 C33.09705,5.909475 34.3311,5.918025 35.566575,5.90805 C35.569425,7.975725 35.568,10.041975 35.566575,12.10965 C35.53095,13.544625 35.796,15.049425 36.61965,16.252125 C37.419075,17.45055 38.844075,18.1317 40.26195,18.20295 C41.739675,18.3198 43.369875,18.0462 44.4714,16.97745 C45.58575,15.96855 46.0161,14.421 46.094475,12.96465 C46.108725,10.614825 46.0959,8.263575 46.100175,5.912325 C47.33565,5.909475 48.5697,5.918025 49.805175,5.906625 Z M98.13405,0.19095 C99.27975,0.195225 100.42545,0.1881 101.57115,0.195225 C104.6406,7.23045 107.714325,14.265675 110.798025,21.296625 C109.4856,21.308025 108.173175,21.29805 106.86075,21.3009 C106.166775,19.6194 105.45285,17.94645 104.7546,16.266375 C101.46,16.226475 98.1597,16.2735 94.86225,16.260675 L92.7105,21.302325 L92.7105,21.302325 C91.4451,21.296625 90.181125,21.30945 88.91715,21.2952 C91.973775,14.254275 95.06175,7.226175 98.13405,0.19095 Z M14.613375,0.357675 C15.836025,0.360525 17.05725,0.35625 18.2799,0.360525 L18.2799,21.299475 L18.2799,21.299475 C17.232525,21.299475 16.186575,21.308025 15.1392,21.296625 C11.3202,16.337625 7.46985,11.401425 3.638025,6.4524 C3.626625,11.40285 3.6366,16.351875 3.63375,21.302325 C2.4225,21.3009 1.21125,21.3009 -1.77635684e-15,21.3009 L-1.77635684e-15,0.3591 L3.432825,0.3591 L3.432825,0.3591 C7.157775,5.165625 10.887,9.96645 14.607675,14.775825 C14.62335,9.970725 14.610525,5.1642 14.613375,0.357675 Z M78.783975,0.357675 C78.78255,1.486275 78.801075,2.614875 78.772575,3.743475 C74.813925,3.73065 70.855275,3.74205 66.89805,3.737775 C66.8952,5.621625 66.899475,7.50405 66.8952,9.386475 C68.583825,9.457725 70.273875,9.375075 71.9625,9.41925 C73.78935,9.35655 75.617625,9.483375 77.444475,9.3822 C77.453025,10.51365 77.441625,11.643675 77.44875,12.7737 C73.933275,12.769425 70.416375,12.77085 66.9009,12.772275 C66.89235,15.61515 66.896625,18.458025 66.89805,21.3009 C65.662575,21.305175 64.428525,21.29805 63.19305,21.302325 C63.188775,14.319825 63.1903519,7.33875 63.19305,0.357675 C68.390025,0.360525 73.587,0.3591 78.783975,0.357675 Z M163.9092,0.36195 C163.902075,1.454925 163.904925,2.549325 163.90635,3.643725 C159.963375,3.65655 156.0204,3.655125 152.077425,3.643725 C151.9449,5.4435 152.05605,7.254675 152.01615,9.0573 C155.525925,9.075825 159.0357,9.064425 162.545475,9.064425 C162.5583,10.16595 162.54975,11.2689 162.551175,12.37185 C161.659125,12.3747 160.7685,12.356175 159.8793,12.41745 C159.03,12.35475 158.17785,12.353325 157.329975,12.418875 C156.23415,12.359025 155.132625,12.3462 154.0368,12.41745 C153.362775,12.38325 152.68305,12.321975 152.0133,12.447375 C152.0589,14.3013 151.946325,16.163775 152.074575,18.01485 C156.067425,18.004875 160.0617,18.00345 164.05455,18.01485 C164.04885,19.10925 164.053125,20.205075 164.0517,21.299475 C158.80485,21.3009 153.558,21.305175 148.309725,21.296625 C148.314,14.3184 148.309725,7.3416 148.312575,0.363375 C153.510975,0.354825 158.7108,0.357838488 163.9092,0.36195 Z M99.771375,4.669725 C98.600025,7.422825 97.437225,10.18305 96.223125,12.91905 C97.015425,13.094325 97.819125,12.87915 98.617125,12.9675 C99.23415,13.025925 99.851175,12.886275 100.469625,12.97035 C101.410125,13.074375 102.3549,12.8421 103.291125,13.005975 C103.288275,12.732375 103.18995,12.475875 103.077375,12.2322 C101.960175,9.7185 100.91565,7.1706 99.771375,4.669725 Z M171,2.622 L171,3.1977 C170.821875,4.5087 169.48095,5.524725 168.1728,5.2611 C167.03565,5.08725 166.10085,4.008525 166.18065,2.845725 C166.12935,1.560375 167.307825,0.417525 168.5832,0.46455 C169.793025,0.408975 170.901675,1.42215 171,2.622 Z M168.063075,0.8094 C167.399025,0.984675 166.823325,1.49055 166.601025,2.144625 C166.1778,3.25185 166.83615,4.6512 168.01605,4.923375 C169.30425,5.3523 170.784825,4.202325 170.685075,2.8443 C170.753475,1.5105 169.334175,0.446025 168.063075,0.8094 Z M169.37265,1.668675 C169.716075,1.84395 169.738875,2.261475 169.7859,2.59635 C169.62915,2.825775 169.445325,3.0324 169.233,3.207675 C169.428225,3.4998 169.62915,3.789075 169.83435,4.0755 C169.5978,4.079775 169.36125,4.082625 169.128975,4.0869 C169.067152,4.01126538 169.012842,3.92159157 168.959285,3.82915661 L168.851171,3.64394683 C168.703018,3.40100281 168.528173,3.19189038 168.19845,3.230475 C168.1842,3.5112 168.182775,3.7905 168.18135,4.071225 C167.9847,4.076925 167.789475,4.082625 167.5971,4.08975 C167.5401,3.23475 167.572875,2.3769 167.56575,1.520475 C168.16425,1.56465 168.815475,1.3851 169.37265,1.668675 Z M49.9035,0.366225 C49.867875,1.3509 49.964775,2.341275 49.8351,3.321675 C43.87575,3.30885 37.9164,3.313125 31.95705,3.318825 C31.844475,2.338425 31.904325,1.346625 31.912875,0.360525 C37.909275,0.360525 43.9071,0.35055 49.9035,0.366225 Z M168.18135,2.0406 C168.179925,2.28285 168.179925,2.523675 168.1842,2.765925 C168.4293,2.7588 168.67725,2.7702 168.9252,2.737425 C169.2102,2.6334 169.08765,2.31705 169.08765,2.087625 C168.78555,2.0577 168.482025,2.0463 168.18135,2.0406 Z" id="Combined-Shape"></path>
        </g>
    </g>
</svg>