<?xml version="1.0" encoding="UTF-8"?>
<svg width="52px" height="34px" viewBox="0 0 52 34" version="1.1" xmlns="http://www.w3.org/2000/svg" xmlns:xlink="http://www.w3.org/1999/xlink">
    <title>obagi</title>
    <g id="Page-1" stroke="none" stroke-width="1" fill="none" fill-rule="evenodd">
        <g id="obagi" fill="#3F6769" fill-rule="nonzero">
            <path d="M48.4973939,0 C48.5087273,2.81633333 48.4989394,5.63215152 48.5020303,8.44848485 C48.5035758,16.7949697 48.4994545,25.1414545 48.5040909,33.4879394 C48.494303,33.6563939 48.4855455,33.8557576 48.3469697,33.9742424 C48.2022121,33.9943333 48.0569394,33.9711515 47.9137273,33.9577576 C47.8900303,33.6290909 47.8895152,33.2993939 47.8941515,32.969697 C47.8977576,21.9799697 47.8895152,10.9897273 47.8977576,0 L48.4973939,0 Z M0.660939394,0 C0.710909091,0.446121212 0.643939394,0.892757576 0.656818182,1.33939394 L0.657447811,32.7807317 C0.659565656,32.9466868 0.664717172,33.1125656 0.675878788,33.2782727 C0.689272727,33.4997879 0.67330303,33.7218182 0.65269697,33.9428182 C0.518757576,33.9536364 0.383787879,33.9629091 0.249333333,33.9587879 L0.0633636364,33.9443636 L0.0633636364,33.9443636 C0.0391515152,33.6373333 0.0355454545,33.3292727 0.0406969697,33.0212121 C0.0453333333,22.0144848 0.0365757576,11.0072424 0.0453333333,0 L0.660939394,0 Z M28.4889091,27.1062424 C28.6413939,27.1124242 28.8247879,27.0871818 28.9396667,27.2123636 C29.1225455,27.3674242 29.1240909,27.6342727 29.0730909,27.8496061 C29.0277576,27.9969394 28.9262727,28.1787879 28.7464848,28.1638485 C28.3673333,28.1762121 27.9871515,28.1442727 27.6085152,28.1767273 C27.6043939,29.3105758 27.6116061,30.4449394 27.6064545,31.5787879 C27.6002727,31.9182727 27.7069091,32.2876364 27.5039394,32.5931212 C27.2365758,32.5982727 26.9692121,32.5977576 26.7028788,32.5812727 C26.6039697,32.1500909 26.6647576,31.7065455 26.6508485,31.269697 C26.6405455,30.2383636 26.6699091,29.206 26.6364242,28.1751818 C26.2912727,28.1514848 25.9456061,28.1638485 25.6004545,28.1684848 C25.4866061,28.1741515 25.3779091,28.1427273 25.2728182,28.1051212 C25.2589091,27.8310606 25.2470606,27.5559697 25.2759091,27.2824242 L25.3258788,27.1247879 L25.3258788,27.1247879 C26.3793636,27.0897576 27.4343939,27.1268485 28.4889091,27.1062424 Z M5.2985074,27.2279259 L5.40960606,27.308697 L5.40960606,27.308697 L5.44978788,27.3174545 C5.62390909,27.2983939 5.82739394,27.3138485 5.88663636,27.5106364 C6.03139394,27.5703939 6.18181818,27.6471515 6.26578788,27.7852121 C6.25857576,27.9814848 6.07930303,28.1267576 5.89590909,28.1602424 C5.88869697,28.2194848 5.8809697,28.2792424 5.87324242,28.3400303 C5.74651515,28.3281818 5.61978788,28.3168485 5.49254545,28.3065455 L5.4569356,28.2190985 L5.4569356,28.2190985 L5.42093939,28.1324242 L5.42093939,28.1324242 L5.36272727,28.1396364 C5.06754545,28.1221212 4.79657576,27.9150303 4.49572727,27.9964242 C4.31078788,28.0505152 4.12378788,28.1195455 3.96460606,28.230303 C3.85075758,28.3936061 3.76421212,28.5862727 3.73330303,28.7840909 C3.81830303,28.9824242 3.961,29.1689091 4.14748485,29.2822424 C4.39218182,29.3471515 4.65645455,29.3136667 4.89290909,29.4187576 C5.15563636,29.5315758 5.4559697,29.4944848 5.71457576,29.6201818 C5.89539394,29.7000303 6.08548485,29.7968788 6.17924242,29.9818182 C6.30854545,30.2249697 6.49760606,30.4614242 6.48678788,30.7514545 C6.47906061,31.0219091 6.53984848,31.324303 6.37706061,31.5628182 C6.25754545,31.749303 6.18336364,31.9775152 5.99739394,32.1124848 C5.92355555,32.1660606 5.84857239,32.2189495 5.77000225,32.2656566 L5.64915152,32.3303939 L5.64915152,32.3303939 C5.48275758,32.4385758 5.30606061,32.5452121 5.10618182,32.5740606 C4.86457576,32.6080606 4.61936364,32.5905455 4.37672727,32.5931212 C4.15160606,32.5879697 3.91412121,32.6090909 3.7049697,32.5086364 C3.4499697,32.3891212 3.19909091,32.2598182 2.95593939,32.1181515 C2.84260606,32.0460303 2.71484848,31.9641212 2.67518182,31.8281212 C2.65406061,31.7096364 2.75090909,31.6261818 2.81478788,31.5411818 C2.84466667,31.6658485 2.77306061,31.8420303 2.88587879,31.9337273 C2.86372727,31.8533636 2.856,31.7693939 2.8549697,31.6874848 C2.94769697,31.5715758 3.06360606,31.477303 3.15066667,31.3572727 C3.23721212,31.3505758 3.32324242,31.3454242 3.40978788,31.3397576 L3.51339773,31.4679659 L3.51339773,31.4679659 L3.62512121,31.5896061 L3.62512121,31.5896061 C3.85384848,31.5571515 4.04806061,31.7189091 4.27421212,31.7137576 C4.53333333,31.7168485 4.79554545,31.7328182 5.05260606,31.6910909 C5.23342424,31.6596667 5.35087879,31.5118182 5.47451515,31.3912727 C5.49306061,31.2176667 5.56209091,31.048697 5.55178788,30.8735455 C5.48893939,30.6834545 5.36736364,30.4949091 5.18757576,30.3985758 C4.95163636,30.3367576 4.69715152,30.385697 4.46636364,30.2945152 C4.29327273,30.2270303 4.11245455,30.1811818 3.92751515,30.1616061 C3.71630303,30.1425455 3.54887879,30.0003636 3.37475758,29.8942424 C3.22124242,29.7881212 3.02033333,29.6552121 3.06824242,29.437303 L3.04918182,29.403303 C2.97706061,29.3445758 2.86012121,29.3074848 2.8549697,29.1998182 C2.81118182,28.9190606 2.81066667,28.6295455 2.85290909,28.3487879 C2.86269697,28.2256667 2.96469697,28.1473636 3.04609091,28.0685455 C3.128,27.7764545 3.38815152,27.5894545 3.61687879,27.4137879 C3.72506061,27.319 3.87342424,27.3148788 4.00890909,27.3045758 C4.11451515,27.2113333 4.2319697,27.1134545 4.38136364,27.1170606 C4.68607576,27.1030871 5.0282571,27.0686041 5.2985074,27.2279259 Z M44.6955758,29.3203636 C44.6713636,29.3255152 44.6234545,29.335303 44.5997576,29.3404545 C44.3900909,29.8252121 44.1685758,30.3063636 43.928,30.776697 C43.8720202,30.8910606 43.8199327,31.0077138 43.7789114,31.1281829 L43.7265758,31.3119394 L43.7265758,31.3119394 C43.7234848,31.3825152 43.7209091,31.4536061 43.7193636,31.5252121 C43.458697,31.5813636 43.1913333,31.5818788 42.9270606,31.5607576 C42.9203636,31.5334545 42.9069697,31.4788485 42.9002727,31.4515455 L42.897697,31.3953939 C42.829697,31.3227576 42.7622121,31.2475455 42.721,31.1563636 C42.5350303,30.7488788 42.3160909,30.3573636 42.1311515,29.9493636 C42.0806667,29.8396364 42.1007576,29.716 42.0971515,29.5995758 L41.8988182,29.5779394 L41.8988182,29.5779394 C41.9817576,30.3625152 41.915303,31.1522424 41.9446667,31.9388788 C41.9565152,32.1588485 41.9431212,32.4390909 41.7133636,32.5462424 C41.4681515,32.6173333 41.2085152,32.5637576 40.9602121,32.5400606 C40.8602727,32.1408182 40.8963333,31.7281818 40.8922121,31.3212121 C40.8906667,30.2053939 40.8947879,29.0890606 40.8901515,27.9727273 C40.8947879,27.7589394 40.8607879,27.5369091 40.9282727,27.3303333 C41.1235152,27.1469394 41.405303,27.1541515 41.6556667,27.1603333 L41.6931439,27.237928 L41.6931439,27.237928 L41.7313939,27.3159091 L41.7313939,27.3159091 C41.7865152,27.319 41.8421515,27.3226061 41.898303,27.3272424 C41.9910303,27.5528788 42.1038485,27.7728485 42.1527879,28.0144545 C42.3305152,28.1648788 42.3619394,28.407 42.4804242,28.5970909 C42.693697,28.9705758 42.8394848,29.3770303 43.033697,29.7597879 C43.1228182,29.9323636 43.1702121,30.1214242 43.2248182,30.3073939 C43.4303636,30.0369394 43.5246364,29.7072424 43.6843333,29.4115455 C43.7950909,29.195697 43.883697,28.9695455 43.9429394,28.7341212 L44.0974848,28.645 L44.0974848,28.645 L44.0230455,28.8788144 L44.0230455,28.8788144 L44.0974848,28.645 L44.0974848,28.645 L44.1294242,28.5615455 L44.1294242,28.5615455 C44.1222121,28.5218788 44.1077879,28.4425455 44.1005758,28.4028788 C44.2978788,28.0927576 44.3952424,27.733697 44.574,27.4137879 C44.648697,27.2839697 44.7604848,27.1515758 44.9196667,27.1340606 C45.101,27.1124242 45.2926364,27.1067576 45.4677879,27.1665152 C45.6207879,27.2298788 45.6259394,27.4158485 45.628,27.557 C45.6187273,28.8459091 45.6264545,30.1353333 45.6233636,31.4242424 C45.6171818,31.8126667 45.662,32.2077879 45.5646364,32.5895152 L45.3939281,32.5805 L45.3939281,32.5805 L45.2236061,32.5683939 L45.2236061,32.5683939 C45.0592727,32.5802424 44.8954545,32.5560303 44.7326667,32.5405758 C44.7249394,32.4808182 44.7177273,32.4210606 44.7110303,32.3623333 C44.7038182,31.3485152 44.7470909,30.3336667 44.6955758,29.3203636 Z M20.2011515,27.2386364 C20.519,27.3112727 20.8213939,27.4503636 21.069697,27.6646667 C21.1464545,27.7228788 21.1407879,27.8310606 21.124303,27.9165758 C21.0856667,28.0953333 20.9244242,28.2040303 20.8023333,28.3256061 C20.757,28.3204545 20.6663333,28.3101515 20.6215152,28.305 L20.7963996,28.1462952 C20.7405724,28.2016835 20.6823031,28.2546869 20.6215152,28.305 C20.6065758,28.3173636 20.5761818,28.3431212 20.5612424,28.3554848 C20.2588485,28.1684848 19.9147273,28.056697 19.5726667,27.9686061 C19.2711099,27.9735644 19.0030781,28.1406264 18.7754737,28.3320927 L18.6804242,28.4152424 L18.6804242,28.4152424 L18.6680606,28.451303 C18.7133939,28.6295455 18.7123636,28.8155152 18.6701212,28.9942727 C18.693303,29.0493939 18.7118485,29.1060606 18.7252424,29.1647879 C18.7963333,29.2137273 18.8540303,29.2786364 18.9184242,29.3363333 C19.0698788,29.3306667 19.2228788,29.3260303 19.3743333,29.3414848 C19.5690606,29.3610606 19.7354545,29.4857273 19.9312121,29.5037576 C20.1223333,29.5259091 20.3155152,29.5351818 20.5040606,29.5763939 L20.461303,29.5784545 C20.6493333,29.7103333 20.8904242,29.7809091 21.0207576,29.9823333 C21.1701515,30.2388788 21.3823939,30.5057273 21.2948182,30.8230606 C21.307697,30.8972424 21.307697,30.974 21.2984242,31.0497273 C21.3061515,31.1728485 21.3205758,31.2985455 21.2953333,31.4211515 C21.1456818,31.7749963 20.8899333,32.0905829 20.5501747,32.2716254 L20.3994848,32.340697 L20.3994848,32.340697 C20.2320606,32.4586667 20.0460909,32.5673636 19.8359091,32.572 C19.5422727,32.5843636 19.2481212,32.5838485 18.955,32.5704545 C18.7463636,32.565303 18.5619394,32.4586667 18.3955455,32.3432727 L18.3254848,32.3113333 L18.3254848,32.3113333 C18.2786061,32.3226667 18.1853636,32.3458485 18.139,32.357697 C18.0766667,32.272697 18.013303,32.1882121 17.952,32.1032121 C17.833,32.0300606 17.6655758,31.943 17.6784545,31.779697 C17.6655758,31.6292727 17.7892121,31.5257273 17.8860606,31.4309394 C17.9777576,31.3304848 18.128697,31.3083333 18.2554242,31.3423333 C18.5093939,31.392303 18.7159697,31.562303 18.9647879,31.6297879 C19.3068485,31.7472424 19.6921818,31.7338485 20.0187879,31.5746667 C20.2511212,31.4834848 20.4844848,31.2836061 20.4772727,31.0131515 C20.508697,30.7669091 20.2995455,30.5948485 20.1228485,30.4650303 C19.9801515,30.3547879 19.7916061,30.3743636 19.6231515,30.3532424 C19.3908182,30.3403636 19.1821818,30.2265152 18.955,30.1873636 C18.7927273,30.1538788 18.6155152,30.1507879 18.4753939,30.0513636 C18.2667576,29.9060909 18.0565758,29.7458788 17.9216061,29.5269394 C17.7732424,29.2219697 17.6130303,28.8886667 17.6933939,28.5404242 C17.8026061,28.1839394 17.9401515,27.8078788 18.2543939,27.5796667 C18.5006364,27.3298182 18.853,27.2705758 19.1703333,27.159303 C19.5103333,27.0552424 19.8750606,27.1134545 20.2011515,27.2386364 Z M14.0409697,27.1685758 C14.0461212,27.2741818 14.052303,27.3797879 14.0569394,27.4859091 L13.9214545,27.5652424 L13.9214545,27.5652424 C13.9132121,27.4833333 13.9080606,27.4014242 13.9003333,27.3200303 C13.6458485,27.3061212 13.3908485,27.3148788 13.1363636,27.3298182 L13.1156604,27.375 L13.1358485,27.3354848 C13.3707576,27.3354848 13.6247273,27.2834545 13.8477879,27.3653636 C13.9178485,27.4452121 13.8828182,27.5549394 13.8189394,27.6265455 C13.5675455,27.9402727 13.4011515,28.3101515 13.2636061,28.6851818 C13.2934848,28.8711515 13.1688182,29.0215758 13.0941212,29.1792121 C12.903,29.5506364 12.6758182,29.9071212 12.5228182,30.2960606 C12.4805758,30.6185455 12.5192121,30.9456667 12.5078788,31.2702121 C12.4929394,31.6910909 12.5475455,32.1176364 12.4630606,32.5343939 C12.212697,32.5426364 11.9628485,32.5591212 11.7135152,32.5781818 C11.6094545,32.4715455 11.4873636,32.3582121 11.4894242,32.1969697 C11.4657273,31.8368788 11.4966364,31.4757576 11.4806667,31.1156667 C11.4672727,30.8853939 11.5383636,30.6607879 11.536303,30.4320606 C11.475,30.0874242 11.2529697,29.8035758 11.0999697,29.4970606 C10.975303,29.2436061 10.8408485,28.995303 10.7239091,28.7387576 C10.6816667,28.6604545 10.6976364,28.5713333 10.7084545,28.4883939 C10.6919697,28.3956667 10.6749697,28.3008788 10.6213939,28.2215455 C10.5090909,28.0510303 10.4390303,27.8573333 10.3303333,27.6847576 C10.2556364,27.5801818 10.3009697,27.4436667 10.2700606,27.3267273 C10.455,27.3287879 10.6399394,27.3282727 10.8253939,27.3231212 C10.8980303,27.3282727 10.9711818,27.3344545 11.0448485,27.3416667 C11.3539394,27.686303 11.4935455,28.1380909 11.6712727,28.5563939 C11.7464848,28.7439091 11.8907273,28.9154545 11.8711515,29.1297576 C11.8783636,29.1565455 11.8908418,29.200963 11.9017172,29.2393513 L11.9159697,29.2894545 L11.9159697,29.2894545 C12.2029091,29.2879091 12.2652424,28.9535758 12.308,28.7310303 C12.3682727,28.7047576 12.4290606,28.6784848 12.4898485,28.6527273 C12.495,28.6352121 12.5047879,28.600697 12.5099394,28.5831818 C12.4275152,28.4203939 12.5367273,28.2627576 12.6006061,28.1174848 C12.7257879,27.8635152 12.8308788,27.5982121 12.9818182,27.3581515 C13.0446667,27.2685152 13.1116364,27.1608485 13.2275455,27.1376667 C13.4959394,27.0794545 13.7746364,27.1119091 14.0409697,27.1685758 Z M33.6898788,27.1067576 C34.6259091,27.1242727 35.5619394,27.0974848 36.4974545,27.1201515 L36.5156136,27.2168068 L36.5156136,27.2168068 L36.5345455,27.3138485 L36.5345455,27.3138485 C36.5438182,27.5209394 36.5427879,27.7280303 36.5479394,27.9351212 C36.4928182,27.999 36.4644848,28.1143939 36.3614545,28.1071818 C35.615,28.1422121 34.8654545,28.0824545 34.1195152,28.1355152 C34.1133333,28.3992727 34.1238653,28.6632592 34.12211,28.9270168 L34.1066364,29.3224242 L34.1066364,29.3224242 C34.7237879,29.3430303 35.3414545,29.3224242 35.9586061,29.3322121 C36.1610606,29.3270606 36.3022121,29.5351818 36.3058182,29.7221818 C36.329,29.9380303 36.2893333,30.1966364 36.0884242,30.3202727 C35.9452121,30.3599394 35.7942727,30.3501515 35.6479697,30.3527273 L34.8822614,30.3489281 L34.8822614,30.3489281 L34.1169394,30.3486061 L34.1169394,30.3486061 C34.1150076,30.6909243 34.1017746,31.0346913 34.1174465,31.3768646 L34.1442424,31.7183939 L34.1442424,31.7183939 C34.9427273,31.6998485 35.7422424,31.7039697 36.5407273,31.7142727 C36.5463939,31.9316667 36.5484545,32.1500909 36.5355758,32.368 C36.522697,32.4241515 36.5108485,32.4808182 36.5000303,32.538 C36.2852121,32.5591212 36.0698788,32.5725152 35.8545455,32.5683939 C35.0127879,32.5591212 34.1710303,32.5761212 33.3292727,32.5606667 C33.2602424,32.555 33.1912121,32.5498485 33.1232121,32.5452121 C33.0984848,32.4138485 33.0768485,32.2814545 33.0732424,32.1480303 C33.0763333,30.6175152 33.0783939,29.0875152 33.0722121,27.5575152 C33.0773636,27.4467576 33.075303,27.3174545 33.167,27.2386364 C33.2999091,27.0943939 33.5111212,27.1093333 33.6898788,27.1067576 Z M11.0355758,27.2968485 C10.7805758,27.3195152 10.5250606,27.3226061 10.2700606,27.3267273 C10.251,27.4555152 10.2556364,27.5863636 10.2504848,27.7161818 C10.1732121,27.6327273 10.0866667,27.5539091 10.0341212,27.4519091 C10.0433939,27.3478485 10.0722424,27.2479091 10.0969697,27.1474545 C10.4148182,27.1165455 10.7738788,27.0691515 11.0355758,27.2968485 Z M20.7734848,0 C20.7863636,8.60406061 20.7709091,17.2086364 20.7812121,25.812697 C20.7729697,25.918303 20.7755455,26.033697 20.7193939,26.1279697 C20.5267273,26.2227576 20.3093333,26.1382727 20.1115152,26.105303 C20.100697,25.9208788 20.0888485,25.7364545 20.0883333,25.5515152 C20.1012121,24.3836667 20.0909091,23.2163333 20.0945152,22.0484848 L20.094,0 L20.094,0 L20.7734848,0 Z M30.9044545,0 C30.9054848,8.34545455 30.9044545,16.6909091 30.9049697,25.0363636 C30.912697,25.3902727 30.9147576,25.7441818 30.8895152,26.0975758 C30.8220303,26.1063333 30.7545455,26.1145758 30.6880909,26.1228182 C30.5505455,26.1377576 30.4124848,26.1403333 30.2754545,26.1429091 C30.2610303,17.4286061 30.2790606,8.71430303 30.2661818,0 L30.9044545,0 Z M10.6868182,0 L10.6892007,7.70151517 L10.6892007,7.70151517 L10.6888788,15.4030303 C10.6847576,18.9647879 10.6976364,22.5275758 10.682697,26.0893333 C10.5533939,26.0991212 10.4246061,26.1083939 10.295303,26.112 C10.2190606,26.1123295 10.1428182,26.1123295 10.0670909,26.1114848 C10.0624545,17.408 10.0732727,8.704 10.0614242,0 L10.6868182,0 Z M40.7685758,0 C40.7696061,8.69884848 40.7706364,17.3982121 40.7680606,26.0970606 C40.6191818,26.0996364 40.4697879,26.1001515 40.3214242,26.1006667 C40.2982424,25.2310909 40.3178182,24.361 40.3116364,23.4909091 C40.3126667,15.6606061 40.3090606,7.83030303 40.3131818,0 L40.7685758,0 Z M5.6259697,6.88809091 C5.80435931,6.98876623 6.0202183,7.03796846 6.1570834,7.19238775 L6.21839394,7.27909091 L6.21839394,7.27909091 C6.32606061,7.37078788 6.43012121,7.47124242 6.5099697,7.58921212 C6.7670303,7.69533333 6.9179697,7.95548485 7.06375758,8.17957576 C7.23590404,8.55134343 7.46350084,8.90415067 7.60046914,9.29106285 L7.67060606,9.52772727 L7.67060606,9.52772727 L7.67472727,9.58027273 C7.89057576,9.86824242 7.9039697,10.2345152 8.02451515,10.5616364 L8.05680485,10.6962888 L8.05680485,10.6962888 L8.10147879,10.9703411 C8.11845818,11.0610655 8.14186667,11.1500424 8.18472727,11.2339091 C8.30424242,11.4549091 8.27178788,11.7119697 8.28518182,11.9530606 C8.2800303,12.3409697 8.48866667,12.6938485 8.47681818,13.0822727 C8.4840303,13.7880303 8.4840303,14.494303 8.47733333,15.2000606 C8.48145455,15.4169394 8.41345455,15.6240303 8.35369697,15.8295758 C8.26663636,16.1242424 8.29651515,16.4343636 8.262,16.7362424 C8.245,16.8768788 8.14763636,16.9871212 8.06984848,17.0994242 L8.06418182,17.1437273 C8.14506061,17.4492121 7.97093939,17.7253333 7.91221212,18.0158788 C7.85966667,18.2523333 7.735,18.4625152 7.65309091,18.6886667 C7.55692929,18.9123283 7.48437879,19.156739 7.33556916,19.3512445 L7.23633333,19.4613939 L7.23633333,19.4613939 C7.02821212,19.9337879 6.64287879,20.3000606 6.25857576,20.6323333 C6.16662122,20.704197 6.0795928,20.7902595 5.97793087,20.8492282 L5.87066667,20.8976364 L5.87066667,20.8976364 C5.68469697,20.9635758 5.49872727,21.0295152 5.31687879,21.1062727 C5.15409091,21.046 4.99336364,20.9790303 4.83675758,20.9048485 C4.65439394,20.8579697 4.51169697,20.7219697 4.3509697,20.6302727 C4.00787879,20.4278182 3.79718182,20.0795758 3.58287879,19.7560606 C3.36290909,19.4088485 3.15993939,19.0487576 3.01672727,18.6629091 C2.96366667,18.5212424 2.86115152,18.3970909 2.84157576,18.2440909 C2.7359697,18.0864545 2.66487879,17.9082121 2.64324242,17.7186364 C2.61078788,17.4177879 2.41709091,17.1566061 2.43357576,16.847 C2.44130303,16.5013333 2.22493939,16.1999697 2.23369697,15.8537879 C2.21154545,14.8100909 2.21515152,13.7658788 2.2280303,12.7216667 C2.2259697,12.4836667 2.24863636,12.2425758 2.34033333,12.0210606 C2.41451515,11.8392121 2.4320303,11.6429394 2.44284848,11.4487273 C2.448,11.1911515 2.62263636,10.9778788 2.64324242,10.7228788 C2.65818182,10.5302121 2.73030303,10.3488788 2.85393939,10.2005152 C2.86372727,10.1464242 2.8740303,10.0923333 2.88536364,10.0387576 C2.86939394,9.96972727 2.92090909,9.91151515 2.94306061,9.85021212 C3.07133333,9.59109091 3.17075758,9.3170303 3.3309697,9.07439394 C3.37681818,8.99042424 3.43245455,8.91263636 3.48293939,8.83124242 C3.42266667,8.44178788 3.84354545,8.21563636 3.89557576,7.84730303 C3.95378788,7.837 4.01251515,7.82669697 4.07072727,7.81690909 C4.08360606,7.76127273 4.09442424,7.70512121 4.10369697,7.6489697 C4.1469697,7.62836364 4.18972727,7.60724242 4.233,7.58663636 C4.41484848,7.25951515 4.71981818,7.01172727 5.05260606,6.84945455 C5.23806061,6.80618182 5.45442424,6.79072727 5.6259697,6.88809091 Z M35.8591818,6.99575758 C36.0518485,7.01069697 36.1723939,7.17142424 36.3135455,7.28166667 L36.2749091,7.28166667 L36.2749091,7.28166667 C36.4500606,7.44239394 36.6313939,7.60106061 36.7612121,7.803 L36.7616604,7.803 L36.8922618,7.80906913 C37.0236496,7.81549243 37.1556894,7.81974243 37.2851212,7.79269697 C37.2758485,7.52945455 37.2892424,7.26569697 37.3155152,7.004 C37.4504848,7.00812121 37.5854545,7.02254545 37.7199091,7.04109091 C37.7348485,7.35533333 37.7266061,7.67060606 37.7183636,7.98536364 C37.7111515,9.53751515 37.7204242,11.0896667 37.7260909,12.6418182 C37.5864848,12.6732424 37.4432727,12.6732424 37.3026364,12.6902424 C37.2815152,12.4105152 37.2804848,12.1297576 37.2815152,11.849 C37.2846061,11.7830606 37.287697,11.7171212 37.2918182,11.6511818 C37.2073333,11.4873636 37.1377879,11.3127273 37.1249091,11.1272727 C37.104303,10.8614545 37.0605152,10.591 37.121303,10.3272424 L37.1135758,10.2700606 C36.8750606,10.0521515 36.8415758,9.6910303 36.9255455,9.39481818 L36.9090606,9.33763636 C36.8420909,9.27221212 36.7632727,9.21348485 36.7215455,9.1279697 C36.6726061,8.98733333 36.6932121,8.83536364 36.6993939,8.69009091 L36.6746667,8.61075758 L36.6746667,8.61075758 C36.4953939,8.43406061 36.4814848,8.16772727 36.3516667,7.96166667 C36.1821818,7.60054545 35.8318788,7.29712121 35.4243939,7.26827273 C35.2961212,7.42281818 35.132303,7.54130303 35.0004242,7.69121212 C34.8149697,8.05336364 34.7768485,8.46806061 34.6506364,8.85030303 C34.4553939,9.25160606 34.6006667,9.71730303 34.4358182,10.1273636 C34.3143283,10.4231464 34.3438064,10.7414672 34.3328594,11.0540044 L34.3199091,11.2406061 L34.3199091,11.2406061 C34.3219697,11.3348788 34.316303,11.4296667 34.3044545,11.5234242 C34.3729697,12.4893333 34.2642727,13.4578182 34.312697,14.4247576 C34.3137273,15.1681212 34.357,15.9161212 34.2864242,16.6574242 C34.2977576,16.8021818 34.3023939,16.9474545 34.3049697,17.0932424 C34.3698788,17.4028485 34.3250606,17.7196667 34.3430909,18.0328788 C34.3469546,18.1256061 34.3676894,18.2149848 34.3942197,18.3030757 L34.4801212,18.5655455 L34.4801212,18.5655455 C34.5640909,18.8267273 34.5105152,19.1131515 34.6192121,19.3686667 C34.7103939,19.5845152 34.7856061,19.8070606 34.8829697,20.0208485 C34.9746667,20.2341212 35.1637273,20.3778485 35.3084848,20.5524848 C35.4594242,20.563303 35.5959394,20.6395455 35.7448182,20.6560303 C36.1744545,20.4927273 36.363,20.0347576 36.5371212,19.6447879 C36.5026061,19.4361515 36.4866364,19.1873333 36.679303,19.0487576 C36.6999091,17.7268788 36.6957879,16.4039697 36.6849697,15.0815758 C36.4320303,15.0712727 36.1790909,15.0676667 35.9261515,15.0676667 C35.8674242,14.9352727 35.8246667,14.7941212 35.8437273,14.6478182 C36.3619697,14.630303 36.8812424,14.6467879 37.4,14.6447273 C37.9146364,14.647303 38.4297879,14.630303 38.9444242,14.6478182 C38.9330909,14.7822727 38.919697,14.9172424 38.9047576,15.051697 C38.6585152,15.0666364 38.4112424,15.0692121 38.165,15.0614848 C38.1469697,15.191303 38.1346061,15.3216364 38.1346061,15.453 C38.1433636,16.8614242 38.1330606,18.2703636 38.1402727,19.6787879 C38.1397576,19.822 38.1284242,19.9652121 38.1109091,20.1079091 C38.1469697,20.2990303 38.1366667,20.4942727 38.1340909,20.6879697 C38.1263636,20.7595758 38.1186364,20.831697 38.1119394,20.9043333 C37.9841818,20.9002121 37.8564242,20.8955758 37.7291818,20.8904242 C37.6179091,20.5262121 37.7142424,20.134697 37.6096667,19.7740909 C37.4493973,19.6147374 37.2398769,19.7305384 37.0758991,19.8313243 L37.0167273,19.8678485 L37.0167273,19.8678485 C36.9595455,19.9384242 36.9116364,20.0151818 36.862697,20.0909091 L36.7431818,20.1120303 L36.7431818,20.1120303 C36.7220606,20.1707576 36.703,20.23 36.6870303,20.2902727 L36.6643636,20.2799697 L36.6643636,20.2799697 C36.5901818,20.417 36.5232121,20.5756667 36.3727879,20.644697 C36.1852727,20.7420606 36.0286667,20.9115455 35.8071515,20.927 C35.5397879,20.9553333 35.2456364,20.9362727 35.0174242,20.7801818 C34.839697,20.6756061 34.6712424,20.5566061 34.4991818,20.4437879 L34.4950606,20.3232424 L34.4950606,20.3232424 C34.4492121,20.3057273 34.4038788,20.2892424 34.3585455,20.2732727 C34.2725152,20.2016667 34.1715455,20.1377879 34.1205455,20.0347576 C33.6136364,19.4928182 33.4101515,18.7602727 33.1257879,18.0936667 C33.0624242,17.9566364 33.0794242,17.8036364 33.092303,17.6588788 C33.088697,17.6377576 33.0809697,17.595 33.0768485,17.5738788 C32.8584242,17.4394242 32.9011818,17.1669091 32.8821212,16.9479697 C32.8816061,16.66 32.7038788,16.4122121 32.691,16.126303 C32.6662727,15.7136667 32.6817273,15.3 32.6606061,14.8873636 C32.6111515,14.1532727 32.6801818,13.419697 32.6801818,12.6856061 C32.6688485,12.3569394 32.8646061,12.07 32.878,11.7454545 C32.8970606,11.5095152 32.8640909,11.2282424 33.0768485,11.0664848 C33.1108485,10.8300303 33.0253333,10.5348485 33.2576667,10.3777273 C33.279303,10.1582727 33.3241212,9.94139394 33.4348788,9.74821212 C33.5255455,9.44684848 33.6435152,9.15527273 33.7609697,8.86318182 C33.9139697,8.58963636 34.0504848,8.30630303 34.1519697,8.00906061 C34.1763536,8.01352526 34.2169933,8.02073737 34.2520618,8.02703367 L34.2977576,8.03533333 C34.3034242,7.97506061 34.3142424,7.91581818 34.3317576,7.85760606 C34.5094848,7.57633333 34.7449091,7.33266667 35.0220606,7.14721212 C35.2523333,6.95454545 35.5773939,6.96072727 35.8591818,6.99575758 Z M45.4878788,7.19872727 C45.6769394,7.19306061 45.8649697,7.21572727 46.0493939,7.2579697 C45.9973636,7.37233333 45.9721212,7.52533333 45.8443636,7.5809697 C45.6585228,7.61767424 45.4680455,7.61612879 45.279669,7.60067424 L45.0922424,7.58148485 L45.0922424,7.58148485 C45.1169697,7.71490909 45.1391212,7.84987879 45.1411818,7.98639394 C45.1380909,10.767697 45.1406667,13.549 45.1396364,16.330303 C45.1478788,17.6578485 45.1236667,18.9859091 45.152,20.3129394 C45.3951515,20.3124242 45.638303,20.3134545 45.8819697,20.3088182 L45.8999356,20.4845493 L45.8999356,20.4845493 L45.9144242,20.6606667 L45.9144242,20.6606667 L45.9602727,20.6580909 C45.9489394,20.5231212 45.9345152,20.3891818 45.9200909,20.2547273 C45.9793333,20.2907879 46.0442424,20.321697 46.0962727,20.3706364 C46.121,20.4654242 46.1194545,20.5638182 46.1261515,20.6611818 C45.7315455,20.7621515 45.3230303,20.7183636 44.9212121,20.7152727 C44.4060606,20.7080606 43.8909091,20.7116667 43.3762727,20.7271212 C43.1624848,20.7348485 42.9502424,20.7101212 42.7421212,20.665303 C42.7426364,20.5452727 42.744697,20.4257576 42.7467576,20.3062424 C42.7931212,20.3016061 42.8863636,20.2918182 42.9327273,20.2866667 C42.9301515,20.3629091 42.9280909,20.4391515 42.9255152,20.5159091 C42.9517879,20.4504848 42.9775455,20.3850606 43.0110303,20.3227273 C43.2516061,20.2964545 43.4957879,20.3067576 43.7373939,20.3278788 C43.6987576,19.5633939 43.730697,18.7958182 43.7203939,18.030303 L43.7198788,7.63145455 L43.7198788,7.63145455 C43.475697,7.633 43.2237879,7.66442424 42.9852727,7.59848485 C42.8384545,7.54645455 42.7714848,7.39809091 42.7215152,7.26312121 C42.9511697,7.2056303 43.1858315,7.19691394 43.4210497,7.19969576 L43.8909091,7.20954545 L43.8909091,7.20954545 C44.4230606,7.22087879 44.9557273,7.20851515 45.4878788,7.19872727 Z M25.9038788,6.84275758 L25.9087727,7.05635227 L25.9087727,7.05635227 L25.9121212,7.27033333 L25.9121212,7.27033333 C25.9213939,7.36924242 25.9177879,7.46918182 25.9167576,7.56912121 C26.033329,7.81109524 26.1438448,8.06896537 26.1204872,8.33916309 L26.0970606,8.47527273 L26.1032424,9.01721212 L26.1032424,9.01721212 C26.1454848,9.02081818 26.2304848,9.0280303 26.2727273,9.03163636 C26.2938485,9.20678788 26.3026061,9.384 26.2742727,9.55863636 C26.3221818,9.64363636 26.2974545,9.74460606 26.2876667,9.83578788 C26.2938485,9.90636364 26.2979697,9.97693939 26.3031212,10.0475152 C26.3453636,10.0516364 26.4298485,10.0598788 26.4720909,10.064 C26.4854848,10.193303 26.5040303,10.3241515 26.4844545,10.4539697 C26.52,10.7115455 26.5066061,10.971697 26.5220606,11.230303 C26.5823333,11.2483333 26.6426061,11.2663636 26.7033939,11.2843939 C26.707,11.4312121 26.7033939,11.5785455 26.6786667,11.7238182 C26.7327576,11.8263333 26.7095758,11.9453333 26.6997879,12.0550606 C26.8378485,12.433697 26.9223333,12.8334545 26.904303,13.2383636 C26.9594242,13.2630909 27.0150606,13.2878182 27.0712121,13.3125455 C27.1103636,13.5654848 27.132,13.8230606 27.1005758,14.0780606 C27.1077879,14.1403939 27.1113939,14.2032424 27.1103636,14.2660909 C27.3035455,14.5035758 27.3622727,14.8116364 27.3045758,15.1093939 C27.3061212,15.1433939 27.3102424,15.2103636 27.312303,15.2438485 C27.3984069,15.4920043 27.5216018,15.7397817 27.5242241,16.0050231 L27.5147576,16.1391818 L27.5147576,16.1391818 C27.5302121,16.2540606 27.523,16.3699697 27.5235152,16.4858788 C27.5791515,16.4915455 27.635303,16.4972121 27.6919697,16.5033939 C27.716697,16.7589091 27.7362727,17.0175152 27.703303,17.2740606 C27.7177273,17.333303 27.7233939,17.3935758 27.7208182,17.4553939 C27.8403333,17.6233333 27.9181212,17.8196061 27.9088485,18.0287576 C27.9098788,18.2688182 27.9361515,18.5119697 28.0391818,18.7319394 C28.1767273,19.0539091 28.0623636,19.4248182 28.2184545,19.7421515 C28.2818182,19.8731288 28.313017,20.0145379 28.3227003,20.1583376 L28.3256061,20.3026364 L28.3256061,20.3026364 L28.3668182,20.308303 L28.3668182,20.308303 C28.6748788,20.2567879 28.9891212,20.2670909 29.2966667,20.3160303 C29.3007879,20.4319394 29.3054242,20.5478485 29.3100606,20.6637576 C28.9530606,20.7250606 28.5903939,20.7003333 28.230303,20.7003333 C27.3818485,20.6853939 26.5339091,20.7080606 25.6854545,20.7044545 C25.6251818,20.6843636 25.5654242,20.6647879 25.5056667,20.6452121 C25.510303,20.5344545 25.5159697,20.423697 25.5216364,20.3129394 C25.67,20.2731697 25.8206716,20.2597758 25.9722332,20.2556134 L26.4281711,20.2536764 C26.5041333,20.2522545 26.5799636,20.2488545 26.6554848,20.2413333 C26.5318485,19.9312121 26.4123333,19.6035758 26.4952727,19.2656364 C26.5045455,19.2434848 26.5230909,19.1991818 26.5328788,19.1765152 L26.5112424,19.114697 L26.5112424,19.114697 C26.5102121,19.0992424 26.5071212,19.0678182 26.5060909,19.0518485 C26.2938485,18.7932424 26.2675758,18.4542727 26.2634545,18.1338485 C26.2670606,17.8448485 26.0810909,17.5980909 26.0718182,17.3111515 C26.0584242,17.085 26.0532727,16.853697 25.9687879,16.6399091 C25.9100606,16.4987576 25.8992424,16.3452424 25.9399394,16.1973939 C25.9007879,16.1020909 25.8837879,16.0000909 25.8611212,15.9011818 C25.1527879,15.8821212 24.4439394,15.8867576 23.7356061,15.8986061 C23.7232424,16.0248182 23.7237576,16.1525758 23.6964545,16.2767273 C23.7551818,16.5703636 23.5372727,16.8140303 23.5326364,17.0999394 C23.5073939,17.3966667 23.5692121,17.7109091 23.4424848,17.9916667 C23.2121548,18.4175253 23.4149083,18.9447351 23.2218445,19.3743022 L23.1292727,19.5304242 L23.1292727,19.5304242 C23.1179394,19.7746061 23.1220606,20.0187879 23.1169091,20.2634848 C23.3729394,20.2753333 23.6294848,20.2748182 23.8860303,20.2722424 L23.9079242,20.3627159 L23.9079242,20.3627159 L23.9298182,20.4535758 L23.9298182,20.4535758 C23.929303,20.5195152 23.9287879,20.5859697 23.9298182,20.6524242 C23.704697,20.7250606 23.4656667,20.7054848 23.2333333,20.7023939 C22.7150909,20.6900303 22.1963333,20.7132121 21.6780909,20.6936364 C21.6796364,20.5643333 21.6827273,20.4345152 21.6878788,20.3052121 C21.8976743,20.2773939 22.1100777,20.2687008 22.3211771,20.2845658 L22.531697,20.3088182 L22.531697,20.3088182 C22.5672424,20.3072727 22.6383333,20.304697 22.6743939,20.3031515 C22.684697,20.0821515 22.6584242,19.8606364 22.6831515,19.6406667 C22.6584242,19.4201818 22.6599697,19.1914545 22.7501212,18.9848788 C22.8552121,18.7479091 22.8505758,18.4872424 22.8603636,18.234303 C22.8686061,17.9097576 23.0262424,17.6181818 23.0885758,17.3044545 L23.0906364,17.2148182 L23.0906364,17.2148182 C23.0695152,16.9943333 23.0592121,16.7635455 23.154,16.5574848 C23.2678485,16.3210303 23.2395152,16.0541818 23.2791818,15.8022727 C23.2889697,15.827 23.3085455,15.8769697 23.3183333,15.901697 L23.421707,15.6793041 C23.4369899,15.6414882 23.4496969,15.6027374 23.4574242,15.5622121 C23.4857576,15.344303 23.4563939,15.1222727 23.4909091,14.9048788 C23.4321818,14.6071212 23.4831818,14.2918485 23.6856364,14.0579697 C23.6856364,13.929697 23.6634848,13.7962727 23.7036667,13.6726364 C23.6490606,13.3929091 23.6619394,13.0714545 23.8911818,12.8710606 C23.8839697,12.6758182 23.8927273,12.4805758 23.8860303,12.2853333 C23.8886061,12.1488182 23.874697,12.0071515 23.9179697,11.8747576 C23.895303,11.7346364 23.9220909,11.5955455 23.9864848,11.4698485 C24.1188788,11.1942424 24.0354242,10.8810303 24.0874545,10.5899697 C24.1353636,10.3246667 24.2244848,10.0691515 24.2878485,9.80745455 C24.2734242,9.66527273 24.2559091,9.52051515 24.2816667,9.37884848 C24.3120606,9.2129697 24.4083939,9.06872727 24.4475455,8.90542424 C24.5109091,8.59169697 24.4295152,8.25736364 24.5495455,7.95342424 C24.6123939,7.78806061 24.6731818,7.62218182 24.7216061,7.45166667 C24.7957879,7.44548485 24.8704848,7.43930303 24.9462121,7.43363636 C24.996697,7.38160606 25.0543939,7.33678788 25.1151818,7.29660606 C25.2419091,7.14566667 25.3722424,6.99215152 25.5376061,6.88190909 C25.6432121,6.80309091 25.782303,6.84739394 25.9038788,6.84275758 Z M13.0338485,7.19409091 C13.9946061,7.21109091 14.9558788,7.19357576 15.9171515,7.19666667 C16.0768485,7.20078788 16.2432424,7.19975758 16.3931515,7.26363636 C16.7310909,7.41972727 17.0463636,7.62939394 17.2987879,7.90551515 C17.290202,7.93676768 17.2754343,7.98885522 17.2627273,8.03399776 L17.2462424,8.0930303 L17.2462424,8.0930303 C17.3157879,8.16978788 17.3904848,8.24139394 17.4703333,8.30836364 C17.4806364,8.39284848 17.4888788,8.47733333 17.4976364,8.56233333 L17.6851515,8.66072727 L17.6851515,8.66072727 C17.6851515,8.72357576 17.6856667,8.78642424 17.686697,8.84927273 C17.8154848,8.97960606 17.9411818,9.14754545 17.8288788,9.33351515 L17.8551515,9.42366667 L17.8551515,9.42366667 C17.952,9.76315152 18.0916061,10.098 18.0905758,10.4570606 C18.0936667,10.733697 18.1122121,11.0190909 18.0241212,11.2864545 L17.9363523,11.5723636 L17.9363523,11.5723636 L17.8597879,11.8613636 L17.8597879,11.8613636 L17.8561818,11.9030909 C17.9355152,11.9479091 17.8618485,12.0983333 17.7783939,12.0550606 C17.7598485,12.1338788 17.7407879,12.212697 17.7088485,12.2873939 C17.7340909,12.4568788 17.673303,12.6119394 17.5130909,12.6856061 C17.4358182,12.8751818 17.2905455,13.028697 17.125697,13.1466667 C17.0546061,13.2337273 16.9778485,13.3156364 16.9000606,13.3965152 C17.057697,13.5824848 17.2797273,13.6937576 17.4476667,13.8689091 C17.7763333,14.1836667 17.9787879,14.5993939 18.183303,14.9991515 C18.3146667,15.2392121 18.3265152,15.5189394 18.4259394,15.7708485 C18.4641894,15.8608712 18.4763599,15.9572689 18.4759252,16.0541738 L18.4717879,16.1510303 L18.4717879,16.1510303 C18.5261879,16.3447273 18.5143188,16.5469964 18.5110877,16.7472873 L18.5114545,16.8969697 C18.5016667,17.1648485 18.5408182,17.4383939 18.4774545,17.7011212 C18.5001212,17.8618485 18.4929091,18.0272121 18.4259394,18.1771212 C18.332697,18.3934848 18.3337273,18.6366364 18.2379091,18.8519697 C18.0483333,19.2470909 17.8876061,19.6767273 17.5517273,19.9760303 C17.3631818,20.1411732 17.2060501,20.3646018 16.9768452,20.4721077 L16.8557576,20.5153939 L16.8557576,20.5153939 C16.6084848,20.5602121 16.381303,20.6910606 16.1268182,20.6941515 C15.3705758,20.7054848 14.6138182,20.6848788 13.8575758,20.6879697 C13.4001212,20.6859091 12.9416364,20.7142424 12.484697,20.6802424 C12.4919091,20.5555758 12.4996364,20.4309091 12.5089091,20.3067576 C12.6982272,20.2831894 12.8898636,20.2767178 13.0799062,20.2925587 L13.2692727,20.3160303 L13.2692727,20.3160303 C13.2965758,20.1573636 13.3048182,19.9961212 13.2950303,19.8353939 C13.2728788,19.4742727 13.2857576,19.1126364 13.283697,18.7515152 L13.2834394,14.6818182 L13.2834394,14.6818182 L13.2831818,10.6121212 C13.2898788,9.62869697 13.2661818,8.64527273 13.3017273,7.66287879 C13.0498182,7.63145455 12.7963636,7.61754545 12.5429091,7.60724242 C12.5331212,7.56860606 12.5130303,7.49030303 12.5032424,7.45166667 C12.4996364,7.38212121 12.4965455,7.31309091 12.4939697,7.24406061 C12.671697,7.21006061 12.8525152,7.1899697 13.0338485,7.19409091 Z M5.25248485,7.24457576 C5.01669264,7.24060173 4.83956463,7.40126592 4.66108491,7.53743714 L4.57145455,7.60260606 L4.57145455,7.60260606 L4.49675758,7.66854545 L4.49675758,7.66854545 C4.40875253,8.01026263 4.33291078,8.3641431 4.18247938,8.68517074 L4.08257576,8.87348485 L4.08257576,8.87348485 C4.08154545,8.90645455 4.07948485,8.97290909 4.07793939,9.00639394 C4.10266667,9.33609091 3.98624242,9.64569697 3.87754545,9.94963636 C3.8770303,9.98415152 3.87548485,10.0531818 3.8749697,10.0871818 C3.876,10.2922121 3.88012121,10.4972424 3.87290909,10.7022727 C3.8749697,10.9943636 3.88115152,11.2869697 3.86157576,11.5785455 C3.87909091,11.9607879 3.88939394,12.3425152 3.87239394,12.7247576 C3.83890909,13.8761212 3.90536364,15.0274848 3.86518182,16.1783333 L3.86724242,16.2231515 L3.86724242,16.2231515 C3.90948485,16.6187879 3.89763636,17.0164848 3.90021212,17.4136667 C3.89712121,17.7541818 4.07587879,18.060697 4.09287879,18.3981212 C4.10575758,18.6273636 4.11915152,18.8612424 4.21187879,19.0750303 C4.26790152,19.199053 4.29842424,19.3311894 4.30475095,19.4660062 L4.30306061,19.6015152 C4.45657576,19.8678485 4.59463636,20.1563333 4.83984848,20.3526061 C5.049,20.5339394 5.35036364,20.5488788 5.61154545,20.5081818 C5.94072727,20.4468788 6.14060606,20.1362424 6.26475758,19.8508485 C6.42806061,19.5165152 6.45845455,19.1399394 6.57745455,18.7906667 C6.69851515,18.4151212 6.62536364,18.0127879 6.71087879,17.6310606 C6.74951515,17.4476667 6.81339394,17.2704545 6.86181818,17.0896364 C6.8669697,16.9613636 6.87006061,16.8330909 6.87212121,16.7048182 C6.85512121,15.7383939 6.87881818,14.7724848 6.87212121,13.8060606 C6.87624242,12.7546364 6.85821212,11.7032121 6.8669697,10.6517879 L6.85924242,10.4699394 L6.85924242,10.4699394 C6.73406061,10.1526061 6.65678788,9.81724242 6.65678788,9.47466667 C6.65781818,9.13621212 6.52851515,8.82093939 6.44506061,8.49845455 C6.36469697,8.18163636 6.20757576,7.89212121 6.10454545,7.5830303 L6.00048485,7.44136364 L6.00048485,7.44136364 C5.74806061,7.38521212 5.51727273,7.23736364 5.25248485,7.24457576 Z M15.9310606,13.6525455 C15.5869394,13.668 15.242303,13.6716061 14.8976667,13.6741818 C14.8621212,14.0950606 14.8822121,14.5174848 14.8801515,14.9393939 C14.8770606,16.5538788 14.8832424,18.1683636 14.8765455,19.7828485 C14.8786061,19.8999596 14.8898249,20.0166128 14.9054703,20.1328081 L14.9316667,20.3067576 L14.9316667,20.3067576 C15.3267879,20.247 15.7275758,20.3139697 16.1221818,20.2629697 C16.394697,20.1542727 16.5904545,19.8879394 16.6775152,19.6128485 C16.7743636,19.2980909 16.887697,18.9807576 16.8794545,18.6469394 C16.8691515,17.8917273 16.942303,17.1370303 16.8933636,16.3823333 C16.8629697,15.9537273 16.9247879,15.510697 16.7862121,15.096 C16.6888485,14.8126667 16.5971515,14.5277879 16.500303,14.2444545 C16.3488485,14.0528182 16.1870909,13.8678788 16.0608788,13.6582121 L15.9310606,13.6525455 L15.9310606,13.6525455 Z M24.8565758,9.503 L24.7509697,9.50248485 L24.7509697,9.50248485 C24.7293333,9.80745455 24.7102727,10.1124242 24.6989394,10.4184242 C24.6402121,10.4328485 24.5814848,10.448303 24.5232727,10.4647879 L24.4882424,10.4766364 L24.4882424,10.4766364 C24.4990606,10.6687879 24.4959697,10.8619697 24.4954545,11.0546364 C24.5057576,11.2627576 24.469697,11.4693333 24.3944848,11.6630303 C24.3260727,11.8390061 24.3123903,12.0265212 24.3101813,12.2134429 L24.31,12.3533333 C24.3172121,12.5712424 24.3007273,12.7917273 24.231697,12.9998485 C24.163697,13.2050076 24.1432197,13.4191496 24.1298418,13.6333641 L24.1173333,13.8472727 L24.1173333,13.8472727 C24.1039394,14.0105758 24.065303,14.1707879 24.0173939,14.3273939 C23.9586666,14.5159394 23.9347121,14.712019 23.9157562,14.9082434 L23.8973636,15.1042424 L23.8973636,15.1042424 L23.8942727,15.1506061 L23.8942727,15.1506061 C23.9030303,15.2469394 23.844303,15.3757273 23.9323939,15.4473333 C24.1070303,15.4942121 24.2909394,15.4792727 24.4702121,15.480303 C24.9261212,15.4663939 25.3846061,15.5070909 25.8374242,15.4365152 C25.7282121,15.2160303 25.6813333,14.9739091 25.6679394,14.7302424 C25.6488788,14.4103333 25.4886667,14.1187576 25.4793939,13.7978182 C25.4696061,13.5536364 25.449,13.3073939 25.3650303,13.0760909 C25.2887879,12.8638485 25.2692121,12.6387273 25.2604545,12.4151515 C25.2511818,12.093697 25.109,11.7959394 25.0873636,11.4760303 C25.0688182,11.322 25.0760303,11.1669394 25.0760303,11.0123939 L25.0703636,10.8305455 L25.0703636,10.8305455 C24.8545152,10.4204848 24.8792424,9.95118182 24.8565758,9.503 Z M14.8950909,7.63145455 C14.875,8.28106061 14.9084848,8.93169697 14.8956061,9.58181818 C14.8832424,10.7944848 14.9254848,12.0081818 14.8657273,13.2198182 C15.2376667,13.2368182 15.6219697,13.2960606 15.986697,13.1992121 C16.2854848,12.9936667 16.4668182,12.6397576 16.4858788,12.2796667 C16.4894848,11.9046364 16.6589697,11.5553636 16.649697,11.1798182 C16.6440303,10.7841818 16.6502121,10.3880303 16.6512424,9.99239394 C16.6594848,9.66836364 16.4961818,9.37215152 16.49,9.05018182 C16.4894848,8.94715152 16.4946364,8.84463636 16.496697,8.74212121 L16.4807273,8.66072727 L16.4807273,8.66072727 C16.4024242,8.52266667 16.3328788,8.37945455 16.2901212,8.22645455 L16.2772424,8.18884848 C16.190697,8.07139394 16.1165152,7.94415152 16.0897273,7.79887879 L16.0773636,7.75612121 C15.7033636,7.59848485 15.2927879,7.58509091 14.8950909,7.63145455 Z M50.5219394,7.32081818 C50.7326364,7.429 50.9963939,7.47948485 51.1210606,7.70460606 C51.3363939,7.97248485 51.414697,8.32124242 51.3585455,8.65815152 C51.3597818,8.77849091 51.2802424,8.86322303 51.1990545,8.94136121 L51.1390909,8.99918182 L51.1390909,8.99918182 L51.1215758,9.02751515 L51.1215758,9.02751515 C51.0901515,9.25469697 50.8995455,9.41233333 50.6883333,9.47106061 C50.4941212,9.52463636 50.2906364,9.63487879 50.0861212,9.56945455 C49.8501818,9.49887879 49.5951818,9.43551515 49.4153939,9.25675758 C49.1933636,9.00948485 49.0728182,8.67566667 49.1047576,8.34287879 C49.0800303,7.94981818 49.3293636,7.54078788 49.7141818,7.42642424 C49.8630606,7.37593939 49.9990606,7.29351515 50.1469091,7.23942424 C50.2777576,7.19357576 50.4065455,7.26569697 50.5219394,7.32081818 Z M50.2968182,8.64115152 C50.2468485,8.64784848 50.1973939,8.65454545 50.1484545,8.66175758 C50.1283636,8.77148485 50.109303,8.88121212 50.0856061,8.99042424 L50.0261705,9.11753788 L50.0261705,9.11753788 L49.9624848,9.24233333 L49.9624848,9.24233333 C50.1551515,9.23409091 50.3478182,9.21915152 50.5399697,9.1959697 C50.4714545,9.07027273 50.4003636,8.94509091 50.3498788,8.81115152 C50.3409495,8.78264647 50.3262963,8.735367 50.3135511,8.69449832 L50.2968182,8.64115152 L50.2968182,8.64115152 Z M49.7002727,7.89881818 C49.6482424,7.90963636 49.5967273,7.92045455 49.5462424,7.93127273 C49.5333636,8.03018182 49.5266667,8.13063636 49.5235758,8.23057576 C49.5199697,8.35524242 49.5204848,8.47990909 49.5240909,8.60457576 C49.5271818,8.69678788 49.5328485,8.789 49.5431515,8.88069697 L49.6894545,8.86421212 L49.6894545,8.86421212 C49.714697,8.54275758 49.7172727,8.22027273 49.7002727,7.89881818 Z M50.7764242,7.88490909 C50.7747071,7.91066666 50.7716162,7.95382491 50.7689832,7.99118294 L50.7656061,8.0399697 L50.7656061,8.0399697 C50.7676667,8.25736364 50.6471212,8.43921212 50.5461515,8.62106061 C50.6574242,8.738 50.796,8.82351515 50.9562121,8.85390909 C50.9582727,8.59375758 50.972697,8.33412121 50.9690909,8.07448485 C50.9036667,8.01163636 50.8397879,7.94827273 50.7764242,7.88490909 Z" id="Combined-Shape"></path>
        </g>
    </g>
</svg>