<?xml version="1.0" encoding="UTF-8"?>
<svg width="96px" height="34px" viewBox="0 0 96 34" version="1.1" xmlns="http://www.w3.org/2000/svg" xmlns:xlink="http://www.w3.org/1999/xlink">
    <title>priori</title>
    <g id="Page-1" stroke="none" stroke-width="1" fill="none" fill-rule="evenodd">
        <g id="priori" transform="translate(0.500000, 0.000000)" fill="#3F6769" fill-rule="nonzero">
            <path d="M56.0039335,27.6313573 C55.1167313,28.5430471 54.279446,29.5027701 53.4421607,30.4596676 C53.4544044,30.6772299 53.6700831,30.8128532 53.7906371,30.9767313 C54.6288643,31.8319114 55.3616066,32.7840997 56.2196122,33.6204432 C56.1263712,33.7344044 56.0331302,33.8483657 55.9389474,33.961385 C55.6573407,33.791856 55.3917452,33.594072 55.1817175,33.3397784 C54.4828809,32.5213296 53.7718006,31.713241 53.0588366,30.9079778 C52.7998338,31.120831 52.5380055,31.340277 52.3364543,31.6105817 C52.2677008,32.3282548 52.3289197,33.0553463 52.3100831,33.7758449 L51.8288089,33.7814958 L51.8288089,33.7814958 C51.8222161,31.7047645 51.8344598,29.6270914 51.8222161,27.5503601 L51.9270533,27.5477995 L51.9270533,27.5477995 L52.1798165,27.5416188 C52.2195498,27.5406475 52.2556925,27.5397646 52.2846537,27.5390582 C52.3486981,28.6381717 52.2714681,29.7401108 52.3289197,30.8392244 C53.1266482,30.0980055 53.7718006,29.2155125 54.5271468,28.433795 C54.794626,28.1587812 55.0084211,27.8338504 55.3013296,27.5833241 C55.5245429,27.479723 55.7797784,27.572964 56.0039335,27.6313573 Z M69.9100277,27.5060942 C70.4666482,27.6680886 70.9234349,28.0419945 71.339723,28.4300277 C71.2332964,28.5581163 71.125928,28.6852632 71.0185596,28.8105263 C70.6672576,28.5750693 70.3564543,28.2736842 69.9627701,28.1069806 C69.025651,27.6756233 67.8389474,27.9713573 67.1485873,28.7182271 C66.6918006,29.1759557 66.5401662,29.821108 66.3734626,30.4219945 C66.2868144,30.8053186 66.4610526,31.1716898 66.5627701,31.5333518 C66.6993352,31.9844875 66.9319668,32.4158449 67.2879778,32.7322992 C67.7334626,33.1674238 68.3494183,33.3510803 68.9437119,33.4744598 C69.2771191,33.4801108 69.5973407,33.3454294 69.9100277,33.2408864 C70.3630471,33.0770083 70.6550139,32.6173961 71.1541828,32.5618283 C71.1617175,32.6767313 71.1777285,32.9074792 71.1852632,33.0233241 C70.6361773,33.5479224 69.9269806,34.0065928 69.1339612,33.9406648 C67.6044321,34.0791136 66.1483657,32.8424931 65.8865374,31.3600554 C65.8742936,30.6725208 65.7688089,29.9397784 66.0833795,29.300277 C66.6757895,27.8668144 68.4257064,27.019169 69.9100277,27.5060942 Z M49.1982825,27.5362327 C49.607036,27.654903 49.9385596,27.9308587 50.2747922,28.1785596 C50.2681994,28.2849861 50.2644321,28.3923546 50.2616066,28.5006648 C50.1890859,28.527036 50.045928,28.5797784 49.974349,28.6070914 C49.4516343,28.252964 48.8780609,27.8913019 48.2225485,27.9091967 C47.5811634,27.8668144 46.881385,28.2218837 46.6713573,28.8557341 C46.5451524,29.3021607 46.9058726,29.6694737 47.2684765,29.8606648 C48.0464266,30.281662 48.9901385,30.2807202 49.7379501,30.7742382 C50.3567313,31.1274238 50.6788366,31.9364543 50.440554,32.6136288 C50.259723,33.2088643 49.7379501,33.6317452 49.173795,33.846482 C48.7725762,33.9736288 48.3449861,33.934072 47.9305817,33.9378393 C47.133795,33.9510249 46.426482,33.4810526 45.8858726,32.9347922 C46.0290305,32.8104709 46.1655956,32.6776731 46.272964,32.5203878 C46.8088643,33.0741828 47.5481994,33.4264266 48.3157895,33.4772853 C48.7480886,33.3887535 49.2199446,33.2936288 49.5448753,32.9686981 C49.7746814,32.7511357 49.9008864,32.4393906 49.9442105,32.1314127 C49.8632133,31.812133 49.7247645,31.4796676 49.4299723,31.3026039 C48.5898615,30.7346814 47.4785042,30.808144 46.6478116,30.2176177 C45.9941828,29.739169 45.9113019,28.6909141 46.4613296,28.1022715 C47.1187258,27.3299723 48.2847091,27.2122438 49.1982825,27.5362327 Z M82.8601662,29.3756233 C82.9486981,30.2421053 82.2008864,31.1349584 81.2995568,31.060554 C81.2581163,31.4467036 81.5378393,31.7301939 81.7412742,32.0231025 L82.531503,33.1735282 C82.6612311,33.3665682 82.7882733,33.561422 82.9100831,33.7598338 C82.6915789,33.7711357 82.4749584,33.7777285 82.258338,33.7871468 C81.7375069,33.0148476 81.2157341,32.2434903 80.694903,31.472133 C80.6167313,31.3760665 80.5479778,31.2347922 80.4048199,31.241385 C79.9913573,31.219723 79.5731856,31.2065374 79.1634903,31.2639889 C79.13241,32.0409972 79.1795014,32.8198892 79.1474792,33.5978393 C79.1116898,33.8634349 78.8065374,33.879446 78.5936842,33.8926316 C78.5550693,31.7829363 78.5833241,29.6713573 78.5795568,27.561662 C79.4149584,27.5268144 80.2550693,27.5503601 81.0942382,27.5437673 C82.0709141,27.4486427 82.9807202,28.406482 82.8601662,29.3756233 Z M42.1863712,27.4599446 C42.4849307,27.4363989 42.5348476,27.7914681 42.5480332,28.0146814 C41.3500277,28.0862604 40.1454294,27.9619391 38.9511911,28.0843767 C38.9813296,28.8199446 38.9040997,29.5611634 39.0048753,30.292964 C40.1407202,30.3372299 41.2831579,30.227036 42.4133518,30.3626593 C42.4208864,30.4935734 42.4303047,30.6244875 42.439723,30.7563435 C41.287867,30.9221053 40.1171745,30.7798892 38.9568421,30.8420499 C38.9549584,31.6604986 38.9559003,32.4789474 38.9568421,33.2973961 L40.0573684,33.2945706 L40.0573684,33.2945706 L41.1578947,33.2945706 C41.6259834,33.3021053 42.0987812,33.2606648 42.5612188,33.3539058 C42.5113019,33.5168421 42.4642105,33.6826039 42.4029917,33.8427147 C41.0995014,33.8945152 39.7903601,33.8511911 38.4849861,33.8624931 C38.4793352,31.7283102 38.4727424,29.5931856 38.4887535,27.4590028 C39.7206648,27.4608864 40.953518,27.4552355 42.1863712,27.4599446 Z M21.765651,27.4561773 C22.4767313,27.4608864 23.180277,27.8423269 23.5174515,28.4771191 C23.6879224,28.8905817 23.8809972,29.3567867 23.6728532,29.7947368 C23.4769529,30.6894737 22.5539612,31.2781163 21.6677008,31.2338504 C21.0875346,31.2310249 20.5073684,31.2291413 19.928144,31.2338504 C19.9290859,32.1116343 19.9403878,32.9894183 19.9196676,33.8672022 C19.7652078,33.8634349 19.6107479,33.8615512 19.4572299,33.8606094 C19.4478116,31.7264266 19.4412188,29.5922438 19.4609972,27.4580609 C20.2285873,27.4608864 20.9971191,27.4571191 21.765651,27.4561773 Z M59.4990582,27.4373407 C59.7703047,27.4335734 60.0575623,27.4966759 60.2139058,27.7424931 C61.0963989,28.9621607 62.006205,30.1629917 62.9028255,31.373241 C63.2249307,31.7838781 63.4886427,32.245374 63.8889197,32.5900831 C63.9247091,30.9418837 63.898338,29.2918006 63.9030471,27.6426593 C63.9699169,27.5804986 64.0377285,27.518338 64.1055402,27.4552355 C64.2477562,27.4599446 64.3909141,27.4646537 64.5350139,27.4684211 C64.5472576,29.6007202 64.5416066,31.7339612 64.5378393,33.8662604 C64.3598338,33.8615512 64.1808864,33.8719114 64.0066482,33.8398892 C63.8568975,33.7127424 63.7457618,33.5488643 63.6299169,33.3934626 C62.6504155,32.0014404 61.6191136,30.6470914 60.6170083,29.2720222 C60.4427701,29.0422161 60.2449861,28.8293629 60.0396676,28.6287535 C59.993518,29.6958449 60.0302493,30.7657618 60.0189474,31.833795 C60.0048199,32.5119114 60.0613296,33.193795 59.960554,33.8672022 C59.7976177,33.8653186 59.6365651,33.8615512 59.4755125,33.8596676 C59.3511911,33.3821607 59.3926316,32.886759 59.3898061,32.398892 C59.3898061,30.9833241 59.3907479,29.5686981 59.3879224,28.154072 C59.3822715,27.9091967 59.4519668,27.6746814 59.4990582,27.4373407 Z M37.3745706,27.5202216 C37.3566759,27.7396676 37.3547922,27.9666482 37.2615512,28.1710249 C36.6060388,29.7363435 35.9750139,31.3120222 35.3298615,32.881108 C35.1951801,33.2079224 35.0981717,33.5592244 34.8824931,33.8445983 C34.6781163,33.879446 34.4699723,33.8643767 34.2637119,33.8653186 C33.4057064,31.7932964 32.5825485,29.7052632 31.6783934,27.6530194 C31.8488643,27.4768975 32.1106925,27.5654294 32.3282548,27.5409418 C33.0609972,29.3925762 33.813518,31.2347922 34.5669806,33.0770083 C34.7169197,32.8008643 34.8441042,32.5146238 34.9632417,32.2246763 L35.3112208,31.3501022 C35.3700964,31.2046161 35.4306371,31.0598006 35.4946814,30.9164543 C35.880831,29.9793352 36.2547368,29.0365651 36.63241,28.0956787 C36.7096399,27.912964 36.7812188,27.7236565 36.9093075,27.5701385 C37.0637673,27.5475346 37.2182271,27.5305817 37.3745706,27.5202216 Z M7.33684211,27.5447091 C8.00083102,27.5390582 8.66387812,27.5465928 9.32692521,27.5437673 C10.7217729,27.4693629 11.9941828,28.620277 12.2588366,29.9557895 C12.3153463,30.7045429 12.366205,31.5154571 11.9621607,32.185097 C11.494072,33.1184488 10.5211634,33.7023823 9.51058172,33.8577839 C8.70720222,33.8775623 7.90288089,33.8587258 7.09855956,33.8624931 C6.99495845,33.4122992 7.02603878,32.9498615 7.02415512,32.4930748 C7.02886427,30.9221053 7.01850416,29.3520776 7.02792244,27.781108 C7.01379501,27.6134626 7.18614958,27.5108033 7.33684211,27.5447091 Z M16.0374515,27.7669806 C16.8672022,29.7956787 17.6875346,31.828144 18.5370637,33.8493075 C18.3279778,33.8559003 18.1179501,33.8624931 17.9088643,33.8662604 C17.6573961,33.3793352 17.499169,32.8490859 17.2429917,32.365928 C16.1269252,32.3113019 15.0061496,32.3593352 13.8881994,32.3442659 C13.6574515,32.8340166 13.4304709,33.3294183 13.287313,33.8530748 C13.067867,33.8596676 12.8474792,33.8615512 12.6289751,33.8587258 C12.8860942,32.9997784 13.3042659,32.2020499 13.6009418,31.3572299 C14.1396676,30.0829363 14.6783934,28.8095845 15.2265374,27.5390582 C15.4940166,27.5739058 15.9206648,27.4279224 16.0374515,27.7669806 Z M29.0554017,27.545651 C29.0516343,27.7104709 29.0506925,27.8752909 29.0469252,28.0401108 C28.3593906,28.0476454 27.6633795,27.9779501 26.9833795,28.1098061 C26.9927978,30.0292521 26.9927978,31.9477562 26.9824377,33.8662604 C26.8223269,33.8653186 26.6622161,33.8643767 26.5030471,33.8653186 C26.4729086,33.6298615 26.4352355,33.3944044 26.4352355,33.1561219 C26.4314681,31.4457618 26.4427701,29.7344598 26.4305263,28.0240997 C25.7665374,28.0222161 25.0959557,28.0787258 24.4366759,27.9996122 C24.425374,27.8479778 24.4178393,27.6972853 24.4131302,27.545651 C25.960554,27.5428255 27.5079778,27.5428255 29.0554017,27.545651 Z M88.3246537,27.6313573 C88.2775623,27.7660388 88.2314127,27.9007202 88.186205,28.0363435 C87.2961773,28.0306925 86.4061496,28.0372853 85.5161219,28.0316343 C85.2439335,28.0259834 84.9745706,28.060831 84.7089751,28.1060388 C84.7183934,28.8321884 84.7118006,29.5592798 84.7127424,30.2863712 C85.674349,30.3127424 86.6359557,30.2939058 87.5975623,30.2967313 C87.7896953,30.2948476 87.9846537,30.3240443 88.1654848,30.3965651 C88.1984488,30.5114681 88.219169,30.6301385 88.2445983,30.7488089 C88.0289197,30.786482 87.813241,30.8307479 87.5956787,30.8316898 C86.6350139,30.8392244 85.6752909,30.8175623 84.7165097,30.8420499 C84.7118006,31.6567313 84.7136842,32.4714127 84.7155679,33.2860942 C85.8316343,33.314349 86.9486427,33.2738504 88.0647091,33.3049307 C88.367036,33.3171745 88.2323546,33.6797784 88.1956233,33.8615512 C86.8761219,33.868144 85.5566205,33.8624931 84.2380609,33.8643767 C84.2145152,31.7584488 84.2333518,29.6515789 84.2286427,27.545651 L86.9307479,27.5437673 L86.9307479,27.5437673 C87.3960111,27.5484765 87.8697507,27.501385 88.3246537,27.6313573 Z M30.3796122,27.4542936 C30.5001662,27.4590028 30.6197784,27.4627701 30.7403324,27.4674792 C30.7657618,29.5978947 30.7563435,31.7283102 30.7450416,33.8587258 C30.5595014,33.8596676 30.3730194,33.8596676 30.1874792,33.8596676 C30.166759,31.7848199 30.1846537,29.7090305 30.1790028,27.6341828 L30.3796122,27.4542936 L30.3796122,27.4542936 Z M57.3752355,27.4335734 C57.6012742,27.4448753 57.9751801,27.4881994 57.9554017,27.79241 L57.957403,30.0485595 L57.957403,30.0485595 L57.9572853,32.3047091 C57.9525762,32.8227147 57.9949584,33.3482548 57.8800554,33.8587258 C57.6907479,33.8596676 57.5023823,33.8596676 57.3140166,33.8596676 C57.2951801,32.086205 57.3130748,30.3118006 57.3045983,28.538338 C57.3055402,28.1691413 57.2829363,27.7942936 57.3752355,27.4335734 Z M75.0712465,27.561662 C75.452687,28.3141828 75.6966205,29.1279224 76.0686427,29.8851524 C76.6139612,31.2055956 77.1781163,32.5185042 77.6772853,33.8568421 C77.4568975,33.8597151 77.2383934,33.8606094 77.0198892,33.8587258 C76.8249307,33.3557895 76.6629363,32.8330748 76.3935734,32.3640443 C75.2916343,32.3254294 74.1840443,32.3348476 73.0821053,32.3593352 C72.754349,32.7727978 72.6460388,33.3209418 72.3992798,33.7843213 C72.2080886,33.7777285 72.0168975,33.7711357 71.82759,33.7636011 C72.354072,32.2717452 73.0208864,30.8363989 73.599169,29.3643213 C73.8958449,28.7766205 74.0521884,28.1229917 74.3950139,27.5597784 C74.6182271,27.5296399 74.8470914,27.5296399 75.0712465,27.561662 Z M3.54692521,27.5324654 C3.85584488,28.0759003 4.04044321,28.6758449 4.3032133,29.2418837 C4.90692521,30.7525762 5.56808864,32.2406648 6.13695291,33.7654848 C5.93163435,33.7730194 5.72725762,33.7767867 5.52193906,33.7777285 C5.33263158,33.2992798 5.15933518,32.8085873 4.90221607,32.3612188 C3.80121884,32.3282548 2.69457064,32.3357895 1.59263158,32.3574515 C1.26204986,32.7812742 1.22155125,33.3661496 0.864598338,33.7720776 C0.703545706,33.780554 0.542493075,33.7833795 0.381440443,33.7814958 C0.453961219,33.2804432 0.670581717,32.8217729 0.868365651,32.3621607 C1.53423823,30.8363989 2.11063712,29.272964 2.77933518,27.7490859 C2.8494072,27.5563878 3.01916232,27.5338969 3.19929263,27.5365642 L3.37957363,27.5422453 C3.43861496,27.5433529 3.49550139,27.5418837 3.54692521,27.5324654 Z M8.77843821,28.0254908 L8.33619047,28.0377427 C8.11553902,28.0436998 7.89628809,28.0465587 7.68155125,28.033518 C7.67590028,29.7872022 7.67966759,31.5408864 7.68060942,33.2945706 C8.32199446,33.2851524 8.96432133,33.3162327 9.60570637,33.281385 C10.3704709,33.1222161 11.1248753,32.6635457 11.4403878,31.9195014 C12.092133,30.7252632 11.6824377,29.0233795 10.474072,28.3490305 C9.95302364,28.0406904 9.36813158,28.0137619 8.77843821,28.0254908 Z M74.8904155,28.3028809 C74.7849307,28.3057064 74.6803878,28.3085319 74.5767867,28.3113573 C74.2584488,29.4782825 73.6293075,30.5331302 73.286482,31.6915789 C74.2386704,31.713241 75.1918006,31.7104155 76.1449307,31.6925208 C75.7936288,30.5387812 75.1842659,29.4745152 74.8904155,28.3028809 Z M15.5232133,28.2058726 C15.2642105,28.7511911 15.0871468,29.3304155 14.8375623,29.8804432 C14.5672576,30.479446 14.3760665,31.1142382 14.0530194,31.6896953 C15.0315789,31.7141828 16.0110803,31.7085319 16.9896399,31.6944044 C16.7673684,30.8919668 16.3849861,30.1488643 16.0930194,29.371856 C15.9347922,28.9678116 15.787867,28.5562327 15.5232133,28.2058726 Z M3.29828255,28.2152909 C3.1833795,28.3838781 3.02609418,28.527036 2.94509695,28.7172853 C2.58531856,29.7203324 2.13512465,30.6885319 1.78288089,31.6953463 C2.72565097,31.7094737 3.66842105,31.7104155 4.61119114,31.6944044 C4.51889197,31.0341828 4.16947368,30.4587258 3.9434349,29.8418283 C3.73717452,29.2965097 3.4998338,28.7624931 3.29828255,28.2152909 Z M19.9159003,28.0947368 C19.9554571,28.867036 19.9083657,29.6412188 19.9366205,30.4144598 C19.9356787,30.7751801 20.3924654,30.6320222 20.6232133,30.6631025 C21.272133,30.6084765 22.0077008,30.8203878 22.5793906,30.4144598 C23.1972299,30.0038227 23.2951801,29.0525762 22.8318006,28.4912465 C22.5803324,28.1663158 22.1621607,28.0184488 21.76,28.0325762 C21.145928,28.0448199 20.5252632,27.9911357 19.9159003,28.0947368 Z M79.1700831,28.0410526 C79.1427701,28.8698615 79.1531302,29.700554 79.1606648,30.5293629 C79.1908033,30.561385 79.2520222,30.6254294 79.2831025,30.6574515 C79.8547922,30.6706371 80.4283657,30.6583934 81.0009972,30.6612188 C81.4634349,30.6791136 81.8947922,30.3927978 82.1274238,30.0057064 C82.2216066,29.7354017 82.1961773,29.4396676 82.1971191,29.1571191 C82.2592798,28.5505817 81.6452078,28.088144 81.0904709,28.0401108 C80.4509695,28.0269252 79.8095845,28.027867 79.1700831,28.0410526 Z M52.9966759,-5.68434189e-14 C53.5363435,0.151634349 54.0891967,0.243933518 54.6392244,0.349418283 C56.5501939,0.699778393 58.3886427,1.5766205 59.7863158,2.93756233 C61.8338504,4.8466482 63.0403324,7.65047091 62.9508587,10.4542936 C63.0327978,13.5199446 61.5748476,16.5733518 59.1788366,18.480554 C56.500277,20.6185042 52.7593352,21.3173407 49.4789474,20.3566759 C47.4285873,19.8292521 45.5684765,18.6114681 44.238615,16.9679778 C43.0424931,15.492133 42.2937396,13.6631025 42.0818283,11.7775623 C42.0356787,10.9280332 42.039446,10.0756787 42.0780609,9.22614958 C42.2843213,7.24360111 43.1121884,5.33263158 44.4015512,3.8134626 C44.9807756,3.19185596 45.5694183,2.56648199 46.2720222,2.08144044 C47.0254848,1.54648199 47.8561773,1.12454294 48.7198338,0.797728532 C49.1743332,0.625373961 49.6438826,0.51097066 50.1175838,0.412185781 L51.0672927,0.222897523 C51.3835548,0.158380915 51.698433,0.0882627623 52.0086981,-5.68434189e-14 L52.9966759,-5.68434189e-14 Z M8.86072022,0.505761773 C10.1547922,0.59900277 11.4554571,0.908864266 12.585651,1.56626039 C14.0106371,2.35457064 15.0965651,3.74941828 15.4798892,5.33639889 C15.700277,6.1134072 15.6852078,6.92808864 15.6682548,7.72864266 C15.6428255,8.53955679 15.4233795,9.33540166 15.0993906,10.0756787 C14.5371191,11.3066482 13.5255956,12.3040443 12.3370083,12.9369529 C11.2878116,13.5312465 10.0907479,13.7751801 8.91534626,13.9814404 C7.15883657,14.0775069 5.39102493,13.9089197 3.63828255,14.0746814 C3.64487535,16.1777839 3.64299169,18.2799446 3.63828255,20.3830471 C2.42709141,20.3416066 1.20459834,20.4696953 2.93098879e-14,20.3029917 L2.93098879e-14,0.526481994 C0.375789474,0.505761773 0.752520776,0.497285319 1.12925208,0.500110803 C3.70609418,0.505761773 6.28387812,0.493518006 8.86072022,0.505761773 Z M31.0445429,1.93451524 C32.2576177,2.80193906 33.018615,4.19490305 33.287036,5.6434349 C33.314349,6.40537396 33.3209418,7.17108033 33.2860942,7.93301939 C33.1203324,8.7900831 32.8340166,9.64055402 32.3310803,10.3619945 C31.4730748,11.5675346 30.166759,12.4368421 28.7361219,12.8003878 C28.7031579,13.1912465 29.0252632,13.4474238 29.2305817,13.7365651 C30.8787812,15.9385596 32.541108,18.1311357 34.2185042,20.3105263 C33.9303047,20.3708033 33.6355125,20.3905817 33.341662,20.3849307 C32.3348476,20.3764543 31.3289751,20.3877562 30.3221607,20.3811634 C30.0292521,20.4018837 29.8757341,20.1033241 29.7099723,19.9130748 C28.2247091,17.8645983 26.6433795,15.8895845 25.1515235,13.8458172 C25.0234349,13.7045429 24.9066482,13.4813296 24.6824931,13.5142936 C23.3159003,13.5058172 21.9483657,13.5161773 20.580831,13.5114681 C20.5761219,15.7850416 20.5761219,18.058615 20.580831,20.3321884 C19.3865928,20.4442659 18.1819945,20.3519668 16.9839889,20.3830471 C16.978338,13.7563435 16.9773961,7.12869806 16.9839889,0.50199446 C19.9243767,0.499168975 22.8657064,0.50199446 25.8060942,0.500110803 C27.6370083,0.445484765 29.5347922,0.858947368 31.0445429,1.93451524 Z M75.3170637,0.589584488 C76.8550693,0.764764543 78.3761219,1.36470914 79.5242105,2.42144044 C79.8868144,2.77839335 80.1919668,3.19279778 80.4490859,3.63168975 C80.8747922,4.37479224 81.0612742,5.22149584 81.2232687,6.05407202 C81.2581163,6.56831025 81.2552909,7.08725762 81.2232687,7.60149584 C81.0499723,8.48775623 80.8587812,9.40038781 80.3530194,10.1660942 C79.867036,10.96759 79.1380609,11.5910803 78.3488089,12.0827147 C77.766759,12.453795 77.0820499,12.6082548 76.4858726,12.9520222 C77.4757341,14.153795 78.3676454,15.431856 79.3170083,16.6637673 C80.0243213,17.5613296 80.694903,18.4871468 81.3965651,19.3903601 C81.654626,19.6879778 81.8750139,20.0166759 82.0492521,20.3708033 C80.6883102,20.3962327 79.3264266,20.3764543 77.9654848,20.3811634 C76.5131856,18.4993906 75.0957341,16.5903047 73.6679224,14.6887535 C73.3637119,14.318615 73.1254294,13.8938504 72.7891967,13.5510249 C72.6441551,13.4992244 72.4878116,13.5142936 72.3390028,13.5086427 C71.0260942,13.5171191 69.7141274,13.5077008 68.4021607,13.5142936 C68.4021607,15.8029363 68.3993352,18.0906371 68.4040443,20.3792798 C67.2512465,20.3886981 66.0984488,20.3736288 64.9465928,20.3877562 C64.808144,20.2257618 64.8816066,19.9808864 64.8429917,19.7840443 C64.8382825,13.3598338 64.85241,6.93468144 64.8363989,0.510470914 C67.7428809,0.488808864 70.6503047,0.506703601 73.5567867,0.500110803 C74.1435457,0.514238227 74.739723,0.455844875 75.3170637,0.589584488 Z M88.1042659,0.504819945 C88.1089751,6.86686981 88.1014404,13.2289197 88.1070914,19.5909695 C88.0948476,19.8424377 88.1457064,20.1070914 88.0609418,20.3481994 C87.8763435,20.3962327 87.6851524,20.3821053 87.4986704,20.3858726 C86.5427147,20.3755125 85.586759,20.3886981 84.6308033,20.3802216 C84.6110249,13.753518 84.6251524,7.1268144 84.6242105,0.500110803 C85.7845429,0.503878116 86.9439335,0.495401662 88.1042659,0.504819945 Z M39.5954017,0.522714681 C39.5963435,7.11362881 39.5888089,13.7054848 39.599169,20.2963989 C39.3693629,20.3406648 39.1376731,20.3868144 38.9022161,20.3842256 C37.9236565,20.3830471 36.945097,20.3811634 35.9674792,20.3821053 C35.9279224,14.4043213 35.9618283,8.4265374 35.9505263,2.44875346 C35.9637119,1.79889197 35.908144,1.14526316 36.0060942,0.500110803 C37.2022161,0.512354571 38.3992798,0.475623269 39.5954017,0.522714681 Z M51.8344598,3.42637119 C51.0913573,3.45556787 50.3718006,3.70138504 49.6852078,3.97263158 C47.8665374,4.80049861 46.4575623,6.48919668 46.0054848,8.43972299 C45.9734626,8.86731302 45.9687535,9.30149584 46.0111357,9.72908587 C46.207036,10.501385 46.5404432,11.2680332 47.1224931,11.8293629 C47.6621607,12.3596122 48.1387258,12.9501385 48.685928,13.4728532 L49.1403748,13.9368066 L49.1403748,13.9368066 L50.0224264,14.8901428 C50.170838,15.0477077 50.3214127,15.2032271 50.4763435,15.354626 C50.9086427,15.7803324 51.3004432,16.2616066 51.8231579,16.5827701 C52.261108,16.8653186 52.7687535,17.0009418 53.2603878,17.1544598 C53.8951801,17.2703047 54.5619945,17.2222715 55.1562881,16.9585596 C57.4421053,16.1014958 58.9151247,13.7695291 59.2023823,11.4074238 C59.4180609,10.5023269 59.214626,9.58027701 59.0507479,8.68554017 C58.721108,7.47152355 58.1390582,6.29612188 57.2377285,5.40421053 C56.2167867,4.31545706 54.7955679,3.64487535 53.3272576,3.43767313 C52.8299723,3.41224377 52.3317452,3.42166205 51.8344598,3.42637119 Z M8.00648199,3.64110803 C6.74914127,3.64581717 5.49085873,3.63922438 4.23351801,3.64393352 C3.88786704,3.646759 3.62415512,3.99146814 3.6401662,4.32204986 C3.64581717,6.40254848 3.63734072,8.48398892 3.64487535,10.5644875 C3.85772853,10.6906925 4.05833795,10.8950693 4.32393352,10.8715235 C5.52099723,10.8696399 6.71711911,10.8677562 7.91418283,10.8724654 C8.45950139,10.8818837 8.98033241,10.7001108 9.51058172,10.6031025 C10.3233795,10.3488089 11.0975623,9.8665928 11.5581163,9.13385042 C11.8190028,8.71096953 12.0554017,8.23534626 12.0224377,7.72393352 C11.998892,7.07218837 12.1307479,6.3733518 11.8029917,5.77434903 C11.3980055,4.76565097 10.4006094,4.12426593 9.37778393,3.87279778 C8.92288089,3.78803324 8.46891967,3.68160665 8.00648199,3.64110803 Z M69.1236011,3.70797784 C68.872133,3.68914127 68.6395014,3.78614958 68.4106371,3.8699723 C68.394626,5.97401662 68.3983934,8.07806094 68.4087535,10.1811634 C68.6093629,10.2508587 68.8099723,10.3412742 69.0284765,10.3299723 C70.6333518,10.326205 72.239169,10.326205 73.8440443,10.3290305 C75.1258726,10.3233795 76.4896399,9.78936288 77.1837673,8.65916898 C77.6000554,7.90099723 77.8034903,6.97612188 77.5181163,6.13601108 C77.3259834,5.17157895 76.5461496,4.42753463 75.6617729,4.06398892 C75.1381163,3.83041551 74.5560665,3.81252078 73.999446,3.71927978 C72.3747922,3.6966759 70.7482548,3.72022161 69.1236011,3.70797784 Z M25.4293629,3.7098615 C23.9045429,3.72022161 22.3787812,3.69385042 20.854903,3.72116343 C20.6976177,3.74094183 20.5431579,3.87279778 20.5827147,4.04515235 C20.5732964,6.02581717 20.5770637,8.00742382 20.5817729,9.98903047 C20.5450416,10.1858726 20.7418837,10.3440997 20.9283657,10.326205 C22.6792244,10.3290305 24.4300831,10.3280886 26.1818837,10.3252632 C27.45241,10.2470914 28.8208864,9.66975069 29.4019945,8.46703601 C29.7740166,7.84448753 29.7259834,7.09385042 29.6883102,6.39878116 C29.5828255,5.60105263 29.1232133,4.83440443 28.4253186,4.41905817 C27.5513019,3.82853186 26.4606648,3.68537396 25.4293629,3.7098615 Z M92.4291413,-9.99200722e-14 C92.8190582,0.281606648 93.2720776,0.49634349 93.5762881,0.882493075 C93.8098615,1.1801108 93.9897507,1.51445983 94.1828255,1.83939058 L94.1828255,2.66160665 C93.8739058,3.17490305 93.5941828,3.74941828 93.0639335,4.07058172 C92.5609972,4.43036011 91.893241,4.43224377 91.3140166,4.29756233 C90.6519114,4.06587258 90.1301385,3.49889197 89.9012742,2.84149584 C89.7458726,2.30465374 89.7920222,1.69246537 90.1018837,1.21778393 C90.4569529,0.595235457 91.1068144,0.206260388 91.7764543,-9.99200722e-14 L92.4291413,-9.99200722e-14 Z M91.5014404,0.534958449 C90.7988366,0.785484765 90.2233795,1.49279778 90.2789474,2.2632133 C90.2431579,3.19562327 91.0747922,4.05551247 92.0128532,4.01878116 C92.9867036,4.00465374 93.7486427,3.02138504 93.6619945,2.08049861 C93.5678116,1.49562327 93.2381717,0.919224377 92.6919114,0.651745152 C92.3340166,0.443601108 91.8941828,0.471855956 91.5014404,0.534958449 Z M92.7785596,1.44288089 C92.9320776,1.76216066 92.6495291,2.06166205 92.5619391,2.35739612 C92.6806094,2.71905817 92.841662,3.07224377 92.8426039,3.46027701 C92.7521884,3.45085873 92.5704155,3.4301385 92.48,3.41977839 C92.3613296,3.12592798 92.3359003,2.78216066 92.1221053,2.53445983 C91.9497507,2.49207756 91.7717452,2.49490305 91.5984488,2.48265928 C91.5946814,2.7567313 91.6125762,3.03174515 91.5975069,3.30581717 C91.4684765,3.36138504 91.3460388,3.42731302 91.2311357,3.50548476 C91.2099446,3.10473684 91.2057064,2.703518 91.2067659,2.30218144 L91.2141828,1.09817175 L91.2141828,1.09817175 C91.7321884,1.13396122 92.4621053,0.888144044 92.7785596,1.44288089 Z M91.7839889,1.31855956 C91.7142936,1.44759003 91.6380055,1.57473684 91.5927978,1.7131856 C91.54759,1.89213296 91.6963989,2.02022161 91.7821053,2.15772853 C91.9732964,2.09180055 92.1663712,2.02587258 92.359446,1.95900277 C92.359446,1.83185596 92.3622715,1.70376731 92.3660388,1.5766205 C92.172964,1.48714681 91.9780055,1.40049861 91.7839889,1.31855956 Z" id="Combined-Shape"></path>
        </g>
    </g>
</svg>