<?xml version="1.0" encoding="UTF-8"?>
<svg width="172px" height="39px" viewBox="0 0 172 39" version="1.1" xmlns="http://www.w3.org/2000/svg" xmlns:xlink="http://www.w3.org/1999/xlink">
    <title>RejudiCare</title>
    <g id="partners" stroke="none" stroke-width="1" fill="none" fill-rule="evenodd">
        <g id="RejudiCare" transform="translate(0.149453, 0.165442)" fill="#54301A" fill-rule="nonzero">
            <path d="M127.165285,29.3543084 C127.880492,29.6486043 128.513571,30.1174246 128.91395,30.7881455 C130.337521,32.8995478 131.771358,35.0006838 133.242838,37.0778656 C133.249682,34.5831943 133.242838,32.0885229 133.249682,29.5972736 C133.468693,29.6006957 133.910137,29.6109618 134.13257,29.6143838 C134.129148,32.5710314 134.13257,35.5242568 134.13257,38.4809044 C133.875916,38.4740603 133.369454,38.4672162 133.116222,38.4637941 C131.418887,35.9725448 129.701021,33.4984058 127.996842,31.0140006 C127.959199,33.5668467 128.109769,36.1231148 127.856538,38.6691169 L127.397984,38.6691169 C127.103688,37.6664575 127.079733,36.6158894 127.103688,35.5790096 C127.144752,33.5052498 127.079733,31.4280681 127.165285,29.3543084 Z M118.497243,29.398795 C118.774428,29.5151445 119.3288,29.7444216 119.605986,29.8607711 C120.735261,31.1371942 121.484689,32.6976471 122.466816,34.0869976 C123.219666,32.9543005 123.921185,31.7873829 124.670613,30.6546857 C125.118901,30.0387175 125.60141,29.4227493 126.439811,29.4261713 C125.437152,31.2843422 124.017003,32.8892816 123.034875,34.7542965 C122.767956,36.0375637 122.89115,37.3687395 122.726891,38.6691169 L122.254649,38.6691169 C121.799517,37.108664 122.45655,35.2778695 121.416248,33.9056292 C120.434121,32.4101952 119.335644,30.9866242 118.497243,29.398795 Z M148.946606,29.9873868 C150.568655,30.8805408 150.219607,33.3546798 148.693374,34.1725488 C150.181964,35.16152 149.85687,37.1223522 150.031394,38.6656948 C148.344326,38.0976352 149.579684,35.7090473 148.25193,34.7748288 C146.917333,34.3641833 145.480073,34.6105706 144.104411,34.566084 C144.124943,35.9349023 144.090723,37.3071427 143.926465,38.6691169 L143.488443,38.6691169 C143.189128,37.0812876 143.17404,35.4671771 143.204897,33.8491082 L143.246427,32.0282878 C143.262329,31.2193385 143.267379,30.4114924 143.231789,29.6075398 C143.705743,29.6306386 144.186754,29.6220834 144.669958,29.6072189 L145.395799,29.5833582 C146.606247,29.5462637 147.815192,29.5489372 148.946606,29.9873868 Z M157.48461,30.001075 C158.35381,30.4938496 158.692592,31.4862429 159.127192,32.3246441 C158.925291,32.3383323 158.528334,32.3691307 158.326433,32.3828188 L158.199783,32.1892098 L158.199783,32.1892098 L157.949769,31.7936144 C157.65537,31.3314637 157.339173,30.880883 156.872064,30.5862448 C155.482713,29.7649539 153.450018,30.1550671 152.615039,31.5820601 C151.653444,33.2006878 151.708197,35.4866143 152.933289,36.9512499 C154.042032,38.2345171 156.108948,38.2242509 157.378526,37.1771049 C157.566739,37.3618954 157.758374,37.5501079 157.946586,37.7417425 C157.269021,38.0976352 156.58119,38.4364178 155.852294,38.6691169 L154.596403,38.6691169 C150.678161,38.0976352 149.908201,32.2596252 152.902491,30.1174246 C154.233666,29.2140045 156.102103,29.1900502 157.48461,30.001075 Z M167.175843,29.3953729 C166.227937,31.2980303 164.759879,32.8824375 163.784596,34.7611406 C163.527943,36.0444078 163.709311,37.3824277 163.428703,38.6691169 L162.935929,38.6691169 C162.638211,37.0847097 163.168628,35.2607593 162.15228,33.8782528 C161.19753,32.4615259 160.215402,31.0619092 159.315404,29.6109618 C159.565214,29.6075398 160.06141,29.6006957 160.31122,29.5972736 C161.269392,31.0961296 162.227565,32.5915636 163.250757,34.0459331 C164.096002,32.7968864 164.835164,31.4725547 165.721474,30.2508844 C166.022614,29.7170452 166.669381,29.6383382 167.175843,29.3953729 Z M117.128424,29.9668546 C118.042111,30.452785 118.230323,31.5581058 118.476711,32.4649479 C117.484317,32.091945 117.138691,31.0140006 116.324244,30.4390969 C115.475576,30.0489837 114.421586,30.0558277 113.596873,30.5041157 C112.727674,30.9524037 112.48813,32.4923243 113.456569,32.9611446 C114.842498,33.6181774 116.48508,33.594223 117.802567,34.4223581 C118.801805,35.086235 118.87709,36.585091 118.226901,37.5158875 C117.751237,38.227673 116.861505,38.4295737 116.094967,38.6691169 L114.510559,38.6691169 C113.699535,38.45695 112.785848,38.2584714 112.245165,37.5603741 C111.769501,36.9101854 111.748969,36.061518 111.591554,35.3018239 C112.127349,35.5325675 112.426254,35.9800873 112.708558,36.4470818 L112.920615,36.7978964 C113.064501,37.0300966 113.218004,37.2548343 113.408661,37.4474465 C114.503715,38.1113234 116.043636,38.15581 117.114736,37.4166481 C117.829944,36.9478279 118.048955,35.7843323 117.347435,35.2025845 C115.951241,34.2067692 114.031473,34.4394683 112.625012,33.4573412 C111.666839,32.6634266 111.820832,31.0619092 112.666077,30.2406182 C113.860371,29.1626738 115.783561,29.1968943 117.128424,29.9668546 Z M159.110082,33.9740701 C158.915025,35.5139907 159.59259,37.3242529 158.648105,38.6656948 C158.589931,38.4021973 158.477003,37.8786243 158.418828,37.6185488 L158.367498,37.3208309 C158.23746,37.1976372 157.973962,36.9512499 157.843925,36.8246342 C158.062936,36.1299589 158.275102,35.4318616 158.463315,34.7269202 C157.36826,34.490799 155.684614,35.31209 155.085756,34.0459331 C156.423776,33.9330056 157.76864,33.9569599 159.110082,33.9740701 Z M142.201754,29.6451823 C142.109358,29.8094404 141.92799,30.1345348 141.835595,30.298793 C140.13826,30.4356748 138.430659,30.3090591 136.729902,30.3501237 C136.72648,31.4109579 136.72648,32.471792 136.729902,33.5360483 C138.379329,33.5360483 140.032177,33.5326262 141.685025,33.5463144 C141.681603,33.7311049 141.678181,34.0972638 141.674759,34.2820542 C140.025333,34.2854763 138.372484,34.2820542 136.723058,34.2888983 C136.72648,35.4421277 136.729902,36.5953572 136.729902,37.7485866 C138.523054,37.7520086 140.316206,37.7417425 142.109358,37.7656968 C142.099092,37.9436432 142.07856,38.2995359 142.068294,38.4774823 C140.011644,38.4843264 137.954995,38.4740603 135.898345,38.4877484 C135.860703,35.5311009 135.898345,32.5710314 135.874391,29.6143838 C137.982371,29.6075398 140.093773,29.5596311 142.201754,29.6451823 Z M20.7533503,-1.42108547e-14 C23.2240673,0.355892757 25.6810961,0.982127128 27.8848936,2.17984314 C32.6107388,4.64713812 36.1970427,9.18819281 37.4734658,14.3691701 C38.7156684,19.2353191 37.9354419,24.5873986 35.320999,28.878644 C32.9358331,32.8516391 29.0586553,35.8972598 24.6271061,37.2489679 C19.6548736,38.7923105 14.0564068,38.1934525 9.54957252,35.5858537 C5.09064692,33.0501178 1.73362005,28.652789 0.511949721,23.6702904 C-0.524930139,19.1429239 0.0260192253,14.3109953 2.04844826,10.1326774 C2.28114737,10.2148065 2.74654559,10.3824868 2.97582265,10.4646159 C1.76784051,7.11785514 0.902062935,3.6581669 0.162901055,0.177946379 C3.51308384,0.869199618 6.82220207,1.81368424 10.0731455,2.83345387 C10.0868337,2.65208545 10.110788,2.28592655 10.1210542,2.10455813 C12.4822657,1.01634759 14.9940473,0.23269911 17.59138,-1.42108547e-14 L20.7533503,-1.42108547e-14 Z M10.5522319,2.67946182 L10.4940571,2.83345387 C10.982269,3.1847839 11.5313172,3.43742382 12.0937344,3.67038581 L12.9414536,4.01494685 C13.3643931,4.18972467 13.7815024,4.37565582 14.1727563,4.60607357 C17.5434714,6.25207757 19.4700831,10.4132852 18.4434694,14.0406537 C17.8617216,16.162322 16.1199003,17.9109874 13.998232,18.4961572 C11.007364,19.3619348 7.64691509,18.1710629 5.63475219,15.8543379 C4.39597164,14.3999685 3.84844432,12.5383756 3.03741948,10.844463 C2.82525264,10.4201293 2.40434102,11.0395196 2.32221192,11.2379982 C-0.199835794,16.4463518 0.0328633168,22.8661096 2.85262901,27.9102051 C5.56973333,32.9098139 10.7164901,36.4961178 16.3560215,37.2729222 C21.0373801,37.9710195 25.97197,36.7698815 29.7909731,33.9706481 C33.678417,31.1816808 36.3955214,26.8254166 37.1689037,22.1029934 C37.8396247,18.1607967 37.1825919,14.0064332 35.3107329,10.47146 C33.0350724,6.11861778 28.9525719,2.74105864 24.2301488,1.3688183 C19.7335806,0.0273763659 14.7031734,0.485930495 10.5522319,2.67946182 Z M144.094145,30.3535457 L144.094145,33.8098119 L144.094145,33.8098119 C145.384256,33.7824356 146.6949,33.9330056 147.971323,33.6968844 C149.453069,33.3444137 149.55573,30.9250274 148.091094,30.4904276 C146.777029,30.2200859 145.425321,30.3809221 144.094145,30.3535457 Z M15.7468974,20.4569894 C17.5776918,21.6718157 18.7446094,23.8208604 18.7446094,26.0212358 C18.8130503,28.2387215 17.7043075,30.4425189 15.8872012,31.7155199 C13.9948099,33.0946044 11.3701009,33.368368 9.22105613,32.4375716 C6.9145973,31.4862429 5.24806103,29.179784 5.07353669,26.6885347 C4.77581871,23.6566022 6.76744934,20.6144035 9.65223389,19.6596528 C11.6609747,18.9615555 13.9948099,19.2455852 15.7468974,20.4569894 Z M29.8559919,20.4022367 C31.6388778,21.5554661 32.8160615,23.5847392 32.9324111,25.7064076 C33.0966693,27.9718019 32.028991,30.2748387 30.1981965,31.6231247 C28.0696841,33.2622846 24.9522004,33.4299648 22.6457416,32.0577245 C20.4282559,30.7949896 19.0525935,28.2147671 19.2579163,25.6687651 C19.3982202,23.0337899 21.2255926,20.6144035 23.6928876,19.7144055 C25.7050505,18.9649775 28.0696841,19.2010987 29.8559919,20.4022367 Z M75.6806065,7.20682833 C75.6840285,13.1372336 75.6771844,19.0642168 75.6840285,24.9912 C75.6669183,26.1957601 75.5779451,27.5987989 74.5889739,28.4372001 C73.702664,29.1900502 72.4673055,29.0497463 71.3893611,29.1250313 C71.3859391,28.8683779 71.382517,28.3619151 71.379095,28.1086837 C72.2311844,27.9889121 73.3125508,28.201079 73.928519,27.4482289 C74.5034227,26.6440481 74.452092,25.5969021 74.4863125,24.6558396 C74.4794684,18.8383618 74.4828905,13.0243061 74.4828905,7.20682833 L75.6806065,7.20682833 L75.6806065,7.20682833 Z M25.3491577,24.08778 C23.7647505,24.5771325 23.4122798,26.9383441 24.7845202,27.8691405 C26.0335669,28.9162865 28.1757675,27.9923342 28.2544745,26.3634404 C28.4905957,24.837208 26.7829949,23.4854999 25.3491577,24.08778 Z M11.2913938,24.0432934 C9.78911572,24.4265625 9.18683567,26.5174324 10.3092667,27.609065 C11.2982379,28.7794047 13.3891078,28.4029797 13.9195249,26.9691425 C14.6860632,25.3778912 12.954508,23.4547015 11.2913938,24.0432934 Z M128.219275,2.12509041 C130.097978,3.38440324 131.151968,5.51633773 131.576302,7.68591473 C130.580486,7.69960292 129.584671,7.69960292 128.588856,7.69618087 C128.157678,6.21785711 127.415094,4.73611131 126.03601,3.9353526 C123.305217,2.32014701 119.417773,2.63839727 117.159223,4.938012 C115.441356,6.70378761 114.777479,9.23267941 114.71246,11.6383776 C114.674818,14.0474978 115.085463,16.5900778 116.522722,18.5885525 C118.870246,21.9421573 124.567952,22.3904453 127.192661,19.1463459 C128.205587,17.952052 128.540947,16.381333 128.7976,14.8824769 C129.789994,14.885899 130.782387,14.885899 131.77478,14.8961651 C131.453108,17.2128901 130.717368,19.5912119 129.006345,21.2680143 C126.634868,23.7045108 122.921948,24.2349279 119.701803,23.6463361 C117.196865,23.1980481 114.897251,21.6855039 113.572919,19.4988166 C111.766079,16.5558573 111.420452,12.9182227 111.926915,9.55777375 C112.450488,6.15626029 114.442119,2.82318774 117.662264,1.37566239 C120.998758,-0.092395235 125.16681,0.0444865946 128.219275,2.12509041 Z M79.1026522,7.20682833 C79.1129183,10.7349575 79.085542,14.2630866 79.1094963,17.7877938 C79.1163404,19.4201096 79.6262252,21.2851245 81.1764119,22.0995714 C83.4144298,23.2048922 86.4566285,22.6642089 87.9999711,20.6383579 C89.0950258,19.2729616 89.4474965,17.4763876 89.4543406,15.7619427 C89.4646067,12.9113786 89.4474965,10.0573924 89.4577626,7.20682833 L89.8335539,7.20695507 C90.1212593,7.20720856 90.4535779,7.20796901 90.6520566,7.21025038 L90.6520566,23.3349299 L90.6520566,23.3349299 L89.4543406,23.3349299 L89.4543406,23.3349299 C89.4509185,22.2022328 89.4509185,21.0661136 89.4919831,19.9368385 C88.0478798,23.4752338 83.3459889,24.7448128 80.1497982,22.8524215 C78.4319312,21.8018534 77.9049362,19.6562307 77.8946701,17.7706835 C77.8638716,14.2493985 77.8946701,10.7281134 77.8844039,7.20682833 L79.1026522,7.20682833 L79.1026522,7.20682833 Z M142.359168,6.92964263 C144.090723,7.16576378 145.84281,8.37374593 146.020757,10.2284947 C146.315053,13.838753 145.870187,17.4832317 146.250034,21.0832238 C146.718854,21.3364552 147.266381,21.2782804 147.779688,21.3330331 C147.766,22.0140203 147.759156,22.6915853 147.755734,23.3691504 C146.715432,23.6155377 145.538248,23.9680084 144.542433,23.3931047 C143.799849,22.9893033 143.727986,22.068773 143.502131,21.3501434 C141.219626,23.8413927 137.123438,24.4915814 134.231809,22.7394939 C132.469456,21.5623102 132.17516,19.0881711 132.852725,17.2197342 C133.318123,15.9227788 134.556903,15.1083319 135.819638,14.7045305 C137.907086,13.9619466 140.175903,14.0201214 142.280461,13.3630886 C144.097567,12.8360936 143.662967,10.0505483 142.088826,9.48591079 C140.620768,8.94180552 138.923434,8.96918189 137.465642,9.5235533 C136.356899,9.93762083 135.994163,11.1387589 135.720399,12.1722167 C134.844355,12.1687947 133.971734,12.1653726 133.099112,12.1585285 C133.273636,10.6528284 133.749301,9.05473303 135.03599,8.12735863 C137.116594,6.59428214 139.905561,6.55663964 142.359168,6.92964263 Z M167.435919,7.72697928 C170.207776,9.45511238 171.11804,12.9558652 170.988002,16.0425504 C166.939722,16.0425504 162.891442,16.0357063 158.843162,16.0459725 C158.993732,17.209468 159.10666,18.4516706 159.835555,19.4235316 C161.218062,21.4048961 164.147333,21.8258077 166.238203,20.8163042 C167.299037,20.3166856 167.808922,19.2079427 168.216145,18.181329 C169.088767,18.181329 169.961389,18.1847511 170.837432,18.1950172 C170.351502,20.1661156 169.232493,22.1064155 167.316147,22.9721931 C164.84543,24.0843579 161.755323,23.9748525 159.448864,22.517061 C157.320352,21.1311325 156.338225,18.554332 156.136324,16.1144134 C155.86256,13.4725941 156.642787,10.6357182 158.583087,8.75701505 C160.865591,6.51215305 164.69486,6.07755324 167.435919,7.72697928 Z M71.0711109,8.95891575 C72.655518,10.7075811 73.0387872,13.1611879 73.0387872,15.4402704 C68.6791009,15.4471145 64.3194146,15.4368483 59.9597283,15.4436924 C60.0384354,17.3874144 60.4490809,19.4406419 61.8144771,20.9121215 C64.0216966,23.3999488 68.4737781,23.1877819 70.485941,20.5630729 C71.1121754,19.7794244 71.4064713,18.8007193 71.7144555,17.8630788 L72.9155935,17.8630788 L72.9155935,17.8630788 C72.5083701,19.8410212 71.5399311,21.8634502 69.6680721,22.8284671 C66.8038198,24.3239011 62.7829161,23.9953847 60.6407154,21.4048961 C58.7962328,19.1976766 58.5224691,16.1041473 58.9536469,13.3596666 C59.3608703,10.8205086 60.835772,8.24713024 63.3372875,7.29580152 C65.9243541,6.33762871 69.1958298,6.82355921 71.0711109,8.95891575 Z M106.208677,0.927374396 C106.232631,8.40112229 106.232631,15.8748702 106.208677,23.3486181 C106.108297,23.3463367 105.974457,23.3436751 105.829463,23.3410135 L105.38333,23.333409 C105.238336,23.3311276 105.104496,23.3292265 105.004116,23.3280858 C105.000694,22.1817005 105.000694,21.0353152 105.014383,19.8889298 C104.186247,21.2748584 103.118569,22.6334105 101.554694,23.2083142 C98.9676277,24.2041295 95.6413993,23.7763738 93.7934946,21.5691543 C91.7710655,19.1121255 91.5144121,15.6455931 92.0961599,12.6307708 C92.5615581,10.1429436 94.2794251,7.76462179 96.815161,7.12127719 C99.9360667,6.13915006 103.782446,7.51481245 104.983584,10.7041591 C105.024649,7.45321562 104.99385,4.20227217 105.004116,0.94790667 C105.104496,0.946765988 105.238336,0.944864852 105.38333,0.942583488 L105.829463,0.934978942 C105.974457,0.932317351 106.108297,0.92965576 106.208677,0.927374396 Z M51.5962485,0.965016899 C53.7829358,1.03003577 56.2810292,1.74866537 57.3623956,3.82926918 C58.4814046,6.15283824 58.1699984,9.29769828 56.195478,11.07374 C55.4015634,11.8163239 54.3509954,12.1722167 53.3380698,12.497311 C54.7137322,12.7300102 56.1783678,13.31518 56.8388226,14.6360896 C58.2384393,17.3463499 57.1057422,20.5493847 58.1802645,23.3520401 C57.6703797,23.341774 57.1570729,23.3315079 56.6471881,23.3212417 C55.7677223,20.7547074 56.7601156,17.9315197 55.7095475,15.412894 C55.0182943,13.8250648 53.1909219,13.2227847 51.5825604,13.1714541 C48.7080419,13.1201234 45.8301015,13.16461 42.955583,13.1577659 C42.9624271,16.5455912 42.952161,19.9334164 42.9624271,23.3212417 C42.500451,23.3280858 42.0384748,23.3315079 41.5764986,23.338352 C41.5730766,15.8714481 41.5730766,8.40796639 41.5764986,0.944484625 C44.9164153,0.958172807 48.2563319,0.906842121 51.5962485,0.965016899 Z M109.921596,7.20682833 L109.921596,23.3349299 L109.921596,23.3349299 L108.703348,23.3349299 L108.703348,23.3349299 L108.703348,7.21025038 L108.703348,7.21025038 C108.804869,7.21025038 108.940229,7.20987015 109.08687,7.20936318 L109.538074,7.20771553 C109.684715,7.20720856 109.820075,7.20682833 109.921596,7.20682833 Z M157.094497,6.67983329 C157.097919,7.62431791 157.097919,8.56538049 157.104763,9.50986511 C155.705146,9.66043513 154.182336,9.80758309 153.083859,10.7862882 C151.66371,11.9976924 151.283863,13.9619466 151.266753,15.7414104 C151.246221,18.2703022 151.270175,20.8026161 151.259909,23.3315079 L148.563337,23.3315079 L148.563337,23.3315079 C148.563337,17.9315197 148.570181,12.5349535 148.559915,7.13496537 C149.398316,7.12812128 150.236717,7.12127719 151.07854,7.11785514 C151.081962,8.26081842 151.085384,9.4037817 151.07854,10.546745 C151.773216,9.34902896 152.556864,8.10340431 153.819599,7.43268335 C154.805148,6.84066944 155.982332,6.79618284 157.094497,6.67983329 Z M97.6056535,8.03154135 C95.3539474,8.45245298 93.7900725,10.4988363 93.3383625,12.6513031 C92.7463486,15.3170767 92.9482493,18.3763856 94.6558501,20.6075595 C96.5482414,23.115919 100.688917,23.3588842 102.882448,21.1277104 C104.535296,19.450908 105.079401,16.9767689 104.966474,14.6908424 C104.853546,12.6786795 104.196514,10.5706993 102.653171,9.19503691 C101.304885,7.97678862 99.3440528,7.66196041 97.6056535,8.03154135 Z M143.440534,15.1014879 C141.284645,15.9775316 138.834461,15.6763915 136.719636,16.6550966 C134.981237,17.4113687 134.844355,20.3337958 136.712792,21.0182049 C138.80024,21.7402566 141.507078,21.2577481 142.851942,19.3858891 C143.727986,18.1402645 143.361827,16.5250589 143.440534,15.1014879 Z M30.5404011,6.72431988 C32.3403972,8.23002001 33.2472393,10.7041591 32.8605481,13.017462 C32.4875451,15.5942624 30.5061806,17.8493906 27.990977,18.5303777 C25.4723514,19.2900718 22.5636125,18.4140281 20.879966,16.3915991 C19.4427068,14.7455951 18.9020235,12.3843835 19.4495509,10.2695593 C20.0210325,7.87412725 22.002397,5.90645095 24.3841408,5.30759294 C26.5092312,4.75322153 28.8772869,5.28706067 30.5404011,6.72431988 Z M62.851357,8.86309847 C61.0787373,10.1258333 60.2540243,12.2817222 59.9494622,14.362326 C63.9156132,14.3760142 67.8817642,14.3862803 71.8444932,14.3589039 C71.6528586,12.7505424 71.2695895,11.0840062 70.1676908,9.83838151 C68.4566679,7.70644701 65.0585765,7.23078265 62.851357,8.86309847 Z M25.0582838,10.0676586 C23.651823,10.7520677 23.5320514,12.945599 24.8632272,13.7703121 C26.2012471,14.810614 28.360558,13.6539625 28.2681627,11.973738 C28.3434477,10.396175 26.416836,9.23610145 25.0582838,10.0676586 Z M10.9628774,10.0197499 C9.45375524,10.6562504 9.31002932,12.9866636 10.7233342,13.8079546 C11.9621148,14.6908424 13.8681942,13.8250648 14.0632509,12.3296308 C14.4088775,10.6767827 12.4514673,9.19845895 10.9628774,10.0197499 Z M160.287265,10.4372395 C159.411222,11.2893289 159.116926,12.5075772 158.850006,13.6539625 C161.991444,13.6744948 165.12946,13.6813389 168.270898,13.6471184 C168.021089,12.5554858 167.750747,11.3954123 166.929456,10.5741213 C165.266342,8.70226232 162.008554,8.59275686 160.287265,10.4372395 Z M49.5875077,2.15246677 C47.4008205,2.19353132 45.2141332,2.09771404 43.0308681,2.19010927 C42.8529217,5.43078659 43.0103358,8.68515209 42.9590051,11.9326735 C45.5118512,11.9326735 48.0646973,11.9360955 50.6175435,11.9395902 C51.7741949,11.9429396 52.9616448,11.8265901 54.0156349,11.3201273 C57.1125863,9.96841924 57.5814065,4.90721359 54.6931999,3.10037344 C53.1840778,2.12851245 51.3190628,2.12851245 49.5875077,2.15246677 Z M75.6806065,0.944484625 L75.6806065,4.18858399 L75.6806065,4.18858399 L74.4828905,4.18858399 L74.4828905,4.18858399 L74.4828905,0.944484625 L74.4828905,0.944484625 L75.6806065,0.944484625 L75.6806065,0.944484625 Z M109.921596,0.944484625 L109.921596,4.18858399 L109.921596,4.18858399 L108.703348,4.18858399 L108.703348,4.18858399 L108.703348,0.944484625 L108.703348,0.944484625 L109.921596,0.944484625 L109.921596,0.944484625 Z" id="Combined-Shape"></path>
        </g>
    </g>
</svg>