<?xml version="1.0" encoding="UTF-8"?>
<svg width="172px" height="25px" viewBox="0 0 172 25" version="1.1" xmlns="http://www.w3.org/2000/svg" xmlns:xlink="http://www.w3.org/1999/xlink">
    <title>skinceuticals</title>
    <g id="partners" stroke="none" stroke-width="1" fill="none" fill-rule="evenodd">
        <g id="skinceuticals" transform="translate(0.149453, 0.231300)" fill="#54301A" fill-rule="nonzero">
            <path d="M106.35858,19.9386 C106.4304,20.2806 106.5672,20.9646 106.6356,21.31002 C107.15202,20.88252 107.6787,20.46528 108.23274,20.08224 C107.9181,20.60892 107.57268,21.11508 107.22384,21.61782 C107.6787,22.29498 108.13356,22.97556 108.49266,23.71086 C107.71632,23.29362 107.1486,22.61304 106.6698,21.89142 C106.57404,22.54806 106.49196,23.21496 106.25256,23.8374 C105.99948,22.55832 105.85926,21.17664 106.35858,19.9386 Z M52.326,19.92834 C52.43544,20.27718 52.65432,20.97828 52.76376,21.32712 C53.26992,20.85174 53.81028,20.41056 54.42588,20.08566 C54.06336,20.6055 53.66322,21.09798 53.26308,21.59046 C53.72136,22.27788 54.18306,22.97556 54.42246,23.77926 C53.77608,23.24232 53.23914,22.59936 52.7364,21.93588 C52.63038,22.57542 52.5312,23.22864 52.26444,23.82714 C52.00794,22.54122 51.97716,21.19716 52.326,19.92834 Z M73.26324,20.13354 C73.86516,21.2895 74.43972,22.46598 74.8296,23.71086 C74.46708,23.3757 74.11482,23.02686 73.7694,22.67802 C73.37268,22.68486 72.97596,22.6917 72.58266,22.70538 C72.52908,22.79772 72.45764,22.92122 72.3802467,23.0551067 L72.1421133,23.4671533 C72.06472,23.60104 71.99328,23.72454 71.9397,23.81688 C71.86446,22.4523 72.69552,21.3066 73.26324,20.13354 Z M57.2912522,20.2948678 L57.5918916,20.2986084 C57.63897,20.29941 57.68172,20.300265 57.71592,20.30112 C57.72618,21.47418 57.75354,22.65408 57.5586,23.81688 C56.91564,22.75326 57.20976,21.46734 57.1653,20.29428 L57.2912522,20.2948678 L57.2912522,20.2948678 Z M22.03506,20.14722 C22.83876,20.85174 23.62878,21.56994 24.39486,22.31208 C24.40512,21.64176 24.41538,20.96802 24.42564,20.2977 C24.54876,20.29428 24.79158,20.29086 24.91128,20.29086 C24.92154,21.3921 24.91812,22.49334 24.91812,23.59458 C24.14178,22.80798 23.35176,22.03848 22.572,21.2553 C22.5378,22.1103 22.49334,22.9653 22.35312,23.81004 C21.9744771,22.9916829 21.9814567,22.0965502 22.0113693,21.2069015 L22.0291672,20.6744285 C22.0340829,20.4975955 22.0370143,20.32164 22.03506,20.14722 Z M77.38776,20.27718 C78.01362,20.31822 78.63606,20.3661 79.26192,20.42082 C79.1559,21.04326 78.99516,21.65202 78.81048,22.25052 C79.0875,22.72932 79.35768,23.20812 79.61076,23.7006 C78.9507,23.25258 78.40008,22.67118 77.9247,22.03848 C77.8734,22.63014 77.80158,23.2218 77.70924,23.81004 C77.3682923,23.0381723 77.3519006,22.2072944 77.3695532,21.3775514 L77.3831772,20.8252175 C77.3872743,20.6416022 77.3898646,20.4587031 77.38776,20.27718 Z M17.8866,20.13696 C18.49878,21.28266 19.06992,22.45572 19.47006,23.69376 C19.10754,23.36886 18.7587,23.0337 18.41328,22.69512 C18.14994,22.68828 17.6301,22.66776 17.36676,22.6575 C17.03844,23.02002 16.7067,23.37912 16.3647,23.73138 C16.69644,22.46598 17.28126,21.2895 17.8866,20.13696 Z M2.12724,20.13012 C2.736,21.2895 3.3174,22.4694 3.6936,23.72796 C3.31056,23.35518 2.94462,22.96872 2.5821,22.57884 C1.77156,22.61988 1.1628,23.13288 0.56088,23.6151 C0.99522,22.41468 1.53216,21.25872 2.12724,20.13012 Z M125.0181,20.25666 C125.57556,20.2977 126.13644,20.31822 126.69048,20.41056 C127.03248,21.39894 127.18296,22.51386 126.77256,23.50908 C126.47844,23.2902 126.18774,23.07132 125.9073,22.84218 L126.62208,22.74642 C126.51948,22.5036 126.31086,22.01112 126.20826,21.76488 C126.29034,21.45024 126.37584,21.13902 126.46134,20.82438 C126.2493,20.7936 125.82864,20.73888 125.6166,20.7081 C125.66106,21.71358 125.5995,22.71564 125.514,23.7177 C125.005024,23.0737341 124.968575,22.300897 124.992351,21.5205634 L125.008814,21.0949129 C125.020467,20.811623 125.030171,20.53026 125.0181,20.25666 Z M96.48504,20.1267 C97.08354,21.27582 97.65126,22.44546 98.05824,23.68008 C97.79148,23.43042 97.25796,22.92426 96.9912,22.67118 C96.64236,22.68486 96.29694,22.70196 95.95152,22.71906 C95.6574,23.02344 95.35302,23.31756 95.03838,23.59458 C95.27436,22.3497 95.92416,21.24504 96.48504,20.1267 Z M159.39936,19.97622 C159.797546,20.7823629 159.813599,21.6722608 159.794006,22.5574226 L159.780745,23.0872434 C159.776747,23.263189 159.774094,23.4382371 159.77556,23.61168 C158.97528,22.83534 158.17842,22.05216 157.39524,21.26214 C157.3884,21.9906 157.38498,22.71906 157.38156,23.45094 L156.8754,23.43726 C156.8754,22.34286 156.8754,21.25188 156.88224,20.1609 C157.65858,20.84832 158.4315,21.546 159.20442,22.24368 C159.24888,21.48444 159.31386,20.72862 159.39936,19.97622 Z M11.40228,20.00358 C12.11022,20.5713 12.46932,21.41604 12.81474,22.22658 C13.15674,21.41262 13.53978,20.5884 14.23746,20.01384 C14.03226,20.7232457 13.7600559,21.4080833 13.4725366,22.0862204 L13.0362324,23.1006343 C12.9637543,23.2696102 12.8919343,23.4387257 12.82158,23.60826 C12.31884,22.42152 11.75112,21.25188 11.40228,20.00358 Z M63.41364,19.91466 C63.65646,21.12534 63.62568,22.36338 63.59148,23.59116 C62.81856,22.81482 62.04222,22.04532 61.27614,21.26556 C61.24536,21.99402 61.21458,22.72248 61.1838,23.45436 L60.71184,23.45094 C60.70842,22.34628 60.71184,21.2382 60.72552,20.13354 C61.5258,20.8449 62.3124,21.57336 63.05454,22.3497 C63.11952,21.53232 63.16056,20.70126 63.41364,19.91466 Z M146.05452,20.6055 C145.37394,20.70468 144.68652,20.72178 144.01278,20.86884 C143.35956,21.29976 143.76312,22.20948 143.78022,22.84218 C144.44028,22.83534 145.10034,22.81824 145.76382,22.78404 C145.69542,22.97556 145.56546,23.35518 145.49706,23.54328 C144.94644,23.50224 144.38898,23.49882 143.85204,23.36544 C142.86708,22.81824 142.64478,21.17664 143.65026,20.53368 C144.36504,20.00016 145.29528,20.36952 146.05452,20.6055 Z M30.47904,20.3148 C30.50982,20.46186 30.56454,20.75598 30.5919,20.90304 C29.82582,20.7765 28.49544,20.4174 28.386,21.55626 C28.05768,23.03028 29.83608,23.2218 30.85524,22.97898 C30.3012,23.24916 29.73348,23.69376 29.08026,23.49198 C27.84564,23.35176 27.3258,21.5118 28.22526,20.69784 C28.79982,20.07198 29.73006,20.35926 30.47904,20.3148 Z M33.41682,20.25666 C34.1487,20.3148 34.88058,20.37636 35.60562,20.49948 C35.06184,20.62944 34.51464,20.74572 33.96402,20.85174 L33.95718,21.3066 C34.47702,21.41262 35.00028,21.51522 35.52012,21.64176 C35.14734,21.68622 34.39836,21.78198 34.02558,21.82644 C34.01532,22.10688 33.9948,22.67118 33.98796,22.95162 C34.37784,23.02002 35.16444,23.15682 35.55774,23.22522 C34.85322,23.3757 34.13502,23.44068 33.42024,23.5125 C33.4134,22.42836 33.4134,21.3408 33.41682,20.25666 Z M115.78752,20.31138 C116.47836,20.31822 117.1692,20.32506 117.86004,20.3319 C118.35936,20.97486 118.80738,21.81618 118.37988,22.61646 C117.94896,23.64246 116.68356,23.38938 115.79778,23.50566 C115.78752,22.43862 115.7841,21.375 115.78752,20.31138 Z M6.26202,20.2635 C6.92892,20.31138 7.6095,20.28744 8.26614,20.44818 C9.3366,21.00222 9.24084,22.73958 8.21484,23.29362 C7.58214,23.4783 6.91182,23.44068 6.26202,23.50224 C6.25176,22.42152 6.25176,21.3408 6.26202,20.2635 Z M38.09538,20.30112 C38.81358,20.3148 39.53178,20.33532 40.24998,20.35242 C40.72194,21.05694 41.15628,21.99744 40.5954,22.78404 C40.07214,23.6493 38.94354,23.3757 38.10222,23.49882 C38.09196,22.4352 38.09196,21.36816 38.09538,20.30112 Z M103.4721,20.60892 C102.59658,20.81412 100.79766,20.46528 100.9755,21.87432 C100.9755,23.17734 102.26826,23.12946 103.17456,22.73616 C103.14378,22.92426 103.08222,23.29704 103.05144,23.48514 C102.3777,23.42358 101.55348,23.67324 101.01312,23.1534 C100.21626,22.54122 100.14786,21.16638 100.9926,20.56104 C101.71764,19.99674 102.68892,20.35926 103.4721,20.60892 Z M165.7161,20.60892 C164.82348,20.80728 163.02456,20.47554 163.21608,21.90852 C163.2537,23.17734 164.52252,23.12604 165.41172,22.73958 C165.38436,22.92768 165.32622,23.29704 165.29886,23.48514 C164.6217,23.42358 163.8009,23.67324 163.25712,23.1534 C162.4671,22.54464 162.38844,21.17322 163.22634,20.5713 C163.95138,19.9899 164.9295,20.35926 165.7161,20.60892 Z M111.1158,20.23272 C111.82032,20.31822 112.53168,20.39688 113.22936,20.54394 C112.83606,20.61234 112.05288,20.75256 111.65958,20.82096 L111.66642,21.41604 C111.95712,21.41262 112.5351,21.39894 112.8258,21.39552 C112.79502,21.54942 112.73346,21.86064 112.70268,22.01796 C112.44276,22.0077 111.92292,21.98376 111.663,21.9735 C111.65958,22.1616 111.65616,22.54122 111.65274,22.72932 C112.0392,22.8798 112.81212,23.18418 113.19858,23.33466 C112.67532,23.3757 111.6288,23.45436 111.10554,23.49198 C111.10896,22.40784 111.10896,21.32028 111.1158,20.23272 Z M69.53202,20.57814 C68.75568,20.73888 67.91094,20.6739 67.19274,21.05694 C67.05594,21.6315 67.14486,22.22658 67.18248,22.80798 C67.87674,22.8285 68.57442,22.82166 69.26868,22.7943 C69.24816,22.894848 69.215328,23.0581872 69.1849584,23.2097069 L69.13188,23.47488 L69.13188,23.47488 C68.39316,23.427 67.44924,23.69718 66.9294,23.01318 C66.2967,22.3326 66.28644,21.08088 67.1004,20.53368 C67.82202,20.01384 68.7591,20.3661 69.53202,20.57814 Z M140.45256,20.61234 C139.85064,20.69442 139.25214,20.76966 138.65022,20.83806 C139.09824,21.19716 139.5531,21.55284 140.01822,21.89826 C140.10714,22.059 140.28156,22.38048 140.37048,22.54122 C140.26446,22.7772 140.05584,23.24916 139.94982,23.48514 C139.43682,23.47488 138.92382,23.45778 138.41766,23.43726 C138.3732,23.2389 138.29112,22.8456 138.25008,22.64724 C138.81096,22.79088 139.365,22.92768 139.93272,23.05764 C139.38894,22.12056 138.18852,21.546 138.26718,20.32164 C139.0059,20.29086 139.7583,20.3319 140.45256,20.61234 Z M90.96174,20.04804 C91.06434,21.07746 91.10538,22.1103 91.11564,23.14656 C91.3995,22.91742 91.96722,22.45914 92.24766,22.23 C92.16102,22.20378 92.0455,22.1692 91.9202267,22.13196 L91.5342733,22.01796 C91.40862,21.9811 91.29234,21.94728 91.20456,21.9222 C91.42002,21.6999 91.85436,21.2553 92.06982,21.033 L91.38582,20.9133 C91.64916,20.70126 91.91592,20.48922 92.18952,20.28402 C92.38104,21.29634 92.50758,22.32576 92.49048,23.3586 C91.82016,23.40306 91.14984,23.43726 90.47952,23.46804 C90.53424,22.32576 90.24696,21.05694 90.96174,20.04804 Z M148.6503,20.2977 C148.79052,20.30454 149.06754,20.3148 149.20434,20.32164 L149.20434,23.42358 L149.20434,23.42358 L148.92903,23.44581 C148.825575,23.45436 148.72212,23.46291 148.65372,23.46804 C148.64688,22.41126 148.64688,21.35448 148.6503,20.2977 Z M129.54618,20.03778 C129.95316,20.44134 130.34988,20.85516 130.74318,21.27924 C131.18436,20.87226 131.62896,20.47212 132.09408,20.08566 C131.51952,21.1356 130.94838,22.20606 130.94838,23.43384 L130.71734,23.45512 C130.6763,23.45892 130.6383,23.46234 130.6098,23.46462 C130.5756,22.23342 130.03866,21.1356 129.54618,20.03778 Z M47.2644,20.2977 C47.98944,20.29086 48.7179,20.35584 49.39848,20.61234 C48.8034,20.69784 48.2049,20.77308 47.6064,20.84148 C48.07152,21.21084 48.54348,21.56994 49.02228,21.9222 C49.0941,22.0761 49.23774,22.3839 49.30956,22.5378 C49.22064,22.76694 49.04964,23.22864 48.96072,23.45778 C48.43062,23.46462 47.90394,23.46462 47.37384,23.45778 C47.3499,23.22522 47.30202,22.76352 47.27466,22.53096 C47.6748,22.76694 48.07836,22.9995 48.4785,23.22864 C48.7242,22.61088 48.3454895,22.2380811 47.9382971,21.8747199 L47.7505097,21.7068273 C47.6268632,21.5942021 47.5092,21.47904 47.41488,21.35448 C47.33964,21.00564 47.29176,20.65338 47.2644,20.2977 Z M152.21394,20.23956 C152.93214,20.31822 153.65718,20.39004 154.37196,20.53368 C153.8316,20.64312 153.28782,20.73888 152.74746,20.8278 L152.76114,21.4263 C153.0279,21.41262 153.56142,21.3921 153.82818,21.38184 C153.81792,21.53916 153.79398,21.8538 153.78372,22.01454 C153.52722,22.00428 153.01422,21.98376 152.7543,21.97692 L152.75088,22.8456 C153.1476,22.8456 153.54774,22.84902 153.94788,22.85244 C153.97866,22.9995 154.0368,23.29362 154.06758,23.44068 C153.44514,23.4441 152.81928,23.44752 152.20026,23.45094 C152.19342,22.38048 152.19342,21.31002 152.21394,20.23956 Z M168.2982,20.23956 C169.0164,20.31822 169.74486,20.39004 170.45964,20.53368 C169.9227,20.6397 169.38234,20.73546 168.8454,20.82438 L168.7941,21.3921 C169.24212,21.40236 169.69356,21.41604 170.14842,21.42972 L170.0766,21.5973 C169.42338,21.75462 168.88986,22.11372 168.57522,22.72248 C169.05402,22.78062 169.53624,22.83534 170.02188,22.88664 C170.05266,23.02344 170.11764,23.30046 170.14842,23.43726 C169.52598,23.4441 168.90354,23.44752 168.28452,23.45094 C168.2811,22.38048 168.2811,21.31002 168.2982,20.23956 Z M82.17576,20.30796 C82.79136,20.3148 83.4138,20.32164 84.03282,20.3319 C84.03282,20.43108 84.0294,20.63286 84.0294,20.73204 L82.7298,20.75256 L82.7298,20.75256 L82.72638,21.41604 C83.14362,21.4092 83.56086,21.40578 83.9781,21.40236 C83.96784,21.52206 83.9439,21.75804 83.93364,21.87432 C83.38644,22.05216 82.57248,21.91878 82.51776,22.77036 C82.97604,22.80798 83.44116,22.83876 83.90628,22.86612 C83.93364,23.01318 83.9952,23.30046 84.02256,23.44752 C83.40696,23.4441 82.79136,23.4441 82.17576,23.4441 C82.17234,22.39758 82.17234,21.35448 82.17576,20.30796 Z M116.3313,20.63628 C116.32446,21.45708 116.34156,22.2813 116.37234,23.10552 C116.88534,22.95504 117.39834,22.80114 117.91134,22.65066 L117.909425,22.0108738 C117.905731,21.6914184 117.892188,21.372948 117.84294,21.05694 C117.35046,20.87568 116.83746,20.76282 116.3313,20.63628 Z M6.81606,20.61918 C6.80922,21.37158 6.80922,22.12056 6.8058,22.87296 C7.32906,22.8285 7.85232,22.7772 8.37558,22.7259 C8.38242,22.18554 8.40978,21.64176 8.33796,21.10482 C7.85232,20.88594 7.32564,20.76624 6.81606,20.61918 Z M38.70756,20.61576 C38.66652,21.36474 38.63916,22.1103 38.6118,22.85928 C39.14532,22.82166 39.67884,22.78062 40.21236,22.73274 C40.23288,22.19238 40.23288,21.65202 40.2021,21.11508 C39.71646,20.90646 39.2103,20.76966 38.70756,20.61576 Z M96.51924,21.37158 C96.0165,21.41946 95.97546,22.3326 96.4953,22.3839 C97.01172,22.33944 97.05618,21.41604 96.51924,21.37158 Z M2.18538,21.36816 C1.67922,21.38526 1.58346,22.29156 2.09646,22.38048 C2.6163,22.37022 2.71206,21.45024 2.18538,21.36816 Z M73.31112,21.36816 C72.80496,21.39552 72.72288,22.30524 73.24272,22.37706 C73.75572,22.35654 73.84122,21.43656 73.31112,21.36816 Z M17.784,21.43656 C17.45226,21.82986 17.53092,22.04874 18.01998,22.10004 C18.35172,21.71358 18.27306,21.49128 17.784,21.43656 Z M78.27354,20.73546 C77.75712,21.00906 77.75712,21.27924 78.27354,21.54942 C78.78996,21.28266 78.78996,21.00906 78.27354,20.73546 Z M15.26688,-5.68434189e-14 C15.44472,2.73942 15.3045,5.48568 15.30108,8.22852 C15.27372,10.63962 15.4242,13.05414 15.2019,15.4584 C14.98986,10.3968 15.26346,5.3181 14.97618,0.25992 C10.0719,0.27018 5.16762,0.26334 0.26676,0.26676 C0.26676,3.59442 0.25992,6.92208 0.26676,10.24632 C0.26334,12.05892 0.3762,13.89204 0,15.67728 L0,-5.68434189e-14 L15.26688,-5.68434189e-14 Z M55.76652,4.4118 C57.8664,6.69636 59.9526,8.9946 62.05932,11.27574 C62.0046,9.35028 62.20296,7.41114 61.95672,5.49594 C61.73442,5.19574 61.4160644,5.00954 61.0831657,4.84292642 L60.6819232,4.64634914 C60.5493267,4.57992889 60.41962,4.5106 60.29802,4.43232 C61.6797,4.4118 63.06138,4.41522 64.44648,4.43232 C63.97794,4.71618 63.47862,4.95216 63.05112,5.29416 C62.78094,5.75244 62.8254,6.30648 62.7912,6.81606 C62.76384,9.37764 62.84592,11.94264 62.75358,14.50422 C60.01416,11.95974 57.6612,9.03222 55.04832,6.3612 C55.08936,8.68338 54.891,11.02266 55.24326,13.32774 C55.8144,13.50558 56.38896,13.68342 56.95326,13.88862 C55.52028,13.99464 54.08388,13.96044 52.64748,13.98438 C53.27334,13.5432 54.32328,13.30722 54.28224,12.3633 C54.378,10.29078 54.33696,8.21142 54.3096,6.1389 C54.37116,5.49822 53.89464,5.16306 53.3927867,4.86894 L53.1421227,4.72407556 C52.9767711,4.62814667 52.8181,4.53188 52.6851,4.42548 C53.7111,4.41864 54.7371,4.41864 55.76652,4.4118 Z M79.26534,2.24694 C79.3611,3.25584 79.4295,4.26474 79.39872,5.27706 C79.1561137,4.99811625 78.9582614,4.67475258 78.7659198,4.34589904 L78.5352435,3.95113118 C78.185662,3.36250125 77.8030762,2.8065375 77.15862,2.51028 C74.95272,1.5048 71.97732,2.2914 70.7598,4.44942 C69.20712,7.25382 70.0929,11.26206 72.89388,12.93786 C74.26188,13.77234 76.18734,13.92282 77.50062,12.89682 C78.34878,12.18204 78.75576,11.10816 79.42266,10.2429 C79.37478,11.32362 79.22088,12.39066 79.05672,13.4577 C76.46778,14.52816 73.29402,14.81886 70.82478,13.29354 C68.30424,11.75112 67.33638,8.33454 68.29398,5.60538 C69.0498,3.5739 70.92738,2.09646 72.9999,1.56636 C75.1032,0.9747 77.2578,1.60056 79.26534,2.24694 Z M28.21842,1.56978 C28.32102,2.48634 28.41336,3.40632 28.46808,4.3263 C28.3022843,4.12407391 28.1437619,3.89566446 27.9821825,3.66376952 L27.7861589,3.38527521 C27.2559906,2.64590983 26.6522087,1.96382348 25.63632,2.08278 C23.9058,1.94598 22.96188,4.18266 23.94,5.48568 C25.16436,6.97338 27.37368,7.15806 28.557,8.70048 C29.6172,10.13688 29.24784,12.38382 27.7875,13.41324 C26.13564,14.71968 23.85108,14.42898 21.97008,13.84758 C21.78882,12.79422 21.65544,11.73402 21.63834,10.66356 C22.56858,11.80584 23.16024,13.72446 24.96258,13.6116 C26.66232,13.74498 27.89352,11.6964 27.02142,10.24974 C26.11512,8.9091 24.36066,8.62524 23.17734,7.59924 C21.41262,6.24492 21.51864,3.0951 23.45094,1.94256 C24.88392,1.03968 26.6418,1.37142 28.21842,1.56978 Z M9.1143,0.8892 C6.40224,2.0178 3.56364,3.5397 2.1717,6.26202 C1.5561,7.37694 1.70316,9.06642 2.95488,9.6786 C4.63068,10.45494 6.45012,9.59652 8.04726,9.02538 C6.60744,9.10746 4.66146,9.96246 3.62178,8.57394 C3.48498,7.43166 4.33314,6.50826 5.10264,5.78322 C7.59924,3.57732 11.04318,2.62314 14.33664,2.93778 C14.35032,6.72714 14.34006,10.5165 14.34006,14.30586 C11.60406,14.30244 8.86464,14.30586 6.12522,14.29902 C8.85438,13.19436 11.6451,11.6109 13.05756,8.91252 C13.74498,7.71894 13.43718,5.88924 12.03498,5.38992 C10.45836,4.87692 8.83386,5.54724 7.353,6.07392 C8.62866,6.0363 9.98982,5.5917 11.21418,6.13548 C12.02472,6.77502 11.457,7.9173 10.93716,8.55 C8.49186,11.38176 4.55202,12.6027 0.8892,12.22992 C0.88578,8.45082 0.8892,4.6683 0.8892,0.8892 C3.63204,0.88578 6.37146,0.8892 9.1143,0.8892 Z M94.563,4.42206 C96.1533,4.46994 97.7436,4.48704 99.3339,4.4289 C98.86878,4.7025 98.3763,4.93164 97.94538,5.25654 C97.7436,6.6861 97.8804,8.1396 97.83936,9.58284 C97.8804,10.63278 97.72992,11.84004 98.44812,12.71556 C99.73746,14.17248 102.78126,13.66974 103.06854,11.56644 C103.32162,9.43236 103.19508,7.26408 103.11642,5.11974 C102.6171,4.90428 102.11436,4.68882 101.6253,4.45968 C102.90438,4.39128 104.1903,4.43574 105.4728,4.52124 C105.04188,4.70934 104.62464,4.91454 104.21424,5.13684 C103.70124,7.51032 104.52204,10.0548 103.6602,12.37698 C103.07538,13.86126 101.3346,14.3469 99.87768,14.23062 C98.4276,14.2272 96.65946,13.69026 96.21486,12.12732 C95.72238,9.87696 96.23196,7.5411 95.92416,5.2668 C95.50692,4.93164 95.01444,4.7025 94.563,4.42206 Z M136.426579,4.63874906 L137.098086,4.82433552 C137.209735,4.854975 137.321265,4.885185 137.4327,4.91454 C137.44296,5.76612 137.45664,6.61428 137.45322,7.46586 C136.94364,6.7545 136.58454,5.90634 135.90738,5.3352 C134.3205,4.37418 131.8581,4.76748 130.986,6.52194 C130.06944,8.36874 130.24728,10.80378 131.57766,12.41118 C132.60366,13.63896 134.58042,14.00832 135.93474,13.12254 C136.61874,12.57876 137.00178,11.76822 137.52162,11.0808 C137.42928,11.93238 137.31984,12.78396 137.2275,13.63554 C135.11394,14.36742 132.62076,14.57946 130.6269,13.39614 C128.5749,12.19914 127.96614,9.40158 128.75616,7.27092 C129.4641,5.42412 131.4306,4.33656 133.33896,4.2237 C134.393175,4.1211 135.41661,4.36285125 136.426579,4.63874906 Z M170.38098,4.35024 C170.42886,5.11632 170.47332,5.8824 170.52804,6.64506 C169.90902,5.8995 169.44732,4.54176 168.24348,4.7196 C166.88574,4.69566 166.212,6.62454 167.20722,7.48296 C168.49656,8.52606 170.46648,8.91936 171,10.7046 L171,11.79216 C170.69562,12.7053 170.13132,13.60818 169.17714,13.93992 C167.922,14.50422 166.55742,14.07672 165.3057,13.74498 C165.22362,12.90024 165.14154,12.0555 165.07656,11.20734 C165.72636,12.13758 166.19832,13.66974 167.59026,13.60134 C168.87276,13.77918 169.89534,12.22992 169.12242,11.15604 C168.1956,10.089 166.66686,9.79146 165.7332,8.72442 C164.83716,7.50348 165.10734,5.49252 166.44798,4.68882 C167.62788,3.95694 169.07454,4.29894 170.38098,4.35024 Z M146.34522,4.0185 C147.35754,6.8229 148.36644,9.6273 149.37534,12.4317 C149.56002,13.17042 150.2406,13.5603 150.79464,14.0049 C149.27958,13.9365 147.76452,13.98438 146.25288,13.9194 C146.70432,13.71762 147.15576,13.52952 147.61404,13.34142 C147.3507,12.43854 147.13182,11.51172 146.69406,10.67382 C145.64754,10.47888 144.5805,10.57806 143.52714,10.63278 C143.2638,11.5254 143.00046,12.41802 142.76448,13.3209 C143.27064,13.51242 143.78364,13.70052 144.28638,13.91256 C143.04492,13.97754 141.80346,13.95702 140.562,13.9878 C141.1434,13.55346 141.90606,13.22856 142.13178,12.47274 C143.0757,9.89064 144.02988,7.30512 144.88146,4.68882 C145.37052,4.46652 145.85616,4.24422 146.34522,4.0185 Z M37.6542,4.4631 C37.13778,4.69908 36.61794,4.92138 36.09468,5.13684 C36.07074,7.8147 35.95104,10.50282 36.13572,13.17042 C36.59742,13.48848 37.107,13.72788 37.59948,14.00148 C35.97498,13.9536 34.3539,13.96044 32.73282,13.97412 C33.25608,13.5945 34.25472,13.52268 34.17606,12.69162 C34.28208,10.16424 34.27182,7.62318 34.12818,5.0958 C33.6528,4.8906 33.18426,4.67514 32.71572,4.45968 C34.36074,4.39812 36.00918,4.39128 37.6542,4.4631 Z M49.9149,4.4118 L49.92174,4.80168 C49.53528,4.87692 49.14882,4.95216 48.76236,5.0274 C48.73158,7.73946 48.5982,10.47204 48.80682,13.17726 C49.2309,13.48506 49.69944,13.72788 50.14746,13.99806 C48.54348,13.95018 46.9395,13.9878 45.33552,13.92282 C45.82116,13.71078 46.31364,13.51584 46.80612,13.3209 C46.92582,10.5849 46.94976,7.83522 46.78902,5.0958 C46.31364,4.88718 45.84168,4.67514 45.36972,4.45626 C46.88478,4.39812 48.39984,4.42206 49.9149,4.4118 Z M158.00058,4.40496 L157.9869,4.68198 C157.56624,4.92822 156.65652,4.80852 156.75912,5.5062 C156.67362,8.08488 156.70098,10.6704 156.77622,13.24908 C157.89456,13.45428 159.1326,13.67658 160.19964,13.13622 C160.81866,12.69504 161.1333,11.9529 161.60184,11.3715 C161.48556,12.24702 161.31456,13.1157 161.14698,13.98096 C158.5683,13.9536 155.9862,13.95702 153.40752,13.98096 C153.90684,13.58424 154.94994,13.51242 154.86102,12.68478 C154.89522,10.2087 154.98414,7.71552 154.80972,5.24628 C154.37538,4.9248 153.8829,4.69224 153.41778,4.42206 C154.94652,4.4631 156.47526,4.46994 158.00058,4.40496 Z M90.77022,4.3947 C90.74628,5.24286 90.72234,6.09102 90.65736,6.93576 C90.41112,6.38856 90.17856,5.84136 89.95626,5.28732 C88.87896,5.04792 87.7743,5.00688 86.6799,5.0103 C86.67306,6.22782 86.67306,7.44534 86.68332,8.66286 C87.4152,8.62524 88.15392,8.65944 88.87554,8.51238 C89.23122,8.11224 89.50482,7.65054 89.82288,7.22304 C89.8605,8.42688 89.86392,9.63414 89.85366,10.8414 C89.54244,10.3626 89.262,9.86328 88.91316,9.41526 C88.17444,9.29556 87.42546,9.31266 86.68332,9.2853 C86.68674,10.54044 86.5944,11.80584 86.77224,13.05072 C87.80508,13.59792 89.07732,13.50216 90.1683,13.1841 C90.81468,12.80106 91.15326,12.06234 91.63548,11.5083 C91.50552,12.33252 91.35504,13.15674 91.20114,13.98096 C88.58826,13.93308 85.97538,14.00148 83.36592,13.93992 C83.81736,13.73814 84.27564,13.54662 84.73392,13.35852 C84.91176,10.85166 84.87756,8.33454 84.816,5.82426 C84.9528,4.959 83.9268,4.82562 83.40696,4.41522 C85.8591,4.44942 88.31466,4.51098 90.77022,4.3947 Z M42.65082,4.45284 C40.5612,5.13342 39.16584,6.85026 37.75338,8.42688 C39.44628,10.28052 40.71168,12.57876 42.8526,13.97754 C41.85396,13.9707 40.85532,13.9707 39.85668,13.97412 C38.64258,12.3633 37.33614,10.8243 36.06048,9.26136 C37.29852,7.89336 38.6118,6.59034 39.74724,5.13342 C39.31632,4.9077 38.88882,4.68198 38.46474,4.45284 C39.8601,4.40496 41.25546,4.40154 42.65082,4.45284 Z M108.36612,3.85776 C108.5337,3.99456 108.87228,4.26474 109.03986,4.39812 C112.00158,4.25448 115.0146,4.69224 117.94212,4.13136 L117.668267,5.80184 C117.62102,6.08 117.57162,6.35778 117.51804,6.6348 C117.38124,6.28938 117.10764,5.5917 116.97426,5.24286 C115.96878,5.13342 114.9633,5.08554 113.9544,5.0616 C114.02964,7.7634 113.77314,10.48914 114.08094,13.17726 C114.32718,13.33116 114.58539,13.46454 114.847448,13.59108 L115.63704,13.96386 L115.63704,13.96386 C113.87232,13.9536 112.1076,14.01516 110.3463,13.89546 C110.8935,13.70394 111.44754,13.53636 112.005,13.3722 C112.21704,10.61226 112.06656,7.84206 112.10418,5.08212 C111.10896,5.09238 110.1069,5.03082 109.12878,5.20182 C108.72864,5.62932 108.4311,6.1389 108.0891,6.60744 C108.17802,5.69088 108.2772,4.77432 108.36612,3.85776 Z M125.35326,4.4289 C124.89498,4.69566 124.41618,4.93848 123.98184,5.24628 C123.8211,7.94124 123.8724,10.66014 123.98526,13.35852 C124.46748,13.53636 124.95996,13.71762 125.43534,13.91598 C123.81768,14.00148 122.1966,13.95702 120.57552,13.96386 C121.09194,13.58766 122.11794,13.52952 122.01534,12.70188 C122.03586,10.20528 122.13846,7.69158 121.95378,5.20182 C121.50234,4.93164 121.02354,4.7196 120.55842,4.48362 C122.15556,4.42548 123.75612,4.40154 125.35326,4.4289 Z M145.13454,5.9679 C144.7002,7.25382 144.26244,8.53974 143.83152,9.82908 C144.69678,9.82908 145.56888,9.82566 146.43756,9.82224 C146.00322,8.53632 145.5723,7.2504 145.13454,5.9679 Z" id="Combined-Shape"></path>
        </g>
    </g>
</svg>