<?xml version="1.0" encoding="UTF-8"?>
<svg width="253.798669px" height="454.698056px" viewBox="0 0 253.798669 454.698056" version="1.1" xmlns="http://www.w3.org/2000/svg" xmlns:xlink="http://www.w3.org/1999/xlink">
    <title>arrow-left</title>
    <g id="Page-1" stroke="none" stroke-width="1" fill="none" fill-rule="evenodd">
        <g id="arrow-left" transform="translate(126.8993, 227.349) scale(-1, 1) translate(-126.8993, -227.349)translate(0, 0)" fill="#8AD4DF" fill-rule="nonzero">
            <path d="M14.3286695,0.527875395 C20.6086695,-1.0521246 27.5986695,0.987875395 32.0886695,5.6678754 C105.998669,80.7178754 179.888669,155.787875 253.798669,230.847875 C179.858669,303.617875 105.928669,376.397875 31.9886695,449.157875 C27.6386695,453.547875 21.0786695,455.607875 15.0186695,454.317875 C8.13866948,453.017875 2.30866948,447.497875 0.608669478,440.717875 C-1.08133052,434.397875 0.838669478,427.237875 5.59866948,422.727875 C71.8786695,358.767875 138.158669,294.807875 204.438669,230.857875 C138.188669,164.587875 71.9286695,98.3378754 5.66866948,32.0878754 C1.37866948,27.9478754 -0.731330522,21.7178754 0.228669478,15.8378754 C1.26866948,8.5078754 7.10866948,2.1678754 14.3286695,0.527875395 Z" id="Path"></path>
        </g>
    </g>
</svg>
