<?xml version="1.0" encoding="UTF-8"?>
<svg width="21px" height="21px" viewBox="0 0 21 21" version="1.1" xmlns="http://www.w3.org/2000/svg"
    xmlns:xlink="http://www.w3.org/1999/xlink">
    <title>instagram</title>
    <g id="Page-1" stroke="none" stroke-width="1" fill="none" fill-rule="evenodd">
        <path
            d="M10.5,0 C7.6475,0 7.29138,0.013125 6.17137,0.063 C5.05312,0.1155 4.29187,0.291375 3.6225,0.55125 C2.93212,0.819 2.34588,1.17862 1.76225,1.76225 C1.17862,2.34588 0.818125,2.93125 0.55125,3.6225 C0.291375,4.29187 0.114625,5.05312 0.063,6.17137 C0.0105,7.29138 0,7.6475 0,10.5 C0,13.3525 0.013125,13.7086 0.063,14.8286 C0.1155,15.946 0.291375,16.7081 0.55125,17.3775 C0.819,18.067 1.17862,18.6541 1.76225,19.2378 C2.34588,19.8205 2.93125,20.1819 3.6225,20.4488 C4.29275,20.7078 5.054,20.8854 6.17137,20.937 C7.29138,20.9895 7.6475,21 10.5,21 C13.3525,21 13.7086,20.9869 14.8286,20.937 C15.946,20.8845 16.7081,20.7078 17.3775,20.4488 C18.067,20.181 18.6541,19.8205 19.2378,19.2378 C19.8205,18.6541 20.1819,18.0696 20.4488,17.3775 C20.7078,16.7081 20.8854,15.946 20.937,14.8286 C20.9895,13.7086 21,13.3525 21,10.5 C21,7.6475 20.9869,7.29138 20.937,6.17137 C20.8845,5.054 20.7078,4.291 20.4488,3.6225 C20.181,2.93212 19.8205,2.34588 19.2378,1.76225 C18.6541,1.17862 18.0696,0.818125 17.3775,0.55125 C16.7081,0.291375 15.946,0.114625 14.8286,0.063 C13.7086,0.0105 13.3525,0 10.5,0 Z M10.5,1.89 C13.3026,1.89 13.6369,1.904 14.7438,1.95212 C15.7675,2.00025 16.3231,2.17 16.6924,2.31525 C17.1841,2.50512 17.5324,2.73263 17.9016,3.09925 C18.2682,3.46675 18.4958,3.81587 18.6856,4.30762 C18.8291,4.67687 19.0006,5.2325 19.047,6.25625 C19.0969,7.364 19.1082,7.6965 19.1082,10.5 C19.1082,13.3035 19.0951,13.6369 19.0435,14.7438 C18.9901,15.7675 18.8195,16.3231 18.6751,16.6924 C18.4791,17.1841 18.256,17.5324 17.8885,17.9016 C17.5219,18.2682 17.1675,18.4958 16.681,18.6856 C16.3135,18.8291 15.7491,19.0006 14.7254,19.047 C13.6106,19.0969 13.2825,19.1082 10.4738,19.1082 C7.66413,19.1082 7.336,19.0951 6.22213,19.0435 C5.1975,18.9901 4.63312,18.8195 4.26562,18.6751 C3.76775,18.4791 3.42563,18.256 3.059,17.8885 C2.69062,17.5219 2.45525,17.1675 2.2715,16.681 C2.12713,16.3135 1.95738,15.7491 1.904,14.7254 C1.86463,13.6229 1.85063,13.2825 1.85063,10.4869 C1.85063,7.69037 1.86463,7.34912 1.904,6.2335 C1.95738,5.20975 2.12713,4.64625 2.2715,4.27875 C2.45525,3.78 2.69062,3.43875 3.059,3.07037 C3.42563,2.70375 3.76775,2.4675 4.26562,2.28463 C4.63312,2.13937 5.18525,1.96875 6.209,1.91625 C7.32463,1.87688 7.65275,1.86375 10.4606,1.86375 L10.5,1.89 Z M10.5,5.10825 C7.52063,5.10825 5.10825,7.52325 5.10825,10.5 C5.10825,13.4794 7.52325,15.8918 10.5,15.8918 C13.4794,15.8918 15.8918,13.4768 15.8918,10.5 C15.8918,7.52063 13.4768,5.10825 10.5,5.10825 Z M10.5,14 C8.56625,14 7,12.4338 7,10.5 C7,8.56625 8.56625,7 10.5,7 C12.4338,7 14,8.56625 14,10.5 C14,12.4338 12.4338,14 10.5,14 Z M17.3652,4.89562 C17.3652,5.59125 16.8,6.15562 16.1052,6.15562 C15.4096,6.15562 14.8452,5.59037 14.8452,4.89562 C14.8452,4.20087 15.4105,3.636499 16.1052,3.636499 C16.7991,3.63563 17.3652,4.20087 17.3652,4.89562 Z"
            id="instagram" fill="white" fill-rule="nonzero"></path>
    </g>
</svg>