<?xml version="1.0" encoding="UTF-8"?>
<svg width="21px" height="19px" viewBox="0 0 21 19" version="1.1" xmlns="http://www.w3.org/2000/svg"
    xmlns:xlink="http://www.w3.org/1999/xlink">
    <title>X</title>
    <g id="Page-1" stroke="none" stroke-width="1" fill="none" fill-rule="evenodd">
        <path
            d="M20.9597,2.99747 C20.1854,3.33784 19.3585,3.56972 18.4879,3.67559 C19.3751,3.14097 20.0576,2.29834 20.3805,1.29297 C19.5484,1.77859 18.6261,2.13209 17.6444,2.32897 C16.8604,1.48984 15.743,0.96484 14.5022,0.96484 C12.1249,0.96484 10.1972,2.89247 10.1972,5.26722 C10.1972,5.60847 10.2366,5.93659 10.3084,6.25072 C6.72962,6.08184 3.55775,4.36334 1.435,1.76547 C1.06137,2.39722 0.85225,3.13134 0.85225,3.93109 C0.85225,5.42734 1.6135,6.74247 2.76675,7.51509 C2.06062,7.49234 1.3965,7.29809 0.81725,6.97609 L0.81725,7.02947 C0.81725,9.1163 2.29862,10.8567 4.27,11.2531 C3.90862,11.3502 3.52712,11.4027 3.136,11.4027 C2.86125,11.4027 2.59787,11.3765 2.3345,11.3275 C2.88662,13.0363 4.47387,14.2823 6.363,14.3173 C4.893,15.4715 3.03012,16.1592 1.02375,16.1592 C0.6825,16.1592 0.342125,16.1391 0,16.1006 C1.91537,17.3203 4.172,18.0335 6.61237,18.0335 C14.5346,18.0335 18.8615,11.4745 18.8615,5.79572 C18.8615,5.61284 18.8615,5.42822 18.8484,5.24447 C19.6892,4.64159 20.4234,3.87947 21.0009,3.01497 L20.9597,2.99747 Z"
            id="X" fill="white" fill-rule="nonzero"></path>
    </g>
</svg>