<svg width="16" height="16" viewBox="0 0 16 16" fill="none" xmlns="http://www.w3.org/2000/svg">
<rect width="16" height="16" fill="white"/>
<path fill-rule="evenodd" clip-rule="evenodd" d="M12.9194 6.0095C12.5137 6.78963 12.1385 7.58842 11.7432 8.37457C11.8369 8.37406 11.9309 8.37355 12.025 8.37253C12.1495 8.11269 12.276 7.85335 12.4068 7.59639C12.7605 7.59741 13.114 7.5969 13.4678 7.5969C13.5929 7.85632 13.7126 8.11871 13.8453 8.37406C13.9361 8.37457 14.0267 8.37457 14.1179 8.37406C13.7317 7.58392 13.359 6.78513 12.9643 6C12.9528 6.00204 12.9304 6.00704 12.9194 6.0095ZM12.9399 6.52028C13.0903 6.79718 13.2167 7.08713 13.3542 7.37114C13.2432 7.37165 13.1323 7.37157 13.0212 7.37148C12.8533 7.37131 12.6853 7.37123 12.5175 7.37267C12.6554 7.0867 12.7934 6.80125 12.9399 6.52028ZM9.91898 6.97654C9.69712 6.65156 9.47688 6.32498 9.25452 6.00051C9.15097 6.00093 9.04785 6.00153 8.94472 6.00204C9.22187 6.41742 9.5181 6.82135 9.77913 7.24682C9.80076 7.62158 9.78167 7.99837 9.78719 8.37355C9.87522 8.37406 9.96324 8.37457 10.0513 8.37457C10.0523 8.03093 10.0508 7.68738 10.0508 7.34375C10.0397 7.23927 10.1096 7.15582 10.1629 7.07407C10.4098 6.71882 10.6478 6.35763 10.8953 6.00246C10.7921 6.00153 10.6895 6.00093 10.587 6C10.3606 6.32303 10.1448 6.65301 9.91898 6.97654ZM6.60136 6.2629L6.57482 6.32031C6.56142 6.34889 6.54777 6.3773 6.53327 6.40495C6.20498 7.06016 5.88136 7.71834 5.55248 8.37313C5.64458 8.37355 5.73719 8.37406 5.8298 8.37457C5.95913 8.11735 6.08371 7.85768 6.21685 7.60241C6.35348 7.60453 6.49035 7.60368 6.62723 7.60283C6.8473 7.60139 7.06754 7.59995 7.28745 7.61089C7.3982 7.87057 7.52617 8.12185 7.65355 8.37313C7.74472 8.37355 7.83546 8.37406 7.92697 8.37406L7.34901 7.18627C7.15617 6.79039 6.96289 6.39477 6.76818 6C6.69304 6.07336 6.64597 6.16732 6.60136 6.2629ZM6.7491 6.52927C6.89505 6.80846 7.02633 7.09502 7.1638 7.37912C7.06178 7.37937 6.95975 7.37928 6.85773 7.37928C6.68057 7.37928 6.50341 7.3792 6.32617 7.38005C6.46508 7.09544 6.60637 6.81193 6.7491 6.52927ZM3.13551 7.92323C2.85141 7.39362 2.5741 6.86019 2.29237 6.32862C2.27965 6.30623 2.26786 6.283 2.25624 6.25951L2.23309 6.21235C2.19417 6.13374 2.15227 6.05665 2.08188 6.00297C1.9506 6.78038 1.85104 7.56331 1.73621 8.34327C1.82127 8.34082 1.90684 8.3398 1.99199 8.33691C2.00954 8.21462 2.02625 8.09225 2.04279 7.96979L2.09181 7.60224C2.13277 7.29592 2.17551 6.98986 2.22894 6.68557C2.52695 7.24936 2.81011 7.82299 3.13017 8.37457C3.4638 7.83122 3.72051 7.24156 4.05116 6.69685C4.13529 7.24504 4.21849 7.79314 4.30363 8.34132C4.38047 8.34082 4.45738 8.34031 4.53481 8.34031C4.41227 7.56035 4.30117 6.77852 4.17142 6C3.80701 6.62985 3.48449 7.28464 3.13551 7.92323ZM12.3064 8.96991C12.2683 8.98576 12.2352 9.00764 12.2072 9.03563C12.1792 9.06362 12.1573 9.09678 12.1415 9.13528C12.1256 9.17378 12.1177 9.21584 12.1177 9.26164C12.1177 9.30743 12.1256 9.3495 12.1415 9.388C12.1573 9.42642 12.1792 9.45966 12.2072 9.48765C12.2352 9.51563 12.2683 9.53751 12.3064 9.55337C12.3446 9.56915 12.386 9.57712 12.4307 9.57712C12.4555 9.57712 12.4791 9.57432 12.5015 9.56864C12.5238 9.56304 12.5447 9.55524 12.5638 9.54531C12.583 9.53548 12.6001 9.52369 12.6151 9.51012C12.6251 9.50113 12.634 9.49163 12.6418 9.48188L12.6529 9.46687L12.6028 9.43125C12.5915 9.44872 12.5792 9.46331 12.5659 9.47493C12.5526 9.48654 12.5385 9.4957 12.5235 9.50249C12.5085 9.50927 12.4933 9.51411 12.4777 9.5169C12.4622 9.5197 12.4464 9.52115 12.4307 9.52115C12.3922 9.52115 12.3577 9.51411 12.3271 9.49994C12.2966 9.48587 12.2708 9.46687 12.2496 9.44312C12.2284 9.41938 12.2121 9.39182 12.2009 9.36044C12.1896 9.32906 12.1839 9.29607 12.1839 9.26164C12.1839 9.22721 12.1896 9.19422 12.2009 9.16284C12.2121 9.13146 12.2284 9.1039 12.2496 9.08015C12.2708 9.05641 12.2966 9.03741 12.3271 9.02333C12.3577 9.00917 12.3922 9.00213 12.4307 9.00213C12.4464 9.00213 12.4623 9.00434 12.4782 9.00892C12.494 9.01341 12.5088 9.01935 12.5227 9.02673C12.5365 9.0341 12.5488 9.0425 12.5596 9.05217C12.5668 9.05853 12.5729 9.06497 12.5781 9.07142L12.585 9.081L12.6384 9.04114C12.6118 9.00722 12.5799 8.98297 12.5426 8.96821C12.5053 8.95345 12.468 8.94616 12.4307 8.94616C12.386 8.94616 12.3446 8.95405 12.3064 8.96991ZM10.2482 8.96991C10.21 8.98576 10.177 9.00764 10.149 9.03563C10.121 9.06362 10.0991 9.09678 10.0832 9.13528C10.0674 9.17378 10.0595 9.21584 10.0595 9.26164C10.0595 9.30743 10.0674 9.3495 10.0832 9.388C10.0991 9.42642 10.121 9.45966 10.149 9.48765C10.177 9.51563 10.21 9.53751 10.2482 9.55337C10.2864 9.56915 10.3277 9.57712 10.3724 9.57712C10.4171 9.57712 10.4585 9.56915 10.4967 9.55337C10.5348 9.53751 10.5678 9.51563 10.5959 9.48765C10.6239 9.45966 10.6458 9.42642 10.6616 9.388C10.6775 9.3495 10.6854 9.30743 10.6854 9.26164C10.6854 9.21584 10.6775 9.17378 10.6616 9.13528C10.6458 9.09678 10.6239 9.06362 10.5959 9.03563C10.5678 9.00764 10.5348 8.98576 10.4967 8.96991C10.4585 8.95405 10.4171 8.94616 10.3724 8.94616C10.3277 8.94616 10.2864 8.95405 10.2482 8.96991ZM10.269 9.49994C10.2384 9.48587 10.2126 9.46687 10.1914 9.44312C10.1702 9.41938 10.1539 9.39182 10.1426 9.36044C10.1312 9.32906 10.1256 9.29607 10.1256 9.26164C10.1256 9.22721 10.1312 9.19422 10.1426 9.16284C10.1539 9.13146 10.1702 9.1039 10.1914 9.08015C10.2126 9.05641 10.2384 9.03741 10.269 9.02333C10.2995 9.00917 10.334 9.00213 10.3724 9.00213C10.4109 9.00213 10.4454 9.00917 10.4759 9.02333C10.5064 9.03741 10.5323 9.05641 10.5535 9.08015C10.5747 9.1039 10.5909 9.13146 10.6023 9.16284C10.6136 9.19422 10.6192 9.22721 10.6192 9.26164C10.6192 9.29607 10.6136 9.32906 10.6023 9.36044C10.5909 9.39182 10.5747 9.41938 10.5535 9.44312C10.5323 9.46687 10.5064 9.48587 10.4759 9.49994C10.4454 9.51411 10.4109 9.52115 10.3724 9.52115C10.334 9.52115 10.2995 9.51411 10.269 9.49994ZM8.84932 8.95549C8.83125 8.96168 8.81539 8.97084 8.80183 8.98305C8.78826 8.99518 8.77766 9.01002 8.77002 9.02757C8.76239 9.04513 8.75858 9.06514 8.75858 9.08779C8.75858 9.11552 8.76578 9.14104 8.7802 9.16454C8.79462 9.18803 8.81082 9.20931 8.82896 9.22856C8.81082 9.23704 8.7936 9.24697 8.77723 9.25825C8.76078 9.26953 8.74628 9.28242 8.73356 9.29683C8.72084 9.31125 8.71083 9.32753 8.70345 9.3456C8.69607 9.36375 8.69243 9.38376 8.69243 9.40581C8.69243 9.43295 8.69751 9.45712 8.70769 9.47832C8.71787 9.49952 8.73152 9.51741 8.74882 9.53217C8.76604 9.54693 8.78614 9.55804 8.80903 9.56567C8.83193 9.5733 8.85585 9.57712 8.8807 9.57712C8.9214 9.57712 8.95583 9.56787 8.98407 9.54956C9.0068 9.5348 9.02834 9.51563 9.04878 9.49214L9.06388 9.47365L9.14868 9.56185H9.23518L9.10034 9.42277L9.21059 9.23704H9.1419L9.05964 9.37952L8.9214 9.23704C8.93667 9.22916 8.95219 9.22025 8.96805 9.21033C8.9839 9.20049 8.99815 9.18913 9.01079 9.17641C9.02359 9.16369 9.03386 9.14953 9.04183 9.13401C9.04971 9.11849 9.0537 9.10076 9.0537 9.081C9.0537 9.05895 9.04988 9.03953 9.04225 9.02291C9.03462 9.0062 9.02419 8.99221 9.01079 8.98093C8.99756 8.96965 8.98221 8.961 8.96465 8.95506C8.9471 8.94913 8.92844 8.94616 8.90868 8.94616C8.88714 8.94616 8.86738 8.9493 8.84932 8.95549ZM8.86416 9.1798C8.85712 9.17157 8.85034 9.16267 8.84381 9.15309C8.83727 9.14342 8.83159 9.13316 8.82684 9.12213C8.82201 9.11111 8.81964 9.10042 8.81964 9.09033C8.81964 9.06319 8.82829 9.04174 8.8455 9.02588C8.86272 9.01002 8.88409 9.00213 8.90953 9.00213C8.93268 9.00213 8.95236 9.00934 8.96847 9.02376C8.98458 9.03817 8.99264 9.05726 8.99264 9.081C8.99264 9.09627 8.98908 9.10984 8.98204 9.12171C8.975 9.13358 8.96593 9.14401 8.9549 9.15309C8.94388 9.16216 8.93183 9.17013 8.91886 9.17726C8.90588 9.18438 8.89367 9.19125 8.88239 9.19803C8.87722 9.19405 8.8712 9.18803 8.86416 9.1798ZM8.8349 9.51266C8.82014 9.50698 8.80717 9.49918 8.79589 9.48934C8.78461 9.47942 8.77554 9.46746 8.76875 9.4533C8.76197 9.43914 8.75858 9.42362 8.75858 9.40666C8.75858 9.39139 8.76053 9.37757 8.76451 9.3651C8.7685 9.35264 8.77469 9.34093 8.78317 9.32991C8.79165 9.31888 8.80276 9.30837 8.81667 9.29853C8.82701 9.29115 8.83906 9.28326 8.85288 9.27512L8.86713 9.26673L9.02571 9.43295C9.01613 9.44541 9.00621 9.45695 8.99603 9.46772C8.98586 9.4784 8.975 9.48773 8.96338 9.4957C8.95176 9.50359 8.9393 9.50978 8.92607 9.51436C8.91275 9.51886 8.89791 9.52115 8.88154 9.52115C8.86509 9.52115 8.84957 9.51835 8.8349 9.51266ZM6.70457 8.95634C6.68134 8.96312 6.66064 8.97355 6.64224 8.98772C6.62384 9.00188 6.60917 9.0196 6.59814 9.04114C6.58712 9.0626 6.58161 9.08779 6.58161 9.11662C6.58161 9.14427 6.58593 9.16733 6.59475 9.18574C6.60357 9.20414 6.6151 9.21941 6.62944 9.23153C6.64394 9.24366 6.6603 9.25375 6.67871 9.26164C6.69711 9.26953 6.71602 9.27665 6.73553 9.28284C6.75503 9.28903 6.77395 9.29522 6.79235 9.3015C6.81067 9.30769 6.82712 9.31549 6.84154 9.32482C6.85595 9.33415 6.86757 9.34568 6.87631 9.35959C6.88513 9.37341 6.88945 9.3908 6.88945 9.41175C6.88945 9.4293 6.88547 9.44482 6.87749 9.45839C6.86969 9.47196 6.8596 9.48341 6.84747 9.49273C6.83534 9.50206 6.82161 9.5091 6.80634 9.51394C6.79108 9.51877 6.77581 9.52115 6.76055 9.52115C6.72883 9.52115 6.70144 9.51445 6.67828 9.50122C6.65971 9.49053 6.64445 9.47713 6.6324 9.46085L6.62401 9.44821L6.56888 9.48807C6.59204 9.5197 6.62019 9.54243 6.65327 9.55634C6.68634 9.57016 6.7212 9.57712 6.758 9.57712C6.78175 9.57712 6.80532 9.57313 6.82881 9.56524C6.85231 9.55736 6.87351 9.54599 6.89242 9.53132C6.91133 9.51657 6.9266 9.49833 6.93821 9.47662C6.94983 9.45483 6.9556 9.4304 6.9556 9.40326C6.9556 9.36705 6.94797 9.33856 6.9327 9.31761C6.91744 9.29666 6.89852 9.27979 6.87588 9.26715C6.85324 9.25443 6.82856 9.24425 6.80168 9.23662C6.77479 9.22899 6.75003 9.22034 6.72747 9.21076C6.70483 9.20117 6.68592 9.18888 6.67065 9.17386C6.65539 9.15885 6.64775 9.13782 6.64775 9.11068C6.64775 9.09203 6.6514 9.07574 6.65878 9.06192C6.66607 9.04801 6.67591 9.03673 6.68804 9.028C6.70016 9.01926 6.7139 9.01273 6.72917 9.00849C6.74443 9.00425 6.75995 9.00213 6.77581 9.00213C6.82161 9.00213 6.85756 9.01799 6.8836 9.04954L6.892 9.06065L6.94542 9.01909C6.92168 8.99196 6.8959 8.97304 6.86825 8.96227C6.84052 8.95159 6.80973 8.94616 6.77581 8.94616C6.75156 8.94616 6.72773 8.94955 6.70457 8.95634ZM4.79177 8.96991C4.75361 8.98576 4.72054 9.00764 4.69255 9.03563C4.66457 9.06362 4.64269 9.09678 4.62683 9.13528C4.61097 9.17378 4.60308 9.21584 4.60308 9.26164C4.60308 9.30743 4.61097 9.3495 4.62683 9.388C4.64269 9.42642 4.66457 9.45966 4.69255 9.48765C4.72054 9.51563 4.75361 9.53751 4.79177 9.55337C4.82994 9.56915 4.87132 9.57712 4.91602 9.57712C4.94086 9.57712 4.96452 9.57432 4.98683 9.56864C5.00913 9.56304 5.02991 9.55524 5.04916 9.54531C5.06841 9.53548 5.08546 9.52369 5.10047 9.51012C5.11048 9.50113 5.11938 9.49163 5.12727 9.48188L5.13821 9.46687L5.08817 9.43125C5.07689 9.44872 5.0646 9.46331 5.05128 9.47493C5.03805 9.48654 5.0238 9.4957 5.00888 9.50249C4.99387 9.50927 4.9786 9.51411 4.96308 9.5169C4.94748 9.5197 4.93187 9.52115 4.91602 9.52115C4.8776 9.52115 4.84308 9.51411 4.81255 9.49994C4.78202 9.48587 4.75616 9.46687 4.73495 9.44312C4.71375 9.41938 4.69747 9.39182 4.68619 9.36044C4.67483 9.32906 4.66923 9.29607 4.66923 9.26164C4.66923 9.22721 4.67483 9.19422 4.68619 9.16284C4.69747 9.13146 4.71375 9.1039 4.73495 9.08015C4.75616 9.05641 4.78202 9.03741 4.81255 9.02333C4.84308 9.00917 4.8776 9.00213 4.91602 9.00213C4.93187 9.00213 4.94765 9.00434 4.96351 9.00892C4.97928 9.01341 4.99421 9.01935 5.00803 9.02673C5.02185 9.0341 5.03423 9.0425 5.04492 9.05217C5.05204 9.05853 5.05823 9.06497 5.06332 9.07142L5.07036 9.081L5.12379 9.04114C5.09725 9.00722 5.06527 8.98297 5.02796 8.96821C4.99064 8.95345 4.95333 8.94616 4.91602 8.94616C4.87132 8.94616 4.82994 8.95405 4.79177 8.96991ZM13.8402 8.96143V9.56185H14.2226V9.50588H13.9012V9.27775H14.1921V9.22178H13.9012V9.0174H14.2124V8.96143H13.8402ZM13.3373 8.96143V9.56185H13.3983V9.28284H13.5001L13.6646 9.56185H13.7391L13.5662 9.2769C13.616 9.27232 13.654 9.25587 13.6803 9.22729C13.7066 9.19871 13.7197 9.16352 13.7197 9.12171C13.7197 9.06803 13.702 9.02791 13.6667 9.00128C13.6353 8.97762 13.5937 8.96456 13.542 8.96193L13.5221 8.96143H13.3373ZM13.3983 9.0174H13.5069C13.534 9.0174 13.557 9.02011 13.576 9.02545C13.595 9.0308 13.6101 9.03834 13.6214 9.04793C13.6326 9.05751 13.6409 9.06871 13.6459 9.08143C13.651 9.09415 13.6536 9.10755 13.6536 9.12171C13.6536 9.13638 13.651 9.15012 13.6459 9.16284C13.6409 9.17556 13.6326 9.18659 13.6214 9.19583C13.6101 9.20524 13.595 9.21271 13.576 9.21839C13.557 9.22407 13.534 9.22687 13.5069 9.22687H13.3983V9.0174ZM12.9353 8.96143L12.6741 9.56185H12.7453L12.8115 9.40411H13.1185L13.1846 9.56185H13.2558L12.9946 8.96143H12.9353ZM12.965 9.03266L13.0947 9.34814H12.8344L12.965 9.03266ZM11.7768 8.96143L11.5979 9.24468L11.4189 8.96143H11.3425L11.5673 9.30319V9.56185H11.6284V9.30319L11.8531 8.96143H11.7768ZM10.799 8.96143V9.56185H10.9983C11.0356 9.56185 11.0731 9.55558 11.1107 9.54319C11.1482 9.53073 11.1822 9.5119 11.2124 9.4868C11.2426 9.46161 11.2671 9.4304 11.2858 9.39309C11.3044 9.35577 11.3138 9.31193 11.3138 9.26164C11.3138 9.21194 11.3044 9.16818 11.2858 9.13061C11.2671 9.09296 11.2426 9.06158 11.2124 9.03648C11.1822 9.01129 11.1482 8.99255 11.1107 8.98008C11.0806 8.97008 11.0506 8.96414 11.0207 8.96219L10.9983 8.96143H10.799ZM10.8601 9.0174H10.9788C11.0246 9.0174 11.0643 9.02427 11.0979 9.03817C11.1316 9.052 11.1595 9.0704 11.1819 9.0933C11.2042 9.1162 11.2207 9.14223 11.2315 9.17132C11.2423 9.20049 11.2476 9.23051 11.2476 9.26164C11.2476 9.29276 11.2423 9.32278 11.2315 9.35196C11.2207 9.38105 11.2042 9.40708 11.1819 9.42998C11.1595 9.45288 11.1316 9.47128 11.0979 9.4851C11.0643 9.49893 11.0246 9.50588 10.9788 9.50588H10.8601V9.0174ZM9.56593 8.96143V9.56185H9.74911C9.79711 9.56185 9.83561 9.55507 9.86444 9.5415C9.89328 9.52793 9.91524 9.5119 9.93051 9.49358C9.94586 9.47526 9.95587 9.45669 9.9607 9.43804C9.96553 9.41938 9.96791 9.40522 9.96791 9.39563C9.96791 9.35153 9.95587 9.31634 9.93187 9.29005C9.91083 9.26698 9.88276 9.25282 9.84765 9.24731L9.83222 9.24553V9.24383C9.86614 9.23594 9.89235 9.22025 9.91066 9.19676C9.92907 9.17327 9.93814 9.1452 9.93814 9.11238C9.93814 9.08414 9.9328 9.06031 9.92211 9.04114C9.91143 9.02189 9.89693 9.00637 9.87886 8.9945C9.8608 8.98263 9.84011 8.97415 9.81695 8.96906C9.79957 8.96524 9.78176 8.96287 9.76336 8.96185L9.74487 8.96143H9.56593ZM9.62699 9.0174H9.74402C9.77285 9.0174 9.79575 9.02147 9.81271 9.02969C9.82967 9.03792 9.84257 9.04767 9.8513 9.05895C9.86004 9.07023 9.86572 9.08151 9.86826 9.09287C9.87081 9.10424 9.87208 9.11289 9.87208 9.11916C9.87208 9.13842 9.86843 9.1547 9.86105 9.16793C9.85367 9.18124 9.84426 9.1921 9.83264 9.20058C9.82102 9.20906 9.80805 9.21508 9.79363 9.21881C9.77922 9.22254 9.76463 9.22432 9.74996 9.22432H9.62699V9.0174ZM9.62699 9.27521H9.75165C9.80076 9.27521 9.83816 9.28479 9.8636 9.30404C9.88904 9.32329 9.90176 9.35264 9.90176 9.39224C9.90176 9.412 9.89769 9.42896 9.88946 9.44312C9.88124 9.4572 9.87013 9.46899 9.85596 9.47832C9.8418 9.48765 9.82518 9.49452 9.80593 9.4991C9.78668 9.50359 9.76607 9.50588 9.74402 9.50588H9.62699V9.27521ZM8.27348 8.96143V9.47026H8.27179L7.91391 8.96143H7.83758V9.56185H7.89864V9.04793H7.90025L8.25822 9.56185H8.33454V8.96143H8.27348ZM7.61369 9.56185H7.67475V8.96143H7.61369V9.56185ZM7.43136 8.96143L7.14896 9.22178H7.14048V8.96143H7.07942V9.56185H7.14048V9.25231H7.15065L7.44578 9.56185H7.53567L7.21595 9.23365L7.51863 8.96143H7.43136ZM5.73524 8.96143V9.56185H5.93454C5.97185 9.56185 6.00925 9.55558 6.0469 9.54319C6.08456 9.53073 6.11839 9.5119 6.14859 9.4868C6.17895 9.46161 6.20337 9.4304 6.22203 9.39309C6.24068 9.35577 6.25001 9.31193 6.25001 9.26164C6.25001 9.21194 6.24068 9.16818 6.22203 9.13061C6.20337 9.09296 6.17895 9.06158 6.14859 9.03648C6.11839 9.01129 6.08456 8.99255 6.0469 8.98008C6.0168 8.97008 5.98678 8.96414 5.95692 8.96219L5.93454 8.96143H5.73524ZM5.7963 9.0174H5.91503C5.96083 9.0174 6.00051 9.02427 6.03418 9.03817C6.06777 9.052 6.09584 9.0704 6.11814 9.0933C6.14044 9.1162 6.15698 9.14223 6.16767 9.17132C6.17844 9.20049 6.18386 9.23051 6.18386 9.26164C6.18386 9.29276 6.17844 9.32278 6.16767 9.35196C6.15698 9.38105 6.14044 9.40708 6.11814 9.42998C6.09584 9.45288 6.06777 9.47128 6.03418 9.4851C6.00051 9.49893 5.96083 9.50588 5.91503 9.50588H5.7963V9.0174ZM5.24082 8.96143V9.56185H5.6233V9.50588H5.30188V9.27775H5.59277V9.22178H5.30188V9.0174H5.61312V8.96143H5.24082ZM4.41982 8.96143V9.47026H4.4182L4.06032 8.96143H3.984V9.56185H4.04506V9.04793H4.04675L4.40455 9.56185H4.48096V8.96143H4.41982ZM3.58202 8.96143L3.32073 9.56185H3.39205L3.4582 9.40411H3.7652L3.83135 9.56185H3.90258L3.6413 8.96143H3.58202ZM3.6117 9.03266L3.74145 9.34814H3.48101L3.6117 9.03266ZM3.25721 8.96143L3.06046 9.47026H3.05876L2.86795 8.96143H2.80011L3.02823 9.56185H3.08929L3.32336 8.96143H3.25721ZM2.24717 8.96143V9.56185H2.44646C2.48378 9.56185 2.52126 9.55558 2.55883 9.54319C2.59649 9.53073 2.63032 9.5119 2.66051 9.4868C2.69088 9.46161 2.7153 9.4304 2.73396 9.39309C2.75261 9.35577 2.76194 9.31193 2.76194 9.26164C2.76194 9.21194 2.75261 9.16818 2.73396 9.13061C2.7153 9.09296 2.69088 9.06158 2.66051 9.03648C2.63032 9.01129 2.59649 8.99255 2.55883 8.98008C2.52873 8.97008 2.49871 8.96414 2.46885 8.96219L2.44646 8.96143H2.24717ZM2.30823 9.0174H2.42696C2.47275 9.0174 2.51253 9.02427 2.54611 9.03817C2.57969 9.052 2.60777 9.0704 2.62998 9.0933C2.65237 9.1162 2.66891 9.14223 2.6796 9.17132C2.69037 9.20049 2.69579 9.23051 2.69579 9.26164C2.69579 9.29276 2.69037 9.32278 2.6796 9.35196C2.66891 9.38105 2.65237 9.40708 2.62998 9.42998C2.60777 9.45288 2.57969 9.47128 2.54611 9.4851C2.51253 9.49893 2.47275 9.50588 2.42696 9.50588H2.30823V9.0174ZM1.85367 8.96143L1.59247 9.56185H1.66371L1.72985 9.40411H2.03685L2.103 9.56185H2.17424L1.91303 8.96143H1.85367ZM1.88335 9.03266L2.01311 9.34814H1.75275L1.88335 9.03266Z" fill="#543019"/>
</svg>
