<svg width="32" height="32" viewBox="0 0 32 32" fill="none" xmlns="http://www.w3.org/2000/svg">
<rect width="32" height="32" fill="white"/>
<path fill-rule="evenodd" clip-rule="evenodd" d="M26.2141 12.0212C25.3468 13.766 24.5447 15.5524 23.6997 17.3106C23.8999 17.3094 24.1009 17.3083 24.302 17.306C24.5681 16.7249 24.8386 16.1449 25.1182 15.5702C25.8743 15.5725 26.6301 15.5714 27.3863 15.5714C27.6537 16.1515 27.9097 16.7384 28.1934 17.3094C28.3874 17.3106 28.5812 17.3106 28.7761 17.3094C27.9505 15.5423 27.1539 13.7559 26.31 12C26.2855 12.0046 26.2375 12.0157 26.2141 12.0212ZM26.2579 13.1636C26.5794 13.7828 26.8497 14.4313 27.1436 15.0665C26.9062 15.0676 26.6691 15.0674 26.4316 15.0672C26.0727 15.0669 25.7135 15.0667 25.3549 15.0699C25.6497 14.4303 25.9447 13.7919 26.2579 13.1636ZM19.7999 14.184C19.3257 13.4572 18.8548 12.7268 18.3795 12.0011C18.1581 12.0021 17.9377 12.0034 17.7172 12.0046C18.3097 12.9335 18.9429 13.8369 19.501 14.7884C19.5472 15.6266 19.5064 16.4692 19.5182 17.3083C19.7064 17.3094 19.8945 17.3106 20.0827 17.3106C20.0849 16.5421 20.0816 15.7737 20.0816 15.0052C20.0581 14.7716 20.2075 14.5849 20.3213 14.4021C20.8492 13.6076 21.3579 12.7998 21.887 12.0055C21.6665 12.0034 21.4471 12.0021 21.228 12C20.7439 12.7224 20.2827 13.4604 19.7999 14.184ZM12.7077 12.588L12.651 12.7164C12.6223 12.7803 12.5931 12.8438 12.5621 12.9056C11.8604 14.371 11.1685 15.843 10.4655 17.3073C10.6624 17.3083 10.8603 17.3094 11.0583 17.3106C11.3348 16.7353 11.6011 16.1546 11.8857 15.5837C12.1778 15.5884 12.4704 15.5865 12.763 15.5846C13.2335 15.5814 13.7043 15.5782 14.1744 15.6027C14.4112 16.1834 14.6847 16.7454 14.957 17.3073C15.1519 17.3083 15.3459 17.3094 15.5415 17.3094L14.306 14.653C13.8937 13.7677 13.4806 12.8829 13.0643 12C12.9037 12.1641 12.8031 12.3742 12.7077 12.588ZM13.0235 13.1837C13.3355 13.8081 13.6162 14.4489 13.9101 15.0843C13.692 15.0849 13.4739 15.0847 13.2558 15.0847C12.877 15.0847 12.4983 15.0845 12.1194 15.0864C12.4164 14.4499 12.7184 13.8158 13.0235 13.1837ZM5.29863 16.3012C4.6913 15.1167 4.09847 13.9238 3.49621 12.7349C3.46902 12.6849 3.44382 12.6329 3.41898 12.5804L3.36949 12.4749C3.28628 12.2991 3.19672 12.1267 3.04624 12.0066C2.7656 13.7453 2.55276 15.4963 2.30729 17.2406C2.48913 17.2351 2.67205 17.2328 2.85407 17.2264C2.8916 16.9529 2.92731 16.6792 2.96267 16.4053L3.06745 15.5833C3.15502 14.8982 3.24639 14.2138 3.36061 13.5332C3.99767 14.7941 4.60301 16.077 5.28721 17.3106C6.00042 16.0954 6.54919 14.7767 7.25605 13.5585C7.4359 14.7844 7.61374 16.0102 7.79576 17.2362C7.96002 17.2351 8.12445 17.2339 8.28997 17.2339C8.028 15.4896 7.79051 13.7411 7.51313 12C6.73411 13.4086 6.04465 14.873 5.29863 16.3012ZM24.9037 18.642C24.8221 18.6775 24.7514 18.7264 24.6916 18.789C24.6317 18.8516 24.585 18.9257 24.5511 19.0119C24.5172 19.098 24.5003 19.192 24.5003 19.2945C24.5003 19.3969 24.5172 19.4909 24.5511 19.5771C24.585 19.663 24.6317 19.7373 24.6916 19.7999C24.7514 19.8625 24.8221 19.9114 24.9037 19.9469C24.9853 19.9822 25.0737 20 25.1693 20C25.2224 20 25.2728 19.9937 25.3207 19.981C25.3683 19.9685 25.4129 19.9511 25.4539 19.9289C25.4949 19.9069 25.5315 19.8805 25.5636 19.8502C25.585 19.8301 25.604 19.8088 25.6207 19.787L25.6443 19.7534L25.5373 19.6738C25.513 19.7129 25.4867 19.7455 25.4584 19.7715C25.43 19.7974 25.3999 19.8179 25.3678 19.8331C25.3357 19.8483 25.3031 19.8591 25.2699 19.8653C25.2367 19.8716 25.203 19.8748 25.1693 19.8748C25.087 19.8748 25.0134 19.8591 24.9479 19.8274C24.8827 19.7959 24.8275 19.7534 24.7822 19.7003C24.7369 19.6472 24.7021 19.5856 24.678 19.5154C24.6539 19.4452 24.6417 19.3715 24.6417 19.2945C24.6417 19.2174 24.6539 19.1437 24.678 19.0735C24.7021 19.0033 24.7369 18.9417 24.7822 18.8886C24.8275 18.8355 24.8827 18.793 24.9479 18.7615C25.0134 18.7298 25.087 18.7141 25.1693 18.7141C25.203 18.7141 25.2369 18.719 25.2708 18.7293C25.3047 18.7393 25.3362 18.7526 25.366 18.7691C25.3955 18.7856 25.4218 18.8044 25.4448 18.826C25.4603 18.8402 25.4733 18.8546 25.4844 18.869L25.4992 18.8905L25.6134 18.8013C25.5565 18.7255 25.4884 18.6712 25.4086 18.6382C25.3288 18.6052 25.249 18.5889 25.1693 18.5889C25.0737 18.5889 24.9853 18.6065 24.9037 18.642ZM20.5037 18.642C20.4221 18.6775 20.3514 18.7264 20.2916 18.789C20.2318 18.8516 20.185 18.9257 20.1511 19.0119C20.1172 19.098 20.1003 19.192 20.1003 19.2945C20.1003 19.3969 20.1172 19.4909 20.1511 19.5771C20.185 19.663 20.2318 19.7373 20.2916 19.7999C20.3514 19.8625 20.4221 19.9114 20.5037 19.9469C20.5853 19.9822 20.6737 20 20.7693 20C20.8648 20 20.9533 19.9822 21.0349 19.9469C21.1165 19.9114 21.187 19.8625 21.247 19.7999C21.3068 19.7373 21.3536 19.663 21.3875 19.5771C21.4214 19.4909 21.4383 19.3969 21.4383 19.2945C21.4383 19.192 21.4214 19.098 21.3875 19.0119C21.3536 18.9257 21.3068 18.8516 21.247 18.789C21.187 18.7264 21.1165 18.6775 21.0349 18.642C20.9533 18.6065 20.8648 18.5889 20.7693 18.5889C20.6737 18.5889 20.5853 18.6065 20.5037 18.642ZM20.5481 19.8274C20.4828 19.7959 20.4275 19.7534 20.3822 19.7003C20.3369 19.6472 20.3021 19.5856 20.278 19.5154C20.2537 19.4452 20.2417 19.3715 20.2417 19.2945C20.2417 19.2174 20.2537 19.1437 20.278 19.0735C20.3021 19.0033 20.3369 18.9417 20.3822 18.8886C20.4275 18.8355 20.4828 18.793 20.5481 18.7615C20.6134 18.7298 20.6872 18.7141 20.7693 18.7141C20.8514 18.7141 20.9252 18.7298 20.9905 18.7615C21.0557 18.793 21.111 18.8355 21.1563 18.8886C21.2017 18.9417 21.2363 19.0033 21.2606 19.0735C21.2849 19.1437 21.2969 19.2174 21.2969 19.2945C21.2969 19.3715 21.2849 19.4452 21.2606 19.5154C21.2363 19.5856 21.2017 19.6472 21.1563 19.7003C21.111 19.7534 21.0557 19.7959 20.9905 19.8274C20.9252 19.8591 20.8514 19.8748 20.7693 19.8748C20.6872 19.8748 20.6134 19.8591 20.5481 19.8274ZM17.5133 18.6098C17.4746 18.6236 17.4407 18.6441 17.4117 18.6714C17.3827 18.6985 17.3601 18.7317 17.3438 18.771C17.3274 18.8102 17.3193 18.855 17.3193 18.9056C17.3193 18.9677 17.3347 19.0248 17.3655 19.0773C17.3963 19.1298 17.431 19.1774 17.4698 19.2205C17.431 19.2395 17.3942 19.2616 17.3592 19.2869C17.324 19.3121 17.293 19.3409 17.2658 19.3732C17.2386 19.4054 17.2172 19.4418 17.2014 19.4822C17.1857 19.5228 17.1779 19.5676 17.1779 19.6169C17.1779 19.6776 17.1887 19.7316 17.2105 19.779C17.2323 19.8265 17.2614 19.8665 17.2984 19.8995C17.3352 19.9325 17.3782 19.9573 17.4271 19.9744C17.4761 19.9915 17.5272 20 17.5803 20C17.6674 20 17.741 19.9793 17.8013 19.9384C17.8499 19.9054 17.896 19.8625 17.9397 19.81L17.9719 19.7686L18.1532 19.9659H18.3381L18.0499 19.6548L18.2856 19.2394H18.1387L17.9629 19.5581L17.6674 19.2394C17.7 19.2218 17.7332 19.2019 17.7671 19.1797C17.801 19.1577 17.8314 19.1323 17.8584 19.1038C17.8858 19.0754 17.9078 19.0437 17.9248 19.009C17.9417 18.9743 17.9502 18.9347 17.9502 18.8905C17.9502 18.8412 17.942 18.7977 17.9257 18.7606C17.9094 18.7232 17.8871 18.6919 17.8584 18.6667C17.8302 18.6414 17.7973 18.6221 17.7598 18.6088C17.7223 18.5955 17.6824 18.5889 17.6402 18.5889C17.5941 18.5889 17.5519 18.5959 17.5133 18.6098ZM17.545 19.1114C17.5299 19.093 17.5154 19.0731 17.5015 19.0517C17.4875 19.0301 17.4754 19.0071 17.4652 18.9825C17.4549 18.9578 17.4498 18.9339 17.4498 18.9113C17.4498 18.8506 17.4683 18.8027 17.5051 18.7672C17.5419 18.7317 17.5876 18.7141 17.642 18.7141C17.6915 18.7141 17.7335 18.7302 17.768 18.7624C17.8024 18.7947 17.8196 18.8374 17.8196 18.8905C17.8196 18.9246 17.812 18.955 17.797 18.9815C17.7819 19.0081 17.7625 19.0314 17.739 19.0517C17.7154 19.072 17.6897 19.0898 17.6619 19.1057C17.6342 19.1217 17.6081 19.137 17.584 19.1522C17.5729 19.1433 17.56 19.1298 17.545 19.1114ZM17.4824 19.8559C17.4509 19.8431 17.4232 19.8257 17.399 19.8037C17.3749 19.7815 17.3555 19.7548 17.341 19.7231C17.3265 19.6914 17.3193 19.6567 17.3193 19.6188C17.3193 19.5846 17.3234 19.5537 17.332 19.5258C17.3405 19.498 17.3537 19.4718 17.3719 19.4471C17.39 19.4225 17.4137 19.399 17.4435 19.377C17.4656 19.3605 17.4913 19.3428 17.5209 19.3246L17.5513 19.3058L17.8904 19.6776C17.8699 19.7055 17.8487 19.7312 17.8269 19.7553C17.8051 19.7792 17.7819 19.8001 17.7571 19.8179C17.7323 19.8356 17.7056 19.8494 17.6773 19.8596C17.6489 19.8697 17.6171 19.8748 17.5822 19.8748C17.547 19.8748 17.5138 19.8686 17.4824 19.8559ZM12.9284 18.6117C12.8787 18.6268 12.8344 18.6502 12.7951 18.6818C12.7558 18.7135 12.7244 18.7532 12.7008 18.8013C12.6773 18.8493 12.6655 18.9056 12.6655 18.9701C12.6655 19.032 12.6747 19.0835 12.6936 19.1247C12.7124 19.1659 12.7371 19.2 12.7677 19.2271C12.7987 19.2542 12.8337 19.2768 12.8731 19.2945C12.9124 19.3121 12.9528 19.328 12.9945 19.3419C13.0362 19.3557 13.0767 19.3696 13.116 19.3836C13.1552 19.3974 13.1903 19.4149 13.2211 19.4358C13.252 19.4566 13.2768 19.4824 13.2955 19.5135C13.3143 19.5444 13.3236 19.5833 13.3236 19.6302C13.3236 19.6694 13.3151 19.7041 13.298 19.7345C13.2813 19.7648 13.2598 19.7904 13.2338 19.8113C13.2079 19.8321 13.1785 19.8479 13.1459 19.8587C13.1133 19.8695 13.0806 19.8748 13.048 19.8748C12.9802 19.8748 12.9216 19.8598 12.8722 19.8303C12.8325 19.8064 12.7998 19.7764 12.7741 19.74L12.7561 19.7117L12.6383 19.8009C12.6878 19.8716 12.748 19.9224 12.8187 19.9535C12.8894 19.9844 12.9639 20 13.0426 20C13.0933 20 13.1437 19.9911 13.194 19.9734C13.2442 19.9558 13.2895 19.9304 13.3299 19.8976C13.3703 19.8646 13.403 19.8238 13.4278 19.7752C13.4527 19.7265 13.465 19.6719 13.465 19.6112C13.465 19.5302 13.4487 19.4665 13.416 19.4196C13.3834 19.3728 13.343 19.335 13.2946 19.3068C13.2462 19.2783 13.1934 19.2556 13.1359 19.2385C13.0785 19.2214 13.0255 19.2021 12.9773 19.1807C12.9289 19.1592 12.8885 19.1317 12.8558 19.0982C12.8232 19.0646 12.8069 19.0175 12.8069 18.9569C12.8069 18.9151 12.8147 18.8787 12.8305 18.8478C12.846 18.8167 12.8671 18.7915 12.893 18.7719C12.9189 18.7524 12.9483 18.7378 12.9809 18.7283C13.0136 18.7188 13.0467 18.7141 13.0806 18.7141C13.1785 18.7141 13.2554 18.7495 13.3111 18.8201L13.329 18.845L13.4432 18.752C13.3925 18.6913 13.3374 18.649 13.2783 18.6249C13.219 18.601 13.1532 18.5889 13.0806 18.5889C13.0288 18.5889 12.9778 18.5965 12.9284 18.6117ZM8.83929 18.642C8.7577 18.6775 8.687 18.7264 8.62717 18.789C8.56735 18.8516 8.52057 18.9257 8.48667 19.0119C8.45277 19.098 8.43591 19.192 8.43591 19.2945C8.43591 19.3969 8.45277 19.4909 8.48667 19.5771C8.52057 19.663 8.56735 19.7373 8.62717 19.7999C8.687 19.8625 8.7577 19.9114 8.83929 19.9469C8.92087 19.9822 9.00934 20 9.10488 20C9.158 20 9.20858 19.9937 9.25626 19.981C9.30394 19.9685 9.34836 19.9511 9.38951 19.9289C9.43067 19.9069 9.46711 19.8805 9.49919 19.8502C9.52059 19.8301 9.53962 19.8088 9.55648 19.787L9.57987 19.7534L9.47291 19.6738C9.44879 19.7129 9.42251 19.7455 9.39404 19.7715C9.36576 19.7974 9.33531 19.8179 9.3034 19.8331C9.27131 19.8483 9.23868 19.8591 9.2055 19.8653C9.17214 19.8716 9.13878 19.8748 9.10488 19.8748C9.02276 19.8748 8.94897 19.8591 8.8837 19.8274C8.81844 19.7959 8.76314 19.7534 8.71782 19.7003C8.6725 19.6472 8.63769 19.5856 8.61358 19.5154C8.58928 19.4452 8.57732 19.3715 8.57732 19.2945C8.57732 19.2174 8.58928 19.1437 8.61358 19.0735C8.63769 19.0033 8.6725 18.9417 8.71782 18.8886C8.76314 18.8355 8.81844 18.793 8.8837 18.7615C8.94897 18.7298 9.02276 18.7141 9.10488 18.7141C9.13878 18.7141 9.1725 18.719 9.20641 18.7293C9.24013 18.7393 9.27203 18.7526 9.30158 18.7691C9.33114 18.7856 9.3576 18.8044 9.38045 18.826C9.39568 18.8402 9.40891 18.8546 9.41979 18.869L9.43484 18.8905L9.54905 18.8013C9.49231 18.7255 9.42396 18.6712 9.34419 18.6382C9.26442 18.6052 9.18465 18.5889 9.10488 18.5889C9.00934 18.5889 8.92087 18.6065 8.83929 18.642ZM28.1824 18.623V19.9659H29V19.8407H28.3129V19.3305H28.9347V19.2053H28.3129V18.7482H28.9782V18.623H28.1824ZM27.1073 18.623V19.9659H27.2378V19.3419H27.4554L27.8071 19.9659H27.9664L27.5968 19.3286C27.7032 19.3183 27.7844 19.2816 27.8406 19.2176C27.8968 19.1537 27.9249 19.075 27.9249 18.9815C27.9249 18.8615 27.887 18.7717 27.8116 18.7122C27.7445 18.6593 27.6555 18.6301 27.5449 18.6242L27.5025 18.623H27.1073ZM27.2378 18.7482H27.4699C27.5279 18.7482 27.577 18.7543 27.6176 18.7662C27.6582 18.7782 27.6905 18.7951 27.7146 18.8165C27.7387 18.8379 27.7563 18.863 27.7672 18.8914C27.7781 18.9199 27.7835 18.9498 27.7835 18.9815C27.7835 19.0143 27.7781 19.045 27.7672 19.0735C27.7563 19.1019 27.7387 19.1266 27.7146 19.1473C27.6905 19.1683 27.6582 19.185 27.6176 19.1977C27.577 19.2104 27.5279 19.2167 27.4699 19.2167H27.2378V18.7482ZM26.248 18.623L25.6896 19.9659H25.8419L25.9833 19.6131H26.6396L26.781 19.9659H26.9333L26.3749 18.623H26.248ZM26.3114 18.7824L26.5888 19.4879H26.0322L26.3114 18.7824ZM23.7715 18.623L23.389 19.2565L23.0064 18.623H22.8431L23.3237 19.3874V19.9659H23.4542V19.3874L23.9347 18.623H23.7715ZM21.6812 18.623V19.9659H22.1072C22.187 19.9659 22.2671 19.9518 22.3474 19.9241C22.4278 19.8963 22.5005 19.8541 22.565 19.798C22.6295 19.7417 22.6819 19.6719 22.7218 19.5884C22.7615 19.505 22.7816 19.4069 22.7816 19.2945C22.7816 19.1833 22.7615 19.0854 22.7218 19.0014C22.6819 18.9172 22.6295 18.847 22.565 18.7909C22.5005 18.7346 22.4278 18.6927 22.3474 18.6648C22.2831 18.6424 22.2191 18.6291 22.1551 18.6248L22.1072 18.623H21.6812ZM21.8117 18.7482H22.0655C22.1634 18.7482 22.2483 18.7636 22.3203 18.7947C22.3922 18.8256 22.4519 18.8668 22.4997 18.918C22.5474 18.9692 22.5828 19.0274 22.6058 19.0925C22.6288 19.1577 22.6402 19.2248 22.6402 19.2945C22.6402 19.3641 22.6288 19.4312 22.6058 19.4964C22.5828 19.5615 22.5474 19.6197 22.4997 19.6709C22.4519 19.7221 22.3922 19.7633 22.3203 19.7942C22.2483 19.8251 22.1634 19.8407 22.0655 19.8407H21.8117V18.7482ZM19.0452 18.623V19.9659H19.4368C19.5394 19.9659 19.6217 19.9507 19.6833 19.9203C19.745 19.89 19.7919 19.8541 19.8246 19.8132C19.8574 19.7722 19.8788 19.7307 19.8891 19.689C19.8994 19.6472 19.9045 19.6156 19.9045 19.5941C19.9045 19.4955 19.8788 19.4168 19.8275 19.358C19.7825 19.3064 19.7225 19.2747 19.6474 19.2624L19.6145 19.2584V19.2546C19.687 19.237 19.743 19.2019 19.7821 19.1494C19.8215 19.0968 19.8409 19.034 19.8409 18.9606C19.8409 18.8975 19.8295 18.8442 19.8066 18.8013C19.7838 18.7583 19.7528 18.7236 19.7142 18.697C19.6755 18.6705 19.6313 18.6515 19.5818 18.6401C19.5447 18.6316 19.5066 18.6263 19.4672 18.624L19.4277 18.623H19.0452ZM19.1757 18.7482H19.4259C19.4875 18.7482 19.5365 18.7573 19.5728 18.7757C19.609 18.7941 19.6366 18.8159 19.6552 18.8412C19.6739 18.8664 19.6861 18.8916 19.6915 18.917C19.6969 18.9424 19.6997 18.9618 19.6997 18.9758C19.6997 19.0189 19.6919 19.0553 19.6761 19.0849C19.6603 19.1147 19.6402 19.1389 19.6154 19.1579C19.5905 19.1769 19.5628 19.1903 19.532 19.1987C19.5011 19.207 19.47 19.211 19.4386 19.211H19.1757V18.7482ZM19.1757 19.3248H19.4422C19.5472 19.3248 19.6271 19.3462 19.6815 19.3893C19.7359 19.4323 19.7631 19.498 19.7631 19.5865C19.7631 19.6307 19.7544 19.6687 19.7368 19.7003C19.7192 19.7318 19.6955 19.7582 19.6652 19.779C19.6349 19.7999 19.5994 19.8153 19.5583 19.8255C19.5171 19.8356 19.473 19.8407 19.4259 19.8407H19.1757V19.3248ZM16.2823 18.623V19.761H16.2787L15.5136 18.623H15.3504V19.9659H15.481V18.8165H15.4844L16.2496 19.9659H16.4128V18.623H16.2823ZM14.8718 19.9659H15.0024V18.623H14.8718V19.9659ZM14.482 18.623L13.8783 19.2053H13.8602V18.623H13.7297V19.9659H13.8602V19.2736H13.882L14.5129 19.9659H14.705L14.0216 19.2319L14.6686 18.623H14.482ZM10.8562 18.623V19.9659H11.2822C11.362 19.9659 11.4419 19.9518 11.5224 19.9241C11.6029 19.8963 11.6753 19.8541 11.7398 19.798C11.8047 19.7417 11.8569 19.6719 11.8968 19.5884C11.9367 19.505 11.9566 19.4069 11.9566 19.2945C11.9566 19.1833 11.9367 19.0854 11.8968 19.0014C11.8569 18.9172 11.8047 18.847 11.7398 18.7909C11.6753 18.7346 11.6029 18.6927 11.5224 18.6648C11.4581 18.6424 11.3939 18.6291 11.3301 18.6248L11.2822 18.623H10.8562ZM10.9867 18.7482H11.2405C11.3384 18.7482 11.4233 18.7636 11.4952 18.7947C11.567 18.8256 11.627 18.8668 11.6747 18.918C11.7224 18.9692 11.7577 19.0274 11.7806 19.0925C11.8036 19.1577 11.8152 19.2248 11.8152 19.2945C11.8152 19.3641 11.8036 19.4312 11.7806 19.4964C11.7577 19.5615 11.7224 19.6197 11.6747 19.6709C11.627 19.7221 11.567 19.7633 11.4952 19.7942C11.4233 19.8251 11.3384 19.8407 11.2405 19.8407H10.9867V18.7482ZM9.79923 18.623V19.9659H10.6169V19.8407H9.92977V19.3305H10.5516V19.2053H9.92977V18.7482H10.5951V18.623H9.79923ZM8.04413 18.623V19.761H8.04069L7.27563 18.623H7.11247V19.9659H7.243V18.8165H7.24663L8.0115 19.9659H8.17485V18.623H8.04413ZM6.25314 18.623L5.69457 19.9659H5.84704L5.98845 19.6131H6.64473L6.78614 19.9659H6.93843L6.37986 18.623H6.25314ZM6.31659 18.7824L6.59397 19.4879H6.03722L6.31659 18.7824ZM5.55879 18.623L5.13819 19.761H5.13456L4.72665 18.623H4.58162L5.06929 19.9659H5.19983L5.70019 18.623H5.55879ZM3.39958 18.623V19.9659H3.82562C3.90539 19.9659 3.98552 19.9518 4.06584 19.9241C4.14633 19.8963 4.21867 19.8541 4.28321 19.798C4.34811 19.7417 4.40032 19.6719 4.44021 19.5884C4.48009 19.505 4.50003 19.4069 4.50003 19.2945C4.50003 19.1833 4.48009 19.0854 4.44021 19.0014C4.40032 18.9172 4.34811 18.847 4.28321 18.7909C4.21867 18.7346 4.14633 18.6927 4.06584 18.6648C4.00148 18.6424 3.9373 18.6291 3.87348 18.6248L3.82562 18.623H3.39958ZM3.53011 18.7482H3.78393C3.88182 18.7482 3.96685 18.7636 4.03864 18.7947C4.11043 18.8256 4.17044 18.8668 4.21794 18.918C4.2658 18.9692 4.30116 19.0274 4.324 19.0925C4.34702 19.1577 4.35862 19.2248 4.35862 19.2945C4.35862 19.3641 4.34702 19.4312 4.324 19.4964C4.30116 19.5615 4.2658 19.6197 4.21794 19.6709C4.17044 19.7221 4.11043 19.7633 4.03864 19.7942C3.96685 19.8251 3.88182 19.8407 3.78393 19.8407H3.53011V18.7482ZM2.55838 18.623L2 19.9659H2.15229L2.2937 19.6131H2.94998L3.09139 19.9659H3.24367L2.68529 18.623H2.55838ZM2.62184 18.7824L2.89921 19.4879H2.34264L2.62184 18.7824Z" fill="#543019"/>
</svg>
