<svg width="64" height="64" viewBox="0 0 64 64" fill="none" xmlns="http://www.w3.org/2000/svg">
<rect width="64" height="64" fill="white"/>
<path fill-rule="evenodd" clip-rule="evenodd" d="M53.325 24.0414C51.5582 27.4386 49.9244 30.917 48.2031 34.3404C48.6108 34.3382 49.0204 34.336 49.4299 34.3316C49.9721 33.2 50.5231 32.0707 51.0925 30.9517C52.6329 30.9562 54.1725 30.9539 55.7129 30.9539C56.2576 32.0836 56.779 33.2262 57.357 34.3382C57.7521 34.3404 58.1469 34.3404 58.5439 34.3382C56.8621 30.8974 55.2394 27.419 53.5203 24C53.4705 24.0089 53.3726 24.0307 53.325 24.0414ZM53.4143 26.2657C54.0691 27.4714 54.6197 28.7341 55.2184 29.9709C54.7349 29.9731 54.2519 29.9727 53.7681 29.9723C53.0369 29.9716 52.3053 29.9712 51.5748 29.9775C52.1753 28.7322 52.7762 27.4892 53.4143 26.2657ZM40.2591 28.2525C39.293 26.8373 38.3339 25.4152 37.3656 24.0022C36.9147 24.0041 36.4656 24.0066 36.0166 24.0089C37.2234 25.8177 38.5134 27.5767 39.6501 29.4295C39.7443 31.0614 39.6612 32.7022 39.6852 34.336C40.0685 34.3382 40.4519 34.3404 40.8352 34.3404C40.8396 32.844 40.833 31.348 40.833 29.8516C40.785 29.3966 41.0893 29.0332 41.3212 28.6772C42.3966 27.1302 43.4329 25.5573 44.5105 24.0107C44.0614 24.0066 43.6146 24.0041 43.1681 24C42.182 25.4067 41.2425 26.8436 40.2591 28.2525ZM25.812 25.1448L25.6964 25.3948C25.6381 25.5193 25.5786 25.643 25.5155 25.7634C24.0859 28.6166 22.6767 31.4828 21.2445 34.3342C21.6456 34.336 22.0488 34.3382 22.4521 34.3404C23.0153 33.2203 23.5578 32.0895 24.1376 30.9779C24.7326 30.9872 25.3286 30.9835 25.9247 30.9798C26.883 30.9735 27.8421 30.9672 28.7997 31.0149C29.282 32.1457 29.8393 33.2399 30.3939 34.3342C30.7909 34.336 31.1861 34.3382 31.5846 34.3382L29.0678 29.1658C28.228 27.4419 27.3864 25.7191 26.5384 24C26.2112 24.3194 26.0063 24.7286 25.812 25.1448ZM26.4553 26.3048C27.0909 27.5205 27.6626 28.7684 28.2612 30.0056C27.817 30.0067 27.3727 30.0063 26.9284 30.0063C26.157 30.0063 25.3855 30.0059 24.6136 30.0096C25.2186 28.7703 25.8338 27.5357 26.4553 26.3048ZM10.7194 32.375C9.48227 30.0687 8.27466 27.7458 7.04784 25.431C6.99245 25.3335 6.94111 25.2324 6.89052 25.1301L6.7897 24.9247C6.62019 24.5824 6.43776 24.2467 6.13124 24.0129C5.55956 27.3983 5.126 30.8077 4.62597 34.2042C4.99637 34.1934 5.369 34.189 5.73978 34.1765C5.81622 33.6439 5.88897 33.111 5.96099 32.5778L6.17444 30.9772C6.35282 29.6433 6.53894 28.3105 6.7716 26.9854C8.06933 29.4405 9.30242 31.9385 10.6962 34.3404C12.149 31.9743 13.2669 29.4066 14.7068 27.0345C15.0731 29.4217 15.4354 31.8085 15.8062 34.1957C16.1408 34.1934 16.4757 34.1912 16.8129 34.1912C16.2793 30.7948 15.7955 27.3902 15.2304 24C13.6436 26.7428 12.2391 29.5942 10.7194 32.375ZM50.6556 36.9329C50.4895 37.002 50.3454 37.0973 50.2236 37.2191C50.1017 37.341 50.0064 37.4854 49.9374 37.6531C49.8683 37.8207 49.8339 38.0039 49.8339 38.2033C49.8339 38.4027 49.8683 38.5859 49.9374 38.7536C50.0064 38.9209 50.1017 39.0656 50.2236 39.1875C50.3454 39.3094 50.4895 39.4047 50.6556 39.4737C50.8218 39.5424 51.002 39.5771 51.1967 39.5771C51.3049 39.5771 51.4075 39.5649 51.505 39.5402C51.6022 39.5158 51.693 39.4818 51.7765 39.4386C51.8599 39.3958 51.9345 39.3445 51.9999 39.2854C52.0435 39.2462 52.0823 39.2049 52.1162 39.1624L52.1642 39.097L51.9464 38.9419C51.8969 39.018 51.8433 39.0815 51.7857 39.1321C51.7277 39.1827 51.6664 39.2226 51.6011 39.2521C51.5357 39.2817 51.4692 39.3027 51.4016 39.3149C51.334 39.3271 51.2654 39.3334 51.1967 39.3334C51.029 39.3334 50.8791 39.3027 50.7458 39.2411C50.6128 39.1797 50.5005 39.097 50.4082 38.9936C50.3159 38.8902 50.245 38.7702 50.1959 38.6336C50.1467 38.4969 50.122 38.3533 50.122 38.2033C50.122 38.0534 50.1467 37.9097 50.1959 37.7731C50.245 37.6364 50.3159 37.5164 50.4082 37.413C50.5005 37.3096 50.6128 37.2269 50.7458 37.1656C50.8791 37.1039 51.029 37.0733 51.1967 37.0733C51.2654 37.0733 51.3344 37.0829 51.4035 37.1028C51.4725 37.1224 51.5368 37.1482 51.5974 37.1804C51.6576 37.2125 51.7111 37.249 51.758 37.2911C51.7894 37.3188 51.816 37.3469 51.8385 37.375L51.8688 37.4167L52.1015 37.2431C51.9855 37.0954 51.8466 36.9898 51.6841 36.9255C51.5217 36.8613 51.3592 36.8295 51.1967 36.8295C51.002 36.8295 50.8218 36.8639 50.6556 36.9329ZM41.6927 36.9329C41.5265 37.002 41.3825 37.0973 41.2606 37.2191C41.1388 37.341 41.0435 37.4854 40.9744 37.6531C40.9054 37.8207 40.871 38.0039 40.871 38.2033C40.871 38.4027 40.9054 38.5859 40.9744 38.7536C41.0435 38.9209 41.1388 39.0656 41.2606 39.1875C41.3825 39.3094 41.5265 39.4047 41.6927 39.4737C41.8589 39.5424 42.0391 39.5771 42.2337 39.5771C42.4284 39.5771 42.6086 39.5424 42.7748 39.4737C42.9409 39.4047 43.0846 39.3094 43.2068 39.1875C43.3287 39.0656 43.424 38.9209 43.4931 38.7536C43.5621 38.5859 43.5965 38.4027 43.5965 38.2033C43.5965 38.0039 43.5621 37.8207 43.4931 37.6531C43.424 37.4854 43.3287 37.341 43.2068 37.2191C43.0846 37.0973 42.9409 37.002 42.7748 36.9329C42.6086 36.8639 42.4284 36.8295 42.2337 36.8295C42.0391 36.8295 41.8589 36.8639 41.6927 36.9329ZM41.7832 39.2411C41.6502 39.1797 41.5376 39.097 41.4453 38.9936C41.3529 38.8902 41.282 38.7702 41.2329 38.6336C41.1834 38.4969 41.1591 38.3533 41.1591 38.2033C41.1591 38.0534 41.1834 37.9097 41.2329 37.7731C41.282 37.6364 41.3529 37.5164 41.4453 37.413C41.5376 37.3096 41.6502 37.2269 41.7832 37.1656C41.9161 37.1039 42.0664 37.0733 42.2337 37.0733C42.401 37.0733 42.5513 37.1039 42.6843 37.1656C42.8172 37.2269 42.9299 37.3096 43.0222 37.413C43.1145 37.5164 43.1851 37.6364 43.2345 37.7731C43.284 37.9097 43.3084 38.0534 43.3084 38.2033C43.3084 38.3533 43.284 38.4969 43.2345 38.6336C43.1851 38.7702 43.1145 38.8902 43.0222 38.9936C42.9299 39.097 42.8172 39.1797 42.6843 39.2411C42.5513 39.3027 42.401 39.3334 42.2337 39.3334C42.0664 39.3334 41.9161 39.3027 41.7832 39.2411ZM35.6011 36.8701C35.5224 36.8971 35.4534 36.937 35.3943 36.9902C35.3352 37.043 35.289 37.1076 35.2558 37.184C35.2226 37.2605 35.2059 37.3476 35.2059 37.4462C35.2059 37.567 35.2373 37.6782 35.3001 37.7805C35.3629 37.8828 35.4334 37.9755 35.5125 38.0593C35.4334 38.0962 35.3585 38.1394 35.2872 38.1885C35.2155 38.2377 35.1524 38.2938 35.097 38.3566C35.0416 38.4194 34.998 38.4903 34.9659 38.5689C34.9338 38.648 34.9179 38.7351 34.9179 38.8311C34.9179 38.9493 34.94 39.0546 34.9844 39.1469C35.0287 39.2392 35.0881 39.3171 35.1635 39.3814C35.2384 39.4456 35.326 39.494 35.4257 39.5273C35.5254 39.5605 35.6295 39.5771 35.7377 39.5771C35.915 39.5771 36.0649 39.5369 36.1879 39.4571C36.2869 39.3928 36.3807 39.3094 36.4697 39.2071L36.5354 39.1266L36.9047 39.5106H37.2814L36.6942 38.905L37.1743 38.0962H36.8752L36.517 38.7166L35.915 38.0962C35.9815 38.0619 36.0491 38.0231 36.1181 37.9799C36.1872 37.9371 36.2492 37.8876 36.3042 37.8322C36.36 37.7768 36.4047 37.7151 36.4394 37.6475C36.4737 37.5799 36.4911 37.5028 36.4911 37.4167C36.4911 37.3207 36.4745 37.2361 36.4412 37.1637C36.408 37.091 36.3626 37.03 36.3042 36.9809C36.2466 36.9318 36.1798 36.8941 36.1033 36.8683C36.0269 36.8424 35.9456 36.8295 35.8596 36.8295C35.7658 36.8295 35.6797 36.8432 35.6011 36.8701ZM35.6657 37.8469C35.6351 37.8111 35.6055 37.7723 35.5771 37.7306C35.5486 37.6885 35.5239 37.6438 35.5032 37.5958C35.4822 37.5478 35.4718 37.5013 35.4718 37.4573C35.4718 37.3392 35.5095 37.2457 35.5845 37.1767C35.6594 37.1076 35.7525 37.0733 35.8633 37.0733C35.9641 37.0733 36.0498 37.1046 36.12 37.1674C36.1901 37.2302 36.2252 37.3133 36.2252 37.4167C36.2252 37.4832 36.2097 37.5423 36.179 37.594C36.1484 37.6457 36.1089 37.6911 36.0609 37.7306C36.0129 37.7701 35.9604 37.8048 35.9039 37.8359C35.8474 37.8669 35.7942 37.8968 35.7451 37.9263C35.7226 37.909 35.6964 37.8828 35.6657 37.8469ZM35.5383 39.2964C35.474 39.2717 35.4175 39.2377 35.3684 39.1949C35.3193 39.1517 35.2798 39.0996 35.2503 39.0379C35.2207 38.9763 35.2059 38.9087 35.2059 38.8348C35.2059 38.7683 35.2144 38.7082 35.2318 38.6539C35.2491 38.5996 35.2761 38.5486 35.313 38.5006C35.35 38.4526 35.3983 38.4068 35.4589 38.364C35.504 38.3318 35.5564 38.2975 35.6166 38.262L35.6786 38.2255L36.3692 38.9493C36.3275 39.0036 36.2843 39.0538 36.24 39.1007C36.1957 39.1473 36.1484 39.1879 36.0978 39.2226C36.0472 39.2569 35.9929 39.2839 35.9353 39.3038C35.8773 39.3234 35.8127 39.3334 35.7414 39.3334C35.6698 39.3334 35.6022 39.3212 35.5383 39.2964ZM26.2615 36.8738C26.1603 36.9034 26.0702 36.9488 25.99 37.0105C25.9099 37.0721 25.846 37.1493 25.798 37.2431C25.75 37.3366 25.726 37.4462 25.726 37.5718C25.726 37.6922 25.7448 37.7927 25.7832 37.8728C25.8216 37.9529 25.8719 38.0194 25.9343 38.0722C25.9974 38.125 26.0687 38.169 26.1488 38.2033C26.229 38.2377 26.3113 38.2687 26.3963 38.2956C26.4812 38.3226 26.5636 38.3496 26.6437 38.3769C26.7235 38.4038 26.7951 38.4378 26.8579 38.4784C26.9207 38.5191 26.9713 38.5693 27.0093 38.6299C27.0477 38.6901 27.0665 38.7658 27.0665 38.857C27.0665 38.9334 27.0492 39.001 27.0145 39.0601C26.9805 39.1192 26.9365 39.169 26.8837 39.2097C26.8309 39.2503 26.7711 39.2809 26.7046 39.302C26.6382 39.323 26.5717 39.3334 26.5052 39.3334C26.3671 39.3334 26.2478 39.3042 26.147 39.2466C26.0661 39.2001 25.9996 39.1417 25.9472 39.0708L25.9106 39.0158L25.6706 39.1894C25.7714 39.3271 25.894 39.4261 26.038 39.4866C26.1821 39.5468 26.3338 39.5771 26.4941 39.5771C26.5975 39.5771 26.7002 39.5598 26.8025 39.5254C26.9048 39.4911 26.9971 39.4416 27.0795 39.3777C27.1618 39.3134 27.2283 39.234 27.2789 39.1395C27.3295 39.0446 27.3546 38.9382 27.3546 38.82C27.3546 38.6624 27.3214 38.5383 27.2549 38.4471C27.1884 38.3558 27.1061 38.2823 27.0075 38.2273C26.9088 38.1719 26.8014 38.1276 26.6843 38.0944C26.5672 38.0611 26.4594 38.0235 26.3612 37.9817C26.2626 37.94 26.1802 37.8865 26.1137 37.8211C26.0473 37.7557 26.014 37.6641 26.014 37.546C26.014 37.4647 26.0299 37.3938 26.062 37.3336C26.0938 37.273 26.1366 37.2239 26.1895 37.1859C26.2423 37.1479 26.3021 37.1194 26.3686 37.101C26.435 37.0825 26.5026 37.0733 26.5717 37.0733C26.7711 37.0733 26.9277 37.1423 27.0411 37.2797L27.0776 37.3281L27.3103 37.1471C27.2069 37.0289 27.0946 36.9466 26.9742 36.8997C26.8535 36.8532 26.7194 36.8295 26.5717 36.8295C26.4661 36.8295 26.3623 36.8443 26.2615 36.8738ZM17.9319 36.9329C17.7657 37.002 17.6217 37.0973 17.4998 37.2191C17.3779 37.341 17.2826 37.4854 17.2136 37.6531C17.1445 37.8207 17.1102 38.0039 17.1102 38.2033C17.1102 38.4027 17.1445 38.5859 17.2136 38.7536C17.2826 38.9209 17.3779 39.0656 17.4998 39.1875C17.6217 39.3094 17.7657 39.4047 17.9319 39.4737C18.0981 39.5424 18.2783 39.5771 18.4729 39.5771C18.5811 39.5771 18.6841 39.5649 18.7813 39.5402C18.8784 39.5158 18.9689 39.4818 19.0527 39.4386C19.1365 39.3958 19.2108 39.3445 19.2761 39.2854C19.3197 39.2462 19.3585 39.2049 19.3928 39.1624L19.4405 39.097L19.2226 38.9419C19.1735 39.018 19.1199 39.0815 19.0619 39.1321C19.0043 39.1827 18.9423 39.2226 18.8773 39.2521C18.8119 39.2817 18.7455 39.3027 18.6779 39.3149C18.6099 39.3271 18.542 39.3334 18.4729 39.3334C18.3056 39.3334 18.1553 39.3027 18.0224 39.2411C17.8894 39.1797 17.7768 39.097 17.6844 38.9936C17.5921 38.8902 17.5212 38.7702 17.4721 38.6336C17.4226 38.4969 17.3982 38.3533 17.3982 38.2033C17.3982 38.0534 17.4226 37.9097 17.4721 37.7731C17.5212 37.6364 17.5921 37.5164 17.6844 37.413C17.7768 37.3096 17.8894 37.2269 18.0224 37.1656C18.1553 37.1039 18.3056 37.0733 18.4729 37.0733C18.542 37.0733 18.6107 37.0829 18.6797 37.1028C18.7484 37.1224 18.8134 37.1482 18.8736 37.1804C18.9338 37.2125 18.9877 37.249 19.0342 37.2911C19.0653 37.3188 19.0922 37.3469 19.1144 37.375L19.145 37.4167L19.3777 37.2431C19.2621 37.0954 19.1229 36.9898 18.9604 36.9255C18.7979 36.8613 18.6354 36.8295 18.4729 36.8295C18.2783 36.8295 18.0981 36.8639 17.9319 36.9329ZM57.3345 36.896V39.5106H59V39.2669H57.6003V38.2735H58.8671V38.0297H57.6003V37.1397H58.9557V36.896H57.3345ZM55.1445 36.896V39.5106H55.4104V38.2956H55.8536L56.57 39.5106H56.8946L56.1416 38.2698C56.3584 38.2498 56.5238 38.1782 56.6383 38.0538C56.7528 37.9293 56.81 37.776 56.81 37.594C56.81 37.3602 56.7329 37.1855 56.5792 37.0696C56.4426 36.9665 56.2613 36.9097 56.036 36.8982L55.9496 36.896H55.1445ZM55.4104 37.1397H55.8831C56.0013 37.1397 56.1014 37.1515 56.1841 37.1748C56.2668 37.1981 56.3325 37.2309 56.3817 37.2727C56.4308 37.3144 56.4666 37.3632 56.4888 37.4186C56.5109 37.4739 56.522 37.5323 56.522 37.594C56.522 37.6579 56.5109 37.7177 56.4888 37.7731C56.4666 37.8285 56.4308 37.8765 56.3817 37.9167C56.3325 37.9577 56.2668 37.9902 56.1841 38.015C56.1014 38.0397 56.0013 38.0519 55.8831 38.0519H55.4104V37.1397ZM53.394 36.896L52.2566 39.5106H52.5668L52.8548 38.8237H54.1917L54.4798 39.5106H54.79L53.6525 36.896H53.394ZM53.5233 37.2062L54.0883 38.58H52.9545L53.5233 37.2062ZM48.3494 36.896L47.5701 38.1295L46.7909 36.896H46.4582L47.4372 38.3843V39.5106H47.7031V38.3843L48.6817 36.896H48.3494ZM44.0913 36.896V39.5106H44.9592C45.1217 39.5106 45.2849 39.4833 45.4485 39.4294C45.6121 39.3751 45.7602 39.2931 45.8917 39.1838C46.0231 39.0741 46.1299 38.9382 46.2111 38.7757C46.292 38.6132 46.333 38.4223 46.333 38.2033C46.333 37.9869 46.292 37.7963 46.2111 37.6327C46.1299 37.4688 46.0231 37.3321 45.8917 37.2228C45.7602 37.1131 45.6121 37.0315 45.4485 36.9772C45.3174 36.9337 45.187 36.9078 45.0567 36.8993L44.9592 36.896H44.0913ZM44.3572 37.1397H44.8742C45.0737 37.1397 45.2465 37.1696 45.3931 37.2302C45.5397 37.2904 45.6612 37.3705 45.7587 37.4703C45.8558 37.57 45.9279 37.6833 45.9748 37.81C46.0217 37.9371 46.0449 38.0678 46.0449 38.2033C46.0449 38.3389 46.0217 38.4696 45.9748 38.5966C45.9279 38.7233 45.8558 38.8367 45.7587 38.9364C45.6612 39.0361 45.5397 39.1162 45.3931 39.1764C45.2465 39.2366 45.0737 39.2669 44.8742 39.2669H44.3572V37.1397ZM38.7217 36.896V39.5106H39.5194C39.7284 39.5106 39.8961 39.4811 40.0216 39.422C40.1472 39.3629 40.2428 39.2931 40.3093 39.2134C40.3761 39.1336 40.4197 39.0527 40.4408 38.9715C40.4618 38.8902 40.4722 38.8285 40.4722 38.7868C40.4722 38.5948 40.4197 38.4415 40.3152 38.327C40.2236 38.2266 40.1014 38.1649 39.9485 38.1409L39.8813 38.1332V38.1258C40.029 38.0914 40.1431 38.0231 40.2229 37.9208C40.303 37.8185 40.3425 37.6963 40.3425 37.5533C40.3425 37.4304 40.3193 37.3266 40.2727 37.2431C40.2262 37.1593 40.1631 37.0917 40.0844 37.04C40.0057 36.9883 39.9156 36.9514 39.8148 36.9292C39.7391 36.9126 39.6616 36.9023 39.5814 36.8978L39.5009 36.896H38.7217ZM38.9876 37.1397H39.4972C39.6228 37.1397 39.7225 37.1575 39.7963 37.1933C39.8702 37.2291 39.9263 37.2716 39.9644 37.3207C40.0024 37.3698 40.0272 37.4189 40.0382 37.4684C40.0493 37.5179 40.0549 37.5556 40.0549 37.5829C40.0549 37.6667 40.039 37.7376 40.0068 37.7952C39.9747 37.8532 39.9337 37.9005 39.8831 37.9374C39.8325 37.9744 39.776 38.0006 39.7133 38.0168C39.6505 38.0331 39.587 38.0408 39.5231 38.0408H38.9876V37.1397ZM38.9876 38.2624H39.5304C39.7443 38.2624 39.9071 38.3041 40.0179 38.388C40.1287 38.4718 40.1841 38.5996 40.1841 38.772C40.1841 38.8581 40.1664 38.9319 40.1306 38.9936C40.0947 39.0549 40.0464 39.1063 39.9847 39.1469C39.923 39.1875 39.8506 39.2174 39.7668 39.2374C39.683 39.2569 39.5932 39.2669 39.4972 39.2669H38.9876V38.2624ZM33.0935 36.896V39.1118H33.0861L31.5277 36.896H31.1953V39.5106H31.4612V37.2727H31.4682L33.0271 39.5106H33.3594V36.896H33.0935ZM30.2204 39.5106H30.4863V36.896H30.2204V39.5106ZM29.4264 36.896L28.1966 38.0297H28.1597V36.896H27.8938V39.5106H28.1597V38.1627H28.204L29.4892 39.5106H29.8806L28.4884 38.0814L29.8064 36.896H29.4264ZM22.0404 36.896V39.5106H22.9082C23.0707 39.5106 23.2336 39.4833 23.3975 39.4294C23.5615 39.3751 23.7089 39.2931 23.8403 39.1838C23.9725 39.0741 24.0789 38.9382 24.1601 38.7757C24.2414 38.6132 24.282 38.4223 24.282 38.2033C24.282 37.9869 24.2414 37.7963 24.1601 37.6327C24.0789 37.4688 23.9725 37.3321 23.8403 37.2228C23.7089 37.1131 23.5615 37.0315 23.3975 36.9772C23.2664 36.9337 23.1357 36.9078 23.0057 36.8993L22.9082 36.896H22.0404ZM22.3063 37.1397H22.8233C23.0227 37.1397 23.1955 37.1696 23.3421 37.2302C23.4884 37.2904 23.6106 37.3705 23.7077 37.4703C23.8049 37.57 23.8769 37.6833 23.9234 37.81C23.9703 37.9371 23.994 38.0678 23.994 38.2033C23.994 38.3389 23.9703 38.4696 23.9234 38.5966C23.8769 38.7233 23.8049 38.8367 23.7077 38.9364C23.6106 39.0361 23.4884 39.1162 23.3421 39.1764C23.1955 39.2366 23.0227 39.2669 22.8233 39.2669H22.3063V37.1397ZM19.8873 36.896V39.5106H21.5529V39.2669H20.1532V38.2735H21.4199V38.0297H20.1532V37.1397H21.5086V36.896H19.8873ZM16.3121 36.896V39.1118H16.3051L14.7467 36.896H14.4143V39.5106H14.6802V37.2727H14.6876L16.2457 39.5106H16.5784V36.896H16.3121ZM12.6638 36.896L11.526 39.5106H11.8366L12.1246 38.8237H13.4615L13.7495 39.5106H14.0598L12.9219 36.896H12.6638ZM12.7931 37.2062L13.3581 38.58H12.224L12.7931 37.2062ZM11.2494 36.896L10.3926 39.1118H10.3852L9.55429 36.896H9.25885L10.2523 39.5106H10.5182L11.5374 36.896H11.2494ZM6.851 36.896V39.5106H7.71886C7.88135 39.5106 8.04458 39.4833 8.20819 39.4294C8.37215 39.3751 8.51951 39.2931 8.65098 39.1838C8.78319 39.0741 8.88955 38.9382 8.97079 38.7757C9.05204 38.6132 9.09266 38.4223 9.09266 38.2033C9.09266 37.9869 9.05204 37.7963 8.97079 37.6327C8.88955 37.4688 8.78319 37.3321 8.65098 37.2228C8.51951 37.1131 8.37215 37.0315 8.20819 36.9772C8.07708 36.9337 7.94635 36.9078 7.81636 36.8993L7.71886 36.896H6.851ZM7.1169 37.1397H7.63392C7.83334 37.1397 8.00655 37.1696 8.15279 37.2302C8.29903 37.2904 8.42127 37.3705 8.51803 37.4703C8.61552 37.57 8.68754 37.6833 8.73407 37.81C8.78097 37.9371 8.80461 38.0678 8.80461 38.2033C8.80461 38.3389 8.78097 38.4696 8.73407 38.5966C8.68754 38.7233 8.61552 38.8367 8.51803 38.9364C8.42127 39.0361 8.29903 39.1162 8.15279 39.1764C8.00655 39.2366 7.83334 39.2669 7.63392 39.2669H7.1169V37.1397ZM5.13745 36.896L4 39.5106H4.31021L4.59827 38.8237H5.93514L6.22319 39.5106H6.5334L5.39596 36.896H5.13745ZM5.2667 37.2062L5.83173 38.58H4.69798L5.2667 37.2062Z" fill="#543019"/>
</svg>
