<svg width="48" height="48" viewBox="0 0 48 48" fill="none" xmlns="http://www.w3.org/2000/svg">
<rect width="48" height="48" fill="white"/>
<path fill-rule="evenodd" clip-rule="evenodd" d="M39.7695 18.0319C38.4525 20.6489 37.2346 23.3286 35.9514 25.9659C36.2553 25.9642 36.5606 25.9624 36.866 25.959C37.2701 25.0873 37.6808 24.2174 38.1053 23.3553C39.2536 23.3587 40.4013 23.357 41.5496 23.357C41.9556 24.2273 42.3444 25.1075 42.7752 25.9642C43.0698 25.9659 43.3641 25.9659 43.66 25.9642C42.4063 23.3135 41.1967 20.6339 39.9151 18C39.878 18.0068 39.805 18.0236 39.7695 18.0319ZM39.8361 19.7454C40.3242 20.6743 40.7347 21.6469 41.181 22.5997C40.8206 22.6014 40.4605 22.6011 40.0999 22.6009C39.5548 22.6003 39.0094 22.6 38.4649 22.6048C38.9125 21.6455 39.3604 20.6879 39.8361 19.7454ZM30.0295 21.276C29.3093 20.1858 28.5944 19.0902 27.8725 18.0017C27.5364 18.0031 27.2016 18.0051 26.8669 18.0068C27.7666 19.4003 28.7282 20.7553 29.5755 22.1826C29.6457 23.4398 29.5838 24.7038 29.6017 25.9624C29.8874 25.9642 30.1732 25.9659 30.459 25.9659C30.4623 24.8131 30.4573 23.6606 30.4573 22.5078C30.4215 22.1573 30.6484 21.8774 30.8213 21.6031C31.6229 20.4114 32.3954 19.1997 33.1987 18.0083C32.864 18.0051 32.5308 18.0031 32.198 18C31.463 19.0836 30.7626 20.1906 30.0295 21.276ZM19.2599 18.8819L19.1737 19.0745C19.1302 19.1704 19.0859 19.2657 19.0388 19.3585C17.9731 21.5565 16.9226 23.7644 15.855 25.961C16.154 25.9624 16.4546 25.9642 16.7552 25.9659C17.175 25.103 17.5795 24.2319 18.0117 23.3755C18.4552 23.3826 18.8995 23.3798 19.3438 23.377C20.0582 23.3721 20.7732 23.3673 21.487 23.404C21.8466 24.2751 22.262 25.1181 22.6755 25.961C22.9714 25.9624 23.266 25.9642 23.563 25.9642L21.6869 21.9795C21.0609 20.6515 20.4335 19.3243 19.8014 18C19.5575 18.2461 19.4047 18.5613 19.2599 18.8819ZM19.7394 19.7755C20.2132 20.7121 20.6394 21.6734 21.0856 22.6265C20.7545 22.6273 20.4233 22.627 20.0921 22.627C19.517 22.627 18.9419 22.6267 18.3665 22.6296C18.8175 21.6748 19.2761 20.7238 19.7394 19.7755ZM8.00903 24.4518C7.08679 22.6751 6.18656 20.8856 5.27203 19.1024C5.23073 19.0273 5.19247 18.9494 5.15475 18.8706L5.07959 18.7124C4.95323 18.4486 4.81724 18.19 4.58874 18.01C4.16258 20.6179 3.83938 23.2444 3.46663 25.8609C3.74275 25.8526 4.02053 25.8492 4.29692 25.8395C4.35391 25.4293 4.40814 25.0188 4.46183 24.608L4.62095 23.375C4.75392 22.3474 4.89267 21.3206 5.0661 20.2999C6.0335 22.1912 6.95272 24.1155 7.99169 25.9659C9.07471 24.1431 9.90803 22.165 10.9814 20.3377C11.2545 22.1767 11.5246 24.0154 11.801 25.8543C12.0504 25.8526 12.3001 25.8509 12.5514 25.8509C12.1536 23.2344 11.793 20.6117 11.3718 18C10.1888 20.1129 9.14188 22.3095 8.00903 24.4518ZM37.7797 27.963C37.6558 28.0162 37.5484 28.0896 37.4576 28.1835C37.3667 28.2774 37.2957 28.3886 37.2442 28.5178C37.1927 28.6469 37.1671 28.7881 37.1671 28.9417C37.1671 29.0953 37.1927 29.2364 37.2442 29.3656C37.2957 29.4945 37.3667 29.606 37.4576 29.6999C37.5484 29.7937 37.6558 29.8671 37.7797 29.9203C37.9035 29.9733 38.0379 30 38.183 30C38.2636 30 38.3402 29.9906 38.4128 29.9716C38.4852 29.9528 38.553 29.9266 38.6152 29.8933C38.6774 29.8603 38.733 29.8208 38.7817 29.7752C38.8142 29.7451 38.8431 29.7132 38.8685 29.6805L38.9043 29.6302L38.7418 29.5107C38.7049 29.5693 38.665 29.6182 38.6221 29.6572C38.5789 29.6962 38.5332 29.7269 38.4844 29.7496C38.4357 29.7724 38.3861 29.7886 38.3358 29.798C38.2854 29.8074 38.2342 29.8122 38.183 29.8122C38.058 29.8122 37.9462 29.7886 37.8468 29.7411C37.7477 29.6939 37.664 29.6302 37.5952 29.5505C37.5264 29.4708 37.4735 29.3784 37.4369 29.2731C37.4003 29.1679 37.3819 29.0572 37.3819 28.9417C37.3819 28.8262 37.4003 28.7155 37.4369 28.6102C37.4735 28.505 37.5264 28.4125 37.5952 28.3329C37.664 28.2532 37.7477 28.1895 37.8468 28.1422C37.9462 28.0947 38.058 28.0711 38.183 28.0711C38.2342 28.0711 38.2857 28.0785 38.3371 28.0939C38.3886 28.109 38.4365 28.1289 38.4817 28.1536C38.5265 28.1784 38.5665 28.2065 38.6014 28.239C38.6248 28.2603 38.6446 28.2819 38.6614 28.3036L38.684 28.3357L38.8575 28.202C38.771 28.0882 38.6675 28.0068 38.5464 27.9573C38.4252 27.9078 38.3041 27.8834 38.183 27.8834C38.0379 27.8834 37.9035 27.9098 37.7797 27.963ZM31.0982 27.963C30.9743 28.0162 30.867 28.0896 30.7761 28.1835C30.6853 28.2774 30.6142 28.3886 30.5627 28.5178C30.5113 28.6469 30.4857 28.7881 30.4857 28.9417C30.4857 29.0953 30.5113 29.2364 30.5627 29.3656C30.6142 29.4945 30.6853 29.606 30.7761 29.6999C30.867 29.7937 30.9743 29.8671 31.0982 29.9203C31.2221 29.9733 31.3564 30 31.5015 30C31.6466 30 31.7809 29.9733 31.9048 29.9203C32.0287 29.8671 32.1358 29.7937 32.2269 29.6999C32.3178 29.606 32.3888 29.4945 32.4403 29.3656C32.4918 29.2364 32.5174 29.0953 32.5174 28.9417C32.5174 28.7881 32.4918 28.6469 32.4403 28.5178C32.3888 28.3886 32.3178 28.2774 32.2269 28.1835C32.1358 28.0896 32.0287 28.0162 31.9048 27.963C31.7809 27.9098 31.6466 27.8834 31.5015 27.8834C31.3564 27.8834 31.2221 27.9098 31.0982 27.963ZM31.1656 29.7411C31.0665 29.6939 30.9826 29.6302 30.9138 29.5505C30.8449 29.4708 30.7921 29.3784 30.7555 29.2731C30.7186 29.1679 30.7004 29.0572 30.7004 28.9417C30.7004 28.8262 30.7186 28.7155 30.7555 28.6102C30.7921 28.505 30.8449 28.4125 30.9138 28.3329C30.9826 28.2532 31.0665 28.1895 31.1656 28.1422C31.2648 28.0947 31.3768 28.0711 31.5015 28.0711C31.6262 28.0711 31.7383 28.0947 31.8374 28.1422C31.9365 28.1895 32.0204 28.2532 32.0893 28.3329C32.1581 28.4125 32.2107 28.505 32.2476 28.6102C32.2845 28.7155 32.3026 28.8262 32.3026 28.9417C32.3026 29.0572 32.2845 29.1679 32.2476 29.2731C32.2107 29.3784 32.1581 29.4708 32.0893 29.5505C32.0204 29.6302 31.9365 29.6939 31.8374 29.7411C31.7383 29.7886 31.6262 29.8122 31.5015 29.8122C31.3768 29.8122 31.2648 29.7886 31.1656 29.7411ZM26.5572 27.9147C26.4985 27.9354 26.4471 27.9661 26.403 28.0071C26.359 28.0478 26.3245 28.0976 26.2998 28.1565C26.275 28.2154 26.2626 28.2825 26.2626 28.3585C26.2626 28.4515 26.286 28.5371 26.3328 28.6159C26.3796 28.6947 26.4322 28.7661 26.4911 28.8307C26.4322 28.8592 26.3763 28.8925 26.3232 28.9303C26.2698 28.9681 26.2227 29.0114 26.1814 29.0597C26.1401 29.1081 26.1076 29.1627 26.0837 29.2233C26.0597 29.2842 26.0479 29.3514 26.0479 29.4253C26.0479 29.5164 26.0644 29.5974 26.0974 29.6686C26.1305 29.7397 26.1748 29.7997 26.2309 29.8492C26.2868 29.8987 26.3521 29.936 26.4264 29.9616C26.5007 29.9872 26.5784 30 26.659 30C26.7912 30 26.9029 29.969 26.9946 29.9075C27.0684 29.858 27.1383 29.7937 27.2047 29.7149L27.2537 29.6529L27.529 29.9488H27.8098L27.3721 29.4822L27.7299 28.8592H27.5069L27.2399 29.3371L26.7912 28.8592C26.8407 28.8327 26.8911 28.8028 26.9426 28.7696C26.9941 28.7366 27.0403 28.6984 27.0813 28.6558C27.1229 28.6131 27.1562 28.5656 27.1821 28.5135C27.2077 28.4615 27.2206 28.402 27.2206 28.3357C27.2206 28.2617 27.2083 28.1966 27.1835 28.1408C27.1587 28.0848 27.1248 28.0378 27.0813 28C27.0384 27.9622 26.9886 27.9331 26.9316 27.9132C26.8746 27.8933 26.814 27.8834 26.7499 27.8834C26.68 27.8834 26.6158 27.8939 26.5572 27.9147ZM26.6054 28.6671C26.5825 28.6395 26.5605 28.6097 26.5393 28.5775C26.5181 28.5451 26.4996 28.5107 26.4842 28.4737C26.4685 28.4367 26.4608 28.4009 26.4608 28.367C26.4608 28.276 26.4889 28.204 26.5448 28.1508C26.6007 28.0976 26.67 28.0711 26.7526 28.0711C26.8278 28.0711 26.8917 28.0953 26.944 28.1437C26.9963 28.192 27.0224 28.256 27.0224 28.3357C27.0224 28.3869 27.0109 28.4324 26.988 28.4723C26.9652 28.5121 26.9357 28.5471 26.8999 28.5775C26.8641 28.608 26.825 28.6347 26.7829 28.6586C26.7408 28.6825 26.7012 28.7055 26.6645 28.7283C26.6477 28.7149 26.6282 28.6947 26.6054 28.6671ZM26.5104 29.7838C26.4625 29.7647 26.4204 29.7385 26.3837 29.7055C26.3471 29.6723 26.3177 29.6321 26.2956 29.5846C26.2736 29.5371 26.2626 29.4851 26.2626 29.4282C26.2626 29.377 26.2689 29.3306 26.2819 29.2888C26.2948 29.2469 26.3149 29.2077 26.3424 29.1707C26.37 29.1337 26.406 29.0984 26.4512 29.0654C26.4848 29.0407 26.5239 29.0142 26.5687 28.9869L26.615 28.9587L27.1298 29.5164C27.0987 29.5582 27.0665 29.5969 27.0334 29.633C27.0004 29.6688 26.9652 29.7001 26.9274 29.7269C26.8897 29.7533 26.8493 29.7741 26.8063 29.7895C26.7631 29.8046 26.7149 29.8122 26.6618 29.8122C26.6084 29.8122 26.558 29.8028 26.5104 29.7838ZM19.5949 27.9175C19.5195 27.9403 19.4523 27.9752 19.3926 28.0228C19.3328 28.0703 19.2852 28.1297 19.2494 28.202C19.2136 28.274 19.1957 28.3585 19.1957 28.4552C19.1957 28.5479 19.2098 28.6253 19.2384 28.6871C19.267 28.7488 19.3045 28.8 19.351 28.8407C19.3981 28.8814 19.4512 28.9152 19.5109 28.9417C19.5707 28.9681 19.6321 28.992 19.6954 29.0128C19.7587 29.0336 19.8201 29.0543 19.8798 29.0754C19.9393 29.0962 19.9927 29.1223 20.0395 29.1536C20.0863 29.1849 20.124 29.2236 20.1524 29.2703C20.181 29.3166 20.1951 29.375 20.1951 29.4452C20.1951 29.5041 20.1821 29.5562 20.1562 29.6017C20.1309 29.6472 20.0982 29.6856 20.0588 29.7169C20.0194 29.7482 19.9748 29.7718 19.9253 29.7881C19.8757 29.8043 19.8262 29.8122 19.7766 29.8122C19.6736 29.8122 19.5847 29.7898 19.5096 29.7454C19.4493 29.7095 19.3997 29.6646 19.3606 29.61L19.3334 29.5676L19.1544 29.7013C19.2296 29.8074 19.321 29.8836 19.4284 29.9303C19.5357 29.9767 19.6489 30 19.7683 30C19.8454 30 19.922 29.9866 19.9982 29.9602C20.0745 29.9337 20.1433 29.8956 20.2047 29.8464C20.2661 29.7969 20.3156 29.7357 20.3534 29.6629C20.3911 29.5898 20.4098 29.5078 20.4098 29.4168C20.4098 29.2953 20.385 29.1997 20.3355 29.1294C20.2859 29.0592 20.2245 29.0026 20.151 28.9602C20.0775 28.9175 19.9974 28.8834 19.9101 28.8578C19.8229 28.8321 19.7425 28.8031 19.6692 28.771C19.5957 28.7388 19.5343 28.6976 19.4848 28.6472C19.4352 28.5969 19.4105 28.5263 19.4105 28.4353C19.4105 28.3727 19.4223 28.3181 19.4463 28.2717C19.4699 28.225 19.5019 28.1872 19.5412 28.1579C19.5806 28.1286 19.6252 28.1067 19.6747 28.0925C19.7243 28.0782 19.7747 28.0711 19.8262 28.0711C19.9748 28.0711 20.0915 28.1243 20.1761 28.2302L20.2033 28.2674L20.3768 28.128C20.2997 28.037 20.216 27.9735 20.1262 27.9374C20.0362 27.9016 19.9363 27.8834 19.8262 27.8834C19.7474 27.8834 19.6701 27.8947 19.5949 27.9175ZM13.3856 27.963C13.2617 28.0162 13.1543 28.0896 13.0635 28.1835C12.9726 28.2774 12.9016 28.3886 12.8501 28.5178C12.7987 28.6469 12.773 28.7881 12.773 28.9417C12.773 29.0953 12.7987 29.2364 12.8501 29.3656C12.9016 29.4945 12.9726 29.606 13.0635 29.6999C13.1543 29.7937 13.2617 29.8671 13.3856 29.9203C13.5095 29.9733 13.6438 30 13.7889 30C13.8696 30 13.9464 29.9906 14.0188 29.9716C14.0912 29.9528 14.1586 29.9266 14.2211 29.8933C14.2836 29.8603 14.3389 29.8208 14.3877 29.7752C14.4202 29.7451 14.4491 29.7132 14.4747 29.6805L14.5102 29.6302L14.3477 29.5107C14.3111 29.5693 14.2712 29.6182 14.228 29.6572C14.185 29.6962 14.1388 29.7269 14.0903 29.7496C14.0416 29.7724 13.9921 29.7886 13.9417 29.798C13.891 29.8074 13.8404 29.8122 13.7889 29.8122C13.6642 29.8122 13.5521 29.7886 13.453 29.7411C13.3539 29.6939 13.27 29.6302 13.2011 29.5505C13.1323 29.4708 13.0795 29.3784 13.0428 29.2731C13.0059 29.1679 12.9878 29.0572 12.9878 28.9417C12.9878 28.8262 13.0059 28.7155 13.0428 28.6102C13.0795 28.505 13.1323 28.4125 13.2011 28.3329C13.27 28.2532 13.3539 28.1895 13.453 28.1422C13.5521 28.0947 13.6642 28.0711 13.7889 28.0711C13.8404 28.0711 13.8916 28.0785 13.9431 28.0939C13.9943 28.109 14.0427 28.1289 14.0876 28.1536C14.1325 28.1784 14.1727 28.2065 14.2073 28.239C14.2305 28.2603 14.2506 28.2819 14.2671 28.3036L14.2899 28.3357L14.4634 28.202C14.3772 28.0882 14.2734 28.0068 14.1523 27.9573C14.0312 27.9078 13.91 27.8834 13.7889 27.8834C13.6438 27.8834 13.5095 27.9098 13.3856 27.963ZM42.7584 27.9346V29.9488H44V29.761H42.9566V28.9957H43.9009V28.808H42.9566V28.1223H43.967V27.9346H42.7584ZM41.1259 27.9346V29.9488H41.3241V29.0128H41.6545L42.1885 29.9488H42.4305L41.8692 28.9929C42.0308 28.9775 42.1541 28.9223 42.2395 28.8265C42.3248 28.7306 42.3675 28.6125 42.3675 28.4723C42.3675 28.2922 42.31 28.1576 42.1954 28.0683C42.0936 27.9889 41.9584 27.9451 41.7905 27.9363L41.726 27.9346H41.1259ZM41.3241 28.1223H41.6765C41.7646 28.1223 41.8392 28.1314 41.9009 28.1494C41.9625 28.1673 42.0115 28.1926 42.0481 28.2248C42.0848 28.2569 42.1115 28.2945 42.128 28.3371C42.1445 28.3798 42.1528 28.4248 42.1528 28.4723C42.1528 28.5215 42.1445 28.5676 42.128 28.6102C42.1115 28.6529 42.0848 28.6899 42.0481 28.7209C42.0115 28.7525 41.9625 28.7775 41.9009 28.7966C41.8392 28.8156 41.7646 28.825 41.6765 28.825H41.3241V28.1223ZM39.821 27.9346L38.9731 29.9488H39.2043L39.4191 29.4196H40.4156L40.6304 29.9488H40.8616L40.0137 27.9346H39.821ZM39.9173 28.1735L40.3385 29.2319H39.4934L39.9173 28.1735ZM36.0604 27.9346L35.4796 28.8848L34.8987 27.9346H34.6506L35.3804 29.0811V29.9488H35.5787V29.0811L36.3082 27.9346H36.0604ZM32.8863 27.9346V29.9488H33.5332C33.6543 29.9488 33.776 29.9277 33.898 29.8862C34.0199 29.8444 34.1303 29.7812 34.2283 29.697C34.3263 29.6125 34.4059 29.5078 34.4665 29.3826C34.5268 29.2575 34.5573 29.1104 34.5573 28.9417C34.5573 28.775 34.5268 28.6282 34.4665 28.5021C34.4059 28.3758 34.3263 28.2706 34.2283 28.1863C34.1303 28.1018 34.0199 28.039 33.898 27.9972C33.8002 27.9636 33.7031 27.9437 33.6059 27.9371L33.5332 27.9346H32.8863ZM33.0845 28.1223H33.4699C33.6185 28.1223 33.7474 28.1454 33.8567 28.192C33.966 28.2384 34.0565 28.3001 34.1292 28.377C34.2016 28.4538 34.2553 28.5411 34.2903 28.6387C34.3252 28.7366 34.3426 28.8373 34.3426 28.9417C34.3426 29.0461 34.3252 29.1468 34.2903 29.2447C34.2553 29.3422 34.2016 29.4296 34.1292 29.5064C34.0565 29.5832 33.966 29.6449 33.8567 29.6913C33.7474 29.7377 33.6185 29.761 33.4699 29.761H33.0845V28.1223ZM28.8834 27.9346V29.9488H29.4781C29.6339 29.9488 29.7589 29.926 29.8525 29.8805C29.9461 29.835 30.0174 29.7812 30.0669 29.7198C30.1168 29.6583 30.1493 29.596 30.1649 29.5334C30.1806 29.4708 30.1883 29.4233 30.1883 29.3912C30.1883 29.2432 30.1493 29.1252 30.0713 29.037C30.0031 28.9596 29.9119 28.9121 29.798 28.8936L29.7479 28.8876V28.8819C29.858 28.8555 29.9431 28.8028 30.0025 28.724C30.0623 28.6452 30.0917 28.5511 30.0917 28.441C30.0917 28.3462 30.0744 28.2663 30.0397 28.202C30.005 28.1374 29.9579 28.0853 29.8993 28.0455C29.8406 28.0057 29.7735 27.9772 29.6983 27.9602C29.6419 27.9474 29.5841 27.9394 29.5243 27.936L29.4643 27.9346H28.8834ZM29.0816 28.1223H29.4616C29.5552 28.1223 29.6295 28.136 29.6845 28.1636C29.7396 28.1912 29.7815 28.2239 29.8098 28.2617C29.8382 28.2996 29.8566 28.3374 29.8649 28.3755C29.8731 28.4137 29.8773 28.4427 29.8773 28.4637C29.8773 28.5283 29.8654 28.5829 29.8415 28.6273C29.8175 28.672 29.787 28.7084 29.7492 28.7368C29.7115 28.7653 29.6694 28.7855 29.6226 28.798C29.5758 28.8105 29.5285 28.8165 29.4808 28.8165H29.0816V28.1223ZM29.0816 28.9872H29.4863C29.6457 28.9872 29.7671 29.0193 29.8497 29.0839C29.9323 29.1485 29.9736 29.2469 29.9736 29.3798C29.9736 29.4461 29.9604 29.503 29.9337 29.5505C29.907 29.5977 29.8709 29.6373 29.825 29.6686C29.779 29.6999 29.725 29.7229 29.6625 29.7383C29.6 29.7533 29.5331 29.761 29.4616 29.761H29.0816V28.9872ZM24.6879 27.9346V29.6415H24.6824L23.5206 27.9346H23.2729V29.9488H23.4711V28.2248H23.4763L24.6384 29.9488H24.8861V27.9346H24.6879ZM22.5461 29.9488H22.7443V27.9346H22.5461V29.9488ZM21.9542 27.9346L21.0375 28.808H21.0099V27.9346H20.8117V29.9488H21.0099V28.9104H21.043L22.001 29.9488H22.2928L21.255 28.8478L22.2375 27.9346H21.9542ZM16.4483 27.9346V29.9488H17.0952C17.2163 29.9488 17.3377 29.9277 17.46 29.8862C17.5822 29.8444 17.6921 29.7812 17.7901 29.697C17.8886 29.6125 17.9679 29.5078 18.0285 29.3826C18.089 29.2575 18.1193 29.1104 18.1193 28.9417C18.1193 28.775 18.089 28.6282 18.0285 28.5021C17.9679 28.3758 17.8886 28.2706 17.7901 28.1863C17.6921 28.1018 17.5822 28.039 17.46 27.9972C17.3623 27.9636 17.2648 27.9437 17.1679 27.9371L17.0952 27.9346H16.4483ZM16.6465 28.1223H17.0319C17.1806 28.1223 17.3094 28.1454 17.4187 28.192C17.5277 28.2384 17.6188 28.3001 17.6912 28.377C17.7636 28.4538 17.8173 28.5411 17.852 28.6387C17.887 28.7366 17.9046 28.8373 17.9046 28.9417C17.9046 29.0461 17.887 29.1468 17.852 29.2447C17.8173 29.3422 17.7636 29.4296 17.6912 29.5064C17.6188 29.5832 17.5277 29.6449 17.4187 29.6913C17.3094 29.7377 17.1806 29.761 17.0319 29.761H16.6465V28.1223ZM14.8433 27.9346V29.9488H16.0849V29.761H15.0415V28.9957H15.9858V28.808H15.0415V28.1223H16.0518V27.9346H14.8433ZM12.1781 27.9346V29.6415H12.1729L11.0111 27.9346H10.7634V29.9488H10.9616V28.2248H10.9671L12.1286 29.9488H12.3766V27.9346H12.1781ZM9.45847 27.9346L8.61028 29.9488H8.84181L9.05654 29.4196H10.0531L10.2678 29.9488H10.4991L9.6509 27.9346H9.45847ZM9.55482 28.1735L9.97603 29.2319H9.13059L9.55482 28.1735ZM8.40408 27.9346L7.76539 29.6415H7.75989L7.14047 27.9346H6.92023L7.66078 29.9488H7.85899L8.61881 27.9346H8.40408ZM5.12529 27.9346V29.9488H5.77224C5.89337 29.9488 6.01505 29.9277 6.13701 29.8862C6.25924 29.8444 6.36909 29.7812 6.46709 29.697C6.56565 29.6125 6.64493 29.5078 6.7055 29.3826C6.76606 29.2575 6.79635 29.1104 6.79635 28.9417C6.79635 28.775 6.76606 28.6282 6.7055 28.5021C6.64493 28.3758 6.56565 28.2706 6.46709 28.1863C6.36909 28.1018 6.25924 28.039 6.13701 27.9972C6.03928 27.9636 5.94183 27.9437 5.84492 27.9371L5.77224 27.9346H5.12529ZM5.32351 28.1223H5.70892C5.85758 28.1223 5.9867 28.1454 6.09572 28.192C6.20473 28.2384 6.29586 28.3001 6.36798 28.377C6.44066 28.4538 6.49435 28.5411 6.52903 28.6387C6.564 28.7366 6.58162 28.8373 6.58162 28.9417C6.58162 29.0461 6.564 29.1468 6.52903 29.2447C6.49435 29.3422 6.44066 29.4296 6.36798 29.5064C6.29586 29.5832 6.20473 29.6449 6.09572 29.6913C5.9867 29.7377 5.85758 29.761 5.70892 29.761H5.32351V28.1223ZM3.84792 27.9346L3 29.9488H3.23125L3.44598 29.4196H4.44256L4.65729 29.9488H4.88854L4.04062 27.9346H3.84792ZM3.94427 28.1735L4.36547 29.2319H3.52031L3.94427 28.1735Z" fill="#543019"/>
</svg>
