<?xml version="1.0" encoding="UTF-8"?>
<svg width="1260px" height="575px" viewBox="0 0 1260 575" version="1.1" xmlns="http://www.w3.org/2000/svg" xmlns:xlink="http://www.w3.org/1999/xlink">
    <title>floral-pattern-3</title>
    <g id="floral-pattern-3" stroke="none" stroke-width="1" fill="none" fill-rule="evenodd">
        <path d="M589.96079,1168.53799 C590.320599,1167.22953 587.078572,1166.25264 584.121393,1166.25264 C581.970037,1166.25264 579.964852,1166.77317 579.5938,1168.03172 C578.754246,1170.96594 578.311981,1173.70408 578.248265,1176.24256 L578.248265,1177.40841 C578.356957,1181.74023 579.61254,1185.45525 581.857597,1188.5 L592.288303,1188.5 C588.431603,1183.67974 587.655765,1176.49213 589.96079,1168.53799 Z M1340.37198,650.302831 C1343.96258,645.62518 1347.98794,641.307624 1352.56051,637.795821 C1353.72614,640.12395 1353.84982,643.193658 1353.87606,645.561005 C1353.92853,649.768038 1351.67223,652.966096 1347.90548,652.966096 C1347.27581,652.966096 1346.62741,652.88766 1345.94152,652.6987 C1343.97007,652.210257 1342.08857,651.372415 1340.37198,650.302831 Z M1478.86088,774.709787 C1470.20673,804.879204 1458.74532,834.58157 1442.82004,861.962937 C1427.30703,888.606291 1407.37512,912.66838 1385.99274,935.193833 C1348.40771,974.83977 1305.75913,1010.17528 1261.33774,1042.84396 C1260.25081,1039.54964 1259.10767,1036.26958 1257.9308,1032.98596 C1267.40201,1021.52001 1276.01868,1014.98128 1283.07618,1011.27695 C1290.91327,1007.18401 1296.7864,1006.50661 1299.88225,1006.50661 C1300.70307,1006.50661 1301.33648,1006.58504 1301.73377,1006.6207 L1302.16479,1006.65991 L1302.24725,1006.692 L1304.07253,1002.09635 C1303.87013,1002.06426 1277.70154,988.337929 1251.12441,988.309406 C1247.32768,988.309406 1243.48972,988.594629 1239.73797,989.257771 C1237.63533,984.74769 1235.47273,980.258999 1233.26516,975.798831 C1239.87664,969.762809 1247.23398,963.174167 1254.56509,957.569544 C1259.65488,953.694082 1264.72219,950.32489 1269.43343,947.946847 C1274.06597,945.611587 1278.40242,944.260345 1281.94429,944.260345 L1287.85489,944.260345 L1284.00944,940.128183 C1283.74708,939.860787 1274.64691,930.270178 1256.65647,930.23096 C1251.67912,930.23096 1246.05336,930.990365 1239.82042,932.876399 C1232.30192,935.083309 1225.66045,939.746698 1219.45375,945.386974 C1219.00024,945.814808 1218.53923,946.22125 1218.08947,946.666911 C1208.56578,929.161375 1198.52487,911.923236 1188.42399,894.923971 C1190.23802,888.745337 1191.86091,882.523919 1193.24393,876.555637 C1196.4822,862.654602 1198.34122,850.197506 1198.3712,842.792415 C1198.3712,841.590915 1198.30748,840.539156 1198.22503,839.544443 L1197.94393,837.262662 L1195.49648,837.369621 C1195.21538,837.369621 1185.68419,837.858064 1172.71608,844.853148 C1169.4853,846.603701 1166.04088,848.760697 1162.48027,851.427528 C1162.38283,851.26709 1162.28163,851.078131 1162.18043,850.924823 C1161.40085,822.812574 1160.63251,795.349205 1159.86791,768.944725 C1177.14998,750.968573 1197.65908,736.422221 1221.94242,727.776412 C1227.51571,725.822637 1233.72616,725.270019 1238.27249,721.451602 C1243.61341,717.00926 1249.35535,712.951969 1255.26596,709.229814 C1258.1107,707.465 1262.19603,704.755385 1266.37131,703.083268 C1265.5505,705.12974 1264.81214,707.179777 1264.1375,709.165639 C1260.69308,719.233996 1255.98558,737.135278 1268.2828,743.848704 C1272.19946,745.955786 1275.98495,746.914847 1279.50808,746.914847 C1291.67786,746.914847 1300.68433,735.587945 1301.3065,722.809974 C1301.92492,708.898243 1294.96861,700.159736 1284.358,696.972374 C1287.09405,691.424795 1290.38855,686.098264 1294.17404,681.124695 C1297.04501,677.370453 1304.32739,669.416308 1308.63385,669.416308 C1309.01615,669.416308 1309.38345,669.491179 1309.71703,669.619529 C1310.50411,669.947535 1311.28369,670.332586 1312.04454,670.799638 C1307.51694,679.088919 1303.89637,688.212476 1304.27117,696.808371 C1304.67221,705.796448 1313.05275,708.898243 1321.45953,708.898243 C1325.92716,708.898243 1330.38729,708.035445 1333.68554,706.662811 C1350.80269,699.685554 1338.04822,677.78046 1328.41584,669.387786 C1328.78314,668.735339 1329.11297,668.136372 1329.40906,667.605145 C1331.2081,664.296563 1333.17206,660.90598 1335.31592,657.568876 C1336.85635,658.053754 1338.39678,658.445935 1339.92972,658.763245 C1342.13355,659.187514 1344.51728,659.447779 1346.93475,659.447779 C1356.76577,659.447779 1367.26019,655.565187 1369.2204,645.817706 C1371.43922,634.875855 1363.83826,630.01281 1354.88802,630.01281 C1352.62422,630.01281 1350.28921,630.326555 1347.99543,630.939783 C1342.08857,632.451463 1336.89008,636.451709 1332.38498,641.271971 C1332.31002,641.115099 1332.24255,640.972487 1332.18259,640.81918 C1328.81687,632.847209 1333.28825,625.096286 1336.81512,618.065549 C1345.03076,601.743688 1351.51481,578.376828 1368.98803,568.593694 C1372.27128,566.76827 1376.15047,566.137215 1380.25829,566.137215 C1388.36898,566.137215 1397.38668,568.565172 1404.49665,568.846829 C1406.04083,568.893178 1407.59251,568.925265 1409.14793,568.925265 C1419.31628,568.925265 1429.53335,567.680982 1439.49181,565.791382 C1448.95928,563.962392 1463.14923,560.52546 1472.82284,553.808469 C1473.34382,565.003455 1476.31599,577.417767 1480.96352,588.195615 C1483.5309,594.149637 1486.61176,599.554604 1490.17612,603.996946 C1493.64303,608.335894 1497.52971,611.701521 1501.91488,613.580424 C1500.33697,667.936716 1493.94287,722.114744 1478.86088,774.709787 Z M1240.25144,1058.07128 C1227.28333,1067.28754 1213.56188,1075.7836 1201.30214,1085.83413 C1193.98228,1091.77389 1187.77933,1098.77254 1181.21282,1105.42179 C1177.11625,1109.56465 1173.19583,1113.92856 1169.36162,1118.29246 C1169.28666,1118.36733 1169.2117,1118.4636 1169.13674,1118.54203 C1168.72446,1102.09539 1168.30468,1085.40987 1167.86991,1068.60313 L1169.68395,1065.16619 L1170.03251,1062.67763 L1169.36162,1067.56206 C1169.4853,1067.59059 1173.51816,1068.05051 1179.91226,1068.05051 C1188.76506,1068.05051 1202.1342,1067.18058 1216.02057,1062.84876 C1226.46252,1059.58296 1237.23055,1054.342 1246.39068,1046.05272 C1247.05783,1048.12771 1247.72122,1050.2134 1248.35089,1052.27413 C1245.65982,1054.23147 1242.95376,1056.15316 1240.25144,1058.07128 Z M1212.45247,993.272279 C1215.13604,991.774861 1218.37057,989.172205 1222.1823,985.820839 C1223.31419,988.216709 1224.42735,990.609013 1225.52552,993.001318 C1215.43213,995.996155 1207.57256,998.638029 1200.8224,1001.62217 C1205.37623,997.932103 1209.69393,994.769698 1212.45247,993.272279 Z M1164.69535,944.916357 C1165.80851,943.229979 1167.01536,941.589949 1168.29344,939.999833 C1172.5999,934.626953 1176.56154,927.164817 1180.15963,918.572487 C1181.02917,916.479667 1181.89121,914.304844 1182.71952,912.09437 C1191.38117,926.986553 1199.86291,942.035609 1207.8724,957.255799 C1202.95876,962.699985 1198.23252,968.301043 1193.55876,973.221132 C1189.44344,977.549385 1185.36561,981.310757 1181.3365,984.05959 C1177.30365,986.765639 1173.38698,988.387843 1169.51903,988.640978 C1168.96433,988.683761 1168.49208,988.715849 1167.96736,988.715849 C1167.21776,988.698022 1166.50189,988.67663 1165.83474,988.594629 C1165.45244,974.01619 1165.08139,959.448447 1164.69535,944.916357 Z M1282.04173,737.559546 C1281.43456,738.597043 1280.85736,739.042704 1280.31015,739.042704 C1277.70904,739.042704 1275.95872,728.860258 1275.9962,725.965249 C1276.09364,718.984426 1278.1588,712.035691 1280.70744,705.450615 C1287.91111,713.454674 1286.61805,729.730187 1282.04173,737.559546 Z M1322.91751,702.894308 C1322.7526,702.976309 1322.62142,702.987005 1322.55021,702.987005 C1322.49024,702.987005 1322.49024,702.976309 1322.56895,702.962048 C1322.62142,702.926395 1322.7451,702.894308 1322.91751,702.894308 Z M1321.69941,700.441394 C1317.76025,695.931312 1319.27445,688.651006 1322.11169,681.780707 C1324.22556,685.470774 1325.72477,689.356931 1326.36568,692.686905 C1326.95037,695.731656 1326.24574,698.658753 1324.6341,701.286366 C1324.30802,701.814027 1323.99694,702.170556 1323.6896,702.40943 C1322.91001,701.856811 1322.27285,701.108102 1321.69941,700.441394 Z M1157.0644,675.384591 C1155.59518,628.968182 1154.21217,589.072675 1152.97907,559.120739 C1151.76472,529.090368 1150.69279,509.185397 1149.78202,502.33649 C1149.26855,498.553726 1149.02867,491.066633 1149.02867,480.702358 C1149.02867,430.677884 1154.71815,313.323056 1161.52078,190.673784 C1161.78314,192.912782 1161.92182,194.973515 1161.92182,196.802504 C1161.88434,205.45901 1164.5042,212.04052 1168.3684,217.377748 C1174.22278,225.353284 1182.52087,230.619206 1189.44344,237.806815 C1196.36227,244.983728 1202.1342,253.839889 1203.40478,269.355997 C1205.18133,291.022216 1211.30932,313.661758 1225.86659,335.434936 C1237.56037,353.015343 1254.69627,369.957563 1279.19325,385.427323 C1268.0954,395.748815 1259.30632,407.478593 1256.01931,420.745008 C1255.79443,421.304757 1254.62505,424.103504 1253.42194,427.700873 C1252.11014,431.729642 1250.72713,436.649732 1250.72713,440.945897 C1250.72713,442.486098 1250.88454,443.912211 1251.39802,445.302671 C1251.92274,446.657479 1252.86349,448.019416 1254.36269,448.814474 C1255.03359,449.178133 1255.62952,449.217351 1256.11301,449.217351 C1256.89635,449.217351 1257.48478,449.064044 1258.12195,448.875084 C1260.53566,448.080026 1263.74021,446.283124 1268.12913,443.644815 C1279.97283,436.510686 1299.46622,423.180096 1320.4963,409.535761 C1325.42868,412.947736 1329.22166,416.042401 1332.06265,418.826886 C1338.30683,424.919953 1340.01218,429.394382 1339.97095,432.364262 C1339.97095,433.932987 1339.53618,435.234315 1338.86903,436.357378 C1337.34734,438.179238 1335.85189,439.405695 1334.74248,440.154404 C1334.15779,440.575107 1333.64431,440.824677 1333.32198,441.013637 L1332.97342,441.166944 L1332.93219,441.206162 L1334.90739,445.748332 C1334.91863,445.748332 1334.92613,445.748332 1334.94487,445.730505 L1334.94487,445.748332 C1335.00858,445.716244 1335.2672,445.623547 1335.67198,445.413195 C1336.59399,444.978231 1338.24686,444.118998 1339.97095,442.700015 C1341.12159,441.769477 1342.32844,440.518063 1343.28419,438.981426 C1343.3479,438.895859 1343.41537,438.813858 1343.47908,438.724726 C1347.56816,433.562197 1351.46609,424.991259 1351.46609,411.528753 C1351.46609,405.810041 1350.77645,399.192877 1349.11234,391.570304 C1359.27694,385.455845 1369.13795,379.89757 1377.99824,375.583579 C1383.8976,372.645786 1389.38843,370.303396 1394.12966,368.688323 C1398.14003,367.326385 1401.65941,366.49924 1404.45168,366.296019 C1403.11739,367.162382 1401.71938,368.278315 1400.29889,369.743646 C1394.92799,375.273399 1389.38843,385.352452 1385.87655,404.123662 L1385.82408,404.301926 L1385.82408,404.494452 C1385.82408,404.494452 1385.75287,406.195091 1385.5917,408.936793 C1385.32934,413.072521 1384.80462,419.57203 1383.8114,426.046582 C1382.8669,432.514004 1381.37144,439.03134 1379.46746,442.935324 C1379.07766,443.755339 1378.08444,445.110146 1376.70517,446.775133 C1371.7578,452.664979 1361.95676,462.355416 1353.45628,476.448976 C1344.90333,490.546102 1337.67342,509.185397 1337.67342,533.158355 C1337.67342,545.754496 1339.6861,559.83023 1344.51728,575.449732 L1344.64097,575.874 C1344.35237,576.202006 1344.05628,576.533577 1343.76393,576.882975 C1336.89008,584.887033 1332.57613,594.933999 1328.14598,604.264342 C1323.6821,613.669556 1317.07062,623.363559 1315.61264,633.742095 C1314.5707,641.418147 1318.34869,647.51478 1324.04566,651.846598 C1322.41528,654.178292 1320.93107,656.463638 1319.56679,658.527937 C1318.5136,660.135879 1317.40044,661.818692 1316.30977,663.56568 C1314.57819,663.255501 1312.80913,663.105759 1311.04382,663.105759 C1303.64525,663.105759 1296.11176,665.726241 1290.07371,669.858403 C1280.97355,676.06556 1274.31334,685.813041 1269.48591,695.931312 C1269.14109,695.981226 1268.79252,696.027574 1268.44021,696.073923 C1253.14834,698.248745 1238.86843,708.359885 1227.20088,717.472747 C1222.21978,721.341078 1220.36826,721.045159 1213.67807,723.298418 C1203.99696,726.578477 1194.7881,730.924556 1186.01027,735.983692 C1176.43786,741.470661 1167.63753,747.945213 1159.47062,755.093604 C1158.64606,727.002746 1157.84024,700.248869 1157.0644,675.384591 Z M1352.34312,337.75237 C1352.20445,337.845067 1352.05453,337.94133 1351.9046,338.037592 C1347.48945,340.896948 1341.03913,344.440839 1333.53562,348.633611 C1330.33857,341.952272 1326.64678,334.821708 1322.3703,327.2027 C1320.04654,323.045581 1317.88394,319.162988 1315.90124,315.537096 C1322.3703,317.686962 1329.82509,321.598076 1337.67342,328.489767 C1343.86888,333.876908 1348.52015,336.650697 1352.34312,337.75237 Z M1429.4434,451.210344 C1429.12856,450.347546 1429.01238,449.516835 1428.96365,448.646906 C1428.96365,446.464953 1429.95313,444.104737 1431.72968,441.723128 C1434.38702,438.122193 1438.73096,434.728044 1442.92873,432.292957 C1444.98639,431.080761 1447.04029,430.111004 1448.79061,429.465688 C1449.96749,429.002201 1451.00944,428.727675 1451.72156,428.599324 C1451.73655,428.716979 1451.75529,428.845329 1451.78902,428.977244 C1451.86023,429.515602 1451.90521,430.31066 1451.90521,431.198415 C1451.93519,436.389466 1450.48097,445.980075 1450.48097,456.697313 C1450.48097,465.877915 1451.5454,475.99262 1455.69445,485.248093 C1460.60059,496.150726 1465.30059,504.005042 1468.70753,511.032213 C1472.06949,518.152082 1474.16838,524.359238 1474.16838,532.402515 C1474.16838,534.195852 1474.05969,536.07119 1473.8423,538.046356 C1470.82141,538.356536 1468.07786,539.35125 1467.63935,540.916409 C1464.9033,550.303796 1453.95912,554.724746 1445.14005,557.687496 C1434.58941,561.2813 1423.23295,562.842894 1411.91396,562.842894 C1406.53932,562.842894 1401.14594,562.479235 1395.87624,561.833919 C1390.95135,561.217125 1386.17264,560.824944 1381.56634,560.824944 C1371.32303,560.824944 1361.92678,562.73237 1353.60245,568.137338 C1357.41043,561.516609 1363.35852,551.458948 1370.18364,541.429809 C1374.72623,534.734209 1379.62487,528.035044 1384.48979,522.36268 C1389.32097,516.715273 1394.12966,512.133886 1398.28995,509.623927 C1407.77991,503.894519 1415.72194,494.767396 1421.41891,485.208875 C1427.0784,475.650353 1430.47035,465.688955 1430.51158,457.79542 C1430.51158,455.424507 1430.19675,453.210467 1429.4434,451.210344 Z M1175.00987,36.9602091 C1175.53084,34.8210398 1176.23546,33.0134417 1176.98881,31.9973363 C1177.37861,31.5124579 1177.75341,31.1630603 1178.01577,31.0240143 L1178.88531,30.7851404 C1179.29009,30.7851404 1179.8373,30.8635766 1180.62063,31.2414965 C1183.59655,32.6355218 1187.82056,35.9833218 1192.60676,40.8713236 C1207.08157,55.5068069 1227.16715,83.8222779 1245.19507,115.724423 L1245.43869,116.084516 L1245.74977,116.394696 C1245.82473,116.469567 1254.60257,123.945963 1268.15911,131.889412 C1281.76813,139.782947 1300.23456,148.211274 1319.88162,149.911913 C1330.36105,150.842452 1336.09551,154.450518 1339.56616,159.006948 C1343.05181,163.606162 1344.16122,169.421137 1344.16122,174.886715 C1344.16122,178.826352 1343.57278,182.509288 1343.01058,185.18325 C1342.69575,186.50597 1342.42214,187.593381 1342.18977,188.345655 L1341.9424,189.176366 L1341.86744,189.447327 L1341.15532,191.397537 L1343.08554,192.367293 C1343.08554,192.406512 1363.857,203.088097 1387.25957,213.812466 C1398.96085,219.192476 1411.34052,224.526139 1422.11979,228.579864 C1427.54316,230.619206 1432.5355,232.31628 1436.91318,233.51065 C1441.30209,234.715715 1444.98639,235.439467 1448.02977,235.439467 C1454.04157,235.439467 1460.51438,235.164941 1466.96845,235.164941 C1474.95921,235.164941 1482.86001,235.592774 1489.50148,237.389677 C1492.95339,238.334476 1496.02301,239.603717 1498.62788,241.343575 C1496.53274,259.904433 1495.23218,278.49738 1494.48633,297.13311 C1485.1313,299.689417 1476.76575,303.39018 1469.89565,308.581231 C1460.4769,304.948208 1407.2402,285.114544 1358.86091,285.075326 C1345.54424,285.075326 1332.57613,286.587005 1320.95355,290.423249 C1315.71384,292.173802 1310.73648,294.391408 1306.14892,297.165197 C1304.02005,292.975991 1302.23975,289.353664 1300.78177,286.209085 C1298.65291,281.695438 1297.22117,278.165809 1296.3179,275.534631 C1295.40713,272.857104 1295.0923,271.042375 1295.0923,270.16175 L1295.10729,269.958529 C1295.46335,270.004878 1295.97308,270.111836 1296.55777,270.304362 C1297.77587,270.643063 1299.36128,271.281249 1300.98042,271.876651 C1302.64453,272.397182 1304.34988,272.967627 1306.24637,272.967627 C1306.99222,272.967627 1307.78305,272.892756 1308.57388,272.603969 C1309.79948,272.147612 1310.90889,271.163595 1311.49733,269.969225 C1312.10076,268.757029 1312.32564,267.445005 1312.32564,265.86202 C1312.32564,262.999098 1311.53106,260.407138 1310.11806,258.264404 C1307.63313,254.506596 1303.5478,252.128553 1298.92651,250.071385 C1291.96271,246.983851 1283.5072,244.57372 1275.75632,240.587735 C1267.97171,236.594619 1261.04539,231.178955 1256.78391,222.123138 C1250.015,207.640962 1244.839,187.176243 1240.52505,169.135915 C1238.35495,160.058706 1236.42098,151.648206 1234.56197,144.792168 C1233.60997,141.376628 1232.74043,138.324746 1231.79594,135.804092 C1230.87767,133.244219 1230.01938,131.219139 1228.90622,129.636154 C1227.07345,127.037063 1222.77823,121.50731 1217.24617,114.551445 C1202.01426,95.3524004 1177.68594,65.5822943 1173.95668,61.0222984 C1173.9192,60.5409853 1173.86672,59.8207983 1173.82549,58.9223472 C1173.74304,57.1610978 1173.62685,54.6689656 1173.62685,51.9272636 C1173.62685,47.0856104 1173.94168,41.2920269 1175.00987,36.9602091 Z M1668.22525,1183.47295 C1666.21631,1185.58716 1663.92253,1187.31989 1661.36264,1187.31989 C1660.59055,1187.31989 1659.81097,1187.15945 1659.00889,1186.81362 C1654.45506,1184.85985 1648.88927,1181.14482 1651.65155,1175.64359 C1653.22197,1172.58458 1660.7892,1171.9357 1667.1758,1171.9357 C1670.15547,1171.9357 1672.89152,1172.08544 1674.61935,1172.17814 C1673.37876,1176.37091 1671.22365,1180.28916 1668.22525,1183.47295 Z M1621.80617,1152.86144 C1621.03033,1146.77907 1621.2777,1140.80366 1622.26342,1134.71059 C1626.98966,1134.06884 1631.88456,1133.63744 1636.76447,1133.63744 C1643.82946,1133.63744 1650.812,1134.55372 1656.94749,1137.02802 C1648.50698,1146.1801 1635.80498,1152.25534 1621.80617,1152.86144 Z M1124.40051,244.56659 C1120.5738,238.302389 1115.07547,233.385865 1108.66637,229.653014 C1109.61837,225.224934 1110.16558,220.782592 1110.16558,216.482862 C1110.20681,207.230955 1107.55696,198.346272 1100.64189,191.775457 C1099.14269,190.302995 1097.90584,188.149565 1097.12251,185.304469 C1096.32793,182.452244 1095.93425,178.93331 1095.93425,174.958021 C1095.89691,157.627184 1103.2505,131.889412 1110.64907,110.715201 C1114.32212,100.112052 1118.04014,90.6355321 1120.80617,83.7866251 C1121.65322,81.6866739 1122.41782,79.8149007 1123.07747,78.264003 C1124.49421,81.5191056 1126.46566,86.0791015 1128.76319,91.5553749 C1127.00163,142.777784 1125.55115,195.447697 1124.40051,244.56659 Z M1125.62611,466.491143 C1125.62611,466.487578 1125.62611,466.480447 1125.62611,466.480447 L1126.24078,511.470743 L1125.62611,466.491143 Z M1117.75904,968.707485 C1115.64891,963.730351 1113.36263,958.564257 1110.91893,953.330423 C1104.51733,939.561303 1097.04755,925.460612 1089.0568,913.941186 C1088.3934,912.996386 1087.73375,912.069413 1087.0666,911.167396 C1088.72322,904.682148 1090.62721,898.268205 1092.65863,891.88635 C1100.49197,866.92581 1111.09508,840.442894 1125.23632,815.913753 L1126.35322,897.31984 C1118.84596,913.805705 1116.30107,931.18289 1116.30107,947.15892 C1116.31231,954.735144 1116.87451,961.983363 1117.75904,968.707485 Z M1072.90663,1001.77548 C1072.92912,998.01767 1072.98908,994.284819 1073.11652,990.534142 C1081.6245,1000.88059 1089.10552,1010.41416 1094.6863,1017.73725 C1088.77944,1013.33056 1081.34339,1007.81507 1072.90663,1001.77548 Z M1063.38294,890.139362 C1051.70415,886.025026 1043.45478,880.919542 1036.91451,875.478922 L1035.72264,752.633559 L1035.72264,752.490948 L1007.02414,347.963338 C1007.89743,347.949077 1008.77446,347.927685 1009.644,347.899163 C1016.13555,347.774378 1022.60461,347.325152 1028.98747,346.505137 C1030.63659,353.361175 1032.35693,358.73049 1034.24967,362.338555 C1034.8531,363.504403 1035.55773,364.442072 1036.46849,365.229999 C1037.37926,365.978708 1038.64234,366.477848 1039.91291,366.477848 C1041.41212,366.477848 1042.67894,365.868185 1043.74713,365.123041 C1045.75981,363.643449 1047.41643,361.475757 1049.19673,358.644923 C1052.15016,353.903098 1055.25351,347.29663 1058.41308,339.788146 C1064.62728,337.641846 1070.67656,335.042755 1076.49347,331.916003 C1087.78997,344.07005 1097.84962,357.236637 1106.09899,371.579767 C1113.02531,383.648247 1118.05513,396.458306 1121.18847,409.714025 C1120.64876,444.967535 1120.40888,466.469752 1120.40888,466.469752 L1120.40888,466.523231 L1120.5738,478.031962 C1117.03193,493.23789 1111.8147,508.162161 1106.53001,522.737035 C1096.21174,551.191552 1084.98271,579.246757 1080.40264,609.145213 C1075.73263,639.225499 1077.04068,670.043798 1082.17545,699.963646 C1088.40839,736.358046 1102.15608,769.761175 1118.94341,802.059066 C1106.23017,821.37933 1096.05433,842.300406 1087.55759,863.431833 C1083.05249,874.730212 1078.95217,886.210421 1075.48901,897.851067 C1071.60607,894.310742 1067.5882,891.647476 1063.38294,890.139362 Z M1058.01579,991.222242 C1055.4559,989.443166 1052.83979,987.642699 1050.18246,985.820839 C1046.17209,983.079137 1042.07551,980.305348 1037.90773,977.531558 L1037.64162,950.50672 C1044.80032,957.83694 1051.95526,965.694822 1058.79538,973.57766 C1058.39059,979.438984 1058.14697,985.32883 1058.01579,991.222242 Z M1038.35749,1022.60742 L1038.18883,1006.5173 C1041.88437,1009.13778 1044.99521,1012.11836 1047.69753,1015.15242 C1051.73038,1019.78728 1054.73628,1024.61111 1056.98884,1028.55075 C1057.32991,1029.13189 1057.65973,1029.71303 1057.98206,1030.26565 C1053.21834,1028.13717 1046.47942,1025.27425 1038.35749,1022.60742 Z M1012.97973,961.605443 C1008.4109,958.817392 1003.86082,956.104213 999.385701,953.551471 C982.575885,943.928774 966.834251,936.249156 954.304659,932.830051 C925.924742,925.111215 873.516344,905.737471 813.064721,903.794393 C811.115757,901.099039 809.238005,898.360903 807.465197,895.526503 C801.741989,886.399381 797.682896,876.712509 797.517984,866.202057 C797.529228,865.367781 797.56296,864.547767 797.61918,863.695664 C798.207617,854.828807 802.32293,846.147345 805.081464,837.761802 C807.000444,831.918304 808.435931,825.950022 809.470382,819.846259 C816.126844,786.542958 813.113446,745.670563 792.641825,719.15556 C780.235918,703.069007 752.965411,695.000773 731.523057,695.000773 L729.791477,695.000773 C727.407744,695.000773 725.087727,695.097036 722.895142,695.318083 C714.814437,696.059662 707.359648,698.658753 703.075675,704.356074 C699.953584,703.685801 696.82025,703.261532 693.803103,703.115355 C693.304618,703.069007 692.806133,703.05118 692.318892,703.036919 C685.617453,697.318207 676.258677,693.656662 666.603808,692.180635 C665.951655,684.529539 663.912738,676.789312 661.948782,670.314759 C657.608589,656.010847 650.689766,644.616206 635.780189,638.630097 C617.235045,631.267789 596.201224,632.879297 576.674101,630.814998 C568.417239,629.945069 559.905513,628.180255 554.845702,621.438306 C554.365957,620.79299 554.066116,620.119152 553.949928,619.438183 C554.13358,613.277375 566.531991,606.784997 571.134545,604.403388 C582.412302,598.656153 595.372914,596.698813 606.526986,590.634268 C615.672126,585.674961 620.675717,577.749339 623.235606,568.846829 C625.735528,568.230035 627.83816,567.563327 629.371095,566.910881 C642.429156,561.377563 647.20037,551.647908 647.796303,540.406573 C648.508425,529.896121 645.517514,517.977383 642.174291,507.024836 C643.414882,506.761005 644.681709,506.479348 645.944787,506.176299 C649.344231,505.409763 661.446549,503.5986 663.185625,500.400542 C663.605402,499.626876 664.013935,498.846079 664.411223,498.083109 C666.112819,495.665847 667.450858,492.203958 668.395356,489.048684 C669.096234,487.066387 669.695915,485.044872 670.13818,482.955616 C672.327017,472.830215 666.221511,464.590848 659.947346,456.358611 C656.146865,451.303041 652.233945,446.169035 650.056352,440.075968 C649.08187,437.298613 648.444709,434.435691 648.10364,431.529986 C646.004755,409.614197 660.194714,384.70357 672.012184,367.679348 C683.739701,350.783476 702.44601,339.691883 721.943148,332.50784 C745.683031,323.80142 771.514303,320.289618 797.476756,319.861784 C798.477474,319.861784 799.489436,319.854653 800.493902,319.854653 C820.815602,319.854653 841.129806,321.680078 860.525748,324.272038 C900.269626,329.580743 938.289421,342.105579 978.010811,346.458789 C978.243187,349.756675 978.471816,352.576813 978.67046,354.894246 C980.398292,374.478341 989.029955,516.775883 997.249336,654.135509 C1001.35341,722.763625 1005.35253,790.211633 1008.3172,840.457155 C1008.45963,842.9172 1008.6058,845.341592 1008.74823,847.716069 C1001.14726,842.079358 985.503079,832.538663 965.503708,824.274339 C945.455612,816.038537 921.048583,809.168239 896.038125,809.118325 C893.972973,809.118325 891.930308,809.1825 889.883896,809.278762 C889.441631,809.086237 888.946894,808.947191 888.320976,808.947191 L888.103592,808.947191 C887.548887,808.961452 886.922969,809.168239 886.495697,809.503375 C885.708615,810.098777 885.50997,810.740528 885.393782,811.089926 C885.311326,811.499933 885.311326,811.717415 885.311326,811.877853 L885.311326,814.509031 L888.0886,814.320071 L888.328472,814.320071 C888.542109,814.509031 888.789477,814.726514 889.070578,815.040258 C891.72042,817.846135 897.32744,825.30114 908.129199,842.710413 C919.39946,860.829177 929.830166,876.630508 942.445962,889.016298 C955.016781,901.434176 969.798925,910.368773 989.337291,914.582936 C993.576288,915.499214 998.744792,917.97352 1004.40054,921.649326 C1007.23403,923.485446 1010.17247,925.649572 1013.19711,928.031181 L1012.97973,961.605443 Z M1012.62367,1016.46087 C1006.94169,1015.6266 1000.99734,1015.14172 994.910579,1015.12389 C974.356503,1015.12389 952.052107,1020.92461 932.764857,1038.66189 C916.476013,1053.67885 904.920904,1068.4106 896.146817,1081.91589 C896.180549,1075.89056 896.180549,1069.84384 896.045621,1063.82565 C895.738285,1047.89953 894.52393,1032.0162 890.884614,1016.40383 C888.549605,1006.30339 884.895297,996.662863 880.217783,987.492957 C906.562532,996.153027 935.099866,1003.04472 960.713753,1003.04472 C969.967585,1003.04472 978.861609,1002.1427 987.095982,1000.0784 C994.753163,998.160281 1001.55205,997.336701 1007.64631,997.336701 C1009.41162,997.336701 1011.10197,997.415137 1012.74735,997.547052 L1012.62367,1016.46087 Z M722.246737,726.578477 C718.753593,725.519589 716.542268,723.109458 715.489078,720.086098 C715.474086,719.797311 715.455346,719.53348 715.444102,719.248257 C718.131424,721.408818 720.473929,723.868863 722.246737,726.578477 Z M699.762436,712.003604 C699.732452,712.128389 699.721208,712.238912 699.694972,712.353001 C699.425115,711.796817 699.125275,711.229938 698.821686,710.695145 C699.200235,710.805669 699.575036,710.930454 699.96108,711.037412 C699.897364,711.372549 699.822404,711.689859 699.762436,712.003604 Z M682.184278,721.341078 C682.506607,718.823989 683.192492,716.606383 684.260674,714.791654 C685.891058,718.121628 686.738108,721.847348 686.479495,725.929596 C683.994566,725.02758 682.604055,723.426768 682.184278,721.341078 Z M650.824694,699.154327 C650.809702,699.870949 650.75723,700.576874 650.71975,701.289931 C650.479877,705.436354 649.632827,709.646952 647.522699,713.262148 C646.398296,715.187401 645.46879,716.146462 644.483064,716.474468 C642.908901,716.096548 640.720064,715.486884 640.375247,714.003727 C640.442711,705.51479 644.816637,700.7694 650.824694,698.993889 C650.824694,699.047368 650.824694,699.100848 650.824694,699.154327 Z M603.854656,567.0321 C603.172519,567.082014 602.497877,567.09271 601.808244,567.09271 C596.939581,567.09271 592.037187,565.95895 587.595797,563.48821 C583.514216,561.217125 581.741408,556.988701 581.910069,552.803059 C583.068203,547.358873 587.895638,542.1393 593.81749,541.069716 C598.3151,541.30859 602.83145,543.690198 606.605694,545.658234 C608.775791,546.80982 609.750273,548.76716 610.098838,551.04894 C610.421166,554.022386 609.716541,557.430796 609.37922,560.511199 C609.161836,562.447148 608.820767,564.354573 608.367258,566.229912 C606.879299,566.611397 605.380095,566.878793 603.854656,567.0321 Z M1027.58197,340.273024 C1020.97423,341.314086 1014.2503,341.841748 1007.51513,341.959403 L1006.58937,341.959403 L1001.57829,271.281249 C1002.14798,271.655604 1002.72518,272.037089 1003.29113,272.397182 C1009.04807,276.183512 1014.76003,280.055408 1020.40078,284.041394 C1021.2216,296.174049 1022.4472,308.00722 1023.9389,318.735155 C1025.02208,326.614428 1026.25517,333.884038 1027.58197,340.273024 Z M1069.39849,324.564391 C1067.34458,325.865719 1065.2532,327.095741 1063.11683,328.258023 C1064.05383,325.912068 1064.97959,323.526894 1065.9091,321.138155 C1067.08222,322.271914 1068.2516,323.41637 1069.39849,324.564391 Z M1112.93161,271.908739 C1111.93838,275.613067 1110.43169,279.26035 1108.59141,282.782849 C1101.57514,296.1277 1091.2981,308.164093 1079.02713,317.783224 C1076.17864,315.095001 1073.27019,312.449562 1070.31301,309.864732 C1071.53861,306.698762 1072.7717,303.57914 1073.98231,300.584303 C1076.45224,294.491236 1078.81349,288.840264 1081.03231,284.216093 C1083.23989,279.581226 1085.33502,275.933942 1087.00289,273.990863 C1092.01772,268.001189 1097.75592,258.97746 1102.306,248.748666 C1103.28423,246.534625 1104.2025,244.252845 1105.04955,241.942542 C1112.03958,250.19617 1115.1017,260.895582 1112.93161,271.908739 Z M1124.76782,781.747654 C1112.21574,754.797686 1102.27977,726.874396 1097.12251,696.751327 C1091.93901,666.688867 1091.86405,635.963266 1096.49284,605.886545 C1100.76557,578.191434 1111.49237,551.758432 1121.2222,525.450214 L1124.76782,781.747654 Z M1121.81439,371.579767 C1112.68049,354.730243 1100.66438,339.495793 1086.99539,325.56267 C1100.14715,316.59242 1115.24038,302.252855 1123.46351,286.341001 C1122.79636,317.519393 1122.24916,346.451658 1121.81439,371.579767 Z M1021.22909,98.771506 C1033.41012,91.3485885 1042.23293,85.4337854 1044.9315,83.7081888 C1047.38269,82.1644217 1052.56619,79.2801084 1058.85535,75.9251779 C1068.30407,70.8517814 1080.35392,64.6089723 1090.00129,59.6425342 C1093.00345,58.098767 1095.76948,56.6726542 1098.16446,55.4426318 L1024.01761,165.859421 L1027.49576,168.519121 L1027.49201,168.529817 L1027.60445,168.757995 C1027.84807,169.274961 1028.24536,170.822293 1028.20414,173.531908 C1028.24536,178.562521 1027.09098,187.593381 1023.65405,202.859919 C1020.57694,216.639734 1019.30636,234.188053 1019.30636,252.702564 C1019.30636,258.941807 1019.44879,265.28801 1019.72239,271.623516 C1013.45198,267.395091 1007.12534,263.220146 1000.71624,259.109376 L997.695349,216.575559 C1001.54455,171.246562 1009.89886,132.292289 1021.22909,98.771506 Z M622.163676,503.534425 C621.608971,503.548686 621.046769,503.562947 620.484568,503.562947 C619.019097,503.562947 617.542382,503.516599 616.043179,503.391814 C615.822046,500.036883 616.099399,496.967175 616.912716,493.940251 C617.688554,492.193262 618.962877,490.799237 620.953069,490.125399 C622.171172,494.507131 623.565431,498.899558 624.933454,503.295551 C624.026436,503.406075 623.100678,503.488076 622.163676,503.534425 Z M1716.65326,-60.7855668 C1716.98308,-61.0458324 1717.29792,-61.2918368 1717.63149,-61.5128843 C1722.64632,-47.1162749 1725.82838,-25.9420642 1708.05158,-25.9420642 L1707.65804,-25.9420642 C1705.47295,-38.3028974 1705.70533,-52.2788035 1716.65326,-60.7855668 Z M1772.15751,-53.7655262 C1773.82537,-52.3108911 1775.35456,-50.7350363 1776.68885,-49.0165703 C1779.02761,-46.0395597 1780.28694,-42.4029719 1779.54109,-38.752123 C1779.14755,-36.869654 1778.08311,-35.0584907 1776.80879,-33.6288125 C1775.7481,-32.4308777 1774.47378,-31.5288613 1773.13199,-30.6304102 C1773.08327,-30.5840615 1773.01206,-30.5341476 1772.96708,-30.5056253 C1772.85089,-30.6981506 1772.72346,-30.9156328 1772.55105,-31.158072 C1767.43502,-38.58812 1768.16588,-46.8417482 1772.15751,-53.7655262 Z M1814.72364,-43.4761219 C1815.46949,-48.0254219 1816.74382,-52.6424623 1818.39669,-57.1953276 C1824.24358,-48.8383062 1827.93912,-37.7360176 1818.51662,-34.2705633 C1817.33975,-33.8355989 1816.06168,-33.4648095 1814.7911,-33.2009787 C1814.75362,-33.293676 1814.72364,-33.3721122 1814.68991,-33.4826359 C1813.61048,-36.680694 1814.22515,-40.2566721 1814.72364,-43.4761219 Z M1988.36136,-155.122933 C1991.33728,-158.645432 1996.11974,-162.645678 1999.93146,-162.645678 C2002.08657,-162.645678 2003.92309,-161.369307 2004.95004,-158.010811 C2006.84279,-151.828612 2002.97859,-145.899548 1998.37229,-141.321726 C1989.84182,-143.567853 1982.32332,-147.978107 1988.36136,-155.122933 Z M2076.8256,275.299322 C2075.43134,273.416853 2069.70813,271.894477 2065.96387,271.894477 C2063.34776,271.894477 2061.6724,272.621795 2063.06291,274.507829 C2072.83397,287.752852 2066.85589,304.602376 2057.10732,316.075454 C2043.39336,332.19766 2021.23139,339.178482 2000.01392,339.178482 C1998.95698,339.178482 1997.93002,339.164221 1996.88433,339.128568 C1959.76406,337.962721 1933.067,315.276831 1908.91858,291.022216 C1872.89273,254.955822 1836.9156,219.86988 1795.79245,188.90897 C1774.60871,172.957897 1748.67624,164.786271 1722.2153,164.786271 C1714.06713,164.786271 1705.8515,165.556372 1697.72582,167.125096 C1648.29334,176.65153 1605.47609,207.829922 1569.37903,239.871113 C1550.69521,256.399761 1532.731,274.211911 1516.72326,293.250518 C1514.59439,293.446608 1512.49926,293.681917 1510.42286,293.9814 C1513.56744,228.786651 1523.77327,164.365567 1549.05358,102.215569 C1564.0681,65.4004649 1577.08118,27.6334309 1597.48534,-6.9640672 C1615.75688,-37.9641956 1643.39094,-68.3867483 1683.64455,-68.7575377 C1683.87693,-68.7753641 1684.1243,-68.7753641 1684.37167,-68.7753641 C1690.73203,-68.7753641 1697.07366,-67.8163032 1703.27287,-66.2475791 C1696.58268,-61.2597493 1692.19001,-53.5694357 1691.77398,-42.6204541 C1691.59408,-36.7947831 1692.4861,-31.0404177 1693.73044,-25.3217051 C1694.36385,-22.4302612 1699.57733,-20.9577997 1702.02853,-20.3588323 C1706.64983,-19.1965503 1711.56346,-18.4442758 1716.2035,-18.4442758 C1727.44752,-18.4442758 1737.05742,-22.8759215 1736.77257,-36.869654 C1736.65638,-44.02161 1735.5807,-55.5232103 1730.99689,-61.4629704 C1729.86874,-62.9461278 1728.19712,-64.2118029 1726.19194,-65.324171 C1729.23907,-66.1049678 1732.43237,-66.4329737 1735.63692,-66.4329737 C1740.44561,-66.4329737 1745.28429,-65.7020909 1749.70319,-64.6610285 C1752.86651,-63.9230151 1756.07481,-62.8962138 1759.1894,-61.5913205 C1757.88135,-59.6375459 1756.79068,-57.4769849 1755.97361,-55.1167681 C1751.3898,-41.722003 1758.6272,-26.9795613 1772.90336,-23.0684467 C1774.49252,-22.6334823 1776.1304,-22.4302612 1777.76828,-22.4302612 C1786.38495,-22.4302612 1794.86294,-28.163235 1794.53312,-37.2083558 C1794.20329,-46.763312 1786.68104,-54.3609283 1777.02243,-60.0368575 C1782.60696,-65.5594796 1790.35784,-69.2388508 1798.15744,-69.2388508 C1800.90848,-69.2388508 1803.67451,-68.7753641 1806.34309,-67.7735198 C1805.91207,-66.8037631 1805.48105,-65.830441 1805.08376,-64.8535537 C1801.32076,-55.6444299 1796.02108,-42.2924482 1801.83424,-32.9300172 C1805.31239,-27.393134 1811.18177,-25.485708 1817.45219,-25.485708 C1824.80953,-25.485708 1832.74406,-28.0776682 1838.14119,-30.551974 L1838.65467,-31.1972901 C1839.38553,-45.6438134 1832.99143,-57.9190799 1822.1447,-66.0800108 C1824.35977,-70.7505304 1826.87843,-75.242786 1829.54701,-79.4106008 C1841.85172,-98.5098174 1851.85516,-121.03527 1876.77191,-126.942943 C1881.44193,-128.062441 1886.19815,-128.536624 1890.98061,-128.536624 C1911.60215,-128.536624 1932.98079,-119.887249 1952.92394,-117.666078 C1955.95983,-117.323811 1959.10066,-117.145547 1962.36143,-117.145547 C1979.14501,-117.145547 1997.94502,-121.769718 2009.96863,-132.757918 C2013.24439,-132.355041 2016.56137,-132.166081 2019.8896,-132.166081 C2042.78244,-132.166081 2066.19624,-141.546338 2080.73102,-158.235424 C2083.29841,-161.14826 2074.82041,-165.330336 2069.93676,-165.330336 C2068.69242,-165.330336 2067.68795,-165.073635 2067.14074,-164.449711 C2054.6224,-150.088754 2035.45508,-141.489294 2016.02916,-139.753001 C2023.31903,-150.816072 2019.40986,-162.41037 2006.60666,-167.801076 C2002.59629,-169.487455 1998.73959,-170.257556 1995.08154,-170.257556 C1984.44469,-170.257556 1975.50194,-163.686741 1969.28775,-153.949955 C1969.17156,-153.3189 1969.32148,-152.712802 1969.80122,-152.18514 C1976.39772,-145.182926 1984.41096,-140.10953 1993.1738,-136.825905 C1982.05721,-128.322707 1967.94971,-124.728902 1953.93591,-124.728902 C1951.71334,-124.728902 1949.49826,-124.810904 1947.30568,-124.992733 C1925.03501,-126.753983 1903.82878,-135.670753 1881.45692,-135.670753 C1878.06123,-135.670753 1874.64679,-135.460402 1871.20237,-135.004046 C1850.23227,-132.176777 1837.74765,-120.168907 1827.02835,-103.704433 C1820.54804,-93.7216434 1814.10522,-83.760245 1808.873,-73.1856181 C1807.56869,-73.6598007 1806.22691,-74.0983304 1804.85139,-74.4762503 C1800.52993,-75.6920115 1795.8899,-76.3195012 1791.28734,-76.3195012 C1780.88287,-76.3195012 1770.50089,-73.171357 1763.37593,-66.5149752 C1756.05982,-69.3244176 1748.82241,-71.2318435 1743.37656,-72.3014282 C1738.72528,-73.2034446 1734.02528,-73.6811924 1729.45645,-73.6811924 C1722.90868,-73.6811924 1716.63827,-72.6971745 1711.13244,-70.568701 C1707.7405,-71.4065423 1704.5322,-72.083946 1702.11099,-72.7150009 C1693.50181,-74.9575634 1685.05005,-76.0378439 1676.81943,-76.0378439 C1649.7738,-76.0378439 1625.20186,-64.3330225 1606.10576,-43.8326501 C1579.18382,-14.9396034 1563.91068,23.00926 1549.72447,58.5943413 C1530.07367,107.674016 1511.92206,156.154722 1503.22668,208.243495 C1502.46959,212.771403 1501.76496,217.299312 1501.11281,221.837916 C1500.85045,221.256775 1500.57684,220.657807 1500.29949,220.048144 C1492.58234,203.359058 1481.19589,181.425442 1468.06287,162.019612 C1461.51135,152.318479 1454.51382,143.216313 1447.27267,135.732786 C1440.1627,128.327695 1432.8166,122.45211 1425.32059,119.09718 C1423.27792,117.46428 1406.92911,104.294128 1388.28652,90.0258688 C1378.32057,82.4032956 1367.7287,74.4919344 1358.27247,67.8355526 C1348.83124,61.1470833 1340.59686,55.7599419 1335.10978,53.1751124 C1329.65268,50.5724564 1321.18968,47.6810126 1311.02508,44.3332126 C1295.76319,39.3275564 1276.71581,33.2737073 1258.91652,26.0896638 C1241.12098,18.8735327 1224.67472,10.4452056 1214.74625,1.00790373 C1213.28827,-0.425339704 1212.26132,-1.66249262 1211.65789,-2.71068557 C1211.07695,-3.76600909 1210.8783,-4.56106702 1210.8783,-5.17073027 C1210.8783,-5.86952557 1211.07695,-6.4043179 1211.70661,-7.15659243 C1212.7673,-8.40087591 1215.38341,-9.82342349 1219.09769,-10.9500527 C1224.70845,-12.6506923 1232.69921,-13.7416686 1241.67569,-14.3762888 C1250.65217,-15.0643883 1260.57314,-15.2533482 1270.25425,-15.2533482 L1271.56605,-15.2533482 C1288.94556,-15.2533482 1305.18194,-14.5260307 1313.20267,-14.5260307 C1321.34335,-14.5260307 1332.85348,-14.9075159 1346.41377,-14.9075159 C1373.45565,-14.9075159 1408.56699,-13.4421849 1440.40257,-4.75359225 L1440.82985,-4.63237266 L1441.30209,-4.67159076 C1441.30209,-4.67159076 1442.68886,-4.75359225 1445.10257,-4.86768128 C1447.47132,-4.93185636 1450.87076,-5.01029257 1454.7462,-5.01029257 C1462.4521,-5.01029257 1472.18193,-4.67159076 1480.09773,-3.2454779 C1484.04438,-2.52172562 1487.53003,-1.5448383 1489.97373,-0.389686882 C1491.1581,0.219976368 1492.12134,0.84746603 1492.78099,1.4927821 C1493.41815,2.12740233 1493.77421,2.74063086 1493.93537,3.33603298 C1494.09279,3.90647813 1494.25021,4.39492178 1494.48633,4.86910431 L1495.116,5.7105109 C1495.40084,6.04208215 1496.06799,6.56974391 1497.12868,6.56974391 C1497.84454,6.56974391 1498.51919,6.2702602 1498.87525,5.9707765 C1499.53864,5.45381059 1499.66233,5.04023786 1499.81975,4.68727492 C1500.02214,4.20596183 1500.05962,3.82091136 1500.11209,3.3716858 C1500.17581,2.92959081 1500.17581,2.4732347 1500.17581,1.90635483 C1500.17581,-1.5448383 1499.22756,-7.75912512 1496.18418,-15.4351776 C1491.67907,-26.8654722 1482.38026,-41.3833012 1464.62595,-53.2556908 C1446.8454,-65.160168 1420.63183,-74.3372043 1382.42089,-75.3853972 L1382.12479,-75.3853972 L1381.83245,-75.3426139 C1381.83245,-75.3426139 1378.27934,-74.7151242 1372.59361,-73.7239758 C1364.08563,-72.2586448 1350.84392,-70.0802574 1337.86457,-68.2370065 C1325.06137,-66.461496 1312.46057,-64.996165 1305.21567,-64.996165 L1304.42484,-64.996165 C1302.712,-64.996165 1301.34398,-65.135211 1300.61686,-65.2778223 C1300.68433,-65.3847808 1300.77428,-65.5131309 1300.86423,-65.6379158 C1301.53512,-66.6148031 1302.80195,-67.9696103 1304.30865,-69.4349413 C1306.59868,-71.6881996 1309.36846,-74.2552028 1311.65475,-76.9291644 C1313.91854,-79.6423441 1315.92747,-82.419699 1315.96121,-85.7603683 C1316.00993,-86.8941281 1315.72883,-88.0100614 1315.14039,-89.0689502 C1314.22963,-90.659066 1312.72668,-91.8570008 1310.78521,-92.8338882 C1308.85873,-93.7786879 1306.39629,-94.5273972 1303.31543,-95.1049729 C1301.92492,-95.3153245 1300.47444,-95.4329789 1298.92651,-95.4329789 C1289.75139,-95.3830649 1277.70154,-91.5575171 1264.32865,-85.9136755 C1224.35989,-69.0284991 1173.46943,-35.5219773 1173.38698,-35.4863245 L1174.88618,-33.4362873 L1137.3124,5.52868151 L1136.77643,5.61424829 L1136.45785,3.59986386 C1136.40163,3.59986386 1103.88766,8.25255709 1059.58246,18.3530015 C1078.37497,-10.714744 1099.41254,-33.0084534 1119.97786,-50.0718939 C1146.74614,-72.3014282 1172.75731,-85.6070612 1192.05955,-93.3936375 C1201.70318,-97.3083173 1209.64896,-99.7968842 1215.18476,-101.340651 C1215.25972,-101.358478 1215.31594,-101.376304 1215.39091,-101.390565 C1216.17799,-101.593786 1216.9051,-101.768485 1217.60223,-101.932488 C1219.61491,-102.474411 1221.19657,-102.788156 1222.25726,-103.02703 C1222.81196,-103.169641 1223.21675,-103.262338 1223.47911,-103.326514 L1223.76396,-103.358601 L1223.76396,-103.390689 C1223.81268,-103.397819 1223.83892,-103.408515 1223.83892,-103.408515 L1222.81946,-108.218081 C1222.81196,-108.218081 1222.77823,-108.21095 1222.74075,-108.20382 L1222.72576,-108.218081 C1222.72576,-108.21095 1222.53086,-108.178863 1222.15606,-108.0826 C1221.18158,-107.897205 1219.12767,-107.462241 1216.13676,-106.681444 C1203.71961,-103.625997 1175.14854,-95.7324626 1142.63082,-80.8759318 C1099.14269,-61.0208754 1048.53333,-28.7550718 1020.44951,21.3086204 C1019.02901,23.8613624 1017.65349,26.4675837 1016.30421,29.1272842 C1011.90405,30.3323495 1007.45891,31.5730677 1002.97629,32.8672652 C967.872449,42.9819707 930.977057,55.8383782 899.310136,71.8286687 C867.680696,87.8510467 841.144798,106.918176 826.868635,129.743112 L823.356752,135.426172 L829.96449,133.354743 L829.994474,133.326221 C830.901492,133.055259 839.645595,130.534605 852.973512,130.534605 C864.83221,130.534605 880.292743,132.527598 897.170024,139.829295 C901.840042,141.815158 907.143473,142.677956 912.83295,142.677956 C924.339334,142.677956 937.618527,139.262416 951.381213,134.192584 C963.727152,129.604066 976.444143,123.64648 988.404037,117.410801 C986.76241,125.963913 985.319427,134.64181 984.045104,143.358925 C979.097733,177.4145 976.792708,212.197393 975.96065,243.725183 C949.387273,227.745588 921.888137,212.953233 894.047933,199.84369 C838.779805,173.863479 780.13847,154.938961 724.225685,130.235121 C696.119372,117.867157 668.683953,103.798554 643.377402,86.6851995 C622.579705,72.6486836 606.249633,53.2392875 593.322753,32.5642162 C567.495229,-8.74670828 555.449131,-60.4860831 566.824336,-107.800943 C574.09922,-138.112972 597.273154,-163.512042 624.120136,-180.201128 C635.85515,-187.506391 650.487373,-194.062945 664.879724,-194.062945 C666.056599,-194.062945 667.225977,-194.030857 668.402852,-193.93816 C686.711872,-192.501351 699.473839,-178.404225 707.588277,-164.032573 C708.484051,-162.435327 711.673606,-161.725835 714.911885,-161.725835 C719.364518,-161.725835 723.880868,-163.055686 722.644026,-165.237638 C709.353589,-188.704326 687.240341,-199.5 663.185625,-199.5 C650.689766,-199.5 637.661689,-196.583599 625.07213,-191.046716 C588.772672,-175.013642 559.549452,-142.669402 550.617949,-105.519162 C548.061807,-94.9302741 546.824965,-84.0989469 546.705028,-73.2355321 L546.705028,-69.7201639 C547.083577,-34.4987414 559.065959,1.11842747 576.704085,31.2414965 C603.633524,77.1231127 648.317277,103.684465 696.561637,126.594968 C751.713577,152.835445 810.343668,171.799181 866.383885,196.281973 C904.178799,212.799926 940.69939,232.968727 975.732022,254.752601 C975.62333,260.984714 975.582102,267.05639 975.582102,272.93554 C975.582102,300.570042 976.58282,324.058121 977.583538,339.991367 C975.645818,339.752493 973.74183,339.510054 971.819101,339.242658 C947.307128,335.855639 923.672189,329.078038 899.550009,324.004642 C878.587399,319.580126 857.362429,316.859816 836.013775,315.276831 C825.41066,314.496034 814.661373,314.057504 803.889598,314.057504 L803.822133,314.057504 C802.911367,314.039678 801.974365,314.039678 801.063599,314.039678 C767.091654,314.039678 732.546263,318.417844 701.808848,331.459647 C665.60309,346.836709 642.942633,378.204061 634.389678,414.648375 C633.29526,419.336721 632.849247,423.707757 632.980427,427.857746 C633.104112,441.127726 639.142153,452.033924 648.474693,463.471349 C652.260181,468.113347 654.460262,472.676908 654.835063,478.031962 C654.861299,479.322594 654.786339,480.688097 654.606434,482.089253 C653.658188,489.412342 650.569829,496.781781 642.942633,499.220434 C641.968151,499.534178 640.978677,499.851489 640.004194,500.147407 C638.396299,495.166708 636.8896,490.531841 635.821417,486.446028 C635.390396,484.827389 633.205308,484.420947 631.754829,484.224857 C627.954348,483.718587 623.524203,483.18736 619.142781,483.18736 C617.726034,483.18736 616.316783,483.240839 614.933768,483.358493 C612.077786,483.526061 609.296764,483.946765 606.646922,484.795302 C601.422199,486.446028 600.376505,494.828006 600.425229,500.888986 C600.410237,503.03172 600.541417,504.996191 600.717573,506.479348 C600.87499,508.119378 603.524831,508.507994 604.780414,508.696954 C609.221804,509.360096 613.651949,509.691667 618.067103,509.691667 C620.979305,509.691667 623.88776,509.549056 626.796214,509.28166 C629.742148,519.018445 632.219582,528.855059 632.309534,538.959069 L632.309534,539.66856 C632.178354,545.989805 629.528512,551.712083 625.368223,556.28634 C625.368223,556.186512 625.379467,556.075988 625.379467,555.997552 C625.570615,553.869079 626.695018,548.161062 625.120854,545.875716 C624.626117,544.856045 623.681619,543.957594 621.950039,542.852357 C618.232015,540.502836 614.12045,538.802196 609.933925,537.304778 C605.470048,535.696835 600.575149,535.001605 595.743967,535.001605 C595.444126,535.001605 595.140537,535.001605 594.844445,535.019432 C594.405928,535.001605 593.959915,534.987344 593.51765,534.987344 C592.83926,534.987344 592.172115,535.001605 591.501221,535.030128 C581.778888,535.522137 570.347464,539.10168 567.067956,548.891945 C565.85735,552.485749 565.643713,555.559022 566.220907,558.172374 C567.780078,568.67213 580.66573,571.945059 594.66454,571.945059 C597.734159,571.945059 600.85625,571.809578 603.92212,571.542182 C604.874114,571.460181 605.811116,571.413832 606.748118,571.353222 C604.791658,576.266181 601.774512,580.758437 597.426822,584.223891 C586.051618,593.279708 569.163093,594.969651 556.194985,601.586815 C548.912605,605.319666 542.747132,610.724633 537.799761,616.967442 C537.46244,617.420233 537.271292,617.89085 537.211324,618.379294 L537.211324,618.931913 C537.18134,619.063828 537.155104,619.185048 537.136364,619.313398 L537.136364,620.087064 C537.717305,624.63993 547.814439,630.954044 550.261888,632.091369 C567.142917,639.728204 588.536547,637.321638 606.68815,639.353849 C626.927394,641.639195 638.669904,650.117436 645.277642,668.075762 C648.021184,675.587812 649.958904,683.631088 650.622301,691.710018 C646.713129,691.991675 642.968869,692.686905 639.573174,693.774316 C632.358258,696.059662 624.524921,704.348943 624.532417,711.372549 C624.11264,715.151748 625.885448,718.606506 631.316312,720.588803 C635.041832,721.957872 639.243349,722.792148 643.396142,722.874149 C644.168232,722.920498 644.936573,722.952585 645.719907,722.952585 C653.152207,722.952585 660.22095,720.339234 663.624142,713.408325 C665.58435,709.372426 666.50636,704.851648 666.727492,700.188259 C666.727492,700.120518 666.734988,700.056343 666.734988,699.995733 C670.348068,701.286366 673.852456,703.193792 676.884594,705.671663 C670.183156,708.898243 665.951655,715.248011 666.472628,725.708548 L666.472628,725.726375 C666.480124,726.072207 666.48762,726.435866 666.50636,726.79596 C666.630044,727.444841 667.061065,727.933285 667.686982,728.200681 C674.67327,731.366651 681.31474,732.707197 688.623356,732.707197 L690.504856,732.707197 C692.217696,732.707197 693.953023,732.625196 695.722083,732.468323 C697.502387,732.325712 701.190427,732.140317 701.610204,729.915581 C701.801352,728.956521 701.940029,728.008155 702.033729,727.091878 C702.903267,728.107983 704.023921,728.938694 705.448164,729.534096 C711.366269,732.04049 717.419302,733.085117 723.599768,733.085117 C724.060773,733.085117 724.51803,733.067291 724.986531,733.067291 L725.874809,733.067291 C729.154316,733.067291 732.452563,732.799895 735.739566,732.275798 C737.156313,732.04049 739.753683,731.395174 739.648738,729.730187 C739.798659,729.459225 739.813651,729.159742 739.697462,728.860258 C736.309263,720.856199 727.553916,713.764853 717.213162,709.04442 C719.499447,704.3739 723.997056,701.414716 731.035816,701.161581 C732.407587,701.257843 733.760618,701.428977 735.027444,701.585849 C748.265409,703.336403 764.726661,708.848329 774.36279,718.100236 C791.367502,734.457751 795.167983,760.940667 796.011284,783.170201 C796.052513,784.778143 796.093741,786.368259 796.104985,787.96194 C796.269897,799.306668 795.242943,810.662092 793.387679,821.867774 C791.408731,833.654597 786.34892,844.553664 783.298041,856.051699 C781.588949,862.469207 781.611437,868.818975 782.844532,874.994043 C784.677308,885.130141 789.759607,894.799186 795.921332,903.730218 C758.786068,904.682148 719.24833,912.91795 680.812507,934.708954 L673.346475,938.987293 L682.04935,939.311734 C682.083082,939.311734 683.432365,939.372343 685.876066,939.482867 C694.496485,939.860787 716.527276,941.055157 739.731195,943.579376 C751.316288,944.870008 763.216213,946.445863 773.860556,948.445986 C784.493656,950.399761 793.901156,952.795631 800.392706,955.551594 C812.393828,960.62499 834.225975,970.743261 859.851107,980.319609 C861.279098,982.587129 862.628381,984.890301 863.917696,987.254083 C883.830863,1023.82675 881.941867,1067.81163 880.690032,1108.84447 C875.761401,1118.32455 871.796009,1126.38922 867.714428,1132.31472 C863.599115,1138.30083 859.532526,1141.91246 854.360275,1143.34214 C852.493767,1143.83415 851.144484,1144.27267 850.083798,1144.76112 C849.701501,1144.95364 849.337944,1145.15686 848.959395,1145.42783 C845.087703,1120.74894 837.906519,1095.33918 820.991759,1077.05998 C809.391673,1064.57079 794.230981,1059.57583 778.309442,1059.57583 C750.44675,1059.57583 720.177836,1074.88515 702.288593,1092.23382 C679.159635,1114.66657 668.950061,1144.65059 650.92589,1170.34915 C645.652443,1177.81841 638.876044,1184.16818 630.900283,1188.5 L643.602282,1188.5 C646.521981,1186.60327 649.295507,1184.51045 651.877884,1182.20015 C670.021992,1165.82481 678.372554,1139.95512 691.258206,1120.00736 C703.952709,1100.3484 720.200324,1083.2707 742.141164,1072.92781 C752.912939,1067.85798 765.768607,1063.872 778.18201,1063.872 C786.360164,1063.872 794.354665,1065.60829 801.442148,1069.92228 C814.380272,1077.75521 822.089925,1091.62059 827.547025,1104.79431 C838.401256,1130.97774 841.808196,1160.05974 843.363619,1188.5 L853.468249,1188.5 C853.055968,1181.87927 852.549987,1175.25141 851.864101,1168.61642 C851.275664,1162.86206 850.604771,1156.90803 849.765217,1150.86132 C849.907641,1150.92549 850.050066,1150.95401 850.199986,1151.02175 C851.90533,1151.50307 854.154134,1151.61359 857.287469,1151.64568 C862.804537,1151.64568 870.77655,1151.05028 879.92169,1149.80599 C879.704306,1162.69092 879.449441,1175.6115 879.299521,1188.5 L894.613882,1188.5 C894.696338,1174.76297 894.883739,1160.99385 895.101123,1147.22473 C895.104871,1147.22473 895.112367,1147.22473 895.112367,1147.22473 C909.767079,1144.25841 925.328809,1139.70198 937.588543,1133.03847 C956.088711,1123.00577 976.410411,1106.50564 995.787613,1092.56539 C1001.37964,1088.54375 1006.87797,1084.76455 1012.20389,1081.38823 L1011.54049,1185.28768 C1005.59615,1184.87411 999.63307,1184.65306 993.669989,1184.6388 L990.885219,1184.6388 C974.746296,1184.7208 958.562397,1186.1077 942.490938,1188.5 L1039.96164,1188.5 L1038.8035,1068.69226 C1041.637,1067.96851 1044.32057,1067.59059 1046.813,1067.59059 L1047.69753,1067.59059 L1048.33469,1067.1984 L1048.36842,1067.18058 C1049.01682,1066.82048 1053.22959,1064.53514 1059.30136,1062.98781 C1060.98796,1104.805 1063.87018,1146.66854 1066.04028,1188.5 L1082.52027,1188.5 C1080.69124,1151.91664 1078.17258,1115.40815 1076.09618,1079.10645 C1075.75511,1073.38773 1075.40655,1067.62267 1075.06173,1061.85761 C1079.18454,1062.32823 1083.491,1063.54399 1087.78997,1065.82577 C1093.72681,1069.02739 1099.73112,1074.28975 1105.22945,1082.86069 C1117.32052,1101.77808 1124.68161,1113.28681 1128.99557,1120.05728 C1129.14549,1120.29615 1129.29541,1120.53146 1129.43409,1120.74894 L1130.11622,1170.22793 C1126.28951,1176.21047 1122.6352,1182.3071 1119.16829,1188.5 L1170.86082,1188.5 C1170.48227,1172.89833 1170.08873,1156.92586 1169.68395,1140.68244 C1180.23459,1127.41602 1191.57981,1114.73431 1203.47974,1102.60166 C1217.59473,1088.24427 1234.69689,1076.33622 1251.92274,1064.70627 C1253.89044,1072.06502 1255.62952,1079.48793 1257.10624,1086.95363 C1231.55606,1114.65231 1224.50606,1152.48352 1225.21069,1188.5 L1240.53629,1188.5 C1240.28517,1171.41873 1241.92305,1154.40521 1246.22202,1137.7696 C1249.29913,1125.91504 1254.0741,1115.24058 1260.25081,1105.66067 C1262.77697,1124.15735 1263.62402,1143.04265 1262.39842,1162.33083 C1261.83247,1171.12281 1260.79802,1179.85063 1259.35879,1188.5 L1274.75561,1188.5 C1276.37475,1178.90226 1277.55537,1169.17974 1278.16629,1159.40017 C1279.68798,1135.34164 1277.84396,1111.85 1273.46254,1088.82541 C1294.59756,1066.37839 1324.36049,1051.44342 1355.94496,1041.75299 C1390.2055,1031.26036 1427.16461,1026.53636 1464.26989,1026.53636 C1502.81815,1026.53636 1541.48635,1031.63828 1577.43725,1040.64775 C1609.34404,1048.66963 1645.60227,1062.21414 1662.04853,1091.39597 C1670.0093,1105.46814 1668.73123,1119.52249 1661.85738,1130.59982 C1653.96408,1128.37508 1645.27994,1127.55863 1636.7982,1127.55863 C1627.57435,1127.55863 1618.57163,1128.53552 1611.04189,1129.72989 C1609.66637,1129.9545 1607.33136,1130.47147 1607.05026,1132.06515 C1605.58479,1139.87668 1605.35616,1147.44221 1606.77665,1155.22166 C1607.29013,1158.04536 1612.07634,1158.42684 1614.37387,1158.6158 C1617.26733,1158.86181 1620.17578,1159.00442 1623.06924,1159.00442 C1639.48177,1159.00442 1655.54948,1154.72252 1667.81297,1144.22633 C1669.58577,1146.05888 1671.16743,1148.14814 1672.52046,1150.59749 C1675.20029,1155.36783 1676.2235,1160.89402 1675.74,1166.3489 C1674.91919,1166.25264 1674.10587,1166.22055 1673.31504,1166.15994 C1671.45603,1166.06368 1669.51831,1166.01733 1667.53936,1166.01733 C1658.56288,1166.01733 1648.73935,1167.10831 1640.69987,1169.67174 C1636.67451,1170.9802 1635.28025,1176.09995 1634.26454,1179.56897 C1633.7773,1181.25178 1639.83408,1185.4089 1641.0222,1186.3537 C1642.00418,1187.14876 1643.04988,1187.85468 1644.1293,1188.5 L1680.5487,1188.5 C1684.20675,1185.79039 1686.83785,1182.07536 1688.57693,1177.88259 C1690.7995,1180.71699 1691.69152,1184.42132 1691.67653,1188.5 L1707.23077,1188.5 C1707.12957,1187.41259 1706.99839,1186.31092 1706.76601,1185.19142 C1705.07566,1176.76309 1698.53164,1171.97492 1690.76577,1169.27956 C1691.60907,1162.09552 1690.28602,1154.59773 1687.04025,1148.76493 C1684.10556,1143.5311 1680.03147,1139.4845 1675.20029,1136.41123 C1686.37685,1121.17678 1683.95564,1101.16485 1674.15085,1085.59883 C1650.57962,1048.53059 1593.64363,1036.14123 1552.40805,1028.95719 C1524.30173,1024.05849 1495.59574,1021.4594 1466.91223,1021.2847 L1461.54134,1021.2847 C1439.60799,1021.39879 1417.69339,1022.92473 1396.07488,1025.91957 C1352.31689,1032.0162 1304.50729,1045.96002 1270.37418,1074.39671 C1268.87498,1068.09686 1267.19962,1061.85761 1265.35935,1055.63263 C1271.39364,1051.53612 1277.33049,1047.40752 1283.07618,1043.13988 C1308.85873,1023.99788 1333.48314,1003.49751 1357.32797,982.177121 C1401.72688,942.42779 1443.32602,898.104202 1469.14605,845.042108 C1502.67198,776.242858 1514.09591,701.133058 1516.58459,625.459945 C1517.83642,627.160584 1518.98331,628.953921 1520.07023,630.814998 C1524.45165,638.237916 1527.73866,646.487979 1532.16131,653.108708 C1532.44241,653.483062 1532.71601,653.821764 1533.1133,654.192553 C1533.49185,654.495602 1534.03906,654.873522 1534.85238,654.998307 L1535.70692,654.998307 C1536.53898,654.859261 1537.24361,654.39934 1537.58468,654.003594 C1538.2968,653.158622 1538.41673,652.538263 1538.61163,651.846598 C1539.07638,649.732386 1539.20756,646.680504 1539.20756,642.501993 C1539.20756,628.404868 1537.50222,602.153695 1537.50222,577.57464 C1537.50222,562.778719 1538.13188,548.574635 1540.11083,538.267404 C1541.06283,533.112006 1542.40461,528.947756 1543.94504,526.238142 C1544.73962,524.911857 1545.56793,523.984884 1546.31379,523.410873 C1547.07463,522.80121 1547.73803,522.576597 1548.57758,522.54451 C1551.25741,522.469639 1553.67487,521.731625 1555.65382,520.437428 C1558.65598,518.451566 1560.55622,515.392553 1561.69936,511.866489 C1562.8425,508.326164 1563.32599,504.229655 1563.32599,499.783748 C1563.28477,489.073641 1560.60119,476.260016 1557.23173,465.161293 C1555.57137,459.592322 1553.70861,454.486838 1551.89832,450.261979 C1550.11801,446.058511 1548.41642,442.778452 1546.79353,440.714153 C1545.01323,438.532201 1543.39784,434.54978 1542.17224,429.911348 C1540.30948,422.966179 1539.20756,414.537852 1538.61163,407.920688 C1538.2968,404.608541 1538.13188,401.713532 1538.02319,399.688451 C1537.98946,399.342619 1537.98196,399.025309 1537.96697,398.718695 C1538.2968,398.707999 1538.65286,398.700868 1539.0389,398.700868 C1542.21347,398.700868 1547.27702,399.267748 1552.67416,402.169888 C1558.10877,405.068462 1563.95191,410.28447 1568.70064,419.946385 C1575.30088,433.351846 1579.49115,443.017326 1584.75711,449.894755 C1587.35822,453.360209 1590.29291,456.094781 1593.88351,458.05212 C1597.43662,460.048678 1601.63439,461.178873 1606.57801,461.663751 C1608.12594,461.77071 1610.25855,462.679857 1612.81469,464.330582 C1617.29356,467.239853 1622.91183,472.309684 1629.47084,478.285097 C1639.39932,487.23752 1651.61407,498.215024 1666.71855,506.935704 C1681.85675,515.692037 1699.92215,522.202242 1721.35326,522.202242 C1724.91762,522.202242 1728.59066,522.016848 1732.33492,521.628232 L1737.48469,521.114831 L1733.97655,517.503201 C1733.97655,517.503201 1732.98333,516.526313 1731.24051,514.686628 C1725.19872,508.244163 1709.97431,491.704819 1696.33156,473.621708 C1689.54017,464.55163 1683.0786,455.125024 1678.42732,446.393648 C1673.71233,437.672968 1670.87134,429.654648 1670.87134,423.825412 C1670.87134,422.242426 1671.06624,420.855532 1671.46353,419.621944 C1672.44925,416.566497 1672.89152,413.867579 1672.89152,411.379012 C1672.89152,408.07043 1672.01073,405.211073 1670.39909,402.957815 C1667.97788,399.528014 1664.14367,397.617022 1660.07708,396.558134 C1655.96176,395.509941 1651.45666,395.203326 1647.10147,395.203326 C1640.7411,395.203326 1634.65434,395.845077 1631.3336,395.845077 L1631.16494,395.802294 C1631.06,395.802294 1630.46032,394.985844 1629.97308,393.324423 C1629.15226,390.539937 1628.35768,385.848026 1626.43121,380.425232 C1623.46653,372.228648 1617.64962,362.260119 1604.55783,353.382567 C1592.28685,345.054067 1573.74171,337.69176 1545.21187,333.14246 C1547.91419,331.75913 1552.15318,330.386497 1558.53604,330.36867 C1562.77129,330.36867 1567.90231,330.967638 1574.15399,332.614798 C1586.73605,335.855639 1601.82553,346.316177 1618.51916,356.052963 C1635.20155,365.757661 1653.66798,374.824174 1673.71233,374.856261 C1674.65308,374.856261 1675.65755,374.824174 1676.63952,374.777825 C1677.86137,374.745737 1679.08697,374.710085 1680.28259,374.710085 C1698.12311,374.710085 1710.88507,380.796021 1719.98149,387.833888 C1728.9917,394.86819 1734.20893,402.918597 1736.37903,406.676404 L1737.00494,407.546333 L1737.6496,408.07043 C1737.96443,408.25939 1738.47791,408.480437 1739.17129,408.480437 L1739.27249,408.480437 C1740.11579,408.480437 1740.97783,407.945645 1741.28142,407.499985 C1741.83613,406.826146 1741.83613,406.444661 1741.90359,406.116655 L1741.98605,405.211073 C1741.98605,403.817048 1741.64123,401.863273 1740.99657,399.082353 C1738.77775,389.56305 1732.58604,371.476374 1721.20334,354.177625 C1709.77566,336.871745 1693.05205,320.289618 1669.64199,314.417598 C1666.40746,313.426449 1596.57457,292.377023 1536.83882,292.330675 C1536.59145,292.330675 1536.34408,292.330675 1536.10421,292.341371 C1564.52536,259.437382 1598.30615,229.464054 1634.93544,205.687188 C1662.91057,187.536336 1696.13291,171.784919 1730.66706,171.784919 C1732.91587,171.784919 1735.18341,171.845529 1737.44721,171.988141 C1758.19243,173.225293 1774.87482,182.96921 1790.69141,195.009168 C1814.34134,213.013842 1836.75068,232.458891 1858.03562,252.962829 C1893.04951,286.815183 1924.08677,328.632378 1974.59118,341.763312 C1985.45291,344.597711 1996.83561,346.227045 2008.12461,346.227045 C2027.17573,346.227045 2045.9645,341.581483 2061.60868,330.290234 C2073.24625,321.893995 2082.35391,308.360183 2082.86364,294.708718 L2082.86364,292.359197 C2082.65,286.5157 2080.81348,280.682898 2076.8256,275.299322 Z" stroke="#FFFFFF" stroke-width="2.263"></path>
    </g>
</svg>