<?xml version="1.0" encoding="UTF-8"?>
<svg width="1116px" height="745px" viewBox="0 0 1116 745" version="1.1" xmlns="http://www.w3.org/2000/svg" xmlns:xlink="http://www.w3.org/1999/xlink">
    <title>floral-pattern-1</title>
    <g id="Page-1" stroke="none" stroke-width="1" fill="none" fill-rule="evenodd">
        <path d="M40.0020222,732.260545 C40.2608696,731.56201 37.9285474,731.040487 35.8011459,731.040487 C34.2534547,731.040487 32.8109201,731.318378 32.5439838,731.990267 C31.9400067,733.556739 31.6218402,735.018525 31.5760027,736.373723 L31.5760027,736.996124 C31.6541962,739.308715 32.5574655,741.292024 34.1725649,742.9175 L41.6764408,742.9175 C38.9019211,740.344147 38.3437816,736.506958 40.0020222,732.260545 Z M579.84968,455.59466 C582.43276,453.097441 585.328615,450.792463 588.618133,448.917646 C589.45669,450.160545 589.545669,451.799345 589.564543,453.063181 C589.602292,455.309154 587.979103,457.016475 585.269296,457.016475 C584.816313,457.016475 584.349848,456.974601 583.856421,456.873723 C582.438153,456.612961 581.084597,456.16567 579.84968,455.59466 Z M679.478935,522.010765 C673.253118,538.117061 665.007752,553.974015 653.551062,568.591878 C642.390967,582.815743 628.051904,595.66157 612.669363,607.687046 C585.630603,628.852493 554.949107,647.716768 522.992248,665.157324 C522.210313,663.398613 521.387934,661.647515 520.541287,659.894513 C527.354904,653.773283 533.553758,650.282507 538.63094,648.304908 C544.268959,646.119843 548.494102,645.758203 550.721267,645.758203 C551.311763,645.758203 551.767442,645.800077 552.053252,645.819111 L552.36333,645.840048 L552.422649,645.857178 L553.73576,643.403737 C553.590158,643.386607 534.764408,636.058642 515.644759,636.043415 C512.913381,636.043415 510.152342,636.195684 507.45332,636.549711 C505.940681,634.141951 504.384901,631.745611 502.796764,629.364499 C507.553084,626.142097 512.845972,622.624674 518.119987,619.632581 C521.781598,617.56362 525.427031,615.764938 528.816313,614.495392 C532.148972,613.248686 535.268622,612.52731 537.81665,612.52731 L542.068756,612.52731 L539.302326,610.321307 C539.113583,610.178554 532.566903,605.058496 519.624537,605.037559 C516.043815,605.037559 511.99663,605.442976 507.512639,606.449857 C502.103809,607.628042 497.325918,610.117646 492.860802,613.128774 C492.534547,613.357178 492.202899,613.574162 491.879339,613.812083 C485.027974,604.466548 477.804516,595.263766 470.537917,586.18851 C471.842939,582.889974 473.010448,579.568598 474.005393,576.382361 C476.335019,568.961131 477.672396,562.310765 477.693967,558.357471 C477.693967,557.716036 477.648129,557.154542 477.58881,556.623503 L477.386586,555.405348 L475.625885,555.462449 C475.42366,555.462449 468.566903,555.72321 459.237614,559.457617 C456.913381,560.392171 454.435457,561.543708 451.873947,562.967427 C451.803842,562.881775 451.731041,562.780897 451.658241,562.699052 C451.097405,547.690999 450.544658,533.029359 449.994607,518.93302 C462.427368,509.336241 477.181665,501.570501 494.651163,496.954835 C498.6606,495.91179 503.128413,495.616768 506.399056,493.578261 C510.241321,491.206665 514.372093,489.040633 518.6242,487.053518 C520.670711,486.111351 523.609707,484.664791 526.613414,483.772112 C526.022919,484.864645 525.491743,485.959081 525.006404,487.019257 C522.52848,492.394367 519.141894,501.951175 527.988541,505.535216 C530.806202,506.660106 533.529491,507.172112 536.064038,507.172112 C544.819009,507.172112 551.298281,501.125113 551.745871,494.303444 C552.190765,486.876504 547.186384,482.211351 539.553084,480.50974 C541.521402,477.5481 543.891473,474.704469 546.614762,472.049272 C548.680148,470.045026 553.91911,465.798613 557.017189,465.798613 C557.292214,465.798613 557.556454,465.838583 557.796427,465.907105 C558.362656,466.082214 558.923492,466.287778 559.470846,466.537119 C556.213684,470.962449 553.609033,475.833166 553.878665,480.422185 C554.167172,485.220575 560.196158,486.876504 566.244018,486.876504 C569.458038,486.876504 572.666667,486.415889 575.039434,485.683093 C587.353556,481.958203 578.177958,470.263913 571.248399,465.783386 C571.512639,465.43507 571.749916,465.115304 571.962926,464.831702 C573.257162,463.065377 574.670037,461.255275 576.212336,459.473723 C577.320526,459.732581 578.428716,459.941951 579.531513,460.111351 C581.116953,460.337851 582.831817,460.476797 584.570947,460.476797 C591.643411,460.476797 599.193124,458.40403 600.603303,453.200223 C602.199528,447.358788 596.731378,444.762595 590.292551,444.762595 C588.66397,444.762595 586.984159,444.930092 585.334007,445.257471 C581.084597,446.064499 577.344793,448.200077 574.103809,450.77343 C574.049882,450.689682 574.001348,450.613547 573.958207,450.531702 C571.536906,446.275772 574.753623,442.137851 577.290866,438.384411 C583.201213,429.670794 587.865858,417.196124 600.436131,411.973283 C602.798113,410.998759 605.58881,410.661863 608.543984,410.661863 C614.378834,410.661863 620.866195,411.958056 625.981126,412.108422 C627.092012,412.133166 628.208291,412.150296 629.327267,412.150296 C636.6424,412.150296 643.992585,411.486021 651.156724,410.477236 C657.967644,409.500809 668.175935,407.665963 675.135153,404.080018 C675.509943,410.056592 677.648129,416.684118 680.991574,422.437998 C682.838557,425.616622 685.054938,428.502127 687.619144,430.873723 C690.113246,433.190121 692.909336,434.9869 696.064038,435.989974 C694.928884,465.008715 690.328952,493.932288 679.478935,522.010765 Z M507.822717,673.286607 C498.493428,678.206812 488.622177,682.742537 479.802494,688.10813 C474.536569,691.27914 470.074149,695.01545 465.350185,698.565231 C462.403101,700.776944 459.582744,703.106665 456.824402,705.436387 C456.770475,705.476358 456.716549,705.527749 456.662622,705.569623 C456.366026,696.789389 456.064038,687.881629 455.751264,678.909154 L457.056286,677.074308 L457.307044,675.745758 L456.824402,678.353371 C456.913381,678.368598 459.814628,678.614133 464.41456,678.614133 C470.783283,678.614133 480.401079,678.149711 490.390967,675.837119 C497.902932,674.093635 505.649478,671.295684 512.239299,666.870355 C512.719245,667.978115 513.196495,669.091585 513.649478,670.191731 C511.713515,671.23668 509.766768,672.262595 507.822717,673.286607 Z M487.824065,638.692903 C489.754634,637.893488 492.081564,636.50403 494.823728,634.714865 C495.638018,635.993928 496.438827,637.271087 497.228851,638.548247 C489.967644,640.147075 484.313448,641.557471 479.457364,643.150589 C482.733401,641.180604 485.839569,639.492317 487.824065,638.692903 Z M453.467476,612.877529 C454.268284,611.977236 455.136502,611.101687 456.055949,610.252786 C459.154028,607.384411 462.004044,603.400663 464.592518,598.813547 C465.218065,597.69627 465.83822,596.535216 466.434109,595.355128 C472.665319,603.305494 478.767105,611.339608 484.529154,619.465084 C480.99427,622.371526 477.594203,625.361717 474.231884,627.988364 C471.271318,630.299052 468.337715,632.307105 465.439164,633.774601 C462.537917,635.219257 459.720256,636.085289 456.937647,636.220428 C456.538591,636.243269 456.198854,636.260399 455.821368,636.260399 C455.282103,636.250882 454.767105,636.239462 454.287159,636.195684 C454.012133,628.412815 453.745197,620.635655 453.467476,612.877529 Z M537.886754,502.177676 C537.449949,502.731556 537.034715,502.969477 536.641052,502.969477 C534.769801,502.969477 533.510617,497.533459 533.53758,495.987925 C533.607685,492.261131 535.09336,488.551468 536.926862,485.035948 C542.109201,489.309008 541.178969,497.997881 537.886754,502.177676 Z M567.292888,483.671234 C567.17425,483.715011 567.079879,483.720721 567.028648,483.720721 C566.985507,483.720721 566.985507,483.715011 567.04213,483.707398 C567.079879,483.688364 567.168857,483.671234 567.292888,483.671234 Z M566.416582,482.361717 C563.582744,479.953957 564.672059,476.06728 566.713178,472.399491 C568.233906,474.369477 569.312437,476.444147 569.773509,478.221892 C570.194135,479.847368 569.687226,481.410033 568.527806,482.812815 C568.293225,483.094513 568.06943,483.28485 567.848332,483.412376 C567.287496,483.117354 566.82912,482.717646 566.416582,482.361717 Z M447.977755,468.98485 C446.920795,444.204908 445.925851,422.906226 445.03876,406.916036 C444.16515,390.883971 443.394001,380.257471 442.738793,376.601102 C442.369397,374.581629 442.196832,370.584557 442.196832,365.051468 C442.196832,338.345318 446.289855,275.694074 451.183687,210.216329 C451.37243,211.411643 451.472194,212.51179 451.472194,213.488217 C451.445231,218.109594 453.329963,221.62321 456.109875,224.472551 C460.321537,228.730384 466.291203,231.541658 471.271318,235.378847 C476.248736,239.210326 480.401079,243.938291 481.315133,252.221746 C482.593192,263.78851 487.001685,275.874894 497.474216,287.498759 C505.886754,296.884264 518.214358,305.929067 535.837546,314.187778 C527.853724,319.698027 521.530839,325.960106 519.166161,333.042537 C519.004382,333.341365 518.163128,334.835509 517.297607,336.756007 C516.353893,338.906812 515.358948,341.533459 515.358948,343.827017 C515.358948,344.649272 515.472194,345.410619 515.841591,346.152932 C516.219077,346.876212 516.895854,347.603298 517.974385,348.027749 C518.457027,348.221892 518.885743,348.242829 519.233569,348.242829 C519.797101,348.242829 520.220425,348.160985 520.6788,348.060106 C522.415234,347.635655 524.720593,346.676358 527.877991,345.267866 C536.398382,341.459228 550.421975,334.342537 565.551062,327.058349 C569.099427,328.879872 571.828109,330.531995 573.871925,332.018525 C578.364004,335.27138 579.590832,337.660106 579.561173,339.245611 C579.561173,340.083093 579.248399,340.777822 578.768453,341.377383 C577.673745,342.350004 576.59791,343.004762 575.799798,343.404469 C575.379171,343.629067 575.009774,343.762302 574.77789,343.863181 L574.527132,343.945026 L574.497472,343.965963 L575.918436,346.390853 C575.926525,346.390853 575.931918,346.390853 575.945399,346.381336 C575.991237,346.373723 576.177283,346.324235 576.468487,346.211936 C577.131783,345.979725 578.320863,345.521014 579.561173,344.763474 C580.388945,344.266695 581.257162,343.598613 581.944725,342.778261 C581.990563,342.732581 582.039097,342.688803 582.084934,342.641219 C585.026626,339.885143 587.830806,335.309447 587.830806,328.122332 C587.830806,325.06933 587.334681,321.53668 586.137513,317.46728 C593.449949,314.203005 600.543984,311.235655 606.918099,308.932581 C611.162117,307.364206 615.112235,306.113693 618.523087,305.251468 C621.408156,304.524381 623.940007,304.0828 625.94877,303.974308 C624.988878,304.436827 623.983148,305.032581 622.96124,305.814865 C619.097405,308.766988 615.112235,314.147807 612.585777,324.169037 L612.548028,324.264206 L612.548028,324.366988 C612.548028,324.366988 612.496798,325.274894 612.380856,326.738583 C612.192113,328.94649 611.814628,332.416329 611.100101,335.872844 C610.420627,339.325553 609.344793,342.804908 607.975059,344.889096 C607.694641,345.32687 606.980115,346.05015 605.987867,346.939023 C602.428716,350.083386 595.377823,355.256739 589.262555,362.78075 C583.109538,370.306665 577.908325,380.257471 577.908325,393.055714 C577.908325,399.780311 579.356252,407.294806 582.831817,415.633459 L582.920795,415.85996 C582.713178,416.03507 582.500169,416.212083 582.289855,416.398613 C577.344793,420.671673 574.241321,426.035362 571.054264,431.016475 C567.842939,436.037559 563.086619,441.212815 562.037749,446.753518 C561.28817,450.851468 564.006067,454.106226 568.104483,456.418818 C566.931581,457.66362 565.863836,458.883679 564.882373,459.985728 C564.124705,460.844147 563.323896,461.742537 562.539265,462.675187 C561.293563,462.509594 560.020897,462.429652 558.750927,462.429652 C553.428379,462.429652 548.008763,463.828627 543.664981,466.03463 C537.118301,469.348393 532.32693,474.5522 528.854061,479.953957 C528.605999,479.980604 528.355241,480.005348 528.101786,480.030092 C517.100775,481.191146 506.827772,486.589096 498.434109,491.454103 C494.850691,493.519257 493.518706,493.361277 488.705763,494.564206 C481.741153,496.315304 475.116279,498.635509 468.801483,501.336387 C461.915066,504.26567 455.584092,507.722185 449.708797,511.538437 C449.115605,496.541805 448.535895,482.258935 447.977755,468.98485 Z M588.461746,288.735948 C588.361982,288.785436 588.254129,288.836827 588.146276,288.888217 C584.970003,290.414718 580.329626,292.306665 574.931581,294.545026 C572.631614,290.978115 569.975733,287.17138 566.899225,283.103884 C565.227503,280.884557 563.671722,278.81179 562.245366,276.876065 C566.899225,278.023796 572.262218,280.11179 577.908325,283.790999 C582.365352,286.666988 585.711493,288.147807 588.461746,288.735948 Z M643.927873,349.306812 C643.701382,348.846197 643.617796,348.402712 643.582744,347.938291 C643.582744,346.77343 644.294574,345.5134 645.572632,344.241951 C647.484328,342.31955 650.60937,340.507544 653.629255,339.207544 C655.109538,338.560399 656.587125,338.042683 657.846309,337.698173 C658.692956,337.450736 659.442535,337.304176 659.954837,337.235655 C659.965622,337.298466 659.979103,337.366988 660.00337,337.437412 C660.054601,337.724821 660.086957,338.149272 660.086957,338.62321 C660.108527,341.394513 659.062353,346.514572 659.062353,352.236094 C659.062353,357.137266 659.828109,362.537119 662.812942,367.478261 C666.342433,373.298759 669.723627,377.491878 672.174587,381.243415 C674.593192,385.04444 676.103134,388.358203 676.103134,392.6522 C676.103134,393.609594 676.024941,394.610765 675.868554,395.665231 C673.695315,395.830824 671.721604,396.361863 671.406134,397.197441 C669.437816,402.209008 661.564543,404.569184 655.220088,406.150882 C647.629929,408.069477 639.460061,408.903152 631.317155,408.903152 C627.450624,408.903152 623.57061,408.709008 619.779575,408.364499 C616.236603,408.035216 612.798787,407.825846 609.485002,407.825846 C602.115942,407.825846 595.356252,408.844147 589.367711,411.729652 C592.107179,408.195099 596.386249,402.825699 601.296259,397.471526 C604.564206,393.897002 608.088305,390.320575 611.588136,387.292317 C615.063701,384.277383 618.523087,381.831556 621.516009,380.491585 C628.343108,377.432873 634.056623,372.560253 638.155039,367.457324 C642.226491,362.354396 644.666667,357.036387 644.696326,352.822332 C644.696326,351.556592 644.469835,350.374601 643.927873,349.306812 Z M460.887765,128.154542 C461.262555,127.012522 461.769464,126.047515 462.311426,125.505055 C462.591844,125.246197 462.861476,125.059667 463.050219,124.985436 L463.675767,124.85791 C463.96697,124.85791 464.360634,124.899784 464.924166,125.101541 C467.065049,125.845758 470.103809,127.63302 473.547017,130.242537 C483.960229,138.05586 498.409842,153.172405 511.379171,170.203737 L511.554432,170.395977 L511.778227,170.56157 C511.832154,170.601541 518.14695,174.592903 527.899562,178.833605 C537.689922,183.047661 550.974722,187.547222 565.108864,188.455128 C572.647792,188.951907 576.773172,190.878115 579.26997,193.310619 C581.777553,195.765963 582.575666,198.870355 582.575666,201.788217 C582.575666,203.891439 582.152342,205.857617 581.747893,207.285143 C581.521402,207.991292 581.32457,208.571819 581.157398,208.97343 L580.979441,209.416914 L580.925514,209.56157 L580.413212,210.602712 L581.80182,211.120428 C581.80182,211.141365 596.74486,216.843854 613.580721,222.569184 C621.998652,225.441365 630.904617,228.288803 638.659252,230.452932 C642.560836,231.541658 646.152342,232.447661 649.301651,233.085289 C652.45905,233.728627 655.109538,234.115011 657.298955,234.115011 C661.623862,234.115011 666.280418,233.968452 670.923492,233.968452 C676.672059,233.968452 682.355915,234.196856 687.133805,235.156153 C689.617122,235.660545 691.825413,236.338144 693.69936,237.266988 C692.192113,247.175919 691.256488,257.10198 690.719919,267.050882 C683.989889,268.415597 677.971689,270.391292 673.029323,273.162595 C666.253455,271.223064 627.954837,260.63463 593.150657,260.613693 C583.57061,260.613693 574.241321,261.420721 565.880013,263.468745 C562.110549,264.403298 558.529828,265.587193 555.229525,267.068012 C553.698011,264.831556 552.417256,262.897734 551.368386,261.218964 C549.836872,258.809301 548.806876,256.924967 548.157061,255.520282 C547.501854,254.090853 547.275362,253.122039 547.275362,252.651907 L547.286148,252.543415 C547.542299,252.568159 547.908999,252.62526 548.329626,252.728042 C549.205932,252.908862 550.346478,253.249564 551.511291,253.567427 C552.70846,253.845318 553.935288,254.149857 555.299629,254.149857 C555.836198,254.149857 556.405123,254.109887 556.974048,253.955714 C557.855747,253.712083 558.653859,253.186753 559.077182,252.549125 C559.511291,251.90198 559.67307,251.201541 559.67307,250.356446 C559.67307,248.828042 559.101449,247.444294 558.084934,246.30037 C556.29727,244.29422 553.358274,243.024674 550.033704,241.926431 C545.02393,240.278115 538.941018,238.991439 533.365015,236.863474 C527.764746,234.731702 522.781935,231.840487 519.716212,227.005933 C514.846646,219.274455 511.12302,208.349125 508.019548,198.718086 C506.458375,193.872112 505.067071,189.382068 503.729693,185.721892 C503.044826,183.898466 502.419279,182.269184 501.739805,180.923503 C501.079205,179.556885 500.461746,178.475772 499.660937,177.630677 C498.342433,176.243122 495.252444,173.290999 491.272666,169.577529 C480.314796,159.327895 462.812942,143.434777 460.130098,141.00037 C460.103134,140.743415 460.065386,140.358935 460.035726,139.879286 C459.976407,138.939023 459.892821,137.608569 459.892821,136.144879 C459.892821,133.560106 460.119312,130.467134 460.887765,128.154542 Z M815.708123,740.233752 C814.262892,741.362449 812.61274,742.287485 810.771149,742.287485 C810.215706,742.287485 809.65487,742.201834 809.077856,742.017207 C805.80182,740.974162 801.797776,738.990853 803.784968,736.053957 C804.914729,734.420867 810.358611,734.074455 814.953151,734.074455 C817.096731,734.074455 819.065049,734.154396 820.308055,734.203884 C819.415571,736.442244 817.865184,738.534045 815.708123,740.233752 Z M782.314122,723.891439 C781.755982,720.644294 781.93394,717.45425 782.643074,714.201395 C786.043141,713.858788 789.564543,713.628481 793.07516,713.628481 C798.157735,713.628481 803.180991,714.117646 807.594877,715.438583 C801.52275,720.324528 792.384901,723.567866 782.314122,723.891439 Z M424.479272,238.987632 C421.726323,235.643415 417.770812,233.018671 413.160094,231.025846 C413.844961,228.661863 414.238625,226.290267 414.238625,223.994806 C414.268284,219.055567 412.361982,214.312376 407.38726,210.804469 C406.308729,210.018378 405.418942,208.868745 404.85541,207.349857 C404.283788,205.827163 404.000571,203.94854 404.000571,201.826285 C403.973711,192.574015 409.263903,178.833605 414.586451,167.529506 C417.228851,161.868891 419.903606,156.80974 421.893495,153.153371 C422.502865,152.032288 423.052915,151.03302 423.527469,150.205055 C424.54668,151.942829 425.964948,154.377236 427.617796,157.300809 C426.350522,184.64649 425.307044,212.764938 424.479272,238.987632 Z M425.360971,357.464645 C425.360971,357.462742 425.360971,357.458935 425.360971,357.458935 L425.803168,381.477529 L425.360971,357.464645 Z M419.701382,625.578701 C418.18335,622.9216 416.538591,620.16362 414.780586,617.369477 C410.175261,610.018671 404.801483,602.490853 399.052915,596.341072 C398.575666,595.83668 398.101112,595.341805 397.621166,594.860253 C398.812942,591.398027 400.182676,587.973869 401.644085,584.566841 C407.279407,571.241365 414.907314,557.103152 425.080553,544.007983 L425.884058,587.467573 C420.483316,596.268745 418.652511,605.545758 418.652511,614.074747 C418.6606,618.119403 419.065049,621.988949 419.701382,625.578701 Z M387.434446,643.232434 C387.450624,641.226285 387.493765,639.233459 387.58544,637.231116 C393.7061,642.754689 399.087968,647.844294 403.102797,651.75381 C398.853387,649.401248 393.503876,646.456739 387.434446,643.232434 Z M380.583081,583.634191 C372.181328,581.437705 366.246714,578.712083 361.541625,575.807544 L360.684193,510.225113 L360.684193,510.148979 L340.038423,294.187193 C340.666667,294.179579 341.297607,294.168159 341.923155,294.152932 C346.593192,294.086314 351.247051,293.84649 355.838895,293.408715 C357.025278,297.068891 358.262892,299.935362 359.624537,301.86157 C360.058645,302.483971 360.565554,302.984557 361.220762,303.405201 C361.875969,303.804908 362.784631,304.07138 363.698686,304.07138 C364.777216,304.07138 365.688574,303.745904 366.457027,303.3481 C367.904954,302.558203 369.096731,301.400955 370.377486,299.889682 C372.502191,297.358203 374.734749,293.831263 377.007752,289.822771 C381.478261,288.676944 385.830131,287.289389 390.01483,285.620135 C398.141557,292.108715 405.378497,299.137851 411.313111,306.795099 C416.295922,313.237998 419.914392,320.076797 422.16852,327.153518 C421.780249,345.974015 421.607685,357.453225 421.607685,357.453225 L421.607685,357.481775 L421.726323,363.625846 C419.178295,371.743708 415.425008,379.711204 411.623188,387.492171 C404.200202,402.682947 396.122009,417.660545 392.827098,433.622185 C389.467476,449.680897 390.408493,466.133605 394.10246,482.106665 C398.586451,501.536241 408.476576,519.368891 420.553421,536.611497 C411.407482,546.925846 404.086957,558.094806 397.974385,569.376065 C394.733401,575.407837 391.78362,581.53668 389.292214,587.751175 C386.49882,585.861131 383.608359,584.439316 380.583081,583.634191 Z M376.721941,637.598466 C374.880351,636.648686 372.998315,635.687485 371.086619,634.714865 C368.20155,633.251175 365.254466,631.770355 362.256151,630.289535 L362.064712,615.86201 C367.214695,619.775333 372.361982,623.970355 377.282777,628.178701 C376.991574,631.307837 376.816313,634.4522 376.721941,637.598466 Z M362.57971,654.35381 L362.458375,645.763913 C365.116953,647.162888 367.354904,648.754103 369.298955,650.373869 C372.200202,652.848247 374.362656,655.423503 375.983148,657.526724 C376.228514,657.836973 376.46579,658.147222 376.697674,658.442244 C373.270644,657.305933 368.422649,655.777529 362.57971,654.35381 Z M344.322885,621.787193 C341.036063,620.298759 337.762723,618.850296 334.54331,617.487485 C322.450286,612.350296 311.125716,608.250443 302.111898,606.425113 C281.695315,602.304323 243.992585,591.961424 200.503539,590.924089 C199.101449,589.485143 197.75059,588.023357 196.475228,586.510179 C192.357937,581.637559 189.437816,576.466109 189.319178,570.854982 C189.327267,570.409594 189.351534,569.971819 189.391978,569.516914 C189.815302,564.783239 192.775868,560.14854 194.760364,555.671819 C196.140883,552.5522 197.173576,549.365963 197.917762,546.107398 C202.706437,528.328042 200.538591,506.507837 185.811257,492.352493 C176.886417,483.764499 157.267947,479.457178 141.842265,479.457178 L140.596562,479.457178 C138.881699,479.457178 137.212673,479.508569 135.635322,479.626578 C129.822042,480.022478 124.45905,481.410033 121.377149,484.451614 C119.131109,484.093781 116.87698,483.86728 114.706437,483.789242 C114.347826,483.764499 113.989215,483.754982 113.638692,483.747368 C108.817661,480.694367 102.084934,478.739608 95.1391978,477.951614 C94.6700371,473.866988 93.2032356,469.734777 91.7903606,466.278261 C88.6680148,458.641951 83.6905966,452.558788 72.9646107,449.363034 C59.6231884,445.432581 44.4914055,446.292903 30.4435457,445.190853 C24.5035389,444.726431 18.380182,443.784264 14.7401416,440.184996 C14.3950118,439.840487 14.1793057,439.48075 14.0957196,439.117207 C14.2278396,435.828188 23.1472868,432.362156 26.4583755,431.090706 C34.5716212,428.022478 43.8955174,426.977529 51.9197843,423.739901 C58.4988204,421.092317 62.0984159,416.861131 63.9400067,412.108422 C65.7384564,411.77914 67.2510954,411.42321 68.3538928,411.074894 C77.7478935,408.120867 81.1803168,402.926578 81.6090327,396.92526 C82.1213347,391.314133 79.9696663,384.951175 77.5645433,379.10403 C78.4570273,378.963181 79.3683856,378.812815 80.2770475,378.651029 C82.7226154,378.241805 91.4290529,377.274894 92.6801483,375.567573 C92.9821368,375.154542 93.2760364,374.737705 93.561847,374.330384 C94.7859791,373.039901 95.7485676,371.191731 96.4280418,369.507251 C96.9322548,368.448979 97.363667,367.369769 97.6818335,366.254396 C99.256488,360.848832 94.8641726,356.45015 90.3505224,352.055275 C87.6164476,349.356299 84.801483,346.61545 83.2349174,343.362595 C82.5338726,341.879872 82.0754971,340.351468 81.8301314,338.800223 C80.3201887,327.100223 90.5284799,313.801395 99.0299966,304.712815 C107.466801,295.692756 120.924166,289.77138 134.950455,285.936094 C152.028986,281.288071 170.612066,279.413254 189.289518,279.18485 C190.009437,279.18485 190.737445,279.181043 191.460061,279.181043 C206.079542,279.181043 220.69363,280.155567 234.647118,281.539316 C263.238962,284.37343 290.590495,291.05996 319.166161,293.383971 C319.333333,295.144586 319.497809,296.65015 319.640715,297.887339 C320.883721,308.342537 327.09336,384.30974 333.006404,457.64078 C335.958881,494.278701 338.835861,530.286607 340.968655,557.110765 C341.071116,558.424089 341.176272,559.718378 341.278733,560.986021 C335.810583,557.976797 324.556117,552.883386 310.16852,548.47138 C295.745871,544.074601 278.187395,540.406812 260.19481,540.380165 C258.709134,540.380165 257.239636,540.414425 255.767442,540.465816 C255.449275,540.363034 255.09336,540.288803 254.643074,540.288803 L254.486687,540.288803 C254.087631,540.296417 253.637344,540.406812 253.329963,540.585728 C252.763734,540.903591 252.620829,541.246197 252.537243,541.432727 C252.477924,541.651614 252.477924,541.76772 252.477924,541.853371 L252.477924,543.258056 L254.475902,543.157178 L254.648466,543.157178 C254.802157,543.258056 254.980115,543.374162 255.182339,543.541658 C257.088642,545.039608 261.122346,549.01955 268.893158,558.313693 C277.001011,567.986607 284.504887,576.422332 293.580721,583.03463 C302.6242,589.664059 313.25851,594.433898 327.314459,596.683679 C330.364004,597.172844 334.082238,598.493781 338.150994,600.456153 C340.189417,601.436387 342.303337,602.591731 344.479272,603.863181 L344.322885,621.787193 Z M344.066734,651.072405 C339.979103,650.627017 335.70273,650.368159 331.323896,650.358642 C316.537243,650.358642 300.491405,653.455421 286.616111,662.924674 C274.897877,670.941658 266.585103,678.806373 260.273003,686.016329 C260.29727,682.799638 260.29727,679.571526 260.200202,676.358642 C259.979103,667.856299 259.105494,659.376797 256.487361,651.041951 C254.80755,645.649711 252.178632,640.503005 248.813616,635.607544 C267.766094,640.230824 288.295922,643.910033 306.722615,643.910033 C313.379845,643.910033 319.778227,643.428481 325.702056,642.326431 C331.21065,641.302419 336.101786,640.862742 340.486013,640.862742 C341.755982,640.862742 342.972026,640.904616 344.155713,640.97504 L344.066734,651.072405 Z M135.168857,496.315304 C132.655881,495.750004 131.065049,494.463327 130.307381,492.849272 C130.296596,492.695099 130.283114,492.55425 130.275025,492.40198 C132.208291,493.555421 133.893495,494.868745 135.168857,496.315304 Z M118.993596,488.534337 C118.972026,488.600955 118.963937,488.65996 118.945062,488.720867 C118.750927,488.423942 118.535221,488.121307 118.316818,487.835802 C118.589147,487.894806 118.85878,487.961424 119.136502,488.018525 C119.090664,488.197441 119.036737,488.366841 118.993596,488.534337 Z M106.347826,493.519257 C106.57971,492.17548 107.073138,490.991585 107.841591,490.022771 C109.014493,491.800516 109.623862,493.789535 109.437816,495.968891 C107.650152,495.487339 106.649815,494.632727 106.347826,493.519257 Z M83.7876643,481.674601 C83.776879,482.057178 83.7391304,482.434045 83.7121672,482.814718 C83.5396023,485.028335 82.9302326,487.276212 81.4122009,489.206226 C80.603303,490.234045 79.9346141,490.746051 79.2254803,490.92116 C78.0930233,490.719403 76.5183687,490.393928 76.2703067,489.602127 C76.3188406,485.070209 79.4654533,482.536827 83.7876643,481.588949 C83.7876643,481.6175 83.7876643,481.646051 83.7876643,481.674601 Z M49.9973037,411.139608 C49.5065723,411.166255 49.0212336,411.171966 48.5251095,411.171966 C45.0225817,411.171966 41.495787,410.566695 38.3006404,409.247661 C35.3643411,408.035216 34.0889788,405.777822 34.2103134,403.543269 C35.0434783,400.636827 38.5163465,397.850296 42.776542,397.279286 C46.0121335,397.406812 49.2612066,398.678261 51.9764071,399.72892 C53.53758,400.343708 54.2386249,401.388657 54.4893832,402.606812 C54.7212673,404.19422 54.2143579,406.01384 53.9716886,407.658349 C53.8153017,408.691878 53.569936,409.710179 53.2436805,410.711351 C52.173239,410.915011 51.0947085,411.057764 49.9973037,411.139608 Z M354.827772,290.081629 C350.074149,290.637412 345.23694,290.919111 340.391641,290.981922 L339.725649,290.981922 L336.120661,253.249564 C336.530502,253.449418 336.945736,253.653078 337.352882,253.845318 C341.494439,255.866695 345.60364,257.933752 349.661611,260.061717 C350.252107,266.538876 351.133805,272.856153 352.206943,278.583386 C352.986181,282.789828 353.873273,286.670794 354.827772,290.081629 Z M384.910684,281.695392 C383.433097,282.390121 381.928547,283.046783 380.391641,283.66728 C381.065723,282.414865 381.731716,281.141512 382.400404,279.866255 C383.244355,280.471526 384.085608,281.082507 384.910684,281.695392 Z M416.228514,253.584557 C415.513987,255.562156 414.430064,257.509301 413.106168,259.389828 C408.058645,266.514133 400.665319,272.939901 391.837546,278.075187 C389.788338,276.640048 387.695989,275.227749 385.568588,273.847807 C386.450286,272.157617 387.337378,270.492171 388.208291,268.893342 C389.98517,265.640487 391.683856,262.623649 393.280081,260.154982 C394.868217,257.680604 396.375463,255.733459 397.575329,254.696124 C401.183013,251.498466 405.311089,246.681043 408.584429,241.220282 C409.28817,240.038291 409.94877,238.820135 410.55814,237.586753 C415.586788,241.993049 417.789687,247.705055 416.228514,253.584557 Z M424.743512,525.768012 C415.713515,511.380458 408.565554,496.473283 404.85541,480.391731 C401.12639,464.342537 401.072464,447.939316 404.402427,431.882507 C407.476239,417.097149 415.193124,402.985582 422.192787,388.940633 L424.743512,525.768012 Z M422.618807,306.795099 C416.04786,297.799784 407.403438,289.666695 397.569936,282.228335 C407.031345,277.439462 417.889451,269.784118 423.80519,261.289389 C423.325244,277.934337 422.931581,293.380165 422.618807,306.795099 Z M350.257499,161.153225 C359.020559,157.190414 365.367711,154.032727 367.309066,153.111497 C369.072464,152.287339 372.801483,150.747515 377.325918,148.956446 C384.123357,146.247954 392.792046,142.915157 399.73239,140.263766 C401.892147,139.439608 403.882036,138.678261 405.604988,138.0216 L352.263566,196.968891 L354.765757,198.388803 L354.84395,198.516329 C355.019211,198.792317 355.305022,199.618378 355.275362,201.064938 C355.305022,203.750589 354.474553,208.571819 352.002022,216.722039 C349.788338,224.078554 348.874284,233.446929 348.874284,243.331116 C348.874284,246.66201 348.976744,250.050004 349.173576,253.432288 C344.662622,251.174894 340.111223,248.946051 335.500506,246.751468 L333.327267,224.044294 C336.096394,199.844879 342.106505,179.048686 350.257499,161.153225 Z M63.1688574,377.240633 C62.7698011,377.248247 62.3653522,377.25586 61.9609033,377.25586 C60.9066397,377.25586 59.8442872,377.231116 58.7657567,377.164499 C58.6066734,375.37343 58.8062016,373.73463 59.3913043,372.118671 C59.9494439,371.186021 60.8661948,370.441805 62.2979441,370.082068 C63.1742501,372.421307 64.1772835,374.766255 65.1614425,377.113108 C64.5089316,377.172112 63.842939,377.215889 63.1688574,377.240633 Z M850.547354,75.9718192 C850.784631,75.8328734 851.011122,75.701541 851.251095,75.5835322 C854.85878,83.2693302 857.147961,94.5734297 844.359285,94.5734297 L844.076171,94.5734297 C842.504213,87.9744546 842.671385,80.513254 850.547354,75.9718192 Z M890.47725,79.7195498 C891.677115,80.4961237 892.777216,81.3374122 893.737108,82.2548353 C895.419616,83.8441471 896.325581,85.785582 895.789012,87.7346303 C895.505898,88.7396083 894.740142,89.706519 893.823391,90.4697694 C893.06033,91.1093009 892.143579,91.5908529 891.178295,92.0705015 C891.143242,92.0952452 891.092012,92.1218924 891.059656,92.1371193 C890.97607,92.0343375 890.884395,91.9182321 890.760364,91.7888031 C887.079879,87.8221852 887.605662,83.4158895 890.47725,79.7195498 Z M921.099427,85.2126684 C921.635996,82.7839714 922.552747,80.3191105 923.741827,77.8885102 C927.948096,82.3500037 930.606673,88.27709 923.828109,90.1271633 C922.981463,90.3593741 922.062016,90.5573243 921.147961,90.6981735 C921.120998,90.6486859 921.099427,90.6068119 921.07516,90.5478075 C920.298618,88.8404868 920.740816,86.9314092 921.099427,85.2126684 Z M1046.01483,25.6087152 C1048.15571,23.7281881 1051.59623,21.5926098 1054.33839,21.5926098 C1055.88878,21.5926098 1057.20998,22.2740154 1057.94877,24.0669876 C1059.31041,27.3674268 1056.5305,30.5327269 1053.21672,32.9766508 C1047.07988,31.7775293 1041.67105,29.4230637 1046.01483,25.6087152 Z M1109.65622,255.39466 C1108.65319,254.389682 1104.53589,253.576944 1101.84226,253.576944 C1099.96023,253.576944 1098.75497,253.965231 1099.75531,254.972112 C1106.78463,262.043122 1102.48399,271.038437 1095.47085,277.163474 C1085.60499,285.770501 1069.66161,289.497295 1054.39771,289.497295 C1053.63734,289.497295 1052.89855,289.489682 1052.14628,289.470648 C1025.44186,288.848247 1006.23593,276.737119 988.863498,263.78851 C962.946411,244.534045 937.064375,225.803005 907.480283,209.274162 C892.240647,200.758496 873.584766,196.395977 854.548702,196.395977 C848.686889,196.395977 842.776542,196.807105 836.930907,197.644586 C801.36906,202.730384 770.566229,219.375333 744.59791,236.480897 C731.156724,245.304908 718.233232,254.814133 706.717223,264.978115 C705.185709,265.0828 703.678463,265.208422 702.184698,265.368305 C704.446916,230.563327 711.789012,196.17138 729.975733,162.991878 C740.777216,143.337705 750.138861,123.175333 764.817661,104.705055 C777.962251,88.1552745 797.842265,71.9138397 826.800809,71.7158895 C826.967981,71.7063726 827.145939,71.7063726 827.323896,71.7063726 C831.899562,71.7063726 836.461746,72.2183785 840.921469,73.0558602 C836.108527,75.7186713 832.948433,79.824235 832.649141,85.6694766 C832.519717,88.7795791 833.161443,91.8516142 834.056623,94.9046157 C834.512302,96.4482467 838.262892,97.2343375 840.026289,97.5541032 C843.350859,98.174601 846.885743,98.5762116 850.223795,98.5762116 C858.312774,98.5762116 865.226154,96.2103258 865.021234,88.7396083 C864.937647,84.9214531 864.163802,78.7811896 860.866195,75.6101794 C860.054601,74.8183785 858.852039,74.142683 857.409505,73.5488324 C859.601618,73.1319949 861.898888,72.9568851 864.204247,72.9568851 C867.663633,72.9568851 871.14459,73.3470754 874.323559,73.9028587 C876.599259,74.2968558 878.907314,74.8450256 881.147961,75.5416581 C880.206943,76.5847035 879.422312,77.7381442 878.834513,78.9981735 C875.536906,86.1491252 880.743512,94.0195498 891.013819,96.1075439 C892.157061,96.3397548 893.335356,96.4482467 894.51365,96.4482467 C900.712504,96.4482467 906.811594,93.3876318 906.574317,88.5587884 C906.337041,83.4577635 900.925514,79.4016874 893.977081,76.3715264 C897.994607,73.4232101 903.57061,71.4589348 909.181665,71.4589348 C911.160768,71.4589348 913.150657,71.7063726 915.070442,72.2412189 C914.760364,72.7589348 914.450286,73.2785542 914.164476,73.8000769 C911.457364,78.7164751 907.644759,85.8445864 911.826761,90.8428294 C914.328952,93.7987592 918.551399,94.8170608 923.062353,94.8170608 C928.355241,94.8170608 934.063364,93.4333126 937.946073,92.1123755 L938.31547,91.767866 C938.841254,84.0554209 934.241321,77.5021266 926.438153,73.1453184 C928.031682,70.651907 929.843613,68.253664 931.763397,66.0286274 C940.615436,55.8322877 947.811931,43.8068119 965.737108,40.6529319 C969.096731,40.0552745 972.518369,39.8021266 975.958881,39.8021266 C990.794068,39.8021266 1006.17391,44.4196962 1020.52107,45.6054941 C1022.70509,45.7882174 1024.96461,45.8833858 1027.31041,45.8833858 C1039.38456,45.8833858 1052.90934,43.4147182 1061.55915,37.5485395 C1063.91574,37.7636201 1066.30199,37.8644985 1068.69633,37.8644985 C1085.16549,37.8644985 1102.00944,32.8567387 1112.46579,23.9470754 C1114.31277,22.3920242 1108.21368,20.1593741 1104.70037,20.1593741 C1103.80519,20.1593741 1103.08257,20.2964165 1102.68891,20.6295059 C1093.68318,28.2962701 1079.89417,32.8871925 1065.91911,33.8141325 C1071.16346,27.9079832 1068.3512,21.7182321 1059.14055,18.8403404 C1056.25548,17.9400476 1053.48096,17.5289202 1050.84934,17.5289202 C1043.19717,17.5289202 1036.76373,21.0368265 1032.29323,26.2349231 C1032.20964,26.5718192 1032.31749,26.8953917 1032.66262,27.17709 C1037.40816,30.9153038 1043.1729,33.6237958 1049.47691,35.3767972 C1041.47961,39.9163287 1031.33064,41.8349231 1021.24907,41.8349231 C1019.65015,41.8349231 1018.05662,41.7911457 1016.47927,41.6940739 C1000.4577,40.7538104 985.201887,35.9934883 969.107516,35.9934883 C966.664644,35.9934883 964.208291,36.105787 961.730367,36.349418 C946.644422,37.8587884 937.662959,44.2693302 929.951466,53.0590813 C925.289518,58.3885102 920.654533,63.706519 916.890462,69.351907 C915.95214,69.0987592 914.986855,68.8646449 913.997304,68.662888 C910.88844,68.0138397 907.550388,67.678847 904.239299,67.678847 C896.754297,67.678847 889.285474,69.3595205 884.159757,72.9131076 C878.896528,71.413254 873.689922,70.3949524 869.77216,69.8239422 C866.42602,69.3423902 863.044826,69.0873389 859.758005,69.0873389 C855.047523,69.0873389 850.536569,69.6126684 846.575666,70.7489788 C844.13549,70.3016874 841.827435,69.9400476 840.085608,69.6031515 C833.892147,68.4059334 827.811931,67.829213 821.890799,67.829213 C802.434109,67.829213 784.756994,74.0779685 771.019211,85.0223316 C751.6515,100.447222 740.66397,120.706665 730.458375,139.704176 C716.321537,165.905933 703.263229,191.787925 697.007752,219.596124 C696.463094,222.0134 695.956185,224.430677 695.487024,226.853664 C695.298281,226.543415 695.101449,226.223649 694.901921,225.898173 C689.350185,216.98851 681.158746,205.278993 671.710819,194.918964 C666.997641,189.739901 661.9636,184.880604 656.754297,180.885436 C651.639366,176.932141 646.354567,173.795392 640.961914,172.004323 C639.492417,171.132581 627.731041,164.101541 614.319515,156.484264 C607.149983,152.414865 599.530165,148.191292 592.727334,144.637705 C585.935288,141.066988 580.011459,138.190999 576.064038,136.811058 C572.138187,135.4216 566.049882,133.877969 558.737445,132.090706 C547.758005,129.418378 534.055275,126.18646 521.250421,122.351175 C508.448264,118.498759 496.616785,113.999198 489.474216,108.960985 C488.425345,108.195831 487.686552,107.535362 487.252444,106.975772 C486.834513,106.412376 486.691608,105.987925 486.691608,105.662449 C486.691608,105.289389 486.834513,105.003884 487.287496,104.602273 C488.050556,103.937998 489.932592,103.178554 492.604651,102.57709 C496.641052,101.669184 502.389619,101.086753 508.847321,100.747954 C515.305022,100.380604 522.442198,100.279725 529.406808,100.279725 L530.350522,100.279725 C542.853387,100.279725 554.533873,100.668012 560.304011,100.668012 C566.160431,100.668012 574.440849,100.464352 584.196158,100.464352 C603.650152,100.464352 628.909336,101.246636 651.811931,105.885143 L652.119312,105.949857 L652.45905,105.92892 C652.45905,105.92892 653.45669,105.885143 655.193124,105.824235 C656.897203,105.789974 659.34277,105.7481 662.130772,105.7481 C667.674419,105.7481 674.674082,105.92892 680.368723,106.690267 C683.207954,107.076651 685.715538,107.598173 687.473542,108.214865 C688.325581,108.54034 689.018537,108.875333 689.493091,109.219843 C689.951466,109.558642 690.207617,109.886021 690.323559,110.203884 C690.436805,110.508422 690.550051,110.769184 690.719919,111.022332 L691.172902,111.471526 C691.377823,111.64854 691.857769,111.930238 692.620829,111.930238 C693.135827,111.930238 693.621166,111.770355 693.877317,111.610472 C694.354567,111.334484 694.443546,111.113693 694.556791,110.92526 C694.702393,110.668305 694.729356,110.462742 694.767105,110.222917 C694.812942,109.9869 694.812942,109.743269 694.812942,109.440633 C694.812942,107.598173 694.130772,104.280604 691.941355,100.182654 C688.700371,94.0804575 682.010785,86.3299451 669.238288,79.9917313 C656.446916,73.6363873 637.58881,68.7371193 610.099764,68.1775293 L609.886754,68.1775293 L609.676441,68.2003697 C609.676441,68.2003697 607.120324,68.5353624 603.029997,69.0644985 C596.909336,69.8467826 587.383215,71.0097401 578.045838,71.9937811 C568.835187,72.9416581 559.770138,73.7239422 554.55814,73.7239422 L553.989215,73.7239422 C552.756994,73.7239422 551.772835,73.6497108 551.249747,73.5735761 C551.298281,73.5164751 551.362993,73.4479539 551.427705,73.381336 C551.910347,72.8598133 552.821705,72.1365337 553.905629,71.3542496 C555.553084,70.1513214 557.545669,68.7808968 559.190428,67.3533712 C560.819009,65.9049085 562.26424,64.4221852 562.288507,62.6387299 C562.323559,62.033459 562.121335,61.437705 561.698011,60.8724048 C561.042804,60.0235029 559.961577,59.3839714 558.56488,58.8624488 C557.178969,58.3580564 555.407482,57.9583492 553.191102,57.6500037 C552.190765,57.537705 551.147287,57.4748939 550.033704,57.4748939 C543.433097,57.501541 534.764408,59.5438543 525.143916,62.5568851 C496.390293,71.5712335 459.779575,89.4590813 459.720256,89.4781149 L460.798787,90.5725512 L433.768116,111.374455 L433.382541,111.420135 L433.153354,110.344733 C433.112909,110.344733 409.722278,112.828627 377.849006,118.220867 C391.368386,102.702712 406.502865,90.8009553 421.297607,81.6914385 C440.554769,69.8239422 459.267273,62.7205747 473.153354,58.5636201 C480.091001,56.4737225 485.807213,55.145172 489.789687,54.3210139 C489.843613,54.3114971 489.884058,54.3019802 489.937984,54.2943668 C490.504213,54.1858748 491.0273,54.0926098 491.528817,54.0050549 C492.976744,53.715743 494.114594,53.5482467 494.877654,53.4207211 C495.27671,53.3445864 495.567914,53.2950988 495.756657,53.2608382 L495.961577,53.2437079 L495.961577,53.2265776 C495.99663,53.2227709 496.015504,53.2170608 496.015504,53.2170608 L495.282103,50.649418 C495.27671,50.649418 495.252444,50.6532247 495.22548,50.6570315 L495.214695,50.649418 C495.214695,50.6532247 495.074486,50.6703551 494.804853,50.721746 C494.103809,50.8207211 492.626222,51.0529319 490.474553,51.4697694 C481.541625,53.1009553 460.987529,57.315011 437.594203,65.2463433 C406.308729,75.8461969 369.900236,93.0716728 349.696663,119.798759 C348.674756,121.16157 347.685204,122.552932 346.714526,123.972844 C343.549039,124.616182 340.351196,125.278554 337.12639,125.969477 C311.872599,131.36933 285.329963,138.232873 262.548702,146.769477 C239.794405,155.32321 220.704415,165.502419 210.434109,177.687778 L207.907651,180.721746 L212.661274,179.615889 L212.682845,179.600663 C213.335356,179.456007 219.625885,178.110326 229.214021,178.110326 C237.745197,178.110326 248.867543,179.174308 261.0091,183.072405 C264.368723,184.132581 268.184024,184.593195 272.277048,184.593195 C280.554769,184.593195 290.107853,182.769769 300.008763,180.063181 C308.890462,177.613547 318.039097,174.43302 326.643074,171.10403 C325.462083,175.670209 324.423997,180.303005 323.507246,184.956739 C319.948096,203.137705 318.289855,221.706958 317.691271,238.538437 C298.574317,230.007544 278.791372,222.110472 258.76306,215.11179 C219.003033,201.241951 176.816313,191.138876 136.592518,177.950443 C116.372767,171.347661 96.6356589,163.836973 78.430064,154.700809 C63.4681496,147.207251 51.7202562,136.845318 42.4206269,125.80769 C23.8402427,103.753371 15.1742501,76.131702 23.3576003,50.872112 C28.5911695,34.6896816 45.2625548,21.1300915 64.5763397,12.2204283 C73.0185372,8.32042826 83.5449949,4.82013543 93.8988878,4.82013543 C94.7455342,4.82013543 95.586788,4.83726574 96.4334344,4.88675329 C109.604988,5.6538104 118.785979,13.1797255 124.623525,20.8521999 C125.267947,21.7049085 127.562521,22.0836786 129.892147,22.0836786 C133.095383,22.0836786 136.344456,21.3737225 135.454668,20.2088616 C125.893495,7.68089678 109.98517,1.9175 92.6801483,1.9175 C83.6905966,1.9175 74.3181665,3.47445461 65.2612066,6.43038433 C39.1472868,14.989828 18.124031,32.2571779 11.6986855,52.0902672 C9.85979103,57.7432687 8.97000337,63.5256991 8.88372093,69.3252599 L8.88372093,71.2019802 C9.15604988,90.0053477 17.7762049,109.019989 30.4651163,125.101541 C49.8382204,149.595977 81.983822,163.776065 116.690934,176.007105 C156.367374,190.015889 198.546006,200.139901 238.861476,213.210326 C266.05123,222.028627 292.324233,232.795977 317.526795,244.425553 C317.448601,247.752639 317.418942,250.994074 317.418942,254.132727 C317.418942,268.885728 318.138861,281.425113 318.85878,289.931263 C317.464779,289.803737 316.095046,289.674308 314.71183,289.531556 C297.077856,287.723357 280.074823,284.105055 262.721267,281.396563 C247.640715,279.034484 232.371419,277.582214 217.013145,276.737119 C209.385238,276.320282 201.652174,276.086168 193.902932,276.086168 L193.854398,276.086168 C193.199191,276.076651 192.52511,276.076651 191.869902,276.076651 C167.430401,276.076651 142.578362,278.413986 120.46579,285.376504 C94.4192787,293.585728 78.1172902,310.331556 71.9642737,329.787778 C71.1769464,332.290706 70.8560836,334.624235 70.950455,336.839755 C71.0394338,343.924089 75.3832154,349.74649 82.0970677,355.852493 C84.8203573,358.330677 86.4031008,360.766988 86.6727334,363.625846 C86.6916077,364.314865 86.6376812,365.043854 86.5082575,365.791878 C85.826087,369.701395 83.6043141,373.635655 78.1172902,374.937559 C77.4162454,375.105055 76.7044152,375.274455 76.0033704,375.432434 C74.8466464,372.77343 73.7627233,370.299052 72.9942703,368.117793 C72.6841928,367.253664 71.1122346,367.03668 70.0687563,366.931995 C67.3346815,366.661717 64.1476239,366.378115 60.9956185,366.378115 C59.9764071,366.378115 58.9625885,366.406665 57.9676441,366.469477 C55.9130435,366.558935 53.9123694,366.783532 52.0060667,367.236534 C48.2473879,368.117793 47.4951129,372.59261 47.5301651,375.828335 C47.5193798,376.972258 47.6137513,378.021014 47.7404786,378.812815 C47.8537243,379.688364 49.760027,379.895831 50.6632963,379.996709 C53.8584429,380.350736 57.0455005,380.527749 60.2217728,380.527749 C62.3168183,380.527749 64.4091675,380.451614 66.5015167,380.308862 C68.6208291,385.506958 70.4031008,390.758349 70.4678126,396.152493 L70.4678126,396.531263 C70.3734412,399.905933 68.4671385,402.960838 65.4742164,405.402859 C65.4742164,405.349564 65.4823054,405.29056 65.4823054,405.248686 C65.619818,404.112376 66.4287159,401.065084 65.2962588,399.845026 C64.9403438,399.300663 64.2608696,398.821014 63.0151668,398.23097 C60.3404112,396.976651 57.3825413,396.068745 54.3707449,395.26933 C51.1594203,394.410911 47.6380182,394.039755 44.1624537,394.039755 C43.9467476,394.039755 43.7283451,394.039755 43.5153354,394.049272 C43.1998652,394.039755 42.8790024,394.032141 42.5608359,394.032141 C42.0728008,394.032141 41.5928547,394.039755 41.1102123,394.054982 C34.115942,394.317646 25.8921469,396.228627 23.5328615,401.455275 C22.6619481,403.373869 22.5082575,405.014572 22.9234917,406.40974 C24.0451635,412.015157 33.3151331,413.762449 43.3859117,413.762449 C45.5942029,413.762449 47.8402427,413.690121 50.0458375,413.547368 C50.7307044,413.503591 51.404786,413.478847 52.0788675,413.44649 C50.6713852,416.06933 48.5008426,418.467573 45.3731041,420.317646 C37.189754,425.1522 25.0401079,426.054396 15.710819,429.587046 C10.4718571,431.579872 6.0364004,434.465377 2.47724975,437.798173 C2.23458038,438.039901 2.09706775,438.291146 2.05392653,438.551907 L2.05392653,438.846929 C2.03235592,438.917354 2.01348163,438.982068 2,439.050589 L2,439.46362 C2.41793057,441.89422 9.6818335,445.265084 11.4425345,445.872258 C23.586788,449.949272 38.9774183,448.664499 52.0357263,449.749418 C66.5958881,450.969477 75.0434783,455.495684 79.7971014,465.082947 C81.7708123,469.093342 83.1648129,473.387339 83.6420627,477.70037 C80.8297944,477.850736 78.1361645,478.221892 75.6932929,478.802419 C70.5028648,480.022478 64.867543,484.447807 64.8729356,488.197441 C64.5709471,490.215011 65.8463094,492.059374 69.7532861,493.117646 C72.4334344,493.84854 75.4560162,494.293928 78.4435457,494.337705 C78.9989889,494.362449 79.5517358,494.379579 80.1152679,494.379579 C85.4620829,494.379579 90.5473542,492.984411 92.9956185,489.284264 C94.4057971,487.129652 95.0690934,484.716182 95.2281766,482.226578 C95.2281766,482.190414 95.2335693,482.156153 95.2335693,482.123796 C97.8328278,482.812815 100.353893,483.831116 102.535221,485.153957 C97.7141894,486.876504 94.6700371,490.266402 95.0448264,495.850882 L95.0448264,495.860399 C95.0502191,496.045026 95.0556117,496.239169 95.0690934,496.431409 C95.1580721,496.777822 95.4681496,497.038583 95.9184361,497.181336 C100.944388,498.871526 105.722278,499.587193 110.980115,499.587193 L112.33367,499.587193 C113.565891,499.587193 114.814291,499.543415 116.086957,499.459667 C117.367711,499.383532 120.020897,499.284557 120.322885,498.096856 C120.460398,497.58485 120.560162,497.078554 120.62757,496.589389 C121.253118,497.131848 122.059319,497.575333 123.083923,497.893195 C127.341422,499.231263 131.695989,499.788949 136.142231,499.788949 C136.473879,499.788949 136.802831,499.779433 137.139872,499.779433 L137.778901,499.779433 C140.138187,499.779433 142.510954,499.63668 144.875632,499.356885 C145.894843,499.231263 147.763397,498.886753 147.6879,497.997881 C147.795753,497.853225 147.806539,497.693342 147.722952,497.533459 C145.285474,493.260399 138.986855,489.474601 131.547691,486.954542 C133.19245,484.461131 136.428042,482.881336 141.491743,482.746197 C142.478598,482.797588 143.451972,482.888949 144.36333,482.972698 C153.886754,483.907251 165.729019,486.849857 172.661274,491.789096 C184.894506,500.521746 187.628581,514.65996 188.235254,526.527456 C188.264914,527.385875 188.294574,528.234777 188.302663,529.085582 C188.421301,535.142097 187.682508,541.204323 186.347826,547.186607 C184.924166,553.47914 181.284125,559.297734 179.089316,565.436094 C177.859791,568.862156 177.875969,572.252053 178.76306,575.548686 C180.081564,580.95996 183.737782,586.121892 188.170543,590.889828 C161.455342,591.398027 133.011796,595.794806 105.360971,607.428188 L99.9898888,609.712229 L106.250758,609.885436 C106.275025,609.885436 107.245703,609.917793 109.003707,609.976797 C115.205258,610.178554 131.054264,610.816182 147.747219,612.163766 C156.081564,612.852786 164.6424,613.694074 172.299966,614.761863 C179.949444,615.804908 186.717223,617.083971 191.38726,618.555275 C200.020897,621.263766 215.726997,626.665523 234.16178,631.777969 C235.18908,632.98851 236.159757,634.218086 237.087294,635.480018 C251.412875,655.004762 250.053927,678.486607 249.153354,700.392463 C245.607685,705.453518 242.754971,709.758935 239.818672,712.922332 C236.858106,716.118086 233.932592,718.046197 230.211662,718.809447 C228.868891,719.072112 227.898214,719.306226 227.135153,719.566988 C226.860128,719.669769 226.598584,719.778261 226.326255,719.922917 C223.54095,706.747807 218.374789,693.182507 206.206269,683.423942 C197.861139,676.756446 186.954499,674.089828 175.500506,674.089828 C155.456016,674.089828 133.680485,682.262888 120.81092,691.524674 C104.171891,703.500663 96.8270981,719.507983 83.8604651,733.227456 C80.0667341,737.215011 75.1917762,740.604908 69.4539939,742.9175 L78.5918436,742.9175 C80.6922818,741.904908 82.6875632,740.787632 84.545332,739.55425 C97.5982474,730.812083 103.605662,717.001248 112.875632,706.351907 C122.008089,695.856739 133.696663,686.739608 149.480957,681.217939 C157.230199,678.511351 166.478598,676.383386 175.40883,676.383386 C181.292214,676.383386 187.043478,677.310326 192.142231,679.6134 C201.449949,683.795099 206.996293,691.197295 210.922144,698.230238 C218.730704,712.208569 221.181665,727.734337 222.30064,742.9175 L229.569936,742.9175 C229.27334,739.382947 228.909336,735.844586 228.415908,732.302419 C227.992585,729.230384 227.509943,726.051761 226.905966,722.823649 C227.008426,722.85791 227.110886,722.873137 227.218739,722.909301 C228.445568,723.166255 230.063364,723.22526 232.317492,723.24239 C236.286485,723.24239 242.021571,722.924528 248.600607,722.260253 C248.44422,729.139023 248.26087,736.036827 248.153017,742.9175 L259.170206,742.9175 C259.229525,735.583825 259.364341,728.23302 259.520728,720.882214 C259.523424,720.882214 259.528817,720.882214 259.528817,720.882214 C270.071453,719.298613 281.266599,716.866109 290.086282,713.308715 C303.395349,707.952639 318.01483,699.143854 331.954837,691.701687 C335.977755,689.554689 339.933266,687.537119 343.764746,685.73463 L343.287496,741.202566 C339.011122,740.981775 334.721267,740.863766 330.431412,740.856153 L328.428042,740.856153 C316.817661,740.89993 305.174924,741.64034 293.613077,742.9175 L363.733738,742.9175 L362.900573,678.956739 C364.938996,678.570355 366.869565,678.368598 368.662622,678.368598 L369.298955,678.368598 L369.757331,678.159228 L369.781598,678.149711 C370.248062,677.957471 373.278733,676.737412 377.646781,675.911351 C378.860128,698.235948 380.933603,720.585289 382.494776,742.9175 L394.350522,742.9175 C393.034715,723.387046 391.222784,703.896563 389.729019,684.516475 C389.483654,681.463474 389.232895,678.385728 388.984833,675.307983 C391.950792,675.559228 395.048871,676.208276 398.141557,677.426431 C402.412538,679.135655 406.732053,681.945026 410.687563,686.520721 C419.385912,696.619989 424.681496,702.764059 427.784968,706.378554 C427.892821,706.50608 428.000674,706.631702 428.100438,706.747807 L428.59117,733.162742 C425.83822,736.356592 423.209302,739.611351 420.715201,742.9175 L457.902932,742.9175 C457.630603,734.588364 457.347489,726.061277 457.056286,717.389535 C464.646444,710.307105 472.808224,703.536827 481.36906,697.059667 C491.523424,689.394806 503.826761,683.037559 516.219077,676.828774 C517.634648,680.757324 518.885743,684.720135 519.948096,688.705787 C501.56724,703.493049 496.49545,723.689682 497.002359,742.9175 L508.027637,742.9175 C507.846983,733.798466 509.025278,724.715597 512.117964,715.834484 C514.331648,709.505787 517.766768,703.807105 522.210313,698.692756 C524.027637,708.567427 524.637007,718.649564 523.755308,728.946783 C523.348163,733.640487 522.603977,738.29993 521.568588,742.9175 L532.645096,742.9175 C533.809909,737.793635 534.659252,732.603152 535.098753,727.382214 C536.193461,714.538291 534.866869,701.997002 531.714863,689.705055 C546.919447,677.721453 568.330974,669.748247 591.052915,664.574894 C615.700034,658.973283 642.288507,656.451321 668.982137,656.451321 C696.713852,656.451321 724.53185,659.17504 750.395012,663.98485 C773.348837,668.267427 799.433097,675.49832 811.264577,691.077383 C816.991574,698.589974 816.072127,706.093049 811.127064,712.006812 C805.448601,710.819111 799.201213,710.383239 793.099427,710.383239 C786.463768,710.383239 779.987192,710.904762 774.570273,711.54239 C773.580721,711.662302 771.90091,711.938291 771.698686,712.789096 C770.644422,716.959374 770.479946,720.99832 771.501854,725.151468 C771.87125,726.658935 775.314459,726.862595 776.967307,726.963474 C779.048871,727.094806 781.14122,727.170941 783.222784,727.170941 C795.029997,727.170941 806.589147,724.884996 815.411527,719.281482 C816.686889,720.259813 817.824739,721.375187 818.798113,722.6828 C820.725986,725.229506 821.462083,728.179725 821.114257,731.091878 C820.523761,731.040487 819.938659,731.023357 819.369734,730.990999 C818.032356,730.939608 816.638355,730.914865 815.214695,730.914865 C808.756994,730.914865 801.689922,731.497295 795.906303,732.865816 C793.010448,733.564352 792.007415,736.297588 791.27671,738.149564 C790.926188,739.047954 795.283451,741.26728 796.138187,741.771673 C796.844624,742.196124 797.596899,742.57299 798.373441,742.9175 L824.573643,742.9175 C827.205258,741.470941 829.098079,739.487632 830.349174,737.249272 C831.948096,738.762449 832.589821,740.740048 832.579036,742.9175 L843.76879,742.9175 C843.695989,742.336973 843.601618,741.748832 843.434446,741.151175 C842.218402,736.651614 837.510617,734.095392 831.923829,732.656446 C832.530502,728.82116 831.578699,724.818378 829.24368,721.704469 C827.132457,718.910326 824.20155,716.750004 820.725986,715.109301 C828.766431,706.976212 827.024604,696.29261 819.971014,687.982507 C803.013819,668.193195 762.053927,661.578993 732.388945,657.743708 C712.169194,655.128481 691.518032,653.740926 670.883047,653.647661 L667.019211,653.647661 C651.24031,653.708569 635.47489,654.52321 619.922481,656.122039 C588.442872,659.376797 554.048534,666.820867 529.493091,682.002127 C528.41456,678.638876 527.209302,675.307983 525.885406,671.984704 C530.226491,669.797734 534.497472,667.593635 538.63094,665.315304 C557.178969,655.096124 574.893832,644.151761 592.04786,632.769623 C623.988541,611.548979 653.915066,587.886314 672.490057,559.558496 C696.608696,522.829213 704.827098,482.73097 706.617459,442.331995 C707.518032,443.239901 708.343108,444.197295 709.125042,445.190853 C712.277048,449.153664 714.641726,453.558056 717.823391,457.09261 C718.025615,457.292463 718.222447,457.473283 718.508257,457.671234 C718.780586,457.83302 719.17425,458.034777 719.759353,458.101395 L720.374115,458.101395 C720.9727,458.027163 721.479609,457.781629 721.724975,457.570355 C722.237277,457.119257 722.323559,456.788071 722.463768,456.418818 C722.798113,455.290121 722.892484,453.660838 722.892484,451.430092 C722.892484,443.904176 721.665656,429.889682 721.665656,416.767866 C721.665656,408.868891 722.118638,401.285875 723.542299,395.783239 C724.227165,393.03097 725.19245,390.807837 726.30064,389.361277 C726.872262,388.653225 727.46815,388.158349 728.004719,387.851907 C728.552073,387.526431 729.029323,387.406519 729.6333,387.389389 C731.561173,387.349418 733.300303,386.955421 734.723964,386.264499 C736.883721,385.204323 738.250758,383.571234 739.073138,381.688803 C739.895517,379.798759 740.243343,377.61179 740.243343,375.238291 C740.213684,369.520575 738.283114,362.679872 735.859117,356.754689 C734.664644,353.781629 733.32457,351.056007 732.022245,348.800516 C730.74149,346.556446 729.517358,344.805348 728.349848,343.703298 C727.069093,342.538437 725.906977,340.412376 725.025278,337.936094 C723.685204,334.228335 722.892484,329.728774 722.463768,326.196124 C722.237277,324.427895 722.118638,322.882361 722.040445,321.801248 C722.016178,321.616622 722.010785,321.447222 722,321.283532 C722.237277,321.277822 722.493428,321.274015 722.771149,321.274015 C725.054938,321.274015 728.697674,321.576651 732.580384,323.125992 C736.490057,324.67343 740.69363,327.458056 744.109875,332.616182 C748.858106,339.772844 751.872599,344.932873 755.660937,348.604469 C757.532187,350.454542 759.643411,351.914425 762.226491,352.959374 C764.782609,354.02526 767.802494,354.628627 771.358948,354.887485 C772.472531,354.944586 774.006741,355.429945 775.845635,356.311204 C779.067745,357.864352 783.109538,360.570941 787.828109,363.760985 C794.970677,368.54034 803.758005,374.400809 814.6242,379.056446 C825.514661,383.731116 838.510954,387.206665 853.928547,387.206665 C856.492754,387.206665 859.135153,387.10769 861.828783,386.900223 L865.533536,386.626138 L863.009774,384.698027 C863.009774,384.698027 862.295248,384.176504 861.041456,383.194367 C856.694978,379.754982 845.742501,370.92526 835.927873,361.27138 C831.04213,356.429213 826.393664,351.396709 823.047523,346.735362 C819.655544,342.079725 817.611729,337.799052 817.611729,334.687046 C817.611729,333.841951 817.751938,333.101541 818.037749,332.442976 C818.746882,330.81179 819.065049,329.370941 819.065049,328.04239 C819.065049,326.276065 818.431412,324.749564 817.271992,323.546636 C815.530165,321.715597 812.771823,320.695392 809.846309,320.130092 C806.885743,319.570501 803.644759,319.406812 800.511628,319.406812 C795.935962,319.406812 791.557128,319.749418 789.168183,319.749418 L789.046849,319.726578 C788.971352,319.726578 788.539939,319.290706 788.189417,318.403737 C787.598921,316.917207 787.0273,314.412376 785.641389,311.517354 C783.508595,307.141512 779.323896,301.819696 769.905629,297.080311 C761.077856,292.634045 747.736434,288.703591 727.211999,286.274894 C729.15605,285.536387 732.205595,284.803591 736.797438,284.794074 C739.844287,284.794074 743.535558,285.11384 748.03303,285.993195 C757.084597,287.723357 767.940007,293.307837 779.949444,298.505933 C791.950792,303.6869 805.235592,308.527163 819.655544,308.544294 C820.332322,308.544294 821.054938,308.527163 821.761375,308.502419 C822.640377,308.485289 823.522076,308.466255 824.382204,308.466255 C837.216717,308.466255 846.397708,311.715304 852.941692,315.472551 C859.42366,319.227895 863.176946,323.525699 864.738119,325.531848 L865.188406,325.99627 L865.652174,326.276065 C865.878665,326.376944 866.248062,326.494952 866.746882,326.494952 L866.819683,326.494952 C867.426357,326.494952 868.046512,326.209447 868.264914,325.971526 C868.66397,325.61179 868.66397,325.40813 868.712504,325.23302 L868.771823,324.749564 C868.771823,324.005348 868.523761,322.962302 868.059993,321.477676 C866.463768,316.395684 862.009437,306.739901 853.820694,297.504762 C845.599596,288.265816 833.568588,279.413254 816.727334,276.278408 C814.400404,275.749272 764.162454,264.51179 721.188406,264.487046 C721.010448,264.487046 720.832491,264.487046 720.659926,264.492756 C741.106168,246.926578 765.408156,230.924967 791.759353,218.231409 C811.884732,208.541365 835.784968,200.132288 860.628918,200.132288 C862.246714,200.132288 863.877991,200.164645 865.506572,200.24078 C880.430738,200.901248 892.432086,206.103152 903.810583,212.530824 C920.824402,222.142829 936.945736,232.523796 952.258173,243.470062 C977.447253,261.542537 999.775531,283.867134 1036.10853,290.877236 C1043.92248,292.390414 1052.11122,293.260253 1060.23256,293.260253 C1073.93798,293.260253 1087.45467,290.780165 1098.70913,284.7522 C1107.08123,280.269769 1113.6333,273.044586 1114,265.756592 L1114,264.502273 C1113.84631,261.382654 1112.52511,258.268745 1109.65622,255.39466 Z" id="floral-pattern-1" stroke="#FFFFFF" stroke-width="2.263"></path>
    </g>
</svg>