<?xml version="1.0" encoding="UTF-8"?>
<svg width="1116px" height="745px" viewBox="0 0 1116 745" version="1.1" xmlns="http://www.w3.org/2000/svg" xmlns:xlink="http://www.w3.org/1999/xlink">
    <title>floral-pattern-1</title>
    <g id="Page-1" stroke="none" stroke-width="1" fill="none" fill-rule="evenodd">
        <g id="floral-pattern-1" transform="translate(2.000000, 1.917500)" stroke="#9BE5F0" stroke-width="2.263">
            <path d="M38.0020222,730.343045 C38.2608696,729.64451 35.9285474,729.122987 33.8011459,729.122987 C32.2534547,729.122987 30.8109201,729.400878 30.5439838,730.072767 C29.9400067,731.639239 29.6218402,733.101025 29.5760027,734.456223 L29.5760027,735.078624 C29.6541962,737.391215 30.5574655,739.374524 32.1725649,741 L39.6764408,741 C36.9019211,738.426647 36.3437816,734.589458 38.0020222,730.343045 Z M577.84968,453.67716 C580.43276,451.179941 583.328615,448.874963 586.618133,447.000146 C587.45669,448.243045 587.545669,449.881845 587.564543,451.145681 C587.602292,453.391654 585.979103,455.098975 583.269296,455.098975 C582.816313,455.098975 582.349848,455.057101 581.856421,454.956223 C580.438153,454.695461 579.084597,454.24817 577.84968,453.67716 Z M677.478935,520.093265 C671.253118,536.199561 663.007752,552.056515 651.551062,566.674378 C640.390967,580.898243 626.051904,593.74407 610.669363,605.769546 C583.630603,626.934993 552.949107,645.799268 520.992248,663.239824 C520.210313,661.481113 519.387934,659.730015 518.541287,657.977013 C525.354904,651.855783 531.553758,648.365007 536.63094,646.387408 C542.268959,644.202343 546.494102,643.840703 548.721267,643.840703 C549.311763,643.840703 549.767442,643.882577 550.053252,643.901611 L550.36333,643.922548 L550.422649,643.939678 L551.73576,641.486237 C551.590158,641.469107 532.764408,634.141142 513.644759,634.125915 C510.913381,634.125915 508.152342,634.278184 505.45332,634.632211 C503.940681,632.224451 502.384901,629.828111 500.796764,627.446999 C505.553084,624.224597 510.845972,620.707174 516.119987,617.715081 C519.781598,615.64612 523.427031,613.847438 526.816313,612.577892 C530.148972,611.331186 533.268622,610.60981 535.81665,610.60981 L540.068756,610.60981 L537.302326,608.403807 C537.113583,608.261054 530.566903,603.140996 517.624537,603.120059 C514.043815,603.120059 509.99663,603.525476 505.512639,604.532357 C500.103809,605.710542 495.325918,608.200146 490.860802,611.211274 C490.534547,611.439678 490.202899,611.656662 489.879339,611.894583 C483.027974,602.549048 475.804516,593.346266 468.537917,584.27101 C469.842939,580.972474 471.010448,577.651098 472.005393,574.464861 C474.335019,567.043631 475.672396,560.393265 475.693967,556.439971 C475.693967,555.798536 475.648129,555.237042 475.58881,554.706003 L475.386586,553.487848 L473.625885,553.544949 C473.42366,553.544949 466.566903,553.80571 457.237614,557.540117 C454.913381,558.474671 452.435457,559.626208 449.873947,561.049927 C449.803842,560.964275 449.731041,560.863397 449.658241,560.781552 C449.097405,545.773499 448.544658,531.111859 447.994607,517.01552 C460.427368,507.418741 475.181665,499.653001 492.651163,495.037335 C496.6606,493.99429 501.128413,493.699268 504.399056,491.660761 C508.241321,489.289165 512.372093,487.123133 516.6242,485.136018 C518.670711,484.193851 521.609707,482.747291 524.613414,481.854612 C524.022919,482.947145 523.491743,484.041581 523.006404,485.101757 C520.52848,490.476867 517.141894,500.033675 525.988541,503.617716 C528.806202,504.742606 531.529491,505.254612 534.064038,505.254612 C542.819009,505.254612 549.298281,499.207613 549.745871,492.385944 C550.190765,484.959004 545.186384,480.293851 537.553084,478.59224 C539.521402,475.6306 541.891473,472.786969 544.614762,470.131772 C546.680148,468.127526 551.91911,463.881113 555.017189,463.881113 C555.292214,463.881113 555.556454,463.921083 555.796427,463.989605 C556.362656,464.164714 556.923492,464.370278 557.470846,464.619619 C554.213684,469.044949 551.609033,473.915666 551.878665,478.504685 C552.167172,483.303075 558.196158,484.959004 564.244018,484.959004 C567.458038,484.959004 570.666667,484.498389 573.039434,483.765593 C585.353556,480.040703 576.177958,468.346413 569.248399,463.865886 C569.512639,463.51757 569.749916,463.197804 569.962926,462.914202 C571.257162,461.147877 572.670037,459.337775 574.212336,457.556223 C575.320526,457.815081 576.428716,458.024451 577.531513,458.193851 C579.116953,458.420351 580.831817,458.559297 582.570947,458.559297 C589.643411,458.559297 597.193124,456.48653 598.603303,451.282723 C600.199528,445.441288 594.731378,442.845095 588.292551,442.845095 C586.66397,442.845095 584.984159,443.012592 583.334007,443.339971 C579.084597,444.146999 575.344793,446.282577 572.103809,448.85593 C572.049882,448.772182 572.001348,448.696047 571.958207,448.614202 C569.536906,444.358272 572.753623,440.220351 575.290866,436.466911 C581.201213,427.753294 585.865858,415.278624 598.436131,410.055783 C600.798113,409.081259 603.58881,408.744363 606.543984,408.744363 C612.378834,408.744363 618.866195,410.040556 623.981126,410.190922 C625.092012,410.215666 626.208291,410.232796 627.327267,410.232796 C634.6424,410.232796 641.992585,409.568521 649.156724,408.559736 C655.967644,407.583309 666.175935,405.748463 673.135153,402.162518 C673.509943,408.139092 675.648129,414.766618 678.991574,420.520498 C680.838557,423.699122 683.054938,426.584627 685.619144,428.956223 C688.113246,431.272621 690.909336,433.0694 694.064038,434.072474 C692.928884,463.091215 688.328952,492.014788 677.478935,520.093265 Z M505.822717,671.369107 C496.493428,676.289312 486.622177,680.825037 477.802494,686.19063 C472.536569,689.36164 468.074149,693.09795 463.350185,696.647731 C460.403101,698.859444 457.582744,701.189165 454.824402,703.518887 C454.770475,703.558858 454.716549,703.610249 454.662622,703.652123 C454.366026,694.871889 454.064038,685.964129 453.751264,676.991654 L455.056286,675.156808 L455.307044,673.828258 L454.824402,676.435871 C454.913381,676.451098 457.814628,676.696633 462.41456,676.696633 C468.783283,676.696633 478.401079,676.232211 488.390967,673.919619 C495.902932,672.176135 503.649478,669.378184 510.239299,664.952855 C510.719245,666.060615 511.196495,667.174085 511.649478,668.274231 C509.713515,669.31918 507.766768,670.345095 505.822717,671.369107 Z M485.824065,636.775403 C487.754634,635.975988 490.081564,634.58653 492.823728,632.797365 C493.638018,634.076428 494.438827,635.353587 495.228851,636.630747 C487.967644,638.229575 482.313448,639.639971 477.457364,641.233089 C480.733401,639.263104 483.839569,637.574817 485.824065,636.775403 Z M451.467476,610.960029 C452.268284,610.059736 453.136502,609.184187 454.055949,608.335286 C457.154028,605.466911 460.004044,601.483163 462.592518,596.896047 C463.218065,595.77877 463.83822,594.617716 464.434109,593.437628 C470.665319,601.387994 476.767105,609.422108 482.529154,617.547584 C478.99427,620.454026 475.594203,623.444217 472.231884,626.070864 C469.271318,628.381552 466.337715,630.389605 463.439164,631.857101 C460.537917,633.301757 457.720256,634.167789 454.937647,634.302928 C454.538591,634.325769 454.198854,634.342899 453.821368,634.342899 C453.282103,634.333382 452.767105,634.321962 452.287159,634.278184 C452.012133,626.495315 451.745197,618.718155 451.467476,610.960029 Z M535.886754,500.260176 C535.449949,500.814056 535.034715,501.051977 534.641052,501.051977 C532.769801,501.051977 531.510617,495.615959 531.53758,494.070425 C531.607685,490.343631 533.09336,486.633968 534.926862,483.118448 C540.109201,487.391508 539.178969,496.080381 535.886754,500.260176 Z M565.292888,481.753734 C565.17425,481.797511 565.079879,481.803221 565.028648,481.803221 C564.985507,481.803221 564.985507,481.797511 565.04213,481.789898 C565.079879,481.770864 565.168857,481.753734 565.292888,481.753734 Z M564.416582,480.444217 C561.582744,478.036457 562.672059,474.14978 564.713178,470.481991 C566.233906,472.451977 567.312437,474.526647 567.773509,476.304392 C568.194135,477.929868 567.687226,479.492533 566.527806,480.895315 C566.293225,481.177013 566.06943,481.36735 565.848332,481.494876 C565.287496,481.199854 564.82912,480.800146 564.416582,480.444217 Z M445.977755,467.06735 C444.920795,442.287408 443.925851,420.988726 443.03876,404.998536 C442.16515,388.966471 441.394001,378.339971 440.738793,374.683602 C440.369397,372.664129 440.196832,368.667057 440.196832,363.133968 C440.196832,336.427818 444.289855,273.776574 449.183687,208.298829 C449.37243,209.494143 449.472194,210.59429 449.472194,211.570717 C449.445231,216.192094 451.329963,219.70571 454.109875,222.555051 C458.321537,226.812884 464.291203,229.624158 469.271318,233.461347 C474.248736,237.292826 478.401079,242.020791 479.315133,250.304246 C480.593192,261.87101 485.001685,273.957394 495.474216,285.581259 C503.886754,294.966764 516.214358,304.011567 533.837546,312.270278 C525.853724,317.780527 519.530839,324.042606 517.166161,331.125037 C517.004382,331.423865 516.163128,332.918009 515.297607,334.838507 C514.353893,336.989312 513.358948,339.615959 513.358948,341.909517 C513.358948,342.731772 513.472194,343.493119 513.841591,344.235432 C514.219077,344.958712 514.895854,345.685798 515.974385,346.110249 C516.457027,346.304392 516.885743,346.325329 517.233569,346.325329 C517.797101,346.325329 518.220425,346.243485 518.6788,346.142606 C520.415234,345.718155 522.720593,344.758858 525.877991,343.350366 C534.398382,339.541728 548.421975,332.425037 563.551062,325.140849 C567.099427,326.962372 569.828109,328.614495 571.871925,330.101025 C576.364004,333.35388 577.590832,335.742606 577.561173,337.328111 C577.561173,338.165593 577.248399,338.860322 576.768453,339.459883 C575.673745,340.432504 574.59791,341.087262 573.799798,341.486969 C573.379171,341.711567 573.009774,341.844802 572.77789,341.945681 L572.527132,342.027526 L572.497472,342.048463 L573.918436,344.473353 C573.926525,344.473353 573.931918,344.473353 573.945399,344.463836 C573.991237,344.456223 574.177283,344.406735 574.468487,344.294436 C575.131783,344.062225 576.320863,343.603514 577.561173,342.845974 C578.388945,342.349195 579.257162,341.681113 579.944725,340.860761 C579.990563,340.815081 580.039097,340.771303 580.084934,340.723719 C583.026626,337.967643 585.830806,333.391947 585.830806,326.204832 C585.830806,323.15183 585.334681,319.61918 584.137513,315.54978 C591.449949,312.285505 598.543984,309.318155 604.918099,307.015081 C609.162117,305.446706 613.112235,304.196193 616.523087,303.333968 C619.408156,302.606881 621.940007,302.1653 623.94877,302.056808 C622.988878,302.519327 621.983148,303.115081 620.96124,303.897365 C617.097405,306.849488 613.112235,312.230307 610.585777,322.251537 L610.548028,322.346706 L610.548028,322.449488 C610.548028,322.449488 610.496798,323.357394 610.380856,324.821083 C610.192113,327.02899 609.814628,330.498829 609.100101,333.955344 C608.420627,337.408053 607.344793,340.887408 605.975059,342.971596 C605.694641,343.40937 604.980115,344.13265 603.987867,345.021523 C600.428716,348.165886 593.377823,353.339239 587.262555,360.86325 C581.109538,368.389165 575.908325,378.339971 575.908325,391.138214 C575.908325,397.862811 577.356252,405.377306 580.831817,413.715959 L580.920795,413.94246 C580.713178,414.11757 580.500169,414.294583 580.289855,414.481113 C575.344793,418.754173 572.241321,424.117862 569.054264,429.098975 C565.842939,434.120059 561.086619,439.295315 560.037749,444.836018 C559.28817,448.933968 562.006067,452.188726 566.104483,454.501318 C564.931581,455.74612 563.863836,456.966179 562.882373,458.068228 C562.124705,458.926647 561.323896,459.825037 560.539265,460.757687 C559.293563,460.592094 558.020897,460.512152 556.750927,460.512152 C551.428379,460.512152 546.008763,461.911127 541.664981,464.11713 C535.118301,467.430893 530.32693,472.6347 526.854061,478.036457 C526.605999,478.063104 526.355241,478.087848 526.101786,478.112592 C515.100775,479.273646 504.827772,484.671596 496.434109,489.536603 C492.850691,491.601757 491.518706,491.443777 486.705763,492.646706 C479.741153,494.397804 473.116279,496.718009 466.801483,499.418887 C459.915066,502.34817 453.584092,505.804685 447.708797,509.620937 C447.115605,494.624305 446.535895,480.341435 445.977755,467.06735 Z M586.461746,286.818448 C586.361982,286.867936 586.254129,286.919327 586.146276,286.970717 C582.970003,288.497218 578.329626,290.389165 572.931581,292.627526 C570.631614,289.060615 567.975733,285.25388 564.899225,281.186384 C563.227503,278.967057 561.671722,276.89429 560.245366,274.958565 C564.899225,276.106296 570.262218,278.19429 575.908325,281.873499 C580.365352,284.749488 583.711493,286.230307 586.461746,286.818448 Z M641.927873,347.389312 C641.701382,346.928697 641.617796,346.485212 641.582744,346.020791 C641.582744,344.85593 642.294574,343.5959 643.572632,342.324451 C645.484328,340.40205 648.60937,338.590044 651.629255,337.290044 C653.109538,336.642899 654.587125,336.125183 655.846309,335.780673 C656.692956,335.533236 657.442535,335.386676 657.954837,335.318155 C657.965622,335.380966 657.979103,335.449488 658.00337,335.519912 C658.054601,335.807321 658.086957,336.231772 658.086957,336.70571 C658.108527,339.477013 657.062353,344.597072 657.062353,350.318594 C657.062353,355.219766 657.828109,360.619619 660.812942,365.560761 C664.342433,371.381259 667.723627,375.574378 670.174587,379.325915 C672.593192,383.12694 674.103134,386.440703 674.103134,390.7347 C674.103134,391.692094 674.024941,392.693265 673.868554,393.747731 C671.695315,393.913324 669.721604,394.444363 669.406134,395.279941 C667.437816,400.291508 659.564543,402.651684 653.220088,404.233382 C645.629929,406.151977 637.460061,406.985652 629.317155,406.985652 C625.450624,406.985652 621.57061,406.791508 617.779575,406.446999 C614.236603,406.117716 610.798787,405.908346 607.485002,405.908346 C600.115942,405.908346 593.356252,406.926647 587.367711,409.812152 C590.107179,406.277599 594.386249,400.908199 599.296259,395.554026 C602.564206,391.979502 606.088305,388.403075 609.588136,385.374817 C613.063701,382.359883 616.523087,379.914056 619.516009,378.574085 C626.343108,375.515373 632.056623,370.642753 636.155039,365.539824 C640.226491,360.436896 642.666667,355.118887 642.696326,350.904832 C642.696326,349.639092 642.469835,348.457101 641.927873,347.389312 Z M458.887765,126.237042 C459.262555,125.095022 459.769464,124.130015 460.311426,123.587555 C460.591844,123.328697 460.861476,123.142167 461.050219,123.067936 L461.675767,122.94041 C461.96697,122.94041 462.360634,122.982284 462.924166,123.184041 C465.065049,123.928258 468.103809,125.71552 471.547017,128.325037 C481.960229,136.13836 496.409842,151.254905 509.379171,168.286237 L509.554432,168.478477 L509.778227,168.64407 C509.832154,168.684041 516.14695,172.675403 525.899562,176.916105 C535.689922,181.130161 548.974722,185.629722 563.108864,186.537628 C570.647792,187.034407 574.773172,188.960615 577.26997,191.393119 C579.777553,193.848463 580.575666,196.952855 580.575666,199.870717 C580.575666,201.973939 580.152342,203.940117 579.747893,205.367643 C579.521402,206.073792 579.32457,206.654319 579.157398,207.05593 L578.979441,207.499414 L578.925514,207.64407 L578.413212,208.685212 L579.80182,209.202928 C579.80182,209.223865 594.74486,214.926354 611.580721,220.651684 C619.998652,223.523865 628.904617,226.371303 636.659252,228.535432 C640.560836,229.624158 644.152342,230.530161 647.301651,231.167789 C650.45905,231.811127 653.109538,232.197511 655.298955,232.197511 C659.623862,232.197511 664.280418,232.050952 668.923492,232.050952 C674.672059,232.050952 680.355915,232.279356 685.133805,233.238653 C687.617122,233.743045 689.825413,234.420644 691.69936,235.349488 C690.192113,245.258419 689.256488,255.18448 688.719919,265.133382 C681.989889,266.498097 675.971689,268.473792 671.029323,271.245095 C664.253455,269.305564 625.954837,258.71713 591.150657,258.696193 C581.57061,258.696193 572.241321,259.503221 563.880013,261.551245 C560.110549,262.485798 556.529828,263.669693 553.229525,265.150512 C551.698011,262.914056 550.417256,260.980234 549.368386,259.301464 C547.836872,256.891801 546.806876,255.007467 546.157061,253.602782 C545.501854,252.173353 545.275362,251.204539 545.275362,250.734407 L545.286148,250.625915 C545.542299,250.650659 545.908999,250.70776 546.329626,250.810542 C547.205932,250.991362 548.346478,251.332064 549.511291,251.649927 C550.70846,251.927818 551.935288,252.232357 553.299629,252.232357 C553.836198,252.232357 554.405123,252.192387 554.974048,252.038214 C555.855747,251.794583 556.653859,251.269253 557.077182,250.631625 C557.511291,249.98448 557.67307,249.284041 557.67307,248.438946 C557.67307,246.910542 557.101449,245.526794 556.084934,244.38287 C554.29727,242.37672 551.358274,241.107174 548.033704,240.008931 C543.02393,238.360615 536.941018,237.073939 531.365015,234.945974 C525.764746,232.814202 520.781935,229.922987 517.716212,225.088433 C512.846646,217.356955 509.12302,206.431625 506.019548,196.800586 C504.458375,191.954612 503.067071,187.464568 501.729693,183.804392 C501.044826,181.980966 500.419279,180.351684 499.739805,179.006003 C499.079205,177.639385 498.461746,176.558272 497.660937,175.713177 C496.342433,174.325622 493.252444,171.373499 489.272666,167.660029 C478.314796,157.410395 460.812942,141.517277 458.130098,139.08287 C458.103134,138.825915 458.065386,138.441435 458.035726,137.961786 C457.976407,137.021523 457.892821,135.691069 457.892821,134.227379 C457.892821,131.642606 458.119312,128.549634 458.887765,126.237042 Z M813.708123,738.316252 C812.262892,739.444949 810.61274,740.369985 808.771149,740.369985 C808.215706,740.369985 807.65487,740.284334 807.077856,740.099707 C803.80182,739.056662 799.797776,737.073353 801.784968,734.136457 C802.914729,732.503367 808.358611,732.156955 812.953151,732.156955 C815.096731,732.156955 817.065049,732.236896 818.308055,732.286384 C817.415571,734.524744 815.865184,736.616545 813.708123,738.316252 Z M780.314122,721.973939 C779.755982,718.726794 779.93394,715.53675 780.643074,712.283895 C784.043141,711.941288 787.564543,711.710981 791.07516,711.710981 C796.157735,711.710981 801.180991,712.200146 805.594877,713.521083 C799.52275,718.407028 790.384901,721.650366 780.314122,721.973939 Z M422.479272,237.070132 C419.726323,233.725915 415.770812,231.101171 411.160094,229.108346 C411.844961,226.744363 412.238625,224.372767 412.238625,222.077306 C412.268284,217.138067 410.361982,212.394876 405.38726,208.886969 C404.308729,208.100878 403.418942,206.951245 402.85541,205.432357 C402.283788,203.909663 402.000469,202.03104 402.000469,199.908785 C401.973711,190.656515 407.263903,176.916105 412.586451,165.612006 C415.228851,159.951391 417.903606,154.89224 419.893495,151.235871 C420.502865,150.114788 421.052915,149.11552 421.527469,148.287555 C422.54668,150.025329 423.964948,152.459736 425.617796,155.383309 C424.350522,182.72899 423.307044,210.847438 422.479272,237.070132 Z M423.360971,355.547145 C423.360971,355.545242 423.360971,355.541435 423.360971,355.541435 L423.803168,379.560029 L423.360971,355.547145 Z M417.701382,623.661201 C416.18335,621.0041 414.538591,618.24612 412.780586,615.451977 C408.175261,608.101171 402.801483,600.573353 397.052915,594.423572 C396.575666,593.91918 396.101112,593.424305 395.621166,592.942753 C396.812942,589.480527 398.182676,586.056369 399.644085,582.649341 C405.279407,569.323865 412.907314,555.185652 423.080553,542.090483 L423.884058,585.550073 C418.483316,594.351245 416.652511,603.628258 416.652511,612.157247 C416.6606,616.201903 417.065049,620.071449 417.701382,623.661201 Z M385.434446,641.314934 C385.450624,639.308785 385.493765,637.315959 385.58544,635.313616 C391.7061,640.837189 397.087968,645.926794 401.102797,649.83631 C396.853387,647.483748 391.503876,644.539239 385.434446,641.314934 Z M378.583081,581.716691 C370.181328,579.520205 364.246714,576.794583 359.541625,573.890044 L358.684193,508.307613 L358.684193,508.231479 L338.038423,292.269693 C338.666667,292.262079 339.297607,292.250659 339.923155,292.235432 C344.593192,292.168814 349.247051,291.92899 353.838895,291.491215 C355.025278,295.151391 356.262892,298.017862 357.624537,299.94407 C358.058645,300.566471 358.565554,301.067057 359.220762,301.487701 C359.875969,301.887408 360.784631,302.15388 361.698686,302.15388 C362.777216,302.15388 363.688574,301.828404 364.457027,301.4306 C365.904954,300.640703 367.096731,299.483455 368.377486,297.972182 C370.502191,295.440703 372.734749,291.913763 375.007752,287.905271 C379.478261,286.759444 383.830131,285.371889 388.01483,283.702635 C396.141557,290.191215 403.378497,297.220351 409.313111,304.877599 C414.295922,311.320498 417.914392,318.159297 420.16852,325.236018 C419.780249,344.056515 419.607685,355.535725 419.607685,355.535725 L419.607685,355.564275 L419.726323,361.708346 C417.178295,369.826208 413.425008,377.793704 409.623188,385.574671 C402.200202,400.765447 394.122009,415.743045 390.827098,431.704685 C387.467476,447.763397 388.408493,464.216105 392.10246,480.189165 C396.586451,499.618741 406.476576,517.451391 418.553421,534.693997 C409.407482,545.008346 402.086957,556.177306 395.974385,567.458565 C392.733401,573.490337 389.78362,579.61918 387.292214,585.833675 C384.49882,583.943631 381.608359,582.521816 378.583081,581.716691 Z M374.721941,635.680966 C372.880351,634.731186 370.998315,633.769985 369.086619,632.797365 C366.20155,631.333675 363.254466,629.852855 360.256151,628.372035 L360.064712,613.94451 C365.214695,617.857833 370.361982,622.052855 375.282777,626.261201 C374.991574,629.390337 374.816313,632.5347 374.721941,635.680966 Z M360.57971,652.43631 L360.458375,643.846413 C363.116953,645.245388 365.354904,646.836603 367.298955,648.456369 C370.200202,650.930747 372.362656,653.506003 373.983148,655.609224 C374.228514,655.919473 374.46579,656.229722 374.697674,656.524744 C371.270644,655.388433 366.422649,653.860029 360.57971,652.43631 Z M342.322885,619.869693 C339.036063,618.381259 335.762723,616.932796 332.54331,615.569985 C320.450286,610.432796 309.125716,606.332943 300.111898,604.507613 C279.695315,600.386823 241.992585,590.043924 198.503539,589.006589 C197.101449,587.567643 195.75059,586.105857 194.475228,584.592679 C190.357937,579.720059 187.437816,574.548609 187.319178,568.937482 C187.327267,568.492094 187.351534,568.054319 187.391978,567.599414 C187.815302,562.865739 190.775868,558.23104 192.760364,553.754319 C194.140883,550.6347 195.173576,547.448463 195.917762,544.189898 C200.706437,526.410542 198.538591,504.590337 183.811257,490.434993 C174.886417,481.846999 155.267947,477.539678 139.842265,477.539678 L138.596562,477.539678 C136.881699,477.539678 135.212673,477.591069 133.635322,477.709078 C127.822042,478.104978 122.45905,479.492533 119.377149,482.534114 C117.131109,482.176281 114.87698,481.94978 112.706437,481.871742 C112.347826,481.846999 111.989215,481.837482 111.638692,481.829868 C106.817661,478.776867 100.084934,476.822108 93.1391978,476.034114 C92.6700371,471.949488 91.2032356,467.817277 89.7903606,464.360761 C86.6680148,456.724451 81.6905966,450.641288 70.9646107,447.445534 C57.6231884,443.515081 42.4914055,444.375403 28.4435457,443.273353 C22.5035389,442.808931 16.380182,441.866764 12.7401416,438.267496 C12.3950118,437.922987 12.1793057,437.56325 12.0957196,437.199707 C12.2278396,433.910688 21.1472868,430.444656 24.4583755,429.173206 C32.5716212,426.104978 41.8955174,425.060029 49.9197843,421.822401 C56.4988204,419.174817 60.0984159,414.943631 61.9400067,410.190922 C63.7384564,409.86164 65.2510954,409.50571 66.3538928,409.157394 C75.7478935,406.203367 79.1803168,401.009078 79.6090327,395.00776 C80.1213347,389.396633 77.9696663,383.033675 75.5645433,377.18653 C76.4570273,377.045681 77.3683856,376.895315 78.2770475,376.733529 C80.7226154,376.324305 89.4290529,375.357394 90.6801483,373.650073 C90.9821368,373.237042 91.2760364,372.820205 91.561847,372.412884 C92.7859791,371.122401 93.7485676,369.274231 94.4280418,367.589751 C94.9322548,366.531479 95.363667,365.452269 95.6818335,364.336896 C97.256488,358.931332 92.8641726,354.53265 88.3505224,350.137775 C85.6164476,347.438799 82.801483,344.69795 81.2349174,341.445095 C80.5338726,339.962372 80.0754971,338.433968 79.8301314,336.882723 C78.3201887,325.182723 88.5284799,311.883895 97.0299966,302.795315 C105.466801,293.775256 118.924166,287.85388 132.950455,284.018594 C150.028986,279.370571 168.612066,277.495754 187.289518,277.26735 C188.009437,277.26735 188.737445,277.263543 189.460061,277.263543 C204.079542,277.263543 218.69363,278.238067 232.647118,279.621816 C261.238962,282.45593 288.590495,289.14246 317.166161,291.466471 C317.333333,293.227086 317.497809,294.73265 317.640715,295.969839 C318.883721,306.425037 325.09336,382.39224 331.006404,455.72328 C333.958881,492.361201 336.835861,528.369107 338.968655,555.193265 C339.071116,556.506589 339.176272,557.800878 339.278733,559.068521 C333.810583,556.059297 322.556117,550.965886 308.16852,546.55388 C293.745871,542.157101 276.187395,538.489312 258.19481,538.462665 C256.709134,538.462665 255.239636,538.496925 253.767442,538.548316 C253.449275,538.445534 253.09336,538.371303 252.643074,538.371303 L252.486687,538.371303 C252.087631,538.378917 251.637344,538.489312 251.329963,538.668228 C250.763734,538.986091 250.620829,539.328697 250.537243,539.515227 C250.477924,539.734114 250.477924,539.85022 250.477924,539.935871 L250.477924,541.340556 L252.475902,541.239678 L252.648466,541.239678 C252.802157,541.340556 252.980115,541.456662 253.182339,541.624158 C255.088642,543.122108 259.122346,547.10205 266.893158,556.396193 C275.001011,566.069107 282.504887,574.504832 291.580721,581.11713 C300.6242,587.746559 311.25851,592.516398 325.314459,594.766179 C328.364004,595.255344 332.082238,596.576281 336.150994,598.538653 C338.189417,599.518887 340.303337,600.674231 342.479272,601.945681 L342.322885,619.869693 Z M342.066734,649.154905 C337.979103,648.709517 333.70273,648.450659 329.323896,648.441142 C314.537243,648.441142 298.491405,651.537921 284.616111,661.007174 C272.897877,669.024158 264.585103,676.888873 258.273003,684.098829 C258.29727,680.882138 258.29727,677.654026 258.200202,674.441142 C257.979103,665.938799 257.105494,657.459297 254.487361,649.124451 C252.80755,643.732211 250.178632,638.585505 246.813616,633.690044 C265.766094,638.313324 286.295922,641.992533 304.722615,641.992533 C311.379845,641.992533 317.778227,641.510981 323.702056,640.408931 C329.21065,639.384919 334.101786,638.945242 338.486013,638.945242 C339.755982,638.945242 340.972026,638.987116 342.155713,639.05754 L342.066734,649.154905 Z M133.168857,494.397804 C130.655881,493.832504 129.065049,492.545827 128.307381,490.931772 C128.296596,490.777599 128.283114,490.63675 128.275025,490.48448 C130.208291,491.637921 131.893495,492.951245 133.168857,494.397804 Z M116.993596,486.616837 C116.972026,486.683455 116.963937,486.74246 116.945062,486.803367 C116.750927,486.506442 116.535221,486.203807 116.316818,485.918302 C116.589147,485.977306 116.85878,486.043924 117.136502,486.101025 C117.090664,486.279941 117.036737,486.449341 116.993596,486.616837 Z M104.347826,491.601757 C104.57971,490.25798 105.073138,489.074085 105.841591,488.105271 C107.014493,489.883016 107.623862,491.872035 107.437816,494.051391 C105.650152,493.569839 104.649815,492.715227 104.347826,491.601757 Z M81.7876643,479.757101 C81.776879,480.139678 81.7391304,480.516545 81.7121672,480.897218 C81.5396023,483.110835 80.9302326,485.358712 79.4122009,487.288726 C78.603303,488.316545 77.9346141,488.828551 77.2254803,489.00366 C76.0930233,488.801903 74.5183687,488.476428 74.2703067,487.684627 C74.3188406,483.152709 77.4654533,480.619327 81.7876643,479.671449 C81.7876643,479.7 81.7876643,479.728551 81.7876643,479.757101 Z M47.9973037,409.222108 C47.5065723,409.248755 47.0212336,409.254466 46.5251095,409.254466 C43.0225817,409.254466 39.495787,408.649195 36.3006404,407.330161 C33.3643411,406.117716 32.0889788,403.860322 32.2103134,401.625769 C33.0434783,398.719327 36.5163465,395.932796 40.776542,395.361786 C44.0121335,395.489312 47.2612066,396.760761 49.9764071,397.81142 C51.53758,398.426208 52.2386249,399.471157 52.4893832,400.689312 C52.7212673,402.27672 52.2143579,404.09634 51.9716886,405.740849 C51.8153017,406.774378 51.569936,407.792679 51.2436805,408.793851 C50.173239,408.997511 49.0947085,409.140264 47.9973037,409.222108 Z M352.827772,288.164129 C348.074149,288.719912 343.23694,289.001611 338.391641,289.064422 L337.725649,289.064422 L334.120661,251.332064 C334.530502,251.531918 334.945736,251.735578 335.352882,251.927818 C339.494439,253.949195 343.60364,256.016252 347.661611,258.144217 C348.252107,264.621376 349.133805,270.938653 350.206943,276.665886 C350.986181,280.872328 351.873273,284.753294 352.827772,288.164129 Z M382.910684,279.777892 C381.433097,280.472621 379.928547,281.129283 378.391641,281.74978 C379.065723,280.497365 379.731716,279.224012 380.400404,277.948755 C381.244355,278.554026 382.085608,279.165007 382.910684,279.777892 Z M414.228514,251.667057 C413.513987,253.644656 412.430064,255.591801 411.106168,257.472328 C406.058645,264.596633 398.665319,271.022401 389.837546,276.157687 C387.788338,274.722548 385.695989,273.310249 383.568588,271.930307 C384.450286,270.240117 385.337378,268.574671 386.208291,266.975842 C387.98517,263.722987 389.683856,260.706149 391.280081,258.237482 C392.868217,255.763104 394.375463,253.815959 395.575329,252.778624 C399.183013,249.580966 403.311089,244.763543 406.584429,239.302782 C407.28817,238.120791 407.94877,236.902635 408.55814,235.669253 C413.586788,240.075549 415.789687,245.787555 414.228514,251.667057 Z M422.743512,523.850512 C413.713515,509.462958 406.565554,494.555783 402.85541,478.474231 C399.12639,462.425037 399.072464,446.021816 402.402427,429.965007 C405.476239,415.179649 413.193124,401.068082 420.192787,387.023133 L422.743512,523.850512 Z M420.618807,304.877599 C414.04786,295.882284 405.403438,287.749195 395.569936,280.310835 C405.031345,275.521962 415.889451,267.866618 421.80519,259.371889 C421.325244,276.016837 420.931581,291.462665 420.618807,304.877599 Z M348.257499,159.235725 C357.020559,155.272914 363.367711,152.115227 365.309066,151.193997 C367.072464,150.369839 370.801483,148.830015 375.325918,147.038946 C382.123357,144.330454 390.792046,140.997657 397.73239,138.346266 C399.892147,137.522108 401.882036,136.760761 403.604988,136.1041 L350.263566,195.051391 L352.765757,196.471303 L352.84395,196.598829 C353.019211,196.874817 353.305022,197.700878 353.275362,199.147438 C353.305022,201.833089 352.474553,206.654319 350.002022,214.804539 C347.788338,222.161054 346.874284,231.529429 346.874284,241.413616 C346.874284,244.74451 346.976744,248.132504 347.173576,251.514788 C342.662622,249.257394 338.111223,247.028551 333.500506,244.833968 L331.327267,222.126794 C334.096394,197.927379 340.106505,177.131186 348.257499,159.235725 Z M61.1688574,375.323133 C60.7698011,375.330747 60.3653522,375.33836 59.9609033,375.33836 C58.9066397,375.33836 57.8442872,375.313616 56.7657567,375.246999 C56.6066734,373.45593 56.8062016,371.81713 57.3913043,370.201171 C57.9494439,369.268521 58.8661948,368.524305 60.2979441,368.164568 C61.1742501,370.503807 62.1772835,372.848755 63.1614425,375.195608 C62.5089316,375.254612 61.842939,375.298389 61.1688574,375.323133 Z M848.547354,74.0543192 C848.784631,73.9153734 849.011122,73.784041 849.251095,73.6660322 C852.85878,81.3518302 855.147961,92.6559297 842.359285,92.6559297 L842.076171,92.6559297 C840.504213,86.0569546 840.671385,78.595754 848.547354,74.0543192 Z M888.47725,77.8020498 C889.677115,78.5786237 890.777216,79.4199122 891.737108,80.3373353 C893.419616,81.9266471 894.325581,83.868082 893.789012,85.8171303 C893.505898,86.8221083 892.740142,87.789019 891.823391,88.5522694 C891.06033,89.1918009 890.143579,89.6733529 889.178295,90.1530015 C889.143242,90.1777452 889.092012,90.2043924 889.059656,90.2196193 C888.97607,90.1168375 888.884395,90.0007321 888.760364,89.8713031 C885.079879,85.9046852 885.605662,81.4983895 888.47725,77.8020498 Z M919.099427,83.2951684 C919.635996,80.8664714 920.552747,78.4016105 921.741827,75.9710102 C925.948096,80.4325037 928.606673,86.35959 921.828109,88.2096633 C920.981463,88.4418741 920.062016,88.6398243 919.147961,88.7806735 C919.120998,88.7311859 919.099427,88.6893119 919.07516,88.6303075 C918.298618,86.9229868 918.740816,85.0139092 919.099427,83.2951684 Z M1044.01483,23.6912152 C1046.15571,21.8106881 1049.59623,19.6751098 1052.33839,19.6751098 C1053.88878,19.6751098 1055.20998,20.3565154 1055.94877,22.1494876 C1057.31041,25.4499268 1054.5305,28.6152269 1051.21672,31.0591508 C1045.07988,29.8600293 1039.67105,27.5055637 1044.01483,23.6912152 Z M1107.65622,253.47716 C1106.65319,252.472182 1102.53589,251.659444 1099.84226,251.659444 C1097.96023,251.659444 1096.75497,252.047731 1097.75531,253.054612 C1104.78463,260.125622 1100.48399,269.120937 1093.47085,275.245974 C1083.60499,283.853001 1067.66161,287.579795 1052.39771,287.579795 C1051.63734,287.579795 1050.89855,287.572182 1050.14628,287.553148 C1023.44186,286.930747 1004.23593,274.819619 986.863498,261.87101 C960.946411,242.616545 935.064375,223.885505 905.480283,207.356662 C890.240647,198.840996 871.584766,194.478477 852.548702,194.478477 C846.686889,194.478477 840.776542,194.889605 834.930907,195.727086 C799.36906,200.812884 768.566229,217.457833 742.59791,234.563397 C729.156724,243.387408 716.233232,252.896633 704.717223,263.060615 C703.185709,263.1653 701.678463,263.290922 700.184698,263.450805 C702.446916,228.645827 709.789012,194.25388 727.975733,161.074378 C738.777216,141.420205 748.138861,121.257833 762.817661,102.787555 C775.962251,86.2377745 795.842265,69.9963397 824.800809,69.7983895 C824.967981,69.7888726 825.145939,69.7888726 825.323896,69.7888726 C829.899562,69.7888726 834.461746,70.3008785 838.921469,71.1383602 C834.108527,73.8011713 830.948433,77.906735 830.649141,83.7519766 C830.519717,86.8620791 831.161443,89.9341142 832.056623,92.9871157 C832.512302,94.5307467 836.262892,95.3168375 838.026289,95.6366032 C841.350859,96.257101 844.885743,96.6587116 848.223795,96.6587116 C856.312774,96.6587116 863.226154,94.2928258 863.021234,86.8221083 C862.937647,83.0039531 862.163802,76.8636896 858.866195,73.6926794 C858.054601,72.9008785 856.852039,72.225183 855.409505,71.6313324 C857.601618,71.2144949 859.898888,71.0393851 862.204247,71.0393851 C865.663633,71.0393851 869.14459,71.4295754 872.323559,71.9853587 C874.599259,72.3793558 876.907314,72.9275256 879.147961,73.6241581 C878.206943,74.6672035 877.422312,75.8206442 876.834513,77.0806735 C873.536906,84.2316252 878.743512,92.1020498 889.013819,94.1900439 C890.157061,94.4222548 891.335356,94.5307467 892.51365,94.5307467 C898.712504,94.5307467 904.811594,91.4701318 904.574317,86.6412884 C904.337041,81.5402635 898.925514,77.4841874 891.977081,74.4540264 C895.994607,71.5057101 901.57061,69.5414348 907.181665,69.5414348 C909.160768,69.5414348 911.150657,69.7888726 913.070442,70.3237189 C912.760364,70.8414348 912.450286,71.3610542 912.164476,71.8825769 C909.457364,76.7989751 905.644759,83.9270864 909.826761,88.9253294 C912.328952,91.8812592 916.551399,92.8995608 921.062353,92.8995608 C926.355241,92.8995608 932.063364,91.5158126 935.946073,90.1948755 L936.31547,89.850366 C936.841254,82.1379209 932.241321,75.5846266 924.438153,71.2278184 C926.031682,68.734407 927.843613,66.336164 929.763397,64.1111274 C938.615436,53.9147877 945.811931,41.8893119 963.737108,38.7354319 C967.096731,38.1377745 970.518369,37.8846266 973.958881,37.8846266 C988.794068,37.8846266 1004.17391,42.5021962 1018.52107,43.6879941 C1020.70509,43.8707174 1022.96461,43.9658858 1025.31041,43.9658858 C1037.38456,43.9658858 1050.90934,41.4972182 1059.55915,35.6310395 C1061.91574,35.8461201 1064.30199,35.9469985 1066.69633,35.9469985 C1083.16549,35.9469985 1100.00944,30.9392387 1110.46579,22.0295754 C1112.31277,20.4745242 1106.21368,18.2418741 1102.70037,18.2418741 C1101.80519,18.2418741 1101.08257,18.3789165 1100.68891,18.7120059 C1091.68318,26.3787701 1077.89417,30.9696925 1063.91911,31.8966325 C1069.16346,25.9904832 1066.3512,19.8007321 1057.14055,16.9228404 C1054.25548,16.0225476 1051.48096,15.6114202 1048.84934,15.6114202 C1041.19717,15.6114202 1034.76373,19.1193265 1030.29323,24.3174231 C1030.20964,24.6543192 1030.31749,24.9778917 1030.66262,25.25959 C1035.40816,28.9978038 1041.1729,31.7062958 1047.47691,33.4592972 C1039.47961,37.9988287 1029.33064,39.9174231 1019.24907,39.9174231 C1017.65015,39.9174231 1016.05662,39.8736457 1014.47927,39.7765739 C998.4577,38.8363104 983.201887,34.0759883 967.107516,34.0759883 C964.664644,34.0759883 962.208291,34.188287 959.730367,34.431918 C944.644422,35.9412884 935.662959,42.3518302 927.951466,51.1415813 C923.289518,56.4710102 918.654533,61.789019 914.890462,67.434407 C913.95214,67.1812592 912.986855,66.9471449 911.997304,66.745388 C908.88844,66.0963397 905.550388,65.761347 902.239299,65.761347 C894.754297,65.761347 887.285474,67.4420205 882.159757,70.9956076 C876.896528,69.495754 871.689922,68.4774524 867.77216,67.9064422 C864.42602,67.4248902 861.044826,67.1698389 857.758005,67.1698389 C853.047523,67.1698389 848.536569,67.6951684 844.575666,68.8314788 C842.13549,68.3841874 839.827435,68.0225476 838.085608,67.6856515 C831.892147,66.4884334 825.811931,65.911713 819.890799,65.911713 C800.434109,65.911713 782.756994,72.1604685 769.019211,83.1048316 C749.6515,98.529722 738.66397,118.789165 728.458375,137.786676 C714.321537,163.988433 701.263229,189.870425 695.007752,217.678624 C694.463094,220.0959 693.956185,222.513177 693.487024,224.936164 C693.298281,224.625915 693.101449,224.306149 692.901921,223.980673 C687.350185,215.07101 679.158746,203.361493 669.710819,193.001464 C664.997641,187.822401 659.9636,182.963104 654.754297,178.967936 C649.639366,175.014641 644.354567,171.877892 638.961914,170.086823 C637.492417,169.215081 625.731041,162.184041 612.319515,154.566764 C605.149983,150.497365 597.530165,146.273792 590.727334,142.720205 C583.935288,139.149488 578.011459,136.273499 574.064038,134.893558 C570.138187,133.5041 564.049882,131.960469 556.737445,130.173206 C545.758005,127.500878 532.055275,124.26896 519.250421,120.433675 C506.448264,116.581259 494.616785,112.081698 487.474216,107.043485 C486.425345,106.278331 485.686552,105.617862 485.252444,105.058272 C484.834513,104.494876 484.691608,104.070425 484.691608,103.744949 C484.691608,103.371889 484.834513,103.086384 485.287496,102.684773 C486.050556,102.020498 487.932592,101.261054 490.604651,100.65959 C494.641052,99.751684 500.389619,99.169253 506.847321,98.830454 C513.305022,98.463104 520.442198,98.362225 527.406808,98.362225 L528.350522,98.362225 C540.853387,98.362225 552.533873,98.750512 558.304011,98.750512 C564.160431,98.750512 572.440849,98.546852 582.196158,98.546852 C601.650152,98.546852 626.909336,99.329136 649.811931,103.967643 L650.119312,104.032357 L650.45905,104.01142 C650.45905,104.01142 651.45669,103.967643 653.193124,103.906735 C654.897203,103.872474 657.34277,103.8306 660.130772,103.8306 C665.674419,103.8306 672.674082,104.01142 678.368723,104.772767 C681.207954,105.159151 683.715538,105.680673 685.473542,106.297365 C686.325581,106.62284 687.018537,106.957833 687.493091,107.302343 C687.951466,107.641142 688.207617,107.968521 688.323559,108.286384 C688.436805,108.590922 688.550051,108.851684 688.719919,109.104832 L689.172902,109.554026 C689.377823,109.73104 689.857769,110.012738 690.620829,110.012738 C691.135827,110.012738 691.621166,109.852855 691.877317,109.692972 C692.354567,109.416984 692.443546,109.196193 692.556791,109.00776 C692.702393,108.750805 692.729356,108.545242 692.767105,108.305417 C692.812942,108.0694 692.812942,107.825769 692.812942,107.523133 C692.812942,105.680673 692.130772,102.363104 689.941355,98.265154 C686.700371,92.1629575 680.010785,84.4124451 667.238288,78.0742313 C654.446916,71.7188873 635.58881,66.8196193 608.099764,66.2600293 L607.886754,66.2600293 L607.676441,66.2828697 C607.676441,66.2828697 605.120324,66.6178624 601.029997,67.1469985 C594.909336,67.9292826 585.383215,69.0922401 576.045838,70.0762811 C566.835187,71.0241581 557.770138,71.8064422 552.55814,71.8064422 L551.989215,71.8064422 C550.756994,71.8064422 549.772835,71.7322108 549.249747,71.6560761 C549.298281,71.5989751 549.362993,71.5304539 549.427705,71.463836 C549.910347,70.9423133 550.821705,70.2190337 551.905629,69.4367496 C553.553084,68.2338214 555.545669,66.8633968 557.190428,65.4358712 C558.819009,63.9874085 560.26424,62.5046852 560.288507,60.7212299 C560.323559,60.115959 560.121335,59.520205 559.698011,58.9549048 C559.042804,58.1060029 557.961577,57.4664714 556.56488,56.9449488 C555.178969,56.4405564 553.407482,56.0408492 551.191102,55.7325037 C550.190765,55.620205 549.147287,55.5573939 548.033704,55.5573939 C541.433097,55.584041 532.764408,57.6263543 523.143916,60.6393851 C494.390293,69.6537335 457.779575,87.5415813 457.720256,87.5606149 L458.798787,88.6550512 L431.768116,109.456955 L431.382541,109.502635 L431.153354,108.427233 C431.112909,108.427233 407.722278,110.911127 375.849006,116.303367 C389.368386,100.785212 404.502865,88.8834553 419.297607,79.7739385 C438.554769,67.9064422 457.267273,60.8030747 471.153354,56.6461201 C478.091001,54.5562225 483.807213,53.227672 487.789687,52.4035139 C487.843613,52.3939971 487.884058,52.3844802 487.937984,52.3768668 C488.504213,52.2683748 489.0273,52.1751098 489.528817,52.0875549 C490.976744,51.798243 492.114594,51.6307467 492.877654,51.5032211 C493.27671,51.4270864 493.567914,51.3775988 493.756657,51.3433382 L493.961577,51.3262079 L493.961577,51.3090776 C493.99663,51.3052709 494.015504,51.2995608 494.015504,51.2995608 L493.282103,48.731918 C493.27671,48.731918 493.252444,48.7357247 493.22548,48.7395315 L493.214695,48.731918 C493.214695,48.7357247 493.074486,48.7528551 492.804853,48.804246 C492.103809,48.9032211 490.626222,49.1354319 488.474553,49.5522694 C479.541625,51.1834553 458.987529,55.397511 435.594203,63.3288433 C404.308729,73.9286969 367.900236,91.1541728 347.696663,117.881259 C346.674756,119.24407 345.685204,120.635432 344.714526,122.055344 C341.549039,122.698682 338.351196,123.361054 335.12639,124.051977 C309.872599,129.45183 283.329963,136.315373 260.548702,144.851977 C237.794405,153.40571 218.704415,163.584919 208.434109,175.770278 L205.907651,178.804246 L210.661274,177.698389 L210.682845,177.683163 C211.335356,177.538507 217.625885,176.192826 227.214021,176.192826 C235.745197,176.192826 246.867543,177.256808 259.0091,181.154905 C262.368723,182.215081 266.184024,182.675695 270.277048,182.675695 C278.554769,182.675695 288.107853,180.852269 298.008763,178.145681 C306.890462,175.696047 316.039097,172.51552 324.643074,169.18653 C323.462083,173.752709 322.423997,178.385505 321.507246,183.039239 C317.948096,201.220205 316.289855,219.789458 315.691271,236.620937 C296.574317,228.090044 276.791372,220.192972 256.76306,213.19429 C217.003033,199.324451 174.816313,189.221376 134.592518,176.032943 C114.372767,169.430161 94.6356589,161.919473 76.430064,152.783309 C61.4681496,145.289751 49.7202562,134.927818 40.4206269,123.89019 C21.8402427,101.835871 13.1742501,74.214202 21.3576003,48.954612 C26.5911695,32.7721816 43.2625548,19.2125915 62.5763397,10.3029283 C71.0185372,6.40292826 81.5449949,2.90263543 91.8988878,2.90263543 C92.7455342,2.90263543 93.586788,2.91976574 94.4334344,2.96925329 C107.604988,3.7363104 116.785979,11.2622255 122.623525,18.9346999 C123.267947,19.7874085 125.562521,20.1661786 127.892147,20.1661786 C131.095383,20.1661786 134.344456,19.4562225 133.454668,18.2913616 C123.893495,5.76339678 107.98517,0 90.6801483,0 C81.6905966,0 72.3181665,1.55695461 63.2612066,4.51288433 C37.1472868,13.072328 16.124031,30.3396779 9.6986855,50.1727672 C7.85979103,55.8257687 6.97000337,61.6081991 6.88372093,67.4077599 L6.88372093,69.2844802 C7.15604988,88.0878477 15.7762049,107.102489 28.4651163,123.184041 C47.8382204,147.678477 79.983822,161.858565 114.690934,174.089605 C154.367374,188.098389 196.546006,198.222401 236.861476,211.292826 C264.05123,220.111127 290.324233,230.878477 315.526795,242.508053 C315.448601,245.835139 315.418942,249.076574 315.418942,252.215227 C315.418942,266.968228 316.138861,279.507613 316.85878,288.013763 C315.464779,287.886237 314.095046,287.756808 312.71183,287.614056 C295.077856,285.805857 278.074823,282.187555 260.721267,279.479063 C245.640715,277.116984 230.371419,275.664714 215.013145,274.819619 C207.385238,274.402782 199.652174,274.168668 191.902932,274.168668 L191.854398,274.168668 C191.199191,274.159151 190.52511,274.159151 189.869902,274.159151 C165.430401,274.159151 140.578362,276.496486 118.46579,283.459004 C92.4192787,291.668228 76.1172902,308.414056 69.9642737,327.870278 C69.1769464,330.373206 68.8560836,332.706735 68.950455,334.922255 C69.0394338,342.006589 73.3832154,347.82899 80.0970677,353.934993 C82.8203573,356.413177 84.4031008,358.849488 84.6727334,361.708346 C84.6916077,362.397365 84.6376812,363.126354 84.5082575,363.874378 C83.826087,367.783895 81.6043141,371.718155 76.1172902,373.020059 C75.4162454,373.187555 74.7044152,373.356955 74.0033704,373.514934 C72.8466464,370.85593 71.7627233,368.381552 70.9942703,366.200293 C70.6841928,365.336164 69.1122346,365.11918 68.0687563,365.014495 C65.3346815,364.744217 62.1476239,364.460615 58.9956185,364.460615 C57.9764071,364.460615 56.9625885,364.489165 55.9676441,364.551977 C53.9130435,364.641435 51.9123694,364.866032 50.0060667,365.319034 C46.2473879,366.200293 45.4951129,370.67511 45.5301651,373.910835 C45.5193798,375.054758 45.6137513,376.103514 45.7404786,376.895315 C45.8537243,377.770864 47.760027,377.978331 48.6632963,378.079209 C51.8584429,378.433236 55.0455005,378.610249 58.2217728,378.610249 C60.3168183,378.610249 62.4091675,378.534114 64.5015167,378.391362 C66.6208291,383.589458 68.4031008,388.840849 68.4678126,394.234993 L68.4678126,394.613763 C68.3734412,397.988433 66.4671385,401.043338 63.4742164,403.485359 C63.4742164,403.432064 63.4823054,403.37306 63.4823054,403.331186 C63.619818,402.194876 64.4287159,399.147584 63.2962588,397.927526 C62.9403438,397.383163 62.2608696,396.903514 61.0151668,396.31347 C58.3404112,395.059151 55.3825413,394.151245 52.3707449,393.35183 C49.1594203,392.493411 45.6380182,392.122255 42.1624537,392.122255 C41.9467476,392.122255 41.7283451,392.122255 41.5153354,392.131772 C41.1998652,392.122255 40.8790024,392.114641 40.5608359,392.114641 C40.0728008,392.114641 39.5928547,392.122255 39.1102123,392.137482 C32.115942,392.400146 23.8921469,394.311127 21.5328615,399.537775 C20.6619481,401.456369 20.5082575,403.097072 20.9234917,404.49224 C22.0451635,410.097657 31.3151331,411.844949 41.3859117,411.844949 C43.5942029,411.844949 45.8402427,411.772621 48.0458375,411.629868 C48.7307044,411.586091 49.404786,411.561347 50.0788675,411.52899 C48.6713852,414.15183 46.5008426,416.550073 43.3731041,418.400146 C35.189754,423.2347 23.0401079,424.136896 13.710819,427.669546 C8.4718571,429.662372 4.0364004,432.547877 0.47724975,435.880673 C0.23458038,436.122401 0.09706775,436.373646 0.05392653,436.634407 L0.05392653,436.929429 C0.03235592,436.999854 0.01348163,437.064568 0,437.133089 L0,437.54612 C0.41793057,439.97672 7.6818335,443.347584 9.4425345,443.954758 C21.586788,448.031772 36.9774183,446.746999 50.0357263,447.831918 C64.5958881,449.051977 73.0434783,453.578184 77.7971014,463.165447 C79.7708123,467.175842 81.1648129,471.469839 81.6420627,475.78287 C78.8297944,475.933236 76.1361645,476.304392 73.6932929,476.884919 C68.5028648,478.104978 62.867543,482.530307 62.8729356,486.279941 C62.5709471,488.297511 63.8463094,490.141874 67.7532861,491.200146 C70.4334344,491.93104 73.4560162,492.376428 76.4435457,492.420205 C76.9989889,492.444949 77.5517358,492.462079 78.1152679,492.462079 C83.4620829,492.462079 88.5473542,491.066911 90.9956185,487.366764 C92.4057971,485.212152 93.0690934,482.798682 93.2281766,480.309078 C93.2281766,480.272914 93.2335693,480.238653 93.2335693,480.206296 C95.8328278,480.895315 98.353893,481.913616 100.535221,483.236457 C95.7141894,484.959004 92.6700371,488.348902 93.0448264,493.933382 L93.0448264,493.942899 C93.0502191,494.127526 93.0556117,494.321669 93.0690934,494.513909 C93.1580721,494.860322 93.4681496,495.121083 93.9184361,495.263836 C98.944388,496.954026 103.722278,497.669693 108.980115,497.669693 L110.33367,497.669693 C111.565891,497.669693 112.814291,497.625915 114.086957,497.542167 C115.367711,497.466032 118.020897,497.367057 118.322885,496.179356 C118.460398,495.66735 118.560162,495.161054 118.62757,494.671889 C119.253118,495.214348 120.059319,495.657833 121.083923,495.975695 C125.341422,497.313763 129.695989,497.871449 134.142231,497.871449 C134.473879,497.871449 134.802831,497.861933 135.139872,497.861933 L135.778901,497.861933 C138.138187,497.861933 140.510954,497.71918 142.875632,497.439385 C143.894843,497.313763 145.763397,496.969253 145.6879,496.080381 C145.795753,495.935725 145.806539,495.775842 145.722952,495.615959 C143.285474,491.342899 136.986855,487.557101 129.547691,485.037042 C131.19245,482.543631 134.428042,480.963836 139.491743,480.828697 C140.478598,480.880088 141.451972,480.971449 142.36333,481.055198 C151.886754,481.989751 163.729019,484.932357 170.661274,489.871596 C182.894506,498.604246 185.628581,512.74246 186.235254,524.609956 C186.264914,525.468375 186.294574,526.317277 186.302663,527.168082 C186.421301,533.224597 185.682508,539.286823 184.347826,545.269107 C182.924166,551.56164 179.284125,557.380234 177.089316,563.518594 C175.859791,566.944656 175.875969,570.334553 176.76306,573.631186 C178.081564,579.04246 181.737782,584.204392 186.170543,588.972328 C159.455342,589.480527 131.011796,593.877306 103.360971,605.510688 L97.9898888,607.794729 L104.250758,607.967936 C104.275025,607.967936 105.245703,608.000293 107.003707,608.059297 C113.205258,608.261054 129.054264,608.898682 145.747219,610.246266 C154.081564,610.935286 162.6424,611.776574 170.299966,612.844363 C177.949444,613.887408 184.717223,615.166471 189.38726,616.637775 C198.020897,619.346266 213.726997,624.748023 232.16178,629.860469 C233.18908,631.07101 234.159757,632.300586 235.087294,633.562518 C249.412875,653.087262 248.053927,676.569107 247.153354,698.474963 C243.607685,703.536018 240.754971,707.841435 237.818672,711.004832 C234.858106,714.200586 231.932592,716.128697 228.211662,716.891947 C226.868891,717.154612 225.898214,717.388726 225.135153,717.649488 C224.860128,717.752269 224.598584,717.860761 224.326255,718.005417 C221.54095,704.830307 216.374789,691.265007 204.206269,681.506442 C195.861139,674.838946 184.954499,672.172328 173.500506,672.172328 C153.456016,672.172328 131.680485,680.345388 118.81092,689.607174 C102.171891,701.583163 94.8270981,717.590483 81.8604651,731.309956 C78.0667341,735.297511 73.1917762,738.687408 67.4539939,741 L76.5918436,741 C78.6922818,739.987408 80.6875632,738.870132 82.545332,737.63675 C95.5982474,728.894583 101.605662,715.083748 110.875632,704.434407 C120.008089,693.939239 131.696663,684.822108 147.480957,679.300439 C155.230199,676.593851 164.478598,674.465886 173.40883,674.465886 C179.292214,674.465886 185.043478,675.392826 190.142231,677.6959 C199.449949,681.877599 204.996293,689.279795 208.922144,696.312738 C216.730704,710.291069 219.181665,725.816837 220.30064,741 L227.569936,741 C227.27334,737.465447 226.909336,733.927086 226.415908,730.384919 C225.992585,727.312884 225.509943,724.134261 224.905966,720.906149 C225.008426,720.94041 225.110886,720.955637 225.218739,720.991801 C226.445568,721.248755 228.063364,721.30776 230.317492,721.32489 C234.286485,721.32489 240.021571,721.007028 246.600607,720.342753 C246.44422,727.221523 246.26087,734.119327 246.153017,741 L257.170206,741 C257.229525,733.666325 257.364341,726.31552 257.520728,718.964714 C257.523424,718.964714 257.528817,718.964714 257.528817,718.964714 C268.071453,717.381113 279.266599,714.948609 288.086282,711.391215 C301.395349,706.035139 316.01483,697.226354 329.954837,689.784187 C333.977755,687.637189 337.933266,685.619619 341.764746,683.81713 L341.287496,739.285066 C337.011122,739.064275 332.721267,738.946266 328.431412,738.938653 L326.428042,738.938653 C314.817661,738.98243 303.174924,739.72284 291.613077,741 L361.733738,741 L360.900573,677.039239 C362.938996,676.652855 364.869565,676.451098 366.662622,676.451098 L367.298955,676.451098 L367.757331,676.241728 L367.781598,676.232211 C368.248062,676.039971 371.278733,674.819912 375.646781,673.993851 C376.860128,696.318448 378.933603,718.667789 380.494776,741 L392.350522,741 C391.034715,721.469546 389.222784,701.979063 387.729019,682.598975 C387.483654,679.545974 387.232895,676.468228 386.984833,673.390483 C389.950792,673.641728 393.048871,674.290776 396.141557,675.508931 C400.412538,677.218155 404.732053,680.027526 408.687563,684.603221 C417.385912,694.702489 422.681496,700.846559 425.784968,704.461054 C425.892821,704.58858 426.000674,704.714202 426.100438,704.830307 L426.59117,731.245242 C423.83822,734.439092 421.209302,737.693851 418.715201,741 L455.902932,741 C455.630603,732.670864 455.347489,724.143777 455.056286,715.472035 C462.646444,708.389605 470.808224,701.619327 479.36906,695.142167 C489.523424,687.477306 501.826761,681.120059 514.219077,674.911274 C515.634648,678.839824 516.885743,682.802635 517.948096,686.788287 C499.56724,701.575549 494.49545,721.772182 495.002359,741 L506.027637,741 C505.846983,731.880966 507.025278,722.798097 510.117964,713.916984 C512.331648,707.588287 515.766768,701.889605 520.210313,696.775256 C522.027637,706.649927 522.637007,716.732064 521.755308,727.029283 C521.348163,731.722987 520.603977,736.38243 519.568588,741 L530.645096,741 C531.809909,735.876135 532.659252,730.685652 533.098753,725.464714 C534.193461,712.620791 532.866869,700.079502 529.714863,687.787555 C544.919447,675.803953 566.330974,667.830747 589.052915,662.657394 C613.700034,657.055783 640.288507,654.533821 666.982137,654.533821 C694.713852,654.533821 722.53185,657.25754 748.395012,662.06735 C771.348837,666.349927 797.433097,673.58082 809.264577,689.159883 C814.991574,696.672474 814.072127,704.175549 809.127064,710.089312 C803.448601,708.901611 797.201213,708.465739 791.099427,708.465739 C784.463768,708.465739 777.987192,708.987262 772.570273,709.62489 C771.580721,709.744802 769.90091,710.020791 769.698686,710.871596 C768.644422,715.041874 768.479946,719.08082 769.501854,723.233968 C769.87125,724.741435 773.314459,724.945095 774.967307,725.045974 C777.048871,725.177306 779.14122,725.253441 781.222784,725.253441 C793.029997,725.253441 804.589147,722.967496 813.411527,717.363982 C814.686889,718.342313 815.824739,719.457687 816.798113,720.7653 C818.725986,723.312006 819.462083,726.262225 819.114257,729.174378 C818.523761,729.122987 817.938659,729.105857 817.369734,729.073499 C816.032356,729.022108 814.638355,728.997365 813.214695,728.997365 C806.756994,728.997365 799.689922,729.579795 793.906303,730.948316 C791.010448,731.646852 790.007415,734.380088 789.27671,736.232064 C788.926188,737.130454 793.283451,739.34978 794.138187,739.854173 C794.844624,740.278624 795.596899,740.65549 796.373441,741 L822.573643,741 C825.205258,739.553441 827.098079,737.570132 828.349174,735.331772 C829.948096,736.844949 830.589821,738.822548 830.579036,741 L841.76879,741 C841.695989,740.419473 841.601618,739.831332 841.434446,739.233675 C840.218402,734.734114 835.510617,732.177892 829.923829,730.738946 C830.530502,726.90366 829.578699,722.900878 827.24368,719.786969 C825.132457,716.992826 822.20155,714.832504 818.725986,713.191801 C826.766431,705.058712 825.024604,694.37511 817.971014,686.065007 C801.013819,666.275695 760.053927,659.661493 730.388945,655.826208 C710.169194,653.210981 689.518032,651.823426 668.883047,651.730161 L665.019211,651.730161 C649.24031,651.791069 633.47489,652.60571 617.922481,654.204539 C586.442872,657.459297 552.048534,664.903367 527.493091,680.084627 C526.41456,676.721376 525.209302,673.390483 523.885406,670.067204 C528.226491,667.880234 532.497472,665.676135 536.63094,663.397804 C555.178969,653.178624 572.893832,642.234261 590.04786,630.852123 C621.988541,609.631479 651.915066,585.968814 670.490057,557.640996 C694.608696,520.911713 702.827098,480.81347 704.617459,440.414495 C705.518032,441.322401 706.343108,442.279795 707.125042,443.273353 C710.277048,447.236164 712.641726,451.640556 715.823391,455.17511 C716.025615,455.374963 716.222447,455.555783 716.508257,455.753734 C716.780586,455.91552 717.17425,456.117277 717.759353,456.183895 L718.374115,456.183895 C718.9727,456.109663 719.479609,455.864129 719.724975,455.652855 C720.237277,455.201757 720.323559,454.870571 720.463768,454.501318 C720.798113,453.372621 720.892484,451.743338 720.892484,449.512592 C720.892484,441.986676 719.665656,427.972182 719.665656,414.850366 C719.665656,406.951391 720.118638,399.368375 721.542299,393.865739 C722.227165,391.11347 723.19245,388.890337 724.30064,387.443777 C724.872262,386.735725 725.46815,386.240849 726.004719,385.934407 C726.552073,385.608931 727.029323,385.489019 727.6333,385.471889 C729.561173,385.431918 731.300303,385.037921 732.723964,384.346999 C734.883721,383.286823 736.250758,381.653734 737.073138,379.771303 C737.895517,377.881259 738.243343,375.69429 738.243343,373.320791 C738.213684,367.603075 736.283114,360.762372 733.859117,354.837189 C732.664644,351.864129 731.32457,349.138507 730.022245,346.883016 C728.74149,344.638946 727.517358,342.887848 726.349848,341.785798 C725.069093,340.620937 723.906977,338.494876 723.025278,336.018594 C721.685204,332.310835 720.892484,327.811274 720.463768,324.278624 C720.237277,322.510395 720.118638,320.964861 720.040445,319.883748 C720.016178,319.699122 720.010785,319.529722 720,319.366032 C720.237277,319.360322 720.493428,319.356515 720.771149,319.356515 C723.054938,319.356515 726.697674,319.659151 730.580384,321.208492 C734.490057,322.75593 738.69363,325.540556 742.109875,330.698682 C746.858106,337.855344 749.872599,343.015373 753.660937,346.686969 C755.532187,348.537042 757.643411,349.996925 760.226491,351.041874 C762.782609,352.10776 765.802494,352.711127 769.358948,352.969985 C770.472531,353.027086 772.006741,353.512445 773.845635,354.393704 C777.067745,355.946852 781.109538,358.653441 785.828109,361.843485 C792.970677,366.62284 801.758005,372.483309 812.6242,377.138946 C823.514661,381.813616 836.510954,385.289165 851.928547,385.289165 C854.492754,385.289165 857.135153,385.19019 859.828783,384.982723 L863.533536,384.708638 L861.009774,382.780527 C861.009774,382.780527 860.295248,382.259004 859.041456,381.276867 C854.694978,377.837482 843.742501,369.00776 833.927873,359.35388 C829.04213,354.511713 824.393664,349.479209 821.047523,344.817862 C817.655544,340.162225 815.611729,335.881552 815.611729,332.769546 C815.611729,331.924451 815.751938,331.184041 816.037749,330.525476 C816.746882,328.89429 817.065049,327.453441 817.065049,326.12489 C817.065049,324.358565 816.431412,322.832064 815.271992,321.629136 C813.530165,319.798097 810.771823,318.777892 807.846309,318.212592 C804.885743,317.653001 801.644759,317.489312 798.511628,317.489312 C793.935962,317.489312 789.557128,317.831918 787.168183,317.831918 L787.046849,317.809078 C786.971352,317.809078 786.539939,317.373206 786.189417,316.486237 C785.598921,314.999707 785.0273,312.494876 783.641389,309.599854 C781.508595,305.224012 777.323896,299.902196 767.905629,295.162811 C759.077856,290.716545 745.736434,286.786091 725.211999,284.357394 C727.15605,283.618887 730.205595,282.886091 734.797438,282.876574 C737.844287,282.876574 741.535558,283.19634 746.03303,284.075695 C755.084597,285.805857 765.940007,291.390337 777.949444,296.588433 C789.950792,301.7694 803.235592,306.609663 817.655544,306.626794 C818.332322,306.626794 819.054938,306.609663 819.761375,306.584919 C820.640377,306.567789 821.522076,306.548755 822.382204,306.548755 C835.216717,306.548755 844.397708,309.797804 850.941692,313.555051 C857.42366,317.310395 861.176946,321.608199 862.738119,323.614348 L863.188406,324.07877 L863.652174,324.358565 C863.878665,324.459444 864.248062,324.577452 864.746882,324.577452 L864.819683,324.577452 C865.426357,324.577452 866.046512,324.291947 866.264914,324.054026 C866.66397,323.69429 866.66397,323.49063 866.712504,323.31552 L866.771823,322.832064 C866.771823,322.087848 866.523761,321.044802 866.059993,319.560176 C864.463768,314.478184 860.009437,304.822401 851.820694,295.587262 C843.599596,286.348316 831.568588,277.495754 814.727334,274.360908 C812.400404,273.831772 762.162454,262.59429 719.188406,262.569546 C719.010448,262.569546 718.832491,262.569546 718.659926,262.575256 C739.106168,245.009078 763.408156,229.007467 789.759353,216.313909 C809.884732,206.623865 833.784968,198.214788 858.628918,198.214788 C860.246714,198.214788 861.877991,198.247145 863.506572,198.32328 C878.430738,198.983748 890.432086,204.185652 901.810583,210.613324 C918.824402,220.225329 934.945736,230.606296 950.258173,241.552562 C975.447253,259.625037 997.775531,281.949634 1034.10853,288.959736 C1041.92248,290.472914 1050.11122,291.342753 1058.23256,291.342753 C1071.93798,291.342753 1085.45467,288.862665 1096.70913,282.8347 C1105.08123,278.352269 1111.6333,271.127086 1112,263.839092 L1112,262.584773 C1111.84631,259.465154 1110.52511,256.351245 1107.65622,253.47716 Z"></path>
        </g>
    </g>
</svg>