<?xml version="1.0" encoding="UTF-8"?>
<svg width="1548px" height="1391px" viewBox="0 0 1548 1391" version="1.1" xmlns="http://www.w3.org/2000/svg" xmlns:xlink="http://www.w3.org/1999/xlink">
    <title>floral-pattern-3</title>
    <g id="Page-1" stroke="none" stroke-width="1" fill="none" fill-rule="evenodd">
        <g id="floral-pattern-3" transform="translate(1.136364, 1.500000)" stroke="#9BE5F0" stroke-width="2.263">
            <path d="M52.824426,1368.03799 C53.184235,1366.72953 49.942208,1365.75264 46.985029,1365.75264 C44.833673,1365.75264 42.828488,1366.27317 42.457436,1367.53172 C41.617882,1370.46594 41.175617,1373.20408 41.111901,1375.74256 L41.111901,1376.90841 C41.220593,1381.24023 42.476176,1384.95525 44.721233,1388 L55.151939,1388 C51.295239,1383.17974 50.519401,1375.99213 52.824426,1368.03799 Z M803.235616,849.802831 C806.826216,845.12518 810.851576,840.807624 815.424146,837.295821 C816.589776,839.62395 816.713456,842.693658 816.739696,845.061005 C816.792166,849.268038 814.535866,852.466096 810.769116,852.466096 C810.139446,852.466096 809.491046,852.38766 808.805156,852.1987 C806.833706,851.710257 804.952206,850.872415 803.235616,849.802831 Z M941.724516,974.209787 C933.070366,1004.3792 921.608956,1034.08157 905.683676,1061.46294 C890.170666,1088.10629 870.238756,1112.16838 848.856376,1134.69383 C811.271346,1174.33977 768.622766,1209.67528 724.201376,1242.34396 C723.114446,1239.04964 721.971306,1235.76958 720.794436,1232.48596 C730.265646,1221.02001 738.882316,1214.48128 745.939816,1210.77695 C753.776906,1206.68401 759.650036,1206.00661 762.745886,1206.00661 C763.566706,1206.00661 764.200116,1206.08504 764.597406,1206.1207 L765.028426,1206.15991 L765.110886,1206.192 L766.936166,1201.59635 C766.733766,1201.56426 740.565176,1187.83793 713.988046,1187.80941 C710.191316,1187.80941 706.353356,1188.09463 702.601606,1188.75777 C700.498966,1184.24769 698.336366,1179.759 696.128796,1175.29883 C702.740276,1169.26281 710.097616,1162.67417 717.428726,1157.06954 C722.518516,1153.19408 727.585826,1149.82489 732.297066,1147.44685 C736.929606,1145.11159 741.266056,1143.76035 744.807926,1143.76035 L750.718526,1143.76035 L746.873076,1139.62818 C746.610716,1139.36079 737.510546,1129.77018 719.520106,1129.73096 C714.542756,1129.73096 708.916996,1130.49037 702.684056,1132.3764 C695.165556,1134.58331 688.524086,1139.2467 682.317386,1144.88697 C681.863876,1145.31481 681.402866,1145.72125 680.953106,1146.16691 C671.429416,1128.66138 661.388506,1111.42324 651.287626,1094.42397 C653.101656,1088.24534 654.724546,1082.02392 656.107566,1076.05564 C659.345836,1062.1546 661.204856,1049.69751 661.234836,1042.29241 C661.234836,1041.09091 661.171116,1040.03916 661.088666,1039.04444 L660.807566,1036.76266 L658.360116,1036.86962 C658.079016,1036.86962 648.547826,1037.35806 635.579716,1044.35315 C632.348936,1046.1037 628.904516,1048.2607 625.343906,1050.92753 C625.246466,1050.76709 625.145266,1050.57813 625.044066,1050.42482 C624.264486,1022.31257 623.496146,994.849205 622.731546,968.444725 C640.013616,950.468573 660.522716,935.922221 684.806056,927.276412 C690.379346,925.322637 696.589796,924.770019 701.136126,920.951602 C706.477046,916.50926 712.218986,912.451969 718.129596,908.729814 C720.974336,906.965 725.059666,904.255385 729.234946,902.583268 C728.414136,904.62974 727.675776,906.679777 727.001136,908.665639 C723.556716,918.733996 718.849216,936.635278 731.146436,943.348704 C735.063096,945.455786 738.848586,946.414847 742.371716,946.414847 C754.541496,946.414847 763.547966,935.087945 764.170136,922.309974 C764.788556,908.398243 757.832246,899.659736 747.221636,896.472374 C749.957686,890.924795 753.252186,885.598264 757.037676,880.624695 C759.908646,876.870453 767.191026,868.916308 771.497486,868.916308 C771.879786,868.916308 772.247086,868.991179 772.580666,869.119529 C773.367746,869.447535 774.147326,869.832586 774.908176,870.299638 C770.380576,878.588919 766.760006,887.712476 767.134806,896.308371 C767.535846,905.296448 775.916386,908.398243 784.323166,908.398243 C788.790796,908.398243 793.250926,907.535445 796.549176,906.162811 C813.666326,899.185554 800.911856,877.28046 791.279476,868.887786 C791.646776,868.235339 791.976606,867.636372 792.272696,867.105145 C794.071736,863.796563 796.035696,860.40598 798.179556,857.068876 C799.719986,857.553754 801.260416,857.945935 802.793356,858.263245 C804.997186,858.687514 807.380916,858.947779 809.798386,858.947779 C819.629406,858.947779 830.123826,855.065187 832.084036,845.317706 C834.302856,834.375855 826.701896,829.51281 817.751656,829.51281 C815.487856,829.51281 813.152846,829.826555 810.859066,830.439783 C804.952206,831.951463 799.753716,835.951709 795.248616,840.771971 C795.173656,840.615099 795.106186,840.472487 795.046226,840.31918 C791.680506,832.347209 796.151886,824.596286 799.678756,817.565549 C807.894396,801.243688 814.378446,777.876828 831.851666,768.093694 C835.134916,766.26827 839.014106,765.637215 843.121926,765.637215 C851.232616,765.637215 860.250316,768.065172 867.360286,768.346829 C868.904466,768.393178 870.456146,768.425265 872.011566,768.425265 C882.179916,768.425265 892.396986,767.180982 902.355446,765.291382 C911.822916,763.462392 926.012866,760.02546 935.686476,753.308469 C936.207456,764.503455 939.179626,776.917767 943.827156,787.695615 C946.394536,793.649637 949.475396,799.054604 953.039756,803.496946 C956.506666,807.835894 960.393346,811.201521 964.778516,813.080424 C963.200606,867.436716 956.806506,921.614744 941.724516,974.209787 Z M703.115076,1257.57128 C690.146966,1266.78754 676.425516,1275.2836 664.165776,1285.33413 C656.845916,1291.27389 650.642966,1298.27254 644.076456,1304.92179 C639.979886,1309.06465 636.059466,1313.42856 632.225256,1317.79246 C632.150296,1317.86733 632.075336,1317.9636 632.000376,1318.04203 C631.588096,1301.59539 631.168316,1284.90987 630.733546,1268.10313 L632.547586,1264.66619 L632.896146,1262.17763 L632.225256,1267.06206 C632.348936,1267.09059 636.381796,1267.55051 642.775896,1267.55051 C651.628696,1267.55051 664.997836,1266.68058 678.884206,1262.34876 C689.326156,1259.08296 700.094186,1253.842 709.254316,1245.55272 C709.921466,1247.62771 710.584856,1249.7134 711.214526,1251.77413 C708.523456,1253.73147 705.817396,1255.65316 703.115076,1257.57128 Z M675.316106,1192.77228 C677.999676,1191.27486 681.234206,1188.6722 685.045936,1185.32084 C686.177826,1187.71671 687.290986,1190.10901 688.389156,1192.50132 C678.295766,1195.49616 670.436196,1198.13803 663.686036,1201.12217 C668.239866,1197.4321 672.557566,1194.2697 675.316106,1192.77228 Z M627.558986,1144.41636 C628.672146,1142.72998 629.878996,1141.08995 631.157076,1139.49983 C635.463536,1134.12695 639.425176,1126.66482 643.023266,1118.07249 C643.892806,1115.97967 644.754846,1113.80484 645.583156,1111.59437 C654.244806,1126.48655 662.726546,1141.53561 670.736036,1156.7558 C665.822396,1162.19998 661.096156,1167.80104 656.422396,1172.72113 C652.307076,1177.04938 648.229246,1180.81076 644.200136,1183.55959 C640.167286,1186.26564 636.250616,1187.88784 632.382666,1188.14098 C631.827966,1188.18376 631.355716,1188.21585 630.830996,1188.21585 C630.081396,1188.19802 629.365526,1188.17663 628.698376,1188.09463 C628.316076,1173.51619 627.945026,1158.94845 627.558986,1144.41636 Z M744.905366,937.059546 C744.298196,938.097043 743.720996,938.542704 743.173786,938.542704 C740.572676,938.542704 738.822356,928.360258 738.859836,925.465249 C738.957276,918.484426 741.022436,911.535691 743.571076,904.950615 C750.774746,912.954674 749.481686,929.230187 744.905366,937.059546 Z M785.781146,902.394308 C785.616236,902.476309 785.485056,902.487005 785.413846,902.487005 C785.353876,902.487005 785.353876,902.476309 785.432586,902.462048 C785.485056,902.426395 785.608736,902.394308 785.781146,902.394308 Z M784.563046,899.941394 C780.623886,895.431312 782.138086,888.151006 784.975326,881.280707 C787.089196,884.970774 788.588406,888.856931 789.229316,892.186905 C789.814006,895.231656 789.109376,898.158753 787.497736,900.786366 C787.171656,901.314027 786.860576,901.670556 786.553236,901.90943 C785.773646,901.356811 785.136486,900.608102 784.563046,899.941394 Z M619.928036,874.884591 C618.458816,828.468182 617.075806,788.572675 615.842706,758.620739 C614.628356,728.590368 613.556426,708.685397 612.645656,701.83649 C612.132186,698.053726 611.892306,690.566633 611.892306,680.202358 C611.892306,630.177884 617.581786,512.823056 624.384416,390.173784 C624.646776,392.412782 624.785456,394.473515 624.785456,396.302504 C624.747976,404.95901 627.367836,411.54052 631.232036,416.877748 C637.086416,424.853284 645.384506,430.119206 652.307076,437.306815 C659.225906,444.483728 664.997836,453.339889 666.268416,468.855997 C668.044966,490.522216 674.172956,513.161758 688.730226,534.934936 C700.424006,552.515343 717.559906,569.457563 742.056886,584.927323 C730.959036,595.248815 722.169956,606.978593 718.882946,620.245008 C718.658066,620.804757 717.488686,623.603504 716.285576,627.200873 C714.973776,631.229642 713.590766,636.149732 713.590766,640.445897 C713.590766,641.986098 713.748176,643.412211 714.261656,644.802671 C714.786376,646.157479 715.727126,647.519416 717.226326,648.314474 C717.897226,648.678133 718.493156,648.717351 718.976646,648.717351 C719.759986,648.717351 720.348416,648.564044 720.985586,648.375084 C723.399296,647.580026 726.603846,645.783124 730.992766,643.144815 C742.836466,636.010686 762.329856,622.680096 783.359936,609.035761 C788.292316,612.447736 792.085296,615.542401 794.926286,618.326886 C801.170466,624.419953 802.875816,628.894382 802.834586,631.864262 C802.834586,633.432987 802.399816,634.734315 801.732666,635.857378 C800.210976,637.679238 798.715526,638.905695 797.606116,639.654404 C797.021426,640.075107 796.507946,640.324677 796.185616,640.513637 L795.837056,640.666944 L795.795826,640.706162 L797.771026,645.248332 C797.782266,645.248332 797.789766,645.248332 797.808506,645.230505 L797.808506,645.248332 C797.872216,645.216244 798.130836,645.123547 798.535616,644.913195 C799.457626,644.478231 801.110496,643.618998 802.834586,642.200015 C803.985226,641.269477 805.192076,640.018063 806.147826,638.481426 C806.211536,638.395859 806.279006,638.313858 806.342716,638.224726 C810.431796,633.062197 814.329726,624.491259 814.329726,611.028753 C814.329726,605.310041 813.640086,598.692877 811.975976,591.070304 C822.140576,584.955845 832.001586,579.39757 840.861876,575.083579 C846.761236,572.145786 852.252066,569.803396 856.993296,568.188323 C861.003666,566.826385 864.523046,565.99924 867.315316,565.796019 C865.981026,566.662382 864.583016,567.778315 863.162526,569.243646 C857.791626,574.773399 852.252066,584.852452 848.740186,603.623662 L848.687716,603.801926 L848.687716,603.994452 C848.687716,603.994452 848.616506,605.695091 848.455336,608.436793 C848.192976,612.572521 847.668256,619.07203 846.675036,625.546582 C845.730536,632.014004 844.235076,638.53134 842.331096,642.435324 C841.941296,643.255339 840.948076,644.610146 839.568806,646.275133 C834.621436,652.164979 824.820396,661.855416 816.319916,675.948976 C807.766966,690.046102 800.537056,708.685397 800.537056,732.658355 C800.537056,745.254496 802.549736,759.33023 807.380916,774.949732 L807.504606,775.374 C807.216006,775.702006 806.919916,776.033577 806.627566,776.382975 C799.753716,784.387033 795.439766,794.433999 791.009616,803.764342 C786.545736,813.169556 779.934256,822.863559 778.476276,833.242095 C777.434336,840.918147 781.212326,847.01478 786.909296,851.346598 C785.278916,853.678292 783.794706,855.963638 782.430426,858.027937 C781.377236,859.635879 780.264076,861.318692 779.173406,863.06568 C777.441826,862.755501 775.672766,862.605759 773.907456,862.605759 C766.508886,862.605759 758.975396,865.226241 752.937346,869.358403 C743.837186,875.56556 737.176976,885.313041 732.349546,895.431312 C732.004726,895.481226 731.656156,895.527574 731.303846,895.573923 C716.011976,897.748745 701.732066,907.859885 690.064516,916.972747 C685.083416,920.841078 683.231896,920.545159 676.541706,922.798418 C666.860596,926.078477 657.651736,930.424556 648.873906,935.483692 C639.301496,940.970661 630.501166,947.445213 622.334256,954.593604 C621.509696,926.502746 620.703876,899.748869 619.928036,874.884591 Z M815.206756,537.25237 C815.068086,537.345067 814.918166,537.44133 814.768236,537.537592 C810.353086,540.396948 803.902766,543.940839 796.399256,548.133611 C793.202206,541.452272 789.510416,534.321708 785.233936,526.7027 C782.910176,522.545581 780.747576,518.662988 778.764876,515.037096 C785.233936,517.186962 792.688726,521.098076 800.537056,527.989767 C806.732516,533.376908 811.383786,536.150697 815.206756,537.25237 Z M892.307036,650.710344 C891.992196,649.847546 891.876016,649.016835 891.827286,648.146906 C891.827286,645.964953 892.816766,643.604737 894.593316,641.223128 C897.250656,637.622193 901.594596,634.228044 905.792366,631.792957 C907.850026,630.580761 909.903926,629.611004 911.654246,628.965688 C912.831126,628.502201 913.873076,628.227675 914.585196,628.099324 C914.600186,628.216979 914.618926,628.345329 914.652656,628.477244 C914.723866,629.015602 914.768846,629.81066 914.768846,630.698415 C914.798826,635.889466 913.344606,645.480075 913.344606,656.197313 C913.344606,665.377915 914.409036,675.49262 918.558086,684.748093 C923.464226,695.650726 928.164226,703.505042 931.571166,710.532213 C934.933126,717.652082 937.032016,723.859238 937.032016,731.902515 C937.032016,733.695852 936.923326,735.57119 936.705936,737.546356 C933.685046,737.856536 930.941496,738.85125 930.502986,740.416409 C927.766936,749.803796 916.822756,754.224746 908.003686,757.187496 C897.453046,760.7813 886.096586,762.342894 874.777596,762.342894 C869.402956,762.342894 864.009576,761.979235 858.739876,761.333919 C853.814986,760.717125 849.036276,760.324944 844.429976,760.324944 C834.186666,760.324944 824.790416,762.23237 816.466086,767.637338 C820.274066,761.016609 826.222156,750.958948 833.047276,740.929809 C837.589866,734.234209 842.488506,727.535044 847.353426,721.86268 C852.184606,716.215273 856.993296,711.633886 861.153586,709.123927 C870.643546,703.394519 878.585576,694.267396 884.282546,684.708875 C889.942036,675.150353 893.333986,665.188955 893.375216,657.29542 C893.375216,654.924507 893.060386,652.710467 892.307036,650.710344 Z M637.873506,236.460209 C638.394476,234.32104 639.099096,232.513442 639.852446,231.497336 C640.242246,231.012458 640.617046,230.66306 640.879406,230.524014 L641.748946,230.28514 C642.153726,230.28514 642.700936,230.363577 643.484266,230.741496 C646.460186,232.135522 650.684196,235.483322 655.470396,240.371324 C669.945206,255.006807 690.030786,283.322278 708.058706,315.224423 L708.302326,315.584516 L708.613406,315.894696 C708.688366,315.969567 717.466206,323.445963 731.022746,331.389412 C744.631766,339.282947 763.098196,347.711274 782.745256,349.411913 C793.224686,350.342452 798.959146,353.950518 802.429796,358.506948 C805.915446,363.106162 807.024856,368.921137 807.024856,374.386715 C807.024856,378.326352 806.436416,382.009288 805.874216,384.68325 C805.559386,386.00597 805.285776,387.093381 805.053406,387.845655 L804.806036,388.676366 L804.731076,388.947327 L804.018956,390.897537 L805.949176,391.867293 C805.949176,391.906512 826.720636,402.588097 850.123206,413.312466 C861.824486,418.692476 874.204156,424.026139 884.983426,428.079864 C890.406796,430.119206 895.399136,431.81628 899.776816,433.01065 C904.165726,434.215715 907.850026,434.939467 910.893406,434.939467 C916.905206,434.939467 923.378016,434.664941 929.832086,434.664941 C937.822846,434.664941 945.723646,435.092774 952.365116,436.889677 C955.817026,437.834476 958.886646,439.103717 961.491516,440.843575 C959.396376,459.404433 958.095816,477.99738 957.349966,496.63311 C947.994936,499.189417 939.629386,502.89018 932.759286,508.081231 C923.340536,504.448208 870.103836,484.614544 821.724546,484.575326 C808.407876,484.575326 795.439766,486.087005 783.817186,489.923249 C778.577476,491.673802 773.600116,493.891408 769.012556,496.665197 C766.883686,492.475991 765.103386,488.853664 763.645406,485.709085 C761.516546,481.195438 760.084806,477.665809 759.181536,475.034631 C758.270766,472.357104 757.955936,470.542375 757.955936,469.66175 L757.970926,469.458529 C758.326986,469.504878 758.836716,469.611836 759.421406,469.804362 C760.639506,470.143063 762.224916,470.781249 763.844056,471.376651 C765.508166,471.897182 767.213516,472.467627 769.110006,472.467627 C769.855856,472.467627 770.646686,472.392756 771.437516,472.103969 C772.663116,471.647612 773.772526,470.663595 774.360966,469.469225 C774.964396,468.257029 775.189276,466.945005 775.189276,465.36202 C775.189276,462.499098 774.394696,459.907138 772.981696,457.764404 C770.496766,454.006596 766.411436,451.628553 761.790146,449.571385 C754.826346,446.483851 746.370836,444.07372 738.619956,440.087735 C730.835346,436.094619 723.909026,430.678955 719.647546,421.623138 C712.878636,407.140962 707.702636,386.676243 703.388686,368.635915 C701.218586,359.558706 699.284616,351.148206 697.425606,344.292168 C696.473606,340.876628 695.604066,337.824746 694.659576,335.304092 C693.741306,332.744219 692.883016,330.719139 691.769856,329.136154 C689.937086,326.537063 685.641866,321.00731 680.109806,314.051445 C664.877896,294.8524 640.549576,265.082294 636.820316,260.522298 C636.782836,260.040985 636.730356,259.320798 636.689126,258.422347 C636.606676,256.661098 636.490486,254.168966 636.490486,251.427264 C636.490486,246.58561 636.805316,240.792027 637.873506,236.460209 Z M1131.08889,1382.97295 C1129.07995,1385.08716 1126.78617,1386.81989 1124.22628,1386.81989 C1123.45419,1386.81989 1122.67461,1386.65945 1121.87253,1386.31362 C1117.3187,1384.35985 1111.75291,1380.64482 1114.51519,1375.14359 C1116.08561,1372.08458 1123.65284,1371.4357 1130.03944,1371.4357 C1133.01911,1371.4357 1135.75516,1371.58544 1137.48299,1371.67814 C1136.2424,1375.87091 1134.08729,1379.78916 1131.08889,1382.97295 Z M1084.66981,1352.36144 C1083.89397,1346.27907 1084.14134,1340.30366 1085.12706,1334.21059 C1089.8533,1333.56884 1094.7482,1333.13744 1099.62811,1333.13744 C1106.6931,1333.13744 1113.67564,1334.05372 1119.81113,1336.52802 C1111.37062,1345.6801 1098.66862,1351.75534 1084.66981,1352.36144 Z M587.264146,444.06659 C583.437436,437.802389 577.939106,432.885865 571.530006,429.153014 C572.482006,424.724934 573.029216,420.282592 573.029216,415.982862 C573.070446,406.730955 570.420596,397.846272 563.505526,391.275457 C562.006326,389.802995 560.769476,387.649565 559.986146,384.804469 C559.191566,381.952244 558.797744,378.43331 558.797744,374.458021 C558.760546,357.127184 566.114136,331.389412 573.512706,310.215201 C577.185756,299.612052 580.903776,290.135532 583.669806,283.286625 C584.516856,281.186674 585.281456,279.314901 585.941106,277.764003 C587.357846,281.019106 589.329296,285.579101 591.626826,291.055375 C589.865266,342.277784 588.414786,394.947697 587.264146,444.06659 Z M588.489746,665.991143 C588.489746,665.987578 588.489746,665.980447 588.489746,665.980447 L589.104416,710.970743 L588.489746,665.991143 Z M580.622676,1168.20748 C578.512546,1163.23035 576.226266,1158.06426 573.782566,1152.83042 C567.380966,1139.0613 559.911186,1124.96061 551.920436,1113.44119 C551.257036,1112.49639 550.597386,1111.56941 549.930236,1110.6674 C551.586856,1104.18215 553.490846,1097.7682 555.522266,1091.38635 C563.355606,1066.42581 573.958716,1039.94289 588.099956,1015.41375 L589.216856,1096.81984 C581.709596,1113.3057 579.164706,1130.68289 579.164706,1146.65892 C579.175946,1154.23514 579.738146,1161.48336 580.622676,1168.20748 Z M535.770266,1201.27548 C535.792756,1197.51767 535.852716,1193.78482 535.980156,1190.03414 C544.488136,1200.38059 551.969156,1209.91416 557.549936,1217.23725 C551.643076,1212.83056 544.207026,1207.31507 535.770266,1201.27548 Z M526.246576,1089.63936 C514.567786,1085.52503 506.318416,1080.41954 499.778146,1074.97892 L498.586276,952.133559 L498.586276,951.990948 L469.887776,547.463338 C470.761066,547.449077 471.638096,547.427685 472.507636,547.399163 C478.999186,547.274378 485.468246,546.825152 491.851106,546.005137 C493.500226,552.861175 495.220566,558.23049 497.113306,561.838555 C497.716736,563.004403 498.421366,563.942072 499.332126,564.729999 C500.242896,565.478708 501.505976,565.977848 502.776546,565.977848 C504.275756,565.977848 505.542576,565.368185 506.610766,564.623041 C508.623446,563.143449 510.280066,560.975757 512.060366,558.144923 C515.013796,553.403098 518.117146,546.79663 521.276716,539.288146 C527.490916,537.141846 533.540196,534.542755 539.357106,531.416003 C550.653606,543.57005 560.713256,556.736637 568.962626,571.079767 C575.888946,583.148247 580.918766,595.958306 584.052106,609.214025 C583.512396,644.467535 583.272516,665.969752 583.272516,665.969752 L583.272516,666.023231 L583.437436,677.531962 C579.895566,692.73789 574.678336,707.662161 569.393646,722.237035 C559.075376,750.691552 547.846346,778.746757 543.266276,808.645213 C538.596266,838.725499 539.904316,869.543798 545.039086,899.463646 C551.272026,935.858046 565.019716,969.261175 581.807046,1001.55907 C569.093806,1020.87933 558.917966,1041.80041 550.421226,1062.93183 C545.916126,1074.23021 541.815806,1085.71042 538.352646,1097.35107 C534.469706,1093.81074 530.451836,1091.14748 526.246576,1089.63936 Z M520.879426,1190.72224 C518.319536,1188.94317 515.703426,1187.1427 513.046096,1185.32084 C509.035726,1182.57914 504.939146,1179.80535 500.771366,1177.03156 L500.505256,1150.00672 C507.663956,1157.33694 514.818896,1165.19482 521.659016,1173.07766 C521.254226,1178.93898 521.010606,1184.82883 520.879426,1190.72224 Z M501.221126,1222.10742 L501.052466,1206.0173 C504.748006,1208.63778 507.858846,1211.61836 510.561166,1214.65242 C514.594016,1219.28728 517.599916,1224.11111 519.852476,1228.05075 C520.193546,1228.63189 520.523366,1229.21303 520.845696,1229.76565 C516.081976,1227.63717 509.343056,1224.77425 501.221126,1222.10742 Z M475.843366,1161.10544 C471.274536,1158.31739 466.724456,1155.60421 462.249337,1153.05147 C445.439521,1143.42877 429.697887,1135.74916 417.168295,1132.33005 C388.788378,1124.61121 336.37998,1105.23747 275.928357,1103.29439 C273.979393,1100.59904 272.101641,1097.8609 270.328833,1095.0265 C264.605625,1085.89938 260.546532,1076.21251 260.38162,1065.70206 C260.392864,1064.86778 260.426596,1064.04777 260.482816,1063.19566 C261.071253,1054.32881 265.186566,1045.64734 267.9451,1037.2618 C269.86408,1031.4183 271.299567,1025.45002 272.334018,1019.34626 C278.99048,986.042958 275.977082,945.170563 255.505461,918.65556 C243.099554,902.569007 215.829047,894.500773 194.386693,894.500773 L192.655113,894.500773 C190.27138,894.500773 187.951363,894.597036 185.758778,894.818083 C177.678073,895.559662 170.223284,898.158753 165.939311,903.856074 C162.81722,903.185801 159.683886,902.761532 156.666739,902.615355 C156.168254,902.569007 155.669769,902.55118 155.182528,902.536919 C148.481089,896.818207 139.122313,893.156662 129.467444,891.680635 C128.815291,884.029539 126.776374,876.289312 124.812418,869.814759 C120.472225,855.510847 113.553402,844.116206 98.643825,838.130097 C80.098681,830.767789 59.06486,832.379297 39.537737,830.314998 C31.280875,829.445069 22.769149,827.680255 17.709338,820.938306 C17.229593,820.29299 16.929752,819.619152 16.813564,818.938183 C16.997216,812.777375 29.395627,806.284997 33.998181,803.903388 C45.275938,798.156153 58.23655,796.198813 69.390622,790.134268 C78.535762,785.174961 83.539353,777.249339 86.099242,768.346829 C88.599164,767.730035 90.701796,767.063327 92.234731,766.410881 C105.292792,760.877563 110.064006,751.147908 110.659939,739.906573 C111.372061,729.396121 108.38115,717.477383 105.037927,706.524836 C106.278518,706.261005 107.545345,705.979348 108.808423,705.676299 C112.207867,704.909763 124.310185,703.0986 126.049261,699.900542 C126.469038,699.126876 126.877571,698.346079 127.274859,697.583109 C128.976455,695.165847 130.314494,691.703958 131.258992,688.548684 C131.95987,686.566387 132.559551,684.544872 133.001816,682.455616 C135.190653,672.330215 129.085147,664.090848 122.810982,655.858611 C119.010501,650.803041 115.097581,645.669035 112.919988,639.575968 C111.945506,636.798613 111.308345,633.935691 110.967276,631.029986 C108.868391,609.114197 123.05835,584.20357 134.87582,567.179348 C146.603337,550.283476 165.309646,539.191883 184.806784,532.00784 C208.546667,523.30142 234.377939,519.789618 260.340392,519.361784 C261.34111,519.361784 262.353072,519.354653 263.357538,519.354653 C283.679238,519.354653 303.993442,521.180078 323.389384,523.772038 C363.133262,529.080743 401.153057,541.605579 440.874447,545.958789 C441.106823,549.256675 441.335452,552.076813 441.534096,554.394246 C443.261928,573.978341 451.893591,716.275883 460.112972,853.635509 C464.217046,922.263625 468.216166,989.711633 471.180836,1039.95716 C471.323266,1042.4172 471.469436,1044.84159 471.611866,1047.21607 C464.010896,1041.57936 448.366715,1032.03866 428.367344,1023.77434 C408.319248,1015.53854 383.912219,1008.66824 358.901761,1008.61832 C356.836609,1008.61832 354.793944,1008.6825 352.747532,1008.77876 C352.305267,1008.58624 351.81053,1008.44719 351.184612,1008.44719 L350.967228,1008.44719 C350.412523,1008.46145 349.786605,1008.66824 349.359333,1009.00337 C348.572251,1009.59878 348.373606,1010.24053 348.257418,1010.58993 C348.174962,1010.99993 348.174962,1011.21741 348.174962,1011.37785 L348.174962,1014.00903 L350.952236,1013.82007 L351.192108,1013.82007 C351.405745,1014.00903 351.653113,1014.22651 351.934214,1014.54026 C354.584056,1017.34614 360.191076,1024.80114 370.992835,1042.21041 C382.263096,1060.32918 392.693802,1076.13051 405.309598,1088.5163 C417.880417,1100.93418 432.662561,1109.86877 452.200927,1114.08294 C456.439924,1114.99921 461.608428,1117.47352 467.264176,1121.14933 C470.097666,1122.98545 473.036106,1125.14957 476.060746,1127.53118 L475.843366,1161.10544 Z M475.487306,1215.96087 C469.805326,1215.1266 463.860976,1214.64172 457.774215,1214.62389 C437.220139,1214.62389 414.915743,1220.42461 395.628493,1238.16189 C379.339649,1253.17885 367.78454,1267.9106 359.010453,1281.41589 C359.044185,1275.39056 359.044185,1269.34384 358.909257,1263.32565 C358.601921,1247.39953 357.387566,1231.5162 353.74825,1215.90383 C351.413241,1205.80339 347.758933,1196.16286 343.081419,1186.99296 C369.426168,1195.65303 397.963502,1202.54472 423.577389,1202.54472 C432.831221,1202.54472 441.725245,1201.6427 449.959618,1199.5784 C457.616799,1197.66028 464.415686,1196.8367 470.509946,1196.8367 C472.275256,1196.8367 473.965606,1196.91514 475.610986,1197.04705 L475.487306,1215.96087 Z M185.110373,926.078477 C181.617229,925.019589 179.405904,922.609458 178.352714,919.586098 C178.337722,919.297311 178.318982,919.03348 178.307738,918.748257 C180.99506,920.908818 183.337565,923.368863 185.110373,926.078477 Z M162.626072,911.503604 C162.596088,911.628389 162.584844,911.738912 162.558608,911.853001 C162.288751,911.296817 161.988911,910.729938 161.685322,910.195145 C162.063871,910.305669 162.438672,910.430454 162.824716,910.537412 C162.761,910.872549 162.68604,911.189859 162.626072,911.503604 Z M145.047914,920.841078 C145.370243,918.323989 146.056128,916.106383 147.12431,914.291654 C148.754694,917.621628 149.601744,921.347348 149.343131,925.429596 C146.858202,924.52758 145.467691,922.926768 145.047914,920.841078 Z M113.68833,898.654327 C113.673338,899.370949 113.620866,900.076874 113.583386,900.789931 C113.343513,904.936354 112.496463,909.146952 110.386335,912.762148 C109.261932,914.687401 108.332426,915.646462 107.3467,915.974468 C105.772537,915.596548 103.5837,914.986884 103.238883,913.503727 C103.306347,905.01479 107.680273,900.2694 113.68833,898.493889 C113.68833,898.547368 113.68833,898.600848 113.68833,898.654327 Z M66.718292,766.5321 C66.036155,766.582014 65.361513,766.59271 64.67188,766.59271 C59.803217,766.59271 54.900823,765.45895 50.459433,762.98821 C46.377852,760.717125 44.605044,756.488701 44.773705,752.303059 C45.931839,746.858873 50.759274,741.6393 56.681126,740.569716 C61.178736,740.80859 65.695086,743.190198 69.46933,745.158234 C71.639427,746.30982 72.613909,748.26716 72.962474,750.54894 C73.284802,753.522386 72.580177,756.930796 72.242856,760.011199 C72.025472,761.947148 71.684403,763.854573 71.230894,765.729912 C69.742935,766.111397 68.243731,766.378793 66.718292,766.5321 Z M490.445606,539.773024 C483.837866,540.814086 477.113936,541.341748 470.378766,541.459403 L469.453006,541.459403 L464.441926,470.781249 C465.011616,471.155604 465.588816,471.537089 466.154766,471.897182 C471.911706,475.683512 477.623666,479.555408 483.264416,483.541394 C484.085236,495.674049 485.310836,507.50722 486.802536,518.235155 C487.885716,526.114428 489.118806,533.384038 490.445606,539.773024 Z M532.262126,524.064391 C530.208216,525.365719 528.116836,526.595741 525.980466,527.758023 C526.917466,525.412068 527.843226,523.026894 528.772736,520.638155 C529.945856,521.771914 531.115236,522.91637 532.262126,524.064391 Z M575.795246,471.408739 C574.802016,475.113067 573.295326,478.76035 571.455046,482.282849 C564.438776,495.6277 554.161736,507.664093 541.890766,517.283224 C539.042276,514.595001 536.133826,511.949562 533.176646,509.364732 C534.402246,506.198762 535.635336,503.07914 536.845946,500.084303 C539.315876,493.991236 541.677126,488.340264 543.895946,483.716093 C546.103526,479.081226 548.198656,475.433942 549.866526,473.490863 C554.881356,467.501189 560.619556,458.47746 565.169636,448.248666 C566.147866,446.034625 567.066136,443.752845 567.913186,441.442542 C574.903216,449.69617 577.965336,460.395582 575.795246,471.408739 Z M587.631456,981.247654 C575.079376,954.297686 565.143406,926.374396 559.986146,896.251327 C554.802646,866.188867 554.727686,835.463266 559.356476,805.386545 C563.629206,777.691434 574.356006,751.258432 584.085836,724.950214 L587.631456,981.247654 Z M584.678026,571.079767 C575.544126,554.230243 563.528016,538.995793 549.859026,525.06267 C563.010786,516.09242 578.104016,501.752855 586.327146,485.841001 C585.659996,517.019393 585.112796,545.951658 584.678026,571.079767 Z M484.092726,298.271506 C496.273756,290.848589 505.096566,284.933785 507.795136,283.208189 C510.246326,281.664422 515.429826,278.780108 521.718986,275.425178 C531.167706,270.351781 543.217556,264.108972 552.864926,259.142534 C555.867086,257.598767 558.633116,256.172654 561.028096,254.942632 L486.881246,365.359421 L490.359396,368.019121 L490.355646,368.029817 L490.468086,368.257995 C490.711706,368.774961 491.108996,370.322293 491.067776,373.031908 C491.108996,378.062521 489.954616,387.093381 486.517686,402.359919 C483.440576,416.139734 482.169996,433.688053 482.169996,452.202564 C482.169996,458.441807 482.312426,464.78801 482.586026,471.123516 C476.315616,466.895091 469.988976,462.720146 463.579876,458.609376 L460.558985,416.075559 C464.408186,370.746562 472.762496,331.792289 484.092726,298.271506 Z M85.027312,703.034425 C84.472607,703.048686 83.910405,703.062947 83.348204,703.062947 C81.882733,703.062947 80.406018,703.016599 78.906815,702.891814 C78.685682,699.536883 78.963035,696.467175 79.776352,693.440251 C80.55219,691.693262 81.826513,690.299237 83.816705,689.625399 C85.034808,694.007131 86.429067,698.399558 87.79709,702.795551 C86.890072,702.906075 85.964314,702.988076 85.027312,703.034425 Z M1179.5169,138.714433 C1179.84672,138.454168 1180.16156,138.208163 1180.49513,137.987116 C1185.50996,152.383725 1188.69202,173.557936 1170.91522,173.557936 L1170.52168,173.557936 C1168.33659,161.197103 1168.56897,147.221196 1179.5169,138.714433 Z M1235.02115,145.734474 C1236.68901,147.189109 1238.2182,148.764964 1239.55249,150.48343 C1241.89125,153.46044 1243.15058,157.097028 1242.40473,160.747877 C1242.01119,162.630346 1240.94675,164.441509 1239.67243,165.871187 C1238.61174,167.069122 1237.33742,167.971139 1235.99563,168.86959 C1235.94691,168.915939 1235.8757,168.965852 1235.83072,168.994375 C1235.71453,168.801849 1235.5871,168.584367 1235.41469,168.341928 C1230.29866,160.91188 1231.02952,152.658252 1235.02115,145.734474 Z M1277.58728,156.023878 C1278.33313,151.474578 1279.60746,146.857538 1281.26033,142.304672 C1287.10722,150.661694 1290.80276,161.763982 1281.38026,165.229437 C1280.20339,165.664401 1278.92532,166.03519 1277.65474,166.299021 C1277.61726,166.206324 1277.58728,166.127888 1277.55355,166.017364 C1276.47412,162.819306 1277.08879,159.243328 1277.58728,156.023878 Z M1451.225,44.377067 C1454.20092,40.854568 1458.98338,36.854322 1462.7951,36.854322 C1464.95021,36.854322 1466.78673,38.130693 1467.81368,41.489189 C1469.70643,47.671388 1465.84223,53.600452 1461.23593,58.178274 C1452.70546,55.932147 1445.18696,51.521893 1451.225,44.377067 Z M1539.68924,474.799322 C1538.29498,472.916853 1532.57177,471.394477 1528.82751,471.394477 C1526.2114,471.394477 1524.53604,472.121795 1525.92655,474.007829 C1535.69761,487.252852 1529.71953,504.102376 1519.97096,515.575454 C1506.257,531.69766 1484.09503,538.678482 1462.87756,538.678482 C1461.82062,538.678482 1460.79366,538.664221 1459.74797,538.628568 C1422.6277,537.462721 1395.93064,514.776831 1371.78222,490.522216 C1335.75637,454.455822 1299.77924,419.36988 1258.65609,388.40897 C1237.47235,372.457897 1211.53988,364.286271 1185.07894,364.286271 C1176.93077,364.286271 1168.71514,365.056372 1160.58946,366.625096 C1111.15698,376.15153 1068.33973,407.329922 1032.24267,439.371113 C1013.55885,455.899761 995.594636,473.711911 979.586896,492.750518 C977.458026,492.946608 975.362896,493.181917 973.286496,493.4814 C976.431076,428.286651 986.636906,363.865567 1011.91722,301.715569 C1026.93174,264.900465 1039.94482,227.133431 1060.34898,192.535933 C1078.62052,161.535804 1106.25458,131.113252 1146.50819,130.742462 C1146.74057,130.724636 1146.98794,130.724636 1147.23531,130.724636 C1153.59567,130.724636 1159.9373,131.683697 1166.13651,133.252421 C1159.44632,138.240251 1155.05365,145.930564 1154.63762,156.879546 C1154.45772,162.705217 1155.34974,168.459582 1156.59408,174.178295 C1157.22749,177.069739 1162.44097,178.5422 1164.89217,179.141168 C1169.51347,180.30345 1174.4271,181.055724 1179.06714,181.055724 C1190.31116,181.055724 1199.92106,176.624078 1199.63621,162.630346 C1199.52002,155.47839 1198.44434,143.97679 1193.86053,138.03703 C1192.73238,136.553872 1191.06076,135.288197 1189.05558,134.175829 C1192.10271,133.395032 1195.29601,133.067026 1198.50056,133.067026 C1203.30925,133.067026 1208.14793,133.797909 1212.56683,134.838972 C1215.73015,135.576985 1218.93845,136.603786 1222.05304,137.90868 C1220.74499,139.862454 1219.65432,142.023015 1218.83725,144.383232 C1214.25344,157.777997 1221.49084,172.520439 1235.767,176.431553 C1237.35616,176.866518 1238.99404,177.069739 1240.63192,177.069739 C1249.24859,177.069739 1257.72658,171.336765 1257.39676,162.291644 C1257.06693,152.736688 1249.54468,145.139072 1239.88607,139.463143 C1245.4706,133.94052 1253.22148,130.261149 1261.02108,130.261149 C1263.77212,130.261149 1266.53815,130.724636 1269.20673,131.72648 C1268.77571,132.696237 1268.34469,133.669559 1267.9474,134.646446 C1264.1844,143.85557 1258.88472,157.207552 1264.69788,166.569983 C1268.17603,172.106866 1274.04541,174.014292 1280.31583,174.014292 C1287.67317,174.014292 1295.6077,171.422332 1301.00483,168.948026 L1301.51831,168.30271 C1302.24917,153.856187 1295.85507,141.58092 1285.00834,133.419989 C1287.22341,128.74947 1289.74207,124.257214 1292.41065,120.089399 C1304.71536,100.990183 1314.7188,78.46473 1339.63555,72.557057 C1344.30557,71.437559 1349.06179,70.963376 1353.84425,70.963376 C1374.46579,70.963376 1395.84443,79.612751 1415.78758,81.833922 C1418.82347,82.176189 1421.9643,82.354453 1425.22507,82.354453 C1442.00865,82.354453 1460.80866,77.730282 1472.83227,66.742082 C1476.10803,67.144959 1479.42501,67.333919 1482.75324,67.333919 C1505.64608,67.333919 1529.05988,57.953662 1543.59466,41.264576 C1546.16205,38.35174 1537.68405,34.169664 1532.8004,34.169664 C1531.55606,34.169664 1530.55159,34.426365 1530.00438,35.050289 C1517.48604,49.411246 1498.31872,58.010706 1478.8928,59.746999 C1486.18267,48.683928 1482.2735,37.08963 1469.4703,31.698924 C1465.45993,30.012545 1461.60323,29.242444 1457.94518,29.242444 C1447.30833,29.242444 1438.36558,35.813259 1432.15139,45.550045 C1432.0352,46.1811 1432.18512,46.787198 1432.66486,47.31486 C1439.26136,54.317074 1447.2746,59.39047 1456.03744,62.674095 C1444.92085,71.177293 1430.81335,74.771098 1416.79955,74.771098 C1414.57698,74.771098 1412.3619,74.689096 1410.16932,74.507267 C1387.89865,72.746017 1366.69242,63.829247 1344.32056,63.829247 C1340.92487,63.829247 1337.51043,64.039598 1334.06601,64.495954 C1313.09591,67.323223 1300.61129,79.331093 1289.89199,95.795567 C1283.41168,105.778357 1276.96886,115.739755 1271.73664,126.314382 C1270.43233,125.840199 1269.09055,125.40167 1267.71503,125.02375 C1263.39357,123.807988 1258.75354,123.180499 1254.15098,123.180499 C1243.74651,123.180499 1233.36453,126.328643 1226.23957,132.985025 C1218.92346,130.175582 1211.68605,128.268157 1206.2402,127.198572 C1201.58892,126.296555 1196.88892,125.818808 1192.32009,125.818808 C1185.77232,125.818808 1179.50191,126.802825 1173.99608,128.931299 C1170.60414,128.093458 1167.39584,127.416054 1164.97463,126.784999 C1156.36545,124.542437 1147.91369,123.462156 1139.68307,123.462156 C1112.63744,123.462156 1088.0655,135.166978 1068.9694,155.66735 C1042.04746,184.560397 1026.77432,222.50926 1012.58811,258.094341 C992.937306,307.174016 974.785696,355.654722 966.090316,407.743495 C965.333226,412.271403 964.628596,416.799312 963.976446,421.337916 C963.714086,420.756775 963.440476,420.157807 963.163126,419.548144 C955.445976,402.859058 944.059526,380.925442 930.926506,361.519612 C924.374986,351.818479 917.377456,342.716313 910.136306,335.232786 C903.026336,327.827695 895.680236,321.95211 888.184226,318.59718 C886.141556,316.96428 869.792746,303.794128 851.150156,289.525869 C841.184206,281.903296 830.592336,273.991934 821.136106,267.335553 C811.694876,260.647083 803.460496,255.259942 797.973416,252.675112 C792.516316,250.072456 784.053316,247.181013 773.888716,243.833213 C758.626826,238.827556 739.579446,232.773707 721.780156,225.589664 C703.984616,218.373533 687.538356,209.945206 677.609886,200.507904 C676.151906,199.07466 675.124956,197.837507 674.521526,196.789314 C673.940586,195.733991 673.741936,194.938933 673.741936,194.32927 C673.741936,193.630474 673.940586,193.095682 674.570246,192.343408 C675.630936,191.099124 678.247046,189.676577 681.961326,188.549947 C687.572086,186.849308 695.562846,185.758331 704.539326,185.123711 C713.515806,184.435612 723.436776,184.246652 733.117886,184.246652 L734.429686,184.246652 C751.809196,184.246652 768.045576,184.973969 776.066306,184.973969 C784.206986,184.973969 795.717116,184.592484 809.277406,184.592484 C836.319286,184.592484 871.430626,186.057815 903.266206,194.746408 L903.693486,194.867627 L904.165726,194.828409 C904.165726,194.828409 905.552496,194.746408 907.966206,194.632319 C910.334956,194.568144 913.734396,194.489707 917.609836,194.489707 C925.315736,194.489707 935.045566,194.828409 942.961366,196.254522 C946.908016,196.978274 950.393666,197.955162 952.837366,199.110313 C954.021736,199.719976 954.984976,200.347466 955.644626,200.992782 C956.281786,201.627402 956.637846,202.240631 956.799006,202.836033 C956.956426,203.406478 957.113846,203.894922 957.349966,204.369104 L957.979636,205.210511 C958.264476,205.542082 958.931626,206.069744 959.992316,206.069744 C960.708176,206.069744 961.382826,205.77026 961.738886,205.470776 C962.402276,204.953811 962.525966,204.540238 962.683386,204.187275 C962.885776,203.705962 962.923256,203.320911 962.975726,202.871686 C963.039446,202.429591 963.039446,201.973235 963.039446,201.406355 C963.039446,197.955162 962.091196,191.740875 959.047816,184.064822 C954.542706,172.634528 945.243896,158.116699 927.489586,146.244309 C909.709036,134.339832 883.495466,125.162796 845.284526,124.114603 L844.988426,124.114603 L844.696086,124.157386 C844.696086,124.157386 841.142976,124.784876 835.457246,125.776024 C826.949266,127.241355 813.707556,129.419743 800.728206,131.262993 C787.925006,133.038504 775.324206,134.503835 768.079306,134.503835 L767.288476,134.503835 C765.575636,134.503835 764.207616,134.364789 763.480496,134.222178 C763.547966,134.115219 763.637916,133.986869 763.727866,133.862084 C764.398756,132.885197 765.665586,131.53039 767.172286,130.065059 C769.462316,127.8118 772.232096,125.244797 774.518386,122.570836 C776.782176,119.857656 778.791106,117.080301 778.824846,113.739632 C778.873566,112.605872 778.592466,111.489939 778.004026,110.43105 C777.093266,108.840934 775.590316,107.642999 773.648846,106.666112 C771.722366,105.721312 769.259926,104.972603 766.179066,104.395027 C764.788556,104.184675 763.338076,104.067021 761.790146,104.067021 C752.615026,104.116935 740.565176,107.942483 727.192286,113.586325 C687.223526,130.471501 636.333066,163.978023 636.250616,164.013676 L637.749816,166.063713 L600.176036,205.028682 L599.640066,205.114248 L599.321486,203.099864 C599.265266,203.099864 566.751296,207.752557 522.446096,217.853002 C541.238606,188.785256 562.276176,166.491547 582.841496,149.428106 C609.609776,127.198572 635.620946,113.892939 654.923186,106.106363 C664.566816,102.191683 672.512596,99.7031158 678.048396,98.159349 C678.123356,98.141522 678.179576,98.123696 678.254546,98.109435 C679.041626,97.906214 679.768736,97.731515 680.465866,97.567512 C682.478546,97.025589 684.060206,96.711844 685.120896,96.47297 C685.675596,96.330359 686.080386,96.237662 686.342746,96.173486 L686.627596,96.141399 L686.627596,96.109311 C686.676316,96.102181 686.702556,96.091485 686.702556,96.091485 L685.683096,91.281919 C685.675596,91.281919 685.641866,91.28905 685.604386,91.29618 L685.589396,91.281919 C685.589396,91.28905 685.394496,91.321137 685.019696,91.4174 C684.045216,91.602795 681.991306,92.037759 679.000396,92.818556 C666.583246,95.874003 638.012176,103.767537 605.494456,118.624068 C562.006326,138.479125 511.396966,170.744928 483.313146,220.80862 C481.892646,223.361362 480.517126,225.967584 479.167846,228.627284 C474.767686,229.832349 470.322546,231.073068 465.839926,232.367265 C430.736085,242.481971 393.840693,255.338378 362.173772,271.328669 C330.544332,287.351047 304.008434,306.418176 289.732271,329.243112 L286.220388,334.926172 L292.828126,332.854743 L292.85811,332.826221 C293.765128,332.555259 302.509231,330.034605 315.837148,330.034605 C327.695846,330.034605 343.156379,332.027598 360.03366,339.329295 C364.703678,341.315158 370.007109,342.177956 375.696586,342.177956 C387.20297,342.177956 400.482163,338.762416 414.244849,333.692584 C426.590788,329.104066 439.307779,323.14648 451.267673,316.910801 C449.626046,325.463913 448.183063,334.14181 446.90874,342.858925 C441.961369,376.9145 439.656344,411.697393 438.824286,443.225183 C412.250909,427.245588 384.751773,412.453233 356.911569,399.34369 C301.643441,373.363479 243.002106,354.438961 187.089321,329.735121 C158.983008,317.367157 131.547589,303.298554 106.241038,286.1852 C85.443341,272.148684 69.113269,252.739287 56.186389,232.064216 C30.358865,190.753292 18.312767,139.013917 29.687972,91.699057 C36.962856,61.387028 60.13679,35.987958 86.983772,19.298872 C98.718786,11.993609 113.351009,5.437055 127.74336,5.437055 C128.920235,5.437055 130.089613,5.469143 131.266488,5.56184 C149.575508,6.998649 162.337475,21.095775 170.451913,35.467427 C171.347687,37.064673 174.537242,37.774165 177.775521,37.774165 C182.228154,37.774165 186.744504,36.444314 185.507662,34.262362 C172.217225,10.795674 150.103977,0 126.049261,0 C113.553402,0 100.525325,2.916401 87.935766,8.453284 C51.636308,24.486358 22.413088,56.830598 13.481585,93.980838 C10.925443,104.569726 9.688601,115.401053 9.568664,126.264468 L9.568664,129.779836 C9.947213,165.001259 21.929595,200.618427 39.567721,230.741496 C66.49716,276.623113 111.180913,303.184465 159.425273,326.094968 C214.577213,352.335445 273.207304,371.299181 329.247521,395.781973 C367.042435,412.299926 403.563026,432.468727 438.595658,454.252601 C438.486966,460.484714 438.445738,466.55639 438.445738,472.43554 C438.445738,500.070042 439.446456,523.558121 440.447174,539.491367 C438.509454,539.252493 436.605466,539.010054 434.682737,538.742658 C410.170764,535.355639 386.535825,528.578038 362.413645,523.504642 C341.451035,519.080126 320.226065,516.359816 298.877411,514.776831 C288.274296,513.996034 277.525009,513.557504 266.753234,513.557504 L266.685769,513.557504 C265.775003,513.539678 264.838001,513.539678 263.927235,513.539678 C229.95529,513.539678 195.409899,517.917844 164.672484,530.959647 C128.466726,546.336709 105.806269,577.704061 97.253314,614.148375 C96.158896,618.836721 95.712883,623.207757 95.844063,627.357746 C95.967748,640.627726 102.005789,651.533924 111.338329,662.971349 C115.123817,667.613347 117.323898,672.176908 117.698699,677.531962 C117.724935,678.822594 117.649975,680.188097 117.47007,681.589253 C116.521824,688.912342 113.433465,696.281781 105.806269,698.720434 C104.831787,699.034178 103.842313,699.351489 102.86783,699.647407 C101.259935,694.666708 99.753236,690.031841 98.685053,685.946028 C98.254032,684.327389 96.068944,683.920947 94.618465,683.724857 C90.817984,683.218587 86.387839,682.68736 82.006417,682.68736 C80.58967,682.68736 79.180419,682.740839 77.797404,682.858493 C74.941422,683.026061 72.1604,683.446765 69.510558,684.295302 C64.285835,685.946028 63.240141,694.328006 63.288865,700.388986 C63.273873,702.53172 63.405053,704.496191 63.581209,705.979348 C63.738626,707.619378 66.388467,708.007994 67.64405,708.196954 C72.08544,708.860096 76.515585,709.191667 80.930739,709.191667 C83.842941,709.191667 86.751396,709.049056 89.65985,708.78166 C92.605784,718.518445 95.083218,728.355059 95.17317,738.459069 L95.17317,739.16856 C95.04199,745.489805 92.392148,751.212083 88.231859,755.78634 C88.231859,755.686512 88.243103,755.575988 88.243103,755.497552 C88.434251,753.369079 89.558654,747.661062 87.98449,745.375716 C87.489753,744.356045 86.545255,743.457594 84.813675,742.352357 C81.095651,740.002836 76.984086,738.302196 72.797561,736.804778 C68.333684,735.196835 63.438785,734.501605 58.607603,734.501605 C58.307762,734.501605 58.004173,734.501605 57.708081,734.519432 C57.269564,734.501605 56.823551,734.487344 56.381286,734.487344 C55.702896,734.487344 55.035751,734.501605 54.364857,734.530128 C44.642524,735.022137 33.2111,738.60168 29.931592,748.391945 C28.720986,751.985749 28.507349,755.059022 29.084543,757.672374 C30.643714,768.17213 43.529366,771.445059 57.528176,771.445059 C60.597795,771.445059 63.719886,771.309578 66.785756,771.042182 C67.73775,770.960181 68.674752,770.913832 69.611754,770.853222 C67.655294,775.766181 64.638148,780.258437 60.290458,783.723891 C48.915254,792.779708 32.026729,794.469651 19.058621,801.086815 C11.776241,804.819666 5.610768,810.224633 0.663397,816.467442 C0.326076,816.920233 0.134928,817.39085 0.07496,817.879294 L0.07496,818.431913 C0.044976,818.563828 0.01874,818.685048 0,818.813398 L0,819.587064 C0.580941,824.13993 10.678075,830.454044 13.125524,831.591369 C30.006553,839.228204 51.400183,836.821638 69.551786,838.853849 C89.79103,841.139195 101.53354,849.617436 108.141278,867.575762 C110.88482,875.087812 112.82254,883.131088 113.485937,891.210018 C109.576765,891.491675 105.832505,892.186905 102.43681,893.274316 C95.221894,895.559662 87.388557,903.848943 87.396053,910.872549 C86.976276,914.651748 88.749084,918.106506 94.179948,920.088803 C97.905468,921.457872 102.106985,922.292148 106.259778,922.374149 C107.031868,922.420498 107.800209,922.452585 108.583543,922.452585 C116.015843,922.452585 123.084586,919.839234 126.487778,912.908325 C128.447986,908.872426 129.369996,904.351648 129.591128,899.688259 C129.591128,899.620518 129.598624,899.556343 129.598624,899.495733 C133.211704,900.786366 136.716092,902.693792 139.74823,905.171663 C133.046792,908.398243 128.815291,914.748011 129.336264,925.208548 L129.336264,925.226375 C129.34376,925.572207 129.351256,925.935866 129.369996,926.29596 C129.49368,926.944841 129.924701,927.433285 130.550618,927.700681 C137.536906,930.866651 144.178376,932.207197 151.486992,932.207197 L153.368492,932.207197 C155.081332,932.207197 156.816659,932.125196 158.585719,931.968323 C160.366023,931.825712 164.054063,931.640317 164.47384,929.415581 C164.664988,928.456521 164.803665,927.508155 164.897365,926.591878 C165.766903,927.607983 166.887557,928.438694 168.3118,929.034096 C174.229905,931.54049 180.282938,932.585117 186.463404,932.585117 C186.924409,932.585117 187.381666,932.567291 187.850167,932.567291 L188.738445,932.567291 C192.017952,932.567291 195.316199,932.299895 198.603202,931.775798 C200.019949,931.54049 202.617319,930.895174 202.512374,929.230187 C202.662295,928.959225 202.677287,928.659742 202.561098,928.360258 C199.172899,920.356199 190.417552,913.264853 180.076798,908.54442 C182.363083,903.8739 186.860692,900.914716 193.899452,900.661581 C195.271223,900.757843 196.624254,900.928977 197.89108,901.085849 C211.129045,902.836403 227.590297,908.348329 237.226426,917.600236 C254.231138,933.957751 258.031619,960.440667 258.87492,982.670201 C258.916149,984.278143 258.957377,985.868259 258.968621,987.46194 C259.133533,998.806668 258.106579,1010.16209 256.251315,1021.36777 C254.272367,1033.1546 249.212556,1044.05366 246.161677,1055.5517 C244.452585,1061.96921 244.475073,1068.31898 245.708168,1074.49404 C247.540944,1084.63014 252.623243,1094.29919 258.784968,1103.23022 C221.649704,1104.18215 182.111966,1112.41795 143.676143,1134.20895 L136.210111,1138.48729 L144.912986,1138.81173 C144.946718,1138.81173 146.296001,1138.87234 148.739702,1138.98287 C157.360121,1139.36079 179.390912,1140.55516 202.594831,1143.07938 C214.179924,1144.37001 226.079849,1145.94586 236.724192,1147.94599 C247.357292,1149.89976 256.764792,1152.29563 263.256342,1155.05159 C275.257464,1160.12499 297.089611,1170.24326 322.714743,1179.81961 C324.142734,1182.08713 325.492017,1184.3903 326.781332,1186.75408 C346.694499,1223.32675 344.805503,1267.31163 343.553668,1308.34447 C338.625037,1317.82455 334.659645,1325.88922 330.578064,1331.81472 C326.462751,1337.80083 322.396162,1341.41246 317.223911,1342.84214 C315.357403,1343.33415 314.00812,1343.77267 312.947434,1344.26112 C312.565137,1344.45364 312.20158,1344.65686 311.823031,1344.92783 C307.951339,1320.24894 300.770155,1294.83918 283.855395,1276.55998 C272.255309,1264.07079 257.094617,1259.07583 241.173078,1259.07583 C213.310386,1259.07583 183.041472,1274.38515 165.152229,1291.73382 C142.023271,1314.16657 131.813697,1344.15059 113.789526,1369.84915 C108.516079,1377.31841 101.73968,1383.66818 93.763919,1388 L106.465918,1388 C109.385617,1386.10327 112.159143,1384.01045 114.74152,1381.70015 C132.885628,1365.32481 141.23619,1339.45512 154.121842,1319.50736 C166.816345,1299.8484 183.06396,1282.7707 205.0048,1272.42781 C215.776575,1267.35798 228.632243,1263.372 241.045646,1263.372 C249.2238,1263.372 257.218301,1265.10829 264.305784,1269.42228 C277.243908,1277.25521 284.953561,1291.12059 290.410661,1304.29431 C301.264892,1330.47774 304.671832,1359.55974 306.227255,1388 L316.331885,1388 C315.919604,1381.37927 315.413623,1374.75141 314.727737,1368.11642 C314.1393,1362.36206 313.468407,1356.40803 312.628853,1350.36132 C312.771277,1350.42549 312.913702,1350.45401 313.063622,1350.52175 C314.768966,1351.00307 317.01777,1351.11359 320.151105,1351.14568 C325.668173,1351.14568 333.640186,1350.55028 342.785326,1349.30599 C342.567942,1362.19092 342.313077,1375.1115 342.163157,1388 L357.477518,1388 C357.559974,1374.26297 357.747375,1360.49385 357.964759,1346.72473 C357.968507,1346.72473 357.976003,1346.72473 357.976003,1346.72473 C372.630715,1343.75841 388.192445,1339.20198 400.452179,1332.53847 C418.952347,1322.50577 439.274047,1306.00564 458.651249,1292.06539 C464.243276,1288.04375 469.741606,1284.26455 475.067526,1280.88823 L474.404126,1384.78768 C468.459786,1384.37411 462.496706,1384.15306 456.533625,1384.1388 L453.748855,1384.1388 C437.609932,1384.2208 421.426033,1385.6077 405.354574,1388 L502.825276,1388 L501.667136,1268.19226 C504.500636,1267.46851 507.184206,1267.09059 509.676636,1267.09059 L510.561166,1267.09059 L511.198326,1266.6984 L511.232056,1266.68058 C511.880456,1266.32048 516.093226,1264.03514 522.164996,1262.48781 C523.851596,1304.305 526.733816,1346.16854 528.903916,1388 L545.383906,1388 C543.554876,1351.41664 541.036216,1314.90815 538.959816,1278.60645 C538.618746,1272.88773 538.270186,1267.12267 537.925366,1261.35761 C542.048176,1261.82823 546.354636,1263.04399 550.653606,1265.32577 C556.590446,1268.52739 562.594756,1273.78975 568.093086,1282.36069 C580.184156,1301.27808 587.545246,1312.78681 591.859206,1319.55728 C592.009126,1319.79615 592.159046,1320.03146 592.297726,1320.24894 L592.979856,1369.72793 C589.153146,1375.71047 585.498836,1381.8071 582.031926,1388 L633.724456,1388 C633.345906,1372.39833 632.952366,1356.42586 632.547586,1340.18244 C643.098226,1326.91602 654.443446,1314.23431 666.343376,1302.10166 C680.458366,1287.74427 697.560526,1275.83622 714.786376,1264.20627 C716.754076,1271.56502 718.493156,1278.98793 719.969876,1286.45363 C694.419696,1314.15231 687.369696,1351.98352 688.074326,1388 L703.399926,1388 C703.148806,1370.91873 704.786686,1353.90521 709.085656,1337.2696 C712.162766,1325.41504 716.937736,1314.74058 723.114446,1305.16067 C725.640606,1323.65735 726.487656,1342.54265 725.262056,1361.83083 C724.696106,1370.62281 723.661656,1379.35063 722.222426,1388 L737.619246,1388 C739.238386,1378.40226 740.419006,1368.67974 741.029926,1358.90017 C742.551616,1334.84164 740.707596,1311.35 736.326176,1288.32541 C757.461196,1265.87839 787.224126,1250.94342 818.808596,1241.25299 C853.069136,1230.76036 890.028246,1226.03636 927.133526,1226.03636 C965.681786,1226.03636 1004.34999,1231.13828 1040.30089,1240.14775 C1072.20768,1248.16963 1108.46591,1261.71414 1124.91217,1290.89597 C1132.87294,1304.96814 1131.59487,1319.02249 1124.72102,1330.09982 C1116.82772,1327.87508 1108.14358,1327.05863 1099.66184,1327.05863 C1090.43799,1327.05863 1081.43527,1328.03552 1073.90553,1329.22989 C1072.53001,1329.4545 1070.195,1329.97147 1069.9139,1331.56515 C1068.44843,1339.37668 1068.2198,1346.94221 1069.64029,1354.72166 C1070.15377,1357.54536 1074.93998,1357.92684 1077.23751,1358.1158 C1080.13097,1358.36181 1083.03942,1358.50442 1085.93288,1358.50442 C1102.34541,1358.50442 1118.41312,1354.22252 1130.67661,1343.72633 C1132.44941,1345.55888 1134.03107,1347.64814 1135.3841,1350.09749 C1138.06393,1354.86783 1139.08714,1360.39402 1138.60364,1365.8489 C1137.78283,1365.75264 1136.96951,1365.72055 1136.17868,1365.65994 C1134.31967,1365.56368 1132.38195,1365.51733 1130.403,1365.51733 C1121.42652,1365.51733 1111.60299,1366.60831 1103.56351,1369.17174 C1099.53815,1370.4802 1098.14389,1375.59995 1097.12818,1379.06897 C1096.64094,1380.75178 1102.69772,1384.9089 1103.88584,1385.8537 C1104.86782,1386.64876 1105.91352,1387.35468 1106.99294,1388 L1143.41234,1388 C1147.07039,1385.29039 1149.70149,1381.57536 1151.44057,1377.38259 C1153.66314,1380.21699 1154.55516,1383.92132 1154.54017,1388 L1170.09441,1388 C1169.99321,1386.91259 1169.86203,1385.81092 1169.62965,1384.69142 C1167.9393,1376.26309 1161.39528,1371.47492 1153.62941,1368.77956 C1154.47271,1361.59552 1153.14966,1354.09773 1149.90389,1348.26493 C1146.9692,1343.0311 1142.89511,1338.9845 1138.06393,1335.91123 C1149.24049,1320.67678 1146.81928,1300.66485 1137.01449,1285.09883 C1113.44326,1248.03059 1056.50727,1235.64123 1015.27169,1228.45719 C987.165366,1223.55849 958.459376,1220.9594 929.775866,1220.7847 L924.404976,1220.7847 C902.471626,1220.89879 880.557026,1222.42473 858.938516,1225.41957 C815.180526,1231.5162 767.370926,1245.46002 733.237816,1273.89671 C731.738616,1267.59686 730.063256,1261.35761 728.222986,1255.13263 C734.257276,1251.03612 740.194126,1246.90752 745.939816,1242.63988 C771.722366,1223.49788 796.346776,1202.99751 820.191606,1181.67712 C864.590516,1141.92779 906.189656,1097.6042 932.009686,1044.54211 C965.535616,975.742858 976.959546,900.633058 979.448226,824.959945 C980.700056,826.660584 981.846946,828.453921 982.933866,830.314998 C987.315286,837.737916 990.602296,845.987979 995.024946,852.608708 C995.306046,852.983062 995.579646,853.321764 995.976936,853.692553 C996.355486,853.995602 996.902696,854.373522 997.716016,854.498307 L998.570556,854.498307 C999.402616,854.359261 1000.10725,853.89934 1000.44832,853.503594 C1001.16044,852.658622 1001.28037,852.038263 1001.47527,851.346598 C1001.94002,849.232386 1002.0712,846.180504 1002.0712,842.001993 C1002.0712,827.904868 1000.36586,801.653695 1000.36586,777.07464 C1000.36586,762.278719 1000.99552,748.074635 1002.97447,737.767404 C1003.92647,732.612006 1005.26825,728.447756 1006.80868,725.738142 C1007.60326,724.411857 1008.43157,723.484884 1009.17743,722.910873 C1009.93827,722.30121 1010.60167,722.076597 1011.44122,722.04451 C1014.12105,721.969639 1016.53851,721.231625 1018.51746,719.937428 C1021.51962,717.951566 1023.41986,714.892553 1024.563,711.366489 C1025.70614,707.826164 1026.18963,703.729655 1026.18963,699.283748 C1026.14841,688.573641 1023.46483,675.760016 1020.09537,664.661293 C1018.43501,659.092322 1016.57225,653.986838 1014.76196,649.761979 C1012.98165,645.558511 1011.28006,642.278452 1009.65717,640.214153 C1007.87687,638.032201 1006.26148,634.04978 1005.03588,629.411348 C1003.17312,622.466179 1002.0712,614.037852 1001.47527,607.420688 C1001.16044,604.108541 1000.99552,601.213532 1000.88683,599.188451 C1000.8531,598.842619 1000.8456,598.525309 1000.83061,598.218695 C1001.16044,598.207999 1001.5165,598.200868 1001.90254,598.200868 C1005.07711,598.200868 1010.14066,598.767748 1015.5378,601.669888 C1020.97241,604.568462 1026.81555,609.78447 1031.56428,619.446385 C1038.16452,632.851846 1042.35479,642.517326 1047.62075,649.394755 C1050.22186,652.860209 1053.15655,655.594781 1056.74715,657.55212 C1060.30026,659.548678 1064.49803,660.678873 1069.44165,661.163751 C1070.98958,661.27071 1073.12219,662.179857 1075.67833,663.830582 C1080.1572,666.739853 1085.77547,671.809684 1092.33448,677.785097 C1102.26296,686.73752 1114.47771,697.715024 1129.58219,706.435704 C1144.72039,715.192037 1162.78579,721.702242 1184.2169,721.702242 C1187.78126,721.702242 1191.4543,721.516848 1195.19856,721.128232 L1200.34833,720.614831 L1196.84019,717.003201 C1196.84019,717.003201 1195.84697,716.026313 1194.10415,714.186628 C1188.06236,707.744163 1172.83795,691.204819 1159.1952,673.121708 C1152.40381,664.05163 1145.94224,654.625024 1141.29096,645.893648 C1136.57597,637.172968 1133.73498,629.154648 1133.73498,623.325412 C1133.73498,621.742426 1133.92988,620.355532 1134.32717,619.121944 C1135.31289,616.066497 1135.75516,613.367579 1135.75516,610.879012 C1135.75516,607.57043 1134.87437,604.711073 1133.26273,602.457815 C1130.84152,599.028014 1127.00731,597.117022 1122.94072,596.058134 C1118.8254,595.009941 1114.3203,594.703326 1109.96511,594.703326 C1103.60474,594.703326 1097.51798,595.345077 1094.19724,595.345077 L1094.02858,595.302294 C1093.92364,595.302294 1093.32396,594.485844 1092.83672,592.824423 C1092.0159,590.039937 1091.22132,585.348026 1089.29485,579.925232 C1086.33017,571.728648 1080.51326,561.760119 1067.42147,552.882567 C1055.15049,544.554067 1036.60535,537.19176 1008.07551,532.64246 C1010.77783,531.25913 1015.01682,529.886497 1021.39968,529.86867 C1025.63493,529.86867 1030.76595,530.467638 1037.01763,532.114798 C1049.59969,535.355639 1064.68917,545.816177 1081.3828,555.552963 C1098.06519,565.257661 1116.53162,574.324174 1136.57597,574.356261 C1137.51672,574.356261 1138.52119,574.324174 1139.50316,574.277825 C1140.72501,574.245737 1141.95061,574.210085 1143.14623,574.210085 C1160.98675,574.210085 1173.74871,580.296021 1182.84513,587.333888 C1191.85534,594.36819 1197.07257,602.418597 1199.24267,606.176404 L1199.86858,607.046333 L1200.51324,607.57043 C1200.82807,607.75939 1201.34155,607.980437 1202.03493,607.980437 L1202.13613,607.980437 C1202.97943,607.980437 1203.84147,607.445645 1204.14506,606.999985 C1204.69977,606.326146 1204.69977,605.944661 1204.76723,605.616655 L1204.84969,604.711073 C1204.84969,603.317048 1204.50487,601.363273 1203.86021,598.582353 C1201.64139,589.06305 1195.44968,570.976374 1184.06698,553.677625 C1172.6393,536.371745 1155.91569,519.789618 1132.50563,513.917598 C1129.2711,512.926449 1059.43821,491.877023 999.702456,491.830675 C999.455086,491.830675 999.207716,491.830675 998.967846,491.841371 C1027.389,458.937382 1061.16979,428.964054 1097.79908,405.187188 C1125.77421,387.036336 1158.99655,371.284919 1193.5307,371.284919 C1195.77951,371.284919 1198.04705,371.345529 1200.31085,371.488141 C1221.05607,372.725293 1237.73846,382.46921 1253.55505,394.509168 C1277.20498,412.513842 1299.61432,431.958891 1320.89926,452.462829 C1355.91315,486.315183 1386.95041,528.132378 1437.45482,541.263312 C1448.31655,544.097711 1459.69925,545.727045 1470.98825,545.727045 C1490.03937,545.727045 1508.82814,541.081483 1524.47232,529.790234 C1536.10989,521.393995 1545.21755,507.860183 1545.72728,494.208718 L1545.72728,491.859197 C1545.51364,486.0157 1543.67712,480.182898 1539.68924,474.799322 Z" id="Shape"></path>
        </g>
    </g>
</svg>