<?xml version="1.0" encoding="UTF-8"?>
<svg width="1260px" height="1270px" viewBox="0 0 1260 1270" version="1.1" xmlns="http://www.w3.org/2000/svg" xmlns:xlink="http://www.w3.org/1999/xlink">
    <title>floral-pattern-2</title>
    <g id="floral-pattern-2" stroke="none" stroke-width="1" fill="none" fill-rule="evenodd">
        <path d="M-90.0392099,1304.45549 C-89.6794011,1303.14703 -92.9214282,1302.17014 -95.8786066,1302.17014 C-98.0299632,1302.17014 -100.035148,1302.69067 -100.4062,1303.94922 C-101.245754,1306.88344 -101.688019,1309.62158 -101.751735,1312.16006 L-101.751735,1313.32591 C-101.643043,1317.65773 -100.38746,1321.37275 -98.1424035,1324.4175 L-87.7116969,1324.4175 C-91.5683972,1319.59724 -92.3442349,1312.40963 -90.0392099,1304.45549 Z M660.371984,786.220331 C663.962576,781.54268 667.987936,777.225124 672.560506,773.713321 C673.726137,776.04145 673.849821,779.111158 673.876057,781.478505 C673.928529,785.685538 671.672228,788.883596 667.90548,788.883596 C667.275815,788.883596 666.627409,788.80516 665.941524,788.6162 C663.970072,788.127757 662.088572,787.289915 660.371984,786.220331 Z M798.860884,910.627287 C790.206733,940.796704 778.745324,970.49907 762.820038,997.880437 C747.307032,1024.52379 727.375125,1048.58588 705.992739,1071.11133 C668.407713,1110.75727 625.759129,1146.09278 581.337737,1178.76146 C580.250814,1175.46714 579.107672,1172.18708 577.930797,1168.90346 C587.402014,1157.43751 596.018684,1150.89878 603.076184,1147.19445 C610.913269,1143.10151 616.786397,1142.42411 619.882252,1142.42411 C620.703066,1142.42411 621.336479,1142.50254 621.733768,1142.5382 L622.164789,1142.57741 L622.247245,1142.6095 L624.072525,1138.01385 C623.870133,1137.98176 597.70154,1124.25543 571.124414,1124.22691 C567.327682,1124.22691 563.489722,1124.51213 559.737966,1125.17527 C557.635333,1120.66519 555.472733,1116.1765 553.265156,1111.71633 C559.876642,1105.68031 567.233982,1099.09167 574.565086,1093.48704 C579.654881,1089.61158 584.722188,1086.24239 589.433434,1083.86435 C594.065972,1081.52909 598.402418,1080.17785 601.944285,1080.17785 L607.854894,1080.17785 L604.009438,1076.04568 C603.747077,1075.77829 594.646913,1066.18768 576.656474,1066.14846 C571.67912,1066.14846 566.053359,1066.90787 559.820422,1068.7939 C552.301918,1071.00081 545.660447,1075.6642 539.453746,1081.30447 C539.000237,1081.73231 538.539232,1082.13875 538.089471,1082.58441 C528.565782,1065.07888 518.524868,1047.84074 508.423987,1030.84147 C510.238023,1024.66284 511.86091,1018.44142 513.243925,1012.47314 C516.482204,998.572102 518.341216,986.115006 518.3712,978.709915 C518.3712,977.508415 518.307484,976.456656 518.225028,975.461943 L517.943927,973.180162 L515.496478,973.287121 C515.215377,973.287121 505.684193,973.775564 492.716085,980.770648 C489.485302,982.521201 486.040882,984.678197 482.480274,987.345028 C482.382826,987.18459 482.28163,986.995631 482.180434,986.842323 C481.400848,958.730074 480.632506,931.266705 479.867913,904.862225 C497.149978,886.886073 517.659079,872.339721 541.942423,863.693912 C547.515711,861.740137 553.726161,861.187519 558.272495,857.369102 C563.613406,852.92676 569.355355,848.869469 575.265963,845.147314 C578.110702,843.3825 582.19603,840.672885 586.371311,839.000768 C585.550498,841.04724 584.81214,843.097277 584.137499,845.083139 C580.693079,855.151496 575.985581,873.052778 588.282796,879.766204 C592.199464,881.873286 595.984952,882.832347 599.50808,882.832347 C611.677862,882.832347 620.684326,871.505445 621.306495,858.727474 C621.924917,844.815743 614.968613,836.077236 604.358002,832.889874 C607.094048,827.342295 610.388548,822.015764 614.174036,817.042195 C617.04501,813.287953 624.32739,805.333808 628.633851,805.333808 C629.016148,805.333808 629.383453,805.408679 629.717025,805.537029 C630.504107,805.865035 631.283693,806.250086 632.044538,806.717138 C627.516945,815.006419 623.896369,824.129976 624.27117,832.725871 C624.672206,841.713948 633.052753,844.815743 641.459535,844.815743 C645.927161,844.815743 650.38729,843.952945 653.685537,842.580311 C670.80269,835.603054 658.048219,813.69796 648.415838,805.305286 C648.783143,804.652839 649.112967,804.053872 649.40906,803.522645 C651.208104,800.214063 653.17206,796.82348 655.315921,793.486376 C656.856352,793.971254 658.396784,794.363435 659.929719,794.680745 C662.133548,795.105014 664.517281,795.365279 666.934746,795.365279 C676.765771,795.365279 687.260194,791.482687 689.220402,781.735206 C691.439223,770.793355 683.838263,765.93031 674.888019,765.93031 C672.624222,765.93031 670.289213,766.244055 667.995432,766.857283 C662.088572,768.368963 656.890084,772.369209 652.384978,777.189471 C652.310018,777.032599 652.242554,776.889987 652.182586,776.73668 C648.816875,768.764709 653.288248,761.013786 656.815124,753.983049 C665.030758,737.661188 671.514812,714.294328 688.988026,704.511194 C692.271281,702.68577 696.150469,702.054715 700.258286,702.054715 C708.368976,702.054715 717.386683,704.482672 724.496655,704.764329 C726.040834,704.810678 727.592509,704.842765 729.147933,704.842765 C739.316279,704.842765 749.533349,703.598482 759.491807,701.708882 C768.959275,699.879892 783.149234,696.44296 792.822843,689.725969 C793.343816,700.920955 796.315986,713.335267 800.963516,724.113115 C803.530902,730.067137 806.611765,735.472104 810.17612,739.914446 C813.643028,744.253394 817.529712,747.619021 821.914882,749.497924 C820.33697,803.854216 813.942869,858.032244 798.860884,910.627287 Z M560.251443,1193.98878 C547.283335,1203.20504 533.561877,1211.7011 521.302143,1221.75163 C513.982283,1227.69139 507.779329,1234.69004 501.212819,1241.33929 C497.116246,1245.48215 493.19583,1249.84606 489.361617,1254.20996 C489.286657,1254.28483 489.211697,1254.3811 489.136737,1254.45953 C488.724456,1238.01289 488.304679,1221.32737 487.86991,1204.52063 L489.683946,1201.08369 L490.032511,1198.59513 L489.361617,1203.47956 C489.485302,1203.50809 493.518158,1203.96801 499.91226,1203.96801 C508.765055,1203.96801 522.1342,1203.09808 536.02057,1198.76626 C546.462521,1195.50046 557.230548,1190.2595 566.39068,1181.97022 C567.057826,1184.04521 567.721223,1186.1309 568.350888,1188.19163 C565.659819,1190.14897 562.953757,1192.07066 560.251443,1193.98878 Z M532.452467,1129.18978 C535.13604,1127.69236 538.370571,1125.0897 542.182296,1121.73834 C543.314194,1124.13421 544.427353,1126.52651 545.525519,1128.91882 C535.432133,1131.91365 527.57256,1134.55553 520.822397,1137.53967 C525.376227,1133.8496 529.693933,1130.6872 532.452467,1129.18978 Z M484.695347,1080.83386 C485.808506,1079.14748 487.015364,1077.50745 488.293435,1075.91733 C492.599896,1070.54445 496.561541,1063.08232 500.159629,1054.48999 C501.029167,1052.39717 501.891208,1050.22234 502.719518,1048.01187 C511.381165,1062.90405 519.862907,1077.95311 527.872401,1093.1733 C522.958762,1098.61748 518.232524,1104.21854 513.558758,1109.13863 C509.443445,1113.46688 505.365612,1117.22826 501.336503,1119.97709 C497.303647,1122.68314 493.386978,1124.30534 489.519034,1124.55848 C488.964328,1124.60126 488.492079,1124.63335 487.967358,1124.63335 C487.217757,1124.61552 486.501887,1124.59413 485.834742,1124.51213 C485.452445,1109.93369 485.081392,1095.36595 484.695347,1080.83386 Z M602.041733,873.477046 C601.434556,874.514543 600.857363,874.960204 600.310154,874.960204 C597.709036,874.960204 595.958716,864.777758 595.996196,861.882749 C596.093645,854.901926 598.158797,847.953191 600.707443,841.368115 C607.911114,849.372174 606.618051,865.647687 602.041733,873.477046 Z M642.91751,838.811808 C642.752598,838.893809 642.621417,838.904505 642.550205,838.904505 C642.490237,838.904505 642.490237,838.893809 642.568945,838.879548 C642.621417,838.843895 642.745102,838.811808 642.91751,838.811808 Z M641.699407,836.358894 C637.760251,831.848812 639.274446,824.568506 642.111688,817.698207 C644.225565,821.388274 645.724768,825.274431 646.365677,828.604405 C646.950367,831.649156 646.245741,834.576253 644.634098,837.203866 C644.308021,837.731527 643.996936,838.088056 643.6896,838.32693 C642.910014,837.774311 642.272853,837.025602 641.699407,836.358894 Z M477.064403,811.302091 C475.595183,764.885682 474.212168,724.990175 472.979074,695.038239 C471.764719,665.007868 470.692789,645.102897 469.782023,638.25399 C469.268546,634.471226 469.028673,626.984133 469.028673,616.619858 C469.028673,566.595384 474.71815,449.240556 481.520784,326.591284 C481.783145,328.830282 481.921821,330.891015 481.921821,332.720004 C481.884341,341.37651 484.504199,347.95802 488.368395,353.295248 C494.222784,361.270784 502.520874,366.536706 509.443445,373.724315 C516.362268,380.901228 522.1342,389.757389 523.404775,405.273497 C525.181331,426.939716 531.309324,449.579258 545.866588,471.352436 C557.560373,488.932843 574.696266,505.875063 599.193247,521.344823 C588.095395,531.666315 579.306316,543.396093 576.019313,556.662508 C575.794433,557.222257 574.625054,560.021004 573.421943,563.618373 C572.110141,567.647142 570.727126,572.567232 570.727126,576.863397 C570.727126,578.403598 570.884542,579.829711 571.398019,581.220171 C571.92274,582.574979 572.86349,583.936916 574.362693,584.731974 C575.033587,585.095633 575.62952,585.134851 576.113013,585.134851 C576.896347,585.134851 577.484784,584.981544 578.121946,584.792584 C580.535663,583.997526 583.74021,582.200624 588.129127,579.562315 C599.972833,572.428186 619.466223,559.097596 640.496297,545.453261 C645.428675,548.865236 649.22166,551.959901 652.06265,554.744386 C658.306831,560.837453 660.012175,565.311882 659.970947,568.281762 C659.970947,569.850487 659.536178,571.151815 658.869033,572.274878 C657.347341,574.096738 655.851886,575.323195 654.742476,576.071904 C654.157786,576.492607 653.644309,576.742177 653.321981,576.931137 L652.973416,577.084444 L652.932188,577.123662 L654.907388,581.665832 C654.918632,581.665832 654.926128,581.665832 654.944868,581.648005 L654.944868,581.665832 C655.008584,581.633744 655.267197,581.541047 655.671982,581.330695 C656.593992,580.895731 658.246863,580.036498 659.970947,578.617515 C661.121585,577.686977 662.328444,576.435563 663.284186,574.898926 C663.347902,574.813359 663.415366,574.731358 663.479083,574.642226 C667.568159,569.479697 671.466088,560.908759 671.466088,547.446253 C671.466088,541.727541 670.776454,535.110377 669.112339,527.487804 C679.276937,521.373345 689.137946,515.81507 697.998237,511.501079 C703.897602,508.563286 709.388434,506.220896 714.129664,504.605823 C718.140033,503.243885 721.659413,502.41674 724.451679,502.213519 C723.117388,503.079882 721.719381,504.195815 720.298886,505.661146 C714.92799,511.190899 709.388434,521.269952 705.87655,540.041162 L705.824078,540.219426 L705.824078,540.411952 C705.824078,540.411952 705.752866,542.112591 705.591702,544.854293 C705.329341,548.990021 704.80462,555.48953 703.811398,561.964082 C702.8669,568.431504 701.371445,574.94884 699.467456,578.852824 C699.077664,579.672839 698.084442,581.027646 696.705175,582.692633 C691.757804,588.582479 681.956763,598.272916 673.45628,612.366476 C664.903326,626.463602 657.673418,645.102897 657.673418,669.075855 C657.673418,681.671996 659.686098,695.74773 664.517281,711.367232 L664.640965,711.7915 C664.352368,712.119506 664.056276,712.451077 663.763931,712.800475 C656.890084,720.804533 652.576127,730.851499 648.145981,740.181842 C643.682104,749.587056 637.070617,759.281059 635.612642,769.659595 C634.570696,777.335647 638.348688,783.43228 644.04566,787.764098 C642.415277,790.095792 640.931066,792.381138 639.566791,794.445437 C638.5136,796.053379 637.400442,797.736192 636.309772,799.48318 C634.578192,799.173001 632.809132,799.023259 631.04382,799.023259 C623.645252,799.023259 616.111756,801.643741 610.073715,805.775903 C600.973551,811.98306 594.313341,821.730541 589.485906,831.848812 C589.141089,831.898726 588.792525,831.945074 588.440212,831.991423 C573.148339,834.166245 558.868428,844.277385 547.200879,853.390247 C542.219776,857.258578 540.36826,856.962659 533.678065,859.215918 C523.99696,862.495977 514.788104,866.842056 506.010269,871.901192 C496.437857,877.388161 487.637534,883.862713 479.470624,891.011104 C478.646062,862.920246 477.84024,836.166369 477.064403,811.302091 Z M672.343122,473.66987 C672.204445,473.762567 672.054525,473.85883 671.904605,473.955092 C667.489451,476.814448 661.039129,480.358339 653.535617,484.551111 C650.338566,477.869772 646.646778,470.739208 642.370301,463.1202 C640.046536,458.963081 637.883935,455.080488 635.901239,451.454596 C642.370301,453.604462 649.825089,457.515576 657.673418,464.407267 C663.868875,469.794408 668.520153,472.568197 672.343122,473.66987 Z M749.443397,587.127844 C749.128564,586.265046 749.012376,585.434335 748.963652,584.564406 C748.963652,582.382453 749.953126,580.022237 751.729682,577.640628 C754.387019,574.039693 758.730961,570.645544 762.92873,568.210457 C764.986386,566.998261 767.040295,566.028504 768.790615,565.383188 C769.967489,564.919701 771.009435,564.645175 771.721557,564.516824 C771.736549,564.634479 771.755289,564.762829 771.789021,564.894744 C771.860233,565.433102 771.905209,566.22816 771.905209,567.115915 C771.935193,572.306966 770.480966,581.897575 770.480966,592.614813 C770.480966,601.795415 771.545401,611.91012 775.694446,621.165593 C780.600588,632.068226 785.30059,639.922542 788.70753,646.949713 C792.069493,654.069582 794.168378,660.276738 794.168378,668.320015 C794.168378,670.113352 794.059685,671.98869 793.842301,673.963856 C790.821406,674.274036 788.077864,675.26875 787.639348,676.833909 C784.903302,686.221296 773.959118,690.642246 765.140055,693.604996 C754.589412,697.1988 743.232947,698.760394 731.913963,698.760394 C726.539319,698.760394 721.145935,698.396735 715.876236,697.751419 C710.951353,697.134625 706.172643,696.742444 701.566341,696.742444 C691.323035,696.742444 681.926778,698.64987 673.602452,704.054838 C677.410429,697.434109 683.358518,687.376448 690.18364,677.347309 C694.726226,670.651709 699.624873,663.952544 704.489787,658.28018 C709.32097,652.632773 714.129664,648.051386 718.289953,645.541427 C727.77991,639.812019 735.721939,630.684896 741.418911,621.126375 C747.078404,611.567853 750.470351,601.606455 750.511579,593.71292 C750.511579,591.342007 750.196746,589.127967 749.443397,587.127844 Z M495.009866,172.877709 C495.530839,170.73854 496.235464,168.930942 496.988814,167.914836 C497.378607,167.429958 497.753407,167.08056 498.015768,166.941514 L498.885306,166.70264 C499.290091,166.70264 499.8373,166.781077 500.620634,167.158996 C503.596552,168.553022 507.820557,171.900822 512.606764,176.788824 C527.081571,191.424307 547.167147,219.739778 565.195066,251.641923 L565.438686,252.002016 L565.749771,252.312196 C565.824731,252.387067 574.602566,259.863463 588.159111,267.806912 C601.768129,275.700447 620.234565,284.128774 639.881623,285.829413 C650.361054,286.759952 656.095507,290.368018 659.566162,294.924448 C663.05181,299.523662 664.16122,305.338637 664.16122,310.804215 C664.16122,314.743852 663.572783,318.426788 663.010582,321.10075 C662.695749,322.42347 662.422144,323.510881 662.189768,324.263155 L661.942399,325.093866 L661.867439,325.364827 L661.155317,327.315037 L663.085542,328.284793 C663.085542,328.324012 683.857003,339.005597 707.259565,349.729966 C718.960847,355.109976 731.340518,360.443639 742.119789,364.497364 C747.543157,366.536706 752.535503,368.23378 756.913177,369.42815 C761.302094,370.633215 764.986386,371.356967 768.029769,371.356967 C774.041574,371.356967 780.514384,371.082441 786.968454,371.082441 C794.959207,371.082441 802.860008,371.510274 809.501479,373.307177 C812.953394,374.251976 816.023013,375.521217 818.627879,377.261075 C816.532742,395.821933 815.232183,414.41488 814.48633,433.05061 C805.131301,435.606917 796.765747,439.30768 789.895648,444.498731 C780.476904,440.865708 727.240197,421.032044 678.860908,420.992826 C665.544235,420.992826 652.576127,422.504505 640.953554,426.340749 C635.713838,428.091302 630.736484,430.308908 626.148922,433.082697 C624.020053,428.893491 622.239749,425.271164 620.781774,422.126585 C618.652905,417.612938 617.221166,414.083309 616.317896,411.452131 C615.40713,408.774604 615.092298,406.959875 615.092298,406.07925 L615.10729,405.876029 C615.463351,405.922378 615.97308,406.029336 616.557769,406.221862 C617.775872,406.560563 619.361279,407.198749 620.980418,407.794151 C622.644534,408.314682 624.349878,408.885127 626.24637,408.885127 C626.992223,408.885127 627.783053,408.810256 628.573883,408.521469 C629.799482,408.065112 630.908892,407.081095 631.497329,405.886725 C632.100759,404.674529 632.325639,403.362505 632.325639,401.77952 C632.325639,398.916598 631.531061,396.324638 630.118062,394.181904 C627.633133,390.424096 623.547804,388.046053 618.92651,385.988885 C611.962711,382.901351 603.507205,380.49122 595.756324,376.505235 C587.971711,372.512119 581.045392,367.096455 576.783907,358.040638 C570.015004,343.558462 564.839005,323.093743 560.525047,305.053415 C558.354951,295.976206 556.420979,287.565706 554.561967,280.709668 C553.609973,277.294128 552.740435,274.242246 551.795937,271.721592 C550.877675,269.161719 550.019381,267.136639 548.906222,265.553654 C547.073446,262.954563 542.778229,257.42481 537.246169,250.468945 C522.014264,231.2699 497.685943,201.499794 493.956675,196.939798 C493.919195,196.458485 493.866723,195.738298 493.825495,194.839847 C493.743039,193.078598 493.626851,190.586466 493.626851,187.844764 C493.626851,183.00311 493.941683,177.209527 495.009866,172.877709 Z M988.225246,1319.39045 C986.216314,1321.50466 983.922533,1323.23739 981.362643,1323.23739 C980.590554,1323.23739 979.810968,1323.07695 979.008894,1322.73112 C974.455064,1320.77735 968.889272,1317.06232 971.651554,1311.56109 C973.22197,1308.50208 980.789198,1307.8532 987.175804,1307.8532 C990.15547,1307.8532 992.891516,1308.00294 994.619348,1308.09564 C993.378757,1312.28841 991.223653,1316.20666 988.225246,1319.39045 Z M941.806166,1288.77894 C941.030328,1282.69657 941.277696,1276.72116 942.263423,1270.62809 C946.989661,1269.98634 951.884559,1269.55494 956.764466,1269.55494 C963.829461,1269.55494 970.812,1270.47122 976.94749,1272.94552 C968.506975,1282.0976 955.804976,1288.17284 941.806166,1288.77894 Z M444.400512,380.48409 C440.573796,374.219889 435.075468,369.303365 428.666374,365.570514 C429.618368,361.142434 430.165577,356.700092 430.165577,352.400362 C430.206805,343.148455 427.556963,334.263772 420.641888,327.692957 C419.142685,326.220495 417.905843,324.067065 417.122509,321.221969 C416.327931,318.369744 415.934248,314.85081 415.934248,310.875521 C415.89691,293.544684 423.250502,267.806912 430.64907,246.632701 C434.322118,236.029552 438.040142,226.553032 440.806172,219.704125 C441.653222,217.604174 442.417816,215.732401 443.077465,214.181503 C444.494212,217.436606 446.465664,221.996601 448.763193,227.472875 C447.00163,278.695284 445.55115,331.365197 444.400512,380.48409 Z M445.626111,602.408643 C445.626111,602.405078 445.626111,602.397947 445.626111,602.397947 L446.240784,647.388243 L445.626111,602.408643 Z M437.759042,1104.62499 C435.648913,1099.64785 433.362628,1094.48176 430.918927,1089.24792 C424.517329,1075.4788 417.047549,1061.37811 409.056795,1049.85869 C408.393398,1048.91389 407.733748,1047.98691 407.066603,1047.0849 C408.723223,1040.59965 410.627211,1034.18571 412.658631,1027.80385 C420.491968,1002.84331 431.095083,976.360394 445.236318,951.831253 L446.353224,1033.23734 C438.845964,1049.7232 436.301066,1067.10039 436.301066,1083.07642 C436.31231,1090.65264 436.874512,1097.90086 437.759042,1104.62499 Z M392.906628,1137.69298 C392.929116,1133.93517 392.989085,1130.20232 393.116517,1126.45164 C401.624495,1136.79809 409.105519,1146.33166 414.686304,1153.65475 C408.779443,1149.24806 401.343395,1143.73257 392.906628,1137.69298 Z M383.38294,1026.05686 C371.704146,1021.94253 363.454781,1016.83704 356.914506,1011.39642 L355.72264,888.551059 L355.72264,888.408448 L327.024142,483.880838 C327.897428,483.866577 328.774461,483.845185 329.643999,483.816663 C336.135549,483.691878 342.604611,483.242652 348.987469,482.422637 C350.636593,489.278675 352.356929,494.64799 354.249673,498.256055 C354.853102,499.421903 355.557727,500.359572 356.468493,501.147499 C357.379259,501.896208 358.642338,502.395348 359.912913,502.395348 C361.412116,502.395348 362.678943,501.785685 363.747125,501.040541 C365.759806,499.560949 367.416425,497.393257 369.196729,494.562423 C372.150159,489.820598 375.25351,483.21413 378.413081,475.705646 C384.627278,473.559346 390.676564,470.960255 396.493472,467.833503 C407.789969,479.98755 417.849622,493.154137 426.098988,507.497267 C433.025307,519.565747 438.055134,532.375806 441.188469,545.631525 C440.648756,580.885035 440.408883,602.387252 440.408883,602.387252 L440.408883,602.440731 L440.573796,613.949462 C437.031928,629.15539 431.814701,644.079661 426.530009,658.654535 C416.211743,687.109052 404.982711,715.164257 400.402645,745.062713 C395.732626,775.142999 397.040681,805.961298 402.175452,835.881146 C408.40839,872.275546 422.156084,905.678675 438.943412,937.976566 C426.230169,957.29683 416.054326,978.217906 407.557592,999.349333 C403.052486,1010.64771 398.952165,1022.12792 395.489006,1033.76857 C391.60607,1030.22824 387.588205,1027.56498 383.38294,1026.05686 Z M378.015792,1127.13974 C375.455903,1125.36067 372.839793,1123.5602 370.182455,1121.73834 C366.172086,1118.99664 362.075514,1116.22285 357.907729,1113.44906 L357.64162,1086.42422 C364.800315,1093.75444 371.955263,1101.61232 378.795378,1109.49516 C378.390593,1115.35648 378.146972,1121.24633 378.015792,1127.13974 Z M358.35749,1158.52492 L358.188829,1142.4348 C361.884365,1145.05528 364.995212,1148.03586 367.697526,1151.06992 C371.730382,1155.70478 374.736285,1160.52861 376.988838,1164.46825 C377.329907,1165.04939 377.659731,1165.63053 377.98206,1166.18315 C373.218342,1164.05467 366.479423,1161.19175 358.35749,1158.52492 Z M332.979727,1097.52294 C328.410905,1094.73489 323.860823,1092.02171 319.385701,1089.46897 C302.575885,1079.84627 286.834251,1072.16666 274.304659,1068.74755 C245.924742,1061.02871 193.516344,1041.65497 133.064721,1039.71189 C131.115757,1037.01654 129.238005,1034.2784 127.465197,1031.444 C121.741989,1022.31688 117.682896,1012.63001 117.517984,1002.11956 C117.529228,1001.28528 117.56296,1000.46527 117.61918,999.613164 C118.207617,990.746307 122.32293,982.064845 125.081464,973.679302 C127.000444,967.835804 128.435931,961.867522 129.470382,955.763759 C136.126844,922.460458 133.113446,881.588063 112.641825,855.07306 C100.235918,838.986507 72.9654112,830.918273 51.5230568,830.918273 L49.791477,830.918273 C47.4077438,830.918273 45.0877268,831.014536 42.8951421,831.235583 C34.8144366,831.977162 27.3596484,834.576253 23.0756751,840.273574 C19.9535844,839.603301 16.8202496,839.179032 13.803103,839.032855 C13.304618,838.986507 12.8061329,838.96868 12.3188918,838.954419 C5.61745331,833.235707 -3.74132296,829.574162 -13.3961919,828.098135 C-14.0483453,820.447039 -16.0872617,812.706812 -18.051218,806.232259 C-22.3914114,791.928347 -29.3102344,780.533706 -44.2198107,774.547597 C-62.7649548,767.185289 -83.7987764,768.796797 -103.325899,766.732498 C-111.582761,765.862569 -120.094487,764.097755 -125.154298,757.355806 C-125.634043,756.71049 -125.933884,756.036652 -126.050072,755.355683 C-125.86642,749.194875 -113.468009,742.702497 -108.865455,740.320888 C-97.5876983,734.573653 -84.6270862,732.616313 -73.473014,726.551768 C-64.3278742,721.592461 -59.3242834,713.666839 -56.7643938,704.764329 C-54.2644724,704.147535 -52.1618399,703.480827 -50.6289045,702.828381 C-37.5708443,697.295063 -32.7996299,687.565408 -32.2036966,676.324073 C-31.4915751,665.813621 -34.4824856,653.894883 -37.8257088,642.942336 C-36.5851181,642.678505 -35.3182914,642.396848 -34.0552126,642.093799 C-30.6557693,641.327263 -18.5534511,639.5161 -16.8143753,636.318042 C-16.3945984,635.544376 -15.9860655,634.763579 -15.5887766,634.000609 C-13.8871809,631.583347 -12.549142,628.121458 -11.604644,624.966184 C-10.9037665,622.983887 -10.3040852,620.962372 -9.86182022,618.873116 C-7.67298348,608.747715 -13.7784887,600.508348 -20.0526543,592.276111 C-23.8531345,587.220541 -27.766055,582.086535 -29.9436477,575.993468 C-30.9181298,573.216113 -31.5552912,570.353191 -31.89636,567.447486 C-33.9952445,545.531697 -19.8052858,520.62107 -7.98781616,503.596848 C3.73970124,486.700976 22.4460098,475.609383 41.943148,468.42534 C65.6830314,459.71892 91.5143034,456.207118 117.476756,455.779284 C118.477474,455.779284 119.489436,455.772153 120.493902,455.772153 C140.815602,455.772153 161.129806,457.597578 180.525748,460.189538 C220.269626,465.498243 258.289421,478.023079 298.010811,482.376289 C298.243187,485.674175 298.471816,488.494313 298.67046,490.811746 C300.398292,510.395841 309.029955,652.693383 317.249336,790.053009 C321.353405,858.681125 325.35253,926.129133 328.317204,976.374655 C328.459629,978.8347 328.605801,981.259092 328.748225,983.633569 C321.147265,977.996858 305.503079,968.456163 285.503708,960.191839 C265.455612,951.956037 241.048583,945.085739 216.038125,945.035825 C213.972973,945.035825 211.930308,945.1 209.883896,945.196262 C209.441631,945.003737 208.946894,944.864691 208.320976,944.864691 L208.103592,944.864691 C207.548887,944.878952 206.922969,945.085739 206.495697,945.420875 C205.708615,946.016277 205.50997,946.658028 205.393782,947.007426 C205.311326,947.417433 205.311326,947.634915 205.311326,947.795353 L205.311326,950.426531 L208.0886,950.237571 L208.328472,950.237571 C208.542109,950.426531 208.789477,950.644014 209.070578,950.957758 C211.72042,953.763635 217.32744,961.21864 228.129199,978.627913 C239.39946,996.746677 249.830166,1012.54801 262.445962,1024.9338 C275.016781,1037.35168 289.798925,1046.28627 309.337291,1050.50044 C313.576288,1051.41671 318.744792,1053.89102 324.400536,1057.56683 C327.23403,1059.40295 330.172468,1061.56707 333.197111,1063.94868 L332.979727,1097.52294 Z M332.623666,1152.37837 C326.941685,1151.5441 320.997345,1151.05922 314.910579,1151.04139 C294.356503,1151.04139 272.052107,1156.84211 252.764857,1174.57939 C236.476013,1189.59635 224.920904,1204.3281 216.146817,1217.83339 C216.180549,1211.80806 216.180549,1205.76134 216.045621,1199.74315 C215.738285,1183.81703 214.52393,1167.9337 210.884614,1152.32133 C208.549605,1142.22089 204.895297,1132.58036 200.217783,1123.41046 C226.562532,1132.07053 255.099866,1138.96222 280.713753,1138.96222 C289.967585,1138.96222 298.861609,1138.0602 307.095982,1135.9959 C314.753163,1134.07778 321.55205,1133.2542 327.646311,1133.2542 C329.411623,1133.2542 331.101974,1133.33264 332.74735,1133.46455 L332.623666,1152.37837 Z M42.2467367,862.495977 C38.7535931,861.437089 36.5422683,859.026958 35.489078,856.003598 C35.474086,855.714811 35.455346,855.45098 35.4441019,855.165757 C38.1314238,857.326318 40.4739288,859.786363 42.2467367,862.495977 Z M19.762436,847.921104 C19.7324519,848.045889 19.7212079,848.156412 19.6949718,848.270501 C19.4251152,847.714317 19.1252746,847.147438 18.8216859,846.612645 C19.2002347,846.723169 19.5750356,846.847954 19.9610804,846.954912 C19.8973642,847.290049 19.8224041,847.607359 19.762436,847.921104 Z M2.18427787,857.258578 C2.50660657,854.741489 3.19249206,852.523883 4.26067437,850.709154 C5.8910579,854.039128 6.73810774,857.764848 6.47949518,861.847096 C3.9945658,860.94508 2.60405478,859.344268 2.18427787,857.258578 Z M-29.1753061,835.071827 C-29.1902981,835.788449 -29.2427702,836.494374 -29.2802503,837.207431 C-29.5201228,841.353854 -30.3671726,845.564452 -32.4773012,849.179648 C-33.6017037,851.104901 -34.5312097,852.063962 -35.5169358,852.391968 C-37.0910992,852.014048 -39.279936,851.404384 -39.6247527,849.921227 C-39.5572886,841.43229 -35.1833631,836.6869 -29.1753061,834.911389 C-29.1753061,834.964868 -29.1753061,835.018348 -29.1753061,835.071827 Z M-76.1453438,702.9496 C-76.8274813,702.999514 -77.5021228,703.01021 -78.1917563,703.01021 C-83.0604188,703.01021 -87.9628134,701.87645 -92.404203,699.40571 C-96.4857839,697.134625 -98.2585917,692.906201 -98.0899314,688.720559 C-96.9317969,683.276373 -92.1043624,678.0568 -86.1825096,676.987216 C-81.6848998,677.22609 -77.16855,679.607698 -73.3943059,681.575734 C-71.2242092,682.72732 -70.249727,684.68466 -69.9011623,686.96644 C-69.5788336,689.939886 -70.2834591,693.348296 -70.6207799,696.428699 C-70.8381643,698.364648 -71.1792331,700.272073 -71.632742,702.147412 C-73.1207013,702.528897 -74.6199045,702.796293 -76.1453438,702.9496 Z M347.581966,476.190524 C340.974228,477.231586 334.250301,477.759248 327.515131,477.876903 L326.589373,477.876903 L321.578286,407.198749 C322.147983,407.573104 322.725176,407.954589 323.291126,408.314682 C329.048066,412.101012 334.76003,415.972908 340.400783,419.958894 C341.221596,432.091549 342.447195,443.92472 343.938902,454.652655 C345.022077,462.531928 346.255171,469.801538 347.581966,476.190524 Z M389.398493,460.481891 C387.344584,461.783219 385.253196,463.013241 383.116831,464.175523 C384.053833,461.829568 384.979591,459.444394 385.909097,457.055655 C387.082224,458.189414 388.251602,459.33387 389.398493,460.481891 Z M432.931607,407.826239 C431.938385,411.530567 430.431686,415.17785 428.591414,418.700349 C421.575142,432.0452 411.298104,444.081593 399.027126,453.700724 C396.178639,451.012501 393.270185,448.367062 390.313007,445.782232 C391.538605,442.616262 392.7717,439.49664 393.982307,436.501803 C396.452244,430.408736 398.813489,424.757764 401.03231,420.133593 C403.239887,415.498726 405.335023,411.851442 407.002887,409.908363 C412.017722,403.918689 417.755922,394.89496 422.306004,384.666166 C423.284234,382.452125 424.202496,380.170345 425.049546,377.860042 C432.039581,386.11367 435.101704,396.813082 432.931607,407.826239 Z M444.767817,917.665154 C432.215738,890.715186 422.279768,862.791896 417.122509,832.668827 C411.939014,802.606367 411.864053,771.880766 416.492843,741.804045 C420.765573,714.108934 431.492372,687.675932 441.222201,661.367714 L444.767817,917.665154 Z M441.814386,507.497267 C432.680491,490.647743 420.664376,475.413293 406.995391,461.48017 C420.147151,452.50992 435.24038,438.170355 443.46351,422.258501 C442.796364,453.436893 442.249155,482.369158 441.814386,507.497267 Z M341.229092,234.689006 C353.410119,227.266089 362.23293,221.351285 364.931496,219.625689 C367.382693,218.081922 372.566188,215.197608 378.855346,211.842678 C388.304074,206.769281 400.35392,200.526472 410.001293,195.560034 C413.003448,194.016267 415.769478,192.590154 418.164455,191.360132 L344.01761,301.776921 L347.495762,304.436621 L347.492014,304.447317 L347.604454,304.675495 C347.848075,305.192461 348.245364,306.739793 348.204136,309.449408 C348.245364,314.480021 347.090977,323.510881 343.654054,338.777419 C340.576939,352.557234 339.306364,370.105553 339.306364,388.620064 C339.306364,394.859307 339.448789,401.20551 339.722393,407.541016 C333.451976,403.312591 327.125338,399.137646 320.716244,395.026876 L317.695349,352.493059 C321.544554,307.164062 329.898864,268.209789 341.229092,234.689006 Z M-57.8363242,639.451925 C-58.3910294,639.466186 -58.9532306,639.480447 -59.5154318,639.480447 C-60.980903,639.480447 -62.4576182,639.434099 -63.9568214,639.309314 C-64.1779539,635.954383 -63.9006013,632.884675 -63.0872835,629.857751 C-62.3114459,628.110762 -61.0371231,626.716737 -59.0469308,626.042899 C-57.8288281,630.424631 -56.4345691,634.817058 -55.0665462,639.213051 C-55.9735641,639.323575 -56.8993221,639.405576 -57.8363242,639.451925 Z M1036.65326,75.1319332 C1036.98308,74.8716676 1037.29792,74.6256632 1037.63149,74.4046157 C1042.64632,88.8012251 1045.82838,109.975436 1028.05158,109.975436 L1027.65804,109.975436 C1025.47295,97.6146026 1025.70533,83.6386965 1036.65326,75.1319332 Z M1092.15751,82.1519738 C1093.82537,83.6066089 1095.35456,85.1824637 1096.68885,86.9009297 C1099.02761,89.8779403 1100.28694,93.5145281 1099.54109,97.165377 C1099.14755,99.047846 1098.08311,100.859009 1096.80879,102.288687 C1095.7481,103.486622 1094.47378,104.388639 1093.13199,105.28709 C1093.08327,105.333438 1093.01206,105.383352 1092.96708,105.411875 C1092.85089,105.219349 1092.72346,105.001867 1092.55105,104.759428 C1087.43502,97.32938 1088.16588,89.0757518 1092.15751,82.1519738 Z M1134.72364,92.4413781 C1135.46949,87.8920781 1136.74382,83.2750377 1138.39669,78.7221724 C1144.24358,87.0791938 1147.93912,98.1814824 1138.51662,101.646937 C1137.33975,102.081901 1136.06168,102.45269 1134.7911,102.716521 C1134.75362,102.623824 1134.72364,102.545388 1134.68991,102.434864 C1133.61048,99.236806 1134.22515,95.6608279 1134.72364,92.4413781 Z M1308.36136,-19.2054329 C1311.33728,-22.7279317 1316.11974,-26.7281783 1319.93146,-26.7281783 C1322.08657,-26.7281783 1323.92309,-25.4518072 1324.95004,-22.0933114 C1326.84279,-15.9111122 1322.97859,-9.98204792 1318.37229,-5.40422562 C1309.84182,-7.65035338 1302.32332,-12.0606074 1308.36136,-19.2054329 Z M1396.8256,411.216822 C1395.43134,409.334353 1389.70813,407.811977 1385.96387,407.811977 C1383.34776,407.811977 1381.6724,408.539295 1383.06291,410.425329 C1392.83397,423.670352 1386.85589,440.519876 1377.10732,451.992954 C1363.39336,468.11516 1341.23139,475.095982 1320.01392,475.095982 C1318.95698,475.095982 1317.93002,475.081721 1316.88433,475.046068 C1279.76406,473.880221 1253.067,451.194331 1228.91858,426.939716 C1192.89273,390.873322 1156.9156,355.78738 1115.79245,324.82647 C1094.60871,308.875397 1068.67624,300.703771 1042.2153,300.703771 C1034.06713,300.703771 1025.8515,301.473872 1017.72582,303.042596 C968.293339,312.56903 925.476094,343.747422 889.379028,375.788613 C870.695207,392.317261 852.731005,410.129411 836.723262,429.168018 C834.594393,429.364108 832.499257,429.599417 830.42286,429.8989 C833.567439,364.704151 843.773265,300.283067 869.05358,238.133069 C884.0681,201.317965 897.081185,163.550931 917.485341,128.953433 C935.75688,97.9533044 963.390944,67.5307517 1003.64455,67.1599623 C1003.87693,67.1421359 1004.1243,67.1421359 1004.37167,67.1421359 C1010.73203,67.1421359 1017.07366,68.1011968 1023.27287,69.6699209 C1016.58268,74.6577507 1012.19001,82.3480643 1011.77398,93.2970459 C1011.59408,99.1227169 1012.4861,104.877082 1013.73044,110.595795 C1014.36385,113.487239 1019.57733,114.9597 1022.02853,115.558668 C1026.64983,116.72095 1031.56346,117.473224 1036.2035,117.473224 C1047.44752,117.473224 1057.05742,113.041578 1056.77257,99.047846 C1056.65638,91.89589 1055.5807,80.3942897 1050.99689,74.4545296 C1049.86874,72.9713722 1048.19712,71.7056971 1046.19194,70.593329 C1049.23907,69.8125322 1052.43237,69.4845263 1055.63692,69.4845263 C1060.44561,69.4845263 1065.28429,70.2154091 1069.70319,71.2564715 C1072.86651,71.9944849 1076.07481,73.0212862 1079.1894,74.3261795 C1077.88135,76.2799541 1076.79068,78.4405151 1075.97361,80.8007319 C1071.3898,94.195497 1078.6272,108.937939 1092.90336,112.849053 C1094.49252,113.284018 1096.1304,113.487239 1097.76828,113.487239 C1106.38495,113.487239 1114.86294,107.754265 1114.53312,98.7091442 C1114.20329,89.154188 1106.68104,81.5565717 1097.02243,75.8806425 C1102.60696,70.3580204 1110.35784,66.6786492 1118.15744,66.6786492 C1120.90848,66.6786492 1123.67451,67.1421359 1126.34309,68.1439802 C1125.91207,69.1137369 1125.48105,70.087059 1125.08376,71.0639463 C1121.32076,80.2730701 1116.02108,93.6250518 1121.83424,102.987483 C1125.31239,108.524366 1131.18177,110.431792 1137.45219,110.431792 C1144.80953,110.431792 1152.74406,107.839832 1158.14119,105.365526 L1158.65467,104.72021 C1159.38553,90.2736866 1152.99143,77.9984201 1142.1447,69.8374892 C1144.35977,65.1669696 1146.87843,60.674714 1149.54701,56.5068992 C1161.85172,37.4076826 1171.85516,14.8822299 1196.77191,8.97455736 C1201.44193,7.85505876 1206.19815,7.38087623 1210.98061,7.38087623 C1231.60215,7.38087623 1252.98079,16.0302508 1272.92394,18.2514216 C1275.95983,18.5936886 1279.10066,18.7719527 1282.36143,18.7719527 C1299.14501,18.7719527 1317.94502,14.1477818 1329.96863,3.15958215 C1333.24439,3.56245903 1336.56137,3.75141898 1339.8896,3.75141898 C1362.78244,3.75141898 1386.19624,-5.62883839 1400.73102,-22.3179242 C1403.29841,-25.2307597 1394.82041,-29.4128357 1389.93676,-29.4128357 C1388.69242,-29.4128357 1387.68795,-29.1561354 1387.14074,-28.532211 C1374.6224,-14.1712545 1355.45508,-5.57179388 1336.02916,-3.83550146 C1343.31903,-14.898572 1339.40986,-26.4928696 1326.60666,-31.8835763 C1322.59629,-33.5699547 1318.73959,-34.3400557 1315.08154,-34.3400557 C1304.44469,-34.3400557 1295.50194,-27.7692406 1289.28775,-18.032455 C1289.17156,-17.4014001 1289.32148,-16.7953021 1289.80122,-16.2676404 C1296.39772,-9.2654262 1304.41096,-4.19202968 1313.1738,-0.908404806 C1302.05721,7.59479316 1287.94971,11.1885976 1273.93591,11.1885976 C1271.71334,11.1885976 1269.49826,11.1065961 1267.30568,10.9247667 C1245.03501,9.16351731 1223.82878,0.246746616 1201.45692,0.246746616 C1198.06123,0.246746616 1194.64679,0.457098264 1191.20237,0.913454381 C1170.23227,3.74072314 1157.74765,15.7485935 1147.02835,32.2130665 C1140.54804,42.1958566 1134.10522,52.157255 1128.873,62.7318819 C1127.56869,62.2576993 1126.22691,61.8191696 1124.85139,61.4412497 C1120.52993,60.2254885 1115.8899,59.5979988 1111.28734,59.5979988 C1100.88287,59.5979988 1090.50089,62.746143 1083.37593,69.4025248 C1076.05982,66.5930824 1068.82241,64.6856565 1063.37656,63.6160718 C1058.72528,62.7140554 1054.02528,62.2363076 1049.45645,62.2363076 C1042.90868,62.2363076 1036.63827,63.2203255 1031.13244,65.348799 C1027.7405,64.5109577 1024.5322,63.833554 1022.11099,63.2024991 C1013.50181,60.9599366 1005.05005,59.8796561 996.819429,59.8796561 C969.773802,59.8796561 945.201861,71.5844775 926.105759,92.0848499 C899.183817,120.977897 883.910684,158.92676 869.724473,194.511841 C850.073667,243.591516 831.922063,292.072222 823.226685,344.160995 C822.469587,348.688903 821.764961,353.216812 821.112808,357.755416 C820.850447,357.174275 820.576843,356.575307 820.29949,355.965644 C812.582342,339.276558 801.195893,317.342942 788.062872,297.937112 C781.511354,288.235979 774.513823,279.133813 767.272671,271.650286 C760.1627,264.245195 752.816604,258.36961 745.320588,255.01468 C743.277923,253.38178 726.929112,240.211628 708.28652,225.943369 C698.320566,218.320796 687.728695,210.409434 678.272471,203.753053 C668.831238,197.064583 660.596864,191.677442 655.10978,189.092612 C649.652681,186.489956 641.189678,183.598513 631.02508,180.250713 C615.763191,175.245056 596.715814,169.191207 578.916523,162.007164 C561.120981,154.791033 544.674721,146.362706 534.746248,136.925404 C533.288272,135.49216 532.261318,134.255007 531.657889,133.206814 C531.076948,132.151491 530.878303,131.356433 530.878303,130.74677 C530.878303,130.047974 531.076948,129.513182 531.706613,128.760908 C532.767299,127.516624 535.383409,126.094077 539.097685,124.967447 C544.708453,123.266808 552.699207,122.175831 561.675686,121.541211 C570.652165,120.853112 580.573143,120.664152 590.254248,120.664152 L591.566051,120.664152 C608.945564,120.664152 625.181936,121.391469 633.202673,121.391469 C641.343347,121.391469 652.85348,121.009984 666.413773,121.009984 C693.455651,121.009984 728.566992,122.475315 760.402573,131.163908 L760.829845,131.285127 L761.302094,131.245909 C761.302094,131.245909 762.688857,131.163908 765.102575,131.049819 C767.471316,130.985644 770.870759,130.907207 774.7462,130.907207 C782.452104,130.907207 792.181933,131.245909 800.097727,132.672022 C804.044379,133.395774 807.530027,134.372662 809.973728,135.527813 C811.158098,136.137476 812.121337,136.764966 812.780986,137.410282 C813.418147,138.044902 813.774208,138.658131 813.935372,139.253533 C814.092789,139.823978 814.250205,140.312422 814.48633,140.786604 L815.115995,141.628011 C815.400844,141.959582 816.067989,142.487244 817.128675,142.487244 C817.844545,142.487244 818.519186,142.18776 818.875247,141.888277 C819.538645,141.371311 819.662329,140.957738 819.819745,140.604775 C820.022138,140.123462 820.059618,139.738411 820.11209,139.289186 C820.175806,138.847091 820.175806,138.390735 820.175806,137.823855 C820.175806,134.372662 819.22756,128.158375 816.184177,120.482322 C811.679072,109.052028 802.380263,94.5341988 784.625949,82.6618092 C766.845398,70.757332 740.63183,61.5802957 702.420887,60.5321028 L702.124794,60.5321028 L701.83245,60.5748861 C701.83245,60.5748861 698.279338,61.2023758 692.59361,62.1935242 C684.085631,63.6588552 670.843918,65.8372426 657.864566,67.6804935 C645.061371,69.456004 632.460567,70.921335 625.215668,70.921335 L624.424838,70.921335 C622.711998,70.921335 621.343975,70.782289 620.616862,70.6396777 C620.684326,70.5327192 620.774278,70.4043691 620.86423,70.2795842 C621.535124,69.3026969 622.80195,67.9478897 624.30865,66.4825587 C626.598683,64.2293004 629.368461,61.6622972 631.654746,58.9883356 C633.918542,56.2751559 635.927475,53.497801 635.961207,50.1571317 C636.009931,49.0233719 635.72883,47.9074386 635.140393,46.8485498 C634.229627,45.258434 632.726676,44.0604992 630.785208,43.0836118 C628.858732,42.1388121 626.39629,41.3901028 623.315428,40.8125271 C621.924917,40.6021755 620.474437,40.4845211 618.92651,40.4845211 C609.751386,40.5344351 597.70154,44.3599829 584.328647,50.0038245 C544.359888,66.8890009 493.469434,100.395523 493.386978,100.431175 L494.886181,102.481213 L457.3124,141.446182 L456.776435,141.531748 L456.457854,139.517364 C456.401634,139.517364 423.887663,144.170057 379.582459,154.270501 C398.374972,125.202756 419.412542,102.909047 439.977862,85.8456061 C466.746136,63.6160718 492.757313,50.3104388 512.059554,42.5238625 C521.703179,38.6091827 529.648957,36.1206158 535.184765,34.5768486 C535.259725,34.5590222 535.315945,34.5411958 535.390905,34.5269346 C536.177987,34.3237136 536.9051,34.1490147 537.60223,33.9850118 C539.61491,33.4430889 541.19657,33.129344 542.257256,32.8904701 C542.811961,32.7478588 543.216746,32.6551615 543.479107,32.5909864 L543.763955,32.5588989 L543.763955,32.5268113 C543.812679,32.5196808 543.838915,32.5089849 543.838915,32.5089849 L542.819457,27.6994193 C542.811961,27.6994193 542.778229,27.7065499 542.740749,27.7136804 L542.725757,27.6994193 C542.725757,27.7065499 542.530861,27.7386374 542.15606,27.8349 C541.181578,28.0202947 539.127669,28.4552591 536.136759,29.2360559 C523.719608,32.2915027 495.148542,40.1850374 462.630823,55.0415682 C419.142685,74.8966246 368.533332,107.162428 340.449507,157.22612 C339.029012,159.778862 337.653493,162.385084 336.30421,165.044784 C331.904048,166.24985 327.458911,167.490568 322.976293,168.784765 C287.872449,178.899471 250.977057,191.755878 219.310136,207.746169 C187.680696,223.768547 161.144798,242.835676 146.868635,265.660612 L143.356752,271.343672 L149.96449,269.272243 L149.994474,269.243721 C150.901492,268.972759 159.645595,266.452105 172.973512,266.452105 C184.83221,266.452105 200.292743,268.445098 217.170024,275.746795 C221.840042,277.732658 227.143473,278.595456 232.83295,278.595456 C244.339334,278.595456 257.618527,275.179916 271.381213,270.110084 C283.727152,265.521566 296.444143,259.56398 308.404037,253.328301 C306.76241,261.881413 305.319427,270.55931 304.045104,279.276425 C299.097733,313.332 296.792708,348.114893 295.96065,379.642683 C269.387273,363.663088 241.888137,348.870733 214.047933,335.76119 C158.779805,309.780979 100.13847,290.856461 44.225685,266.152621 C16.1193721,253.784657 -11.3160474,239.716054 -36.6225982,222.602699 C-57.4202953,208.566184 -73.7503666,189.156787 -86.6772466,168.481716 C-112.504771,127.170792 -124.550869,75.4314169 -113.175664,28.1165573 C-105.90078,-2.19547167 -82.7268461,-27.5945418 -55.8798639,-44.2836276 C-44.1448505,-51.5888908 -29.5126268,-58.1454447 -15.1202756,-58.1454447 C-13.9434011,-58.1454447 -12.7740225,-58.1133572 -11.597148,-58.0206598 C6.71187168,-56.5838511 19.4738393,-42.4867254 27.5882769,-28.115073 C28.4840509,-26.5178266 31.6736058,-25.8083355 34.9118848,-25.8083355 C39.3645184,-25.8083355 43.8808682,-27.1381857 42.6440255,-29.3201384 C29.3535887,-52.7868256 7.24034083,-63.5825 -16.8143753,-63.5825 C-29.3102344,-63.5825 -42.3383106,-60.6660992 -54.9278699,-55.129216 C-91.2273285,-39.0961421 -120.450548,-6.75190228 -129.382051,30.3983379 C-131.938193,40.9872259 -133.175035,51.8185531 -133.294972,62.6819679 L-133.294972,66.1973361 C-132.916423,101.418759 -120.934041,137.035927 -103.295915,167.158996 C-76.3664763,213.040613 -31.6827235,239.601965 16.561637,262.512468 C71.7135765,288.752945 130.343668,307.716681 186.383885,332.199473 C224.178799,348.717426 260.69939,368.886227 295.732022,390.670101 C295.62333,396.902214 295.582102,402.97389 295.582102,408.85304 C295.582102,436.487542 296.58282,459.975621 297.583538,475.908867 C295.645818,475.669993 293.74183,475.427554 291.819101,475.160158 C267.307128,471.773139 243.672189,464.995538 219.550009,459.922142 C198.587399,455.497626 177.362429,452.777316 156.013775,451.194331 C145.41066,450.413534 134.661373,449.975004 123.889598,449.975004 L123.822133,449.975004 C122.911367,449.957178 121.974365,449.957178 121.063599,449.957178 C87.0916538,449.957178 52.546263,454.335344 21.8088484,467.377147 C-14.39691,482.754209 -37.0573671,514.121561 -45.6103217,550.565875 C-46.70474,555.254221 -47.150753,559.625257 -47.0195727,563.775246 C-46.8958885,577.045226 -40.8578474,587.951424 -31.5253072,599.388849 C-27.739819,604.030847 -25.5397382,608.594408 -25.1649374,613.949462 C-25.1387013,615.240094 -25.2136615,616.605597 -25.3935659,618.006753 C-26.3418119,625.329842 -29.4301706,632.699281 -37.0573671,635.137934 C-38.0318493,635.451678 -39.0213234,635.768989 -39.9958055,636.064907 C-41.603701,631.084208 -43.1104003,626.449341 -44.1785826,622.363528 C-44.6096035,620.744889 -46.7946922,620.338447 -48.2451714,620.142357 C-52.0456516,619.636087 -56.4757972,619.10486 -60.8572187,619.10486 C-62.2739658,619.10486 -63.6832168,619.158339 -65.0662318,619.275993 C-67.922214,619.443561 -70.703236,619.864265 -73.3530778,620.712802 C-78.5778011,622.363528 -79.6234954,630.745506 -79.5747713,636.806486 C-79.5897633,638.94922 -79.458583,640.913691 -79.2824266,642.396848 C-79.1250103,644.036878 -76.4751685,644.425494 -75.2195858,644.614454 C-70.7781962,645.277596 -66.3480506,645.609167 -61.932897,645.609167 C-59.0206947,645.609167 -56.1122404,645.466556 -53.2037861,645.19916 C-50.2578517,654.935945 -47.7804184,664.772559 -47.6904662,674.876569 L-47.6904662,675.58606 C-47.8216465,681.907305 -50.4714882,687.629583 -54.6317772,692.20384 C-54.6317772,692.104012 -54.6205332,691.993488 -54.6205332,691.915052 C-54.4293848,689.786579 -53.3049823,684.078562 -54.8791458,681.793216 C-55.3738828,680.773545 -56.3183809,679.875094 -58.0499606,678.769857 C-61.7679847,676.420336 -65.8795496,674.719696 -70.0660747,673.222278 C-74.5299523,671.614335 -79.4248509,670.919105 -84.2560334,670.919105 C-84.555874,670.919105 -84.8594627,670.919105 -85.1555553,670.936932 C-85.5940723,670.919105 -86.0400853,670.904844 -86.4823502,670.904844 C-87.1607397,670.904844 -87.8278851,670.919105 -88.4987786,670.947628 C-98.2211116,671.439637 -109.652536,675.01918 -112.932044,684.809445 C-114.14265,688.403249 -114.356287,691.476522 -113.779093,694.089874 C-112.219922,704.58963 -99.3342701,707.862559 -85.3354597,707.862559 C-82.2658411,707.862559 -79.1437503,707.727078 -76.0778797,707.459682 C-75.1258856,707.377681 -74.1888836,707.331332 -73.2518816,707.270722 C-75.2083418,712.183681 -78.2254883,716.675937 -82.5731777,720.141391 C-93.9483824,729.197208 -110.836907,730.887151 -123.805015,737.504315 C-131.087395,741.237166 -137.252868,746.642133 -142.200239,752.884942 C-142.53756,753.337733 -142.728708,753.80835 -142.788676,754.296794 L-142.788676,754.849413 C-142.81866,754.981328 -142.844896,755.102548 -142.863636,755.230898 L-142.863636,756.004564 C-142.282695,760.55743 -132.185561,766.871544 -129.738112,768.008869 C-112.857083,775.645704 -91.463453,773.239138 -73.3118497,775.271349 C-53.0726058,777.556695 -41.3300964,786.034936 -34.7223581,803.993262 C-31.9788161,811.505312 -30.0410959,819.548588 -29.3776985,827.627518 C-33.286871,827.909175 -37.0311311,828.604405 -40.4268264,829.691816 C-47.6417421,831.977162 -55.475079,840.266443 -55.467583,847.290049 C-55.8873599,851.069248 -54.1145521,854.524006 -48.6836883,856.506303 C-44.9581683,857.875372 -40.7566512,858.709648 -36.6038582,858.791649 C-35.8317685,858.837998 -35.0634268,858.870085 -34.2800931,858.870085 C-26.847793,858.870085 -19.7790497,856.256734 -16.3758583,849.325825 C-14.4156501,845.289926 -13.4936401,840.769148 -13.2725076,836.105759 C-13.2725076,836.038018 -13.2650116,835.973843 -13.2650116,835.913233 C-9.65193177,837.203866 -6.14754418,839.111292 -3.11540561,841.589163 C-9.81684413,844.815743 -14.0483453,851.165511 -13.5273722,861.626048 L-13.5273722,861.643875 C-13.5198761,861.989707 -13.5123801,862.353366 -13.4936401,862.71346 C-13.3699558,863.362341 -12.9389349,863.850785 -12.3130175,864.118181 C-5.3267304,867.284151 1.31473999,868.624697 8.62335582,868.624697 L10.5048559,868.624697 C12.2176956,868.624697 13.9530234,868.542696 15.7220832,868.385823 C17.5023871,868.243212 21.190427,868.057817 21.610204,865.833081 C21.8013524,864.874021 21.9400287,863.925655 22.0337289,863.009378 C22.9032668,864.025483 24.0239212,864.856194 25.4481643,865.451596 C31.3662691,867.95799 37.4193022,869.002617 43.5997676,869.002617 C44.0607726,869.002617 44.5180296,868.984791 44.9865306,868.984791 L45.8748085,868.984791 C49.1543156,868.984791 52.4525628,868.717395 55.7395659,868.193298 C57.156313,867.95799 59.7536826,867.312674 59.6487384,865.647687 C59.7986587,865.376725 59.8136507,865.077242 59.6974625,864.777758 C56.3092631,856.773699 47.5539162,849.682353 37.2131618,844.96192 C39.4994467,840.2914 43.9970565,837.332216 51.0358157,837.079081 C52.4075867,837.175343 53.7606176,837.346477 55.0274444,837.503349 C68.265409,839.253903 84.7266607,844.765829 94.3627896,854.017736 C111.367502,870.375251 115.167983,896.858167 116.011284,919.087701 C116.052513,920.695643 116.093741,922.285759 116.104985,923.87944 C116.269897,935.224168 115.242943,946.579592 113.387679,957.785274 C111.408731,969.572097 106.34892,980.471164 103.298041,991.969199 C101.588949,998.386707 101.611437,1004.73647 102.844532,1010.91154 C104.677308,1021.04764 109.759607,1030.71669 115.921332,1039.64772 C78.7860678,1040.59965 39.2483302,1048.83545 0.812506902,1070.62645 L-6.65352527,1074.90479 L2.04934958,1075.22923 C2.08308165,1075.22923 3.43236458,1075.28984 5.87606587,1075.40037 C14.4964845,1075.77829 36.5272763,1076.97266 59.7311945,1079.49688 C71.3162876,1080.78751 83.2162134,1082.36336 93.8605565,1084.36349 C104.493656,1086.31726 113.901156,1088.71313 120.392706,1091.46909 C132.393828,1096.54249 154.225975,1106.66076 179.851107,1116.23711 C181.279098,1118.50463 182.628381,1120.8078 183.917696,1123.17158 C203.830863,1159.74425 201.941867,1203.72913 200.690032,1244.76197 C195.761401,1254.24205 191.796009,1262.30672 187.714428,1268.23222 C183.599115,1274.21833 179.532526,1277.82996 174.360275,1279.25964 C172.493767,1279.75165 171.144484,1280.19017 170.083798,1280.67862 C169.701501,1280.87114 169.337944,1281.07436 168.959395,1281.34533 C165.087703,1256.66644 157.906519,1231.25668 140.991759,1212.97748 C129.391673,1200.48829 114.230981,1195.49333 98.3094421,1195.49333 C70.4467498,1195.49333 40.1778362,1210.80265 22.2885934,1228.15132 C-0.840364679,1250.58407 -11.0499388,1280.56809 -29.0741098,1306.26665 C-34.3475573,1313.73591 -41.123956,1320.08568 -49.0997172,1324.4175 L-36.3977177,1324.4175 C-33.4780194,1322.52077 -30.7044934,1320.42795 -28.1221158,1318.11765 C-9.97800847,1301.74231 -1.62744638,1275.87262 11.2582055,1255.92486 C23.952709,1236.2659 40.2003242,1219.1882 62.1411638,1208.84531 C72.9129391,1203.77548 85.768607,1199.7895 98.1820098,1199.7895 C106.360164,1199.7895 114.354665,1201.52579 121.442148,1205.83978 C134.380272,1213.67271 142.089925,1227.53809 147.547025,1240.71181 C158.401256,1266.89524 161.808196,1295.97724 163.363619,1324.4175 L173.468249,1324.4175 C173.055968,1317.79677 172.549987,1311.16891 171.864101,1304.53392 C171.275664,1298.77956 170.604771,1292.82553 169.765217,1286.77882 C169.907641,1286.84299 170.050066,1286.87151 170.199986,1286.93925 C171.90533,1287.42057 174.154134,1287.53109 177.287469,1287.56318 C182.804537,1287.56318 190.77655,1286.96778 199.92169,1285.72349 C199.704306,1298.60842 199.449441,1311.529 199.299521,1324.4175 L214.613882,1324.4175 C214.696338,1310.68047 214.883739,1296.91135 215.101123,1283.14223 C215.104871,1283.14223 215.112367,1283.14223 215.112367,1283.14223 C229.767079,1280.17591 245.328809,1275.61948 257.588543,1268.95597 C276.088711,1258.92327 296.410411,1242.42314 315.787613,1228.48289 C321.379641,1224.46125 326.877969,1220.68205 332.203889,1217.30573 L331.540491,1321.20518 C325.596151,1320.79161 319.63307,1320.57056 313.669989,1320.5563 L310.885219,1320.5563 C294.746296,1320.6383 278.562397,1322.0252 262.490938,1324.4175 L359.961637,1324.4175 L358.803502,1204.60976 C361.636997,1203.88601 364.32057,1203.50809 366.812996,1203.50809 L367.697526,1203.50809 L368.334687,1203.1159 L368.368419,1203.09808 C369.016825,1202.73798 373.229586,1200.45264 379.301359,1198.90531 C380.987963,1240.7225 383.870181,1282.58604 386.040277,1324.4175 L402.520269,1324.4175 C400.691241,1287.83414 398.17258,1251.32565 396.096183,1215.02395 C395.755115,1209.30523 395.40655,1203.54017 395.061733,1197.77511 C399.184542,1198.24573 403.491003,1199.46149 407.789969,1201.74327 C413.726813,1204.94489 419.731122,1210.20725 425.22945,1218.77819 C437.320525,1237.69558 444.681613,1249.20431 448.99557,1255.97478 C449.14549,1256.21365 449.295411,1256.44896 449.434087,1256.66644 L450.116224,1306.14543 C446.289508,1312.12797 442.6352,1318.2246 439.168293,1324.4175 L490.860821,1324.4175 C490.482272,1308.81583 490.088731,1292.84336 489.683946,1276.59994 C500.234589,1263.33352 511.579809,1250.65181 523.479735,1238.51916 C537.594734,1224.16177 554.696895,1212.25372 571.92274,1200.62377 C573.890444,1207.98252 575.62952,1215.40543 577.106235,1222.87113 C551.556064,1250.56981 544.506061,1288.40102 545.210686,1324.4175 L560.536292,1324.4175 C560.285175,1307.33623 561.923055,1290.32271 566.22202,1273.6871 C569.299134,1261.83254 574.074097,1251.15808 580.250814,1241.57817 C582.776972,1260.07485 583.624022,1278.96015 582.398423,1298.24833 C581.832474,1307.04031 580.798023,1315.76813 579.358788,1324.4175 L594.755606,1324.4175 C596.374745,1314.81976 597.555368,1305.09724 598.166293,1295.31767 C599.687984,1271.25914 597.843964,1247.7675 593.462543,1224.74291 C614.597561,1202.29589 644.360493,1187.36092 675.944958,1177.67049 C710.2055,1167.17786 747.164608,1162.45386 784.269888,1162.45386 C822.818152,1162.45386 861.486352,1167.55578 897.437245,1176.56525 C929.344039,1184.58713 965.602269,1198.13164 982.048529,1227.31347 C990.009298,1241.38564 988.731227,1255.43999 981.85738,1266.51732 C973.964075,1264.29258 965.27994,1263.47613 956.798198,1263.47613 C947.57435,1263.47613 938.571635,1264.45302 931.041886,1265.64739 C929.666367,1265.872 927.331358,1266.38897 927.050258,1267.98265 C925.584786,1275.79418 925.356158,1283.35971 926.776653,1291.13916 C927.29013,1293.96286 932.076336,1294.34434 934.373865,1294.5333 C937.267328,1294.77931 940.175782,1294.92192 943.069244,1294.92192 C959.481772,1294.92192 975.549483,1290.64002 987.812965,1280.14383 C989.585773,1281.97638 991.167432,1284.06564 992.520463,1286.51499 C995.200289,1291.28533 996.223495,1296.81152 995.740002,1302.2664 C994.919189,1302.17014 994.105871,1302.13805 993.315041,1302.07744 C991.456029,1301.98118 989.518309,1301.93483 987.539361,1301.93483 C978.562881,1301.93483 968.739352,1303.02581 960.699874,1305.58924 C956.674514,1306.8977 955.280255,1312.01745 954.264545,1315.48647 C953.777303,1317.16928 959.834085,1321.3264 961.022203,1322.2712 C962.004181,1323.06626 963.049876,1323.77218 964.129302,1324.4175 L1000.5487,1324.4175 C1004.20675,1321.70789 1006.83785,1317.99286 1008.57693,1313.80009 C1010.7995,1316.63449 1011.69152,1320.33882 1011.67653,1324.4175 L1027.23077,1324.4175 C1027.12957,1323.33009 1026.99839,1322.22842 1026.76601,1321.10892 C1025.07566,1312.68059 1018.53164,1307.89242 1010.76577,1305.19706 C1011.60907,1298.01302 1010.28602,1290.51523 1007.04025,1284.68243 C1004.10556,1279.4486 1000.03147,1275.402 995.200289,1272.32873 C1006.37685,1257.09428 1003.95564,1237.08235 994.150847,1221.51633 C970.579624,1184.44809 913.643632,1172.05873 872.408047,1164.87469 C844.301734,1159.97599 815.59574,1157.3769 786.912234,1157.2022 L781.541338,1157.2022 C759.607995,1157.31629 737.693391,1158.84223 716.07488,1161.83707 C672.316886,1167.9337 624.507294,1181.87752 590.374184,1210.31421 C588.874981,1204.01436 587.199621,1197.77511 585.359349,1191.55013 C591.393642,1187.45362 597.330487,1183.32502 603.076184,1179.05738 C628.858732,1159.91538 653.483145,1139.41501 677.327973,1118.09462 C721.726877,1078.34529 763.326019,1034.0217 789.146047,980.959608 C822.671979,912.160358 834.095908,837.050558 836.584586,761.377445 C837.83642,763.078084 838.983311,764.871421 840.070233,766.732498 C844.451655,774.155416 847.738658,782.405479 852.161307,789.026208 C852.442408,789.400562 852.716013,789.739264 853.113301,790.110053 C853.49185,790.413102 854.039059,790.791022 854.852377,790.915807 L855.706923,790.915807 C856.538981,790.776761 857.243606,790.31684 857.584675,789.921094 C858.296797,789.076122 858.416733,788.455763 858.611629,787.764098 C859.076382,785.649886 859.207563,782.598004 859.207563,778.419493 C859.207563,764.322368 857.502219,738.071195 857.502219,713.49214 C857.502219,698.696219 858.131884,684.492135 860.110833,674.184904 C861.062827,669.029506 862.404613,664.865256 863.945045,662.155642 C864.739623,660.829357 865.567932,659.902384 866.313786,659.328373 C867.074632,658.71871 867.738029,658.494097 868.577583,658.46201 C871.257409,658.387139 873.674874,657.649125 875.653822,656.354928 C878.655977,654.369066 880.556217,651.310053 881.699359,647.783989 C882.842502,644.243664 883.325995,640.147155 883.325995,635.701248 C883.284767,624.991141 880.601193,612.177516 877.231734,601.078793 C875.571366,595.509822 873.708606,590.404338 871.898318,586.179479 C870.118014,581.976011 868.416419,578.695952 866.793531,576.631653 C865.013227,574.449701 863.397836,570.46728 862.172237,565.828848 C860.309477,558.883679 859.207563,550.455352 858.611629,543.838188 C858.296797,540.526041 858.131884,537.631032 858.023192,535.605951 C857.98946,535.260119 857.981964,534.942809 857.966972,534.636195 C858.296797,534.625499 858.652857,534.618368 859.038902,534.618368 C862.213465,534.618368 867.277024,535.185248 872.674156,538.087388 C878.108768,540.985962 883.951912,546.20197 888.700638,555.863885 C895.300881,569.269346 899.491154,578.934826 904.757105,585.812255 C907.358223,589.277709 910.292913,592.012281 913.883505,593.96962 C917.436617,595.966178 921.634386,597.096373 926.578009,597.581251 C928.125936,597.68821 930.258552,598.597357 932.814694,600.248082 C937.293564,603.157353 942.911828,608.227184 949.470842,614.202597 C959.399316,623.15502 971.614074,634.132524 986.718547,642.853204 C1001.85675,651.609537 1019.92215,658.119742 1041.35326,658.119742 C1044.91762,658.119742 1048.59066,657.934348 1052.33492,657.545732 L1057.48469,657.032331 L1053.97655,653.420701 C1053.97655,653.420701 1052.98333,652.443813 1051.24051,650.604128 C1045.19872,644.161663 1029.97431,627.622319 1016.33156,609.539208 C1009.54017,600.46913 1003.0786,591.042524 998.427324,582.311148 C993.71233,573.590468 990.87134,565.572148 990.87134,559.742912 C990.87134,558.159926 991.066236,556.773032 991.463525,555.539444 C992.449251,552.483997 992.891516,549.785079 992.891516,547.296512 C992.891516,543.98793 992.010734,541.128573 990.399091,538.875315 C987.977878,535.445514 984.143665,533.534522 980.077076,532.475634 C975.961764,531.427441 971.456658,531.120826 967.101472,531.120826 C960.741103,531.120826 954.654337,531.762577 951.333602,531.762577 L951.164942,531.719794 C951.059998,531.719794 950.460316,530.903344 949.973075,529.241923 C949.152261,526.457437 948.357684,521.765526 946.431208,516.342732 C943.466533,508.146148 937.649625,498.177619 924.557832,489.300067 C912.286854,480.971567 893.741709,473.60926 865.211872,469.05996 C867.914185,467.67663 872.153183,466.303997 878.53604,466.28617 C882.77129,466.28617 887.902313,466.885138 894.15399,468.532298 C906.736054,471.773139 921.825534,482.233677 938.519162,491.970463 C955.201547,501.675161 973.667983,510.741674 993.71233,510.773761 C994.65308,510.773761 995.657546,510.741674 996.639524,510.695325 C997.861375,510.663237 999.086974,510.627585 1000.28259,510.627585 C1018.12311,510.627585 1030.88507,516.713521 1039.98149,523.751388 C1048.9917,530.78569 1054.20893,538.836097 1056.37903,542.593904 L1057.00494,543.463833 L1057.6496,543.98793 C1057.96443,544.17689 1058.47791,544.397937 1059.17129,544.397937 L1059.27249,544.397937 C1060.11579,544.397937 1060.97783,543.863145 1061.28142,543.417485 C1061.83613,542.743646 1061.83613,542.362161 1061.90359,542.034155 L1061.98605,541.128573 C1061.98605,539.734548 1061.64123,537.780773 1060.99657,534.999853 C1058.77775,525.48055 1052.58604,507.393874 1041.20334,490.095125 C1029.77566,472.789245 1013.05205,456.207118 989.641993,450.335098 C986.407462,449.343949 916.574575,428.294523 856.838821,428.248175 C856.591453,428.248175 856.344084,428.248175 856.104212,428.258871 C884.525357,395.354882 918.306155,365.381554 954.935438,341.604688 C982.910571,323.453836 1016.13291,307.702419 1050.66706,307.702419 C1052.91587,307.702419 1055.18341,307.763029 1057.44721,307.905641 C1078.19243,309.142793 1094.87482,318.88671 1110.69141,330.926668 C1134.34134,348.931342 1156.75068,368.376391 1178.03562,388.880329 C1213.04951,422.732683 1244.08677,464.549878 1294.59118,477.680812 C1305.45291,480.515211 1316.83561,482.144545 1328.12461,482.144545 C1347.17573,482.144545 1365.9645,477.498983 1381.60868,466.207734 C1393.24625,457.811495 1402.35391,444.277683 1402.86364,430.626218 L1402.86364,428.276697 C1402.65,422.4332 1400.81348,416.600398 1396.8256,411.216822 Z" stroke="#FFFFFF" stroke-width="2.263"></path>
    </g>
</svg>