<?xml version="1.0" encoding="UTF-8"?>
<svg width="150px" height="43px" viewBox="0 0 150 43" version="1.1" xmlns="http://www.w3.org/2000/svg" xmlns:xlink="http://www.w3.org/1999/xlink">
    <title>Combined Shape</title>
    <g id="Page-1" stroke="none" stroke-width="1" fill="none" fill-rule="evenodd">
        <path d="M39.495,34.74 C39.935,34.74 40.375,34.8266667 40.815,35 C41.255,35.1733333 41.6316667,35.46 41.945,35.86 L41.945,35.86 L41.315,36.33 L41.2327778,36.2166667 C41.172037,36.1411111 41.0994444,36.0655556 41.015,35.99 C40.8883333,35.8766667 40.7433333,35.7766667 40.58,35.69 C40.4166667,35.6033333 40.2416667,35.5333333 40.055,35.48 C39.8683333,35.4266667 39.6816667,35.4 39.495,35.4 C39.0416667,35.4 38.635,35.4833333 38.275,35.65 C37.915,35.8166667 37.61,36.04 37.36,36.32 C37.11,36.6 36.9183333,36.925 36.785,37.295 C36.6516667,37.665 36.585,38.0533333 36.585,38.46 C36.585,38.8666667 36.6516667,39.255 36.785,39.625 C36.9183333,39.995 37.11,40.32 37.36,40.6 C37.61,40.88 37.915,41.1033333 38.275,41.27 C38.635,41.4366667 39.0416667,41.52 39.495,41.52 C39.6816667,41.52 39.8666667,41.5033333 40.05,41.47 C40.2333333,41.4366667 40.4133333,41.38 40.59,41.3 C40.7666667,41.22 40.9333333,41.1116667 41.09,40.975 C41.2466667,40.8383333 41.3916667,40.6666667 41.525,40.46 L41.525,40.46 L42.115,40.88 L41.9855556,41.0566667 C41.892963,41.1722222 41.7877778,41.2833333 41.67,41.39 C41.4933333,41.55 41.2916667,41.6883333 41.065,41.805 C40.8383333,41.9216667 40.5933333,42.0133333 40.33,42.08 C40.0666667,42.1466667 39.7883333,42.18 39.495,42.18 C38.9683333,42.18 38.48,42.0866667 38.03,41.9 C37.58,41.7133333 37.19,41.455 36.86,41.125 C36.53,40.795 36.2716667,40.4033333 36.085,39.95 C35.8983333,39.4966667 35.805,39 35.805,38.46 C35.805,37.92 35.8983333,37.4233333 36.085,36.97 C36.2716667,36.5166667 36.53,36.125 36.86,35.795 C37.19,35.465 37.58,35.2066667 38.03,35.02 C38.48,34.8333333 38.9683333,34.74 39.495,34.74 Z M61.425,34.74 C61.825,34.74 62.1883333,34.8033333 62.515,34.93 C62.8416667,35.0566667 63.145,35.28 63.425,35.6 L63.425,35.6 L62.795,36.09 L62.6967,35.9589 C62.3889,35.5863 61.965,35.4 61.425,35.4 C61.2383333,35.4 61.055,35.425 60.875,35.475 C60.695,35.525 60.5333333,35.6016667 60.39,35.705 C60.2466667,35.8083333 60.1316667,35.9416667 60.045,36.105 C59.9583333,36.2683333 59.915,36.46 59.915,36.68 C59.915,37 60.005,37.2483333 60.185,37.425 C60.365,37.6016667 60.5883333,37.7466667 60.855,37.86 C61.1216667,37.9733333 61.4133333,38.075 61.73,38.165 C62.0466667,38.255 62.3383333,38.375 62.605,38.525 C62.8716667,38.675 63.095,38.8733333 63.275,39.12 C63.455,39.3666667 63.545,39.7033333 63.545,40.13 C63.545,40.45 63.4766667,40.7383333 63.34,40.995 C63.2033333,41.2516667 63.0233333,41.4666667 62.8,41.64 C62.5766667,41.8133333 62.3266667,41.9466667 62.05,42.04 C61.7733333,42.1333333 61.495,42.18 61.215,42.18 C60.7816667,42.18 60.37,42.0983333 59.98,41.935 C59.59,41.7716667 59.2583333,41.5033333 58.985,41.13 L58.985,41.13 L59.635,40.66 L59.7342,40.8098 C59.8760667,41.0012667 60.0563333,41.1596667 60.275,41.285 C60.5483333,41.4416667 60.8716667,41.52 61.245,41.52 C61.425,41.52 61.605,41.4916667 61.785,41.435 C61.965,41.3783333 62.1266667,41.295 62.27,41.185 C62.4133333,41.075 62.5316667,40.94 62.625,40.78 C62.7183333,40.62 62.765,40.4366667 62.765,40.23 C62.765,39.9833333 62.7133333,39.7783333 62.61,39.615 C62.5066667,39.4516667 62.37,39.315 62.2,39.205 C62.03,39.095 61.8366667,39.0033333 61.62,38.93 C61.4033333,38.8566667 61.18,38.7833333 60.95,38.71 C60.72,38.6366667 60.4966667,38.5533333 60.28,38.46 C60.0633333,38.3666667 59.87,38.2483333 59.7,38.105 C59.53,37.9616667 59.3933333,37.7816667 59.29,37.565 C59.1866667,37.3483333 59.135,37.0766667 59.135,36.75 C59.135,36.41 59.2,36.1133333 59.33,35.86 C59.46,35.6066667 59.6333333,35.3966667 59.85,35.23 C60.0666667,35.0633333 60.3116667,34.94 60.585,34.86 C60.8583333,34.78 61.1383333,34.74 61.425,34.74 Z M86.575,34.74 C86.8083333,34.74 87.0283333,34.775 87.235,34.845 C87.4416667,34.915 87.6233333,35.0166667 87.78,35.15 C87.9366667,35.2833333 88.06,35.4483333 88.15,35.645 C88.24,35.8416667 88.285,36.07 88.285,36.33 C88.285,36.5633333 88.2383333,36.7716667 88.145,36.955 C88.0516667,37.1383333 87.93,37.305 87.78,37.455 C87.63,37.605 87.4616667,37.7383333 87.275,37.855 C87.0883333,37.9716667 86.905,38.0766667 86.725,38.17 L86.725,38.17 L88.355,39.85 L89.325,38.17 L90.135,38.17 L88.835,40.36 L90.425,42 L89.405,42 L88.405,40.96 L88.2266,41.1782 C87.9855333,41.4560667 87.7316667,41.6816667 87.465,41.855 C87.1316667,42.0716667 86.725,42.18 86.245,42.18 C85.9516667,42.18 85.67,42.135 85.4,42.045 C85.13,41.955 84.8933333,41.8233333 84.69,41.65 C84.4866667,41.4766667 84.325,41.265 84.205,41.015 C84.085,40.765 84.025,40.48 84.025,40.16 C84.025,39.9 84.0683333,39.6633333 84.155,39.45 C84.2416667,39.2366667 84.36,39.045 84.51,38.875 C84.66,38.705 84.8316667,38.5533333 85.025,38.42 C85.2183333,38.2866667 85.4216667,38.17 85.635,38.07 C85.4216667,37.8433333 85.23,37.5916667 85.06,37.315 C84.89,37.0383333 84.805,36.7366667 84.805,36.41 C84.805,36.1433333 84.85,35.9066667 84.94,35.7 C85.03,35.4933333 85.155,35.3183333 85.315,35.175 C85.475,35.0316667 85.6616667,34.9233333 85.875,34.85 C86.0883333,34.7766667 86.3216667,34.74 86.575,34.74 Z M103.835,34.74 C104.361667,34.74 104.85,34.8333333 105.3,35.02 C105.75,35.2066667 106.14,35.465 106.47,35.795 C106.8,36.125 107.058333,36.5166667 107.245,36.97 C107.431667,37.4233333 107.525,37.92 107.525,38.46 C107.525,39 107.431667,39.4966667 107.245,39.95 C107.058333,40.4033333 106.8,40.795 106.47,41.125 C106.14,41.455 105.75,41.7133333 105.3,41.9 C104.85,42.0866667 104.361667,42.18 103.835,42.18 C103.308333,42.18 102.82,42.0866667 102.37,41.9 C101.92,41.7133333 101.53,41.455 101.2,41.125 C100.87,40.795 100.611667,40.4033333 100.425,39.95 C100.238333,39.4966667 100.145,39 100.145,38.46 C100.145,37.92 100.238333,37.4233333 100.425,36.97 C100.611667,36.5166667 100.87,36.125 101.2,35.795 C101.53,35.465 101.92,35.2066667 102.37,35.02 C102.82,34.8333333 103.308333,34.74 103.835,34.74 Z M128.105,34.74 C128.545,34.74 128.985,34.8266667 129.425,35 C129.865,35.1733333 130.241667,35.46 130.555,35.86 L130.555,35.86 L129.925,36.33 L129.842778,36.2166667 C129.782037,36.1411111 129.709444,36.0655556 129.625,35.99 C129.498333,35.8766667 129.353333,35.7766667 129.19,35.69 C129.026667,35.6033333 128.851667,35.5333333 128.665,35.48 C128.478333,35.4266667 128.291667,35.4 128.105,35.4 C127.651667,35.4 127.245,35.4833333 126.885,35.65 C126.525,35.8166667 126.22,36.04 125.97,36.32 C125.72,36.6 125.528333,36.925 125.395,37.295 C125.261667,37.665 125.195,38.0533333 125.195,38.46 C125.195,38.8666667 125.261667,39.255 125.395,39.625 C125.528333,39.995 125.72,40.32 125.97,40.6 C126.22,40.88 126.525,41.1033333 126.885,41.27 C127.245,41.4366667 127.651667,41.52 128.105,41.52 C128.291667,41.52 128.476667,41.5033333 128.66,41.47 C128.843333,41.4366667 129.023333,41.38 129.2,41.3 C129.376667,41.22 129.543333,41.1116667 129.7,40.975 C129.856667,40.8383333 130.001667,40.6666667 130.135,40.46 L130.135,40.46 L130.725,40.88 L130.595556,41.0566667 C130.502963,41.1722222 130.397778,41.2833333 130.28,41.39 C130.103333,41.55 129.901667,41.6883333 129.675,41.805 C129.448333,41.9216667 129.203333,42.0133333 128.94,42.08 C128.676667,42.1466667 128.398333,42.18 128.105,42.18 C127.578333,42.18 127.09,42.0866667 126.64,41.9 C126.19,41.7133333 125.8,41.455 125.47,41.125 C125.14,40.795 124.881667,40.4033333 124.695,39.95 C124.508333,39.4966667 124.415,39 124.415,38.46 C124.415,37.92 124.508333,37.4233333 124.695,36.97 C124.881667,36.5166667 125.14,36.125 125.47,35.795 C125.8,35.465 126.19,35.2066667 126.64,35.02 C127.09,34.8333333 127.578333,34.74 128.105,34.74 Z M116.175,34.92 L118.285,38.26 L120.395,34.92 L121.295,34.92 L118.645,38.95 L118.645,42 L117.925,42 L117.925,38.95 L115.275,34.92 L116.175,34.92 Z M24.465,34.92 L27.545,42 L26.705,42 L25.925,40.14 L22.305,40.14 L21.525,42 L20.685,42 L23.765,34.92 L24.465,34.92 Z M4.085,34.92 L7.165,42 L6.325,42 L5.545,40.14 L1.925,40.14 L1.145,42 L0.305,42 L3.385,34.92 L4.085,34.92 Z M51.505,34.92 L51.7692,34.9288 C52.1217333,34.9522667 52.4753333,35.0226667 52.83,35.14 C53.2733333,35.2866667 53.6733333,35.5083333 54.03,35.805 C54.3866667,36.1016667 54.675,36.4716667 54.895,36.915 C55.115,37.3583333 55.225,37.8733333 55.225,38.46 C55.225,39.0533333 55.115,39.57 54.895,40.01 C54.675,40.45 54.3866667,40.8183333 54.03,41.115 C53.6733333,41.4116667 53.2733333,41.6333333 52.83,41.78 C52.3866667,41.9266667 51.945,42 51.505,42 L51.505,42 L49.155,42 L49.155,34.92 L51.505,34.92 Z M47.715,34.92 L47.715,35.58 L44.045,35.58 L44.045,37.99 L47.475,37.99 L47.475,38.65 L44.045,38.65 L44.045,41.34 L47.835,41.34 L47.835,42 L43.325,42 L43.325,34.92 L47.715,34.92 Z M134.755,34.92 L137.835,42 L136.995,42 L136.215,40.14 L132.595,40.14 L131.815,42 L130.975,42 L134.055,34.92 L134.755,34.92 Z M96.435,34.92 L96.653125,34.925625 C96.869375,34.936875 97.08,34.965 97.285,35.01 C97.5583333,35.07 97.8016667,35.17 98.015,35.31 C98.2283333,35.45 98.3983333,35.6333333 98.525,35.86 C98.6516667,36.0866667 98.715,36.3666667 98.715,36.7 C98.715,37.0866667 98.6066667,37.4183333 98.39,37.695 C98.1733333,37.9716667 97.865,38.1566667 97.465,38.25 L97.465,38.25 L97.465,38.27 L97.6474219,38.2913281 C98.061224,38.3558594 98.3920833,38.52375 98.64,38.795 C98.9233333,39.105 99.065,39.52 99.065,40.04 C99.065,40.1533333 99.0366667,40.32 98.98,40.54 C98.9233333,40.76 98.805,40.9783333 98.625,41.195 C98.445,41.4116667 98.185,41.6 97.845,41.76 C97.505,41.92 97.0516667,42 96.485,42 L96.485,42 L94.325,42 L94.325,34.92 L96.435,34.92 Z M72.025,34.92 L72.025,42 L71.305,42 L71.305,34.92 L72.025,34.92 Z M65.725,34.92 L65.725,37.99 L65.825,37.99 L69.155,34.92 L70.185,34.92 L66.615,38.13 L70.385,42 L69.325,42 L65.845,38.35 L65.725,38.35 L65.725,42 L65.005,42 L65.005,34.92 L65.725,34.92 Z M140.975,34.92 L141.209383,34.9258025 C141.819424,34.956749 142.30963,35.1114815 142.68,35.39 C143.096667,35.7033333 143.305,36.1766667 143.305,36.81 C143.305,37.3033333 143.15,37.7183333 142.84,38.055 C142.53,38.3916667 142.081667,38.5866667 141.495,38.64 L141.495,38.64 L143.535,42 L142.655,42 L140.715,38.71 L139.515,38.71 L139.515,42 L138.795,42 L138.795,34.92 L140.975,34.92 Z M29.405,34.92 L33.625,40.92 L33.645,40.92 L33.645,34.92 L34.365,34.92 L34.365,42 L33.465,42 L29.245,35.94 L29.225,35.94 L29.225,42 L28.505,42 L28.505,34.92 L29.405,34.92 Z M149.115,34.92 L149.115,35.58 L145.445,35.58 L145.445,37.99 L148.875,37.99 L148.875,38.65 L145.445,38.65 L145.445,41.34 L149.235,41.34 L149.235,42 L144.725,42 L144.725,34.92 L149.115,34.92 Z M111.215,34.92 L111.4792,34.9288 C111.831733,34.9522667 112.185333,35.0226667 112.54,35.14 C112.983333,35.2866667 113.383333,35.5083333 113.74,35.805 C114.096667,36.1016667 114.385,36.4716667 114.605,36.915 C114.825,37.3583333 114.935,37.8733333 114.935,38.46 C114.935,39.0533333 114.825,39.57 114.605,40.01 C114.385,40.45 114.096667,40.8183333 113.74,41.115 C113.383333,41.4116667 112.983333,41.6333333 112.54,41.78 C112.096667,41.9266667 111.655,42 111.215,42 L111.215,42 L108.865,42 L108.865,34.92 L111.215,34.92 Z M10.375,34.92 L10.6392,34.9288 C10.9917333,34.9522667 11.3453333,35.0226667 11.7,35.14 C12.1433333,35.2866667 12.5433333,35.5083333 12.9,35.805 C13.2566667,36.1016667 13.545,36.4716667 13.765,36.915 C13.985,37.3583333 14.095,37.8733333 14.095,38.46 C14.095,39.0533333 13.985,39.57 13.765,40.01 C13.545,40.45 13.2566667,40.8183333 12.9,41.115 C12.5433333,41.4116667 12.1433333,41.6333333 11.7,41.78 C11.2566667,41.9266667 10.815,42 10.375,42 L10.375,42 L8.025,42 L8.025,34.92 L10.375,34.92 Z M15.345,34.92 L17.595,40.92 L17.615,40.92 L19.935,34.92 L20.715,34.92 L17.955,42 L17.235,42 L14.545,34.92 L15.345,34.92 Z M74.845,34.92 L79.065,40.92 L79.085,40.92 L79.085,34.92 L79.805,34.92 L79.805,42 L78.905,42 L74.685,35.94 L74.665,35.94 L74.665,42 L73.945,42 L73.945,34.92 L74.845,34.92 Z M86.085,38.52 L85.9165625,38.6184375 C85.7546875,38.7153125 85.6125,38.8075 85.49,38.895 C85.3266667,39.0116667 85.195,39.135 85.095,39.265 C84.995,39.395 84.9216667,39.5333333 84.875,39.68 C84.8283333,39.8266667 84.805,39.99 84.805,40.17 C84.805,40.37 84.845,40.5533333 84.925,40.72 C85.005,40.8866667 85.1116667,41.0283333 85.245,41.145 C85.3783333,41.2616667 85.5316667,41.3533333 85.705,41.42 C85.8783333,41.4866667 86.0616667,41.52 86.255,41.52 C86.4483333,41.52 86.6233333,41.4933333 86.78,41.44 C86.9366667,41.3866667 87.0833333,41.3133333 87.22,41.22 C87.3566667,41.1266667 87.485,41.0166667 87.605,40.89 C87.725,40.7633333 87.8416667,40.6266667 87.955,40.48 L87.955,40.48 L86.085,38.52 Z M103.835,35.4 C103.381667,35.4 102.975,35.4833333 102.615,35.65 C102.255,35.8166667 101.95,36.04 101.7,36.32 C101.45,36.6 101.258333,36.925 101.125,37.295 C100.991667,37.665 100.925,38.0533333 100.925,38.46 C100.925,38.8666667 100.991667,39.255 101.125,39.625 C101.258333,39.995 101.45,40.32 101.7,40.6 C101.95,40.88 102.255,41.1033333 102.615,41.27 C102.975,41.4366667 103.381667,41.52 103.835,41.52 C104.288333,41.52 104.695,41.4366667 105.055,41.27 C105.415,41.1033333 105.72,40.88 105.97,40.6 C106.22,40.32 106.411667,39.995 106.545,39.625 C106.678333,39.255 106.745,38.8666667 106.745,38.46 C106.745,38.0533333 106.678333,37.665 106.545,37.295 C106.411667,36.925 106.22,36.6 105.97,36.32 C105.72,36.04 105.415,35.8166667 105.055,35.65 C104.695,35.4833333 104.288333,35.4 103.835,35.4 Z M96.515,38.62 L95.045,38.62 L95.045,41.34 L96.425,41.34 C96.685,41.34 96.9283333,41.3133333 97.155,41.26 C97.3816667,41.2066667 97.5783333,41.125 97.745,41.015 C97.9116667,40.905 98.0433333,40.7666667 98.14,40.6 C98.2366667,40.4333333 98.285,40.2333333 98.285,40 C98.285,39.5333333 98.135,39.1866667 97.835,38.96 C97.535,38.7333333 97.095,38.62 96.515,38.62 L96.515,38.62 Z M110.985,35.58 L109.585,35.58 L109.585,41.34 L110.985,41.34 C111.525,41.34 111.993333,41.2583333 112.39,41.095 C112.786667,40.9316667 113.116667,40.715 113.38,40.445 C113.643333,40.175 113.838333,39.8683333 113.965,39.525 C114.091667,39.1816667 114.155,38.8266667 114.155,38.46 C114.155,38.0933333 114.091667,37.7383333 113.965,37.395 C113.838333,37.0516667 113.643333,36.745 113.38,36.475 C113.116667,36.205 112.786667,35.9883333 112.39,35.825 C111.993333,35.6616667 111.525,35.58 110.985,35.58 L110.985,35.58 Z M51.275,35.58 L49.875,35.58 L49.875,41.34 L51.275,41.34 C51.815,41.34 52.2833333,41.2583333 52.68,41.095 C53.0766667,40.9316667 53.4066667,40.715 53.67,40.445 C53.9333333,40.175 54.1283333,39.8683333 54.255,39.525 C54.3816667,39.1816667 54.445,38.8266667 54.445,38.46 C54.445,38.0933333 54.3816667,37.7383333 54.255,37.395 C54.1283333,37.0516667 53.9333333,36.745 53.67,36.475 C53.4066667,36.205 53.0766667,35.9883333 52.68,35.825 C52.2833333,35.6616667 51.815,35.58 51.275,35.58 L51.275,35.58 Z M10.145,35.58 L8.745,35.58 L8.745,41.34 L10.145,41.34 C10.685,41.34 11.1533333,41.2583333 11.55,41.095 C11.9466667,40.9316667 12.2766667,40.715 12.54,40.445 C12.8033333,40.175 12.9983333,39.8683333 13.125,39.525 C13.2516667,39.1816667 13.315,38.8266667 13.315,38.46 C13.315,38.0933333 13.2516667,37.7383333 13.125,37.395 C12.9983333,37.0516667 12.8033333,36.745 12.54,36.475 C12.2766667,36.205 11.9466667,35.9883333 11.55,35.825 C11.1533333,35.6616667 10.685,35.58 10.145,35.58 L10.145,35.58 Z M3.735,35.76 L2.195,39.48 L5.265,39.48 L3.735,35.76 Z M24.115,35.76 L22.575,39.48 L25.645,39.48 L24.115,35.76 Z M134.405,35.76 L132.865,39.48 L135.935,39.48 L134.405,35.76 Z M140.795,35.58 L139.515,35.58 L139.515,38.05 L140.795,38.05 C141.115,38.05 141.386667,38.0166667 141.61,37.95 C141.833333,37.8833333 142.011667,37.795 142.145,37.685 C142.278333,37.575 142.375,37.445 142.435,37.295 C142.495,37.145 142.525,36.9833333 142.525,36.81 C142.525,36.6433333 142.495,36.485 142.435,36.335 C142.375,36.185 142.278333,36.0533333 142.145,35.94 C142.011667,35.8266667 141.833333,35.7383333 141.61,35.675 C141.386667,35.6116667 141.115,35.58 140.795,35.58 L140.795,35.58 Z M96.425,35.58 L95.045,35.58 L95.045,38.02 L96.495,38.02 C96.6683333,38.02 96.84,37.9983333 97.01,37.955 C97.18,37.9116667 97.3333333,37.84 97.47,37.74 C97.6066667,37.64 97.7183333,37.5116667 97.805,37.355 C97.8916667,37.1983333 97.935,37.0066667 97.935,36.78 C97.935,36.7066667 97.92,36.6033333 97.89,36.47 C97.86,36.3366667 97.7933333,36.2033333 97.69,36.07 C97.5866667,35.9366667 97.435,35.8216667 97.235,35.725 C97.035,35.6283333 96.765,35.58 96.425,35.58 L96.425,35.58 Z M86.585,35.4 C86.285,35.4 86.0333333,35.4933333 85.83,35.68 C85.6266667,35.8666667 85.525,36.12 85.525,36.44 C85.525,36.56 85.5533333,36.685 85.61,36.815 C85.6666667,36.945 85.7333333,37.0666667 85.81,37.18 C85.8866667,37.2933333 85.9666667,37.3983333 86.05,37.495 C86.1333333,37.5916667 86.205,37.6633333 86.265,37.71 C86.3983333,37.63 86.5416667,37.5483333 86.695,37.465 C86.8483333,37.3816667 86.99,37.2866667 87.12,37.18 C87.25,37.0733333 87.3566667,36.95 87.44,36.81 C87.5233333,36.67 87.565,36.51 87.565,36.33 C87.565,36.05 87.47,35.825 87.28,35.655 C87.09,35.485 86.8583333,35.4 86.585,35.4 Z M134.396784,0 C139.051256,9.25839848 143.446834,18.6765265 148,27.9940841 C146.925025,28 145.855678,28 144.786332,27.9940841 C143.221709,24.9828861 141.809045,21.8888654 140.334472,18.8303402 C136.16402,18.8303402 131.993568,18.8362561 127.823116,18.8244243 C126.281005,21.85337 124.789548,24.9118952 123.320603,27.9763364 C122.211859,27.9881682 121.103116,27.9940841 120,28 C124.660101,18.7297697 129.083819,9.31164166 133.867739,0.112402282 C133.997186,0.082822734 134.261709,0.0236636383 134.396784,0 Z M106.364363,0 C107.574265,0.0118468373 108.784167,0.017770256 110,0.0296170933 C107.082001,4.21747409 104.276689,8.4764121 101.364621,12.6642691 C100.735946,13.6297863 99.9115523,14.6130738 100.042032,15.8451449 C100.042032,19.8967633 100.059825,23.9483816 100.047963,28 C99.0100567,28 97.9721506,27.9940766 96.9342445,27.9881532 C96.8690046,23.5633594 97.0943785,19.1207954 96.8393502,14.7019251 C93.7612171,9.68478951 90.2679216,4.92236091 87,0.0236936746 C88.2158329,0.017770256 89.4316658,0.0118468373 90.6534296,0.00592341866 C93.274884,3.83245187 95.8726147,7.682674 98.4881382,11.5151259 C101.151109,7.70044426 103.695462,3.8087582 106.364363,0 Z M61.3348744,0 C63.6311558,4.654934 65.9105528,9.32013409 68.1843216,13.9882673 L75,27.9941337 C73.919397,27.9941337 72.8500503,27.9882673 71.7750754,27.982401 C70.2723618,25.0199036 68.7640201,22.0574062 67.4582915,18.9951812 C63.2540704,18.7839933 59.038593,18.9599832 54.8343719,18.8954536 C53.2641206,21.9048816 51.7951759,24.9671066 50.2699497,28 C49.1780905,27.9941337 48.0862312,27.9882673 47,27.982401 C50.8777889,20.2623088 54.6936683,12.5011523 58.5658291,4.7751938 C58.7369246,4.44902577 58.8972141,4.11417557 59.054802,3.77679112 L59.3687772,3.10046481 C59.8940704,1.97369462 60.4493802,0.864306167 61.3348744,0 Z M30.7148746,0 C32.2452765,9.17957166 33.5546204,18.3995058 35,27.5963756 C34.087427,27.5963756 33.1805222,27.6021417 32.2736173,27.6079077 C31.2703538,21.1441516 30.289763,14.6803954 29.2978358,8.21663921 C25.398145,14.6400329 22.3713501,21.5939044 18.4376503,28 C14.6626589,21.4958814 11.3241154,14.73229 7.80985915,8.08401977 C7.18006412,11.6717921 6.6762281,15.2809201 6.19241334,18.8926188 L5.61466581,23.2266889 C5.4207667,24.6709887 5.22329097,26.1144975 5.01545861,27.5560132 C4.01219512,27.5906096 3.00326348,27.6021417 2,27.630972 C3.35468911,18.4341021 4.52799725,9.20263591 6.07540364,0.0345963756 C6.90673308,0.668863262 7.40049239,1.57733846 7.85898317,2.50375252 L8.13226383,3.05970346 C8.26920646,3.33670511 8.40841635,3.6107084 8.55805565,3.87479407 C11.8795946,10.1425041 15.1501202,16.4332784 18.5,22.6779242 C22.6150807,15.1474465 26.4184129,7.42668863 30.7148746,0 Z M61.1097487,6.24177666 C59.4269347,9.57385292 57.761005,12.9176618 56.1232161,16.2732034 C59.4156784,16.2556044 62.7081407,16.2673371 66.000603,16.2614708 C64.3796985,12.9117955 62.8319598,9.5327886 61.1097487,6.24177666 Z M134.109749,6.13479823 C132.38191,9.44770759 130.755377,12.8138601 129.128844,16.1859286 C132.415678,16.156349 135.708141,16.1800127 138.994975,16.1681809 C137.37407,12.819776 135.882613,9.40038031 134.109749,6.13479823 Z" id="Combined-Shape" fill="#5A463A" fill-rule="nonzero"></path>
    </g>
</svg>