<svg width="500" height="79" viewBox="0 0 500 79" fill="none" xmlns="http://www.w3.org/2000/svg">
    <path fill-rule="evenodd" clip-rule="evenodd"
        d="M10.6317 14.0187C10.8327 15.5527 10.9789 17.1597 11.0794 18.8425C11.1799 20.5254 11.2286 22.7489 11.2286 25.5162V78.4077H0V0H10.7109L48.9468 51.0385L84.5118 0H96.5018V78.4077H84.5118V25.5162C84.5118 24.8267 84.5971 23.08 84.7707 20.2884C84.9412 17.4938 85.0539 15.4039 85.1026 14.0187C84.1128 16.0479 83.2357 17.755 82.4683 19.1402C81.7008 20.5254 81.0186 21.6372 80.4278 22.4755L50.4299 66.0961H47.0921L15.9065 23.6633C15.8578 23.6147 15.7329 23.4415 15.5349 23.1438C13.2569 20.0302 11.6215 16.9865 10.6317 14.0187Z"
        fill="#543019" />
    <path fill-rule="evenodd" clip-rule="evenodd"
        d="M181.709 49.1704H224.068L202.849 8.98536L181.709 49.1704ZM153.197 78.4077L196.149 0H210.221L253.92 78.4077H239.48L229.426 59.2341H176.198L166.15 78.4077H153.197Z"
        fill="#543019" />
    <path fill-rule="evenodd" clip-rule="evenodd"
        d="M319.622 78.4077V44.2099L279.855 0H296.118L326.785 34.936L356.177 0H372.135L332.749 43.9152V78.4077H319.622Z"
        fill="#543019" />
    <path fill-rule="evenodd" clip-rule="evenodd"
        d="M427.789 49.1704H470.147L448.928 8.98536L427.789 49.1704ZM399.276 78.4077L442.229 0H456.301L500 78.4077H485.56L475.506 59.2341H422.278L412.23 78.4077H399.276Z"
        fill="#543019" />
</svg>
