<svg width="500" height="142" viewBox="0 0 500 142" fill="none" xmlns="http://www.w3.org/2000/svg">
    <path fill-rule="evenodd" clip-rule="evenodd"
        d="M448.409 0.376016C432.347 31.2597 417.495 62.8819 401.846 94.0039C405.553 93.9837 409.276 93.9636 412.999 93.9233C417.928 83.6366 422.937 73.37 428.114 63.1975C442.117 63.2378 456.114 63.2176 470.117 63.2176C475.069 73.4875 479.809 83.875 485.063 93.9837C488.656 94.0039 492.245 94.0039 495.854 93.9837C480.565 62.704 465.813 31.0817 450.185 0C449.731 0.0805748 448.842 0.278654 448.409 0.376016ZM449.221 20.5969C455.174 31.5584 460.179 43.037 465.621 54.2805C461.227 54.3007 456.835 54.2973 452.437 54.294C445.79 54.2873 439.139 54.2839 432.498 54.341C437.957 43.0202 443.42 31.7196 449.221 20.5969ZM329.628 38.6591C320.845 25.794 312.126 12.8651 303.324 0.0201437C299.224 0.0369301 295.142 0.0604311 291.06 0.0805748C302.031 16.5245 313.758 32.5153 324.092 49.3588C324.948 64.1946 324.193 79.111 324.411 93.9636C327.896 93.9837 331.381 94.0039 334.865 94.0039C334.906 80.4002 334.845 66.7998 334.845 53.1961C334.409 49.06 337.175 45.7564 339.284 42.52C349.06 28.4563 358.48 14.1577 368.277 0.0973612C364.195 0.0604311 360.132 0.0369301 356.073 0C347.109 12.7879 338.568 25.8511 329.628 38.6591ZM198.291 10.4076L197.24 12.6805C196.71 13.8119 196.169 14.9365 195.595 16.031C182.599 41.9694 169.788 68.0253 156.768 93.9468C160.414 93.9636 164.08 93.9837 167.747 94.0039C172.866 83.8213 177.798 73.5413 183.069 63.4358C188.478 63.5198 193.896 63.4862 199.315 63.4526C208.027 63.3956 216.746 63.3385 225.452 63.7716C229.836 74.0516 234.902 83.9992 239.945 93.9468C243.554 93.9636 247.146 93.9837 250.769 93.9837L227.889 46.9617C220.254 31.2899 212.603 15.6281 204.895 0C201.92 2.90405 200.057 6.62392 198.291 10.4076ZM204.14 20.9528C209.917 32.005 215.114 43.3492 220.557 54.5961C216.518 54.6062 212.479 54.6028 208.44 54.6028C201.427 54.6028 194.413 54.5995 187.397 54.633C192.896 43.366 198.489 32.1426 204.14 20.9528ZM61.0857 76.1364C49.8389 55.1702 38.8605 34.0529 27.7076 13.0095C27.2041 12.1231 26.7374 11.2032 26.2774 10.2733L25.3609 8.40663C23.8199 5.29443 22.1614 2.24266 19.3749 0.117505C14.1778 30.8937 10.2364 61.8881 5.69059 92.7651C9.05795 92.6677 12.4454 92.6274 15.8162 92.5133C16.5111 87.6721 17.1725 82.8275 17.8272 77.9796L19.7677 63.4291C21.3892 51.3026 23.0813 39.1862 25.1964 27.1403C36.9939 49.4595 48.2039 72.1681 60.8742 94.0039C74.0818 72.4938 84.2443 49.1506 97.3343 27.5868C100.665 49.2883 103.958 70.9864 107.329 92.6878C110.371 92.6677 113.416 92.6476 116.481 92.6476C111.63 61.7706 107.232 30.8198 102.095 0C87.6687 24.9345 74.901 50.8561 61.0857 76.1364ZM424.142 117.572C422.631 118.2 421.322 119.066 420.214 120.174C419.106 121.282 418.24 122.595 417.612 124.119C416.984 125.643 416.672 127.308 416.672 129.121C416.672 130.934 416.984 132.599 417.612 134.123C418.24 135.644 419.106 136.96 420.214 138.068C421.322 139.176 422.631 140.042 424.142 140.67C425.653 141.295 427.291 141.61 429.061 141.61C430.044 141.61 430.978 141.499 431.864 141.274C432.747 141.053 433.573 140.744 434.332 140.351C435.09 139.962 435.768 139.495 436.363 138.958C436.759 138.602 437.111 138.226 437.42 137.84L437.857 137.246L435.876 135.836C435.426 136.527 434.939 137.105 434.415 137.565C433.888 138.025 433.331 138.387 432.737 138.656C432.143 138.924 431.538 139.116 430.924 139.226C430.31 139.337 429.685 139.394 429.061 139.394C427.536 139.394 426.173 139.116 424.961 138.555C423.753 137.998 422.732 137.246 421.893 136.306C421.053 135.366 420.409 134.274 419.962 133.032C419.516 131.79 419.291 130.484 419.291 129.121C419.291 127.758 419.516 126.452 419.962 125.21C420.409 123.968 421.053 122.877 421.893 121.936C422.732 120.996 423.753 120.244 424.961 119.687C426.173 119.126 427.536 118.848 429.061 118.848C429.685 118.848 430.313 118.935 430.941 119.116C431.569 119.294 432.153 119.529 432.703 119.821C433.251 120.113 433.737 120.446 434.164 120.829C434.449 121.08 434.691 121.336 434.896 121.591L435.171 121.97L437.286 120.392C436.232 119.049 434.969 118.089 433.492 117.505C432.015 116.921 430.538 116.632 429.061 116.632C427.291 116.632 425.653 116.944 424.142 117.572ZM342.661 117.572C341.15 118.2 339.841 119.066 338.733 120.174C337.625 121.282 336.759 122.595 336.131 124.119C335.503 125.643 335.191 127.308 335.191 129.121C335.191 130.934 335.503 132.599 336.131 134.123C336.759 135.644 337.625 136.96 338.733 138.068C339.841 139.176 341.15 140.042 342.661 140.67C344.172 141.295 345.81 141.61 347.579 141.61C349.349 141.61 350.987 141.295 352.498 140.67C354.009 140.042 355.315 139.176 356.426 138.068C357.534 136.96 358.4 135.644 359.028 134.123C359.656 132.599 359.968 130.934 359.968 129.121C359.968 127.308 359.656 125.643 359.028 124.119C358.4 122.595 357.534 121.282 356.426 120.174C355.315 119.066 354.009 118.2 352.498 117.572C350.987 116.944 349.349 116.632 347.579 116.632C345.81 116.632 344.172 116.944 342.661 117.572ZM343.484 138.555C342.275 137.998 341.251 137.246 340.412 136.306C339.572 135.366 338.928 134.274 338.481 133.032C338.031 131.79 337.81 130.484 337.81 129.121C337.81 127.758 338.031 126.452 338.481 125.21C338.928 123.968 339.572 122.877 340.412 121.936C341.251 120.996 342.275 120.244 343.484 119.687C344.692 119.126 346.059 118.848 347.579 118.848C349.1 118.848 350.467 119.126 351.675 119.687C352.884 120.244 353.908 120.996 354.747 121.936C355.587 122.877 356.228 123.968 356.678 125.21C357.128 126.452 357.349 127.758 357.349 129.121C357.349 130.484 357.128 131.79 356.678 133.032C356.228 134.274 355.587 135.366 354.747 136.306C353.908 137.246 352.884 137.998 351.675 138.555C350.467 139.116 349.1 139.394 347.579 139.394C346.059 139.394 344.692 139.116 343.484 138.555ZM287.283 117.001C286.568 117.246 285.94 117.609 285.403 118.092C284.865 118.572 284.446 119.16 284.144 119.855C283.841 120.55 283.69 121.342 283.69 122.239C283.69 123.336 283.976 124.347 284.546 125.277C285.117 126.207 285.758 127.05 286.477 127.812C285.758 128.147 285.077 128.54 284.429 128.987C283.778 129.433 283.204 129.944 282.7 130.514C282.196 131.085 281.8 131.73 281.508 132.445C281.216 133.163 281.072 133.956 281.072 134.828C281.072 135.903 281.273 136.86 281.676 137.699C282.079 138.538 282.619 139.247 283.304 139.831C283.986 140.415 284.781 140.855 285.688 141.157C286.594 141.459 287.541 141.61 288.525 141.61C290.136 141.61 291.499 141.244 292.617 140.519C293.517 139.935 294.37 139.176 295.179 138.246L295.777 137.514L299.134 141.006H302.558L297.22 135.5L301.585 128.147H298.865L295.609 133.788L290.136 128.147C290.741 127.835 291.355 127.483 291.983 127.09C292.611 126.7 293.175 126.251 293.675 125.747C294.182 125.243 294.588 124.683 294.904 124.068C295.216 123.454 295.374 122.752 295.374 121.97C295.374 121.097 295.223 120.328 294.92 119.67C294.618 119.009 294.205 118.455 293.675 118.008C293.151 117.562 292.543 117.219 291.849 116.984C291.154 116.749 290.415 116.632 289.633 116.632C288.78 116.632 287.998 116.756 287.283 117.001ZM287.87 125.881C287.591 125.556 287.323 125.203 287.064 124.824C286.806 124.441 286.581 124.035 286.393 123.598C286.202 123.162 286.108 122.739 286.108 122.339C286.108 121.265 286.45 120.416 287.132 119.788C287.813 119.16 288.659 118.848 289.666 118.848C290.583 118.848 291.362 119.133 292 119.704C292.637 120.275 292.956 121.03 292.956 121.97C292.956 122.574 292.815 123.112 292.537 123.582C292.258 124.052 291.899 124.465 291.462 124.824C291.026 125.183 290.549 125.499 290.036 125.781C289.522 126.063 289.038 126.335 288.592 126.603C288.387 126.445 288.149 126.207 287.87 125.881ZM286.712 139.059C286.128 138.834 285.614 138.525 285.168 138.135C284.721 137.743 284.362 137.269 284.093 136.709C283.825 136.148 283.69 135.533 283.69 134.862C283.69 134.258 283.768 133.71 283.925 133.217C284.083 132.723 284.328 132.26 284.664 131.824C285 131.387 285.439 130.971 285.99 130.581C286.4 130.289 286.876 129.977 287.424 129.655L287.988 129.322L294.266 135.903C293.886 136.396 293.494 136.853 293.091 137.279C292.688 137.702 292.258 138.072 291.798 138.387C291.338 138.699 290.845 138.944 290.321 139.126C289.794 139.304 289.206 139.394 288.558 139.394C287.907 139.394 287.293 139.284 286.712 139.059ZM202.377 117.035C201.457 117.303 200.638 117.716 199.909 118.277C199.181 118.838 198.6 119.539 198.164 120.392C197.727 121.242 197.509 122.239 197.509 123.38C197.509 124.475 197.68 125.388 198.029 126.116C198.378 126.845 198.835 127.449 199.402 127.929C199.977 128.409 200.624 128.809 201.353 129.121C202.082 129.433 202.83 129.715 203.602 129.96C204.375 130.205 205.123 130.451 205.852 130.699C206.577 130.944 207.228 131.253 207.799 131.622C208.37 131.992 208.83 132.448 209.175 132.999C209.525 133.546 209.696 134.234 209.696 135.063C209.696 135.758 209.538 136.373 209.222 136.91C208.914 137.447 208.514 137.9 208.034 138.27C207.554 138.639 207.01 138.918 206.406 139.109C205.801 139.3 205.197 139.394 204.593 139.394C203.337 139.394 202.253 139.129 201.336 138.605C200.601 138.182 199.997 137.652 199.52 137.007L199.188 136.507L197.005 138.085C197.922 139.337 199.036 140.237 200.346 140.788C201.655 141.335 203.035 141.61 204.492 141.61C205.432 141.61 206.365 141.452 207.295 141.14C208.225 140.828 209.065 140.378 209.813 139.797C210.562 139.213 211.166 138.491 211.626 137.632C212.086 136.769 212.315 135.802 212.315 134.728C212.315 133.294 212.012 132.166 211.408 131.337C210.804 130.508 210.055 129.84 209.159 129.339C208.262 128.836 207.285 128.433 206.221 128.131C205.157 127.829 204.176 127.486 203.283 127.107C202.387 126.727 201.638 126.241 201.034 125.646C200.43 125.052 200.128 124.219 200.128 123.145C200.128 122.407 200.272 121.762 200.564 121.215C200.853 120.664 201.242 120.218 201.722 119.872C202.202 119.526 202.746 119.267 203.351 119.1C203.955 118.932 204.569 118.848 205.197 118.848C207.01 118.848 208.433 119.476 209.464 120.725L209.797 121.164L211.912 119.519C210.972 118.445 209.951 117.696 208.857 117.27C207.759 116.847 206.54 116.632 205.197 116.632C204.237 116.632 203.293 116.766 202.377 117.035ZM126.653 117.572C125.143 118.2 123.833 119.066 122.725 120.174C121.618 121.282 120.751 122.595 120.124 124.119C119.496 125.643 119.184 127.308 119.184 129.121C119.184 130.934 119.496 132.599 120.124 134.123C120.751 135.644 121.618 136.96 122.725 138.068C123.833 139.176 125.143 140.042 126.653 140.67C128.164 141.295 129.803 141.61 131.572 141.61C132.556 141.61 133.492 141.499 134.375 141.274C135.258 141.053 136.081 140.744 136.843 140.351C137.605 139.962 138.28 139.495 138.874 138.958C139.27 138.602 139.623 138.226 139.935 137.84L140.368 137.246L138.387 135.836C137.941 136.527 137.454 137.105 136.927 137.565C136.403 138.025 135.839 138.387 135.248 138.656C134.654 138.924 134.05 139.116 133.435 139.226C132.817 139.337 132.2 139.394 131.572 139.394C130.051 139.394 128.685 139.116 127.476 138.555C126.267 137.998 125.243 137.246 124.404 136.306C123.565 135.366 122.92 134.274 122.474 133.032C122.024 131.79 121.802 130.484 121.802 129.121C121.802 127.758 122.024 126.452 122.474 125.21C122.92 123.968 123.565 122.877 124.404 121.936C125.243 120.996 126.267 120.244 127.476 119.687C128.685 119.126 130.051 118.848 131.572 118.848C132.2 118.848 132.824 118.935 133.452 119.116C134.076 119.294 134.667 119.529 135.215 119.821C135.762 120.113 136.252 120.446 136.675 120.829C136.957 121.08 137.202 121.336 137.403 121.591L137.682 121.97L139.797 120.392C138.746 119.049 137.481 118.089 136.003 117.505C134.526 116.921 133.049 116.632 131.572 116.632C129.803 116.632 128.164 116.944 126.653 117.572ZM484.859 117.236V141.006H500V138.79H487.276V129.759H498.791V127.543H487.276V119.452H499.597V117.236H484.859ZM464.95 117.236V141.006H467.367V129.96H471.396L477.909 141.006H480.86L474.015 129.725C475.985 129.544 477.489 128.893 478.53 127.761C479.571 126.63 480.091 125.237 480.091 123.582C480.091 121.456 479.39 119.868 477.993 118.814C476.751 117.878 475.102 117.361 473.054 117.256L472.269 117.236H464.95ZM467.367 119.452H471.665C472.739 119.452 473.649 119.56 474.401 119.771C475.153 119.983 475.75 120.281 476.197 120.661C476.643 121.04 476.969 121.483 477.17 121.987C477.372 122.49 477.473 123.021 477.473 123.582C477.473 124.162 477.372 124.706 477.17 125.21C476.969 125.713 476.643 126.15 476.197 126.516C475.75 126.888 475.153 127.184 474.401 127.409C473.649 127.634 472.739 127.745 471.665 127.745H467.367V119.452ZM449.036 117.236L438.696 141.006H441.516L444.135 134.761H456.288L458.907 141.006H461.727L451.387 117.236H449.036ZM450.212 120.056L455.348 132.545H445.041L450.212 120.056ZM403.176 117.236L396.092 128.45L389.008 117.236H385.983L394.884 130.766V141.006H397.301V130.766L406.198 117.236H403.176ZM364.467 117.236V141.006H372.356C373.833 141.006 375.317 140.757 376.805 140.267C378.292 139.774 379.638 139.028 380.833 138.035C382.028 137.038 382.999 135.802 383.737 134.325C384.473 132.848 384.845 131.112 384.845 129.121C384.845 127.154 384.473 125.421 383.737 123.934C382.999 122.443 382.028 121.201 380.833 120.207C379.638 119.21 378.292 118.468 376.805 117.975C375.613 117.579 374.428 117.344 373.242 117.267L372.356 117.236H364.467ZM366.884 119.452H371.584C373.397 119.452 374.968 119.724 376.301 120.275C377.634 120.822 378.738 121.55 379.625 122.457C380.508 123.363 381.162 124.394 381.589 125.546C382.015 126.7 382.227 127.889 382.227 129.121C382.227 130.353 382.015 131.542 381.589 132.697C381.162 133.848 380.508 134.879 379.625 135.785C378.738 136.692 377.634 137.42 376.301 137.967C374.968 138.515 373.397 138.79 371.584 138.79H366.884V119.452ZM315.652 117.236V141.006H322.903C324.804 141.006 326.328 140.737 327.469 140.2C328.611 139.663 329.48 139.028 330.085 138.303C330.692 137.578 331.088 136.843 331.28 136.104C331.471 135.366 331.565 134.805 331.565 134.426C331.565 132.68 331.088 131.287 330.138 130.246C329.306 129.333 328.194 128.772 326.805 128.554L326.194 128.483V128.416C327.536 128.104 328.574 127.483 329.299 126.553C330.028 125.623 330.387 124.512 330.387 123.212C330.387 122.094 330.175 121.151 329.752 120.392C329.329 119.63 328.755 119.016 328.04 118.546C327.325 118.076 326.506 117.74 325.589 117.538C324.901 117.387 324.196 117.293 323.467 117.253L322.736 117.236H315.652ZM318.069 119.452H322.702C323.843 119.452 324.75 119.613 325.421 119.939C326.093 120.265 326.603 120.651 326.949 121.097C327.295 121.544 327.52 121.99 327.62 122.44C327.721 122.89 327.771 123.232 327.771 123.481C327.771 124.243 327.627 124.888 327.335 125.411C327.043 125.938 326.67 126.368 326.21 126.704C325.75 127.04 325.237 127.278 324.666 127.426C324.095 127.573 323.518 127.644 322.937 127.644H318.069V119.452ZM318.069 129.658H323.004C324.948 129.658 326.429 130.038 327.436 130.8C328.443 131.562 328.946 132.723 328.946 134.291C328.946 135.074 328.785 135.745 328.46 136.306C328.134 136.863 327.694 137.33 327.134 137.699C326.573 138.068 325.915 138.34 325.153 138.521C324.391 138.699 323.575 138.79 322.702 138.79H318.069V129.658ZM264.487 117.236V137.38H264.42L250.252 117.236H247.23V141.006H249.647V120.661H249.711L263.882 141.006H266.904V117.236H264.487ZM238.367 141.006H240.784V117.236H238.367V141.006ZM231.149 117.236L219.969 127.543H219.633V117.236H217.216V141.006H219.633V128.752H220.036L231.72 141.006H235.278L222.621 128.013L234.604 117.236H231.149ZM164.003 117.236V141.006H171.893C173.37 141.006 174.851 140.757 176.341 140.267C177.832 139.774 179.171 139.028 180.367 138.035C181.569 137.038 182.535 135.802 183.274 134.325C184.013 132.848 184.382 131.112 184.382 129.121C184.382 127.154 184.013 125.421 183.274 123.934C182.535 122.443 181.569 121.201 180.367 120.207C179.171 119.21 177.832 118.468 176.341 117.975C175.149 117.579 173.961 117.344 172.779 117.267L171.893 117.236H164.003ZM166.42 119.452H171.121C172.934 119.452 174.505 119.724 175.838 120.275C177.167 120.822 178.278 121.55 179.161 122.457C180.044 123.363 180.699 124.394 181.122 125.546C181.548 126.7 181.763 127.889 181.763 129.121C181.763 130.353 181.548 131.542 181.122 132.697C180.699 133.848 180.044 134.879 179.161 135.785C178.278 136.692 177.167 137.42 175.838 137.967C174.505 138.515 172.934 138.79 171.121 138.79H166.42V119.452ZM144.43 117.236V141.006H159.572V138.79H146.848V129.759H158.363V127.543H146.848V119.452H159.169V117.236H144.43ZM111.928 117.236V137.38H111.865L97.6969 117.236H94.6754V141.006H97.0926V120.661H97.1597L111.324 141.006H114.349V117.236H111.928ZM78.7618 117.236L68.418 141.006H71.2415L73.8602 134.761H86.0136L88.6322 141.006H91.4524L81.1086 117.236H78.7618ZM79.9369 120.056L85.0735 132.545H74.7633L79.9369 120.056ZM65.9034 117.236L58.1146 137.38H58.0474L50.4935 117.236H47.8077L56.8388 141.006H59.256L68.5221 117.236H65.9034ZM25.9182 117.236V141.006H33.8078C35.285 141.006 36.769 140.757 38.2562 140.267C39.7469 139.774 41.0864 139.028 42.2816 138.035C43.4835 137.038 44.4504 135.802 45.189 134.325C45.9276 132.848 46.2969 131.112 46.2969 129.121C46.2969 127.154 45.9276 125.421 45.189 123.934C44.4504 122.443 43.4835 121.201 42.2816 120.207C41.0864 119.21 39.7469 118.468 38.2562 117.975C37.0644 117.579 35.8759 117.344 34.6942 117.267L33.8078 117.236H25.9182ZM28.3355 119.452H33.0357C34.8486 119.452 36.4232 119.724 37.7526 120.275C39.0821 120.822 40.1934 121.55 41.073 122.457C41.9593 123.363 42.614 124.394 43.037 125.546C43.4634 126.7 43.6782 127.889 43.6782 129.121C43.6782 130.353 43.4634 131.542 43.037 132.697C42.614 133.848 41.9593 134.879 41.073 135.785C40.1934 136.692 39.0821 137.42 37.7526 137.967C36.4232 138.515 34.8486 138.79 33.0357 138.79H28.3355V119.452ZM10.3404 117.236L0 141.006H2.82012L5.4388 134.761H17.5922L20.2108 141.006H23.031L12.6905 117.236H10.3404ZM11.5155 120.056L16.6521 132.545H6.34526L11.5155 120.056Z"
        fill="#543019" />
</svg>